<?xml version="1.0" encoding="utf-8"?>
<!-- Generator: Adobe Illustrator 16.0.0, SVG Export Plug-In . SVG Version: 6.00 Build 0)  -->
<!DOCTYPE svg PUBLIC "-//W3C//DTD SVG 1.1//EN" "http://www.w3.org/Graphics/SVG/1.1/DTD/svg11.dtd">
<svg version="1.1" id="Layer_1" xmlns="http://www.w3.org/2000/svg" xmlns:xlink="http://www.w3.org/1999/xlink" x="0px" y="0px"
	 width="2426.451px" height="876.518px" viewBox="36.793 774.969 2426.451 876.518"
	 enable-background="new 36.793 774.969 2426.451 876.518" xml:space="preserve">
<g>
	<path fill="#FFFFFF" d="M263.39,1381.229l0.168-0.078l-0.078-0.13L263.39,1381.229z M331.079,1512.755
		c1.894,5.603,3.243,9.727,3.865,11.504l-13.618,3.061L331.079,1512.755z M290.484,1408.971l0.7,0.207
		c1.894,4.15,3.424,7.522,4.384,9.728l-11.258,5.045L290.484,1408.971z M2362.975,1277.263c-0.104-0.052-0.156-0.104-0.26-0.13
		C2362.798,1277.182,2362.885,1277.226,2362.975,1277.263z M506.34,1382.473c-0.679-1.066-1.401-2.105-2.166-3.112
		c-0.426-0.588-0.846-1.18-1.258-1.776c-0.26-3.087-1.453-4.994-4.98-10.558c-39.117-61.879-55.9-94.511-63.033-111.592
		c9.818-2.866,25.446-4.631,31.711-5.331c1.92-0.221,3.657-0.415,5.278-0.622c2.711,9.546,5.992,24.694,7.652,32.347
		c3.243,14.967,3.904,17.859,5.681,20.842c5.059,8.482,5.059,8.482,5.279,13.203c0.129,2.711,0.298,6.434,0.816,11.803l0.065,0.714
		l0.155,0.713c1.842,9.065,9.144,33.695,12.296,41.088l-0.299-0.635l6.07,16.588c0.285,0.83,0.752,2.102,1.284,3.541
		C509.349,1387.285,507.779,1384.847,506.34,1382.473z M665.245,1041.783c-0.363,0.428-0.727,0.817-1.076,1.258
		c-0.612-0.448-1.24-0.877-1.881-1.283L665.245,1041.783z M1169.938,1269.766c-3.401-1.194-6.813-2.361-10.233-3.502l-1.05-0.35
		c4.643-2.478,8.923-5.447,12.995-8.508C1171.132,1261.533,1170.562,1265.653,1169.938,1269.766L1169.938,1269.766z
		 M1387.259,1287.067c-0.13-1.037-0.207-2.075-0.324-3.087c-0.934-7.418-1.388-13.268-1.803-18.469
		c-1.012-12.594-1.751-21.737-8.431-32.398c3.853-3.074,5.876-6.861,5.876-11.374c0.259-4.877,0.025-8.146-0.13-10.078
		c-0.025-0.328-0.043-0.656-0.052-0.985c0.207-4.293,0.233-10.583,0.259-18.547c0.026-14.021,0.156-47.431,2.659-62.968
		c31.815,8.481,57.65,20.712,61.126,27.197c0.26,1.089,0.156,4.033,0.104,6.031l-0.078,2.101
		c-6.005,4.838-11.803,9.831-17.275,15.901c-7.393,8.067-15.759,30.452-31.686,77.546
		C1393.796,1268.858,1389.309,1282.087,1387.259,1287.067z M1728.273,1106.685l-1.038,6.835
		c-2.503,16.744-4.864,32.541-8.534,48.156c-1.271,5.408-2.971,11.881-4.76,18.729c-4.631,17.587-9.779,37.288-11.828,53.099
		c-0.708,0.475-1.384,0.994-2.023,1.556c-7.361,6.402-13.039,14.512-16.537,23.618l-60.219-4.176
		c0.935-3.917,1.492-8.003,1.946-12.036c0.454-3.956,1.192-10.454,2.36-12.516c2.711-1.907,6.135-5.292,15.861-27.509
		c9.779-22.567,20.389-36.86,33.813-54.953c4.656-6.265,9.455-12.736,14.643-20.116c3.347-4.773,6.991-9.338,10.817-14.176
		c9.351-11.803,19.052-24.021,24.694-39.493c3.502-9.649,2.023-21.698-1.725-31.075h7.626l-1.245,9.493l-0.104,0.688l-0.026,0.688
		c-0.077,2.556-0.052,5.007-0.025,7.367c0,3.891,0.052,7.562-0.402,10.739c-0.078,0.674-1.699,18.054-1.699,18.054
		L1728.273,1106.685L1728.273,1106.685z M2170.866,1415.352c-5.071-4.89-8.937-11.607-9.883-16.64
		c2.659,1.349,5.188,2.685,6.718,3.644l3.035,4.838h7.146c1.037,0.377,3.165,1.829,4.514,2.686c1.518,1.012,3.061,2.049,4.76,2.982
		l3.477,1.881c4.941,2.685,9.986,5.421,13.371,8.612c-0.791,0.454-1.776,0.907-3.009,1.322l-1.673,0.506h-8.041
		C2183.305,1423.73,2175.809,1420.138,2170.866,1415.352L2170.866,1415.352z M2057.03,1339.66c2.983,2.075,6.81,4.656,11.621,7.898
		l-0.83,0.48c-2.075,1.245-4.15,2.438-6.226,3.592C2060.748,1347.415,2059.205,1343.37,2057.03,1339.66L2057.03,1339.66z
		 M2035.215,1318.817c1.726,2.05,3.502,4.15,5.344,6.252c-1.591-0.84-3.213-1.618-4.863-2.335c-0.558-0.233-1.142-0.428-1.699-0.636
		C2034.359,1321.035,2034.762,1319.946,2035.215,1318.817z M2421.17,1422.343l-0.078-0.233
		C2421.065,1422.083,2421.117,1422.187,2421.17,1422.343z M2422.077,1424.521l-0.182-4.436l-0.052-0.934
		c-0.062-0.267-0.113-0.535-0.155-0.805c-0.584-3.32-0.376-7.626-0.208-12.179c0.26-5.499,0.48-11.452-0.479-17.509l1.388-2.023
		c-0.892-2.516-1.83-5.016-2.814-7.496c0.142,0.332,0.242,0.681,0.298,1.037c-0.739-3.035-1.776-5.499-2.581-7.496
		c-0.41-0.958-0.783-1.932-1.115-2.919l-1.439-5.875c-1.673-6.965-3.424-14.163-6.719-21.764l-0.376-0.83l-0.454-0.765l-2.97-5.02
		l-2.127-3.541l-1.945-6.407c-2.387-7.548-13.1-23.488-18.599-28.624l-0.986-0.934c0.052,0.052-1.089-0.688-1.089-0.688
		l-4.358-2.736l-1.919-1.193c-0.208-3.424-1.699-9.624-9.066-13.476c-1.142-1.115-2.282-2.231-3.476-3.45
		c-3.956-4.033-8.431-8.586-13.981-12.113c-3.362-2.188-6.712-4.394-10.052-6.615l3.32-3.878
		c6.031-7.263,22.373-28.728,29.973-40.452c9.066-14.202,15.474-30.777,17.679-45.551c0.687-4.682,1.751-16.497-2.634-26.743
		c-12.165-28.041-58.739-56.419-80.982-65.381l-19.831-7.405l-0.429-0.156l-0.401-0.129l-19.61-5.967l-9.195-2.788l-1.439,1.829
		c-12.944-3.762-53.877-12.049-76.146,1.115c-1.678-0.876-3.41-1.643-5.188-2.296c-5.901-2.127-25.355-8.119-40.634-1.79
		c-8.741,0.545-17.004,3.1-23.527,7.25c-9.17,1.53-23.229,9.261-34.474,17.159c-1.245-3.709-2.387-6.783-3.955-9.261
		c-3.556-5.38-8.351-9.828-13.982-12.97c-13.605-7.25-28.909-12.412-44.59-16.433l136.001-1.789l7.729-0.104l4.072-6.55
		l147.531-236.49l13.502-21.621h-25.512L289.77,774.969h-25.33l13.281,21.557l146.805,238.526l4.15,6.758l7.938-0.026
		c0.545,0,54.577-0.168,69.311,0.064c30.647,0.506,61.425,0.273,91.203,0.065l3.074-0.013c-14.643,2.49-28.105,5.681-38.196,10.246
		c-2.982,1.336-5.72,3.216-8.378,5.032c-1.448,1.022-2.937,1.987-4.462,2.892c-29.778-7.094-56.562-2.204-79.66,14.592
		c-1.656-1.705-3.282-3.439-4.877-5.201c-3.593-3.904-6.692-7.289-9.805-9.649c-9.442-7.146-24.279-16.926-44.214-19.377
		c-44.681-5.513-149.853,69.167-171.733,118.31c-19.351,3.178-33.008,14.812-45.226,25.305l-2.568,2.205
		c-5.318,4.525-10.648,9.39-15.81,14.071c-12.244,11.142-24.889,22.658-37.937,30.428c-12.347,7.289-25.667,11.88-35.576,12.23
		l-1.751,0.052l-1.362,0.402c-0.986,0.155-3.891,0.181-6.031,0.207c-14.37,0.13-52.553,0.454-55.64,44.279
		c-1.997,26.873,12.75,45.899,24.033,57.884c10.752,11.478,22.93,23.125,38.922,30.647l0.934,0.428l0.96,0.299l9.416,2.866
		l13.281,4.046c24.63,7.549,53.89,8.404,80.296,2.36c19.857-5.603,29.727-9.468,52.229-19.688l2.348,5.525
		c1.336,3.034,2.646,6.057,4.085,8.741l7.562-17.432c2.503,5.771,4.617,10.609,5.382,12.23l-12.866,5.318l0.078,0.155l-0.182,0.078
		c5.084,12.088,11.219,25.615,15.292,34.577c1.504,3.32,3.048,6.719,3.93,8.716l-0.272,0.13
		c2.529,7.172,10.129,27.534,13.346,34.499c9.066,19.403,20.129,52.515,24.292,64.953c0.506,1.491,1.103,3.319,1.907,5.136
		l-0.117,0.025c1.543,5.046,3.204,10.052,4.799,14.916c3.528,10.687,6.848,20.777,9.208,31.257c0.662,2.97,1.284,6.161,1.933,9.546
		c3.359,17.379,7.536,38.987,23.19,52.735c10.492,9.222,33.708,22.217,71.308,5.654c14.085-6.212,49.479-32.347,56.198-38.806
		l0.713-0.688l0.584-0.765l14.357-18.262l4.229-5.396c2.606-0.959,7.82-1.271,11.452-1.465c1.595-0.104,3.229-0.208,4.863-0.351
		c13.242-1.115,31.88-7.652,45.589-32.32c14.06-25.33,9.559-50.439-0.467-71.71c18.896,14.863,40.803,25.2,65.652,30.569
		c35.291,7.601,95.03-1.322,124.354-26.264c6.07-5.188,9.183-11.776,11.686-17.068c0.584-1.245,1.388-2.97,1.998-4.033
		c0.376-0.104,0.804-0.208,1.167-0.272c1.867-0.428,4.176-0.96,6.719-2.023c8.77-3.624,16.662-9.081,23.15-16.005l0.467-0.479
		c0,0.025,0.415-0.506,0.415-0.506l20.116-25.136c20.453,28.145,57.055,28.223,86.937,28.223h0.609l0.597-0.078
		c3.009-0.259,6.031-0.83,9.52-1.543c10.117-1.972,27.029-5.318,64.629-4.15c11.53,0.298,19.844-6.135,26.069-11.53
		c6.096,4.915,12.918,10.207,20.972,13.346l0.376,0.155l0.39,0.13l6.679,2.18l7.173,2.334l1.115,0.376l1.076,0.156l7.25,1.089
		c7.225,2.283,26.316,6.563,73.306-16.821c14.111-7.25,27.444-16.822,37.716-27.056l0.57-0.583l0.48-0.584l1.608-2.023
		c2.022,2.556,4.436,4.968,7.263,7.173c7.562,5.823,16.212,8.923,24.254,8.923c5.499,1.92,12.113,1.414,19,0.856
		c0.999-0.078,2.361-0.208,2.789-0.208c6.264,0.299,12.813-1.595,18.066-3.112c1.518-0.454,2.944-0.856,4.111-1.142l8.016-1.997
		c13.709-3.424,26.652-6.692,39.908-9.17c8.287-1.595,16.536-2.386,25.252-3.217l6.887-0.661l0.713-0.077l0.636-0.13l7.367-1.492
		l6.744-1.361c-0.324,0.077,5.655-1.012,5.655-1.012l5.07-0.908l1.245-0.233l1.22-0.428c4.306-1.621,7.925-3.645,11.167-5.928
		c6.718,10.052,14.643,18.34,23.864,24.695c18.949,13.021,41.918,14.513,64.136,15.979c8.365,0.531,16.264,1.063,23.761,2.152
		c8.08,1.193,16.082,2.893,24.577,4.683c8.586,1.829,17.458,3.723,26.472,5.02c10.181,1.543,21.426,3.956,55.328,17.729
		c1.44,0.584,4.605,2.179,7.652,3.696c15.811,7.847,27.236,13.073,36.354,12.542h0.233c5.681,3.346,12.088,2.23,16.057,1.491
		c0.222-0.024,0.443-0.059,0.662-0.104c10.972-1.544,21.932-7.419,28.676-15.356c1.465-1.776,2.711-3.67,4.033-5.693
		c0.454-0.714,1.09-1.647,1.725-2.607c10.26,3.269,24.5,5.046,36.912,4.034c19.352-1.544,53.955-0.026,78.092,2.282
		c37.391,3.515,78.09,17.328,103.758,35.135c3.852,2.686,8.456,6.589,13.319,10.713c12.386,10.493,26.42,22.373,41.244,25.538
		c11.802,2.478,25.005,0.934,35.343-4.072l0.766-0.351l0.66-0.428l0.26-0.156v0.26c0.026,3.398,0.053,8.534,2.686,13.955
		c6.406,13.346,17.404,25.2,32.58,35.266l11.27,9.351l1.324,1.09l1.491,0.713l18.287,8.897l18.262,8.871l1.647,0.791l1.803,0.351
		l14.267,2.866l9.195,1.854c12.996,3.748,24.552,5.85,35.136,6.381c7.924,0.325,17.172,0.714,25.174-0.83
		c2.633-0.531,4.786-1.322,6.511-1.945l1.012-0.35l1.142,1.011c2.152,1.92,4.812,4.332,8.235,6.058
		c7.782,3.878,18.132,4.656,28.948,5.162l0.739,0.025c79.362,3.749,154.833-44.408,192.29-122.603
		c7.017-14.721,11.725-34.021,15.045-49.194c0.506-2.283,0.791-4.384,1.038-6.226c0.13-0.96,0.272-1.894,0.428-2.763
		c0.155-0.233,0.376-0.402,0.532-0.688C2422.232,1434.884,2424.074,1430.371,2422.077,1424.521L2422.077,1424.521z"/>
	<path d="M2408.045,1427.607c-0.078-2.282-0.183-4.564-0.273-6.835c-2.022-11.607,2.102-25.277-2.36-35.848
		c1.751,0,1.038-0.182,0.714-1.596c-0.856-3.45-2.841-6.938-3.645-10.155c-2.361-9.17-3.774-17.094-7.394-25.408l-5.979-10.025
		c-0.792-2.633-1.621-5.317-2.451-7.977c-1.544-4.993-10.765-18.818-14.721-22.489c-2.633-1.673-5.317-3.347-7.95-4.993
		c-3.269-2.283-6.408-5.292-4.864-9.936c0-2.152-2.335-1.893-3.748-3.242c-5.317-4.993-10.259-10.998-16.265-14.824
		c-22.035-14.318-22.879-15.862-22.969-16.264c5.162-6.277,5.291-6.148,13.021-15.278c5.72-6.874,21.711-27.886,28.922-39.039
		c7.251-11.349,13.502-26.108,15.551-39.921c0.908-6.304,0.61-13.774-1.646-19.104c-9.831-22.606-52.061-49.26-73.279-57.819
		l-19.506-7.276l-19.585-5.966c-3.139,3.917-4.436,4.656-6.64,3.255c-1.012-2.528-0.26-3.034-1.804-3.54
		c-15.979-5.538-59.661-11.621-71.438,2.606c-4.63,0-8.663-3.217-12.735-4.669c-8.535-3.074-23.762-6.187-32.399-1.129
		c-8.287,0-17.678,2.607-23.15,8.106c0-1.439,0.259-1.219-1.167-0.973c-10.156,1.621-34.526,17.172-41.646,25.291
		c-4.734,0-8.638-19.273-11.452-23.657c-2.22-3.317-5.177-6.078-8.638-8.066c-28.676-15.292-65.887-20.648-99.051-26.73
		c-13.397-2.452-27.301-6.913-41.723-5.655c-6.693,0.584-11.621,3.878-17.38,6.226c0-1.815-21.18-12.334-24.318-15.045h1.167
		l279.123-3.696l147.53-236.504l-2004.14-0.312l146.805,238.515c0,0,54.538-0.182,69.583,0.064
		c69.92,1.128,138.491-1.439,208.359,0.765v1.168h1.154v1.154c-3.217,1.271-6.434,2.49-9.649,3.722
		c-14.617,5.356-29.338,8.716-37.327,28.91c-10.636,1.945-5.317-17.405-37.509-11.582c-19.312,2.309-47.34,5.966-63.37,13.203
		c-5.681,2.529-13.632,10.752-19.714,9.3c-12.957-3.334-45.861-10.778-77.806,17.794c-6.29,0-18.054-16.484-24.046-21.05
		c-11.167-8.456-22.97-14.838-37.393-16.602c-40.686-5.02-151.681,76.521-159.605,117.506c-21.115,0-34.396,12.555-49,25.032
		c-17.911,15.266-35.667,33.955-55.705,45.899c-11.673,6.9-27.833,13.684-42.307,14.215c-9.948,2.893-48.429-7.25-51.179,31.789
		c-1.453,19.455,7.989,34.201,20.22,47.197c10.311,10.998,21.115,21.205,34.655,27.561c7.587,2.309,15.149,4.592,22.71,6.913
		c22.166,6.783,49.156,7.548,72.981,2.101c21.271-6.005,29.727-9.675,62.683-24.798c5.539,13.073,13.852,32.101,12.192,28.015
		c10.051,23.942,24.046,52.942,19.234,44.175c2.607,7.367,9.987,27.107,12.84,33.229c12.088,25.862,26.977,73.436,26.756,71.943
		c4.812,15.681,10.636,31.011,14.293,47.249c4.046,18.158,6.07,41.944,20.661,54.745c6.537,5.771,24.085,17.535,56.263,3.347
		c12.36-5.447,46.198-30.375,52.1-36.069c6.757-8.56,13.488-17.172,20.22-25.731c6.407-4.734,16.315-4.384,24.63-5.071
		c16.16-1.388,27.055-11.906,34.396-25.109c20.427-36.86-7.237-73.669-28.936-100.01c-12.716-15.43-24.318-31.743-34.72-48.818
		c-1.453-2.36-6.369-7.782-5.396-10.636c0-0.428-53.592-82.578-69.077-123.511c-0.805-2.153-5.279-3.061-3.904-5.058
		c9.909-14.215,60.725-13.969,62.566-16.9c5.499-8.793,16.809,58.17,18.949,61.749c9.26,15.499,6.121,11.375,8.027,30.855
		c2.348,11.556,10.532,36.86,11.427,38.403c2.023,5.525,4.047,11.076,6.083,16.588c3.45,9.987,9.117,23.631,14.98,32.295
		c6.069,9.014,10.998,18.521,17.976,27.029c21.725,26.367,49.791,42.813,82.565,49.907c33.929,7.315,88.207-2.814,112.188-23.229
		c7.056-6.031,8.819-17.626,14.033-21.686c3.256-2.581,7.536-2.438,11.258-3.981c7.444-3.139,12.659-6.835,18.443-12.814
		c7.522-9.351,15.045-18.741,22.567-28.17c2.348-3.32,4.812-8.768,8.923-10.182c4.189-1.518,6.147,5.694,7.419,8.002
		c15.045,27.938,47.093,28.145,79.167,28.145c9.663-0.83,24.733-7.341,75.809-5.745c9.831,0.259,16.771-9.494,24.876-15.071h1.154
		c8.028,5.876,16.381,14.215,25.706,17.859l13.852,4.539c2.75,0.429,5.486,0.831,8.249,1.22c3.541,1.142,18.158,7.068,63.799-15.654
		c11.893-6.109,24.227-14.644,34.032-24.423c3.942-4.915,7.847-9.883,11.751-14.798v-1.142c2.243,0,5.615,3.009,6.951,4.604h1.154
		c0,10.791,16.926,22.541,27.781,19.688c0,3.32,15.629,0.934,18.508,1.089c6.005,0.272,13.126-2.529,18.664-3.878
		c16.199-4.033,32.281-8.235,48.598-11.322c11.141-2.127,21.957-2.893,33.332-4.047c4.708-0.934,9.429-1.894,14.111-2.866
		c3.696-0.636,7.341-1.323,11.05-1.972c7.898-2.943,12.866-8.028,18.897-14.033c0-2.982,2.101,1.777,2.36,2.283
		c6.187,12.671,14.851,23.941,26.73,32.151c22.14,15.227,54.162,11.699,81.942,15.811c17.043,2.503,33.916,7.198,51.023,9.701
		c11.699,1.777,24.37,4.683,58.598,18.625c7.289,2.97,31.18,16.692,38.637,15.2c3.476,0,4.41-0.765,6.939,1.167
		c0,2.153,6.381,0.558,8.105,0.351c7.146-1.012,15.07-4.89,19.857-10.492c3.319-4.034,9.117-16.265,14.771-15.02
		c0.48,0.584,16.874,7.471,37.522,5.798c21.504-1.751,57.481,0.052,80.581,2.282c37.547,3.541,81.164,17.225,110.502,37.587
		c14.111,9.805,32.957,30.53,49.441,34.046c8.793,1.854,18.689,0.688,26.211-2.971c2.789-1.776,5.525-3.541,8.34-5.317
		c0-1.92,0.662-1.167,2.309-1.167c0,1.439,10.156,8.611,10.998,13.1c0.83,4.708-0.401,9.039,1.622,13.242
		c6.083,12.619,16.743,22.516,28.417,30.115c3.93,3.269,7.781,6.485,11.672,9.701c12.205,5.928,24.37,11.803,36.575,17.756
		l23.839,4.76c10.129,2.971,21.373,5.5,32.684,6.057c6.835,0.273,15.304,0.688,21.789-0.583c4.279-0.882,8.054-3.515,12.788-2.893
		c4.812,0.558,8.871,6.719,13.177,8.897c5.928,2.97,17.146,3.398,24.021,3.723c80.27,3.773,146.921-47.924,178.866-114.627
		c6.329-13.242,10.765-31.413,13.981-46.107c1.012-4.708,1.012-9.455,2.736-13.761
		C2409.691,1430.072,2408.524,1428.879,2408.045,1427.607L2408.045,1427.607z M682.91,1296.068
		c-3.723,13.45-6.731,7.522-7.925,5.123c-3.735-7.574-2.854-21.335-3.515-22.191c-4.086-5.473-2.102-45.523-2.023-54.278
		c-2.14-4.267-6.368-11.53-8.171-13.372c0-5.537,6.938-14.979,7.847-22.035c1.129-8.937,0.078-18.119,0.26-27.742l1.154-26.614
		c2.749-5.603,4.591,10.052,5.499,12.84c2.503,7.925,9.662,59.752,8.923,69.415C683.701,1228.808,688.979,1273.903,682.91,1296.068z
		 M1025.844,1140.742c-1.881,0-3.619,3.658-5.318,4.773c-3.229,1.518-6.472,2.996-9.727,4.487
		c-3.477,0.402-6.952,0.766-10.415,1.154c-4.124,0-8.456,0.48-11.582,2.321c-5.058,0-9.909-1.452-10.272-6.912
		c-0.83-11.505,18.301-8.794,26.445-9.663c4.268-1.024,8.496-2.062,12.763-3.112c2.854,1.518,5.032,2.854,6.952,5.797
		C1026.22,1139.588,1025.844,1139.174,1025.844,1140.742z M1179.781,1290.038v1.141c-1.556,0-1.154,0.376-1.154-1.141
		c-3.696,0-6.329-4.125-9.441-5.422c-7.886-3.346-33.462-10.713-39.636-14.851c-6.368-4.15,1.777-8.157,2.788-10.998
		c20.727,0,34.941-17.535,50.933-27.769c2.166,1.063,4.695-0.868,4.734,4.916
		C1187.953,1242.465,1182.895,1286.458,1179.781,1290.038z M1458.515,1172.96c-6.484,5.136-13.021,10.44-18.819,16.887
		c-11.089,12.126-37.923,104.873-41.438,106.469c-3.113,1.388-15.629,41.567-20.597,31.127c-3.009-6.484-2.84-26.627-4.76-41.697
		c-3.216-25.46-1.115-34.176-8.378-45.485c-14.695-7.704,3.903-18.105,3.903-18.521c0.351-7.341-0.259-9.507-0.155-11.608
		c0.882-19.286-2.049-101.021,10.558-97.195c18.689,4.345,71.71,19.61,80.399,37.327c2.97,6.083,0.454,14.902,1.776,21.698
		C1459.449,1171.974,1459.475,1172.143,1458.515,1172.96L1458.515,1172.96z M1748.895,1033.067
		c-0.908,6.978-1.854,13.93-2.736,20.868c-0.233,6.654,0.324,13.242-0.584,19.637l-3.268,34.798
		c-2.893,19.065-5.5,38.015-9.832,56.535c-4.889,20.505-14.824,53.319-16.821,74.355c-0.35,3.696-4.008,4.488-6.277,6.485
		c-8.159,7.234-13.566,17.067-15.304,27.833l-88.934-6.187l4.15-14.721c3.009-10.519,1.219-28.132,9.779-34.007
		c2.412-1.66,9.402-17.211,11.451-21.906c13.879-32.048,29.559-48.675,49.883-77.546c11.776-16.822,26.795-31.244,33.773-50.388
		c2.918-8.028,0-20.323-4.488-26.445c-2.982-4.072-7.341-8.353-6.783-13.917h45.135v1.168
		C1749.907,1029.631,1749.038,1031.511,1748.895,1033.067L1748.895,1033.067z M2091.297,1351.891
		c-4.28,2.075-8.534,4.176-12.814,6.277c-8.716,5.071-18.741,11.828-29.532,12.866c0-18.976-1.673-27.938-18.793-35.291
		c-3.476-1.518-9.702-2.763-11.803-6.407c-2.282-3.956,9.831-31.711,13.229-34.682v-1.167c6.187,2.944,7.068,7.198,11.115,12.114
		c5.07,6.16,9.856,12.14,15.861,17.574c4.332,3.955,34.396,23.177,34.707,24.137
		C2093.787,1349.388,2092.84,1350.801,2091.297,1351.891L2091.297,1351.891z M2205.184,1438.179v1.167h-8.105
		c0,1.894-6.407,0.104-8.106-0.208c-10.129-1.828-20.544-6.459-27.937-13.631c-11.828-11.427-22.672-33.838-5.629-45.187
		c4.202,2.101,21.231,9.676,23.15,12.71c5.5,0,10.999,4.993,15.447,7.471c6.861,3.774,14.746,7.549,20.492,13.294
		C2225.326,1424.625,2216.637,1434.599,2205.184,1438.179L2205.184,1438.179z"/>
	<path fill="#FFFFFF" d="M341.585,815.876l115.703,183.198l440.479,0.545c0,0,147.349-39.363,196.751-3.477
		c2.14-0.545,7.12-5.317,11.712-6.212c6.484-1.35,12.438,0.895,18.339,1.582c13.852,1.53,27.197,2.321,41.698,2.321
		c4.228-0.401,8.508-0.765,12.723-1.154c3.58-1.452,8.495-1.167,12.736-1.167l8.094-1.154l8.105-1.154
		c7.017-4.332,18.625-6.874,27.742-6.731c5.525,0.065,10.7,1.803,16.122,0.545c15.434-4.954,30.894-9.909,46.341-14.902
		c44.94-16.744,137.35-16.563,176.843-5.862l18.624,6.433c4.436,2.62,8.846,5.215,13.242,7.782c3.879,1.051,8.08,0.064,12.361,0.143
		l14.992,1.518c12.711,3.398,25.46,6.796,38.17,10.155c3.956,1.154,7.898,2.36,11.803,3.515c8.028,1.09,15.408-3.32,24.085-2.023
		l32.632,9.196l490.49-0.662L2242.732,816.2L341.585,815.876L341.585,815.876z"/>
	<path fill="#AACA4E" d="M1677.859,1314.46c-3.592-4.683-11.803-5.396-17.729-6.692c-5.447-1.245-10.077-2.153-8.871-1.972
		c-45.603-6.537-73.163-2.153-94.991,5.123c-15.952,5.317-21.18,15.408-25.68,20.389c-2.983,3.294-9.857,4.332-9.455,0.35
		c2.283-14.643,20.389-24.85,30.297-35.692c11.959-13.178,39.52-63.591,22.191-79.311c-5.162-4.708-11.725-10.246-18.948-10.674
		c-10.44-0.7-18.768,7.082-26.173,12.801c-2.23,1.699-29.947,45.369-25.227,18.885c2.205-5.967,17.859-17.873,17.859-19.429
		c1.699-1.621,4.89-3.839,5.577-8.028c0.609-3.696-8.534-7.562-0.934-9.325c0.765-0.117,1.517-0.182,2.23-0.299
		c3.8-0.57,7.652-1.439,10.104-4.436c4.409-5.538,0.96-13.67,0.856-20.765c-0.156-7.095,0.583-15.473,2.633-21.62
		c12.736-38.353,18.131-5.137,27.301-52.087c1.699-3.438,14.863,2.023,2.18,23.903c-2.529,3.878-3.269,4.915-5.344,9.156
		c-5.318,10.597-18.016,33.891-15.914,46.328c0.934,5.823,5.447,10.96,8.988,15.512c4.072,5.292,11.023,10.856,17.911,11.258
		c5.551,0.285,8.663-1.569,12.334-4.968c2.282-3.579,4.539-7.159,6.81-10.777c7.703-13.488,15.446-26.978,23.15-40.518
		c15.123-25.499,36.679-47.677,51.049-73.564c2.983-5.499,5.266-13.773,2.711-20.104c-4.202-10.285-64.395-30.505-77.585-30.284
		c-4.683,0.078-7.977-0.467-11.024,2.866c-8.21,8.794,0.688,51.542-16.744,50.012c-1.699-6.329,4.202-14.928,4.41-23.19
		c0.661-31.321-4.89-31.101-26.264-37.573c-7.73-2.36-10.739-3.476-21.906-5.862c-8.34,1.401-7.496,5.901-8.716,11.258
		c-0.351,4.553-0.688,9.118-1.063,13.657c-1.219,15.447-2.503,30.855-4.941,45.213c-0.506,4.643-1.012,9.26-1.543,13.891
		c-3.645,13.748-5.902,28.65-8.846,42.645c-1.674,7.82-3.852,16.134-5.928,24.201c-1.012,3.762-2.711,6.291-2.814,10.739
		c-0.298,9.118,8.158,13.1,8.158,19.597c-7.471-0.946-14.851-1.231-20.064,4.203c-14.383,14.785-19.351,36.432-24.344,55.848
		c-4.229,16.315-10.519,31.711-16.484,47.274l-13.554,30.193c-2.788,5.798-6.835,10.312-8.508,16.537
		c-1.44,5.317-1.09,13.1,2.049,17.457c9.779,13.657,62.216,13.657,80.737,15.888l38.48,6.563
		c19.195,4.008,37.263,9.43,55.523,15.227c11.608,3.645,37.521,19.027,48.378,16.057c14.11-3.93,23.501-31.335,27.833-43.539
		c5.953-17.043-17.704-25.836-29.896-25.434c-5.681,0.155-13.424,3.424-18.689,4.046c-9.52,1.09-41.594,2.023-43.617-7.781
		c0.077-4.734,2.36-4.177,4.046-4.229c8.535,4.047,13.229,3.32,23.438,3.32c9.058-1.701,18.209-2.862,27.404-3.476
		c2.918-0.182,0.739-1.012,0.688-1.544c-15.278-1.349-25.031,1.972-25.031,0.104c-1.972-1.44-2.841-3.217,1.245-4.708
		c9.728-4.437,14.487-4.008,22.321-3.087c11.607,1.063,15.304,7.729,28.494,5.629c3.139,0.259,9.545-20.973,14.332-17.225
		c4.785,9.352-0.48,18.21-6.81,20.259c-6.161,1.998-7.95,3.139-6.537,5.928c2.413,4.63,9.273,3.035,12.763,2.023
		C1681.336,1347.973,1685.136,1324.005,1677.859,1314.46L1677.859,1314.46z M1468.294,1295.809
		c-3.139,7.394-6.614,19.611-5.577,28.067c1.35,11.556-5.266,7.756-5.266,8.689c-3.645-6.563-8.534-20.622,12.697-54.59
		c0.428-3.165,1.388-5.097,2.05-5.188C1485.842,1271.037,1471.238,1283.773,1468.294,1295.809L1468.294,1295.809z
		 M1512.469,1348.143c-1.711,3.082-5.5,4.34-8.715,2.892c-10.713-15.784-0.234-28.65,8.923-42.308
		c2.101-3.19,2.71-9.753,8.456-10.661c24.694,0.104-4.306,19.714-8.262,29.947
		C1510.368,1334.523,1512.469,1340.672,1512.469,1348.143z M823.904,1249.598c-0.934-9.468-8.923-19.026-18.663-15.227
		c-4.086,2.568-8.171,5.176-12.296,7.73c-7.198,3.735-13.916,7.781-19.714,14.021c-3.618,3.825-5.577,8.481-8.288,12.71
		c-7.159,11.4-1.193,22.14-5.356,25.784h-3.476c-6.265-20.804-1.232-37.548,16.16-47.482c20.726-11.815,13.527-12.114,1.168-5.162
		c-6.913,3.761-11.038,7.938-12.698,5.201c-6.874-11.687-18.845-25.46-6.938-25.46c7.367,15.979,30.66,6.952,45.135,6.952
		c7.12-3.593,13.773-1.388,18.521-9.261c12.724-21.478-2.321-137.116-14.513-154.69c-6.434-9.3-14.423-11.607-26.005-11.971
		l-7.989,5.745c-2.711,4.695-5.421,9.416-8.171,14.099c-6.628,7.886-16.601,14.007-19.351,24.201
		c-2.205,8.055-1.051,16.809-2.426,25.421c-0.506,3.074,0.856,8.897-5.603,7.081c-9.442-2.672-3.839-31.75,5.058-48.351
		c2.996-4.852,6.045-9.701,9.04-14.578c0.688-1.414,2.827-5.538,0.519-5.538c-4.772-2.387-9.377-0.26-14.007,0.688
		c-13.93,2.749-41.192,8.43-44.123,24.915c-2.166,12.01,6.147,30.634,8.858,41.71c6.044,24.772,10.531,50.557,13.1,77.365
		c2.97,31.244,1.271,64.667-2.127,94.86c-1.375,8.003-2.711,16.031-4.086,24.021c-1.699,5.136-3.359,10.285-5.059,15.382
		c-1.336,3.32-2.685,6.692-4.046,10.025c-1.311,1.466-6.835,10.104-8.534,13.709c-2.568,3.398-5.098,6.485-7.665,10.182
		c-1.907,3.087-10.882,22.243-11.167,26.42c-0.688,7.522,1.336,11.374,1.336,17.197h-1.154v1.168
		c-1.984-0.559-4.695,4.733-8.612-2.944c-5.563-12.97,9.3-35.369,14.838-45.316c1.919-3.502,4.708-8.405,4.163-12.97
		c-0.934-7.601-12.152-9.17-17.263-12.918c-5.422-3.982-9.403-10.337-11.349-16.238c-3.904-11.725-6.368-25.382-8.028-38.17
		c-1.439-10.791-4.124-65.264-8.249-69.531c-6.29-6.511-18.119-3.723-26.289-6.653c-4.346-1.596-8.457-2.75-12.88-4.371
		c-3.139-1.154-4.993-2.204-9.649-4.993c-3.112-14.746,19.352,8.21,28.923,3.489c1.854-0.338,3.735-0.623,5.577-0.947
		c5.317-1.115,11.18-5.46,14.215-10.155c3.217-5.071,1.842-12.724,2.451-18.987c1.777-18.858,3.541-37.314,4.487-56.717
		c0.324-7.237,1.232-15.007-0.934-21.725c-1.336-4.099-5.032-7.029-8.897-8.431c-11.828-4.371-26.471,0.609-37.612,2.932
		c-8.392,1.699-18.339,4.993-24.591,10.895c-11.504,10.699-8.469,45.459-5.097,60.18c1.776,6.978,4.085,13.216,6.108,23.501
		c0.143,3.735-12.697-8.417-17.613-1.297c-25.926,44.707-37.534,22.774-24.732,18.041c7.587-6.031,10.777-9.157,15.188-17.458
		c14.344-27.34,27.781-94.691-27.094-79.971c-9.585,2.516-20.973,3.358-28.21,10.401c-3.372,3.229-5.966,8.106-5.356,13.125
		c1.051,9.092,5.538,16.641,8.976,24.708l11.388,30.076l13.021,47.314c3.255,15.136,3.515,40.037,14.098,50.958
		c3.887,4.174,9.429,6.402,15.123,6.083c5.642-0.402,34.798-13.346,34.798-16.563c0.402,0,15.369-17.574,22.062-17.938
		c8.819-0.804-6.835,9.546-21.089,23.178c-23.294,22.347-39.233,14.486-43.877,32.074c-2.451,9.144,3.438,35.589,5.616,44.888
		c11.673,50.128,44.668,98.311,98.661,107.856c12.762,1.699,24.733,0.882,35.849,0.882c9.545-1.543,17.47-1.595,26.613-4.63
		c21.958-13.372,36.977-11.88,37.769-53.176c0.025-2.23-1.349-1.492-1.53-7.601c0-3.45,2.892-2.503,4.279-0.558
		c3.242,5.266,3.904,13.684,9.754,17.146c9.727,5.797,19.999-7.173,25.109-13.527c3.359-3.956,6.731-7.873,10.051-11.855
		c19.455-30.595,26.187-67.688,31.828-105.146C822.828,1275.045,824.968,1260.519,823.904,1249.598L823.904,1249.598z
		 M573.276,1173.103l-4.669-7.445c-1.452-8.365-2.866-16.679-4.306-25.031c-0.143-0.727-0.026-5.032,3.19-6.861
		c1.518,0,3.035-0.401,3.035,1.154c2.542,6.329,0.039,13.93,1.53,20.83c1.115,5.266,2.27,7.017,6.147,13.67
		C582.563,1173.828,576.117,1173.103,573.276,1173.103z M591.784,1288.845c8.677,0-24.811,3.903,11.284-21.103
		c7.781-5.447,10.998-14.033,14.176-22.891c0.324-1.66,1.193-2.789,3.476,0C616.414,1271.595,601.797,1280.311,591.784,1288.845z
		 M736.501,1157.007c8.962-1.842,20.544,22.97,15.006,29.986c-5.032-0.545-6.796-6.797-6.796-11.505
		C738.732,1171.585,733.57,1157.513,736.501,1157.007z M770.093,1402.589c-6.29,1.92-14.578,2.529-19.935-1.621
		c-4.371-3.397-20.104-47.171-19.74-54.214c0.221-4.889,2.529-8.962,4.89-12.762c17.211-21.789,16.019-10.389,4.695,0.35
		c-6.329,5.979-4.384,11.245-3.255,15.681l7.302,18.768c3.229,11.374,3.229,38.831,23.332,30.569
		c2.166-0.907,11.894-5.654,11.894-7.522h2.321C780.041,1398.4,776.137,1400.709,770.093,1402.589z M2033.387,1106.01
		c-0.635-3.904-2.205-7.82-5.551-10.13c-6.861-4.772-15.889-5.278-24.111-7.198c-12.697-2.97-24.979-6.588-38.117-8.456
		c-16.771-2.464-39.675-10.168-57.703-5.901c-12.619,2.932-15.355,18.703-23.437,17.756c-4.682-0.506-7.068-13.787-9.701-16.887
		c-3.19-3.735-6.991-6.55-11.297-7.924c-22.464-7.303-48.844-6.006-72.553-10.493c-0.804-0.182-7.314,0.648-8.132,0.441
		c-4.708,2.14-3.619,2.71-4.967,8.417c-2.18,9.079-1.829,19.026-2.231,28.729c-1.751,17.314-3.45,34.642-5.188,51.97
		c-2.581,15.045-5.188,30.128-7.847,45.173c-2.049,10.233-6.783,21.297-6.783,32.555c0,11.75,1.349,20.726,11.024,27.275
		c2.983,1.699,5.771,1.776,8.741,3.476c0.882,0.766,3.165,3.113,1.855,5.162c-10.363,7.898-27.717-14.085-33.112-4.409
		c-2.71,4.785-5.693,10.998-7.678,15.952c-26.951,97.546-37.522,106.871-35.46,117.584c1.777,9.144,40.583-10.077,51.529-22.956
		c5.577-6.887,15.525,4.682,5.85,7.95c-4.176,3.035-6.303,4.708-8.962,6.719c-10.868,8.132-14.799,12.892-28.067,17.12
		c-1.919,0.661-1.828,0.506-6.057,1.997c-3.19,3.878,1.803,6.277,3.93,6.277c-0.129-0.479,84.2,1.115,65.68,0.558l27.482,0.83
		c28.248,3.774,54.109,10.869,78.83,21.529c6.667,2.919,12.23,6.745,18.65,10.104l20.26,12.23
		c9.467,7.289,21.153,24.475,35.083,19.585c14.409-5.136,44.485-70.673,47.119-86.301c0.855-5.266,0.661-11.271-2.97-14.799
		c-6.485-6.226-38.729-15.252-48.611-15.706c-6.083-0.324-12.113,2.282-17.302,4.008c-1.919,0.609-5.019,2.762-8.08,4.63
		c-5.188,2.555-7.315,4.604-11.582,4.604c-1.854-0.299-4.124-0.299-3.009-4.604c2.075-5.097,9.402-1.621,7.834-15.473
		c-1.271-1.349-3.516-3.035-4.786-4.384c-7.251-2.685-16.265-2.478-24.267-3.723c-11.621-1.828-35.615-8.716-47.223-5.473
		c-20.596,5.654-13.657,17.482-24.526,18.313c-1.881-0.052-4.786-1.141-3.671-3.19c5.552-10.207,12.594-11.828,21.024-35.796
		c2.127-6.135-1.362-14.773,1.362-20.998c2.503-5.552,2.282-10.973,2.023-11.959c-4.15-15.382,9.986-23.916,18.689-23.072
		c7.924,0.609,6.938,4.409,2.788,7.172c-2.309,1.543-6.161,1.219-8.638,3.645c-3.982,3.878-4.592,10.129-3.45,14.694
		c2.049,8.081,8.56,12.62,15.913,15.655c8.846,3.618,20.363,3.164,30.143,4.812c24.771,4.124,48.74,12.308,75.342,12.308
		c5.213-0.985,7.678-5.551,10.492-9.96c5.473-8.742,31.257-63.812,21.711-71.334c-5.771-4.514-51.58-12.321-58.39-8.235
		c-9.118,5.421-13.604,29.402-19.883,19.571c-1.439-6.446,5.927-17.043,3.19-22.464c-4.889-9.585-55.679-6.265-67.105-6.044
		c-2.97,0.039-13.177,0.648-18.093-0.26c-1.972,0.182-3.112-8.353-0.077-9.078c0.583-3.178,12.736-2.426,18.948-4.41
		c8.08-2.672,7.394-46.367,7.925-57.508c0.155-3.398-0.272-10.492,2.97-9.247c2.983,1.479,10.104,25.2,20.284,31.646
		c6.109,3.865,12.841,4.656,20.013,6.537c17.198,4.526,34.021,8.132,52.112,11.543c10.13,1.868,23.229,9.546,34.072,4.15
		c3.592-1.803,7.198-5.538,8.897-9.079c3.515-7.483,4.436-15.991,6.16-24.305c3.009-12.373,6.005-24.746,8.962-37.12
		C2032.558,1115.128,2034.152,1111.081,2033.387,1106.01L2033.387,1106.01z M1850.98,1383.731
		c12.489-2.633,14.94-7.225,22.217-6.614C1873.547,1389.127,1845.104,1390.216,1850.98,1383.731z M1841.732,1391.838
		c7.704-2.452,13.774-1.246,20.648-1.855c15.227-3.164,29.895-9.545,41.854-18.975c2.711-0.934,6.406-1.595,4.993,4.177
		c-1.751,6.744-53.475,32.048-67.08,24.267C1839.904,1398.205,1839.657,1393.394,1841.732,1391.838L1841.732,1391.838z
		 M1780.813,1332.721c-4.357-0.583,2.05-9.014,7.834-19.026c2.335-4.046,6.083-6.484,6.251-16.29
		c0.026-3.112-1.037-7.678,3.879-6.329C1810.605,1294.642,1791.099,1332.721,1780.813,1332.721z M1817.44,1268.002
		c1.115,5.771,0.96,14.695-0.155,20.544c-0.182,8.003-8.509,33.28-14.916,36.173c-5.395,2.387-6.433,0.908,4.099-19.883
		c3.567-10.051,2.659-25.33,0.584-36.276c-3.139-16.212-26.445,1.063-21.31-13.073c2.049-3.061,4.89-0.428,15.123-10.946
		c4.734-5.577,12.788-19.429,17.016-17.185c10.636,3.696-4.046,5.278-5.603,20.945
		C1811.643,1254.371,1817.44,1262.296,1817.44,1268.002L1817.44,1268.002z M1842.083,1201.415
		c-6.938,8.962-18.651,11.933-27.003,19.065c-8.003,6.731-18.521,23.294-27.859,24.915c-3.93,0.584-6.641-0.544-5.681-0.544
		c-1.673-1.012-1.388-2.529,0.351-3.762c3.773-2.063,8.339-2.646,12.061-4.695c6.084-5.681,6.783-13.852,12.918-19.935
		c3.982-2.646,9.572-5.46,13.554-8.105c7.095-5.577,10.921-10.921,18.845-16.135c0.377,0,4.683-0.609,5.072-0.609
		C1850.928,1194.139,1844.365,1198.419,1842.083,1201.415L1842.083,1201.415z M1904.221,1156.903
		c-10.998-4.371-15.576-14.436-16.186-24.306c-0.74-3.541,2.152-4.448,3.826-2.814c3.294,3.178,8.027,16.965,12.787,21.335
		C1910.459,1156.319,1913.066,1159.432,1904.221,1156.903L1904.221,1156.903z M2002.661,1181.571
		c-4.306,2.205-9.598,1.479-12.788-0.376c-3.061-5.889,4.968-5.889,9.469-7.977c9.247-4.124,6.938-21.127,12.671-20.401
		C2018.187,1155.45,2008.965,1178.316,2002.661,1181.571L2002.661,1181.571z M528.492,1502.08l-6.473-10.051
		c-7.561-13.295-17.612-24.617-26.652-37.159c-12.724-17.6-23.683-36.173-36.86-53.396c-4.552-7.847-9.117-15.706-13.709-23.553
		c-8.105-13.229-17.833-25.304-24.046-39.441c-10.414-23.553-16.096-33.786-18.262-35.005c-21.27-0.182-6.977,31.309-21.348,27.029
		c0.285-9.832,4.046-16.109,6.083-24.553c4.085-17.405-1.596-37.469-12.763-48.636c-3.437-3.45-9.299-8.988-14.137-8.988
		c-1.518-1.829-1.193-4.54-0.441-5.435c0.752-0.895,2.97,1.038,5.785-0.324c23.579-11.426,70.776-37.028,81.45-37.028
		c3.477-0.402,6.952-0.766,10.415-1.168c4.877-2.451,10.675-1.335,14.099-6.42c6.445-9.701-7.809-44.538-18.729-44.888
		c-9.701-0.791-26.614,17.393-27.197,5.239c8.274-4.591,12.58-6.692,15.512-10.597c18.702-25.2-8.457-54.615-33.852-56.172
		c-10.453-1.297-19.169,2.75-35.304,11.466c3.398-1.881-87.533,58.312-98.739,82.138c-4.202,8.91-0.078,19.935,4.994,27.158
		c7.444,10.674,20.829,16.822,32.373,20.401c5.966,1.842,16.069,2.36,20.985,6.29c2.101,1.699,1.699,7.043-0.143,8.742
		c-4.306,3.8-21.374,8.871-22.646,3.67c-1.193-4.812-0.143-7.924-3.904-11.192c-9.118-7.38-16.419-12.01-22.321-17.172
		c-8.716-6.978-15.836-18.599-27.742-19.351c-12.257-0.805-32.554,19.065-42.178,26.795c-1.595,1.271-4.41,5.137-6.368,5.137
		c-8.573,8.313-5.862,6.575-17.574,14.682c-16.757,11.504-31.465,28.325-50.712,35.031c-16.601,5.745-29.545,3.268-43.189,5.071
		c-5.058,0.661-8.106,2.71-9.299,8.054c-1.764,7.652,4.306,13.8,8.975,18.793c26.147,27.834,50.673,30.622,89.802,30.622
		c2.711-0.402,6.939-0.584,9.624-0.985c9.61-1.596,12.334-2.659,15.836-3.645c8.353-4.073,16.705-8.185,25.019-12.257
		c17.003-9.883,36.276-25.278,45.978-43.06c-0.662,1.219,5.317-10.973,7.561-10.791c7.951,0.402-7.704,9.468-5.032,33.565
		c0.648,6.355,3.904,11.647,6.615,17.328c5.901,12.489,11.504,25.109,17.431,37.561l21.452,47.677
		c2.309,4.306,11.75,8.897,12.218,10.467c1.375,4.591-2.711,9.935-1.622,15.227c10.999,31.465,21.997,62.929,32.957,94.354
		l11.167,35.537c2.244,8.846,3.904,20.116,10.051,26.951c4.488,4.993,10.415,6.692,17.574,6.692l1.349-0.661
		c19.715-8.21,43.294-22.956,49.324-45.692c1.115-4.254-0.648-9.806-1.336-13.761c-0.946-4.994-12.256-30.271-14.11-34.526
		c-1.842-2.711-3.696-5.413-5.564-8.105c-1.919-3.878-3.826-7.704-5.784-11.582l-12.49-17.432
		c-7.004-7.017-15.538-25.006-42.632-41.879c-5.577-3.45-13.021-5.046-19.493-6.381c-8.469-1.804-5.966-5.746-3.826-6.888
		c13.774,3.32,22.788,0.078,18.223-13.527c-1.518-4.436,0.467-4.733,0.467-4.436c1.271-1.544,2.97-1.518,4.085,3.32
		c0.428,1.063,0.856,2.179,1.271,3.269c10.661,22.489,33.177,39.182,47.158,59.855c8.755,12.943,16.848,26.198,23.189,40.322
		c4.695,10.532,9.728,30.09,19.416,37.548l2.063,1.518c0.622,0.428,1.231,0.907,1.815,1.349c14.293,9.52,35.875,0.688,46.25-9.986
		C528.531,1526.606,533.122,1513.87,528.492,1502.08z M314.595,1224.592c-9.079-0.855-20.622-4.072-20.259-13.294
		c5.746-3.269,5.24,2.775,9.079,3.022C319.264,1215.163,323.246,1221.453,314.595,1224.592z M267.903,1285.952
		c-1.076-2.257,2.75-1.894,6.654-4.786c6.938-5.214,12.152-17.937,12.516-28.066c-2.828-8.897-3.476-10.415,1.479-12.879
		c6.654,2.036,5.421,8.21,5.396,13.631C293.804,1261.206,277.605,1290.751,267.903,1285.952z M295.503,1294.616v4.63
		c-3.009,4.631-5.862,0.766-5.784-1.167c1.945-22.775,19.973-37.106,20.259-29.688
		C307.876,1278.638,295.503,1286.264,295.503,1294.616L295.503,1294.616z M415.862,1166.163
		c-3.476,6.187-14.137,10.493-18.521,19.676c-7.562,1.4-10.246,0.362-8.106-5.785
		C415.317,1152.986,414.786,1163.038,415.862,1166.163z M347.953,1218.419c-3.009,0.907-11.79-0.286-6.148-5.967
		c13.489-2.853,13.995-6.329,24.552-14.759c6.291-8.755,11.867-17.691,18.158-26.472c12.658-14.514,16.64-12.957,17.872-10.855
		c-2.581,6.29-11.322,12.179-16.822,18.261c-8.612,10.052-14.007,20.908-23.319,30.998
		C354.451,1217.951,343.024,1219.171,347.953,1218.419L347.953,1218.419z M377.68,1375.625c-7.704,7.146-7.808,0.662-8.288-0.584
		c0.286-10.025,3.943-8.56,6.005-27.404C380.676,1342.578,379.016,1360.71,377.68,1375.625z M376.486,1322.008
		c-5.966,5.02-7.276,0.805-8.067-0.765v-2.309c1.051-2.335,3.074-4.487,4.63-10.44c2.529-7.043,2.062-14.916,1.595-22.854
		c-0.726-3.32-3.904-11.141-3.904-11.854c-2.646-6.511-0.467-6.16,2.309-5.797C387.407,1268.054,381.544,1306.432,376.486,1322.008z
		 M459.843,1513.364c-2.14-4.229-2.672-9.144-4.306-13.554c-3.32-9.04-8.962-17.756-14.423-25.68l-28.364-36.458
		c-10.96-13.372-22.101-18.495-23.515-34.254c4.164-4.461,5.966,7.173,9.883,10.817c26.433,24.85,48.896,51.853,60.115,86.158
		c1.336,4.072,4.085,8.21,4.085,12.97H459.843z M2373.648,1410.254c-1.349-15.952-4.604-30.647-11.53-43.669
		c-4.63-8.663-17.249-31.063-28.391-31.464c-9.779-0.351-17.38,4.098-25.434,7.12c-5.02,1.751-8.313,4.357-10.558-0.182
		c0.272-9.247,28.754-9.857,24.928-28.884c-0.907-4.565-3.397-9.144-7.016-11.932c-6.277-4.864-12.763-7.523-19.754-10.921
		c-16.663-8.083-33.708-15.354-51.074-21.789c-3.516-1.829-7.018-3.593-10.558-5.396l-15.888-5.318
		c-6.537-2.633-34.682-9.377-47.197-21.88c-17.911-17.897,4.357-35.744,22.398-37.146c24.553-1.958,48.611,5.746,68.04,15.214
		c6.666,3.229,25.81,14.63,32.696,14.396c16.42-0.609,41.088-45.199,44.59-58.947c1.22-4.916,1.193-10.376-1.244-14.578
		c-9.883-17.029-59.299-40.284-78.351-44.525c-19.61-4.384-40.077-8.288-60.919-9.585c-7.704,1.816-8.561,2.893-11.854,6.213
		c-7.522,17.185-15.953,40.336-22.489,37.029c-1.544-0.39-3.879,0.467-4.034-2.205v-3.477c4.968-4.708,8.586-11.465,8.846-18.56
		c0.208-7.444-3.826-12.477-10.13-14.643c-27.509-9.507-63.123,18.157-79.997,37.392c-10.713,12.114-36.328,50.024-25.681,65.965
		c2.231,3.372,5.123,5.421,9.222,4.785c6.459-0.946,9.728-0.363,9.935,2.789c0.273,4.448-10.945,9.896-13.15,13.125
		c-2.789,3.956-4.034,8.379-4.786,13.45c-4.604,29.869,22.97,54.771,45.135,67.611c6.354,3.67,11.245,9.675,21.283,8.638
		c25.148-23.151,3.981-37.716-1.544-60.439c-3.008-11.932,3.139-31.192,6.161-33.319c2.607-1.439,3.347-0.182,4.708,0.609
		c1.439,5.915-7.444,14.592-5.447,25.94c1.596,9.545,6.407,15.55,10.311,23.631c1.895,4.033,2.478,8.638,3.567,13.177
		c3.294,14.409-1.439,30.063,4.993,42.657c8.105,15.811,27.742,21.686,42.891,27.691c7.951,4.149,15.94,8.365,23.839,12.516
		c19.104,10.285,37.158,21.957,47.443,42.073c7.834,15.253,13.319,41.089,3.347,57.509c-5.5,5.927-10.999,11.854-16.537,17.781
		c-12.178,19.454-20.012,12.334-19.454,12.23c0-0.766,1.037-4.202,1.037-4.993c12.918-7.873,27.794-29.532,27.794-45.136h-1.167
		c-7.548,8.029-15.148,17.562-24.798,22.14c-7.017,3.295-15.278,3.32-23.813,3.619c-34.071,1.037-65.99-12.594-84.355-39.766
		c-5.214-7.704-7.146-18.443-8.936-27.769c-0.986-4.384-0.26-8.741-1.245-13.125c-0.935-1.945-3.19-4.916-5.188-5.422
		c-7.703-1.945-35.031,10.921-35.29,19.053c-0.26,6.913,6.536,12.516,7.729,19.247c-0.661-4.046,7.289,18.846-8.105,18.976
		c7.34-15.979,1.012-23.203-0.74-26.575c-2.205-4.177-4.591-7.925-9.935-7.445c-7.601,0.636-33.189,21.608-38.352,28.392
		c-8.923,11.529-0.26,48.338,13.605,49.57c3.645-1.751,15.654-16.666,19.272-15.227c4.565,1.776-2.179,6.277-2.581,7.418
		c-4.008,9.469-16.368,17.678-12.62,30.013c3.347,10.946,15.682,22.191,25.512,28.196c3.801,1.699,7.601,3.397,11.349,5.097
		l5.474,4.592c5.291,3.903,11.051,6.783,17.094,9.351c17.225,7.315,59.635,13.93,76.432,2.102
		c7.496-5.318,9.351-15.33,13.203-22.775c0.907-1.828,9.299-12.14,9.299-12.14c5.071-2.282,5.188,1.012,6.329,1.012
		c-1.219,9.624-7.393,13.502-9.805,22.399c-5.136,18.845,22.14,24.046,36.173,24.046c2.711-0.376,5.421-0.739,8.105-1.142
		c7.652-2.102,15.33-4.15,22.97-6.252c12.788-3.449,25.512-9.649,36.834-16.212
		C2344.389,1524.323,2378.629,1470.447,2373.648,1410.254L2373.648,1410.254z M2147.287,1279.571
		c-1.167-0.402-2.334-0.766-3.476-1.167c-5.655-9.676-15.382-19.156-11.608-32.398c9.352-6.109,5.551,22.801,16.238,28.948
		C2153.564,1280.389,2148.493,1280.077,2147.287,1279.571L2147.287,1279.571z M2149.998,1162.363
		c-6.407,5.162-12.711,8.353-18.313,13.67c-4.838,5.992-8.819,12.658-13.683,18.65c-1.297,1.414-2.841,2.426-4.072,4.773
		c-3.904,8.067-4.813,9.546-8.314,12.982c-23.604,21.815-27.963,7.341-22.425,3.398c14.863-2.893,20.246-13.956,23.385-18.547
		c19.402-36.964,29.584-32.152,37.236-38.092C2148.598,1156.073,2152.656,1158.265,2149.998,1162.363L2149.998,1162.363z
		 M2207.467,1502.949c-5.214,6.913-13.397,10.765-19.182,17.808c-4.311,5.005-8.161,10.387-11.505,16.083
		c-4.046,6.938-6.757,14.772-13.735,19.96c-3.8,3.93-3.748-0.856-1.893-2.944c10.92-20.168,21.127-41.295,40.504-55.549
		C2209.802,1497.022,2207.805,1501.095,2207.467,1502.949L2207.467,1502.949z M2262.718,1373.498
		c-7.094-10.233-21.31-10.077-28.676-16.342c1.491,2.788-3.723-3.113,0.208-7.419c5.123-4.124,14.94,5.214,20.674,5.85
		c4.228,0.13,7.872,1.491,12.71,0.376c2.71-1.92,5.421-3.852,8.106-5.798c1.854-2.204,4.409-0.104,4.409,1.894
		c0,6.161-6.005,12.438-5.745,19.987c0.558,18.105,15.277,26.471,21.736,40.789c3.853,8.664,4.656,14.592-2.101,9.17
		c-3.748-3.035-4.15-9.065-6.667-12.892c-5.719-8.561-12.541-15.94-18.469-24.345
		C2266.842,1381.021,2264.768,1377.272,2262.718,1373.498z M2297.373,1473.417c-1.699,2.451-4.863,3.93-6.588,6.382
		c-2.633,0.661-6.459,2.943-4.631-6.939c12.36-7.095,8.871-24.616,10.441-26.627h2.308
		C2305.401,1447.166,2301.498,1465.506,2297.373,1473.417L2297.373,1473.417z M1483.948,1006.479
		c-5.681-10.739-19.052-12.075-29.843-14.422c5.654,1.413-27.081-3.477-48.87-5.396c2.84,0.259-32.165-1.115-48.455,1.231
		c-25.836,3.684-50.997,9.196-74.317,17.95c-9.52,3.541-20.816,5.771-27.807,14.021c-7.82,9.196-9.183,21.894-10.337,34.357
		c-0.324,3.281,1.776,6.55-0.155,12.256c-2.711,1.154-5.059,0.935-6.576-1.012c-2.646-11.037,2.348-38.728,1.557-45.42
		c-0.363-2.866-6.692-3.554-14.254-2.866c-8.171,0.7-14.318,3.735-21.88,5.862c-13.203,3.684-28.896,5.11-43.034,5.811
		l-34.577-2.063c-4.591-0.609-9.728-3.397-15.667-1.361c-10.739,3.618-0.506,20.895-4.268,30.193
		c-6.187,9.974-12.049-10.921-21.595-19.13c0.648,0.57-20.829-20.039-70.814-18.417c-26.978,0.83-163.29,18.417-171.72,33.89
		c-0.221,0.389-0.402,0.83-0.609,1.232c-0.078,0.324-0.143,0.648-0.247,0.934c-1.958,7.963,2.529,17.016,4.371,24.124
		c2.451,9.623,5.201,20.362,6.835,30.09c1.4,8.78,3.035,18.054,3.723,26.549c0.816,10.998,0.064,28.391,6.031,36.626
		c2.386,3.256,4.306,2.141,8.105,1.557c6.368-2.749,7.562-5.784,10.739-9.947c3.969-6.187,7.963-12.334,11.932-18.521
		c0.792-1.141,1.116-1.621,2.789-1.621c0.544,0.363,6.511,11.543-19.286,37.249c-5.785,5.681-12.257,6.005-14.824,14.98
		c-2.023,6.952-0.973,14.396-0.727,21.841l0.104,25.421l1.621,24.345c0.402,23.177-0.791,46.133,0.039,69.439
		c0.428,13.048-0.363,27.133,3.58,38.909c2.736,8.288,8.105,16.472,16.887,19.455c9.869,3.347,38.767,7.095,45.069-3.476
		c3.645-6.213,2.063-16.822,2.205-24.799c0-3.139,1.595-4.941,4.669-2.309c5.356,13.346,7.276,24.772,14.436,27.613
		c4.734,1.894,11.128,1.322,16.822,1.322c6.536-4.409,13.877-5.188,14.682-15.097c1.336-17.094-7.484-26.147-13.269-39.441
		c-3.294-7.522-6.044-16.796-6.874-25.277c-0.865-2.453-1.746-4.9-2.646-7.341c-4.592-20.013-1.557-43.268-6.731-63.008
		l-5.422-13.813c-2.788-4.565-8.677-9.688-8.677-15.408h1.154v-1.154c3.152-0.545,7.276,0.973,8.587-2.244
		c2.775-7.017,0.531-23.008,0.816-31.321c0.609-20.765,14.396-57.431-17.548-58.909c-2.243-0.116-10.96,1.726-13.242-2.14
		c-2.425-4.993,16.744-3.826,16.744-3.762c6.187,1.051,12.373,2.102,18.56,3.113c18.521,1.776,45.68-1.375,58.805-11.427
		c10.376-7.989,8.651-25.498,13.061-36.743c0.221-0.584,4.008-10.311,7.328-7.405c2.102,1.517,1.193,5.784-3.826,12.256
		c-1.375,1.764-0.985,6.9-0.609,12.399c0.428,6.99,3.217,13.994,5.862,19.104c8.054,15.654,30.959,19.856,27.496,41.996l-1.738,8.78
		c-9.585,21.659-37.21,21.88-57.611,26.796c-12.659,3.035-29.728,12.113-37.288,23.371c-4.514,6.615-6.005,14.747-6.473,23.437
		c-2.892,51.763,27.056,93.706,59.648,128.544c14.539,15.55,31.322,33.89,51.425,40.764c5.11,1.751,11.543,2.205,13.527,0.052
		c2.348-5.823-4.241-8.716-4.565-15.02c0.324-3.138-1.076-5.693,3.398-8.43c8.171,0.155,6.044,12.334,20.83,12.594
		c21.659,0.376,48.065-40.583,57.689-56.665c2.672-4.488,4.448-7.341,1.349-13.774c-2.309-3.774-21.66-2.127-36.64-9.999
		c-22.49-11.854-36.342-36.043-62.994-40.375c-9.001-1.492-19.494-0.791-26.225,3.502c-8.172,5.213-9.793,7.314-13.022,4.072
		c5.279-19.935,62.203-27.146,93.642-34.954c30.998-9.792,56.679-33.89,59.973-68.104c3.112-32.879-18.119-54.032-37.288-75.77
		l-10.985-9.728c-16.277-11.712-13.891-13.048-10.752-13.994c2.932,0,16.848,9.623,19.169,10.92l23.864,14.539
		c5.162,3.58,10.675,7.743,15.85,11.297c12.179,6.005,38.442,1.726,48.364-0.869c20.025-7.275,15.175,7.925,12.464,25.473
		c-1.66,10.843-2.594,21.361-3.178,28.923c-0.285,3.787-0.402,7.237,1.699,9.987c3.903,5.136,13.164,5.07,19.805,5.07
		c7.963,2.205-0.856,9.261-4.617,9.261c-5.759,0.934-16.277,1.012-19.014,6.472c-6.654,12.983-3.878,31.297-5.616,46.691
		c-2.555,22.062-4.941,45.07-8.534,67.3c-1.92,11.673-4.591,23.1-4.954,35.771c-0.221,5.798-0.545,12.114,3.515,15.914
		c11.037,10.285,31.737,3.035,41.542,1.466c35.667-10.765,44.499-8.988,63.655-12.736c10.363-3.112,16.031-3.515,20.597-8.937
		c6.329-7.704-2.452-41.36-4.15-54.771c-1.323-10.103-1.673-20.674-4.54-29.766c-2.127-6.484-2.438-8.896-6.718-11.452
		c-2.179-1.31-13.269,0.714-28.442-1.206c-2.309-0.934-1.726-5.201,3.112-5.512c3.087,0,6.589,0.168,10.389-0.195
		c7.898-1.803,16.666-8.066,21.764-18.184c3.242-6.484,3.515-12.567,4.591-20.375c-1.894,10.791,3.372-37.781,4.357-72.968
		c3.671-40.142-3.67-38.741-7.275-44.447c-4.15-9.015-5.02-20.726-13.93-26.938c-8.716-6.122-42.865-1.349-45.771-11.037
		c-0.609-2.075,0.83-4.747,5.525-4.384c14.436,9.403,27.612,1.557,39.39,6.822c15.2,6.809,14.798,25.939,29.337,33.968
		c8.236,4.565,18.262,4.824,28.469,5.784c10.155,0.934,20.143,2.97,30.013,4.772c11.958,2.166,23.436,5.863,34.836,9.508
		c14.487,5.784,17.964,8.923,26.899,7.742c7.445-7.626,14.358-58.156,17.068-80.152
		C1485.868,1020.733,1486.153,1010.63,1483.948,1006.479L1483.948,1006.479z M880.258,1178.523
		c15.148-14.033,15.447-14.318,19.74-25.2c0,0,6.329-8.91,6.044,1.401c-0.285,10.311-8.028,16.056-8.028,16.056l-20.648,16.602
		C877.365,1187.395,865.109,1192.557,880.258,1178.523z M905.433,1390.683c-1.44-10.816,5.46,1.777,11.465-15.628
		c1.738-5.162-4.37-15.175,2.438-15.629C925.471,1372.992,923.693,1390.683,905.433,1390.683z M920.478,1255.278
		c-4.773,4.54-6.407-1.167-5.785-1.167c-1.153-8.379,2.815-35.979-26.069-51.762c-3.294-1.804-8.17-6.109-12.126-6.109
		c-4.202-2.425-1.777-3.942,1.154-4.63C908.947,1195.644,920.478,1225.293,920.478,1255.278z M1018.451,1062.535
		c-7.017,7.237-10.078,23.656-10.804,24.448c-4.877-0.688-3.839-1.518-3.839-7.627c-0.221,0.144,0.104-3.8,21.192-33.163
		c1.698-2.426,2.179-5.396,4.526-9.3c2.023-3.359-1.154-10.531,4.565-10.998C1051.368,1031.33,1024.702,1055.92,1018.451,1062.535z
		 M1128.811,1321.243c0.389-0.156,2.205-0.506,3.1,0.531c1.816,2.075,4.994,2.335,6.874,2.685c4.734,0.856,6.147-0.104,9.001,0.026
		c7.198,0.324,5.24,8.664-0.182,19.247c-1.115,2.205-2.062,7.756-7.224,5.292c-0.7-3.801,7.405-13.826-1.09-18.664
		c-4.812-2.685-8.897-1.647-11.102-2.711C1126.204,1325.834,1126.204,1322.813,1128.811,1321.243L1128.811,1321.243z
		 M1066.31,1350.179c8.534-3.904,13.968,7.924,14.746,15.784c0.363,1.803-0.389,2.918-2.166,3.515
		c-1.906,0.259-1.517-1.647-5.2-6.744c-3.334-4.656-8.794-4.229-9.663-6.381C1063.013,1354.015,1064.019,1351.294,1066.31,1350.179
		L1066.31,1350.179z M988.114,1294.499c-2.606-1.466-3.903-1.997-8.754-3.748c-1.336-1.193-1.012-2.412-1.012-4.229
		c1.4-3.397,4.656-1.725,9.26-2.309c10.843-2.309,10.778-3.955,21.984-11.582c4.409-0.181,11.789,0.532,7.056,6.758
		c-9.767,12.204-8.794,19.753-10.675,25.642C995.74,1305.692,998.127,1298.649,988.114,1294.499L988.114,1294.499z
		 M1025.792,1279.571c10.531,1.945-4.63,14.915-5.356,21.128c-0.609,4.785-1.336,10.635-0.441,15.81
		c4.929,11.076,6.005,15.473,4.125,16.083c-2.244,0.804-4.41,0.739-6.083-2.659
		C1005.157,1310.529,1016.285,1287.171,1025.792,1279.571L1025.792,1279.571z M1085.984,1235.604
		c-1.518,3.074-2.996,2.672-6.757,3.074c-8.366,1.452-11.972,2.567-20.934,4.228c-16.757,3.022-32.956,8.858-45.614,20.025
		c2.892-2.451-11.712,12.736-7.522,0.324c8.819-16.315,32.074-19.96,54.213-26.315
		C1061.069,1236.719,1088.76,1224.385,1085.984,1235.604z M1230.026,1331.981c-1.479,2.413-3.761,10.739-7.483,10.739
		c-2.348-1.414-0.078-5.266,0-5.266c4.008-12.97,11.867-24.396,15.369-37.366c2.736-10.531,3.619-19.61,6.9-28.624
		c1.725-1.725,8.417-3.502,6.653,1.167c-1.635,6.511-4.487,17.146-8.028,41.192
		C1242.361,1320.737,1233.658,1325.977,1230.026,1331.981L1230.026,1331.981z M1256.018,1316.003
		c-1.543,3.062-2.957,14.111-7.665,9.961c-0.428-2.685,1.479-10.285,3.762-14.409c0.908-6.913-1.297-19.299,2.49-20.143
		C1263.994,1290.569,1258.729,1306.302,1256.018,1316.003z M1298.494,1100.29c7.977,4.954,12.204,16.497,12.36,26.484
		c-0.026,3.903-0.428,4.799-3.826,4.656c-3.593-0.506-4.462-8.677-6.887-17.068l-3.853-7.458
		C1294.771,1104.816,1293.683,1100.121,1298.494,1100.29z M1288.767,1104.531c19.273,19.272,12.464,53.928-7.341,70.088
		c-8.365,6.693-18.949,4.346-10.285-1.517c36.121-17.25,16.031-57.146,13.502-60.361c-4.177-4.086-6.589-7.925-10.973-10.804
		c-2.958-1.941-3.782-5.914-1.841-8.872c0.192-0.294,0.409-0.571,0.647-0.83C1277.094,1090.135,1283.955,1099.72,1288.767,1104.531z
		"/>
	<path fill="#CC2229" d="M1460.616,929.374l12.646-0.013l-2.971-31.192L1460.616,929.374z M1453.172,953.304l-1.298,4.189
		c8.794,1.154,16.692,2.581,23.125,4.318l1.388,0.48l-0.855-9.001L1453.172,953.304z M852.957,930.348l22.256-0.026l-22.256-43.683
		V930.348z"/>
	<path fill="#CC2229" d="M341.585,815.448l115.703,183.197l440.479,0.545c0,0,147.349-39.35,196.764-3.476
		c2.127-0.545,7.121-5.317,11.712-6.213c6.485-1.349,12.438,0.896,18.339,1.583c13.852,1.518,27.198,2.321,41.698,2.321
		c4.228-0.402,8.495-0.766,12.724-1.154c3.579-1.452,8.495-1.167,12.723-1.167c2.711-0.39,5.435-0.766,8.106-1.167
		c2.711-0.39,5.421-0.753,8.093-1.154c7.03-4.332,18.625-6.861,27.742-6.731c5.539,0.077,10.7,1.815,16.122,0.545l45.68-14.683
		c-18.417-3.203-32.477-17.755-33.54-35.523h-0.104v-88.351h29.843v88.351c0.882,4.941,5.525,8.729,11.167,8.729
		c6.277,0,11.375-4.683,11.375-10.44l0.259-86.639h29.87v88.351h-0.13c-0.636,10.804-6.135,20.401-14.436,27.003
		c14.496-2.308,29.11-3.797,43.772-4.462l2.413-84.796h-21.504v-26.096h79.31v26.096h-26.173l-2.373,84.329
		c5.02,0.078,9.935,0.233,14.772,0.454l34.422-110.892h39.947l12.139,127.765h-8.871c2.412,1.427,4.813,2.854,7.225,4.255
		c3.878,1.05,8.08,0.064,12.359,0.143c5.02,0.492,10,1.012,14.994,1.518c12.71,3.397,25.459,6.796,38.195,10.155
		c3.93,1.153,7.873,2.36,11.776,3.515c8.028,1.089,15.408-3.334,24.085-2.023l32.632,9.183l490.491-0.648l111.358-182.108
		L341.585,815.448L341.585,815.448z M477.663,971.785l-59.259-101.67h-22.281l-16.861-26.095h95.691l16.848,26.095h-34.798
		l57.079,101.67H477.663z M554.172,971.785l-64.006-127.765h78.506l12.283,26.095h-42.749l10.778,21.751h38.728l9.559,22.84h-36.977
		l15.901,32.074h40.322l12.282,25.006L554.172,971.785L554.172,971.785z M644.092,971.785l-57.055-127.765h78.208l10.855,26.095
		h-42.579l9.598,21.751h38.571l8.327,22.84h-36.834l14.162,32.074h40.168l10.92,25.006L644.092,971.785L644.092,971.785z
		 M790.818,971.812l-3.489-4.501l-0.337,0.104l-0.246-0.844l-48.559-62.644l24.668,67.975l-31.957-0.104l-46.212-127.376
		l41.166-0.402l42.087,54.291l-14.837-53.837l29,0.025l35.641,127.272L790.818,971.812L790.818,971.812z M896.354,971.812
		l-9.701-19.04l-33.695,0.026v18.975h-29.092V844.008h40.024l64.914,127.765L896.354,971.812L896.354,971.812z M947.078,964.847
		c-33.008-22.97-45.395-64.161-27.47-94.329c5.2-8.729,25.031-32.917,61.826-21.659l9.637,30.712
		c-27.366-15.9-40.024,1.726-43.306,7.743c-9.43,17.366-2.905,41.088,14.461,54.305c7.601,4.63,15.693,6.848,23.19,6.77
		l-8.924-38.792l29.662,0.519l13.774,59.804C1019.903,969.905,972.408,978.971,947.078,964.847L947.078,964.847z M1033.262,971.785
		l-22.593-127.765h75.575l3.852,26.095h-41.153l3.723,21.751h37.275l2.23,22.84h-35.589l5.512,32.074h38.818l4.189,25.006
		L1033.262,971.785L1033.262,971.785z M1245.668,971.785h-32.074v-54.927l-23.1,54.927l-23.799-54.927v54.927h-32.088V844.021
		l34.617,0.064l21.646,53.462l20.621-53.5l34.15-0.026v127.765H1245.668z M1594.594,971.785l-26.926-0.22l-18.793-53.747
		l-5.927,53.954h-29.104l14.06-127.765l30.984-0.065l19.585,55.952l8.378-55.887l27.003-0.182L1594.594,971.785L1594.594,971.785z
		 M1695.109,870.115H1670l-18.21,102.267l-30.167-0.907l18.041-101.359h-20.623l3.931-26.095h76.067L1695.109,870.115z
		 M1760.464,971.578l-11.933-53.747l-14.267,53.954h-30.776l33.746-127.765l32.801-0.064l12.412,55.951l17.146-55.887l28.572-0.182
		l-39.26,127.947L1760.464,971.578L1760.464,971.578z M1805.054,971.785l38.702-127.765h29.688l-38.701,127.765H1805.054z
		 M1912.664,971.785l-7.6-58.026l-19.326,58.026h-32.657l42.554-127.765h30.142l9.118,60.737l20.142-60.737h32.503l-42.359,127.765
		H1912.664z M1957.773,956.131l13.293-29.39c15.473,31.867,32.502,5.267,32.502,5.267l39.896-88h33.41l-48.261,105.366
		c0,0-3.139,4.5-5.266,6.757C1992.13,989.541,1957.773,956.131,1957.773,956.131z M2127.871,971.785l-30.647,0.39l6.108-20.052
		h-31.97l-15.175,19.662h-32.826l98.621-127.777h44.682L2127.871,971.785z"/>
	<path fill="#CC2229" d="M2109.714,931.087l14.345-47.236l-36.458,47.236H2109.714z"/>
	<path fill="#FFFFFF" d="M2460.273,1186.267c-1.634-3.72-3.922-7.116-6.757-10.025c-3.085-3.112-6.705-5.644-10.688-7.471
		c-4.448-2.043-9.294-3.075-14.188-3.022c-5.266,0-10.337,1.168-15.071,3.463c-7.501,3.586-13.443,9.776-16.718,17.419
		c-1.9,4.319-2.868,8.99-2.841,13.709c0,5.253,1.167,10.323,3.477,15.07c8.299,17.143,28.908,24.331,46.068,16.07
		c3.593-1.712,6.938-4.125,9.961-7.159c3.108-3.16,5.556-6.908,7.198-11.024c1.673-4.177,2.529-8.561,2.529-12.996
		C2463.244,1195.501,2462.232,1190.78,2460.273,1186.267L2460.273,1186.267z M2447.083,1200.313c0,1.674-0.259,3.295-0.687,4.902
		c-0.358-1.066-0.87-2.075-1.518-2.996c0.863-1.09,1.538-2.317,1.997-3.631C2446.928,1199.158,2447.084,1199.703,2447.083,1200.313
		L2447.083,1200.313z M2410.404,1201.999c-0.052-0.558-0.207-1.103-0.207-1.687c0-0.843,0.129-1.582,0.233-2.36L2410.404,1201.999z"
		/>
	<path d="M2437.46,1178.29c2.893,1.167,5.369,2.788,7.471,4.864c2.101,2.088,3.748,4.37,4.941,6.86
		c3.35,7.066,3.05,15.321-0.804,22.127c-2.076,3.787-4.994,6.718-8.742,8.819c-3.723,2.101-7.626,3.151-11.673,3.151
		c-4.046,0-7.95-1.051-11.673-3.151c-3.722-2.102-6.641-5.032-8.741-8.819c-3.768-6.574-4.182-14.55-1.115-21.479
		c1.361-2.905,3.061-5.356,5.097-7.366c2.037-2.011,4.254-3.554,6.641-4.631c3.076-1.412,6.42-2.146,9.805-2.152
		C2431.649,1176.526,2434.594,1177.123,2437.46,1178.29L2437.46,1178.29z M2455.539,1188.29c-1.373-3.145-3.313-6.011-5.719-8.456
		c-2.504-2.568-5.551-4.695-9.17-6.395s-7.626-2.542-12.01-2.542c-4.441-0.016-8.826,0.992-12.814,2.944
		c-3.021,1.461-5.779,3.416-8.158,5.784c-8.75,8.89-10.972,22.318-5.551,33.553c1.388,2.918,3.32,5.616,5.771,8.106
		c2.478,2.49,5.525,4.514,9.118,6.096c3.593,1.596,7.444,2.373,11.582,2.373c4.514,0,8.741-0.959,12.736-2.892
		c3.177-1.554,6.063-3.643,8.534-6.174c5.264-5.485,8.213-12.786,8.235-20.389
		C2458.095,1196.201,2457.239,1192.207,2455.539,1188.29L2455.539,1188.29z M2425.242,1205.617c2.412,0,4.047,0.182,4.968,0.558
		s1.595,0.999,2.022,1.854c0.324,0.623,0.559,2.011,0.662,4.138c0.078,2.14,0.272,3.619,0.558,4.449h9.3
		c-0.172-0.414-0.297-0.845-0.377-1.284c-0.066-0.751-0.102-1.504-0.104-2.257c0.01-2.108-0.247-4.208-0.766-6.252
		c-0.402-1.271-1.219-2.373-2.477-3.333s-2.711-1.543-4.41-1.712c2.659-0.233,4.656-1.051,5.979-2.451
		c1.392-1.544,2.11-3.579,1.997-5.655c0-2.97-0.985-5.317-3.009-7.042c-1.997-1.726-5.317-2.595-9.987-2.595h-14.007l-0.078,32.594
		h9.728V1205.617L2425.242,1205.617z M2427.175,1190.547c2.127,0,3.618,0.35,4.487,1.051c0.847,0.722,1.314,1.793,1.271,2.904
		c0,1.453-0.428,2.568-1.323,3.347c-0.895,0.778-2.438,1.167-4.656,1.167h-1.698v-8.469H2427.175z"/>
</g>
</svg>
