<?xml version="1.0" encoding="utf-8"?>
<!-- Generator: Adobe Illustrator 16.0.0, SVG Export Plug-In . SVG Version: 6.00 Build 0)  -->
<!DOCTYPE svg PUBLIC "-//W3C//DTD SVG 1.1//EN" "http://www.w3.org/Graphics/SVG/1.1/DTD/svg11.dtd">
<svg version="1.1" id="Layer_1" xmlns="http://www.w3.org/2000/svg" xmlns:xlink="http://www.w3.org/1999/xlink" x="0px" y="0px"
	 width="2892px" height="876.515px" viewBox="-195.982 774.969 2892 876.515"
	 enable-background="new -195.982 774.969 2892 876.515" xml:space="preserve">
<g>
	<path fill="#FFFFFF" d="M263.39,1381.229l0.168-0.077l-0.078-0.13L263.39,1381.229z M331.079,1512.755
		c1.894,5.604,3.243,9.728,3.865,11.504l-13.618,3.062L331.079,1512.755z M290.484,1408.971l0.7,0.207
		c1.894,4.15,3.424,7.522,4.384,9.729l-11.258,5.045L290.484,1408.971z M2362.975,1277.263c-0.104-0.052-0.155-0.104-0.26-0.13
		C2362.798,1277.182,2362.885,1277.226,2362.975,1277.263z M506.34,1382.473c-0.679-1.065-1.4-2.104-2.166-3.111
		c-0.426-0.588-0.846-1.181-1.258-1.776c-0.26-3.087-1.453-4.994-4.98-10.558c-39.116-61.879-55.899-94.512-63.032-111.593
		c9.817-2.865,25.445-4.631,31.711-5.331c1.92-0.221,3.657-0.415,5.278-0.621c2.711,9.546,5.991,24.693,7.651,32.347
		c3.243,14.967,3.904,17.858,5.681,20.842c5.06,8.482,5.06,8.482,5.279,13.203c0.129,2.711,0.298,6.434,0.816,11.803l0.064,0.714
		l0.155,0.713c1.842,9.065,9.144,33.695,12.296,41.089l-0.299-0.636l6.07,16.588c0.285,0.83,0.752,2.103,1.283,3.541
		C509.349,1387.285,507.779,1384.847,506.34,1382.473z M665.245,1041.783c-0.363,0.428-0.728,0.816-1.076,1.258
		c-0.612-0.448-1.24-0.877-1.881-1.283L665.245,1041.783z M1169.938,1269.766c-3.4-1.193-6.813-2.36-10.232-3.502l-1.05-0.35
		c4.643-2.479,8.923-5.447,12.995-8.508C1171.132,1261.533,1170.563,1265.653,1169.938,1269.766L1169.938,1269.766z
		 M1387.259,1287.067c-0.13-1.037-0.207-2.075-0.323-3.087c-0.935-7.418-1.389-13.269-1.804-18.47
		c-1.012-12.594-1.751-21.737-8.431-32.397c3.853-3.074,5.876-6.861,5.876-11.374c0.259-4.877,0.024-8.146-0.13-10.078
		c-0.025-0.328-0.043-0.656-0.053-0.985c0.207-4.293,0.233-10.583,0.26-18.547c0.025-14.021,0.156-47.431,2.659-62.968
		c31.814,8.48,57.649,20.712,61.126,27.197c0.26,1.089,0.155,4.032,0.104,6.03l-0.078,2.102c-6.005,4.838-11.803,9.831-17.274,15.9
		c-7.394,8.067-15.76,30.452-31.687,77.547C1393.796,1268.858,1389.309,1282.087,1387.259,1287.067z M1728.273,1106.686
		l-1.039,6.834c-2.502,16.744-4.863,32.541-8.533,48.156c-1.271,5.408-2.971,11.881-4.76,18.729
		c-4.631,17.587-9.779,37.288-11.828,53.099c-0.709,0.475-1.385,0.994-2.023,1.557c-7.361,6.401-13.039,14.512-16.537,23.617
		l-60.219-4.176c0.936-3.917,1.492-8.003,1.946-12.036c0.454-3.956,1.192-10.454,2.36-12.516c2.711-1.907,6.135-5.292,15.86-27.509
		c9.779-22.567,20.39-36.86,33.813-54.953c4.655-6.266,9.455-12.736,14.643-20.116c3.347-4.772,6.99-9.338,10.816-14.176
		c9.352-11.804,19.053-24.021,24.694-39.493c3.502-9.649,2.022-21.698-1.725-31.075h7.626l-1.245,9.493l-0.104,0.688l-0.025,0.688
		c-0.077,2.556-0.053,5.007-0.025,7.367c0,3.891,0.053,7.562-0.402,10.739c-0.078,0.674-1.698,18.054-1.698,18.054
		L1728.273,1106.686L1728.273,1106.686z M2170.866,1415.352c-5.071-4.89-8.938-11.606-9.884-16.64
		c2.659,1.349,5.188,2.686,6.719,3.645l3.035,4.838h7.146c1.037,0.377,3.165,1.829,4.514,2.686c1.519,1.013,3.062,2.049,4.761,2.982
		l3.477,1.881c4.941,2.685,9.986,5.421,13.371,8.612c-0.791,0.454-1.775,0.906-3.009,1.322l-1.673,0.506h-8.041
		C2183.305,1423.73,2175.809,1420.138,2170.866,1415.352L2170.866,1415.352z M2057.03,1339.66c2.982,2.075,6.81,4.656,11.621,7.897
		l-0.83,0.48c-2.075,1.245-4.15,2.438-6.227,3.592C2060.748,1347.415,2059.205,1343.37,2057.03,1339.66L2057.03,1339.66z
		 M2035.215,1318.817c1.727,2.05,3.502,4.149,5.344,6.252c-1.591-0.841-3.213-1.618-4.863-2.335
		c-0.558-0.233-1.142-0.429-1.698-0.637C2034.359,1321.035,2034.762,1319.946,2035.215,1318.817z M2421.17,1422.343l-0.078-0.232
		C2421.064,1422.083,2421.117,1422.188,2421.17,1422.343z M2422.077,1424.521l-0.183-4.437l-0.052-0.934
		c-0.062-0.268-0.112-0.535-0.155-0.806c-0.584-3.319-0.375-7.626-0.207-12.179c0.26-5.499,0.479-11.452-0.479-17.509l1.388-2.023
		c-0.892-2.516-1.83-5.016-2.813-7.496c0.142,0.332,0.241,0.682,0.298,1.037c-0.739-3.035-1.775-5.499-2.581-7.496
		c-0.41-0.958-0.783-1.932-1.115-2.919l-1.438-5.875c-1.674-6.965-3.424-14.163-6.719-21.764l-0.377-0.83l-0.453-0.765l-2.971-5.021
		l-2.127-3.541l-1.945-6.407c-2.387-7.548-13.1-23.487-18.599-28.623l-0.986-0.935c0.052,0.052-1.089-0.688-1.089-0.688
		l-4.357-2.736l-1.92-1.193c-0.207-3.424-1.698-9.624-9.065-13.476c-1.142-1.115-2.282-2.23-3.476-3.45
		c-3.957-4.032-8.432-8.586-13.981-12.112c-3.362-2.188-6.712-4.395-10.052-6.615l3.32-3.878
		c6.03-7.264,22.373-28.729,29.973-40.452c9.065-14.202,15.474-30.777,17.679-45.551c0.687-4.683,1.751-16.497-2.634-26.743
		c-12.165-28.041-58.739-56.419-80.982-65.382l-19.831-7.404l-0.429-0.156l-0.4-0.129l-19.61-5.967l-9.195-2.788l-1.438,1.829
		c-12.944-3.763-53.877-12.049-76.146,1.114c-1.678-0.876-3.41-1.643-5.188-2.296c-5.901-2.127-25.355-8.119-40.635-1.79
		c-8.74,0.545-17.004,3.101-23.527,7.25c-9.17,1.53-23.229,9.261-34.474,17.159c-1.245-3.709-2.387-6.783-3.955-9.261
		c-3.556-5.38-8.351-9.828-13.981-12.97c-13.605-7.25-28.91-12.412-44.59-16.434l136-1.789l7.729-0.104l4.072-6.55l147.53-236.49
		l13.502-21.621h-25.512l-2004.128-0.36h-25.33l13.281,21.558l146.805,238.525l4.149,6.759l7.938-0.026
		c0.545,0,54.577-0.168,69.311,0.063c30.647,0.506,61.425,0.273,91.203,0.065l3.074-0.013c-14.644,2.489-28.105,5.681-38.196,10.246
		c-2.982,1.336-5.72,3.216-8.378,5.031c-1.448,1.022-2.937,1.987-4.462,2.893c-29.778-7.095-56.563-2.204-79.66,14.592
		c-1.656-1.705-3.282-3.439-4.877-5.201c-3.593-3.904-6.691-7.289-9.805-9.649c-9.442-7.146-24.279-16.926-44.214-19.377
		c-44.681-5.513-149.854,69.167-171.733,118.311c-19.351,3.178-33.008,14.812-45.226,25.305l-2.568,2.205
		c-5.318,4.525-10.648,9.39-15.81,14.071c-12.244,11.142-24.889,22.658-37.937,30.428c-12.347,7.289-25.667,11.88-35.576,12.23
		l-1.751,0.052l-1.362,0.401c-0.986,0.155-3.891,0.182-6.031,0.207c-14.37,0.131-52.553,0.454-55.64,44.279
		c-1.997,26.873,12.75,45.899,24.033,57.884c10.752,11.479,22.93,23.125,38.922,30.647l0.934,0.428l0.96,0.299l9.416,2.866
		l13.281,4.046c24.63,7.549,53.89,8.404,80.296,2.36c19.857-5.604,29.727-9.468,52.229-19.688l2.348,5.525
		c1.336,3.034,2.646,6.057,4.085,8.741l7.562-17.433c2.503,5.771,4.617,10.609,5.382,12.23l-12.866,5.317l0.078,0.155l-0.182,0.078
		c5.084,12.088,11.219,25.615,15.292,34.577c1.504,3.319,3.048,6.719,3.93,8.716l-0.272,0.13
		c2.529,7.172,10.129,27.534,13.346,34.499c9.066,19.403,20.129,52.516,24.292,64.953c0.506,1.491,1.103,3.319,1.907,5.136
		l-0.117,0.025c1.543,5.046,3.204,10.052,4.799,14.916c3.528,10.687,6.848,20.776,9.208,31.257c0.662,2.97,1.284,6.161,1.933,9.546
		c3.359,17.379,7.536,38.987,23.19,52.735c10.492,9.222,33.708,22.217,71.308,5.654c14.086-6.213,49.479-32.348,56.198-38.807
		l0.713-0.688l0.584-0.766l14.357-18.262l4.229-5.396c2.605-0.959,7.819-1.271,11.451-1.465c1.596-0.104,3.229-0.208,4.863-0.351
		c13.242-1.115,31.88-7.652,45.589-32.32c14.06-25.329,9.56-50.438-0.467-71.71c18.896,14.863,40.803,25.2,65.651,30.569
		c35.291,7.601,95.03-1.322,124.354-26.264c6.07-5.188,9.183-11.776,11.687-17.068c0.584-1.245,1.388-2.97,1.998-4.033
		c0.375-0.104,0.804-0.208,1.166-0.271c1.867-0.429,4.177-0.96,6.72-2.023c8.77-3.624,16.661-9.081,23.149-16.005l0.467-0.479
		c0,0.024,0.416-0.506,0.416-0.506l20.115-25.137c20.453,28.146,57.055,28.224,86.938,28.224h0.608l0.598-0.078
		c3.009-0.259,6.03-0.83,9.52-1.543c10.117-1.973,27.029-5.318,64.629-4.15c11.53,0.298,19.845-6.135,26.069-11.53
		c6.096,4.915,12.918,10.207,20.972,13.347l0.376,0.154l0.391,0.13l6.679,2.181l7.173,2.334l1.115,0.376l1.076,0.156l7.25,1.089
		c7.225,2.282,26.315,6.563,73.306-16.821c14.111-7.25,27.444-16.822,37.716-27.056l0.57-0.583l0.479-0.584l1.608-2.023
		c2.021,2.557,4.436,4.968,7.263,7.173c7.563,5.823,16.212,8.923,24.254,8.923c5.499,1.92,12.113,1.414,19,0.856
		c0.999-0.078,2.361-0.208,2.789-0.208c6.265,0.299,12.813-1.595,18.066-3.112c1.518-0.454,2.943-0.855,4.11-1.142l8.017-1.997
		c13.709-3.424,26.651-6.692,39.907-9.17c8.287-1.595,16.536-2.386,25.252-3.218l6.888-0.66l0.713-0.077l0.636-0.13l7.367-1.492
		l6.744-1.361c-0.324,0.077,5.654-1.012,5.654-1.012l5.07-0.908l1.245-0.232l1.22-0.429c4.307-1.62,7.926-3.645,11.167-5.928
		c6.718,10.052,14.644,18.34,23.864,24.695c18.949,13.021,41.918,14.513,64.136,15.979c8.365,0.531,16.265,1.063,23.761,2.152
		c8.08,1.192,16.082,2.893,24.578,4.683c8.586,1.829,17.457,3.724,26.472,5.021c10.181,1.543,21.426,3.956,55.327,17.729
		c1.44,0.584,4.605,2.179,7.652,3.696c15.812,7.847,27.236,13.073,36.354,12.542h0.233c5.681,3.346,12.088,2.229,16.057,1.491
		c0.222-0.024,0.443-0.06,0.662-0.104c10.972-1.544,21.932-7.419,28.676-15.355c1.465-1.776,2.711-3.67,4.033-5.693
		c0.453-0.714,1.09-1.646,1.725-2.606c10.26,3.269,24.5,5.046,36.912,4.033c19.352-1.544,53.955-0.025,78.092,2.282
		c37.391,3.515,78.09,17.328,103.758,35.135c3.853,2.687,8.457,6.589,13.319,10.714c12.386,10.492,26.42,22.373,41.244,25.537
		c11.802,2.479,25.005,0.935,35.343-4.071l0.766-0.352l0.66-0.428l0.26-0.156v0.261c0.026,3.397,0.054,8.533,2.687,13.954
		c6.406,13.347,17.404,25.2,32.58,35.267l11.271,9.351l1.323,1.09l1.491,0.713l18.287,8.897l18.262,8.871l1.647,0.791l1.803,0.351
		l14.267,2.866l9.195,1.854c12.996,3.748,24.553,5.851,35.137,6.381c7.924,0.325,17.172,0.715,25.174-0.829
		c2.633-0.531,4.785-1.322,6.511-1.945l1.012-0.35l1.143,1.011c2.151,1.92,4.812,4.332,8.235,6.058
		c7.781,3.878,18.132,4.656,28.947,5.162l0.739,0.025c79.362,3.749,154.833-44.408,192.29-122.604
		c7.018-14.721,11.725-34.021,15.045-49.193c0.506-2.283,0.791-4.385,1.038-6.227c0.13-0.96,0.272-1.894,0.428-2.763
		c0.155-0.233,0.376-0.402,0.532-0.688C2422.232,1434.884,2424.074,1430.371,2422.077,1424.521L2422.077,1424.521z"/>
	<path d="M2408.045,1427.607c-0.078-2.282-0.184-4.564-0.273-6.835c-2.021-11.607,2.103-25.277-2.359-35.849
		c1.751,0,1.038-0.182,0.714-1.596c-0.856-3.45-2.841-6.938-3.646-10.155c-2.36-9.17-3.773-17.094-7.394-25.407l-5.979-10.025
		c-0.791-2.633-1.621-5.317-2.45-7.978c-1.544-4.993-10.765-18.817-14.722-22.488c-2.633-1.673-5.316-3.348-7.949-4.993
		c-3.27-2.283-6.408-5.292-4.864-9.937c0-2.151-2.335-1.893-3.748-3.241c-5.317-4.993-10.259-10.998-16.265-14.824
		c-22.035-14.318-22.879-15.862-22.969-16.265c5.162-6.276,5.291-6.147,13.021-15.277c5.72-6.874,21.711-27.886,28.922-39.039
		c7.251-11.35,13.502-26.108,15.552-39.921c0.907-6.305,0.609-13.774-1.646-19.104c-9.831-22.605-52.061-49.26-73.279-57.819
		l-19.506-7.275l-19.585-5.966c-3.139,3.917-4.437,4.655-6.64,3.255c-1.012-2.528-0.26-3.034-1.805-3.54
		c-15.979-5.538-59.66-11.621-71.438,2.605c-4.63,0-8.663-3.217-12.735-4.669c-8.534-3.073-23.762-6.187-32.398-1.129
		c-8.287,0-17.679,2.607-23.15,8.106c0-1.439,0.259-1.22-1.167-0.974c-10.156,1.621-34.525,17.172-41.646,25.291
		c-4.734,0-8.638-19.272-11.452-23.656c-2.22-3.317-5.177-6.078-8.638-8.066c-28.677-15.292-65.888-20.648-99.052-26.73
		c-13.396-2.451-27.301-6.912-41.723-5.654c-6.693,0.584-11.621,3.878-17.38,6.226c0-1.814-21.181-12.334-24.317-15.045h1.166
		l279.123-3.696l147.53-236.504l-2004.14-0.312l146.805,238.515c0,0,54.538-0.182,69.583,0.064
		c69.92,1.128,138.491-1.439,208.358,0.765v1.168h1.154v1.154c-3.217,1.271-6.434,2.489-9.648,3.722
		c-14.617,5.355-29.338,8.716-37.327,28.91c-10.636,1.945-5.317-17.405-37.509-11.582c-19.313,2.309-47.34,5.966-63.37,13.203
		c-5.682,2.529-13.632,10.752-19.714,9.3c-12.957-3.334-45.861-10.778-77.807,17.794c-6.29,0-18.054-16.484-24.046-21.05
		c-11.167-8.456-22.97-14.838-37.393-16.603c-40.687-5.02-151.681,76.521-159.605,117.506c-21.115,0-34.396,12.556-49,25.032
		c-17.911,15.267-35.667,33.955-55.705,45.899c-11.673,6.899-27.833,13.684-42.307,14.215c-9.948,2.893-48.429-7.25-51.179,31.789
		c-1.453,19.455,7.989,34.201,20.22,47.197c10.311,10.998,21.115,21.204,34.655,27.561c7.587,2.309,15.149,4.592,22.71,6.913
		c22.166,6.783,49.156,7.548,72.981,2.101c21.271-6.005,29.727-9.675,62.683-24.798c5.539,13.073,13.852,32.101,12.192,28.015
		c10.051,23.942,24.046,52.942,19.234,44.176c2.607,7.367,9.987,27.106,12.84,33.229c12.088,25.862,26.977,73.437,26.756,71.943
		c4.812,15.681,10.636,31.011,14.293,47.249c4.046,18.158,6.07,41.944,20.661,54.745c6.537,5.771,24.085,17.535,56.263,3.347
		c12.36-5.447,46.198-30.375,52.101-36.069c6.757-8.56,13.488-17.172,20.22-25.73c6.407-4.734,16.315-4.384,24.63-5.071
		c16.16-1.388,27.055-11.905,34.396-25.108c20.427-36.86-7.237-73.669-28.937-100.011c-12.716-15.43-24.317-31.743-34.72-48.817
		c-1.453-2.36-6.369-7.782-5.396-10.637c0-0.428-53.592-82.577-69.076-123.511c-0.806-2.152-5.279-3.061-3.904-5.058
		c9.909-14.215,60.725-13.969,62.566-16.9c5.498-8.793,16.809,58.17,18.948,61.749c9.261,15.499,6.121,11.375,8.027,30.855
		c2.348,11.556,10.532,36.859,11.427,38.402c2.023,5.525,4.047,11.076,6.083,16.589c3.45,9.986,9.117,23.631,14.98,32.295
		c6.068,9.014,10.998,18.521,17.976,27.028c21.725,26.367,49.791,42.813,82.565,49.907c33.929,7.315,88.207-2.813,112.188-23.229
		c7.056-6.031,8.819-17.626,14.033-21.687c3.256-2.581,7.536-2.438,11.258-3.98c7.444-3.14,12.659-6.835,18.443-12.814
		c7.521-9.351,15.045-18.741,22.567-28.17c2.348-3.32,4.812-8.768,8.922-10.182c4.189-1.519,6.147,5.693,7.42,8.002
		c15.045,27.938,47.093,28.145,79.167,28.145c9.663-0.83,24.732-7.341,75.809-5.745c9.831,0.26,16.771-9.494,24.876-15.07h1.154
		c8.027,5.875,16.381,14.215,25.706,17.858l13.852,4.539c2.75,0.429,5.486,0.831,8.249,1.22c3.541,1.143,18.158,7.068,63.799-15.654
		c11.894-6.108,24.228-14.644,34.032-24.423c3.942-4.915,7.847-9.883,11.751-14.798v-1.142c2.243,0,5.615,3.009,6.951,4.604h1.154
		c0,10.791,16.926,22.541,27.781,19.688c0,3.32,15.629,0.934,18.508,1.089c6.005,0.272,13.126-2.529,18.664-3.878
		c16.198-4.033,32.28-8.235,48.598-11.322c11.141-2.127,21.957-2.893,33.332-4.047c4.708-0.934,9.429-1.895,14.111-2.866
		c3.695-0.636,7.341-1.323,11.05-1.972c7.897-2.943,12.866-8.028,18.896-14.033c0-2.982,2.102,1.777,2.36,2.283
		c6.188,12.671,14.851,23.941,26.73,32.15c22.14,15.228,54.161,11.699,81.941,15.812c17.043,2.503,33.916,7.198,51.023,9.701
		c11.699,1.776,24.369,4.683,58.598,18.625c7.289,2.97,31.18,16.692,38.637,15.2c3.477,0,4.41-0.766,6.939,1.167
		c0,2.152,6.381,0.558,8.104,0.351c7.146-1.012,15.07-4.89,19.857-10.492c3.319-4.034,9.116-16.265,14.771-15.02
		c0.48,0.584,16.875,7.471,37.522,5.798c21.504-1.751,57.481,0.052,80.581,2.282c37.547,3.541,81.164,17.225,110.502,37.587
		c14.111,9.805,32.957,30.53,49.441,34.046c8.793,1.854,18.688,0.688,26.211-2.971c2.789-1.776,5.524-3.541,8.34-5.317
		c0-1.92,0.662-1.167,2.309-1.167c0,1.439,10.156,8.611,10.998,13.1c0.83,4.708-0.4,9.039,1.622,13.242
		c6.083,12.619,16.743,22.516,28.417,30.115c3.93,3.269,7.781,6.484,11.672,9.701c12.205,5.928,24.37,11.803,36.575,17.756
		l23.839,4.76c10.129,2.971,21.373,5.5,32.685,6.057c6.835,0.273,15.304,0.688,21.789-0.582c4.278-0.883,8.054-3.516,12.788-2.894
		c4.812,0.558,8.871,6.719,13.177,8.897c5.928,2.97,17.146,3.397,24.021,3.723c80.271,3.773,146.922-47.924,178.866-114.627
		c6.329-13.242,10.765-31.413,13.981-46.107c1.012-4.708,1.012-9.455,2.736-13.761
		C2409.691,1430.072,2408.523,1428.879,2408.045,1427.607L2408.045,1427.607z M682.91,1296.068
		c-3.723,13.449-6.731,7.521-7.925,5.123c-3.735-7.574-2.854-21.335-3.516-22.191c-4.086-5.473-2.102-45.523-2.022-54.278
		c-2.141-4.267-6.368-11.529-8.172-13.372c0-5.536,6.938-14.979,7.848-22.034c1.129-8.938,0.078-18.119,0.26-27.742l1.154-26.614
		c2.749-5.603,4.591,10.052,5.499,12.84c2.503,7.926,9.662,59.752,8.923,69.415C683.701,1228.808,688.979,1273.903,682.91,1296.068z
		 M1025.844,1140.742c-1.881,0-3.619,3.658-5.317,4.772c-3.229,1.519-6.473,2.996-9.728,4.487
		c-3.477,0.402-6.952,0.766-10.415,1.154c-4.124,0-8.456,0.479-11.582,2.32c-5.058,0-9.909-1.451-10.271-6.911
		c-0.83-11.505,18.301-8.794,26.444-9.663c4.269-1.024,8.496-2.063,12.764-3.112c2.854,1.518,5.031,2.854,6.952,5.797
		C1026.22,1139.588,1025.844,1139.174,1025.844,1140.742z M1179.781,1290.038v1.141c-1.557,0-1.154,0.376-1.154-1.141
		c-3.696,0-6.329-4.125-9.441-5.422c-7.886-3.347-33.462-10.713-39.636-14.852c-6.368-4.149,1.777-8.156,2.788-10.998
		c20.727,0,34.941-17.534,50.933-27.769c2.166,1.063,4.695-0.868,4.734,4.916
		C1187.953,1242.465,1182.895,1286.458,1179.781,1290.038z M1458.515,1172.96c-6.483,5.136-13.021,10.44-18.818,16.887
		c-11.089,12.126-37.923,104.873-41.438,106.47c-3.113,1.388-15.629,41.566-20.597,31.127c-3.009-6.484-2.84-26.627-4.76-41.697
		c-3.216-25.46-1.115-34.176-8.378-45.485c-14.695-7.704,3.902-18.104,3.902-18.521c0.352-7.342-0.259-9.508-0.155-11.608
		c0.882-19.286-2.049-101.021,10.559-97.195c18.688,4.346,71.71,19.61,80.398,37.327c2.971,6.083,0.454,14.902,1.776,21.698
		C1459.449,1171.974,1459.475,1172.143,1458.515,1172.96L1458.515,1172.96z M1748.895,1033.067
		c-0.907,6.978-1.854,13.93-2.735,20.868c-0.233,6.653,0.323,13.241-0.584,19.637l-3.269,34.798
		c-2.893,19.064-5.5,38.015-9.832,56.535c-4.889,20.505-14.823,53.318-16.82,74.354c-0.35,3.696-4.008,4.488-6.277,6.485
		c-8.159,7.233-13.566,17.067-15.304,27.833l-88.935-6.188l4.15-14.721c3.01-10.519,1.219-28.132,9.779-34.007
		c2.412-1.66,9.402-17.211,11.451-21.906c13.879-32.048,29.559-48.675,49.883-77.546c11.775-16.822,26.795-31.244,33.773-50.388
		c2.918-8.028,0-20.323-4.488-26.445c-2.982-4.072-7.342-8.353-6.783-13.917h45.135v1.168
		C1749.907,1029.631,1749.038,1031.511,1748.895,1033.067L1748.895,1033.067z M2091.297,1351.891
		c-4.279,2.075-8.533,4.177-12.813,6.277c-8.716,5.071-18.741,11.828-29.532,12.866c0-18.977-1.673-27.938-18.793-35.291
		c-3.477-1.519-9.702-2.763-11.803-6.407c-2.282-3.956,9.831-31.711,13.229-34.682v-1.167c6.188,2.943,7.068,7.197,11.115,12.113
		c5.07,6.16,9.855,12.141,15.861,17.574c4.332,3.955,34.396,23.177,34.707,24.137
		C2093.787,1349.388,2092.84,1350.801,2091.297,1351.891L2091.297,1351.891z M2205.184,1438.179v1.167h-8.104
		c0,1.895-6.407,0.104-8.106-0.208c-10.129-1.828-20.543-6.459-27.937-13.631c-11.828-11.427-22.672-33.838-5.629-45.187
		c4.202,2.101,21.231,9.676,23.149,12.71c5.5,0,11,4.993,15.447,7.471c6.861,3.774,14.746,7.549,20.492,13.294
		C2225.326,1424.625,2216.637,1434.599,2205.184,1438.179L2205.184,1438.179z"/>
	<path fill="#FFFFFF" d="M341.585,815.876l115.703,183.198l440.479,0.545c0,0,147.35-39.363,196.751-3.478
		c2.141-0.545,7.12-5.316,11.713-6.212c6.483-1.35,12.438,0.896,18.339,1.582c13.852,1.53,27.196,2.321,41.697,2.321
		c4.229-0.401,8.509-0.765,12.724-1.154c3.58-1.452,8.495-1.167,12.735-1.167l8.095-1.153l8.104-1.154
		c7.017-4.332,18.625-6.874,27.742-6.731c5.524,0.065,10.7,1.804,16.122,0.545c15.434-4.953,30.894-9.908,46.341-14.901
		c44.939-16.744,137.35-16.563,176.843-5.862l18.624,6.433c4.437,2.62,8.847,5.216,13.242,7.782c3.879,1.051,8.08,0.064,12.36,0.144
		l14.992,1.518c12.711,3.398,25.46,6.796,38.17,10.155c3.957,1.154,7.898,2.359,11.803,3.515c8.028,1.09,15.408-3.319,24.086-2.022
		l32.632,9.195l490.489-0.662l111.361-182.11L341.585,815.876L341.585,815.876z"/>
	<path fill="#AACA4E" d="M1677.859,1314.46c-3.592-4.683-11.803-5.396-17.729-6.692c-5.446-1.244-10.077-2.152-8.871-1.972
		c-45.603-6.537-73.163-2.153-94.991,5.123c-15.951,5.317-21.18,15.408-25.68,20.389c-2.982,3.294-9.857,4.332-9.455,0.351
		c2.283-14.644,20.389-24.851,30.297-35.692c11.959-13.178,39.521-63.591,22.191-79.311c-5.162-4.708-11.725-10.246-18.948-10.675
		c-10.439-0.699-18.768,7.082-26.173,12.802c-2.23,1.698-29.947,45.369-25.227,18.885c2.205-5.967,17.858-17.873,17.858-19.429
		c1.699-1.621,4.89-3.839,5.577-8.028c0.609-3.696-8.534-7.562-0.934-9.325c0.765-0.116,1.517-0.182,2.229-0.299
		c3.8-0.569,7.652-1.438,10.104-4.436c4.408-5.538,0.96-13.67,0.855-20.766c-0.156-7.095,0.583-15.473,2.633-21.619
		c12.736-38.354,18.131-5.138,27.302-52.088c1.698-3.438,14.862,2.023,2.18,23.903c-2.528,3.878-3.269,4.915-5.344,9.156
		c-5.318,10.597-18.017,33.891-15.914,46.328c0.935,5.822,5.447,10.96,8.988,15.512c4.071,5.292,11.022,10.855,17.911,11.258
		c5.551,0.285,8.662-1.569,12.334-4.968c2.281-3.579,4.539-7.159,6.81-10.777c7.703-13.488,15.446-26.978,23.15-40.518
		c15.123-25.499,36.679-47.677,51.049-73.564c2.983-5.499,5.266-13.772,2.711-20.104c-4.202-10.285-64.396-30.505-77.585-30.284
		c-4.684,0.078-7.977-0.467-11.023,2.866c-8.211,8.794,0.688,51.542-16.744,50.012c-1.699-6.329,4.201-14.928,4.41-23.189
		c0.66-31.321-4.891-31.102-26.265-37.573c-7.729-2.36-10.739-3.477-21.906-5.862c-8.34,1.401-7.495,5.901-8.716,11.258
		c-0.351,4.553-0.688,9.118-1.063,13.657c-1.219,15.447-2.504,30.854-4.941,45.213c-0.506,4.644-1.012,9.26-1.543,13.892
		c-3.645,13.748-5.902,28.649-8.846,42.645c-1.674,7.82-3.853,16.134-5.928,24.201c-1.013,3.762-2.711,6.291-2.814,10.739
		c-0.298,9.118,8.158,13.1,8.158,19.597c-7.471-0.946-14.852-1.23-20.064,4.203c-14.383,14.785-19.351,36.432-24.344,55.848
		c-4.229,16.315-10.52,31.711-16.484,47.274l-13.554,30.192c-2.788,5.799-6.835,10.313-8.508,16.537
		c-1.44,5.317-1.09,13.101,2.049,17.457c9.779,13.657,62.216,13.657,80.737,15.889l38.479,6.563
		c19.195,4.008,37.263,9.43,55.523,15.228c11.608,3.645,37.521,19.026,48.378,16.057c14.109-3.93,23.501-31.335,27.833-43.539
		c5.953-17.043-17.704-25.836-29.896-25.434c-5.682,0.154-13.425,3.424-18.689,4.046c-9.52,1.09-41.594,2.022-43.617-7.781
		c0.077-4.734,2.36-4.177,4.046-4.229c8.535,4.047,13.229,3.319,23.438,3.319c9.058-1.701,18.209-2.862,27.404-3.476
		c2.918-0.183,0.738-1.012,0.688-1.544c-15.277-1.35-25.031,1.972-25.031,0.104c-1.972-1.439-2.841-3.217,1.245-4.708
		c9.728-4.437,14.487-4.008,22.321-3.087c11.607,1.063,15.304,7.729,28.494,5.629c3.139,0.259,9.545-20.973,14.332-17.225
		c4.785,9.352-0.48,18.21-6.811,20.259c-6.16,1.998-7.949,3.139-6.537,5.928c2.413,4.631,9.273,3.035,12.764,2.023
		C1681.336,1347.973,1685.136,1324.005,1677.859,1314.46L1677.859,1314.46z M1468.294,1295.809
		c-3.139,7.395-6.614,19.611-5.577,28.067c1.35,11.556-5.266,7.756-5.266,8.688c-3.646-6.563-8.534-20.621,12.697-54.59
		c0.428-3.165,1.388-5.097,2.05-5.188C1485.842,1271.037,1471.238,1283.773,1468.294,1295.809L1468.294,1295.809z
		 M1512.469,1348.143c-1.711,3.082-5.5,4.34-8.715,2.893c-10.713-15.784-0.234-28.65,8.923-42.309
		c2.101-3.189,2.71-9.753,8.456-10.66c24.694,0.104-4.306,19.714-8.262,29.946
		C1510.368,1334.523,1512.469,1340.672,1512.469,1348.143z M823.904,1249.598c-0.935-9.468-8.924-19.025-18.663-15.227
		c-4.086,2.568-8.171,5.176-12.296,7.729c-7.198,3.735-13.916,7.781-19.715,14.021c-3.617,3.825-5.576,8.48-8.287,12.71
		c-7.159,11.4-1.193,22.14-5.356,25.784h-3.476c-6.266-20.804-1.232-37.548,16.159-47.482c20.727-11.814,13.527-12.114,1.169-5.162
		c-6.914,3.761-11.039,7.938-12.698,5.201c-6.874-11.687-18.845-25.46-6.938-25.46c7.367,15.979,30.66,6.952,45.135,6.952
		c7.12-3.593,13.773-1.388,18.521-9.261c12.724-21.479-2.321-137.116-14.513-154.69c-6.435-9.3-14.423-11.606-26.005-11.971
		l-7.989,5.745c-2.711,4.695-5.421,9.416-8.171,14.099c-6.629,7.886-16.602,14.007-19.352,24.201
		c-2.205,8.056-1.051,16.81-2.426,25.421c-0.506,3.074,0.855,8.897-5.604,7.081c-9.441-2.672-3.839-31.75,5.059-48.351
		c2.996-4.853,6.045-9.701,9.04-14.578c0.688-1.414,2.827-5.538,0.519-5.538c-4.771-2.387-9.377-0.26-14.007,0.688
		c-13.93,2.749-41.192,8.43-44.123,24.915c-2.166,12.01,6.147,30.634,8.858,41.71c6.044,24.771,10.53,50.557,13.1,77.364
		c2.97,31.244,1.271,64.667-2.127,94.86c-1.375,8.003-2.711,16.031-4.086,24.021c-1.699,5.136-3.359,10.284-5.059,15.382
		c-1.337,3.319-2.686,6.691-4.047,10.024c-1.311,1.466-6.835,10.104-8.533,13.709c-2.568,3.398-5.099,6.485-7.666,10.183
		c-1.906,3.087-10.882,22.243-11.166,26.42c-0.688,7.521,1.336,11.374,1.336,17.196h-1.154v1.168
		c-1.984-0.559-4.695,4.733-8.612-2.943c-5.563-12.97,9.3-35.369,14.838-45.316c1.919-3.502,4.708-8.404,4.163-12.97
		c-0.934-7.601-12.151-9.17-17.263-12.918c-5.422-3.982-9.403-10.337-11.349-16.238c-3.904-11.725-6.368-25.382-8.028-38.17
		c-1.439-10.791-4.124-65.264-8.249-69.531c-6.29-6.511-18.119-3.723-26.289-6.652c-4.346-1.597-8.457-2.75-12.88-4.371
		c-3.14-1.154-4.993-2.204-9.649-4.993c-3.111-14.746,19.353,8.21,28.924,3.489c1.854-0.338,3.734-0.623,5.576-0.947
		c5.317-1.115,11.181-5.46,14.215-10.155c3.218-5.07,1.843-12.724,2.451-18.986c1.777-18.858,3.541-37.314,4.487-56.718
		c0.324-7.237,1.231-15.007-0.935-21.725c-1.336-4.099-5.031-7.029-8.896-8.431c-11.828-4.371-26.471,0.608-37.612,2.932
		c-8.392,1.699-18.339,4.993-24.591,10.895c-11.504,10.699-8.469,45.459-5.097,60.181c1.776,6.978,4.085,13.216,6.108,23.501
		c0.143,3.734-12.697-8.417-17.613-1.297c-25.926,44.707-37.534,22.773-24.732,18.041c7.587-6.031,10.777-9.157,15.188-17.458
		c14.344-27.341,27.78-94.691-27.095-79.972c-9.585,2.517-20.973,3.358-28.21,10.401c-3.372,3.229-5.966,8.106-5.355,13.125
		c1.051,9.092,5.538,16.641,8.976,24.708l11.389,30.076l13.021,47.313c3.255,15.137,3.515,40.037,14.099,50.958
		c3.887,4.174,9.429,6.402,15.123,6.083c5.642-0.401,34.797-13.346,34.797-16.563c0.402,0,15.369-17.574,22.063-17.938
		c8.819-0.804-6.835,9.547-21.089,23.179c-23.294,22.347-39.233,14.485-43.877,32.073c-2.451,9.145,3.438,35.59,5.616,44.889
		c11.673,50.128,44.668,98.311,98.66,107.855c12.763,1.699,24.733,0.882,35.85,0.882c9.545-1.543,17.47-1.595,26.613-4.63
		c21.958-13.372,36.977-11.88,37.769-53.176c0.025-2.23-1.349-1.492-1.53-7.601c0-3.45,2.893-2.503,4.279-0.559
		c3.242,5.267,3.904,13.685,9.754,17.146c9.727,5.797,19.999-7.173,25.109-13.527c3.358-3.956,6.73-7.873,10.051-11.854
		c19.455-30.596,26.188-67.688,31.828-105.146C822.828,1275.045,824.968,1260.52,823.904,1249.598L823.904,1249.598z
		 M573.276,1173.104l-4.669-7.445c-1.452-8.365-2.866-16.679-4.307-25.031c-0.143-0.727-0.025-5.032,3.19-6.861
		c1.518,0,3.034-0.4,3.034,1.154c2.543,6.329,0.039,13.931,1.53,20.83c1.115,5.266,2.271,7.018,6.147,13.67
		C582.563,1173.828,576.117,1173.104,573.276,1173.104z M591.784,1288.845c8.677,0-24.812,3.903,11.284-21.103
		c7.78-5.447,10.998-14.033,14.176-22.892c0.324-1.659,1.193-2.788,3.476,0C616.414,1271.595,601.797,1280.311,591.784,1288.845z
		 M736.501,1157.007c8.962-1.842,20.544,22.97,15.006,29.986c-5.032-0.545-6.796-6.797-6.796-11.505
		C738.732,1171.585,733.57,1157.513,736.501,1157.007z M770.093,1402.589c-6.29,1.92-14.578,2.529-19.935-1.621
		c-4.371-3.396-20.104-47.171-19.74-54.214c0.221-4.889,2.529-8.962,4.891-12.762c17.211-21.789,16.019-10.389,4.694,0.35
		c-6.329,5.979-4.384,11.245-3.255,15.682l7.302,18.768c3.229,11.374,3.229,38.831,23.332,30.569
		c2.166-0.907,11.895-5.654,11.895-7.522h2.32C780.041,1398.4,776.137,1400.709,770.093,1402.589z M2033.387,1106.01
		c-0.635-3.904-2.205-7.819-5.551-10.13c-6.861-4.771-15.889-5.278-24.111-7.198c-12.697-2.97-24.979-6.588-38.117-8.456
		c-16.771-2.464-39.674-10.168-57.702-5.9c-12.619,2.932-15.355,18.703-23.438,17.756c-4.682-0.506-7.067-13.787-9.7-16.887
		c-3.19-3.735-6.992-6.551-11.298-7.925c-22.464-7.303-48.844-6.006-72.553-10.492c-0.804-0.183-7.313,0.647-8.132,0.44
		c-4.708,2.141-3.619,2.71-4.967,8.417c-2.181,9.079-1.829,19.026-2.231,28.729c-1.751,17.313-3.45,34.642-5.188,51.97
		c-2.58,15.045-5.188,30.128-7.847,45.173c-2.049,10.233-6.782,21.297-6.782,32.556c0,11.75,1.349,20.726,11.023,27.274
		c2.983,1.699,5.771,1.776,8.741,3.476c0.882,0.767,3.165,3.113,1.854,5.162c-10.363,7.898-27.717-14.085-33.111-4.408
		c-2.71,4.784-5.693,10.998-7.678,15.951c-26.951,97.547-37.522,106.871-35.461,117.584c1.777,9.145,40.584-10.076,51.529-22.956
		c5.577-6.887,15.525,4.683,5.85,7.95c-4.176,3.035-6.303,4.708-8.961,6.719c-10.869,8.133-14.799,12.893-28.067,17.12
		c-1.919,0.661-1.828,0.506-6.058,1.997c-3.189,3.878,1.804,6.277,3.931,6.277c-0.129-0.479,84.2,1.115,65.68,0.558l27.482,0.83
		c28.248,3.774,54.108,10.869,78.83,21.529c6.667,2.919,12.229,6.745,18.649,10.104l20.26,12.23
		c9.468,7.289,21.153,24.475,35.084,19.585c14.408-5.137,44.484-70.673,47.119-86.301c0.854-5.267,0.66-11.271-2.971-14.8
		c-6.484-6.226-38.729-15.252-48.611-15.706c-6.082-0.323-12.112,2.282-17.301,4.009c-1.92,0.608-5.02,2.762-8.08,4.63
		c-5.188,2.555-7.315,4.604-11.582,4.604c-1.854-0.299-4.125-0.299-3.01-4.604c2.075-5.098,9.402-1.621,7.834-15.474
		c-1.271-1.349-3.516-3.034-4.785-4.384c-7.252-2.685-16.266-2.478-24.268-3.723c-11.621-1.828-35.615-8.716-47.223-5.474
		c-20.596,5.654-13.657,17.482-24.526,18.313c-1.881-0.052-4.786-1.141-3.671-3.19c5.552-10.207,12.594-11.827,21.023-35.796
		c2.127-6.135-1.361-14.772,1.362-20.998c2.503-5.552,2.282-10.973,2.023-11.959c-4.15-15.382,9.985-23.916,18.688-23.072
		c7.924,0.609,6.938,4.409,2.788,7.173c-2.309,1.543-6.161,1.219-8.638,3.645c-3.982,3.878-4.592,10.129-3.45,14.694
		c2.049,8.081,8.56,12.62,15.913,15.654c8.846,3.618,20.363,3.164,30.143,4.813c24.771,4.124,48.74,12.308,75.342,12.308
		c5.214-0.984,7.679-5.551,10.492-9.96c5.474-8.741,31.258-63.812,21.711-71.334c-5.771-4.514-51.58-12.32-58.39-8.234
		c-9.118,5.421-13.604,29.401-19.883,19.57c-1.438-6.445,5.927-17.043,3.19-22.464c-4.89-9.585-55.68-6.265-67.105-6.044
		c-2.971,0.039-13.178,0.648-18.094-0.26c-1.972,0.182-3.111-8.353-0.076-9.078c0.583-3.178,12.736-2.426,18.947-4.41
		c8.08-2.672,7.395-46.366,7.926-57.508c0.154-3.397-0.272-10.492,2.97-9.247c2.983,1.479,10.104,25.2,20.284,31.646
		c6.109,3.864,12.841,4.655,20.013,6.537c17.198,4.525,34.021,8.132,52.112,11.543c10.13,1.868,23.229,9.546,34.072,4.149
		c3.592-1.803,7.197-5.538,8.896-9.079c3.516-7.482,4.437-15.99,6.16-24.305c3.01-12.373,6.005-24.746,8.962-37.12
		C2032.559,1115.128,2034.152,1111.081,2033.387,1106.01L2033.387,1106.01z M1850.98,1383.73
		c12.488-2.633,14.939-7.225,22.217-6.613C1873.547,1389.127,1845.104,1390.216,1850.98,1383.73z M1841.732,1391.838
		c7.703-2.452,13.773-1.246,20.647-1.854c15.228-3.164,29.896-9.546,41.854-18.976c2.711-0.934,6.406-1.595,4.992,4.178
		c-1.75,6.743-53.475,32.048-67.08,24.267C1839.904,1398.205,1839.657,1393.395,1841.732,1391.838L1841.732,1391.838z
		 M1780.813,1332.721c-4.356-0.583,2.051-9.014,7.834-19.025c2.336-4.047,6.084-6.484,6.252-16.29
		c0.025-3.112-1.037-7.679,3.879-6.329C1810.605,1294.642,1791.1,1332.721,1780.813,1332.721z M1817.439,1268.002
		c1.115,5.771,0.961,14.695-0.154,20.544c-0.182,8.003-8.51,33.28-14.916,36.173c-5.396,2.387-6.434,0.908,4.099-19.883
		c3.567-10.051,2.659-25.33,0.584-36.276c-3.139-16.212-26.444,1.063-21.31-13.073c2.049-3.061,4.89-0.428,15.123-10.945
		c4.733-5.577,12.787-19.43,17.016-17.186c10.636,3.696-4.046,5.278-5.604,20.945
		C1811.643,1254.371,1817.439,1262.296,1817.439,1268.002L1817.439,1268.002z M1842.083,1201.415
		c-6.938,8.962-18.651,11.933-27.003,19.065c-8.003,6.73-18.521,23.293-27.859,24.914c-3.93,0.584-6.641-0.543-5.681-0.543
		c-1.673-1.013-1.388-2.529,0.351-3.763c3.773-2.063,8.34-2.646,12.062-4.694c6.084-5.682,6.782-13.853,12.918-19.936
		c3.981-2.646,9.571-5.46,13.554-8.104c7.095-5.577,10.921-10.921,18.845-16.136c0.377,0,4.683-0.608,5.072-0.608
		C1850.928,1194.139,1844.365,1198.419,1842.083,1201.415L1842.083,1201.415z M1904.221,1156.903
		c-10.998-4.371-15.576-14.437-16.186-24.307c-0.74-3.541,2.152-4.448,3.826-2.813c3.293,3.178,8.026,16.965,12.787,21.335
		C1910.459,1156.319,1913.066,1159.432,1904.221,1156.903L1904.221,1156.903z M2002.661,1181.571
		c-4.306,2.205-9.599,1.479-12.788-0.376c-3.061-5.89,4.968-5.89,9.469-7.978c9.247-4.124,6.938-21.127,12.672-20.4
		C2018.188,1155.45,2008.965,1178.316,2002.661,1181.571L2002.661,1181.571z M528.492,1502.08l-6.473-10.051
		c-7.562-13.295-17.612-24.617-26.652-37.159c-12.725-17.601-23.684-36.173-36.86-53.396c-4.552-7.847-9.117-15.706-13.709-23.553
		c-8.104-13.229-17.833-25.304-24.046-39.441c-10.414-23.553-16.096-33.786-18.262-35.005c-21.271-0.182-6.977,31.31-21.348,27.029
		c0.285-9.832,4.046-16.109,6.083-24.553c4.085-17.405-1.596-37.469-12.763-48.637c-3.437-3.449-9.299-8.987-14.137-8.987
		c-1.518-1.829-1.193-4.54-0.441-5.436c0.752-0.895,2.97,1.038,5.785-0.323c23.579-11.427,70.776-37.028,81.45-37.028
		c3.477-0.402,6.952-0.767,10.415-1.168c4.877-2.451,10.675-1.335,14.099-6.42c6.445-9.701-7.809-44.538-18.729-44.888
		c-9.701-0.791-26.614,17.393-27.197,5.238c8.274-4.591,12.58-6.691,15.512-10.597c18.702-25.2-8.457-54.615-33.852-56.172
		c-10.453-1.297-19.169,2.75-35.304,11.466c3.398-1.881-87.533,58.312-98.739,82.138c-4.202,8.91-0.078,19.936,4.994,27.158
		c7.444,10.674,20.829,16.822,32.373,20.401c5.966,1.842,16.069,2.359,20.985,6.29c2.101,1.698,1.699,7.043-0.143,8.741
		c-4.306,3.801-21.374,8.871-22.646,3.67c-1.193-4.812-0.143-7.924-3.904-11.191c-9.118-7.38-16.419-12.01-22.321-17.172
		c-8.716-6.979-15.836-18.6-27.742-19.352c-12.257-0.805-32.554,19.065-42.178,26.795c-1.595,1.271-4.41,5.138-6.368,5.138
		c-8.573,8.313-5.862,6.575-17.574,14.682c-16.757,11.504-31.465,28.325-50.712,35.031c-16.601,5.745-29.545,3.268-43.189,5.071
		c-5.058,0.66-8.106,2.71-9.299,8.054c-1.764,7.651,4.306,13.8,8.975,18.793c26.147,27.834,50.673,30.622,89.802,30.622
		c2.711-0.402,6.939-0.584,9.624-0.985c9.61-1.596,12.334-2.659,15.836-3.645c8.353-4.073,16.705-8.186,25.019-12.257
		c17.003-9.884,36.276-25.278,45.978-43.061c-0.662,1.219,5.317-10.973,7.561-10.791c7.951,0.402-7.704,9.468-5.032,33.564
		c0.648,6.355,3.904,11.647,6.615,17.328c5.901,12.489,11.504,25.109,17.431,37.562l21.452,47.677
		c2.309,4.307,11.75,8.897,12.218,10.467c1.375,4.592-2.711,9.936-1.622,15.228c10.999,31.465,21.997,62.929,32.957,94.354
		l11.167,35.537c2.244,8.847,3.904,20.116,10.051,26.951c4.488,4.993,10.415,6.692,17.574,6.692l1.349-0.661
		c19.715-8.21,43.294-22.956,49.324-45.692c1.115-4.254-0.648-9.806-1.336-13.761c-0.946-4.994-12.256-30.271-14.11-34.526
		c-1.842-2.711-3.695-5.412-5.563-8.104c-1.919-3.878-3.826-7.704-5.784-11.582l-12.49-17.433
		c-7.004-7.017-15.538-25.006-42.632-41.879c-5.577-3.449-13.021-5.046-19.493-6.381c-8.469-1.804-5.966-5.746-3.826-6.888
		c13.774,3.32,22.788,0.078,18.223-13.527c-1.518-4.436,0.467-4.732,0.467-4.436c1.271-1.544,2.97-1.519,4.085,3.319
		c0.428,1.063,0.856,2.18,1.271,3.27c10.661,22.489,33.177,39.182,47.158,59.855c8.756,12.942,16.849,26.197,23.189,40.321
		c4.695,10.532,9.728,30.09,19.416,37.548l2.063,1.519c0.622,0.428,1.231,0.907,1.815,1.349c14.293,9.521,35.875,0.688,46.25-9.986
		C528.531,1526.605,533.122,1513.87,528.492,1502.08z M314.595,1224.592c-9.079-0.854-20.622-4.072-20.259-13.294
		c5.746-3.269,5.24,2.775,9.079,3.022C319.264,1215.163,323.246,1221.453,314.595,1224.592z M267.903,1285.952
		c-1.076-2.257,2.75-1.895,6.654-4.786c6.938-5.214,12.152-17.938,12.516-28.066c-2.828-8.896-3.476-10.415,1.479-12.879
		c6.654,2.036,5.421,8.21,5.396,13.631C293.804,1261.206,277.605,1290.751,267.903,1285.952z M295.503,1294.616v4.63
		c-3.009,4.631-5.862,0.766-5.784-1.167c1.945-22.775,19.973-37.106,20.259-29.688
		C307.876,1278.638,295.503,1286.264,295.503,1294.616L295.503,1294.616z M415.862,1166.163
		c-3.477,6.187-14.138,10.493-18.521,19.676c-7.562,1.4-10.246,0.362-8.106-5.785
		C415.317,1152.986,414.786,1163.038,415.862,1166.163z M347.953,1218.419c-3.009,0.907-11.79-0.286-6.148-5.967
		c13.489-2.854,13.995-6.329,24.552-14.759c6.291-8.756,11.867-17.691,18.158-26.473c12.658-14.514,16.64-12.957,17.872-10.854
		c-2.581,6.29-11.322,12.179-16.822,18.261c-8.612,10.052-14.007,20.908-23.319,30.998
		C354.451,1217.951,343.024,1219.171,347.953,1218.419L347.953,1218.419z M377.68,1375.625c-7.704,7.146-7.808,0.662-8.288-0.584
		c0.286-10.025,3.943-8.561,6.005-27.404C380.676,1342.578,379.016,1360.71,377.68,1375.625z M376.486,1322.008
		c-5.966,5.021-7.276,0.806-8.067-0.765v-2.31c1.051-2.334,3.074-4.486,4.63-10.439c2.529-7.043,2.062-14.916,1.595-22.854
		c-0.726-3.32-3.904-11.142-3.904-11.854c-2.646-6.511-0.467-6.16,2.309-5.797C387.407,1268.054,381.544,1306.432,376.486,1322.008z
		 M459.843,1513.364c-2.14-4.229-2.672-9.145-4.306-13.554c-3.32-9.041-8.962-17.757-14.423-25.681l-28.364-36.458
		c-10.96-13.372-22.101-18.495-23.515-34.254c4.164-4.461,5.966,7.173,9.883,10.817c26.433,24.85,48.896,51.853,60.115,86.157
		c1.336,4.072,4.085,8.21,4.085,12.971L459.843,1513.364L459.843,1513.364z M2373.648,1410.254
		c-1.35-15.952-4.604-30.646-11.53-43.669c-4.63-8.663-17.249-31.063-28.392-31.464c-9.779-0.351-17.38,4.098-25.434,7.12
		c-5.021,1.751-8.313,4.356-10.559-0.183c0.272-9.246,28.754-9.856,24.928-28.884c-0.906-4.564-3.396-9.144-7.016-11.932
		c-6.277-4.864-12.763-7.523-19.754-10.921c-16.663-8.083-33.708-15.354-51.074-21.789c-3.516-1.829-7.018-3.593-10.558-5.396
		l-15.888-5.317c-6.537-2.634-34.683-9.377-47.197-21.88c-17.911-17.897,4.356-35.744,22.397-37.146
		c24.554-1.958,48.611,5.746,68.04,15.214c6.666,3.229,25.811,14.63,32.696,14.396c16.42-0.609,41.088-45.199,44.59-58.947
		c1.22-4.916,1.193-10.376-1.243-14.578c-9.884-17.029-59.3-40.284-78.352-44.524c-19.61-4.385-40.077-8.288-60.919-9.586
		c-7.704,1.816-8.562,2.894-11.854,6.214c-7.521,17.185-15.952,40.336-22.488,37.028c-1.544-0.39-3.879,0.468-4.034-2.205v-3.477
		c4.968-4.708,8.586-11.465,8.846-18.561c0.208-7.443-3.825-12.477-10.13-14.643c-27.509-9.507-63.123,18.157-79.997,37.393
		c-10.713,12.113-36.327,50.023-25.681,65.965c2.23,3.371,5.123,5.421,9.222,4.785c6.459-0.946,9.729-0.363,9.936,2.788
		c0.272,4.448-10.945,9.896-13.15,13.125c-2.789,3.956-4.034,8.38-4.786,13.45c-4.604,29.869,22.971,54.771,45.136,67.611
		c6.354,3.67,11.245,9.675,21.282,8.638c25.148-23.151,3.981-37.716-1.543-60.438c-3.009-11.933,3.139-31.192,6.16-33.319
		c2.607-1.439,3.348-0.183,4.708,0.608c1.439,5.916-7.444,14.593-5.446,25.94c1.596,9.545,6.406,15.55,10.311,23.631
		c1.895,4.033,2.479,8.638,3.566,13.177c3.295,14.409-1.438,30.063,4.993,42.657c8.105,15.812,27.742,21.687,42.892,27.691
		c7.951,4.148,15.939,8.364,23.839,12.516c19.104,10.285,37.158,21.957,47.443,42.073c7.834,15.253,13.319,41.089,3.347,57.509
		c-5.5,5.927-10.999,11.854-16.537,17.781c-12.178,19.454-20.012,12.334-19.454,12.229c0-0.766,1.037-4.201,1.037-4.992
		c12.918-7.873,27.794-29.532,27.794-45.137h-1.167c-7.548,8.029-15.147,17.563-24.798,22.141
		c-7.018,3.295-15.278,3.319-23.813,3.619c-34.071,1.036-65.989-12.595-84.354-39.767c-5.215-7.704-7.146-18.442-8.937-27.769
		c-0.985-4.385-0.26-8.741-1.245-13.125c-0.935-1.945-3.189-4.916-5.188-5.422c-7.703-1.945-35.031,10.921-35.29,19.053
		c-0.261,6.913,6.536,12.516,7.729,19.247c-0.661-4.046,7.289,18.846-8.104,18.976c7.34-15.979,1.012-23.203-0.74-26.575
		c-2.205-4.177-4.591-7.925-9.936-7.444c-7.601,0.636-33.188,21.607-38.352,28.392c-8.923,11.529-0.26,48.338,13.605,49.57
		c3.645-1.751,15.653-16.666,19.271-15.228c4.564,1.776-2.179,6.277-2.581,7.418c-4.008,9.469-16.368,17.678-12.62,30.014
		c3.348,10.945,15.682,22.19,25.512,28.195c3.802,1.699,7.602,3.397,11.35,5.098l5.475,4.592c5.291,3.902,11.051,6.783,17.094,9.351
		c17.225,7.315,59.635,13.931,76.432,2.103c7.496-5.318,9.352-15.33,13.203-22.775c0.906-1.828,9.299-12.14,9.299-12.14
		c5.071-2.282,5.188,1.012,6.329,1.012c-1.219,9.624-7.394,13.502-9.805,22.399c-5.136,18.845,22.14,24.046,36.173,24.046
		c2.711-0.376,5.421-0.739,8.105-1.143c7.651-2.102,15.33-4.149,22.97-6.252c12.788-3.448,25.512-9.648,36.834-16.212
		C2344.389,1524.323,2378.629,1470.447,2373.648,1410.254L2373.648,1410.254z M2147.287,1279.571
		c-1.167-0.402-2.334-0.767-3.477-1.167c-5.654-9.676-15.382-19.156-11.607-32.398c9.352-6.108,5.551,22.801,16.238,28.948
		C2153.564,1280.389,2148.493,1280.077,2147.287,1279.571L2147.287,1279.571z M2149.998,1162.363
		c-6.407,5.162-12.711,8.353-18.313,13.67c-4.838,5.992-8.819,12.658-13.684,18.65c-1.297,1.413-2.841,2.426-4.072,4.772
		c-3.904,8.067-4.813,9.546-8.313,12.982c-23.604,21.814-27.963,7.341-22.425,3.397c14.862-2.893,20.246-13.956,23.385-18.547
		c19.402-36.964,29.584-32.152,37.236-38.092C2148.598,1156.073,2152.656,1158.265,2149.998,1162.363L2149.998,1162.363z
		 M2207.467,1502.949c-5.214,6.913-13.396,10.765-19.182,17.808c-4.311,5.005-8.161,10.387-11.505,16.083
		c-4.046,6.938-6.757,14.772-13.735,19.96c-3.8,3.931-3.748-0.855-1.893-2.944c10.92-20.168,21.127-41.295,40.504-55.549
		C2209.802,1497.021,2207.805,1501.095,2207.467,1502.949L2207.467,1502.949z M2262.718,1373.498
		c-7.094-10.233-21.31-10.077-28.676-16.342c1.491,2.788-3.723-3.113,0.208-7.419c5.123-4.124,14.939,5.214,20.674,5.85
		c4.229,0.13,7.872,1.491,12.71,0.376c2.71-1.92,5.421-3.852,8.106-5.798c1.854-2.204,4.408-0.104,4.408,1.894
		c0,6.161-6.004,12.438-5.744,19.987c0.558,18.105,15.276,26.472,21.735,40.789c3.854,8.664,4.656,14.593-2.101,9.17
		c-3.748-3.034-4.15-9.064-6.667-12.892c-5.72-8.561-12.541-15.939-18.47-24.345
		C2266.842,1381.021,2264.768,1377.271,2262.718,1373.498z M2297.373,1473.417c-1.699,2.451-4.863,3.93-6.588,6.382
		c-2.633,0.661-6.459,2.943-4.631-6.938c12.359-7.096,8.871-24.616,10.44-26.627h2.309
		C2305.4,1447.166,2301.498,1465.506,2297.373,1473.417L2297.373,1473.417z M1483.948,1006.479
		c-5.682-10.738-19.052-12.074-29.843-14.422c5.653,1.413-27.082-3.477-48.87-5.396c2.84,0.259-32.165-1.115-48.455,1.23
		c-25.836,3.685-50.997,9.196-74.317,17.95c-9.52,3.541-20.816,5.771-27.807,14.021c-7.82,9.195-9.184,21.894-10.337,34.356
		c-0.324,3.281,1.775,6.551-0.155,12.257c-2.711,1.153-5.059,0.935-6.576-1.013c-2.646-11.037,2.348-38.728,1.557-45.42
		c-0.362-2.866-6.691-3.554-14.254-2.866c-8.171,0.7-14.317,3.735-21.88,5.862c-13.203,3.685-28.896,5.11-43.034,5.812
		l-34.577-2.063c-4.591-0.609-9.728-3.397-15.667-1.361c-10.738,3.618-0.506,20.896-4.268,30.193
		c-6.188,9.974-12.049-10.921-21.595-19.13c0.647,0.57-20.829-20.039-70.814-18.417c-26.978,0.83-163.29,18.417-171.72,33.89
		c-0.221,0.39-0.402,0.83-0.609,1.232c-0.078,0.324-0.143,0.647-0.247,0.934c-1.958,7.963,2.529,17.017,4.371,24.124
		c2.451,9.623,5.201,20.362,6.835,30.09c1.4,8.78,3.035,18.055,3.724,26.55c0.815,10.998,0.063,28.391,6.03,36.625
		c2.387,3.257,4.307,2.142,8.105,1.558c6.368-2.749,7.562-5.784,10.739-9.947c3.969-6.187,7.963-12.334,11.932-18.521
		c0.792-1.142,1.116-1.621,2.789-1.621c0.544,0.363,6.511,11.543-19.286,37.249c-5.785,5.681-12.257,6.005-14.824,14.979
		c-2.022,6.952-0.973,14.396-0.727,21.841l0.104,25.421l1.621,24.346c0.402,23.177-0.791,46.133,0.039,69.438
		c0.428,13.048-0.363,27.134,3.58,38.909c2.736,8.288,8.105,16.473,16.887,19.455c9.869,3.347,38.768,7.095,45.069-3.476
		c3.646-6.214,2.063-16.822,2.205-24.8c0-3.139,1.595-4.94,4.669-2.309c5.356,13.346,7.276,24.772,14.436,27.613
		c4.734,1.894,11.129,1.322,16.822,1.322c6.536-4.409,13.877-5.188,14.683-15.098c1.336-17.094-7.484-26.146-13.27-39.44
		c-3.294-7.522-6.044-16.796-6.874-25.277c-0.865-2.453-1.746-4.9-2.646-7.341c-4.593-20.014-1.558-43.268-6.731-63.008
		l-5.422-13.813c-2.788-4.564-8.677-9.688-8.677-15.408h1.153v-1.153c3.152-0.545,7.276,0.973,8.588-2.244
		c2.774-7.018,0.53-23.008,0.815-31.321c0.609-20.765,14.396-57.431-17.548-58.909c-2.243-0.116-10.96,1.727-13.242-2.14
		c-2.425-4.993,16.744-3.826,16.744-3.763c6.188,1.052,12.373,2.103,18.561,3.113c18.521,1.776,45.68-1.375,58.805-11.427
		c10.376-7.989,8.65-25.498,13.061-36.743c0.221-0.584,4.008-10.311,7.328-7.405c2.103,1.518,1.193,5.784-3.826,12.257
		c-1.375,1.764-0.984,6.899-0.608,12.398c0.428,6.99,3.217,13.994,5.861,19.104c8.055,15.653,30.959,19.855,27.496,41.995
		l-1.737,8.78c-9.586,21.659-37.211,21.88-57.611,26.796c-12.659,3.035-29.729,12.113-37.288,23.371
		c-4.515,6.615-6.005,14.747-6.474,23.438c-2.892,51.763,27.057,93.706,59.648,128.544c14.539,15.55,31.322,33.89,51.425,40.764
		c5.11,1.751,11.543,2.205,13.527,0.052c2.348-5.822-4.241-8.716-4.565-15.02c0.324-3.138-1.076-5.693,3.398-8.43
		c8.171,0.154,6.044,12.334,20.83,12.594c21.659,0.376,48.064-40.583,57.688-56.665c2.672-4.488,4.448-7.341,1.35-13.774
		c-2.31-3.773-21.66-2.127-36.641-9.999c-22.489-11.854-36.342-36.043-62.994-40.375c-9.001-1.492-19.493-0.791-26.225,3.502
		c-8.172,5.213-9.793,7.314-13.022,4.072c5.279-19.936,62.203-27.146,93.643-34.954c30.998-9.792,56.679-33.89,59.973-68.104
		c3.112-32.88-18.119-54.032-37.288-75.771l-10.984-9.728c-16.277-11.713-13.892-13.049-10.752-13.994
		c2.932,0,16.848,9.623,19.169,10.92l23.863,14.539c5.162,3.58,10.676,7.742,15.851,11.297c12.179,6.005,38.442,1.726,48.364-0.869
		c20.024-7.275,15.175,7.925,12.464,25.473c-1.66,10.844-2.595,21.361-3.179,28.923c-0.284,3.787-0.401,7.237,1.699,9.987
		c3.903,5.136,13.164,5.07,19.806,5.07c7.963,2.205-0.856,9.261-4.617,9.261c-5.759,0.934-16.277,1.012-19.015,6.472
		c-6.653,12.983-3.878,31.297-5.615,46.691c-2.556,22.063-4.941,45.07-8.534,67.3c-1.92,11.673-4.591,23.101-4.954,35.771
		c-0.221,5.798-0.545,12.114,3.515,15.914c11.037,10.284,31.737,3.034,41.542,1.466c35.667-10.766,44.499-8.988,63.655-12.736
		c10.363-3.112,16.031-3.515,20.597-8.937c6.329-7.704-2.451-41.36-4.149-54.771c-1.323-10.103-1.673-20.674-4.54-29.766
		c-2.127-6.484-2.438-8.896-6.718-11.452c-2.18-1.311-13.27,0.714-28.442-1.206c-2.309-0.935-1.726-5.201,3.112-5.512
		c3.087,0,6.589,0.168,10.389-0.195c7.898-1.803,16.666-8.066,21.765-18.184c3.241-6.484,3.515-12.567,4.591-20.375
		c-1.895,10.791,3.372-37.781,4.356-72.969c3.671-40.142-3.67-38.74-7.274-44.446c-4.15-9.016-5.021-20.727-13.931-26.938
		c-8.716-6.122-42.865-1.349-45.771-11.037c-0.609-2.075,0.83-4.747,5.524-4.384c14.437,9.403,27.612,1.557,39.391,6.822
		c15.199,6.809,14.798,25.938,29.337,33.968c8.235,4.565,18.262,4.824,28.469,5.784c10.155,0.934,20.144,2.97,30.013,4.771
		c11.959,2.166,23.437,5.863,34.836,9.509c14.487,5.784,17.965,8.923,26.899,7.741c7.445-7.626,14.358-58.155,17.068-80.151
		C1485.868,1020.733,1486.152,1010.63,1483.948,1006.479L1483.948,1006.479z M880.258,1178.523
		c15.148-14.033,15.447-14.318,19.74-25.2c0,0,6.329-8.91,6.044,1.4c-0.285,10.312-8.028,16.057-8.028,16.057l-20.647,16.602
		C877.365,1187.395,865.109,1192.557,880.258,1178.523z M905.433,1390.683c-1.439-10.815,5.46,1.777,11.466-15.628
		c1.737-5.162-4.37-15.175,2.438-15.629C925.471,1372.992,923.693,1390.683,905.433,1390.683z M920.479,1255.278
		c-4.773,4.54-6.407-1.167-5.785-1.167c-1.153-8.379,2.814-35.979-26.069-51.763c-3.294-1.804-8.17-6.108-12.126-6.108
		c-4.202-2.426-1.777-3.942,1.154-4.63C908.947,1195.645,920.479,1225.293,920.479,1255.278z M1018.451,1062.535
		c-7.018,7.237-10.078,23.656-10.805,24.448c-4.877-0.688-3.839-1.519-3.839-7.627c-0.221,0.144,0.104-3.801,21.192-33.163
		c1.698-2.426,2.179-5.396,4.526-9.301c2.022-3.358-1.154-10.53,4.564-10.998C1051.368,1031.33,1024.702,1055.92,1018.451,1062.535z
		 M1128.811,1321.243c0.39-0.156,2.205-0.506,3.101,0.531c1.815,2.074,4.994,2.335,6.874,2.685c4.734,0.856,6.146-0.104,9.001,0.026
		c7.198,0.323,5.24,8.664-0.183,19.247c-1.114,2.205-2.062,7.756-7.224,5.292c-0.7-3.802,7.405-13.826-1.09-18.664
		c-4.812-2.686-8.897-1.647-11.103-2.711C1126.204,1325.834,1126.204,1322.813,1128.811,1321.243L1128.811,1321.243z
		 M1066.311,1350.179c8.533-3.903,13.968,7.924,14.745,15.784c0.363,1.803-0.389,2.918-2.166,3.516
		c-1.905,0.259-1.517-1.647-5.199-6.744c-3.334-4.656-8.794-4.229-9.663-6.381
		C1063.013,1354.015,1064.02,1351.294,1066.311,1350.179L1066.311,1350.179z M988.114,1294.499
		c-2.606-1.466-3.903-1.997-8.754-3.748c-1.337-1.193-1.013-2.412-1.013-4.229c1.4-3.396,4.656-1.725,9.26-2.309
		c10.844-2.309,10.778-3.955,21.984-11.582c4.409-0.181,11.789,0.532,7.057,6.758c-9.768,12.204-8.795,19.754-10.676,25.643
		C995.74,1305.692,998.127,1298.649,988.114,1294.499L988.114,1294.499z M1025.792,1279.571c10.531,1.944-4.63,14.915-5.356,21.128
		c-0.608,4.785-1.336,10.635-0.44,15.81c4.929,11.076,6.005,15.474,4.125,16.083c-2.244,0.805-4.41,0.739-6.083-2.658
		C1005.157,1310.529,1016.285,1287.171,1025.792,1279.571L1025.792,1279.571z M1085.984,1235.604
		c-1.519,3.074-2.996,2.673-6.758,3.074c-8.365,1.452-11.972,2.567-20.934,4.229c-16.757,3.021-32.956,8.857-45.614,20.024
		c2.893-2.45-11.712,12.736-7.521,0.324c8.819-16.314,32.074-19.96,54.213-26.314
		C1061.069,1236.719,1088.76,1224.385,1085.984,1235.604z M1230.026,1331.98c-1.479,2.413-3.762,10.739-7.483,10.739
		c-2.348-1.414-0.078-5.266,0-5.266c4.008-12.97,11.867-24.396,15.369-37.366c2.736-10.531,3.619-19.609,6.9-28.624
		c1.725-1.725,8.416-3.502,6.652,1.167c-1.635,6.511-4.487,17.146-8.027,41.192
		C1242.361,1320.737,1233.658,1325.977,1230.026,1331.98L1230.026,1331.98z M1256.018,1316.003
		c-1.543,3.063-2.957,14.111-7.665,9.961c-0.428-2.685,1.479-10.285,3.763-14.409c0.907-6.912-1.297-19.299,2.489-20.143
		C1263.994,1290.569,1258.729,1306.302,1256.018,1316.003z M1298.494,1100.29c7.977,4.954,12.204,16.497,12.359,26.484
		c-0.025,3.902-0.428,4.799-3.825,4.655c-3.594-0.506-4.462-8.677-6.888-17.067l-3.853-7.458
		C1294.771,1104.816,1293.683,1100.121,1298.494,1100.29z M1288.767,1104.531c19.273,19.271,12.464,53.928-7.341,70.088
		c-8.365,6.693-18.949,4.346-10.285-1.518c36.121-17.25,16.031-57.146,13.502-60.36c-4.177-4.086-6.589-7.925-10.973-10.804
		c-2.958-1.941-3.782-5.914-1.841-8.872c0.192-0.294,0.409-0.571,0.646-0.83C1277.094,1090.135,1283.955,1099.72,1288.767,1104.531z
		"/>
	<path fill="#CC2229" d="M1460.616,929.374l12.646-0.013l-2.971-31.192L1460.616,929.374z M1453.172,953.304l-1.298,4.189
		c8.794,1.154,16.692,2.581,23.125,4.317l1.388,0.48l-0.854-9.001L1453.172,953.304z M852.957,930.348l22.256-0.025l-22.256-43.684
		V930.348z"/>
	<path fill="#CC2229" d="M341.585,815.448l115.703,183.196l440.479,0.546c0,0,147.35-39.351,196.765-3.477
		c2.127-0.545,7.121-5.317,11.712-6.213c6.485-1.349,12.438,0.896,18.339,1.583c13.852,1.518,27.198,2.321,41.698,2.321
		c4.228-0.402,8.495-0.767,12.724-1.154c3.579-1.452,8.495-1.167,12.723-1.167c2.712-0.39,5.436-0.766,8.106-1.167
		c2.711-0.39,5.421-0.753,8.093-1.154c7.03-4.332,18.625-6.86,27.742-6.73c5.539,0.077,10.7,1.814,16.122,0.545l45.68-14.684
		c-18.417-3.202-32.477-17.755-33.54-35.522h-0.104V844.02h29.843v88.352c0.882,4.94,5.525,8.729,11.167,8.729
		c6.277,0,11.375-4.683,11.375-10.439l0.259-86.639h29.87v88.351h-0.13c-0.636,10.804-6.135,20.401-14.437,27.003
		c14.496-2.308,29.11-3.797,43.772-4.462l2.413-84.796h-21.504v-26.096h79.31v26.096h-26.173l-2.373,84.329
		c5.021,0.078,9.936,0.232,14.772,0.454l34.422-110.893h39.946l12.14,127.766h-8.871c2.412,1.427,4.813,2.854,7.226,4.255
		c3.877,1.05,8.079,0.063,12.358,0.143c5.021,0.492,10,1.012,14.994,1.519c12.71,3.396,25.459,6.796,38.194,10.154
		c3.931,1.153,7.873,2.36,11.776,3.516c8.028,1.089,15.408-3.334,24.085-2.023l32.632,9.183l490.491-0.647l111.357-182.108
		L341.585,815.448L341.585,815.448z M477.663,971.785l-59.259-101.67h-22.281l-16.861-26.096h95.691l16.848,26.096h-34.798
		l57.079,101.67H477.663z M554.172,971.785L490.166,844.02h78.506l12.283,26.096h-42.749l10.778,21.751h38.728l9.56,22.84h-36.978
		l15.901,32.074h40.322l12.281,25.006L554.172,971.785L554.172,971.785z M644.092,971.785L587.037,844.02h78.208l10.854,26.096
		h-42.578l9.598,21.751h38.57l8.328,22.84h-36.834l14.161,32.074h40.168l10.921,25.006L644.092,971.785L644.092,971.785z
		 M790.818,971.813l-3.489-4.502l-0.337,0.104l-0.246-0.844l-48.559-62.645l24.668,67.976l-31.957-0.104l-46.213-127.376
		l41.166-0.401l42.088,54.291l-14.838-53.837l29,0.024l35.642,127.272L790.818,971.813L790.818,971.813z M896.354,971.813
		l-9.7-19.04l-33.695,0.025v18.976h-29.092V844.008h40.023l64.914,127.766L896.354,971.813L896.354,971.813z M947.078,964.847
		c-33.008-22.97-45.396-64.161-27.47-94.329c5.2-8.729,25.03-32.917,61.825-21.658l9.638,30.712
		c-27.366-15.9-40.024,1.726-43.307,7.743c-9.43,17.365-2.904,41.088,14.462,54.305c7.601,4.63,15.692,6.848,23.189,6.77
		l-8.924-38.792l29.662,0.52l13.773,59.804C1019.903,969.905,972.408,978.971,947.078,964.847L947.078,964.847z M1033.262,971.785
		l-22.593-127.766h75.575l3.852,26.096h-41.152l3.723,21.751h37.275l2.229,22.84h-35.589l5.512,32.074h38.818l4.188,25.006
		L1033.262,971.785L1033.262,971.785z M1245.668,971.785h-32.074v-54.927l-23.1,54.927l-23.799-54.927v54.927h-32.088V844.021
		l34.616,0.063l21.646,53.462l20.621-53.5l34.149-0.025v127.765L1245.668,971.785L1245.668,971.785z M1594.594,971.785l-26.926-0.22
		l-18.793-53.747l-5.927,53.953h-29.104l14.061-127.765l30.984-0.064l19.584,55.951l8.379-55.887l27.002-0.182L1594.594,971.785
		L1594.594,971.785z M1695.109,870.115H1670l-18.21,102.267l-30.167-0.907l18.041-101.358h-20.623l3.932-26.095h76.066
		L1695.109,870.115z M1760.464,971.578l-11.933-53.747l-14.268,53.954h-30.775l33.746-127.766l32.801-0.063l12.412,55.951
		l17.146-55.888l28.572-0.182l-39.26,127.947L1760.464,971.578L1760.464,971.578z M1805.054,971.785l38.702-127.766h29.688
		l-38.7,127.766H1805.054z M1912.664,971.785l-7.6-58.026l-19.326,58.026h-32.657l42.554-127.766h30.143l9.117,60.737l20.143-60.737
		h32.503l-42.359,127.766H1912.664z M1957.773,956.131l13.293-29.39c15.473,31.867,32.502,5.267,32.502,5.267l39.896-88h33.41
		l-48.261,105.366c0,0-3.14,4.5-5.267,6.757C1992.13,989.541,1957.773,956.131,1957.773,956.131z M2127.871,971.785l-30.646,0.39
		l6.107-20.052h-31.97l-15.175,19.662h-32.826l98.621-127.777h44.682L2127.871,971.785z"/>
	<path fill="#CC2229" d="M2109.714,931.087l14.345-47.236l-36.457,47.236H2109.714z"/>
	<path fill="#FFFFFF" d="M2460.273,1186.267c-1.635-3.72-3.923-7.115-6.758-10.024c-3.085-3.112-6.705-5.645-10.688-7.471
		c-4.448-2.043-9.294-3.075-14.188-3.022c-5.266,0-10.337,1.168-15.071,3.463c-7.5,3.586-13.442,9.776-16.718,17.419
		c-1.899,4.319-2.868,8.99-2.841,13.709c0,5.253,1.167,10.323,3.477,15.07c8.3,17.143,28.908,24.331,46.068,16.069
		c3.594-1.712,6.938-4.125,9.961-7.159c3.108-3.159,5.557-6.907,7.198-11.023c1.673-4.177,2.529-8.562,2.529-12.996
		C2463.244,1195.501,2462.232,1190.78,2460.273,1186.267L2460.273,1186.267z M2447.083,1200.313c0,1.675-0.259,3.296-0.687,4.902
		c-0.358-1.066-0.871-2.075-1.519-2.996c0.863-1.09,1.538-2.316,1.997-3.631C2446.928,1199.158,2447.084,1199.703,2447.083,1200.313
		L2447.083,1200.313z M2410.404,1201.999c-0.053-0.558-0.207-1.103-0.207-1.687c0-0.844,0.129-1.582,0.232-2.36L2410.404,1201.999z"
		/>
	<path d="M2437.46,1178.29c2.894,1.167,5.369,2.788,7.471,4.864c2.102,2.088,3.748,4.37,4.941,6.859
		c3.35,7.066,3.05,15.321-0.804,22.127c-2.076,3.787-4.994,6.719-8.742,8.819c-3.723,2.101-7.626,3.151-11.674,3.151
		c-4.045,0-7.949-1.052-11.673-3.151c-3.722-2.103-6.641-5.032-8.741-8.819c-3.768-6.573-4.182-14.55-1.114-21.479
		c1.36-2.905,3.061-5.356,5.097-7.366c2.037-2.011,4.254-3.554,6.641-4.631c3.076-1.412,6.42-2.146,9.806-2.152
		C2431.648,1176.526,2434.594,1177.123,2437.46,1178.29L2437.46,1178.29z M2455.539,1188.29c-1.373-3.146-3.313-6.011-5.719-8.456
		c-2.504-2.568-5.551-4.695-9.17-6.395c-3.619-1.7-7.626-2.543-12.01-2.543c-4.441-0.016-8.826,0.992-12.814,2.944
		c-3.021,1.461-5.779,3.416-8.158,5.784c-8.75,8.89-10.972,22.318-5.551,33.553c1.388,2.918,3.32,5.616,5.771,8.106
		c2.478,2.489,5.524,4.514,9.117,6.096c3.594,1.596,7.444,2.373,11.582,2.373c4.514,0,8.741-0.959,12.736-2.892
		c3.177-1.555,6.063-3.644,8.534-6.174c5.264-5.485,8.213-12.786,8.235-20.39C2458.095,1196.201,2457.239,1192.207,2455.539,1188.29
		L2455.539,1188.29z M2425.242,1205.617c2.412,0,4.047,0.182,4.968,0.558s1.595,0.999,2.022,1.854
		c0.323,0.623,0.559,2.011,0.662,4.138c0.077,2.14,0.271,3.619,0.558,4.449h9.3c-0.172-0.414-0.297-0.846-0.377-1.284
		c-0.065-0.751-0.102-1.504-0.104-2.257c0.01-2.108-0.247-4.208-0.767-6.252c-0.401-1.271-1.219-2.373-2.477-3.333
		c-1.259-0.96-2.711-1.543-4.41-1.713c2.659-0.232,4.656-1.051,5.979-2.45c1.392-1.544,2.109-3.579,1.996-5.655
		c0-2.97-0.984-5.317-3.009-7.042c-1.997-1.726-5.316-2.595-9.987-2.595h-14.007l-0.077,32.594h9.728L2425.242,1205.617
		L2425.242,1205.617z M2427.175,1190.547c2.127,0,3.618,0.35,4.487,1.051c0.847,0.723,1.314,1.793,1.271,2.904
		c0,1.453-0.429,2.568-1.323,3.348c-0.896,0.777-2.438,1.166-4.656,1.166h-1.698v-8.469H2427.175L2427.175,1190.547z"/>
</g>
</svg>
