<?xml version="1.0" encoding="utf-8"?>
<!-- Generator: Adobe Illustrator 16.0.0, SVG Export Plug-In . SVG Version: 6.00 Build 0)  -->
<!DOCTYPE svg PUBLIC "-//W3C//DTD SVG 1.1//EN" "http://www.w3.org/Graphics/SVG/1.1/DTD/svg11.dtd">
<svg version="1.1" id="Layer_1" xmlns="http://www.w3.org/2000/svg" xmlns:xlink="http://www.w3.org/1999/xlink" x="0px" y="0px"
	 width="396px" height="120.104px" viewBox="-11.084 0 396 120.104" enable-background="new -11.084 0 396 120.104"
	 xml:space="preserve">
<g id="Layer_10">
</g>
<g id="Layer_9">
	<circle cx="114.279" cy="10.335" r="10"/>
	<circle cx="139.612" cy="10" r="10"/>
</g>
<g id="Layer_2">
</g>
<g id="Layer_1_1_">
</g>
<g id="Layer_3">
	<g>
		<g>
			<path fill="none" d="M126.419,29.906c-55.287,0-55.475,85.041-0.353,85.041C181.106,114.948,181.92,29.906,126.419,29.906"/>
			<path d="M126.419,24.906c-16.061,0.161-30.552,7.195-39.236,20.914c-7.67,12.116-9.111,27.838-5.282,41.479
				c4.06,14.461,14.838,25.804,29.094,30.463c15.53,5.076,33.615,1.679,46.006-8.884c14.374-12.252,18.58-33.677,13.679-51.324
				C165.053,37.291,147.043,25.113,126.419,24.906c-6.451-0.065-6.445,9.935,0,10c14.639,0.146,27.712,7.472,33.298,21.396
				c5.004,12.474,3.672,27.057-3.529,38.379c-8.21,12.908-24.446,17.367-38.892,14.402c-14.073-2.89-23.502-13.993-26.563-27.657
				c-2.375-10.605-0.264-22.11,5.525-31.254c6.572-10.381,18.226-15.146,30.161-15.266
				C132.864,34.841,132.871,24.841,126.419,24.906L126.419,24.906z"/>
		</g>
	</g>
	<g>
		<g>
			<path fill="none" d="M178.397,29.906c48.716,110.468,51.349,116.265,104.041,0"/>
			<path d="M174.08,32.43c9.586,21.736,18.656,43.999,30.382,64.701c5.24,9.255,12.593,21.893,24.465,22.801
				c11.568,0.885,20.021-12.921,25.148-21.195c12.939-20.876,22.563-43.994,32.68-66.306c2.643-5.825-5.975-10.913-8.635-5.047
				c-9.592,21.154-18.926,42.655-30.574,62.786c-3.168,5.476-6.565,10.959-10.973,15.536c-1.543,1.604-2.546,2.424-4.269,3.411
				c-1.201,0.688-2.065,0.856-3.38,0.814c-0.582-0.051-0.555-0.041,0.08,0.027c-0.424-0.069-0.836-0.193-1.248-0.316
				c-0.164-0.049-0.752-0.289-1.727-0.876c-1.605-0.966-2.992-2.424-4.533-4.151c-4.226-4.744-7.358-10.552-10.383-16.097
				c-10.744-19.703-19.355-40.625-28.401-61.135C180.117,21.493,171.503,26.587,174.08,32.43L174.08,32.43z"/>
		</g>
	</g>
</g>
<g id="Layer_4">
</g>
<g id="Layer_5">
</g>
<g id="Layer_6">
	<g>
		<g>
			<path fill="none" d="M332.958,87.255c57.147-12.938,36.66-53.914,3.233-57.148c-33.427-3.233-51.756,33.428-40.974,59.306
				c10.781,25.879,32.349,26.958,51.756,24.801"/>
			<path d="M334.289,92.076c16.119-3.771,37.564-12.267,39.428-31.427c1.371-14.087-9.762-25.94-21.77-31.406
				c-17.438-7.938-37.938-4.605-51.258,9.353c-13.145,13.773-17.355,35.85-9.787,53.338c4.762,10.999,12.667,20.207,24.025,24.604
				c10.207,3.952,21.322,3.826,32.048,2.674c6.342-0.682,6.407-10.688,0-10c-9.54,1.024-19.151,1.334-28.321-1.903
				c-10.214-3.604-17.066-13.444-20.092-23.452c-5.277-17.456,3.682-39.335,20.828-46.487c13.844-5.774,32.803-1.287,41.322,11.511
				c9.107,13.679-4.027,24.854-16.166,29.692c-4.18,1.664-8.545,2.838-12.918,3.861C325.351,83.902,328.014,93.544,334.289,92.076
				L334.289,92.076z"/>
		</g>
	</g>
</g>
<g id="Layer_7">
</g>
<g id="Layer_8">
	<g>
		<g>
			<path fill="none" d="M10.822,29.224c-19.854,55.69,12.757,96.622,61.59,83.698"/>
			<path d="M6,27.895c-8.2,23.498-9.661,51.774,6.323,72.444c14.666,18.965,39.169,23.091,61.417,17.404
				c6.244-1.597,3.594-11.24-2.658-9.644c-18.687,4.776-39.448,1.689-51.529-14.664C6.14,75.279,8.629,50.654,15.643,30.553
				C17.773,24.448,8.111,21.847,6,27.895L6,27.895z"/>
		</g>
	</g>
	<g>
		<path d="M364.519,100.526c5.072,0,9.115,4.124,9.115,9.28c0,5.238-4.043,9.32-9.156,9.32c-5.072,0-9.197-4.082-9.197-9.32
			c0-5.156,4.125-9.28,9.197-9.28H364.519z M364.478,101.969c-4.083,0-7.424,3.506-7.424,7.837c0,4.412,3.341,7.877,7.465,7.877
			c4.125,0.041,7.424-3.465,7.424-7.836c0-4.372-3.299-7.878-7.424-7.878H364.478z M362.746,115.208h-1.648v-10.353
			c0.865-0.124,1.689-0.248,2.928-0.248c1.566,0,2.6,0.33,3.219,0.783c0.617,0.454,0.947,1.155,0.947,2.146
			c0,1.359-0.906,2.186-2.021,2.516v0.083c0.908,0.164,1.525,0.989,1.731,2.516c0.248,1.608,0.495,2.228,0.66,2.558h-1.731
			c-0.248-0.33-0.494-1.278-0.701-2.64c-0.248-1.319-0.907-1.814-2.228-1.814h-1.155V115.208L362.746,115.208z M362.746,109.476
			h1.196c1.36,0,2.517-0.495,2.517-1.772c0-0.908-0.66-1.814-2.517-1.814c-0.536,0-0.907,0.041-1.196,0.082V109.476z"/>
	</g>
</g>
<g id="Layer_11">
</g>
</svg>
