<?xml version="1.0" encoding="utf-8"?>
<!-- Generator: Adobe Illustrator 16.0.0, SVG Export Plug-In . SVG Version: 6.00 Build 0)  -->
<!DOCTYPE svg PUBLIC "-//W3C//DTD SVG 1.1//EN" "http://www.w3.org/Graphics/SVG/1.1/DTD/svg11.dtd">
<svg version="1.1" id="TEXT" xmlns="http://www.w3.org/2000/svg" xmlns:xlink="http://www.w3.org/1999/xlink" x="0px" y="0px"
	 width="616px" height="186.787px" viewBox="-25.402 0 616 186.787" enable-background="new -25.402 0 616 186.787"
	 xml:space="preserve">
<linearGradient id="SVGID_1_" gradientUnits="userSpaceOnUse" x1="-1313.8716" y1="-1169.0278" x2="-1860.23" y2="-1169.0278" gradientTransform="matrix(1 0 0 -1 1871.8203 -1088.8428)">
	<stop  offset="0" style="stop-color:#013A67"/>
	<stop  offset="1" style="stop-color:#6CD1FF"/>
</linearGradient>
<polygon fill="url(#SVGID_1_)" points="491.191,27.662 536.777,27.946 557.949,5.927 479.951,5.642 406.662,79.217 396.4,79.785 
	396.685,9.001 355.48,51.055 345.625,52.224 345.625,9.374 261.264,92.841 250.775,93.958 251.667,8.077 177.937,82.94 
	168.255,82.987 167.12,11.089 127.342,51.15 116.278,51.717 116.697,8.939 11.591,114.896 46.209,114.328 91.598,70.276 
	100.303,70.276 99.883,114.541 136.035,77.543 144.679,77.543 144.679,115.229 104.892,154.729 143.019,154.166 218.036,78.299 
	228.14,78.299 228.14,115.569 274.897,115.854 320.115,70.353 328.843,69.786 328.708,112.798 364.839,76.667 373.375,76.667 
	373.941,113.103 373.203,114.998 482.378,114.998 503.279,93.815 435.398,92.662 434.781,82.809 445.357,71.67 470.968,71.667 
	493.216,49.133 479.77,48.565 479.77,39.082 "/>
<linearGradient id="SVGID_2_" gradientUnits="userSpaceOnUse" x1="-1807.2905" y1="-1152.2231" x2="-1811.236" y2="-1148.2781" gradientTransform="matrix(1 0 0 -1 1871.8203 -1088.8428)">
	<stop  offset="0" style="stop-color:#08406F"/>
	<stop  offset="1" style="stop-color:#60C5F5"/>
</linearGradient>
<path fill="url(#SVGID_2_)" d="M114.692,13.213L13.577,114.328l-11.471,4.313c0,0-0.604,0.039-0.271-0.445
	c0,0,117.26-117.292,117.472-117.471c0.212-0.181,0.467-0.028,0.467-0.028L114.692,13.213z"/>
<linearGradient id="SVGID_3_" gradientUnits="userSpaceOnUse" x1="-1748.7041" y1="-1227.3408" x2="-1752.3293" y2="-1223.7156" gradientTransform="matrix(1 0 0 -1 1871.8203 -1088.8428)">
	<stop  offset="0" style="stop-color:#08406F"/>
	<stop  offset="1" style="stop-color:#60C5F5"/>
</linearGradient>
<path fill="url(#SVGID_3_)" d="M145.814,115.796l-37.518,37.521l-11.065,4.457c0,0-0.576,0.063-0.236-0.406l43.929-43.75
	L145.814,115.796z"/>
<linearGradient id="SVGID_4_" gradientUnits="userSpaceOnUse" x1="-1846.2769" y1="-1207.4839" x2="-1846.2769" y2="-1203.1704" gradientTransform="matrix(1 0 0 -1 1871.8203 -1088.8428)">
	<stop  offset="0" style="stop-color:#08406F"/>
	<stop  offset="1" style="stop-color:#60C5F5"/>
</linearGradient>
<polygon fill="url(#SVGID_4_)" points="48.982,118.642 2.106,118.642 13.603,114.328 46.209,114.328 "/>
<linearGradient id="SVGID_5_" gradientUnits="userSpaceOnUse" x1="-1750.8149" y1="-1246.6128" x2="-1750.8149" y2="-1242.1558" gradientTransform="matrix(1 0 0 -1 1871.8203 -1088.8428)">
	<stop  offset="0" style="stop-color:#08406F"/>
	<stop  offset="1" style="stop-color:#60C5F5"/>
</linearGradient>
<polygon fill="url(#SVGID_5_)" points="144.781,157.771 97.23,157.771 108.296,153.313 142.168,153.313 "/>
<linearGradient id="SVGID_6_" gradientUnits="userSpaceOnUse" x1="-1444.3057" y1="-1207.4546" x2="-1444.3057" y2="-1202.9878" gradientTransform="matrix(1 0 0 -1 1871.8203 -1088.8428)">
	<stop  offset="0" style="stop-color:#08406F"/>
	<stop  offset="1" style="stop-color:#60C5F5"/>
</linearGradient>
<polygon fill="url(#SVGID_6_)" points="484.787,118.612 370.242,118.583 374.052,114.147 481.529,114.146 "/>
<linearGradient id="SVGID_7_" gradientUnits="userSpaceOnUse" x1="-1620.9365" y1="-1208.3257" x2="-1620.9365" y2="-1203.8481" gradientTransform="matrix(1 0 0 -1 1871.8203 -1088.8428)">
	<stop  offset="0" style="stop-color:#08406F"/>
	<stop  offset="1" style="stop-color:#60C5F5"/>
</linearGradient>
<path fill="url(#SVGID_7_)" d="M277.053,119.483l-51.527-0.028c-0.333,0.006-0.81-0.334-0.81-0.334l4.561-4.115h45.054
	L277.053,119.483z"/>
<linearGradient id="SVGID_8_" gradientUnits="userSpaceOnUse" x1="-1349.7197" y1="-1095.6187" x2="-1349.7197" y2="-1090.7559" gradientTransform="matrix(1 0 0 -1 1871.8203 -1088.8428)">
	<stop  offset="0" style="stop-color:#08406F"/>
	<stop  offset="1" style="stop-color:#60C5F5"/>
</linearGradient>
<path fill="url(#SVGID_8_)" d="M477.382,1.913h88.652c0.785,0,0.785,0.313,0.785,0.313l-10.572,4.55h-75.164L477.382,1.913z"/>
<linearGradient id="SVGID_9_" gradientUnits="userSpaceOnUse" x1="-1356.9868" y1="-1120.147" x2="-1356.9868" y2="-1115.9365" gradientTransform="matrix(1 0 0 -1 1871.8203 -1088.8428)">
	<stop  offset="0" style="stop-color:#08406F"/>
	<stop  offset="1" style="stop-color:#60C5F5"/>
</linearGradient>
<polygon fill="url(#SVGID_9_)" points="539.042,31.304 492.697,31.304 490.625,27.094 535.927,27.094 "/>
<linearGradient id="SVGID_10_" gradientUnits="userSpaceOnUse" x1="-1412.6304" y1="-1163.6626" x2="-1412.6304" y2="-1159.9429" gradientTransform="matrix(1 0 0 -1 1871.8203 -1088.8428)">
	<stop  offset="0" style="stop-color:#08406F"/>
	<stop  offset="1" style="stop-color:#60C5F5"/>
</linearGradient>
<polygon fill="url(#SVGID_10_)" points="473.589,74.82 448.91,74.82 444.791,71.102 470.402,71.1 "/>
<linearGradient id="SVGID_11_" gradientUnits="userSpaceOnUse" x1="-1381.8389" y1="-1138.543" x2="-1381.8389" y2="-1132.9883" gradientTransform="matrix(1 0 0 -1 1871.8203 -1088.8428)">
	<stop  offset="0" style="stop-color:#08406F"/>
	<stop  offset="1" style="stop-color:#60C5F5"/>
</linearGradient>
<path fill="url(#SVGID_11_)" d="M491.8,49.7h-13.58l-1.192-5.548h25.467c0.346-0.043,0.441,0.146,0.441,0.146L491.8,49.7z"/>
<linearGradient id="SVGID_12_" gradientUnits="userSpaceOnUse" x1="-1797.6089" y1="-1182.2578" x2="-1801.152" y2="-1178.7146" gradientTransform="matrix(1 0 0 -1 1871.8203 -1088.8428)">
	<stop  offset="0" style="stop-color:#08406F"/>
	<stop  offset="1" style="stop-color:#60C5F5"/>
</linearGradient>
<path fill="url(#SVGID_12_)" d="M96.872,70.634l-47.89,48.01l-2.773-4.313L92.81,67.965c2-2.313,4.675-1.731,4.675-1.731
	L96.872,70.634z"/>
<linearGradient id="SVGID_13_" gradientUnits="userSpaceOnUse" x1="-1751.7446" y1="-1117.8008" x2="-1757.1108" y2="-1117.8008" gradientTransform="matrix(1 0 0 -1 1871.8203 -1088.8428)">
	<stop  offset="0" style="stop-color:#08406F"/>
	<stop  offset="1" style="stop-color:#60C5F5"/>
</linearGradient>
<path fill="url(#SVGID_13_)" d="M114.71,51.669V13.193l5.063-12.499c0,0,0.303,0.075,0.303,0.571c0,0.493,0,53.647,0,53.647
	l-0.315,2.311C119.761,57.224,115.265,57.248,114.71,51.669z"/>
<linearGradient id="SVGID_14_" gradientUnits="userSpaceOnUse" x1="-1698.9189" y1="-1133.3911" x2="-1705.5791" y2="-1133.3911" gradientTransform="matrix(1 0 0 -1 1871.8203 -1088.8428)">
	<stop  offset="0" style="stop-color:#08406F"/>
	<stop  offset="1" style="stop-color:#60C5F5"/>
</linearGradient>
<path fill="url(#SVGID_14_)" d="M172.902,88.843c0,0-6.539,1.949-6.621-5.625c-0.08-7.313-0.013-69.292-0.013-69.292l5.214-13.896
	c0,0,0.182-0.027,0.182,0.725l-0.017,81.792L172.902,88.843z"/>
<linearGradient id="SVGID_15_" gradientUnits="userSpaceOnUse" x1="-1616.0117" y1="-1138.6479" x2="-1622.0049" y2="-1138.6479" gradientTransform="matrix(1 0 0 -1 1871.8203 -1088.8428)">
	<stop  offset="0" style="stop-color:#08406F"/>
	<stop  offset="1" style="stop-color:#60C5F5"/>
</linearGradient>
<path fill="url(#SVGID_15_)" d="M255.809,98.91c0,0-5.889,0.577-5.96-6.088l-0.033-80.063l4.651-12.071c0,0,0.583,0.153,0.583,0.907
	l-0.016,91.14L255.809,98.91z"/>
<linearGradient id="SVGID_16_" gradientUnits="userSpaceOnUse" x1="-1522.7231" y1="-1118.0562" x2="-1528.4243" y2="-1118.0562" gradientTransform="matrix(1 0 0 -1 1871.8203 -1088.8428)">
	<stop  offset="0" style="stop-color:#08406F"/>
	<stop  offset="1" style="stop-color:#60C5F5"/>
</linearGradient>
<path fill="url(#SVGID_16_)" d="M349.098,57.425c0,0-4.869,0.452-5.701-4.563V13.139l4.393-12.147c0,0,0.563,0.134,0.563,0.886
	v49.667L349.098,57.425z"/>
<linearGradient id="SVGID_17_" gradientUnits="userSpaceOnUse" x1="-1471.0396" y1="-1131.8774" x2="-1476.8364" y2="-1131.8774" gradientTransform="matrix(1 0 0 -1 1871.8203 -1088.8428)">
	<stop  offset="0" style="stop-color:#08406F"/>
	<stop  offset="1" style="stop-color:#60C5F5"/>
</linearGradient>
<path fill="url(#SVGID_17_)" d="M400.781,85.333c0,0-4.938,0.643-5.797-4.373V13.254l4.85-12.544c0,0,0.268,0.221,0.268,1.708
	v77.226L400.781,85.333z"/>
<linearGradient id="SVGID_18_" gradientUnits="userSpaceOnUse" x1="-1770.2349" y1="-1182.3696" x2="-1775.3457" y2="-1182.3696" gradientTransform="matrix(1 0 0 -1 1871.8203 -1088.8428)">
	<stop  offset="0" style="stop-color:#08406F"/>
	<stop  offset="1" style="stop-color:#60C5F5"/>
</linearGradient>
<path fill="url(#SVGID_18_)" d="M97.759,120.819c0,0-0.833-0.067-0.809-1.147c-0.001-0.918-0.078-49.037-0.078-49.037
	s-1.218-1.577,0.613-4.4c0.547,0.131,3.495,0.727,4.101,4.256v40.369L97.759,120.819z"/>
<linearGradient id="SVGID_19_" gradientUnits="userSpaceOnUse" x1="-1750.751" y1="-1187.269" x2="-1754.3042" y2="-1183.7159" gradientTransform="matrix(1 0 0 -1 1871.8203 -1088.8428)">
	<stop  offset="0" style="stop-color:#08406F"/>
	<stop  offset="1" style="stop-color:#60C5F5"/>
</linearGradient>
<path fill="url(#SVGID_19_)" d="M140.843,78.598c0,0-41.489,41.547-41.883,41.938c-0.346,0.379-1.202,0.281-1.202,0.281l3.827-9.963
	l36.059-36.088c0,0,1.34-1.727,3.831-1.637L140.843,78.598z"/>
<linearGradient id="SVGID_20_" gradientUnits="userSpaceOnUse" x1="-1318.5635" y1="-1105.9316" x2="-1322.2322" y2="-1102.2628" gradientTransform="matrix(1 0 0 -1 1871.8203 -1088.8428)">
	<stop  offset="0" style="stop-color:#08406F"/>
	<stop  offset="1" style="stop-color:#60C5F5"/>
</linearGradient>
<path fill="url(#SVGID_20_)" d="M566.609,3.639l-27.566,27.665l-3.115-4.211L556.24,6.769l10.582-4.542
	C566.822,2.228,567.171,3.074,566.609,3.639z"/>
<linearGradient id="SVGID_21_" gradientUnits="userSpaceOnUse" x1="-1726.0059" y1="-1183.3096" x2="-1731.4043" y2="-1183.3096" gradientTransform="matrix(1 0 0 -1 1871.8203 -1088.8428)">
	<stop  offset="0" style="stop-color:#08406F"/>
	<stop  offset="1" style="stop-color:#60C5F5"/>
</linearGradient>
<path fill="url(#SVGID_21_)" d="M140.924,113.617l-0.079-35.026c0,0-1.301-2.633,0.631-5.456c0.593-0.007,3.7,0.421,4.339,4.146
	l-0.001,38.519L140.924,113.617z"/>
<linearGradient id="SVGID_22_" gradientUnits="userSpaceOnUse" x1="-1723.2227" y1="-1120.4424" x2="-1727.7108" y2="-1115.9542" gradientTransform="matrix(1 0 0 -1 1871.8203 -1088.8428)">
	<stop  offset="0" style="stop-color:#08406F"/>
	<stop  offset="1" style="stop-color:#60C5F5"/>
</linearGradient>
<path fill="url(#SVGID_22_)" d="M166.269,13.926l-41.462,41.463c-1.987,1.986-5.045,1.836-5.045,1.836
	c-1.795-3.531,0.315-6.065,0.315-6.065S170.58,0.67,170.944,0.29c0.331-0.417,0.541-0.264,0.541-0.264L166.269,13.926z"/>
<linearGradient id="SVGID_23_" gradientUnits="userSpaceOnUse" x1="-1656.1523" y1="-1135.7534" x2="-1660.3113" y2="-1131.5946" gradientTransform="matrix(1 0 0 -1 1871.8203 -1088.8428)">
	<stop  offset="0" style="stop-color:#08406F"/>
	<stop  offset="1" style="stop-color:#60C5F5"/>
</linearGradient>
<path fill="url(#SVGID_23_)" d="M249.815,12.762l-74.376,74.375c-1.55,1.551-2.537,1.702-2.537,1.702
	c-3.781-1.877-1.213-6.254-1.213-6.254S252.341,1.95,252.705,1.57c0.943-1.093,1.761-0.883,1.761-0.883L249.815,12.762z"/>
<linearGradient id="SVGID_24_" gradientUnits="userSpaceOnUse" x1="-1567.6855" y1="-1141.2427" x2="-1572.069" y2="-1136.8591" gradientTransform="matrix(1 0 0 -1 1871.8203 -1088.8428)">
	<stop  offset="0" style="stop-color:#08406F"/>
	<stop  offset="1" style="stop-color:#60C5F5"/>
</linearGradient>
<path fill="url(#SVGID_24_)" d="M343.396,13.139L259.233,97.3c-1.429,1.432-3.424,1.607-3.424,1.607
	c-3.115-1.557-0.776-6.175-0.776-6.175s90.609-90.5,90.974-90.881c0.941-1.098,1.781-0.862,1.781-0.862L343.396,13.139z"/>
<linearGradient id="SVGID_25_" gradientUnits="userSpaceOnUse" x1="-1495.0293" y1="-1120.293" x2="-1499.2372" y2="-1116.0846" gradientTransform="matrix(1 0 0 -1 1871.8203 -1088.8428)">
	<stop  offset="0" style="stop-color:#08406F"/>
	<stop  offset="1" style="stop-color:#60C5F5"/>
</linearGradient>
<path fill="url(#SVGID_25_)" d="M394.984,13.254L352.47,55.768c-1.428,1.432-3.372,1.657-3.372,1.657
	c-2.933-1.908-0.589-5.983-0.589-5.983s49.584-49.69,49.947-50.07c1.047-1.033,1.377-0.66,1.377-0.66L394.984,13.254z"/>
<linearGradient id="SVGID_26_" gradientUnits="userSpaceOnUse" x1="-1383.2627" y1="-1148.6963" x2="-1386.7196" y2="-1145.2396" gradientTransform="matrix(1 0 0 -1 1871.8203 -1088.8428)">
	<stop  offset="0" style="stop-color:#08406F"/>
	<stop  offset="1" style="stop-color:#60C5F5"/>
</linearGradient>
<path fill="url(#SVGID_26_)" d="M502.958,45.453L473.589,74.82l-3.188-3.722L491.8,49.7l11.136-5.401
	C502.936,44.299,503.349,44.593,502.958,45.453z"/>
<linearGradient id="SVGID_27_" gradientUnits="userSpaceOnUse" x1="-1372.1895" y1="-1192.8076" x2="-1376.1497" y2="-1188.8474" gradientTransform="matrix(1 0 0 -1 1871.8203 -1088.8428)">
	<stop  offset="0" style="stop-color:#08406F"/>
	<stop  offset="1" style="stop-color:#60C5F5"/>
</linearGradient>
<path fill="url(#SVGID_27_)" d="M513.634,89.96l-28.848,28.65l-3.258-4.465l20.049-20.049l12.289-5.383
	C513.867,88.72,514.263,89.152,513.634,89.96z"/>
<linearGradient id="SVGID_28_" gradientUnits="userSpaceOnUse" x1="-1430.165" y1="-1135.0479" x2="-1434.4492" y2="-1130.7638" gradientTransform="matrix(1 0 0 -1 1871.8203 -1088.8428)">
	<stop  offset="0" style="stop-color:#08406F"/>
	<stop  offset="1" style="stop-color:#60C5F5"/>
</linearGradient>
<path fill="url(#SVGID_28_)" d="M481.083,6.777L404.171,83.69c-1.43,1.433-3.395,1.644-3.395,1.644
	c-2.449-3.092-0.689-5.979-0.689-5.979l77.289-77.44L481.083,6.777z"/>
<linearGradient id="SVGID_29_" gradientUnits="userSpaceOnUse" x1="-1385.1406" y1="-1130.0811" x2="-1390.2534" y2="-1124.9684" gradientTransform="matrix(1 0 0 -1 1871.8203 -1088.8428)">
	<stop  offset="0" style="stop-color:#08406F"/>
	<stop  offset="1" style="stop-color:#60C5F5"/>
</linearGradient>
<path fill="url(#SVGID_29_)" d="M492.697,31.304L480.021,44.09c-2.771,2.282-1.802,5.608-1.802,5.608
	c-2.25-0.21-3.125-2.065-3.412-3.695c-0.284-1.63,0.304-3.422,1.349-4.467l14.469-14.44L492.697,31.304z"/>
<linearGradient id="SVGID_30_" gradientUnits="userSpaceOnUse" x1="-1686.0225" y1="-1205.7617" x2="-1689.6647" y2="-1202.1194" gradientTransform="matrix(1 0 0 -1 1871.8203 -1088.8428)">
	<stop  offset="0" style="stop-color:#08406F"/>
	<stop  offset="1" style="stop-color:#60C5F5"/>
</linearGradient>
<path fill="url(#SVGID_30_)" d="M142.17,153.315l77.913-77.942c0,0,1.437-1.873,4.267-1.771l-0.456,5.223
	c0,0-78.666,78.506-79.113,78.947L142.17,153.315z"/>
<linearGradient id="SVGID_31_" gradientUnits="userSpaceOnUse" x1="-1568.9712" y1="-1182.5698" x2="-1572.6125" y2="-1178.9285" gradientTransform="matrix(1 0 0 -1 1871.8203 -1088.8428)">
	<stop  offset="0" style="stop-color:#08406F"/>
	<stop  offset="1" style="stop-color:#60C5F5"/>
</linearGradient>
<path fill="url(#SVGID_31_)" d="M274.33,115.003l47.643-47.659c0,0,1.438-1.871,4.268-1.771l-0.857,5.621l-48.323,48.29
	L274.33,115.003z"/>
<linearGradient id="SVGID_32_" gradientUnits="userSpaceOnUse" x1="-1522.1104" y1="-1186.5156" x2="-1525.6196" y2="-1183.0062" gradientTransform="matrix(1 0 0 -1 1871.8203 -1088.8428)">
	<stop  offset="0" style="stop-color:#08406F"/>
	<stop  offset="1" style="stop-color:#60C5F5"/>
</linearGradient>
<path fill="url(#SVGID_32_)" d="M330.125,110.25l36.779-36.789c0.842-0.843,1.779-1.771,3.396-1.771l-0.106,5.501l-43.08,43.042
	c-0.57,0.563-1.021,0.397-1.021,0.397L330.125,110.25z"/>
<linearGradient id="SVGID_33_" gradientUnits="userSpaceOnUse" x1="-1501.1943" y1="-1207.0757" x2="-1505.6188" y2="-1202.6516" gradientTransform="matrix(1 0 0 -1 1871.8203 -1088.8428)">
	<stop  offset="0" style="stop-color:#08406F"/>
	<stop  offset="1" style="stop-color:#60C5F5"/>
</linearGradient>
<path fill="url(#SVGID_33_)" d="M361.984,118.058l7.25-7.281l5.557,2.326l-0.734,1.047l-3.813,4.438l-0.271,0.301h-7.721
	c-0.34,0.016-0.52-0.271-0.52-0.271S361.576,118.468,361.984,118.058z"/>
<linearGradient id="SVGID_34_" gradientUnits="userSpaceOnUse" x1="-1642.543" y1="-1185.2007" x2="-1648.5806" y2="-1185.2007" gradientTransform="matrix(1 0 0 -1 1871.8203 -1088.8428)">
	<stop  offset="0" style="stop-color:#08406F"/>
	<stop  offset="1" style="stop-color:#60C5F5"/>
</linearGradient>
<path fill="url(#SVGID_34_)" d="M223.983,117.337l-0.09-38.514c0,0-1.738-2.016,0.457-5.223c0.673-0.01,4.202,0.478,4.928,4.707
	l-0.001,36.694l-4.561,4.115C224.716,119.119,223.986,118.642,223.983,117.337z"/>
<linearGradient id="SVGID_35_" gradientUnits="userSpaceOnUse" x1="-1541.6958" y1="-1181.9497" x2="-1546.9077" y2="-1181.9497" gradientTransform="matrix(1 0 0 -1 1871.8203 -1088.8428)">
	<stop  offset="0" style="stop-color:#08406F"/>
	<stop  offset="1" style="stop-color:#60C5F5"/>
</linearGradient>
<path fill="url(#SVGID_35_)" d="M325.449,119.944l-0.08-48.75c0,0-1.471-2.681,0.871-5.621c0.596-0.009,3.244,0.472,3.885,4.702
	v39.976l-4.027,10.391C326.093,120.64,325.492,120.498,325.449,119.944z"/>
<linearGradient id="SVGID_36_" gradientUnits="userSpaceOnUse" x1="-1497.0308" y1="-1181.2378" x2="-1503.2754" y2="-1181.2378" gradientTransform="matrix(1 0 0 -1 1871.8203 -1088.8428)">
	<stop  offset="0" style="stop-color:#08406F"/>
	<stop  offset="1" style="stop-color:#60C5F5"/>
</linearGradient>
<path fill="url(#SVGID_36_)" d="M369.234,110.774V78.146c0,0-2.113-3.379,1.063-6.456c0.693-0.008,4.132,0.24,4.492,4.323v37.087
	L369.234,110.774z"/>
<linearGradient id="SVGID_37_" gradientUnits="userSpaceOnUse" x1="-1431.3618" y1="-1173.1079" x2="-1435.7805" y2="-1168.6892" gradientTransform="matrix(1 0 0 -1 1871.8203 -1088.8428)">
	<stop  offset="0" style="stop-color:#08406F"/>
	<stop  offset="1" style="stop-color:#60C5F5"/>
</linearGradient>
<path fill="url(#SVGID_37_)" d="M448.91,74.82l-13.451,13.479l-3.844,4.81c-3.896-2.458-1.953-6.874-0.912-7.925l14.088-14.079
	L448.91,74.82z"/>
<linearGradient id="SVGID_38_" gradientUnits="userSpaceOnUse" x1="-1399.0791" y1="-1182.9409" x2="-1399.0791" y2="-1177.1387" gradientTransform="matrix(1 0 0 -1 1871.8203 -1088.8428)">
	<stop  offset="0" style="stop-color:#08406F"/>
	<stop  offset="1" style="stop-color:#60C5F5"/>
</linearGradient>
<path fill="url(#SVGID_38_)" d="M501.58,94.099h-66.391c-2.502-0.197-3.574-0.993-3.574-0.993c-0.012-3.571,3.844-4.81,3.844-4.81
	l77.746,0.002c0.543-0.002,0.662,0.422,0.662,0.422L501.58,94.099z"/>
<path fill="#C0392B" d="M199.027,180.485c3.235,0,5.857,2.921,5.857,6.156h-17.971V128.36h5.958v52.125H199.027z"/>
<path fill="#C0392B" d="M215.707,186.642c-3.235,0-6.057-2.923-6.057-6.156v-40.459h6.057V186.642z"/>
<g>
	<g>
		<path fill="#C0392B" d="M233.678,140.026h-6.157V128.36h-6.055v58.281h12.212c3.235,0,5.857-2.924,5.857-6.156v-34.75
			C239.535,142.5,236.913,140.026,233.678,140.026z M233.578,180.485h-6.057v-34.65h6.057V180.485z"/>
	</g>
</g>
<g>
	<path fill="#231F20" d="M246.087,128.005c0,0,46.465,0,48.478,0c2.012,0,2.754,0.446,3.647,2.085
		c0.894,1.64,7.894,16.084,8.563,17.722c0.67,1.641,0.074,2.83-0.896,4.099c-0.969,1.266-11.021,12.731-11.021,12.731l12.285,21.646
		h-18.541c0,0-14.521-24.849-15.338-26.038c-0.82-1.189-0.82-3.128,0.967-3.128c1.788,0,5.51,0,6.33,0
		c0.818,0,1.191-0.147,2.159-0.967c0.968-0.82,5.957-6.854,5.957-6.854s-2.383-6.403-2.904-7.595
		c-0.521-1.191-1.639-1.563-2.68-1.563c-1.042,0-18.688,0-18.688,0v46.143h-18.319L246.087,128.005L246.087,128.005z"/>
	<path fill="#FFFFFF" d="M288.318,186.786l-0.146-0.248c-0.008-0.012-3.629-6.213-7.359-12.572l0,0
		c-3.727-6.349-7.584-12.895-7.959-13.435l0,0c-0.387-0.568-0.614-1.249-0.616-1.916l0,0c0-0.491,0.129-0.991,0.473-1.384l0,0
		c0.344-0.395,0.887-0.619,1.522-0.613l0,0c1.789,0,5.511,0,6.33,0.002l0,0c0.746-0.025,0.852-0.049,1.837-0.85l0,0
		c0.404-0.336,1.929-2.08,3.283-3.677l0,0c1.053-1.237,2.03-2.416,2.426-2.892l0,0c-0.459-1.233-2.351-6.289-2.793-7.299l0,0
		c-0.42-0.957-1.275-1.252-2.219-1.264l0,0c-0.521,0-5.195,0-9.737,0l0,0c-3.631,0-7.174,0-8.453,0l0,0v46.145h-19.321v-58.78
		v-0.502h0.502c0.048,0,46.464,0,48.475,0l0,0c2.065-0.058,3.211,0.618,4.088,2.349l0,0c0.918,1.688,7.893,16.072,8.59,17.771l0,0
		c0.217,0.535,0.32,1.048,0.318,1.537l0,0c0,1.179-0.584,2.135-1.279,3.054l0,0c-0.914,1.193-9.293,10.762-10.809,12.49l0,0
		l12.536,22.083L288.318,186.786L288.318,186.786z M306.287,185.784l-12.035-21.208l0.232-0.265
		c0.012-0.016,10.067-11.488,10.998-12.705l0,0c0.666-0.873,1.08-1.625,1.078-2.447l0,0c-0.002-0.35-0.072-0.727-0.248-1.158l0,0
		c-0.646-1.579-7.672-16.082-8.541-17.671l0,0c-0.91-1.55-1.252-1.767-3.209-1.825l0,0c-1.888,0-42.962,0-47.975,0l0,0v57.279
		h17.317v-46.143h0.502c0.017,0,17.646,0,18.688,0l0,0c1.141-0.014,2.518,0.438,3.139,1.861l0,0c0.537,1.23,2.91,7.614,2.914,7.621
		l0,0l0.101,0.271l-0.185,0.224c-0.022,0.021-4.946,5.995-6.02,6.915l0,0c-0.95,0.834-1.591,1.107-2.482,1.086l0,0
		c-0.819-0.002-4.541-0.002-6.33-0.002l0,0c-0.812,0.045-0.939,0.354-0.996,0.996l0,0c-0.002,0.428,0.165,0.953,0.441,1.349l0,0
		c0.808,1.181,13.699,23.231,15.215,25.821l0,0H306.287L306.287,185.784z"/>
</g>
<g>
	<path fill="#231F20" d="M432.835,128.005c0,0,46.465,0,48.476,0c2.012,0,2.756,0.446,3.647,2.085
		c0.894,1.64,7.896,16.084,8.563,17.722c0.672,1.641,0.073,2.83-0.894,4.099c-0.969,1.266-11.021,12.731-11.021,12.731
		l12.287,21.646h-18.544c0,0-14.52-24.849-15.34-26.038c-0.817-1.189-0.817-3.128,0.97-3.128c1.786,0,5.512,0,6.327,0
		c0.82,0,1.191-0.147,2.16-0.967c0.97-0.82,5.957-6.854,5.957-6.854s-2.383-6.403-2.903-7.595s-1.638-1.563-2.681-1.563
		s-18.688,0-18.688,0v46.143h-18.318L432.835,128.005L432.835,128.005z"/>
	<path fill="#FFFFFF" d="M475.064,186.785l-0.144-0.248c-0.01-0.013-3.631-6.211-7.36-12.571l0,0
		c-3.728-6.348-7.585-12.893-7.96-13.435l0,0c-0.387-0.567-0.612-1.249-0.614-1.917l0,0c-0.004-0.489,0.129-0.989,0.473-1.383l0,0
		c0.342-0.396,0.885-0.617,1.523-0.612l0,0c1.784,0,5.51,0,6.328,0l0,0c0.745-0.022,0.852-0.047,1.838-0.849l0,0
		c0.403-0.338,1.93-2.08,3.282-3.677l0,0c1.052-1.237,2.031-2.416,2.427-2.892l0,0c-0.459-1.229-2.351-6.288-2.793-7.296l0,0
		c-0.423-0.962-1.277-1.255-2.222-1.267l0,0c-0.521,0-5.194,0-9.735,0l0,0c-3.636,0-7.179,0-8.453,0l0,0v46.144h-19.32v-58.778
		v-0.502h0.502c-0.002,0,46.465,0,48.477,0l0,0c2.064-0.059,3.209,0.617,4.086,2.346l0,0c0.921,1.688,7.892,16.074,8.589,17.771l0,0
		c0.221,0.538,0.319,1.051,0.319,1.54l0,0c-0.002,1.177-0.584,2.134-1.278,3.052l0,0c-0.914,1.19-9.293,10.763-10.81,12.49l0,0
		l12.535,22.083L475.064,186.785L475.064,186.785z M493.035,185.784l-12.037-21.207l0.236-0.266
		c0.008-0.017,10.065-11.488,10.996-12.705l0,0c0.661-0.873,1.077-1.627,1.075-2.446l0,0c0-0.353-0.069-0.728-0.248-1.16l0,0
		c-0.643-1.577-7.668-16.08-8.538-17.67l0,0c-0.908-1.55-1.255-1.767-3.209-1.824l0,0c-1.89-0.002-42.964-0.002-47.976,0l0,0v57.278
		h17.314v-46.143h0.502c0.02,0,17.646,0,18.688,0l0,0c1.141-0.014,2.521,0.438,3.139,1.861l0,0c0.537,1.232,2.91,7.613,2.914,7.621
		l0,0l0.103,0.271l-0.185,0.225c-0.021,0.021-4.948,5.992-6.02,6.914l0,0c-0.951,0.836-1.59,1.109-2.482,1.084l0,0
		c-0.817,0-4.543,0-6.328,0l0,0c-0.813,0.045-0.94,0.353-0.997,0.996l0,0c-0.005,0.43,0.163,0.953,0.44,1.35l0,0
		c0.81,1.18,13.697,23.227,15.215,25.82l0,0H493.035L493.035,185.784z"/>
</g>
<g>
	<path fill="#231F20" d="M310.5,186.286c0,0,0-37.282,0-38.549c0-1.266,0.297-1.786,0.893-3.053
		c0.599-1.268,7.447-13.852,8.193-15.041c0.744-1.191,1.787-1.64,3.797-1.64s48.24,0,48.24,0v12.063c0,0-34.912,0-36.252,0
		s-1.936,0.076-2.83,2.012s-3.723,8.787-3.723,8.787h36.711v12.138h-36.711v11.021h42.805v12.263L310.5,186.286L310.5,186.286z"/>
	<path fill="#FFFFFF" d="M310.5,186.786v-0.5h0.5h-0.5V186.786H310v-0.5c0-0.002,0-37.283,0-38.549l0,0
		c-0.008-1.356,0.355-2.036,0.938-3.266l0,0c0.629-1.324,7.443-13.848,8.224-15.096l0,0c0.821-1.355,2.164-1.896,4.223-1.874l0,0
		c2.011,0,48.238,0,48.24,0l0,0h0.498v13.063h-0.498c-0.002,0-34.912,0-36.252,0l0,0c-1.343,0.082-1.42-0.131-2.377,1.722l0,0
		c-0.711,1.539-2.688,6.288-3.431,8.077l0,0h36.465v13.139l-36.711-0.002v10.021h42.806v13.263L310.5,186.786L310.5,186.786z
		 M371.121,185.784v-11.26h-42.805v-12.022h36.713v-11.137h-36.961l0.285-0.691c0.002-0.005,2.828-6.845,3.731-8.805l0,0
		c0.832-2.019,1.945-2.384,3.285-2.302l0,0c1.244,0,31.479,0,35.752,0l0,0v-11.063c-5.002,0-45.854,0-47.742,0l0,0
		c-1.963,0.024-2.707,0.378-3.373,1.402l0,0c-0.711,1.135-7.6,13.782-8.164,14.989l0,0c-0.606,1.303-0.836,1.666-0.846,2.842l0,0
		c0,1.178,0,33.604,0,38.046l0,0L371.121,185.784L371.121,185.784z"/>
</g>
<g>
	<g>
		<path fill="#231F20" d="M411.845,146.324v-18.318H389.99v18.318h-18.367v21.407h18.367v18.555h21.854v-18.555h17.945v-21.407
			H411.845L411.845,146.324z M400.826,163.488c-3.56,0-6.441-2.884-6.441-6.441c0-3.557,2.883-6.44,6.441-6.44
			c3.557,0,6.438,2.885,6.438,6.44C407.265,160.604,404.382,163.488,400.826,163.488z"/>
	</g>
	<g>
		<path fill="#FFFFFF" d="M389.489,186.786v-18.555h-18.367v-22.409h18.367v-18.318h22.855v18.318h17.944v22.409l-17.946-0.004
			v18.559H389.489L389.489,186.786z M372.121,167.229h18.369v18.555h20.854v-18.555h17.944v-20.406h-17.443v-0.5h0.5h-0.5v0.5
			h-0.501v-18.319H390.49v18.319l-18.369-0.002V167.229L372.121,167.229z M400.826,163.985v-0.498v-0.502
			c3.279-0.006,5.932-2.657,5.938-5.938l0,0c-0.006-3.28-2.658-5.937-5.938-5.94l0,0c-3.283,0.006-5.936,2.66-5.941,5.94l0,0
			c0.006,3.281,2.658,5.935,5.941,5.94l0,0v0.5V163.985c-3.836,0-6.941-3.106-6.944-6.938l0,0c0.003-3.834,3.108-6.94,6.944-6.942
			l0,0c3.832,0.002,6.938,3.108,6.938,6.942l0,0c0,3.832-3.105,6.938-6.938,6.942l0,0V163.985L400.826,163.985z"/>
	</g>
</g>
<polygon fill="#FFFFFF" points="407.08,173.578 394.496,173.578 400.675,179.758 "/>
<polygon fill="#FFFFFF" points="417.392,150.681 417.392,163.263 423.574,157.083 "/>
<polygon fill="#FFFFFF" points="384.182,163.263 384.182,150.681 378.001,156.86 "/>
<g>
	<g>
		<path fill="#231F20" d="M543.201,128.005h-35.049c-6.496,0-11.767,5.268-11.767,11.766v34.75c0,6.498,5.271,11.767,11.767,11.767
			h35.049c6.498,0,11.766-5.269,11.766-11.767v-34.75C554.964,133.272,549.699,128.005,543.201,128.005z M525.675,174.668
			c-9.705,0-17.574-7.868-17.574-17.573s7.869-17.572,17.574-17.572s17.574,7.867,17.574,17.572S535.38,174.668,525.675,174.668z"/>
	</g>
	<g>
		<path fill="#FFFFFF" d="M508.151,186.785c-6.772,0-12.267-5.491-12.267-12.267l0,0v-34.748c0-6.776,5.493-12.267,12.267-12.269
			l0,0h35.05v0.501v0.499h-35.05c-6.221,0.015-11.255,5.046-11.267,11.269l0,0v34.748c0.012,6.223,5.046,11.254,11.267,11.266l0,0
			h35.05c6.221-0.012,11.253-5.043,11.266-11.266l0,0v-34.748c-0.002-6.225-5.045-11.269-11.266-11.269l0,0v-0.499v-0.501
			c6.773,0.002,12.262,5.493,12.264,12.269l0,0l0.002,34.748c-0.002,6.774-5.493,12.267-12.266,12.267l0,0H508.151L508.151,186.785z
			 M507.6,157.094c0-9.981,8.095-18.071,18.073-18.073l0,0c9.982,0.002,18.074,8.092,18.076,18.073l0,0
			c-0.002,9.982-8.094,18.073-18.076,18.073l0,0v-0.499v-0.501c9.431-0.018,17.06-7.646,17.075-17.073l0,0
			c-0.018-9.428-7.646-17.056-17.075-17.071l0,0c-9.43,0.017-17.056,7.645-17.071,17.071l0,0
			c0.017,9.429,7.643,17.056,17.071,17.073l0,0v0.501v0.499C515.694,175.167,507.6,167.076,507.6,157.094L507.6,157.094z"/>
	</g>
</g>
<rect x="209.65" y="128.36" fill="#C0392B" width="6.057" height="6.269"/>
<polygon fill="#FFFFFF" points="394.496,140.366 407.08,140.366 400.898,134.187 "/>
</svg>
