<?xml version="1.0" encoding="utf-8"?>
<!-- Generator: Adobe Illustrator 16.0.0, SVG Export Plug-In . SVG Version: 6.00 Build 0)  -->
<!DOCTYPE svg PUBLIC "-//W3C//DTD SVG 1.1//EN" "http://www.w3.org/Graphics/SVG/1.1/DTD/svg11.dtd">
<svg version="1.1" id="Ebene_1" xmlns="http://www.w3.org/2000/svg" xmlns:xlink="http://www.w3.org/1999/xlink" x="0px" y="0px"
	 width="399.49px" height="98.438px" viewBox="0 0 399.49 98.438" enable-background="new 0 0 399.49 98.438" xml:space="preserve">
<g>
	<path id="polyline2177" fill="#C40000" d="M19.455,0c-3.758,0-7.412,3.09-8.083,6.918v0.068v0.068v0.068l-0.068,0.067v0.14v0.067
		l-0.069,0.138v0.138L11.166,7.81v0.206l-0.068,0.137v0.206l-0.069,0.205L10.96,8.77l-0.068,0.41l-0.137,0.479l-0.067,0.479
		l-0.138,0.479l-0.069,0.547l-0.138,0.548l-0.136,0.616l-0.138,0.548l-0.205,1.165l-0.138,0.617l-0.137,0.547l-0.067,0.548
		L9.384,16.3l-0.136,0.549l-0.069,0.548L9.11,17.876l-0.138,0.411l-0.069,0.479v0.206l-0.067,0.137v0.206v0.138l-0.068,0.206v0.137
		v0.138L8.699,20.07v0.069v0.067c-0.07,1.675,0.163,3.96,0.686,4.385c0.665,3.688,12.958,20.759,12.604,23.358
		c-0.332,2.605-1.781,10.275-1.781,10.275c-0.446,2.585-2.21,4.656-4.794,4.656c-2.586,0-4.351-2.064-3.905-4.656l2.329-12.741
		H4.658L1.575,63.158c-0.628,3.588,1.801,6.438,5.411,6.438h13.085c3.624,0,7.076-2.851,7.739-6.438c0,0,3.372-16.509,3.356-17.675
		c-0.013-1.174-0.341-1.302-0.341-1.302c0-1.343-10.939-19.399-12.056-20.072c-0.481-0.28-0.877-2.068-0.892-3.149
		c-0.021-1.074,1.439-8.289,1.439-8.289c0.444-2.585,2.894-4.657,5.48-4.657c2.585,0,3.664,2.072,3.219,4.657L26.029,24.11h9.247
		l3.22-17.193C39.225,3.09,36.775,0,33.017,0H19.455z M44.662,0L33.703,63.16c-0.628,3.588,1.802,6.438,5.412,6.438h13.084
		c3.624,0,7.138-2.851,7.809-6.438L71.72,0h-8.219L52.334,61.377c-0.163,0.893-1.028,1.646-1.917,1.646h-6.509
		c-0.911,0-1.519-0.747-1.371-1.646L53.431,0H44.662z M76.173,0L62.952,69.597h8.768l6.029-31.511h11.166
		c3.632,0,7.074-2.871,7.739-6.438l4.795-24.729C102.173,3.083,99.729,0,95.972,0h-11.03H76.173z M107.479,0L93.78,69.598h19.727
		l1.37-8.632h-9.727l3.974-23.495h9.727l1.369-7.262h-9.725l4.315-21.578h9.728L125.905,0H107.479z M131.043,0l-13.151,69.597h8.769
		l5.961-31.511h6.233c0.817,0.764,0.916,2.171,1.024,2.877c0.162,1.024,0.334,2.333,0.207,3.356
		c-0.112,1.018-4.797,25.276-4.797,25.276h8.771c0,0,4.933-26.429,4.933-26.853c0.016-0.432,0-1.785-0.478-2.534
		c-0.322-0.479-0.873-1.583-1.511-1.985c-1.223-0.785-2.604-1.304-2.604-1.304h-0.619c2.512-0.988,7.24-2.617,7.744-5.273
		l4.793-24.729C157.047,3.083,154.599,0,150.84,0H131.043z M177.968,0l-13.224,69.598h10.07l8.15-40.347l3.221,40.347h8.77
		L208.177,0h-10.07l-6.851,36.375L186.735,0H177.968z M212.765,0l-13.219,69.598h8.768L221.532,0H212.765z M226.12,0l-13.219,69.598
		h10.139l8.152-40.347l3.219,40.347h8.77L256.401,0h-10.139l-6.781,36.375L234.96,0H226.12z M260.101,0l-1.645,8.632h5.479
		L253.11,69.598h10.004l11.027-60.966h5.273L280.786,0H260.101z M284.212,0l-13.699,69.598h19.727l1.371-8.632h-9.727l4.043-23.495
		h9.725l1.371-7.262h-9.727l4.244-21.578h9.729L302.64,0H284.212z M306.476,0l-13.221,69.598h10.137l8.154-40.347l3.219,40.347
		h8.768L336.755,0h-10.139l-6.783,36.375L315.312,0H306.476z M341.345,0L328.12,69.598h20.004c3.633,0,7.137-2.851,7.811-6.438
		L366.55,6.919C367.271,3.083,364.829,0,361.071,0H341.345z M378.95,0c-3.76,0-7.344,3.09-8.016,6.918l-9.797,56.241
		c-0.635,3.588,1.74,6.438,5.346,6.438h14.453c3.623,0,7.137-2.851,7.811-6.438l10.615-56.241C400.091,3.09,397.634,0,393.884,0
		H378.95z M348.81,8.015h4.043c2.584,0,4.348,2.072,3.902,4.657l-8.631,45.555c-0.451,2.585-2.963,4.728-5.549,4.728h-3.973
		L348.81,8.015z M384.087,8.015h0.275c2.584,0,4.281,2.072,3.834,4.657l-8.217,45.555c-0.449,2.577-2.83,4.728-5.412,4.728
		c-2.588,0-3.666-2.143-3.223-4.728l8.15-45.555l0.066-0.206l0.07-0.206l0.066-0.273l0.068-0.205l0.07-0.274l0.064-0.206l0.07-0.206
		l0.135-0.204l0.068-0.206l0.139-0.206l0.068-0.205l0.137-0.206l0.139-0.137l0.137-0.205l0.139-0.206l0.205-0.138l0.137-0.138
		l0.139-0.138l0.203-0.138l0.207-0.137l0.139-0.138l0.203-0.138l0.207-0.067l0.205-0.138l0.139-0.068l0.271-0.069l0.205-0.067h0.205
		l0.205-0.068h0.275L384.087,8.015z M84.598,8.289h4.248c0.933,0,2.911,2.136,2.741,3.083l-3.632,17.193
		c-0.169,0.891-1.37,2.944-2.258,2.944h-5.14h-0.068h-0.068l-0.069-0.067h-0.067h-0.069h-0.069h-0.069v-0.068h-0.069h-0.068
		l-0.07-0.067h-0.068l-0.068-0.069l-0.068-0.067h-0.068V31.1l-0.069-0.067l-0.069-0.069v-0.068l-0.068-0.067l-0.07-0.069v-0.067
		v-0.07l-0.068-0.068v-0.068v-0.067l-0.07-0.068V30.28c0-0.113-0.012-0.284,0-0.411l4.111-21.03
		C83.673,8.527,84.133,8.289,84.598,8.289z M139.192,8.289h0.07h0.068h0.067h0.067h3.976c0.935,0,2.922,2.136,2.738,3.083
		l-3.634,17.125c-0.157,0.896-2.389,3.014-3.284,3.014h-3.769c-0.777,0-1.313-0.511-1.369-1.229c0-0.114-0.018-0.278,0-0.412
		l4.041-21.03l0.066-0.068l0.07-0.067l0.135-0.069h0.066l0.069-0.068l0.068-0.067h0.067l0.068-0.069h0.07l0.135-0.067h0.068h0.066
		h0.067V8.293h0.009V8.289z M0,75.626v22.812h391.005V75.626H0z M287.435,78.023h0.066h0.066h0.07h0.066h0.066h3.018
		c0.813,0,1.395,0.65,1.23,1.508l-0.754,3.838h-1.848l0.408-2.535c0.094-0.573-0.244-1.028-0.822-1.028
		c-0.572,0-1.137,0.453-1.232,1.028l-0.34,1.851c-0.059,0.109,0.113,0.629,0.203,0.687c0.254,0.146,2.672,4.152,2.672,4.45
		c0.057,0.148,0.09,0.221,0.066,0.275c-0.068,0.501-0.754,3.902-0.754,3.902c-0.146,0.78-0.906,1.438-1.711,1.438h-2.877
		c-0.799,0-1.313-0.657-1.166-1.438l0.688-3.902h1.986l-0.477,2.808c-0.092,0.571,0.24,1.096,0.818,1.096
		c0.555,0,1.145-0.521,1.236-1.096l0.41-2.261c-0.367-0.944-2.791-4.389-2.947-5.207c-0.105-0.093-0.15-0.587-0.135-0.959
		c0.021-0.407,0.547-2.945,0.547-2.945h0.07v-0.068v-0.066v-0.067l0.066-0.139v-0.066l0.066-0.07v-0.067l0.068-0.066v-0.07
		l0.068-0.066l0.068-0.07v-0.066h0.066l0.07-0.067l0.066-0.07l0.068-0.066v-0.069h0.066l0.066-0.066l0.066-0.067h0.07l0.068-0.067
		h0.068l0.066-0.067h0.068h0.137L287.435,78.023z M303.187,78.023h2.467l0.344,5.824l3.148-5.824h2.469l-5.068,8.906l-1.232,6.507
		h-2.191l1.098-6.987L303.187,78.023z M325.589,78.023h0.066h0.07h0.064h0.07h0.066h3.014c0.814,0,1.381,0.65,1.232,1.508
		l-0.754,3.838h-1.85l0.412-2.535c0.092-0.573-0.242-1.028-0.822-1.028c-0.572,0-1.143,0.453-1.232,1.028l-0.342,1.851
		c-0.072,0.109,0.092,0.629,0.203,0.687c0.242,0.146,2.672,4.152,2.672,4.45c0.072,0.148,0.07,0.221,0.07,0.275
		c-0.094,0.501-0.686,3.902-0.686,3.902c-0.148,0.78-0.916,1.438-1.715,1.438h-2.943c-0.799,0-1.314-0.657-1.168-1.438l0.686-3.902
		h1.988l-0.479,2.809c-0.096,0.571,0.264,1.096,0.82,1.096c0.57,0,1.119-0.521,1.232-1.096l0.41-2.261
		c-0.375-0.944-2.787-4.389-2.945-5.207c-0.104-0.093-0.146-0.587-0.137-0.959c0.021-0.407,0.549-2.945,0.549-2.945l0.066-0.068
		v-0.066V79.33l0.068-0.139v-0.066l0.068-0.07v-0.067l0.066-0.066V78.85l0.068-0.066l0.068-0.07v-0.066h0.07l0.064-0.067l0.068-0.07
		l0.066-0.066l0.068-0.069l0.068-0.066l0.068-0.067h0.068l0.068-0.067h0.066l0.068-0.067h0.066h0.137L325.589,78.023z
		 M341.548,78.023h4.592l-0.344,1.852h-1.166l-2.396,13.563h-2.26l2.396-13.563h-1.164L341.548,78.023z M359.495,78.023h4.109
		l-0.344,1.852h-2.123l-0.957,4.863h2.189l-0.344,1.574h-2.125l-0.889,5.206h2.121l-0.271,1.918h-4.385L359.495,78.023z
		 M376.415,78.023h2.535l0.408,8.906l3.906-8.837l2.465-0.069l-2.6,15.413h-1.918l1.229-8.149l-3.426,8.149h-1.371l-0.408-8.357
		l-1.508,8.357h-2.262L376.415,78.023z M8.494,78.573h4.042l-0.275,1.916H10.07l-0.89,4.797h2.124l-0.275,1.645H8.837l-0.821,5.207
		h2.123l-0.343,1.917H5.412L8.494,78.573z M27.4,78.573h1.918l1.027,8.083l1.506-8.083h2.262l-2.947,15.479h-1.917l-0.754-8.976
		l-1.78,8.976h-2.262L27.4,78.573z M47.951,78.573h4.521l-0.273,1.916h-1.165l-2.466,13.563h-2.19l2.396-13.563h-1.233
		L47.951,78.573z M67.885,78.573h4.11l-0.343,1.916h-2.124l-0.959,4.797h2.124l-0.274,1.645h-2.123l-0.89,5.207h2.123l-0.273,1.917
		h-4.384L67.885,78.573z M87.203,78.573h4.383c0.813,0,1.327,0.719,1.165,1.573l-1.027,5.479c-0.114,0.594-1.157,1.078-1.714,1.303
		h0.138h0.068h0.07v0.067h0.068h0.07h0.066h0.07l0.068,0.066h0.068h0.068h0.07v0.067h0.068h0.07v0.07h0.068
		c0.092,0.165,0.136,0.658,0.136,0.753c0,0.092-1.097,6.097-1.097,6.097h-1.986c0,0,1.061-5.394,1.097-5.616
		c0.022-0.24-0.026-0.528-0.068-0.753c-0.016-0.166-0.024-0.45-0.206-0.618h-1.371l-1.301,6.987h-1.987L87.203,78.573z
		 M106.793,78.573h4.589l-0.273,1.916h-1.163l-2.467,13.563h-2.192l2.397-13.563h-1.232L106.793,78.573z M129.604,78.573h2.604
		l-0.821,15.479h-2.604l0.342-3.563h-1.574l-1.303,3.563h-2.327L129.604,78.573z M147.827,78.573h1.986l-2.947,15.479h-1.918
		L147.827,78.573z M165.499,78.573h1.92l1.025,8.083l1.51-8.083h2.191l-2.877,15.479h-1.986l-0.686-8.976l-1.783,8.976h-2.258
		L165.499,78.573z M188.175,78.573h2.534l0.408,8.974l3.908-8.904h2.463l-2.602,15.412h-1.918l1.232-8.152l-3.429,8.152h-1.369
		l-0.409-8.355l-1.507,8.355h-2.192L188.175,78.573z M213.04,78.573h4.041l-0.275,1.916h-2.191l-0.889,4.797h2.123l-0.275,1.645
		h-2.188l-0.891,5.207h2.188l-0.342,1.917h-4.314L213.04,78.573z M232.903,78.573h1.918l1.029,8.083l1.506-8.083h2.191
		l-2.875,15.479h-1.918l-0.754-8.976l-1.783,8.976h-2.26L232.903,78.573z M253.249,78.573h4.59l-0.342,1.916h-1.164l-2.398,13.563
		h-2.191l2.398-13.563h-1.23L253.249,78.573z M89.053,80.42c-0.108,0-0.198,0.063-0.276,0.139l-0.89,4.656c0,0.038,0,0.032,0,0.07
		c0,0.148,0.104,0.272,0.274,0.272h0.821c0.204,0,0.717-0.411,0.755-0.617l0.751-3.836c0.036-0.221-0.342-0.687-0.547-0.687
		L89.053,80.42L89.053,80.42z M129.604,85.078l-1.438,3.904h1.096L129.604,85.078z"/>
</g>
<rect x="213.025" y="52.416" width="186.465" height="46.021"/>
<text transform="matrix(1 0 0 1 213.5264 89.4163)" fill="#FF0000" font-family="'OCRAStd'" font-size="36">&gt;HACKS_</text>
</svg>
