<?xml version="1.0" encoding="utf-8"?>
<!-- Generator: Adobe Illustrator 16.0.0, SVG Export Plug-In . SVG Version: 6.00 Build 0)  -->
<!DOCTYPE svg PUBLIC "-//W3C//DTD SVG 1.1//EN" "http://www.w3.org/Graphics/SVG/1.1/DTD/svg11.dtd">
<svg version="1.1" id="Layer_1" xmlns="http://www.w3.org/2000/svg" xmlns:xlink="http://www.w3.org/1999/xlink" x="0px" y="0px"
	 width="2280.082px" height="526.365px" viewBox="110.308 986.817 2280.082 526.365"
	 enable-background="new 110.308 986.817 2280.082 526.365" xml:space="preserve">
<g>
	<path d="M2353.662,1003.977c19.902-0.378,36.343,15.45,36.721,35.353s-15.45,36.343-35.353,36.721
		c-0.456,0.009-0.912,0.009-1.368,0c-19.902-0.378-35.73-16.818-35.353-36.721
		C2318.678,1019.959,2334.292,1004.344,2353.662,1003.977z M2353.662,1012.329c-15.293-0.02-27.706,12.362-27.726,27.655
		s12.362,27.706,27.655,27.726c0.023,0,0.047,0,0.07,0c15.305,0,27.717-12.412,27.717-27.69
		C2381.357,1024.725,2368.956,1012.336,2353.662,1012.329L2353.662,1012.329z M2338.072,1060.278h8.34v-16.018h9.779
		c2.893,0,4.89,1.336,5.02,4.06c-0.13,2.943-0.13,6.174,0,8.171c0.084,1.329,0.465,2.624,1.115,3.787h8.936
		c-0.881-2.063-1.543-2.568-1.543-4.838c-0.078-2.063-0.182-7.405-0.402-9.065c-0.428-3.671-3.113-4.67-4.514-5.616
		c2.736-1.608,4.514-2.893,5.525-6.395c0.985-3.501,0.155-6.381-0.402-8.171c-1.167-4.384-5.266-6.277-9.325-6.445h-22.516v40.53
		H2338.072L2338.072,1060.278z M2346.412,1026.713h11.271c3.748,0,5.07,1.66,5.07,4.552c0.4,2.924-1.645,5.619-4.568,6.02
		c-0.124,0.017-0.248,0.029-0.373,0.038h-11.4V1026.713L2346.412,1026.713z M489.842,986.817h56.562v158.932
		c0,133.472,91.527,245.557,215.246,276.917l0.208,90.309c-154.444-25.641-272.365-160.072-272.21-321.546L489.842,986.817
		L489.842,986.817z M382.323,986.817h-56.561v158.932c0,133.472-91.528,245.557-215.246,276.917l-0.208,90.309
		c154.457-25.641,272.365-160.072,272.223-321.546L382.323,986.817L382.323,986.817z M395.552,986.817h80.866v526.353h-80.866
		V986.817z M1677.198,1308.701l-50.103-163.536l-44.784,163.29L1677.198,1308.701L1677.198,1308.701z M1559.666,1390.397
		l-33.488,122.098h-92.643l129.399-469.013c8.337-27.916,34.016-47.044,63.149-47.041c29.176-0.021,54.908,19.101,63.306,47.041
		l141.929,469.688l-91.956-0.688l-37.185-121.891L1559.666,1390.397L1559.666,1390.397z M1109.681,1308.701l-50.09-163.536
		l-44.784,163.276L1109.681,1308.701z M992.148,1390.397l-33.488,122.098h-92.63l129.386-469.013
		c8.338-27.916,34.017-47.044,63.15-47.041c29.17-0.021,54.896,19.103,63.279,47.041l141.941,469.688l-91.942-0.688l-37.185-121.891
		L992.148,1390.397L992.148,1390.397z M2061.311,1301.36c58.494-22.438,100.036-79.115,100.036-145.508
		c0-86.042-69.765-155.793-155.819-155.793l-60.309-0.272c-55.887-0.259-88.233,29.234-88.233,88.207v422.257h88.233v-424.915
		h54.382c41.401-0.146,75.084,33.298,75.229,74.699c0.129,36.477-26.015,67.75-61.936,74.09c-6.226,1.53-12.438,3.346-18.209,6.822
		c-30.705,18.511-40.594,58.407-22.088,89.115l110.801,183.12h93.227l-120.502-198.191c-2.601-4.287-1.232-9.87,3.055-12.471
		c0.011-0.006,0.021-0.013,0.032-0.019c0.788-0.443,1.642-0.759,2.528-0.934L2061.311,1301.36L2061.311,1301.36z M1192.868,1087.813
		v-87.326h307.876v87.326H1391.24l-0.324,425.369h-88.207v-424.916L1192.868,1087.813L1192.868,1087.813z M2202.5,1000.06h88.207
		v513.123H2202.5V1000.06z"/>
</g>
</svg>
