<?xml version="1.0" encoding="UTF-8" standalone="no"?>
<!-- Created with Inkscape (http://www.inkscape.org/) -->
<svg
   xmlns:svg="http://www.w3.org/2000/svg"
   xmlns="http://www.w3.org/2000/svg"
   version="1.0"
   width="195.21857"
   height="141.16785"
   id="svg2416">
  <defs
     id="defs2418">
    <clipPath
       id="clipPath17">
      <path
         d="M 220.535,573.524 L 220.535,465.031 L 373.168,465.031 L 373.168,573.524"
         id="path19" />
    </clipPath>
  </defs>
  <g
     transform="translate(-253.01533,-461.24642)"
     id="layer1">
    <path
       d="M 401.87313,497.48785 L 411.72313,464.5541 L 404.69188,464.5541 L 379.69188,493.95285 C 376.03938,493.6166 372.50563,493.4316 368.00563,493.33035 C 365.35688,493.2691 362.71438,493.26785 360.08688,493.31535 C 310.31813,492.41035 263.72813,510.8741 255.78063,534.7491 C 250.20188,551.5041 264.74438,565.10035 285.73563,572.46285 C 285.73563,572.46285 289.53438,572.46285 292.76688,572.46285 L 316.21938,547.7216 L 302.17563,600.1691 L 309.20688,600.1691 L 364.05938,535.2641 L 351.15438,579.75285 C 353.50063,579.6291 358.18563,579.75285 358.18563,579.75285 C 391.30688,578.00285 436.17938,562.8791 444.24563,538.8866 C 450.32813,520.7891 431.71563,504.7441 401.87313,497.48785 z M 345.67938,501.66035 L 291.34938,552.0516 C 281.87438,547.1966 277.60938,540.2791 280.94438,530.26285 C 287.02563,511.99535 321.11813,497.6516 358.86563,496.8166 C 365.19938,496.96035 371.07938,496.07035 376.80438,496.89785 L 344.23938,535.65285 L 352.71063,501.66035 L 345.67938,501.66035 z M 399.69063,505.55535 C 415.81438,512.51035 423.88313,522.7966 420.42313,534.5666 C 417.29563,545.2041 401.55688,552.99785 384.34313,557.1641 L 399.69063,505.55535"
       id="path23"
       style="fill:#989696;fill-opacity:1;fill-rule:nonzero;stroke:none" />
    <path
       d="M 292.76812,572.46285 C 271.77562,565.1016 257.23312,551.5041 262.81187,534.75035 C 270.80812,510.7316 317.90562,492.18785 368.00687,493.33035 C 375.01937,493.4891 379.68312,493.84535 386.11187,494.67285 L 411.72437,464.5541 L 401.87437,497.48785 C 431.71687,504.7441 450.32937,520.7891 444.24687,538.8866 C 436.18062,562.88035 391.30687,578.00285 358.18687,579.7541 L 374.76562,522.5966 L 309.20812,600.17035 L 326.01812,537.3841 L 292.76812,572.46285 z M 427.45437,534.56785 C 431.34187,521.3466 420.69312,509.9941 400.41062,503.1366 L 383.87687,558.7391 C 403.79187,555.18535 423.87687,546.7366 427.45437,534.56785 z M 383.01437,498.19285 C 377.28687,497.36535 372.22812,496.96035 365.89187,496.8166 C 325.43312,495.8941 287.40187,510.8691 280.94562,530.26285 C 277.09437,541.8291 283.37062,549.2641 296.10687,554.1616 L 352.71187,501.66035 L 341.30937,547.4091 L 383.01437,498.19285"
       id="path27"
       style="fill:#d82242;fill-opacity:1;fill-rule:nonzero;stroke:none" />
  </g>
</svg>
