<?xml version="1.0" encoding="utf-8"?>
<!-- Generator: Adobe Illustrator 16.0.0, SVG Export Plug-In . SVG Version: 6.00 Build 0)  -->
<!DOCTYPE svg PUBLIC "-//W3C//DTD SVG 1.1//EN" "http://www.w3.org/Graphics/SVG/1.1/DTD/svg11.dtd">
<svg version="1.1" id="Layer_1" xmlns="http://www.w3.org/2000/svg" xmlns:xlink="http://www.w3.org/1999/xlink" x="0px" y="0px"
	 width="2437px" height="660px" viewBox="30.5 920.5 2437 660" enable-background="new 30.5 920.5 2437 660" xml:space="preserve">
<g>
	<path fill="#D82242" d="M706.723,1089.422l44.461-165.17l-122.524,150.332c-47.562-6.368-98.959-8.755-152.563-6.446
		c-241.977,10.402-439.337,112.578-439.337,227.438c-0.48,62.449,56.172,116.092,149.36,150.396l165.429-168.604l-82.111,298.354
		L578.75,1217.16l-74.512,266.438c228.94-16.771,411.181-115.431,411.181-225.804C915.419,1183.05,831.803,1120.86,706.723,1089.422
		z M425.447,1323.901l57.48-227.19l-283.727,263.648c-48.546-24.318-77.585-56.848-77.585-93.9
		c0-87.3,161.071-167.557,358.575-178.672c47.509-2.687,92.89-1.115,134.432,4.021L425.447,1323.901z M627.854,1382.369
		l73.539-273.143c83.553,24.354,137.391,66.418,137.391,116.883C838.768,1290.168,752.039,1350.425,627.854,1382.369z"/>
	<path d="M1104.064,1128.162H1002.9l-81.764,280.601h77.224l32.049-109.981l13.268-64.099l-7.857,174.08h60.229l93.084-171.045
		l-23.968,61.062l-32.049,109.983h76.846l81.749-280.601h-100.762l-93.732,170.617L1104.064,1128.162L1104.064,1128.162z
		 M1324.537,1128.162l-81.762,280.601h83.785l81.772-280.601H1324.537L1324.537,1128.162z M1442.679,1128.162l-81.748,280.601
		h109.257c19.561,0,38.273-2.604,56.133-7.808c17.861-5.202,34.308-13.631,49.272-25.33c14.993-11.673,28.3-26.848,39.896-45.472
		c11.597-18.625,20.896-41.22,27.859-67.769c7.042-26.848,8.08-48.936,3.086-66.25c-4.992-17.328-12.97-31.037-23.939-41.141
		c-10.63-9.925-23.503-17.13-37.521-20.998c-14.033-3.903-26.729-5.85-38.054-5.85H1442.68L1442.679,1128.162L1442.679,1128.162z
		 M1505.504,1194.84c21.283-0.571,37.289,4.111,48.027,14.072s12.359,28.65,4.89,56.094c-4.708,16.16-10.362,29.363-16.951,39.623
		c-6.589,10.232-14.008,18.235-22.27,24.021c-8.235,5.771-17.067,9.598-26.497,11.479c-9.429,1.881-19.48,2.529-30.115,1.945
		L1505.504,1194.84z M1678.625,1128.162l-16.926,280.601h81.087l74.499-161.513l-16.939,161.513h81.463l141.98-280.601h-78.376
		l-77.507,170.617l22.281-170.617h-76.041l-73.668,170.617l21.529-170.617H1678.625L1678.625,1128.162z M2087.12,1128.162
		l-172.108,280.601h84.563l18.688-36.38h81.463l-2.478,36.38h84.563l-7.809-280.601H2087.12L2087.12,1128.162z M2051.143,1313.928
		l50.945-91.356l-1.92,91.356H2051.143z M2193.304,1128.162l40.44,179.281l-29.546,101.317h81.464l29.545-101.317l147.984-179.281
		h-95.758l-67.025,90.931l-14.438-90.931H2193.304z"/>
</g>
</svg>
