<?xml version="1.0" encoding="utf-8"?>
<!-- Generator: Adobe Illustrator 16.0.0, SVG Export Plug-In . SVG Version: 6.00 Build 0)  -->
<!DOCTYPE svg PUBLIC "-//W3C//DTD SVG 1.1//EN" "http://www.w3.org/Graphics/SVG/1.1/DTD/svg11.dtd">
<svg version="1.1" id="Layer_2" xmlns="http://www.w3.org/2000/svg" xmlns:xlink="http://www.w3.org/1999/xlink" x="0px" y="0px"
	 width="497.865px" height="118.535px" viewBox="34.962 0.995 497.865 118.535"
	 enable-background="new 34.962 0.995 497.865 118.535" xml:space="preserve">
<path fill="#0849FF" d="M78.46,38.624c0-6.959-3.479-11.309-9.569-11.309c-6.09,0-7.83,4.35-7.83,9.569
	c0,5.22,4.35,9.57,20.879,17.4s20.01,18.27,20.01,31.318S91.51,119.53,68.021,119.53s-33.059-14.789-33.059-36.539
	c15.66,0,20.879,0,20.879,0c0,8.699,4.35,13.05,11.31,13.05c6.959,0,9.57-5.219,9.57-9.569c0-4.349,0.698-6.609-24.359-19.14
	c-15.66-7.829-16.53-25.229-16.53-30.449c0-5.219,2.61-21.748,16.53-29.578c13.918-7.83,33.928-2.61,41.757,7.83
	c7.831,10.439,5.22,23.488,5.22,23.488C90.639,38.624,78.46,38.624,78.46,38.624z"/>
<g>
	<g>
		<path fill="#0849FF" d="M266.373,4.695h-25.229v62.637L200.256,3.825h-25.229v66.117L132.398,4.695h-26.099l0.871,114.835h28.708
			v-17.398h25.229l10.439,16.529h32.189c0,0,0-48.719,0-55.68l36.539,56.549h28.708V62.981l36.539,55.68h33.93L266.373,4.695z
			 M135.878,79.513V62.981l11.309,16.529h-11.309V79.513z"/>
	</g>
</g>
<path fill="#0849FF" d="M344.67,117.79L272.463,4.695h145.284l-33.93,53.938c0,0-8.699-5.219-20.01,12.181
	c-11.309,17.399-6.089,24.358-5.22,26.969C355.11,103.871,344.67,117.79,344.67,117.79z"/>
<g>
	<g>
		<path fill="#C60000" d="M518.911,55.825c-3.624,1.885-8.99,0.725-10.004-5.219c12.612-8.41,15.948-13.195,17.108-19.864
			c1.159-6.669-4.785-6.96-10.875-3.19c-6.089,3.771-14.353,13.484-14.644,25.808c-3.914,5.655-7.974,12.18-14.353,11.89
			c7.247-13.485,8.698-20.008,7.684-24.793c-1.014-4.785-6.234-4.785-18.123,13.049c1.159-10.729,5.652-20.298,6.523-22.908
			c0.869-2.61,1.015-4.785-1.741-4.06c-2.752,0.725-6.378,7.249-11.162,19.138c-4.785,11.889-12.47,22.472-14.788,25.228
			c-2.32,2.756-6.236,3.914-5.946-3.336c0.291-7.249,4.931-13.047,5.946-16.236c1.015-3.19-0.727-8.555-2.756-7.25
			c-2.03,1.305-8.556,13.774-11.744,19.283c-3.189,5.51-7.104,10.584-8.554,12.033s-4.352,1.016-3.19-3.479
			c1.16-4.495,4.204-9.134,5.655-11.454c1.45-2.32,4.495-7.104,1.305-8.409c-3.19-1.305-10.875,2.755-13.483,20.443
			c-2.175,4.494-4.931,7.395-8.265,8.554c1.305-6.38,2.899-22.037-3.334-18.993c1.015-3.479-0.727-5.074-4.061-4.494
			c-3.335,0.58-17.108,8.41-17.979,25.953c-3.045,5.364-10.729,12.18-14.789,12.18c-4.059,0-6.379-3.626-6.089-7.539
			c0.29-3.915,5.364-9.28,7.829-10.439c0.871,2.176,2.319,2.03,3.19,2.03c0.869,0,3.623-3.19,4.639-8.12
			c1.015-4.93,0.436-7.395-2.029-8.265c-2.464-0.869-9.279,3.479-13.339,9.28c-4.06,5.799-11.021,17.106-2.175,27.11
			c8.845,10.005,17.688-0.869,24.068-12.758c1.738,6.522,6.669,9.278,10.292,9.278c3.625,0,9.426-4.495,11.744-9.713
			c3.48,0.144,8.409-4.352,10.584-8.556c-0.145,4.64,5.655,8.989,9.137,8.265c3.479-0.727,7.974-9.426,10.729-15.369
			c0,7.686-0.436,13.484,5.075,13.34c5.509-0.146,14.063-15.805,23.487-33.058c-4.351,21.023-7.539,28.417-8.266,34.507
			c-0.725,6.089,0.58,15.078,3.188,15.078c2.61,0,4.932-12.903,5.655-24.357c5.51-1.596,6.671-2.029,7.685-2.029
			c1.017,0,4.785,1.596,10.438-2.465c5.656-4.061,8.989-9.279,13.051-14.644c3.045,7.395,8.264,10.003,16.817,5.22
			c8.555-4.785,13.049-18.124,13.774-21.458C527.902,48.866,522.535,53.94,518.911,55.825z M406.112,82.358
			c-0.289,5.654-4.205,7.248-5.944,7.248s-4.929-0.289-4.929-5.799c0-5.509,4.929-12.033,10.147-17.108
			c2.03-1.884-0.146,3.045-0.725,8.554C404.081,80.765,404.951,83.083,406.112,82.358z M474.691,66.265
			c1.595-8.409,7.828-17.688,10.873-17.688c3.044,0-0.87,9.569-2.609,13.049C481.215,65.104,478.314,65.396,474.691,66.265z
			 M517.752,31.323c2.754-2.32,3.914,1.015,1.159,4.93c-2.753,3.914-8.845,9.569-10.439,10.149
			C509.198,38.718,514.996,33.643,517.752,31.323z"/>
	</g>
</g>
<path fill="#C60000" d="M508.327,23.784c0.145-3.625,2.028-8.554,5.365-12.468C517.027,7.4,522.825,1.311,525,1.021
	c2.176-0.29,3.191,1.885,3.191,5.365s0,4.639-2.467,6.524c-2.465,1.885-10.584,7.684-11.888,8.989
	C512.531,23.204,508.182,27.698,508.327,23.784z"/>
</svg>
