<svg id="Layer_3" data-name="Layer 3" xmlns="http://www.w3.org/2000/svg" viewBox="0 0 83.25 113.1"><path d="M44.3,113.8h-.9c-3.8-.3-13.4-1.2-18.7-1.8l-4.2-.4c-5.5-.4-9.1-7.6-9.6-8.5C8.6,101,8.3,96.7,8.3,95v-.5c.2-.7.5-2.8-.3-3.9A1.78,1.78,0,0,0,6.7,90C1.5,89.1.4,84.2.5,81.7L2.1,50c.2-3.6.3-5.2.4-5.8H2.4a8.62,8.62,0,0,1,5.5-7.7c1.5-1.2,1.9-2.2,2.5-6.5a9.29,9.29,0,0,1,4.3-7.5c3.2-1.8,38.6-20.8,39-21A9.09,9.09,0,0,1,57.4.7a10.9,10.9,0,0,1,4.4,1A9.06,9.06,0,0,1,63.7,3a1.69,1.69,0,0,1,.5.2c3.7,3.4,9.1,8.6,10,9.4h0l.1.1a12.26,12.26,0,0,1,4.6,7.2v.3c.2,4.2.7,11.8.9,14.3a5.53,5.53,0,0,0,.1.9h0a15,15,0,0,1-.4,4C78.6,43,75.9,49.3,67,52.2a9.78,9.78,0,0,1-2.6.3,17.23,17.23,0,0,1-6.5-1.3L47.5,46.4c-.5-.2-.9-.4-1.3-.6a7.84,7.84,0,0,1-1.5-1l-1,.2.6,20.4a15.23,15.23,0,0,1,10.5-6.6A15.41,15.41,0,0,1,63.7,60l3.7,1.2a50.36,50.36,0,0,1,5.5,1.9V63a14.58,14.58,0,0,1,9.9,8.8c1.4,3.9,2,10.4-3.8,18.9,0,.2-.1.2-.2.4a15.17,15.17,0,0,1-8.1,5.2c-.7,4.5-3.1,14.3-12.5,15.7-3.8.6-9.5,1.2-11.4,1.4a6.57,6.57,0,0,1-2.5.4Zm-27.9-9.3c1.6,1.9,3,3,4.3,3.1l4.2.4c5.6.6,15,1.5,18.6,1.8a4.89,4.89,0,0,0,1.3-.1l.1-.1H45a.9.9,0,0,1,.5-.1h.3a6.94,6.94,0,0,0,2.9-1.6c4.3-3.7,5.6-11.8,5.7-13.6v-.5a2,2,0,0,1,1.7-1.4h.3c.7,0,4-.2,7.8-4.5,7-10.3,4.8-16.8,3-19.7A11.44,11.44,0,0,0,62,63.7l-1.5-.5a.31.31,0,0,0-.2-.1c-.1,0-.2-.1-.3-.1a12.2,12.2,0,0,0-3.4-.4,10.28,10.28,0,0,0-1.7.1,10.58,10.58,0,0,0-5.7,2.5c.2,0,.3-.1.5-.1a9,9,0,0,1,2.3-.2,7.16,7.16,0,0,1,4.4,1.3,8.85,8.85,0,0,1,3.5,5.6c.3,1,1.2,7-1.7,11a.1.1,0,0,1-.1.1V83l-.1.1a13.53,13.53,0,0,1-8.4,4c-2.2.9-3,3.6-3.3,5.7a19.08,19.08,0,0,0-.3,2.8c0,.4-.1.7-.1,1v.1a13.76,13.76,0,0,1-.7,3.5c-1,3.5-5.3,5.3-9,5.4C34,105.6,22.3,104.9,16.4,104.5Zm42-7.9c-.3,2-1.4,7.8-4.8,12.2l1.9-.3c.7-.1,1.3-.2,1.9-.3,6.4-1,8.4-8,9-11.5ZM12.3,95.3c0,2.3.7,5,1.6,5,3.7.3,18.3,1.2,22,1.2h.4c2.3,0,4.7-1.2,5.1-2.4a11.65,11.65,0,0,0,.6-2.8,28,28,0,0,1,.4-3.8c1.1-8.2,6.6-9,6.7-9h.2a8.8,8.8,0,0,0,5.8-2.9c1.2-1.6,1.5-4.3,1-7.7v-.3a4.72,4.72,0,0,0-1.9-3,3.28,3.28,0,0,0-2.1-.6,10.4,10.4,0,0,0-1.5.2c-3.7.8-4.6,5.3-4.6,5.3h0s-.3,3-.6,5.8c-.5,5-5.8,7-7.4,7.5h-.5c-.1,0-.7,0-1.7.1-2.8.2-8.5.5-11.6.6a5.64,5.64,0,0,1-3.9-1.4c-2.2-2.2-2.2-5.9-2.2-6.1l.2-35.5c0-4.1,0-5.9.1-6.6h-.1c-.1-1.6.1-6.8,4.2-8.8,2.1-1,6-2.9,8.8-4.3a33.06,33.06,0,0,1,3.9-1.9c.1,0,.2-.1.3-.1a10,10,0,0,1,2.7-.3,6.71,6.71,0,0,1,3.3.8,4.45,4.45,0,0,1,2,2.9l.6,3.2v.3h0a3.43,3.43,0,0,0,1.2,2.1,3.26,3.26,0,0,0,1.4.4,7.72,7.72,0,0,0,1.5-.2c4.8-1.2,5-6.6,5-6.6S52.2,13.5,52,9a2.14,2.14,0,0,0-.8-1.2c-.1-.1-.3-.1-.6-.1a4.46,4.46,0,0,0-1.8.5c-.5.3-12.2,6.6-22.5,12.2l-9.9,5.4-.1.1a6.16,6.16,0,0,0-2.2,4.3c-.6,4.7-1.2,7.2-4.2,9.5-.2.1-.3.1-.4.2s-.1,0-.2.1a4.57,4.57,0,0,0-3.1,4.3L4.4,81.8c0,.1,0,3.8,2.9,4.2a6.31,6.31,0,0,1,4,2.5C13.1,91.1,12.5,94.5,12.3,95.3Zm56.4-2.5c.4,0,3.4-.1,6.8-3.9,5.3-7.9,4.4-13,3.4-15.4a10.7,10.7,0,0,0-7.3-6.4l-.3-.1c2.3,4,4.4,11.9-3.6,23.4l-.2.2a22.82,22.82,0,0,1-2.2,2.2C65.5,92.7,68.7,92.8,68.7,92.8Zm-32.1-65c-1.4.7-9.1,4.5-12.4,6.1-1.9.9-1.9,4-1.9,5l-.2,42.3a5.11,5.11,0,0,0,1.1,3.1,1.22,1.22,0,0,0,.9.3c3.6-.1,11.8-.6,13-.7.1,0,3.2-1,3.9-2.9,0,0-10.9,1.1-11,1.1a2.52,2.52,0,0,1-1.6-.5,2,2,0,0,1-.6-1.5l-.2-41.7.1-.2c0-.1.1-.2.2-.3l.5-.5h.1a.35.35,0,0,0,.2-.1l.1-.1h.1l10.8-4.4a.76.76,0,0,1,.5-.2,5,5,0,0,1-.3-1.4l-.6-3-.1-.2a1.8,1.8,0,0,0-1.1-.3A7.57,7.57,0,0,0,36.6,27.8ZM32.1,77.6l8.5-.8-1-31.9L32,41.8ZM55.7,45.7c2,.9,3.7,1.7,3.7,1.7a15.45,15.45,0,0,0,4.7.8c.6,0,1-.1,1.3-.1,9.8-3.2,10.2-11.2,10.2-12.8,0-.1,0-.7-.1-1.7-.2-3.1-.7-9.5-.9-13.4-.4-2.3-1.8-3.5-3.2-4.8L67.7,12c.3,4.5.8,10.9,1,13.8.1,1.4.1,1.6.1,1.7C68.8,28.1,69,40.5,55.7,45.7Zm-7.6-3.5.7.4a5.82,5.82,0,0,0,1.9.3,6.2,6.2,0,0,0,2.3-.4c11.3-3.6,11.7-12.8,11.7-14.6a6.61,6.61,0,0,0-.1-1.1c-.2-3.1-.9-11.4-1.1-16.1a7.32,7.32,0,0,0-3.8-5.5A6.26,6.26,0,0,0,57,4.6a4.84,4.84,0,0,0-1.8.3l-.7.4a7,7,0,0,1,1.6,3v.5c.1,2.9.7,10.7,1,14.8.2,2.4.2,2.7.2,2.8v.1c-.1,3-1.9,8.9-8.1,10.5a8.24,8.24,0,0,1-2.6.4,6.9,6.9,0,0,1-3.2-.8c.8,1.9,2.2,4.4,4.4,5.7l.3-.1Zm-6.5-.9A25.12,25.12,0,0,1,39.4,37l-4.2,1.7Z" transform="translate(-0.49 -0.7)" style="fill:#e60013"/></svg>