<?xml version="1.0" encoding="utf-8"?>
<!-- Generator: Adobe Illustrator 24.2.1, SVG Export Plug-In . SVG Version: 6.00 Build 0)  -->
<svg version="1.1" id="Layer_3" xmlns="http://www.w3.org/2000/svg" xmlns:xlink="http://www.w3.org/1999/xlink" x="0px" y="0px"
	 viewBox="0 0 84.3 114.3" style="enable-background:new 0 0 84.3 114.3;" xml:space="preserve">
<style type="text/css">
	.st0{fill:#E60013;}
</style>
<g>
	<path class="st0" d="M44.3,113.8c-0.3,0-0.6,0-0.9,0c-3.8-0.3-13.4-1.2-18.7-1.8l-4.2-0.4c-5.5-0.4-9.1-7.6-9.6-8.5
		c-2.3-2.1-2.6-6.4-2.6-8.1v-0.4l0-0.1c0.2-0.7,0.5-2.8-0.3-3.9C7.7,90.3,7.3,90,6.7,90c-5.2-0.9-6.3-5.8-6.2-8.3l1.6-31.7
		c0.2-3.6,0.3-5.2,0.4-5.8H2.4c0-0.1,0.1-5.7,5.5-7.7c1.5-1.2,1.9-2.2,2.5-6.5c0.3-5.2,4.2-7.5,4.3-7.5c3.2-1.8,38.6-20.8,39-21
		c1.1-0.5,2.4-0.8,3.7-0.8c1.5,0,3.1,0.4,4.4,1c0.8,0.4,1.3,0.8,1.9,1.3c0.1,0,0.3,0.1,0.5,0.2c3.7,3.4,9.1,8.6,10,9.4l0,0l0.1,0.1
		c1.9,1.6,3.9,3.7,4.6,7.2l0,0.3c0.2,4.2,0.7,11.8,0.9,14.3c0,0.5,0.1,0.8,0.1,0.9h0c0.1,0.8-0.1,2.8-0.4,4
		c-0.9,3.6-3.6,9.9-12.5,12.8c-0.7,0.2-1.6,0.3-2.6,0.3c-2.5,0-5.3-0.7-6.5-1.3l-10.4-4.8c-0.5-0.2-0.9-0.4-1.3-0.6
		c-0.6-0.3-1-0.6-1.5-1L43.7,45l0.6,20.4c2.4-3.6,6.1-5.9,10.5-6.6c0.7-0.1,1.5-0.2,2.3-0.2c2.3,0,4.6,0.5,6.6,1.4l3.7,1.2
		c3.5,1.1,4.9,1.6,5.5,1.9l0-0.1c4.5,1.2,8.3,4.5,9.9,8.8c1.4,3.9,2,10.4-3.8,18.9c0,0.2-0.1,0.2-0.2,0.4c-3.1,3.6-6.3,4.8-8.1,5.2
		c-0.7,4.5-3.1,14.3-12.5,15.7c-3.8,0.6-9.5,1.2-11.4,1.4C46.1,113.7,45.2,113.8,44.3,113.8L44.3,113.8z M16.4,104.5
		c1.6,1.9,3,3,4.3,3.1l4.2,0.4c5.6,0.6,15,1.5,18.6,1.8c0.5,0,1,0,1.3-0.1l0.1-0.1H45c0.2-0.1,0.3-0.1,0.5-0.1h0.3
		c1.1-0.3,2-0.8,2.9-1.6c4.3-3.7,5.6-11.8,5.7-13.6l0-0.4l0-0.1c0.3-0.8,0.9-1.3,1.7-1.4l0.3,0c0.7,0,4-0.2,7.8-4.5
		c7-10.3,4.8-16.8,3-19.7c-1.2-2-3-3.5-5.2-4.5l-1.5-0.5c-0.1-0.1-0.2-0.1-0.2-0.1c-0.1,0-0.2-0.1-0.3-0.1c-1-0.3-2.2-0.4-3.4-0.4
		c-0.5,0-1.1,0-1.7,0.1c-2.2,0.3-4.1,1.1-5.7,2.5c0.2,0,0.3-0.1,0.5-0.1c0.8-0.2,1.5-0.2,2.3-0.2c1.7,0,3.2,0.4,4.4,1.3
		c2.9,2,3.5,5.4,3.5,5.6c0.3,1,1.2,7-1.7,11c0,0,0,0.1-0.1,0.1v0.1l-0.1,0.1c-1.6,1.6-4.3,3.6-8.4,4c-2.2,0.9-3,3.6-3.3,5.7
		c-0.2,1.3-0.3,2.1-0.3,2.8c0,0.4-0.1,0.7-0.1,1l0,0.1c-0.1,1.1-0.1,1.4-0.7,3.5c-1,3.5-5.3,5.3-9,5.4
		C34,105.6,22.3,104.9,16.4,104.5z M58.4,96.6c-0.3,2-1.4,7.8-4.8,12.2c0.6-0.1,1.3-0.2,1.9-0.3c0.7-0.1,1.3-0.2,1.9-0.3
		c6.4-1,8.4-8,9-11.5L58.4,96.6z M12.3,95.3c0,2.3,0.7,5,1.6,5c3.7,0.3,18.3,1.2,22,1.2c0.2,0,0.3,0,0.4,0c2.3,0,4.7-1.2,5.1-2.4
		c0.5-1.8,0.5-1.8,0.6-2.8c0-0.7,0.1-1.8,0.4-3.8c1.1-8.2,6.6-9,6.7-9h0.2c0,0,3,0,5.8-2.9c1.2-1.6,1.5-4.3,1-7.7c0-0.2,0-0.2,0-0.3
		c0-0.3-0.5-2.1-1.9-3c-0.5-0.4-1.2-0.6-2.1-0.6c-0.4,0-0.9,0.1-1.5,0.2C46.9,70,46,74.5,46,74.5l0,0c0,0-0.3,3-0.6,5.8
		c-0.5,5-5.8,7-7.4,7.5l-0.1,0l-0.1,0h-0.3c-0.1,0-0.7,0-1.7,0.1c-2.8,0.2-8.5,0.5-11.6,0.6c-1.6,0-2.9-0.5-3.9-1.4
		c-2.2-2.2-2.2-5.9-2.2-6.1l0.2-35.5c0-4.1,0-5.9,0.1-6.6h-0.1c-0.1-1.6,0.1-6.8,4.2-8.8c2.1-1,6-2.9,8.8-4.3
		c3.2-1.6,3.7-1.9,3.9-1.9c0.1,0,0.2-0.1,0.3-0.1c1.1-0.3,2.1-0.3,2.7-0.3c1.3,0,2.4,0.3,3.3,0.8c1.1,0.7,1.8,1.8,2,2.9l0.6,3.2
		l0,0.3c0,0,0,0,0,0c0,0,0.2,1.4,1.2,2.1c0.4,0.2,0.9,0.4,1.4,0.4c0.5,0,1-0.1,1.5-0.2c4.8-1.2,5-6.6,5-6.6c0-0.1-1-12.9-1.2-17.4
		c-0.1-0.5-0.5-1-0.8-1.2c-0.1-0.1-0.3-0.1-0.6-0.1c-0.5,0-1.2,0.2-1.8,0.5c-0.5,0.3-12.2,6.6-22.5,12.2l-9.9,5.4
		c0,0-0.1,0.1-0.1,0.1c-0.5,0.4-2,1.8-2.2,4.3c-0.6,4.7-1.2,7.2-4.2,9.5c-0.2,0.1-0.3,0.1-0.4,0.2c-0.1,0-0.1,0-0.2,0.1
		c-3.1,1-3.1,4.2-3.1,4.3L4.4,81.8c0,0.1,0,3.8,2.9,4.2c1.6,0.3,3.1,1.2,4,2.5C13.1,91.1,12.5,94.5,12.3,95.3z M68.7,92.8
		c0.4,0,3.4-0.1,6.8-3.9c5.3-7.9,4.4-13,3.4-15.4c-1.2-3.1-3.9-5.5-7.3-6.4l-0.3-0.1c2.3,4,4.4,11.9-3.6,23.4l-0.2,0.2
		c-0.7,0.9-1.5,1.5-2.2,2.2C65.5,92.7,68.7,92.8,68.7,92.8z M36.6,27.8c-1.4,0.7-9.1,4.5-12.4,6.1c-1.9,0.9-1.9,4-1.9,5l-0.2,42.3
		c0,0.6,0.3,2.4,1.1,3.1c0.2,0.2,0.5,0.3,0.9,0.3c3.6-0.1,11.8-0.6,13-0.7c0.1,0,3.2-1,3.9-2.9c0,0-10.9,1.1-11,1.1
		c-0.5,0-1.1-0.1-1.6-0.5c-0.4-0.4-0.6-0.9-0.6-1.5l-0.2-41.7l0.1-0.2c0-0.1,0.1-0.2,0.2-0.3l0.5-0.5l0.1,0c0.1,0,0.2-0.1,0.2-0.1
		l0.1-0.1l0.1,0l10.8-4.4c0.1-0.1,0.3-0.2,0.5-0.2c-0.2-0.6-0.3-1.1-0.3-1.4l-0.6-3c-0.1-0.2-0.1-0.2-0.1-0.2
		c-0.3-0.2-0.6-0.3-1.1-0.3C37.6,27.7,37.1,27.7,36.6,27.8z M32.1,77.6l8.5-0.8l-1-31.9L32,41.8L32.1,77.6z M55.7,45.7
		c2,0.9,3.7,1.7,3.7,1.7c0.7,0.3,2.9,0.8,4.7,0.8c0.6,0,1-0.1,1.3-0.1c9.8-3.2,10.2-11.2,10.2-12.8c0-0.1,0-0.7-0.1-1.7
		c-0.2-3.1-0.7-9.5-0.9-13.4c-0.4-2.3-1.8-3.5-3.2-4.8l-3.7-3.4c0.3,4.5,0.8,10.9,1,13.8c0.1,1.4,0.1,1.6,0.1,1.7
		C68.8,28.1,69,40.5,55.7,45.7z M48.1,42.2l0.7,0.4c0.6,0.2,1.2,0.3,1.9,0.3c0.8,0,1.5-0.1,2.3-0.4c11.3-3.6,11.7-12.8,11.7-14.6
		c0-0.1,0-0.5-0.1-1.1c-0.2-3.1-0.9-11.4-1.1-16.1c-0.6-3.6-2.9-5-3.8-5.5c-0.8-0.4-1.8-0.6-2.7-0.6c-0.7,0-1.3,0.1-1.8,0.3
		l-0.7,0.4c0.6,0.6,1.2,1.6,1.6,3l0,0.1v0.4c0.1,2.9,0.7,10.7,1,14.8c0.2,2.4,0.2,2.7,0.2,2.8v0.1c-0.1,3-1.9,8.9-8.1,10.5
		c-0.9,0.3-1.8,0.4-2.6,0.4c-1.2,0-2.2-0.3-3.2-0.8c0.8,1.9,2.2,4.4,4.4,5.7L48.1,42.2L48.1,42.2z M41.6,41.3
		c-1-1.5-1.7-3.1-2.2-4.3l-4.2,1.7L41.6,41.3z"/>
	<path d="M57.3,1c1.4,0,2.9,0.3,4.2,1c0.7,0.4,1.3,0.8,1.9,1.3c0.1,0,0.2,0,0.3,0.1c0,0,10.1,9.5,10.2,9.5c0,0,0,0,0,0
		c1.9,1.6,3.8,3.6,4.4,6.9c0,0.1,0,0.2,0,0.2c0.2,5.1,1,15.1,1,15.2c0.1,0.1,0.6,12.1-12.6,16.4c-0.7,0.2-1.5,0.3-2.5,0.3
		c-2.4,0-5.2-0.6-6.2-1.2l-10.4-4.8c-0.5-0.2-0.9-0.4-1.3-0.6c-0.6-0.3-1.1-0.7-1.6-1.1l-1.5,0.5l0.7,22.5c2.3-4.3,6.2-7.1,11-7.8
		c0.7-0.1,1.5-0.1,2.2-0.1c2.2,0,4.4,0.4,6.4,1.3c3,1,9.4,3.1,9.3,3.1c4.5,1.2,8,4.4,9.6,8.5c1.4,3.8,1.9,10.1-3.8,18.5
		c0,0.1,0,0.1-0.1,0.2c-3.2,3.7-6.4,4.8-8.2,5.1c-0.5,3.8-2.6,14.2-12.1,15.6c-3.8,0.6-9.5,1.2-11.4,1.4c-0.8,0.2-1.6,0.3-2.5,0.3
		c-0.3,0-0.6,0-0.9,0c-3.6-0.3-13.1-1.2-18.7-1.8l-4.2-0.4c-5.2-0.4-8.8-7.4-9.2-8.3c-2.5-2.2-2.5-7.1-2.5-7.8v-0.3
		c0.2-0.8,0.5-3-0.4-4.3c-0.4-0.5-0.9-0.8-1.6-0.9C2,88.7,0.9,84.1,1,81.7c0,0,1.9-37.6,1.9-37.6c0,0,0,0,0,0c0-0.2,0.2-5.4,5.2-7.3
		c1.7-1.3,2.1-2.4,2.7-6.9c0.3-4.8,3.8-7,4-7.1c3.3-1.8,39-21,39-21C54.8,1.3,56,1,57.3,1 M46.6,36.6c-1.3,0-2.5-0.4-3.5-1.1
		c-0.2-0.2-0.5-0.4-0.7-0.6c0.6,1.9,2.2,5.8,5.2,7.5c0,0.1,0.1,0.1,0.1,0.1c0.1,0,0.2,0.1,0.3,0.1c0,0,0.2,0.1,0.6,0.3
		c0.7,0.2,1.4,0.4,2.1,0.4c0.8,0,1.6-0.1,2.5-0.5c12.5-4,12-14.7,12-15.1c0-0.1-0.9-11.4-1.2-17.2c-0.6-3.7-2.8-5.3-4.1-5.9
		C59,4.2,57.9,4,57,4c-0.7,0-1.4,0.1-2,0.4l-1.4,0.7c0.8,0.6,1.6,1.6,2,3.2v0.3c0.2,4.1,1.2,17.4,1.2,17.6v0.1
		c-0.1,2.8-1.8,8.5-7.7,10C48.2,36.5,47.4,36.6,46.6,36.6 M35.9,102.1c0.2,0,0.3,0,0.5,0c2.3,0,5.1-1.2,5.6-2.8
		c0.5-1.9,0.5-1.9,0.6-2.9c0-0.7,0.1-1.7,0.4-3.8c1-7.6,6-8.6,6.2-8.6c0,0,0.1,0,0.2,0c0.2,0,3.3-0.1,6.2-3c2.2-3,1.1-8.1,1.1-8.3
		c0-0.1-0.4-2.3-2.1-3.4c-0.6-0.5-1.4-0.7-2.3-0.7c-0.5,0-1,0.1-1.6,0.2c-4.2,0.8-5.2,5.6-5.2,5.7c0,0-0.3,3-0.6,5.8
		c-0.5,5.3-6.8,7-7.1,7.1h-0.3c-0.3,0-9.2,0.6-13.3,0.7c-1.4,0-2.6-0.4-3.5-1.3c-2-2-2.1-5.3-2.1-5.7c0,0,0.2-42.1,0.2-42.1
		c0,0,0,0,0,0s0,0,0,0c0,0,0,0,0,0c0-0.2-0.4-6.3,3.9-8.3c3.6-1.7,12.5-6.2,12.6-6.2c0.1,0,0.2-0.1,0.3-0.1c0.2-0.1,1.3-0.3,2.6-0.3
		c1,0,2.1,0.2,3,0.7c0.9,0.6,1.6,1.5,1.8,2.6l0.6,3.2c0,0.1,0,0.1,0,0.2c0,0,0.2,1.7,1.4,2.5c0.5,0.3,1,0.4,1.7,0.4
		c0.5,0,1.1-0.1,1.7-0.2c4.9-1.2,5.4-6.5,5.4-7.1c-0.1-1.3-1-13.2-1.2-17.4c-0.2-0.8-0.6-1.4-1.1-1.6c-0.2-0.1-0.5-0.1-0.8-0.1
		c-0.7,0-1.5,0.2-2,0.5C48,8.2,27.1,19.5,16.2,25.4c0,0.1-2.3,1.6-2.5,4.8c-0.6,4.8-1.2,7-4,9.1c-0.2,0.1-0.3,0.1-0.5,0.2
		c-3.3,1.1-3.4,4.5-3.4,4.7L3.9,81.8c0,0.1,0,4.2,3.3,4.7c1.5,0.3,2.8,1.1,3.7,2.3c1.6,2.4,1.1,5.6,0.9,6.5c0,1.9,0.6,5.5,2.1,5.6
		C17.5,101.2,32.2,102.1,35.9,102.1 M64.1,48.7c0.6,0,1.1-0.1,1.5-0.2C76.5,45,76.1,35.7,76.1,35.3c0-0.1-0.7-9.9-1-15.1
		c-0.4-2.5-1.9-3.8-3.4-5.1l-4.6-4.2c0.3,5.9,1.2,16.5,1.2,16.7c0,0.1,0.6,13.2-13.9,18.1c2.5,1.1,4.8,2.2,4.8,2.2
		C60,48.2,62.3,48.7,64.1,48.7 M24.1,85.1c3.7-0.1,11.8-0.6,13-0.7c0.7-0.2,4.3-1.4,4.5-4L30,81.6c-0.5,0-0.9-0.1-1.2-0.4
		c-0.3-0.3-0.5-0.7-0.5-1.1l-0.2-41v-0.5c0,0,0,0,0-0.1c0.1-0.1,0.1-0.2,0.2-0.3c0.1-0.1,0.2-0.2,0.3-0.3c0.1-0.1,0.1-0.1,0.1-0.1
		c0.2-0.1,0.3-0.1,0.4-0.2l10.8-4.4c0.2-0.1,0.4-0.2,0.6-0.2c0.1,0,0.3,0,0.4,0.1c-0.4-0.9-0.5-1.6-0.5-1.9l-0.6-3.1
		c-0.1-0.3-0.2-0.5-0.4-0.6c-0.3-0.2-0.8-0.3-1.3-0.3c-0.6,0-1.2,0.1-1.7,0.2c-1.2,0.6-9.1,4.5-12.4,6.1c-2.4,1.1-2.2,5.3-2.2,5.5
		l-0.2,42.2c0,0.6,0.3,2.6,1.2,3.5C23.2,85,23.6,85.1,24.1,85.1 M41.6,41.9l0.8-0.3c-1.4-1.8-2.2-3.8-2.7-5.2l-5.8,2.4L41.6,41.9
		 M31.6,78.2l9.5-0.9l-1-32.7l-8.6-3.5L31.6,78.2 M47.6,66.5c0.7-0.3,1.5-0.6,2.4-0.8c0.7-0.2,1.5-0.2,2.1-0.2c1.6,0,3,0.4,4.2,1.2
		c2.8,1.9,3.3,5.3,3.3,5.3c0.1,0.2,1.4,6.6-1.7,10.7c0,0.1-0.1,0.1-0.1,0.2c-3.4,3.4-7.3,3.8-8.2,3.9c-0.5,0.2-3,1.1-3.7,6.1
		c-0.3,2.1-0.3,3.1-0.4,3.7c-0.1,1.2-0.1,1.4-0.7,3.5c-0.9,3.2-5,4.9-8.5,5c-2.5,0-15.5-0.7-21-1.1c1.4,1.9,3.3,4,5.3,4.2l4.2,0.4
		c5.6,0.6,15,1.5,18.6,1.8c0.6,0,1.2,0,1.6-0.2c0.2,0,0.3-0.1,0.5-0.1c0,0,0.2,0,0.4,0c1.2-0.3,2.2-0.8,3.2-1.7
		c4.5-3.9,5.8-12.1,5.9-13.9c0,0,0,0,0-0.1c0-0.1,0-0.1,0-0.2c0.2-0.6,0.7-1,1.3-1.1c0.1,0,0.1,0,0.2,0h0.1c0.6,0,4.1-0.2,8.1-4.7
		c7.1-10.5,5-17.2,3-20.3c-1.3-2.1-3.2-3.7-5.4-4.7l-1.6-0.5c-0.2-0.1-0.3-0.1-0.4-0.2c-1.2-0.3-2.4-0.5-3.6-0.5
		c-0.6,0-1.1,0-1.7,0.1C52,62.7,49.5,64.1,47.6,66.5 M68.7,93.3c0.4,0,3.5-0.1,7.2-4.1c5.1-7.5,4.8-12.9,3.5-15.9
		c-1.2-3.2-4-5.7-7.6-6.7L70.1,66c0.2,0.2,0.3,0.3,0.4,0.5c2.4,3.7,5.1,11.7-3.1,23.6l-0.1,0.1c-1.1,1.3-2.2,2.2-3.2,3L68.7,93.3
		C68.7,93.3,68.7,93.3,68.7,93.3 M52.5,109.5c1.7-0.2,3.5-0.5,5-0.7c7.1-1.1,9-9.1,9.5-12.5l-9-0.2C57.6,99.3,56.1,105.4,52.5,109.5
		 M57.3,0C57.3,0,57.3,0,57.3,0c-1.4,0-2.8,0.3-3.9,0.9c-0.4,0.2-35.8,19.2-39,21c-0.9,0.4-4.2,3.1-4.5,7.9c-0.6,4.4-1,5.1-2.2,6.1
		c-4.7,1.9-5.7,6.5-5.7,8.2h0c0,0.3-0.1,0.8-0.1,1.6l-0.2,4.3L1,62.8L0,81.6c-0.1,2.7,1.1,7.9,6.6,8.8c0.4,0.1,0.7,0.2,1,0.5
		c0.6,0.9,0.5,2.6,0.2,3.5l0,0.1v0.1V95c0,1.8,0.3,6.1,2.7,8.4c0.6,1.3,4.3,8.3,9.9,8.7l4.2,0.4c5.4,0.6,14.9,1.5,18.7,1.8
		c0.3,0,0.7,0,1,0c0.9,0,1.8-0.1,2.7-0.4c2-0.2,7.6-0.8,11.4-1.4c9.4-1.4,12.1-11,12.8-15.7c1.9-0.5,5-1.7,8-5.3
		c0.1-0.1,0.3-0.3,0.3-0.5c5.8-8.6,5.3-15.2,3.8-19.2c-1.7-4.5-5.6-7.9-10.3-9.1l0,0c-0.1-0.1-0.3-0.1-0.4-0.2
		c-0.3-0.1-0.7-0.3-1.3-0.4c-1.1-0.4-2.4-0.8-3.8-1.3c-1.4-0.4-2.7-0.9-3.7-1.2c-2.1-0.9-4.4-1.4-6.8-1.4c-0.8,0-1.6,0.1-2.3,0.2
		c-4,0.6-7.5,2.6-10,5.6l-0.6-18.6l0.3-0.1c0.4,0.3,0.8,0.6,1.3,0.9c0.4,0.2,0.8,0.4,1.4,0.6l10.4,4.8c1.2,0.6,4.1,1.3,6.7,1.3
		c1.1,0,2-0.1,2.8-0.4c9.1-3,12-9.6,12.9-13.2c0,0,0.6-2.7,0.4-4.1h0c0-0.1,0-0.1-0.1-0.9c-0.2-2.5-0.8-10.1-0.9-14.4l0-0.2v-0.1
		l0-0.1c-0.7-3.6-2.8-5.8-4.7-7.5l-0.3-0.2c-1.2-1.1-6.4-5.9-9.9-9.2c-0.2-0.2-0.4-0.3-0.6-0.3c-0.5-0.4-1.1-0.8-1.8-1.2l0,0l0,0
		C60.5,0.4,58.9,0,57.3,0L57.3,0L57.3,0z M55.3,5.3l0.2-0.1C55.8,5.1,56.4,5,57,5c0.9,0,1.7,0.2,2.5,0.6c1.1,0.5,3,1.8,3.6,5.1
		c0.2,4.7,0.9,12.9,1.1,16c0,0.6,0.1,1,0.1,1.1l0,0c0,1.7-0.4,10.6-11.3,14.1c-0.8,0.3-1.5,0.4-2.2,0.4c-0.6,0-1.1-0.1-1.7-0.3
		l-0.5-0.3l-0.2-0.1h0l-0.1-0.1c-1.7-0.9-2.9-2.7-3.7-4.3c0.7,0.2,1.4,0.3,2.2,0.3c0.9,0,1.8-0.1,2.7-0.4c6.4-1.6,8.3-7.9,8.4-10.9
		l0-0.1c0-0.1,0-0.2-0.2-2.8c-0.3-4.2-0.9-11.9-1-14.8l0-0.3V8.1l0-0.1C56.3,6.9,55.8,6,55.3,5.3L55.3,5.3z M49.2,8.7
		c0.5-0.2,1.1-0.4,1.6-0.4c0.2,0,0.3,0,0.4,0.1c0.1,0,0.3,0.3,0.5,0.8c0.2,4.4,1.1,16.4,1.2,17.3c0,0.4-0.4,5.1-4.6,6.1
		c-0.5,0.1-1,0.2-1.4,0.2c-0.5,0-0.9-0.1-1.2-0.3c-0.6-0.4-0.9-1.3-0.9-1.7v-0.1v-0.1l0-0.1L44,27.2c-0.2-1.3-1-2.4-2.2-3.2
		c-1-0.6-2.2-0.9-3.6-0.9c-0.6,0-1.6,0.1-2.8,0.3c-0.2,0-0.3,0.1-0.4,0.1c0,0,0,0,0.1,0c-0.3,0.1-1,0.4-4,1.9
		c-2.8,1.4-6.7,3.4-8.8,4.3c-4.4,2-4.5,7.6-4.5,9.2l0,0c0,0.7,0,5.8-0.2,42.1c0,0.4,0.1,4.1,2.4,6.4c1.1,1.1,2.5,1.6,4.2,1.6
		c3.1-0.1,8.9-0.4,11.6-0.6c0.9-0.1,1.6-0.1,1.7-0.1l0.3,0H38l0.2-0.1c1.7-0.5,7.3-2.6,7.8-8c0.3-2.6,0.6-5.4,0.6-5.8
		c0.1-0.3,1-4.2,4.4-4.8c0.5-0.1,1-0.1,1.4-0.1c0.8,0,1.3,0.2,1.7,0.4l0,0l0,0c1.3,0.9,1.6,2.7,1.6,2.7l0,0c0,0.1,0,0.1,0,0.2
		c0.5,3.2,0.2,5.8-0.9,7.3c-2.6,2.6-5.4,2.7-5.4,2.7h-0.2c-1,0-6.2,1.6-7.2,9.5c-0.3,2-0.4,3.1-0.4,3.9c-0.1,0.9-0.1,0.9-0.6,2.7
		c-0.3,0.9-2.5,2.1-4.6,2.1c-0.2,0-0.3,0-0.5,0c-3.7,0-18.2-0.9-22-1.2c-0.4-0.2-1.2-2.3-1.2-4.5c0.2-0.9,0.7-4.4-1.1-7.2l0,0l0,0
		c-1-1.4-2.6-2.3-4.3-2.7c-2.4-0.4-2.5-3.4-2.5-3.7l1.9-37.6l0,0v0c0-0.1,0.1-2.9,2.7-3.8l0.1,0l0.1,0c0,0,0.1,0,0.1,0
		c0.1,0,0.2-0.1,0.4-0.2l0.1,0l0.1-0.1c3.2-2.4,3.8-4.9,4.4-9.8l0,0l0,0c0.1-2.3,1.6-3.6,2-4c0,0,0.1-0.1,0.1-0.1l10-5.4
		C37.4,15,48.4,9.1,49.2,8.7L49.2,8.7z M57,45.7c12.5-5.5,12.3-17.6,12.3-18.2c0-0.1,0-0.1-0.1-1.7c-0.2-2.6-0.7-8.2-0.9-12.6
		l2.8,2.5c1.5,1.3,2.7,2.4,3.1,4.5c0.2,3.9,0.7,10.3,0.9,13.4c0.1,1,0.1,1.6,0.1,1.7l0,0c0,1.5-0.3,9.2-9.8,12.3
		c-0.2,0.1-0.5,0.1-1.2,0.1c-1.7,0-3.9-0.5-4.5-0.8C59.6,47,58.5,46.4,57,45.7L57,45.7z M36.7,28.3c0.2-0.1,0.8-0.2,1.3-0.2
		c0.5,0,0.7,0.1,0.8,0.1c0,0,0,0,0,0l0.6,3c0,0.2,0,0.5,0.1,0.9c0,0-0.1,0-0.1,0.1l-10.7,4.4l-0.2,0.1l-0.1,0.1
		c-0.1,0-0.1,0.1-0.2,0.1l-0.1,0.1L28,37.1l-0.1,0.1l-0.1,0.1l-0.2,0.2c-0.1,0.1-0.2,0.3-0.3,0.4l-0.2,0.2v0.4v0.1v0.5l0.2,41
		c0,0.6,0.3,1.3,0.8,1.8c0.5,0.5,1.1,0.7,1.9,0.7h0.1l0.1,0l9.9-1c-0.8,0.9-2.2,1.6-3.1,1.8c-1.5,0.1-9.3,0.6-12.8,0.7
		c-0.3,0-0.5-0.1-0.6-0.2c-0.6-0.6-0.9-2.2-0.9-2.7L22.8,39l0,0l0-0.1c0-1.8,0.4-3.9,1.6-4.5C27.6,32.8,35.2,29.1,36.7,28.3
		L36.7,28.3z M36.6,38.8l2.6-1.1c0.3,0.8,0.7,1.7,1.2,2.6L36.6,38.8L36.6,38.8z M32.6,77.1l-0.1-34.5l6.6,2.7l1,31.1L32.6,77.1
		L32.6,77.1z M51.4,64.5c1.1-0.6,2.3-1,3.7-1.2c0.5-0.1,1.1-0.1,1.6-0.1c1.1,0,2.2,0.1,3.1,0.4c0.1,0.1,0.2,0.1,0.3,0.1
		c0,0,0.1,0,0.1,0l0.1,0l0.1,0l1.5,0.5c2.1,0.9,3.8,2.4,4.9,4.3c1.8,2.8,3.9,9.1-2.9,19.2c-3.8,4.2-7,4.3-7.3,4.3h-0.1h-0.2h-0.1
		l-0.1,0c-1,0.2-1.8,0.8-2.1,1.8L54,94v0.2v0.2v0.1c-0.1,1.8-1.4,9.6-5.6,13.2c-0.8,0.7-1.6,1.2-2.7,1.5h-0.3
		c-0.3,0-0.5,0.1-0.6,0.1h-0.2l-0.2,0.1c-0.2,0.1-0.7,0.1-1.1,0.1c-3.6-0.3-13-1.2-18.5-1.8l-4.2-0.4c-0.9-0.1-2-0.8-3.2-2
		c6.2,0.4,16.6,0.9,18.8,0.9c3.8-0.1,8.4-1.9,9.5-5.7c0.6-2,0.6-2.4,0.7-3.6l0-0.1c0-0.3,0.1-0.6,0.1-1c0.1-0.6,0.1-1.5,0.3-2.7
		c0.3-1.9,1-4.4,3-5.3c4.2-0.5,7-2.5,8.7-4.2l0.3-0.3v-0.1c2.9-4,2.1-9.9,1.8-11.3l0,0c0-0.2-0.6-3.9-3.7-6
		c-1.3-0.9-2.9-1.4-4.7-1.4C51.9,64.4,51.7,64.4,51.4,64.5L51.4,64.5z M68,90.8L68,90.8l0.1-0.1l0.1-0.1c7.4-10.7,6.2-18.4,4.2-22.8
		c2.8,1,5.1,3.2,6.1,5.8l0,0l0,0c1,2.3,1.8,7.2-3.4,14.9c-3.3,3.6-6.1,3.7-6.4,3.7v1l0-1l-2,0C67.2,91.8,67.6,91.4,68,90.8L68,90.8z
		 M54.8,108.2c2.7-4.1,3.8-8.9,4.1-11.1l7,0.2c-0.7,3.5-2.7,9.6-8.5,10.5c-0.6,0.1-1.2,0.2-1.9,0.3C55.2,108.1,55,108.1,54.8,108.2
		L54.8,108.2z"/>
	<path d="M57.3,1c1.4,0,2.9,0.3,4.2,1c0.7,0.4,1.3,0.8,1.9,1.3c0.1,0,0.2,0,0.3,0.1c0,0,10.1,9.5,10.2,9.5c0,0,0,0,0,0
		c1.9,1.6,3.8,3.6,4.4,6.9c0,0.1,0,0.2,0,0.2c0.2,5.1,1,15.1,1,15.2c0.1,0.1,0.6,12.1-12.6,16.4c-0.7,0.2-1.5,0.3-2.5,0.3
		c-2.4,0-5.2-0.6-6.2-1.2l-10.4-4.8c-0.5-0.2-0.9-0.4-1.3-0.6c-0.6-0.3-1.1-0.7-1.6-1.1l-1.5,0.5l0.7,22.5c2.3-4.3,6.2-7.1,11-7.8
		c0.7-0.1,1.5-0.1,2.2-0.1c2.2,0,4.4,0.4,6.4,1.3c3,1,9.4,3.1,9.3,3.1c4.5,1.2,8,4.4,9.6,8.5c1.4,3.8,1.9,10.1-3.8,18.5
		c0,0.1,0,0.1-0.1,0.2c-3.2,3.7-6.4,4.8-8.2,5.1c-0.5,3.8-2.6,14.2-12.1,15.6c-3.8,0.6-9.5,1.2-11.4,1.4c-0.8,0.2-1.6,0.3-2.5,0.3
		c-0.3,0-0.6,0-0.9,0c-3.6-0.3-13.1-1.2-18.7-1.8l-4.2-0.4c-5.2-0.4-8.8-7.4-9.2-8.3c-2.5-2.2-2.5-7.1-2.5-7.8v-0.3
		c0.2-0.8,0.5-3-0.4-4.3c-0.4-0.5-0.9-0.8-1.6-0.9C2,88.7,0.9,84.1,1,81.7c0,0,1.9-37.6,1.9-37.6c0,0,0,0,0,0c0-0.2,0.2-5.4,5.2-7.3
		c1.7-1.3,2.1-2.4,2.7-6.9c0.3-4.8,3.8-7,4-7.1c3.3-1.8,39-21,39-21C54.8,1.3,56,1,57.3,1 M46.6,36.6c-1.3,0-2.5-0.4-3.5-1.1
		c-0.2-0.2-0.5-0.4-0.7-0.6c0.6,1.9,2.2,5.8,5.2,7.5c0,0.1,0.1,0.1,0.1,0.1c0.1,0,0.2,0.1,0.3,0.1c0,0,0.2,0.1,0.6,0.3
		c0.7,0.2,1.4,0.4,2.1,0.4c0.8,0,1.6-0.1,2.5-0.5c12.5-4,12-14.7,12-15.1c0-0.1-0.9-11.4-1.2-17.2c-0.6-3.7-2.8-5.3-4.1-5.9
		C59,4.2,57.9,4,57,4c-0.7,0-1.4,0.1-2,0.4l-1.4,0.7c0.8,0.6,1.6,1.6,2,3.2v0.3c0.2,4.1,1.2,17.4,1.2,17.6v0.1
		c-0.1,2.8-1.8,8.5-7.7,10C48.2,36.5,47.4,36.6,46.6,36.6 M35.9,102.1c0.2,0,0.3,0,0.5,0c2.3,0,5.1-1.2,5.6-2.8
		c0.5-1.9,0.5-1.9,0.6-2.9c0-0.7,0.1-1.7,0.4-3.8c1-7.6,6-8.6,6.2-8.6c0,0,0.1,0,0.2,0c0.2,0,3.3-0.1,6.2-3c2.2-3,1.1-8.1,1.1-8.3
		c0-0.1-0.4-2.3-2.1-3.4c-0.6-0.5-1.4-0.7-2.3-0.7c-0.5,0-1,0.1-1.6,0.2c-4.2,0.8-5.2,5.6-5.2,5.7c0,0-0.3,3-0.6,5.8
		c-0.5,5.3-6.8,7-7.1,7.1h-0.3c-0.3,0-9.2,0.6-13.3,0.7c-1.4,0-2.6-0.4-3.5-1.3c-2-2-2.1-5.3-2.1-5.7c0,0,0.2-42.1,0.2-42.1
		c0,0,0,0,0,0s0,0,0,0c0,0,0,0,0,0c0-0.2-0.4-6.3,3.9-8.3c3.6-1.7,12.5-6.2,12.6-6.2c0.1,0,0.2-0.1,0.3-0.1c0.2-0.1,1.3-0.3,2.6-0.3
		c1,0,2.1,0.2,3,0.7c0.9,0.6,1.6,1.5,1.8,2.6l0.6,3.2c0,0.1,0,0.1,0,0.2c0,0,0.2,1.7,1.4,2.5c0.5,0.3,1,0.4,1.7,0.4
		c0.5,0,1.1-0.1,1.7-0.2c4.9-1.2,5.4-6.5,5.4-7.1c-0.1-1.3-1-13.2-1.2-17.4c-0.2-0.8-0.6-1.4-1.1-1.6c-0.2-0.1-0.5-0.1-0.8-0.1
		c-0.7,0-1.5,0.2-2,0.5C48,8.2,27.1,19.5,16.2,25.4c0,0.1-2.3,1.6-2.5,4.8c-0.6,4.8-1.2,7-4,9.1c-0.2,0.1-0.3,0.1-0.5,0.2
		c-3.3,1.1-3.4,4.5-3.4,4.7L3.9,81.8c0,0.1,0,4.2,3.3,4.7c1.5,0.3,2.8,1.1,3.7,2.3c1.6,2.4,1.1,5.6,0.9,6.5c0,1.9,0.6,5.5,2.1,5.6
		C17.5,101.2,32.2,102.1,35.9,102.1 M64.1,48.7c0.6,0,1.1-0.1,1.5-0.2C76.5,45,76.1,35.7,76.1,35.3c0-0.1-0.7-9.9-1-15.1
		c-0.4-2.5-1.9-3.8-3.4-5.1l-4.6-4.2c0.3,5.9,1.2,16.5,1.2,16.7c0,0.1,0.6,13.2-13.9,18.1c2.5,1.1,4.8,2.2,4.8,2.2
		C60,48.2,62.3,48.7,64.1,48.7 M24.1,85.1c3.7-0.1,11.8-0.6,13-0.7c0.7-0.2,4.3-1.4,4.5-4L30,81.6c-0.5,0-0.9-0.1-1.2-0.4
		c-0.3-0.3-0.5-0.7-0.5-1.1l-0.2-41v-0.5c0,0,0,0,0-0.1c0.1-0.1,0.1-0.2,0.2-0.3c0.1-0.1,0.2-0.2,0.3-0.3c0.1-0.1,0.1-0.1,0.1-0.1
		c0.2-0.1,0.3-0.1,0.4-0.2l10.8-4.4c0.2-0.1,0.4-0.2,0.6-0.2c0.1,0,0.3,0,0.4,0.1c-0.4-0.9-0.5-1.6-0.5-1.9l-0.6-3.1
		c-0.1-0.3-0.2-0.5-0.4-0.6c-0.3-0.2-0.8-0.3-1.3-0.3c-0.6,0-1.2,0.1-1.7,0.2c-1.2,0.6-9.1,4.5-12.4,6.1c-2.4,1.1-2.2,5.3-2.2,5.5
		l-0.2,42.2c0,0.6,0.3,2.6,1.2,3.5C23.2,85,23.6,85.1,24.1,85.1 M41.6,41.9l0.8-0.3c-1.4-1.8-2.2-3.8-2.7-5.2l-5.8,2.4L41.6,41.9
		 M31.6,78.2l9.5-0.9l-1-32.7l-8.6-3.5L31.6,78.2 M47.6,66.5c0.7-0.3,1.5-0.6,2.4-0.8c0.7-0.2,1.5-0.2,2.1-0.2c1.6,0,3,0.4,4.2,1.2
		c2.8,1.9,3.3,5.3,3.3,5.3c0.1,0.2,1.4,6.6-1.7,10.7c0,0.1-0.1,0.1-0.1,0.2c-3.4,3.4-7.3,3.8-8.2,3.9c-0.5,0.2-3,1.1-3.7,6.1
		c-0.3,2.1-0.3,3.1-0.4,3.7c-0.1,1.2-0.1,1.4-0.7,3.5c-0.9,3.2-5,4.9-8.5,5c-2.5,0-15.5-0.7-21-1.1c1.4,1.9,3.3,4,5.3,4.2l4.2,0.4
		c5.6,0.6,15,1.5,18.6,1.8c0.6,0,1.2,0,1.6-0.2c0.2,0,0.3-0.1,0.5-0.1c0,0,0.2,0,0.4,0c1.2-0.3,2.2-0.8,3.2-1.7
		c4.5-3.9,5.8-12.1,5.9-13.9c0,0,0,0,0-0.1c0-0.1,0-0.1,0-0.2c0.2-0.6,0.7-1,1.3-1.1c0.1,0,0.1,0,0.2,0h0.1c0.6,0,4.1-0.2,8.1-4.7
		c7.1-10.5,5-17.2,3-20.3c-1.3-2.1-3.2-3.7-5.4-4.7l-1.6-0.5c-0.2-0.1-0.3-0.1-0.4-0.2c-1.2-0.3-2.4-0.5-3.6-0.5
		c-0.6,0-1.1,0-1.7,0.1C52,62.7,49.5,64.1,47.6,66.5 M68.7,93.3c0.4,0,3.5-0.1,7.2-4.1c5.1-7.5,4.8-12.9,3.5-15.9
		c-1.2-3.2-4-5.7-7.6-6.7L70.1,66c0.2,0.2,0.3,0.3,0.4,0.5c2.4,3.7,5.1,11.7-3.1,23.6l-0.1,0.1c-1.1,1.3-2.2,2.2-3.2,3L68.7,93.3
		C68.7,93.3,68.7,93.3,68.7,93.3 M52.5,109.5c1.7-0.2,3.5-0.5,5-0.7c7.1-1.1,9-9.1,9.5-12.5l-9-0.2C57.6,99.3,56.1,105.4,52.5,109.5
		 M57.3,0C57.3,0,57.3,0,57.3,0c-1.4,0-2.8,0.3-3.9,0.9c-0.4,0.2-35.8,19.2-39,21c-0.9,0.4-4.2,3.1-4.5,7.9c-0.6,4.4-1,5.1-2.2,6.1
		c-4.7,1.9-5.7,6.5-5.7,8.2h0c0,0.3-0.1,0.8-0.1,1.6l-0.2,4.3L1,62.8L0,81.6c-0.1,2.7,1.1,7.9,6.6,8.8c0.4,0.1,0.7,0.2,1,0.5
		c0.6,0.9,0.5,2.6,0.2,3.5l0,0.1v0.1V95c0,1.8,0.3,6.1,2.7,8.4c0.6,1.3,4.3,8.3,9.9,8.7l4.2,0.4c5.4,0.6,14.9,1.5,18.7,1.8
		c0.3,0,0.7,0,1,0c0.9,0,1.8-0.1,2.7-0.4c2-0.2,7.6-0.8,11.4-1.4c9.4-1.4,12.1-11,12.8-15.7c1.9-0.5,5-1.7,8-5.3
		c0.1-0.1,0.3-0.3,0.3-0.5c5.8-8.6,5.3-15.2,3.8-19.2c-1.7-4.5-5.6-7.9-10.3-9.1l0,0c-0.1-0.1-0.3-0.1-0.4-0.2
		c-0.3-0.1-0.7-0.3-1.3-0.4c-1.1-0.4-2.4-0.8-3.8-1.3c-1.4-0.4-2.7-0.9-3.7-1.2c-2.1-0.9-4.4-1.4-6.8-1.4c-0.8,0-1.6,0.1-2.3,0.2
		c-4,0.6-7.5,2.6-10,5.6l-0.6-18.6l0.3-0.1c0.4,0.3,0.8,0.6,1.3,0.9c0.4,0.2,0.8,0.4,1.4,0.6l10.4,4.8c1.2,0.6,4.1,1.3,6.7,1.3
		c1.1,0,2-0.1,2.8-0.4c9.1-3,12-9.6,12.9-13.2c0,0,0.6-2.7,0.4-4.1h0c0-0.1,0-0.1-0.1-0.9c-0.2-2.5-0.8-10.1-0.9-14.4l0-0.2v-0.1
		l0-0.1c-0.7-3.6-2.8-5.8-4.7-7.5l-0.3-0.2c-1.2-1.1-6.4-5.9-9.9-9.2c-0.2-0.2-0.4-0.3-0.6-0.3c-0.5-0.4-1.1-0.8-1.8-1.2l0,0l0,0
		C60.5,0.4,58.9,0,57.3,0L57.3,0L57.3,0z M55.3,5.3l0.2-0.1C55.8,5.1,56.4,5,57,5c0.9,0,1.7,0.2,2.5,0.6c1.1,0.5,3,1.8,3.6,5.1
		c0.2,4.7,0.9,12.9,1.1,16c0,0.6,0.1,1,0.1,1.1l0,0c0,1.7-0.4,10.6-11.3,14.1c-0.8,0.3-1.5,0.4-2.2,0.4c-0.6,0-1.1-0.1-1.7-0.3
		l-0.5-0.3l-0.2-0.1h0l-0.1-0.1c-1.7-0.9-2.9-2.7-3.7-4.3c0.7,0.2,1.4,0.3,2.2,0.3c0.9,0,1.8-0.1,2.7-0.4c6.4-1.6,8.3-7.9,8.4-10.9
		l0-0.1c0-0.1,0-0.2-0.2-2.8c-0.3-4.2-0.9-11.9-1-14.8l0-0.3V8.1l0-0.1C56.3,6.9,55.8,6,55.3,5.3L55.3,5.3z M49.2,8.7
		c0.5-0.2,1.1-0.4,1.6-0.4c0.2,0,0.3,0,0.4,0.1c0.1,0,0.3,0.3,0.5,0.8c0.2,4.4,1.1,16.4,1.2,17.3c0,0.4-0.4,5.1-4.6,6.1
		c-0.5,0.1-1,0.2-1.4,0.2c-0.5,0-0.9-0.1-1.2-0.3c-0.6-0.4-0.9-1.3-0.9-1.7v-0.1v-0.1l0-0.1L44,27.2c-0.2-1.3-1-2.4-2.2-3.2
		c-1-0.6-2.2-0.9-3.6-0.9c-0.6,0-1.6,0.1-2.8,0.3c-0.2,0-0.3,0.1-0.4,0.1c0,0,0,0,0.1,0c-0.3,0.1-1,0.4-4,1.9
		c-2.8,1.4-6.7,3.4-8.8,4.3c-4.4,2-4.5,7.6-4.5,9.2l0,0c0,0.7,0,5.8-0.2,42.1c0,0.4,0.1,4.1,2.4,6.4c1.1,1.1,2.5,1.6,4.2,1.6
		c3.1-0.1,8.9-0.4,11.6-0.6c0.9-0.1,1.6-0.1,1.7-0.1l0.3,0H38l0.2-0.1c1.7-0.5,7.3-2.6,7.8-8c0.3-2.6,0.6-5.4,0.6-5.8
		c0.1-0.3,1-4.2,4.4-4.8c0.5-0.1,1-0.1,1.4-0.1c0.8,0,1.3,0.2,1.7,0.4l0,0l0,0c1.3,0.9,1.6,2.7,1.6,2.7l0,0c0,0.1,0,0.1,0,0.2
		c0.5,3.2,0.2,5.8-0.9,7.3c-2.6,2.6-5.4,2.7-5.4,2.7h-0.2c-1,0-6.2,1.6-7.2,9.5c-0.3,2-0.4,3.1-0.4,3.9c-0.1,0.9-0.1,0.9-0.6,2.7
		c-0.3,0.9-2.5,2.1-4.6,2.1c-0.2,0-0.3,0-0.5,0c-3.7,0-18.2-0.9-22-1.2c-0.4-0.2-1.2-2.3-1.2-4.5c0.2-0.9,0.7-4.4-1.1-7.2l0,0l0,0
		c-1-1.4-2.6-2.3-4.3-2.7c-2.4-0.4-2.5-3.4-2.5-3.7l1.9-37.6l0,0v0c0-0.1,0.1-2.9,2.7-3.8l0.1,0l0.1,0c0,0,0.1,0,0.1,0
		c0.1,0,0.2-0.1,0.4-0.2l0.1,0l0.1-0.1c3.2-2.4,3.8-4.9,4.4-9.8l0,0l0,0c0.1-2.3,1.6-3.6,2-4c0,0,0.1-0.1,0.1-0.1l10-5.4
		C37.4,15,48.4,9.1,49.2,8.7L49.2,8.7z M57,45.7c12.5-5.5,12.3-17.6,12.3-18.2c0-0.1,0-0.1-0.1-1.7c-0.2-2.6-0.7-8.2-0.9-12.6
		l2.8,2.5c1.5,1.3,2.7,2.4,3.1,4.5c0.2,3.9,0.7,10.3,0.9,13.4c0.1,1,0.1,1.6,0.1,1.7l0,0c0,1.5-0.3,9.2-9.8,12.3
		c-0.2,0.1-0.5,0.1-1.2,0.1c-1.7,0-3.9-0.5-4.5-0.8C59.6,47,58.5,46.4,57,45.7L57,45.7z M36.7,28.3c0.2-0.1,0.8-0.2,1.3-0.2
		c0.5,0,0.7,0.1,0.8,0.1c0,0,0,0,0,0l0.6,3c0,0.2,0,0.5,0.1,0.9c0,0-0.1,0-0.1,0.1l-10.7,4.4l-0.2,0.1l-0.1,0.1
		c-0.1,0-0.1,0.1-0.2,0.1l-0.1,0.1L28,37.1l-0.1,0.1l-0.1,0.1l-0.2,0.2c-0.1,0.1-0.2,0.3-0.3,0.4l-0.2,0.2v0.4v0.1v0.5l0.2,41
		c0,0.6,0.3,1.3,0.8,1.8c0.5,0.5,1.1,0.7,1.9,0.7h0.1l0.1,0l9.9-1c-0.8,0.9-2.2,1.6-3.1,1.8c-1.5,0.1-9.3,0.6-12.8,0.7
		c-0.3,0-0.5-0.1-0.6-0.2c-0.6-0.6-0.9-2.2-0.9-2.7L22.8,39l0,0l0-0.1c0-1.8,0.4-3.9,1.6-4.5C27.6,32.8,35.2,29.1,36.7,28.3
		L36.7,28.3z M36.6,38.8l2.6-1.1c0.3,0.8,0.7,1.7,1.2,2.6L36.6,38.8L36.6,38.8z M32.6,77.1l-0.1-34.5l6.6,2.7l1,31.1L32.6,77.1
		L32.6,77.1z M51.4,64.5c1.1-0.6,2.3-1,3.7-1.2c0.5-0.1,1.1-0.1,1.6-0.1c1.1,0,2.2,0.1,3.1,0.4c0.1,0.1,0.2,0.1,0.3,0.1
		c0,0,0.1,0,0.1,0l0.1,0l0.1,0l1.5,0.5c2.1,0.9,3.8,2.4,4.9,4.3c1.8,2.8,3.9,9.1-2.9,19.2c-3.8,4.2-7,4.3-7.3,4.3h-0.1h-0.2h-0.1
		l-0.1,0c-1,0.2-1.8,0.8-2.1,1.8L54,94v0.2v0.2v0.1c-0.1,1.8-1.4,9.6-5.6,13.2c-0.8,0.7-1.6,1.2-2.7,1.5h-0.3
		c-0.3,0-0.5,0.1-0.6,0.1h-0.2l-0.2,0.1c-0.2,0.1-0.7,0.1-1.1,0.1c-3.6-0.3-13-1.2-18.5-1.8l-4.2-0.4c-0.9-0.1-2-0.8-3.2-2
		c6.2,0.4,16.6,0.9,18.8,0.9c3.8-0.1,8.4-1.9,9.5-5.7c0.6-2,0.6-2.4,0.7-3.6l0-0.1c0-0.3,0.1-0.6,0.1-1c0.1-0.6,0.1-1.5,0.3-2.7
		c0.3-1.9,1-4.4,3-5.3c4.2-0.5,7-2.5,8.7-4.2l0.3-0.3v-0.1c2.9-4,2.1-9.9,1.8-11.3l0,0c0-0.2-0.6-3.9-3.7-6
		c-1.3-0.9-2.9-1.4-4.7-1.4C51.9,64.4,51.7,64.4,51.4,64.5L51.4,64.5z M68,90.8L68,90.8l0.1-0.1l0.1-0.1c7.4-10.7,6.2-18.4,4.2-22.8
		c2.8,1,5.1,3.2,6.1,5.8l0,0l0,0c1,2.3,1.8,7.2-3.4,14.9c-3.3,3.6-6.1,3.7-6.4,3.7v1l0-1l-2,0C67.2,91.8,67.6,91.4,68,90.8L68,90.8z
		 M54.8,108.2c2.7-4.1,3.8-8.9,4.1-11.1l7,0.2c-0.7,3.5-2.7,9.6-8.5,10.5c-0.6,0.1-1.2,0.2-1.9,0.3C55.2,108.1,55,108.1,54.8,108.2
		L54.8,108.2z"/>
</g>
</svg>
