<svg id="Layer_2" data-name="Layer 2" xmlns="http://www.w3.org/2000/svg" viewBox="0 0 400.45 112.3"><g id="g5818"><g id="g5803"><g id="g5795"><path id="path3053" d="M97.23,58.82c0-5.24,1-7.62,5-11.19l6.42-5.24c4-3.33,6.19-3.33,11.19-3.33h13.57c2.86,0,6,.71,6,4.28s-3.33,4-6,4h-15c-1.66,0-3.33,1-5,2.14l-5.24,4.29c-1.43,1-2.38,1.9-2.38,3.57V67.86c0,1.67,1,2.62,2.38,3.57l5.24,4.29a8.48,8.48,0,0,0,5,2.14h15c2.62,0,6,.48,6,4.29,0,3.57-3.09,4.28-6,4.28H119.6c-5,0-7.14,0-11.18-3.33L102,77.86c-4-3.33-5-6-5-11.19V58.82Z" transform="translate(-0.08 0.06)" style="fill:#094"/><path id="path3055" d="M197.69,65.24c-2.38,0-5.71.72-5.71,3.81v5.72c0,2.85,3.57,3.57,5.47,3.57H207l9.52-5V71.43c0-4.76-1.43-6.19-5.95-6.19Zm0-17.85c-2.38,0-5.95-.48-5.95-4s3.1-4.28,5.95-4.28h11.67c4.52,0,7.62.47,11.19,3.8,3.33,3.34,3.81,5.72,3.81,10l.95,28.57c0,2.38-1.19,5-4.05,5a4.64,4.64,0,0,1-4.52-4.28l-6,3.09c-2.38,1.19-2.62,1.19-5.24,1.19h-8.1c-3.81,0-6.66-.47-9.76-3.09-3.57-2.86-4.52-6-4.52-10.48V69.29c0-4.05,1-6.67,4.28-9.52,3.1-2.62,6.19-3.1,10-3.1h18.34v-1.9c0-6.43-1.43-7.38-7.62-7.38Z" transform="translate(-0.08 0.06)" style="fill:#094"/><path id="path3057" d="M305.06,49.53V45.25c0-3.1.48-6.19,4.29-6.19,3.09,0,4.28,2.38,4.28,5v6a7.71,7.71,0,0,1-.95,3.33L299.82,81c-.71,1.66-2.38,5.23-4.52,5.23h-5.48c-2.14,0-3.57-3.57-4.52-5.23L272.68,53.58a6.57,6.57,0,0,1-.95-3.34v-6c0-2.62,1.19-5,4-5,3.81,0,4.28,3.34,4.28,6.19v4.29l12.38,28.09Z" transform="translate(-0.08 0.06)" style="fill:#094"/><path id="path3059" d="M366.72,60.48h24.76V55.24c0-1.66,0-2.85-1-3.81l-3.33-2.85a6.67,6.67,0,0,0-4.05-1.19H376a6.75,6.75,0,0,0-4.29,1l-2.86,2.14c-.95.72-1.66,1.43-1.66,3.81v6.19Zm7.14,26c-3.57,0-5,0-7.61-2.38L362.67,81c-3.33-2.86-4.28-5-4.28-9.53V55.24c0-4.52.71-7.14,4.05-10l3.09-2.62c4.05-3.34,6-3.57,9.52-3.57h7.86c4.29,0,6.19.47,9.52,3.09L396,44.77c4.05,3.09,4.53,6.43,4.53,10.95v6.9c0,4.77-.72,6.19-5.95,6.19H367.2v2.86a3.26,3.26,0,0,0,1.19,2.38l2.14,2.38c1.19,1.19,2.86,1.67,5.71,1.67h18.34c2.85,0,5.95.71,5.95,4.28,0,3.81-3.34,4.29-5.95,4.29H373.86Z" transform="translate(-0.08 0.06)" style="fill:#094"/></g><path id="path3061" d="M75,88.11c-3.8,4.2-7.1,4.1-7.2,4.1h0l-4.6-.1a21.59,21.59,0,0,0,3.2-3l.1-.1c8.2-11.9,5.5-19.9,3.1-23.6a1.76,1.76,0,0,0-.4-.5l1.7.6a11.17,11.17,0,0,1,7.6,6.7c1.3,3.1,1.6,8.4-3.5,15.9m-18.4,19.7c-1.5.2-3.3.5-5,.7,3.6-4.1,5.1-10.2,5.5-13.4l9,.2c-.5,3.4-2.3,11.4-9.5,12.5m-14,1.6c-3.6-.3-13-1.2-18.6-1.8l-4.2-.4c-2-.2-3.9-2.3-5.3-4.2,5.5.4,18.5,1.1,21,1.1,3.5-.1,7.6-1.8,8.5-5a13,13,0,0,0,.7-3.5c.1-.6.1-1.6.4-3.7.7-5,3.2-5.9,3.7-6.1a13.52,13.52,0,0,0,8.2-3.9c0-.1.1-.1.1-.2,3.1-4.1,1.8-10.5,1.7-10.7a8.5,8.5,0,0,0-3.3-5.3,7.9,7.9,0,0,0-6.3-1,13.49,13.49,0,0,0-2.4.8,11,11,0,0,1,7.4-4.2,13.48,13.48,0,0,1,5.3.4c.1.1.2.1.4.2l1.6.5a12.29,12.29,0,0,1,5.4,4.7c2,3.1,4.1,9.8-3,20.3-4,4.5-7.5,4.7-8.1,4.7h-.3a1.63,1.63,0,0,0-1.3,1.1h0v.3c-.1,1.8-1.4,10-5.9,13.9a7.13,7.13,0,0,1-3.2,1.7h-.4c-.2,0-.3.1-.5.1a4.14,4.14,0,0,1-1.6.2M6.28,85.51C3,85,3,80.91,3,80.81l1.9-37.6a5.11,5.11,0,0,1,3.4-4.7c.2-.1.3-.1.5-.2,2.8-2.1,3.4-4.3,4-9.1a6.89,6.89,0,0,1,2.5-4.8c10.9-5.9,31.8-17.2,32.5-17.6a4,4,0,0,1,2.8-.4A2.22,2.22,0,0,1,51.68,8c.2,4.2,1.1,16.1,1.2,17.4,0,.6-.5,5.9-5.4,7.1a4.22,4.22,0,0,1-3.4-.2,3.85,3.85,0,0,1-1.4-2.5v-.2l-.6-3.2a4,4,0,0,0-1.8-2.6c-2.1-1.3-5.2-.5-5.6-.4-.1,0-.2.1-.3.1s-9,4.5-12.6,6.2c-4.3,2-3.9,8.1-3.9,8.3,0-.1-.2,42.1-.2,42.1,0,.4.1,3.7,2.1,5.7a4.75,4.75,0,0,0,3.5,1.3c4.1-.1,13-.7,13.3-.7h.3c.3-.1,6.6-1.8,7.1-7.1.3-2.8.6-5.8.6-5.8s1-4.9,5.2-5.7a4.92,4.92,0,0,1,3.9.5,5.37,5.37,0,0,1,2.1,3.4c0,.2,1.1,5.3-1.1,8.3a9.61,9.61,0,0,1-6.2,3h-.2c-.2,0-5.2,1-6.2,8.6a29.59,29.59,0,0,0-.4,3.8,13.18,13.18,0,0,1-.6,2.9c-.5,1.6-3.3,2.8-5.6,2.8-2.7.1-18.7-.9-22.5-1.2-1.5-.1-2.1-3.7-2.1-5.6.2-.9.7-4.1-.9-6.5a5.79,5.79,0,0,0-3.7-2.3m52.8-81.8a7.46,7.46,0,0,1,4.1,5.9c.3,5.8,1.2,17.1,1.2,17.2,0,.4.5,11.1-12,15.1a6.64,6.64,0,0,1-4.6.1l-.6-.3c-.1,0-.2-.1-.3-.1a.1.1,0,0,1-.1-.1c-3-1.7-4.6-5.6-5.2-7.5.2.2.5.4.7.6a6.79,6.79,0,0,0,6,.7c5.9-1.5,7.6-7.2,7.7-10v-.1c0-.2-1-13.5-1.2-17.6v-.3a5.54,5.54,0,0,0-2-3.2l1.4-.7a5.7,5.7,0,0,1,4.9.3m15.2,15.5c.3,5.2,1,15,1,15.1,0,.4.4,9.7-10.5,13.3-1.6.5-5.4-.2-6.4-.7,0,0-2.3-1.1-4.8-2.2,14.5-4.9,13.9-18,13.9-18.1s-.9-10.8-1.2-16.7l4.6,4.2c1.5,1.3,2.9,2.6,3.4,5.1m-43.6,58-.1-37.1,8.6,3.5,1,32.7Zm10-36.3L33,37.81l5.8-2.4a18.56,18.56,0,0,0,2.7,5.2Zm-4.4,42.5c-1.2.1-9.3.6-13,.7a2,2,0,0,1-1.3-.4,6.11,6.11,0,0,1-1.2-3.5L21,38c0-.2-.2-4.4,2.2-5.5,3.3-1.6,11.2-5.5,12.4-6.1.8-.2,2.3-.4,3,.1a.92.92,0,0,1,.4.6l.6,3.1a5.17,5.17,0,0,0,.5,1.9,1.18,1.18,0,0,0-1,.1l-10.8,4.4c-.1.1-.2.1-.4.2l-.1.1-.3.3h0c-.1.1-.1.2-.2.3v.6h0l.2,41a1.55,1.55,0,0,0,1.7,1.5l11.6-1.2c-.3,2.5-3.8,3.7-4.5,4m45.2-12.2a14.15,14.15,0,0,0-9.6-8.5c.1,0-6.3-2.1-9.3-3.1a15.89,15.89,0,0,0-8.6-1.2,14.65,14.65,0,0,0-11,7.8l-.7-22.6,1.5-.5a9.06,9.06,0,0,0,1.6,1.1c.4.2.8.4,1.3.6l10.4,4.8c1.5.8,6.2,1.7,8.7.9,13.2-4.3,12.7-16.3,12.6-16.4s-.8-10.1-1-15.2v-.2a11.44,11.44,0,0,0-4.4-6.9c0,.1-10.2-9.5-10.2-9.5a.37.37,0,0,0-.3-.1,12.74,12.74,0,0,0-1.9-1.3,9.05,9.05,0,0,0-7.7-.2s-35.7,19.2-39,21a9.07,9.07,0,0,0-4,7.1c-.6,4.5-1,5.6-2.7,6.9A8.3,8.3,0,0,0,2,43c0-.1-1.9,37.6-1.9,37.6-.1,2.4,1,7,5.8,7.8a2.36,2.36,0,0,1,1.6.9c.9,1.3.6,3.5.4,4.3v.3c0,.7,0,5.6,2.5,7.8.4.9,4,7.9,9.2,8.3l4.2.4c5.6.6,15.1,1.5,18.7,1.8a9.61,9.61,0,0,0,3.4-.3c1.9-.2,7.6-.8,11.4-1.4,9.5-1.4,11.6-11.8,12.1-15.6,1.8-.3,5-1.4,8.2-5.1.1-.1.1-.1.1-.2,5.7-8.3,5.3-14.6,3.8-18.4" transform="translate(-0.08 0.06)" style="fill:#e60013"/></g></g></svg>