<?xml version="1.0" encoding="utf-8"?>
<!-- Generator: Adobe Illustrator 24.2.1, SVG Export Plug-In . SVG Version: 6.00 Build 0)  -->
<svg version="1.1"
	 id="Layer_2_1_" inkscape:version="1.0 (4035a4fb49, 2020-05-01)" sodipodi:docname="Cave Logo.svg" xmlns:cc="http://creativecommons.org/ns#" xmlns:dc="http://purl.org/dc/elements/1.1/" xmlns:inkscape="http://www.inkscape.org/namespaces/inkscape" xmlns:rdf="http://www.w3.org/1999/02/22-rdf-syntax-ns#" xmlns:sodipodi="http://sodipodi.sourceforge.net/DTD/sodipodi-0.dtd" xmlns:svg="http://www.w3.org/2000/svg"
	 xmlns="http://www.w3.org/2000/svg" xmlns:xlink="http://www.w3.org/1999/xlink" x="0px" y="0px" viewBox="0 0 400 112.4"
	 style="enable-background:new 0 0 400 112.4;" xml:space="preserve">
<style type="text/css">
	.st0{fill:#009944;}
	.st1{fill:#E60013;}
</style>
<sodipodi:namedview  bordercolor="#666666" borderopacity="1" gridtolerance="10" guidetolerance="10" id="namedview4537" inkscape:current-layer="Layer_2_1_" inkscape:cx="175.32682" inkscape:cy="15.390239" inkscape:document-rotation="0" inkscape:pageopacity="0" inkscape:pageshadow="2" inkscape:window-height="1577" inkscape:window-maximized="1" inkscape:window-width="2560" inkscape:window-x="-8" inkscape:window-y="-8" inkscape:zoom="1.6823726" objecttolerance="10" pagecolor="#ffffff" showgrid="false">
	</sodipodi:namedview>
<g id="g5818" transform="translate(-83.442547,-8.3891123)">
	<g id="g5803" transform="translate(39.726688,-146.50168)">
		<g id="g5795" transform="matrix(2.3806993,0,0,2.3806993,-141.40875,-17.698078)">
			<path id="path3053" inkscape:connector-curvature="0" class="st0" d="M118.6,97.2c0-2.2,0.4-3.2,2.1-4.7l2.7-2.2
				c1.7-1.4,2.6-1.4,4.7-1.4h5.7c1.2,0,2.5,0.3,2.5,1.8c0,1.5-1.4,1.7-2.5,1.7h-6.3c-0.7,0-1.4,0.4-2.1,0.9l-2.2,1.8
				c-0.6,0.4-1,0.8-1,1.5v4.4c0,0.7,0.4,1.1,1,1.5l2.2,1.8c0.6,0.5,1.4,0.9,2.1,0.9h6.3c1.1,0,2.5,0.2,2.5,1.8
				c0,1.5-1.3,1.8-2.5,1.8H128c-2.1,0-3,0-4.7-1.4l-2.7-2.2c-1.7-1.4-2.1-2.5-2.1-4.7V97.2z"/>
			<path id="path3055" inkscape:connector-curvature="0" class="st0" d="M160.8,99.9c-1,0-2.4,0.3-2.4,1.6v2.4
				c0,1.2,1.5,1.5,2.3,1.5h4l4-2.1v-0.8c0-2-0.6-2.6-2.5-2.6H160.8z M160.8,92.4c-1,0-2.5-0.2-2.5-1.7c0-1.5,1.3-1.8,2.5-1.8h4.9
				c1.9,0,3.2,0.2,4.7,1.6c1.4,1.4,1.6,2.4,1.6,4.2l0.4,12c0,1-0.5,2.1-1.7,2.1c-0.9,0-1.9-0.8-1.9-1.8l-2.5,1.3
				c-1,0.5-1.1,0.5-2.2,0.5h-3.4c-1.6,0-2.8-0.2-4.1-1.3c-1.5-1.2-1.9-2.5-1.9-4.4v-1.5c0-1.7,0.4-2.8,1.8-4
				c1.3-1.1,2.6-1.3,4.2-1.3h7.7v-0.8c0-2.7-0.6-3.1-3.2-3.1L160.8,92.4z"/>
			<path id="path3057" inkscape:connector-curvature="0" class="st0" d="M205.9,93.3v-1.8c0-1.3,0.2-2.6,1.8-2.6
				c1.3,0,1.8,1,1.8,2.1v2.5c0,0.6-0.2,0.9-0.4,1.4l-5.4,11.6c-0.3,0.7-1,2.2-1.9,2.2h-2.3c-0.9,0-1.5-1.5-1.9-2.2L192.3,95
				c-0.3-0.6-0.4-0.9-0.4-1.4v-2.5c0-1.1,0.5-2.1,1.7-2.1c1.6,0,1.8,1.4,1.8,2.6v1.8l5.2,11.8L205.9,93.3z"/>
			<path id="path3059" inkscape:connector-curvature="0" class="st0" d="M231.8,97.9h10.4v-2.2c0-0.7,0-1.2-0.4-1.6l-1.4-1.2
				c-0.5-0.4-1.2-0.5-1.7-0.5h-3c-0.7,0-1.2,0-1.8,0.4l-1.2,0.9c-0.4,0.3-0.7,0.6-0.7,1.6V97.9z M234.8,108.8c-1.5,0-2.1,0-3.2-1
				l-1.5-1.3c-1.4-1.2-1.8-2.1-1.8-4v-6.8c0-1.9,0.3-3,1.7-4.2l1.3-1.1c1.7-1.4,2.5-1.5,4-1.5h3.3c1.8,0,2.6,0.2,4,1.3l1.5,1.1
				c1.7,1.3,1.9,2.7,1.9,4.6v2.9c0,2-0.3,2.6-2.5,2.6h-11.5v1.2c0,0.3,0.2,0.8,0.5,1l0.9,1c0.5,0.5,1.2,0.7,2.4,0.7h7.7
				c1.2,0,2.5,0.3,2.5,1.8c0,1.6-1.4,1.8-2.5,1.8H234.8z"/>
		</g>
		<path id="path3061" inkscape:connector-curvature="0" class="st1" d="M118.7,243c-3.8,4.2-7.1,4.1-7.2,4.1l0,0c0,0,0,0,0,0
			l-4.6-0.1c1-0.8,2.1-1.7,3.2-3c0,0,0.1-0.1,0.1-0.1c8.2-11.9,5.5-19.9,3.1-23.6c-0.1-0.2-0.2-0.3-0.4-0.5l1.7,0.6
			c3.6,1,6.4,3.5,7.6,6.7C123.5,230.2,123.8,235.5,118.7,243 M100.3,262.7c-1.5,0.2-3.3,0.5-5,0.7c3.6-4.1,5.1-10.2,5.5-13.4l9,0.2
			C109.3,253.6,107.5,261.6,100.3,262.7 M86.3,264.3c-3.6-0.3-13-1.2-18.6-1.8l-4.2-0.4c-2-0.2-3.9-2.3-5.3-4.2
			c5.5,0.4,18.5,1.1,21,1.1c3.5-0.1,7.6-1.8,8.5-5c0.6-2.1,0.6-2.3,0.7-3.5c0.1-0.6,0.1-1.6,0.4-3.7c0.7-5,3.2-5.9,3.7-6.1
			c0.9-0.1,4.8-0.5,8.2-3.9c0-0.1,0.1-0.1,0.1-0.2c3.1-4.1,1.8-10.5,1.7-10.7c0,0-0.5-3.4-3.3-5.3c-1.7-1.2-3.9-1.5-6.3-1
			c-0.9,0.2-1.7,0.5-2.4,0.8c1.9-2.4,4.4-3.8,7.4-4.2c1.8-0.2,3.6-0.1,5.3,0.4c0.1,0.1,0.2,0.1,0.4,0.2l1.6,0.5
			c2.2,1,4.1,2.6,5.4,4.7c2,3.1,4.1,9.8-3,20.3c-4,4.5-7.5,4.7-8.1,4.7l-0.1,0c-0.1,0-0.1,0-0.2,0c0,0,0,0,0,0
			c-0.6,0.1-1.1,0.5-1.3,1.1c0,0,0,0,0,0c0,0.1,0,0.1,0,0.2c0,0.1,0,0.1,0,0.1c-0.1,1.8-1.4,10-5.9,13.9c-1,0.9-2,1.4-3.2,1.7
			c-0.2,0-0.4,0-0.4,0c-0.2,0-0.3,0.1-0.5,0.1C87.4,264.3,86.9,264.3,86.3,264.3 M50,240.4c-3.3-0.5-3.3-4.6-3.3-4.7
			c0,0,1.9-37.6,1.9-37.6c0-0.2,0.1-3.6,3.4-4.7c0.2-0.1,0.3-0.1,0.5-0.2c2.8-2.1,3.4-4.3,4-9.1c0.2-3.2,2.5-4.7,2.5-4.8
			c10.9-5.9,31.8-17.2,32.5-17.6c0.8-0.4,2-0.7,2.8-0.4c0.5,0.2,0.9,0.8,1.1,1.6c0.2,4.2,1.1,16.1,1.2,17.4c0,0.6-0.5,5.9-5.4,7.1
			c-1.5,0.4-2.6,0.3-3.4-0.2c-1.2-0.8-1.4-2.5-1.4-2.5c0-0.1,0-0.1,0-0.2l-0.6-3.2c-0.2-1.1-0.9-2-1.8-2.6c-2.1-1.3-5.2-0.5-5.6-0.4
			c-0.1,0-0.2,0.1-0.3,0.1c-0.1,0-9,4.5-12.6,6.2c-4.3,2-3.9,8.1-3.9,8.3c0-0.1-0.2,42.1-0.2,42.1c0,0.4,0.1,3.7,2.1,5.7
			c0.9,0.9,2.1,1.3,3.5,1.3c4.1-0.1,13-0.7,13.3-0.7c0.1,0,0.2,0,0.3,0c0.3-0.1,6.6-1.8,7.1-7.1c0.3-2.8,0.6-5.8,0.6-5.8
			c0-0.1,1-4.9,5.2-5.7c1.6-0.3,3-0.2,3.9,0.5c1.7,1.1,2.1,3.3,2.1,3.4c0,0.2,1.1,5.3-1.1,8.3c-2.9,2.9-6,3-6.2,3
			c-0.1,0-0.2,0-0.2,0c-0.2,0-5.2,1-6.2,8.6c-0.3,2.1-0.4,3.1-0.4,3.8c-0.1,1-0.1,1-0.6,2.9c-0.5,1.6-3.3,2.8-5.6,2.8
			c-2.7,0.1-18.7-0.9-22.5-1.2c-1.5-0.1-2.1-3.7-2.1-5.6c0.2-0.9,0.7-4.1-0.9-6.5C52.8,241.5,51.6,240.7,50,240.4 M102.8,158.6
			c1.3,0.6,3.5,2.2,4.1,5.9c0.3,5.8,1.2,17.1,1.2,17.2c0,0.4,0.5,11.1-12,15.1c-1.7,0.6-3.2,0.6-4.6,0.1c-0.4-0.2-0.6-0.3-0.6-0.3
			c-0.1,0-0.2-0.1-0.3-0.1c0,0-0.1,0-0.1-0.1c-3-1.7-4.6-5.6-5.2-7.5c0.2,0.2,0.5,0.4,0.7,0.6c1.6,1.1,3.6,1.4,6,0.7
			c5.9-1.5,7.6-7.2,7.7-10v-0.1c0-0.2-1-13.5-1.2-17.6c0-0.1,0-0.2,0-0.3c-0.4-1.6-1.2-2.6-2-3.2l1.4-0.7
			C99.2,157.7,101.1,157.7,102.8,158.6 M118,174.1c0.3,5.2,1,15,1,15.1c0,0.4,0.4,9.7-10.5,13.3c-1.6,0.5-5.4-0.2-6.4-0.7
			c0,0-2.3-1.1-4.8-2.2c14.5-4.9,13.9-18,13.9-18.1c0-0.2-0.9-10.8-1.2-16.7l4.6,4.2C116.1,170.3,117.5,171.6,118,174.1 M74.4,232.1
			L74.3,195l8.6,3.5l1,32.7L74.4,232.1z M84.4,195.8l-7.7-3.1l5.8-2.4c0.5,1.4,1.3,3.4,2.7,5.2L84.4,195.8z M80,238.3
			c-1.2,0.1-9.3,0.6-13,0.7c-0.5,0-0.9-0.1-1.3-0.4c-0.9-0.9-1.2-2.9-1.2-3.5l0.2-42.2c0-0.2-0.2-4.4,2.2-5.5
			c3.3-1.6,11.2-5.5,12.4-6.1c0.8-0.2,2.3-0.4,3,0.1c0.2,0.1,0.3,0.3,0.4,0.6l0.6,3.1c0,0.3,0.1,1,0.5,1.9c-0.3-0.1-0.7-0.1-1,0.1
			l-10.8,4.4c-0.1,0.1-0.2,0.1-0.4,0.2c0,0,0,0-0.1,0.1c-0.1,0.1-0.2,0.2-0.3,0.3v0c-0.1,0.1-0.1,0.2-0.2,0.3c0,0.1,0,0.1,0,0.1
			c0,0,0,0.1,0,0.1c0,0.1,0,0.2,0,0.4c0,0,0,0,0,0v0l0.2,41c0,0.4,0.2,0.8,0.5,1.1c0.3,0.3,0.7,0.4,1.2,0.4l11.6-1.2
			C84.2,236.8,80.7,238,80,238.3 M125.2,226.1c-1.6-4.1-5.1-7.3-9.6-8.5c0.1,0-6.3-2.1-9.3-3.1c-2.7-1.2-5.7-1.6-8.6-1.2
			c-4.8,0.7-8.7,3.5-11,7.8L86,198.5l1.5-0.5c0.5,0.4,1,0.8,1.6,1.1c0.4,0.2,0.8,0.4,1.3,0.6l10.4,4.8c1.5,0.8,6.2,1.7,8.7,0.9
			c13.2-4.3,12.7-16.3,12.6-16.4c0-0.1-0.8-10.1-1-15.2c0,0,0-0.1,0-0.2c-0.6-3.3-2.5-5.3-4.4-6.9c0,0.1-10.2-9.5-10.2-9.5
			c-0.1-0.1-0.2-0.1-0.3-0.1c-0.6-0.5-1.2-0.9-1.9-1.3c-2.5-1.2-5.5-1.3-7.7-0.2c0,0-35.7,19.2-39,21c-0.2,0.1-3.7,2.3-4,7.1
			c-0.6,4.5-1,5.6-2.7,6.9c-5,1.9-5.2,7.1-5.2,7.3c0-0.1-1.9,37.6-1.9,37.6c-0.1,2.4,1,7,5.8,7.8c0.7,0.1,1.2,0.4,1.6,0.9
			c0.9,1.3,0.6,3.5,0.4,4.3c0,0.1,0,0.2,0,0.3c0,0.7,0,5.6,2.5,7.8c0.4,0.9,4,7.9,9.2,8.3l4.2,0.4c5.6,0.6,15.1,1.5,18.7,1.8
			c1.2,0.1,2.3,0,3.4-0.3c1.9-0.2,7.6-0.8,11.4-1.4c9.5-1.4,11.6-11.8,12.1-15.6c1.8-0.3,5-1.4,8.2-5.1c0.1-0.1,0.1-0.1,0.1-0.2
			C127.1,236.2,126.7,229.9,125.2,226.1"/>
	</g>
</g>
</svg>
