<?xml version="1.0" encoding="utf-8"?>
<!-- Generator: Adobe Illustrator 16.0.0, SVG Export Plug-In . SVG Version: 6.00 Build 0)  -->
<!DOCTYPE svg PUBLIC "-//W3C//DTD SVG 1.1//EN" "http://www.w3.org/Graphics/SVG/1.1/DTD/svg11.dtd">
<svg version="1.1"
	 id="svg2" xmlns:dc="http://purl.org/dc/elements/1.1/" xmlns:cc="http://creativecommons.org/ns#" xmlns:rdf="http://www.w3.org/1999/02/22-rdf-syntax-ns#" xmlns:svg="http://www.w3.org/2000/svg" xmlns:sodipodi="http://sodipodi.sourceforge.net/DTD/sodipodi-0.dtd" xmlns:inkscape="http://www.inkscape.org/namespaces/inkscape" sodipodi:docname="capcom_ps_2_udb.svg" inkscape:version="0.91 r13725" xmlns:ns="&#38;#38;#38;#38;ns_sfw;"
	 xmlns="http://www.w3.org/2000/svg" xmlns:xlink="http://www.w3.org/1999/xlink" x="0px" y="0px" width="360px" height="109.207px"
	 viewBox="-53.426 0 360 109.207" enable-background="new -53.426 0 360 109.207" xml:space="preserve">
<sodipodi:namedview  showgrid="false" inkscape:cy="-34.374599" inkscape:cx="226.04387" inkscape:zoom="1.8078363" borderopacity="1" bordercolor="#666666" pagecolor="#ffffff" id="namedview19" inkscape:window-maximized="1" inkscape:window-y="-8" inkscape:window-x="-8" inkscape:current-layer="g4889" inkscape:pageshadow="2" inkscape:pageopacity="0" inkscape:window-height="1137" inkscape:window-width="1920" fit-margin-top="0" guidetolerance="10" gridtolerance="10" objecttolerance="10" fit-margin-left="0" fit-margin-right="0" fit-margin-bottom="0">
	</sodipodi:namedview>
<g id="g4889" transform="matrix(0.77798037,0,0,0.77798037,-14.187515,-215.28065)">
	<g id="g4249">
		<g id="g5257" transform="matrix(0.42825727,0,0,0.42825727,224.34698,535.46019)">
			<g id="g4969" transform="translate(-546.56587,8.7185585)">
				<g id="g4709" transform="translate(347.57586,-1073.0416)">
					<path id="path4711" inkscape:connector-curvature="0" fill="#999999" d="M-97.532,462.279v17.333h0.45
						c1.425,0,65.296,1.196,65.296,28.386v234.205c0,15.728-29.122,28.387-65.296,28.387h-0.45v17.331h86.399h23.097h86.399V770.59
						h-0.45c-36.174,0-65.296-12.659-65.296-28.387V507.998c0-27.19,63.873-28.386,65.296-28.386h0.45v-17.333H11.964h-23.097
						H-97.532z"/>
					
						<linearGradient id="path4713_1_" gradientUnits="userSpaceOnUse" x1="401.343" y1="-1402.3616" x2="401.343" y2="-1730.1584" gradientTransform="matrix(0.3332 0 0 -0.3332 -133.3013 -8.188)">
						<stop  offset="0" style="stop-color:#009EE0"/>
						<stop  offset="0.5105" style="stop-color:#0078BD"/>
						<stop  offset="1" style="stop-color:#003F86"/>
					</linearGradient>
					<path id="path4713" inkscape:connector-curvature="0" fill="url(#path4713_1_)" d="M-97.532,460.147v17.333h0.45
						c1.425,0,65.296,1.194,65.296,28.386v234.203c0,15.728-29.122,28.391-65.296,28.391h-0.45v17.328h86.399h23.097h86.399v-17.328
						h-0.45c-36.174,0-65.296-12.662-65.296-28.391V505.866c0-27.192,63.873-28.386,65.296-28.386h0.45v-17.333H11.964h-23.097
						H-97.532z"/>
				</g>
				<g id="g4715" transform="translate(543.47072,-1073.0416)">
					<path id="path4717" inkscape:connector-curvature="0" fill="#999999" d="M-97.531,462.279v17.333h0.45
						c1.423,0,65.294,1.196,65.294,28.386v234.205c0,15.728-29.12,28.387-65.294,28.387h-0.45v17.331h86.399h23.097h86.399V770.59
						h-0.451c-36.172,0-65.293-12.659-65.293-28.387V507.998c0-27.19,63.871-28.386,65.293-28.386h0.451v-17.333H11.965h-23.097
						H-97.531z"/>
					
						<linearGradient id="path4719_1_" gradientUnits="userSpaceOnUse" x1="205.4482" y1="-1402.3616" x2="205.4482" y2="-1730.1584" gradientTransform="matrix(0.3332 0 0 -0.3332 -68.0332 -8.188)">
						<stop  offset="0" style="stop-color:#009EE0"/>
						<stop  offset="0.5105" style="stop-color:#0078BD"/>
						<stop  offset="1" style="stop-color:#003F86"/>
					</linearGradient>
					<path id="path4719" inkscape:connector-curvature="0" fill="url(#path4719_1_)" d="M-97.531,460.147v17.333h0.45
						c1.423,0,65.294,1.194,65.294,28.386v234.203c0,15.728-29.12,28.391-65.294,28.391h-0.45v17.328h86.399h23.097h86.399v-17.328
						h-0.451c-36.172,0-65.293-12.662-65.293-28.391V505.866c0-27.192,63.871-28.386,65.293-28.386h0.451v-17.333H11.965h-23.097
						H-97.531z"/>
				</g>
				<g id="g4737" transform="translate(347.57586,-1073.0416)">
					<path id="path4739" inkscape:connector-curvature="0" fill="#999999" d="M-97.532,462.279v17.333h0.45
						c1.425,0,65.296,1.196,65.296,28.386v234.205c0,15.728-29.122,28.387-65.296,28.387h-0.45v17.331h86.399h23.097h86.399V770.59
						h-0.45c-36.174,0-65.296-12.659-65.296-28.387V507.998c0-27.19,63.873-28.386,65.296-28.386h0.45v-17.333H11.964h-23.097
						H-97.532z"/>
					
						<linearGradient id="path4741_1_" gradientUnits="userSpaceOnUse" x1="401.343" y1="-1402.3616" x2="401.343" y2="-1730.1584" gradientTransform="matrix(0.3332 0 0 -0.3332 -133.3013 -8.188)">
						<stop  offset="0" style="stop-color:#009EE0"/>
						<stop  offset="0.5105" style="stop-color:#0078BD"/>
						<stop  offset="1" style="stop-color:#003F86"/>
					</linearGradient>
					<path id="path4741" inkscape:connector-curvature="0" fill="url(#path4741_1_)" d="M-97.532,460.147v17.333h0.45
						c1.425,0,65.296,1.194,65.296,28.386v234.203c0,15.728-29.122,28.391-65.296,28.391h-0.45v17.328h86.399h23.097h86.399v-17.328
						h-0.45c-36.174,0-65.296-12.662-65.296-28.391V505.866c0-27.192,63.873-28.386,65.296-28.386h0.45v-17.333H11.964h-23.097
						H-97.532z"/>
				</g>
			</g>
			<g id="g5053" transform="translate(1237.1477,25.596182)">
				<g id="g5055" transform="translate(-718.17197,-398.16246)">
					<path id="rect5057" fill="#0C4DA1" d="M-912.625-23.599h586.045c15.807,0,28.619,12.812,28.619,28.619v4.444
						c0,15.804-12.812,28.616-28.619,28.616h-586.045c-15.806,0-28.618-12.812-28.618-28.616V5.02
						C-941.243-10.787-928.431-23.599-912.625-23.599z"/>
					<g id="g5059" transform="translate(-1072.3506,-702.96121)">
						<path id="path5061" inkscape:connector-curvature="0" fill="#FFFFFF" d="M298.408,705.648c0,1.225-0.214,2.427-0.643,3.605
							c-0.429,1.167-1.043,2.146-1.841,2.946c-1.092,1.082-2.314,1.896-3.662,2.447c-1.338,0.551-3.007,0.827-5.008,0.827h-4.398
							v8.928h-7.07v-27.406h11.634c1.742,0,3.209,0.152,4.399,0.457c1.203,0.296,2.264,0.745,3.185,1.345
							c1.104,0.724,1.945,1.65,2.522,2.781c0.589,1.126,0.882,2.483,0.882,4.065V705.648z M291.101,705.812
							c0-0.774-0.208-1.436-0.626-1.987c-0.418-0.566-0.901-0.958-1.454-1.178c-0.737-0.296-1.454-0.457-2.153-0.481
							c-0.701-0.035-1.633-0.053-2.799-0.053h-1.215v8.207h2.025c1.203,0,2.191-0.073,2.963-0.22c0.785-0.15,1.442-0.443,1.97-0.882
							c0.454-0.393,0.78-0.862,0.976-1.401C290.997,707.266,291.101,706.598,291.101,705.812L291.101,705.812z"/>
						<path id="path5063" inkscape:connector-curvature="0" fill="#FFFFFF" d="M330.197,724.401h-19.769v-27.406h7.068v22.106h12.7
							V724.401z"/>
						<path id="path5065" sodipodi:nodetypes="ccccccccccccc" inkscape:connector-curvature="0" fill="#FFFFFF" d="M367.749,724.401
							h-7.307l-2.341-5.54h-13.902l-2.474,5.54h-7.124l12.507-27.406h8.135L367.749,724.401z M355.989,713.838l-4.905-9.831
							l-4.863,9.831H355.989z"/>
						<path id="path5067" sodipodi:nodetypes="cccccccccc" inkscape:connector-curvature="0" fill="#FFFFFF" d="M402.353,696.996
							L391.804,713.8v10.602h-7.068v-10.271l-10.804-17.135h8.025l6.46,10.602l6.168-10.602H402.353z"/>
						
							<path id="path5069" sodipodi:nodetypes="scsccccssccscccccscsccccscccscccccs" inkscape:connector-curvature="0" fill="#FFFFFF" d="
							M452.577,715.292c0,2.699-1.147,4.895-3.442,6.589c-2.282,1.682-5.387,2.521-9.313,2.521c-2.27,0-4.252-0.193-5.946-0.586
							c-1.681-0.405-3.258-0.915-4.731-1.53l2.27-5.294c0.89,0.507,2.408,1.067,3.4,1.41c1.816,0.624,3.558,0.941,5.228,0.941
							c0.429,0,0.994-0.038,1.693-0.111c0.701-0.076,1.271-0.199,1.712-0.369c0.541-0.22,0.982-0.498,1.325-0.827
							c0.356-0.334,0.535-0.824,0.535-1.474c0-0.601-0.258-1.117-0.774-1.545c-0.503-0.443-1.246-0.78-2.226-1.014
							c-1.032-0.246-2.124-0.472-3.277-0.68c-1.142-0.223-2.214-0.498-3.221-0.827c-2.307-0.75-3.97-1.765-4.989-3.04
							c-1.005-1.287-1.51-2.881-1.51-4.786c0-2.55,1.142-4.631,3.424-6.237c2.295-1.621,5.241-2.433,8.836-2.433
							c1.804,0,3.583,0.182,5.339,0.533c1.766,0.346,3.295,0.78,4.583,1.307l-2.979,4.901c-0.573-0.287-1.187-0.554-1.844-0.794
							c-1.594-0.601-3.227-0.9-4.896-0.9c-0.588,0-1.177,0.041-1.766,0.129c-0.577,0.07-1.136,0.217-1.675,0.44
							c-0.479,0.182-0.89,0.466-1.234,0.847c-0.343,0.366-0.514,0.791-0.514,1.269c0,0.724,0.276,1.284,0.828,1.677
							c0.552,0.381,1.594,0.727,3.129,1.049c1.005,0.205,1.97,0.41,2.89,0.607c0.932,0.196,1.931,0.466,3,0.809
							c2.099,0.689,3.645,1.627,4.638,2.817C452.074,711.868,452.577,713.401,452.577,715.292z"/>
						<path id="path5071" inkscape:connector-curvature="0" fill="#FFFFFF" d="M552.519,702.295h-8.559v22.106h-7.067v-22.106
							h-8.559v-5.299h24.184V702.295z"/>
						<path id="path5073" sodipodi:nodetypes="ccccccccccccc" inkscape:connector-curvature="0" fill="#FFFFFF" d="M582.569,724.401
							h-21.08v-27.406h21.08v5.299H568.52v4.731h13.128v5.302H568.52v6.774h14.049V724.401z"/>
						<path id="path5075" sodipodi:nodetypes="cccccccccccccc" inkscape:connector-curvature="0" fill="#FFFFFF" d="
							M629.709,724.401h-7.41l-0.627-13.207l-7.65,13.202h-4.877l-7.65-13.202l-0.63,13.207h-7.04l1.005-27.406h6.888l10.059,18.941
							l10.036-18.941h6.891L629.709,724.401z"/>
						<path id="path5077" sodipodi:nodetypes="cccccccccc" inkscape:connector-curvature="0" fill="#FFFFFF" d="M489.079,696.996
							L478.53,713.8v10.602h-7.07v-10.271l-10.804-17.135h8.025l6.46,10.602l6.17-10.602H489.079z"/>
						
							<path id="path5079" sodipodi:nodetypes="scsccccssccscccccscsccccscccscccccs" inkscape:connector-curvature="0" fill="#FFFFFF" d="
							M519.19,715.292c0,2.699-1.143,4.895-3.441,6.589c-2.28,1.682-5.387,2.521-9.315,2.521c-2.269,0-4.25-0.193-5.944-0.586
							c-1.682-0.405-3.256-0.915-4.731-1.53l2.272-5.294c0.888,0.507,2.406,1.067,3.397,1.41c1.817,0.624,3.558,0.941,5.229,0.941
							c0.428,0,0.994-0.038,1.694-0.111c0.698-0.076,1.269-0.199,1.712-0.369c0.539-0.22,0.979-0.498,1.325-0.827
							c0.357-0.334,0.533-0.824,0.533-1.474c0-0.601-0.258-1.117-0.774-1.545c-0.504-0.443-1.243-0.78-2.228-1.014
							c-1.029-0.246-2.122-0.472-3.277-0.68c-1.137-0.223-2.213-0.498-3.218-0.827c-2.31-0.75-3.969-1.765-4.989-3.04
							c-1.008-1.287-1.509-2.881-1.509-4.786c0-2.55,1.14-4.631,3.423-6.237c2.295-1.621,5.238-2.433,8.837-2.433
							c1.8,0,3.582,0.182,5.335,0.533c1.77,0.346,3.294,0.78,4.584,1.307l-2.978,4.901c-0.574-0.287-1.19-0.554-1.844-0.794
							c-1.597-0.601-3.227-0.9-4.898-0.9c-0.586,0-1.178,0.041-1.765,0.129c-0.58,0.07-1.137,0.217-1.677,0.44
							c-0.481,0.182-0.891,0.466-1.231,0.847c-0.346,0.366-0.516,0.791-0.516,1.269c0,0.724,0.275,1.284,0.826,1.677
							c0.551,0.381,1.594,0.727,3.13,1.049c1.005,0.205,1.97,0.41,2.89,0.607c0.932,0.196,1.932,0.466,3.001,0.809
							c2.096,0.689,3.64,1.627,4.637,2.817C518.689,711.868,519.19,713.401,519.19,715.292z"/>
					</g>
				</g>
				<g id="g5081" transform="translate(-1789.4636,-1102.0058)">
					<path id="path5083" inkscape:connector-curvature="0" fill="#0C4DA1" d="M206.115,564.375l-35.923,37.943l-23.726-16.266
						c0,0,7.805-7.449,0.686-12.875c-5.553-4.231-21.13,4.744-20.456,22.365c0.792,20.328,13.353,31.843,27.227,31.843
						c12.885,0,16.269-10.388,16.269-10.388h28.87v23.953l40.585-107.074h46.424l37.276,96.236c0,0,2.708,5.072,5.418,6.428
						c0,0,0.155-63.127,0.155-64.9c0-1.767-0.233-3.72-1.339-4.989c-1.819-2.094-4.916-2.963-4.916-2.963v-29.812
						c0,0,43.018,0,65.052,0c33.744,0,42.398,9.149,52.182,26.771c13.508-18.187,32.103-30.162,58.62-30.162
						c27.28,0,46.583,10.057,57.607,26.768c15.397-18.407,40.179-26.937,62.857-26.937c27.869,0,51.142,13.506,63.188,34.393
						v-30.833h62.678l6.607,16.764l4.918-16.764h64.718v29.135c0,0-3.734,1.023-4.766,2.705c-1.002,1.659-0.826,6.958-0.826,6.958
						l9.028,57.59c0.381,1.872,1.049,3.828,2.662,5.263c1.87,1.674,4.402,1.36,4.402,1.36v33.197H766.54v-25.078h-37.272v25.143
						h-61.16v-16.344c0,0-22.353,19.662-51.159,19.662c-36.873,0-61.506-27.104-61.506-27.104v23.715c0,0-2.702,0-43.362,0
						c-38.596,0-71.728-21.118-80.981-59.634c-4.388,4.196-23.733,18.007-46.932,23.21c-1.806,0.406-2.706,1.082-2.706,3.038
						c0,3.566,7.622,4.838,7.622,4.838v28.546c0,0-200.588,0-237.854,0c-44.053,0.009-79.443-30.146-79.443-68.433
						c0-38.29,27.59-70.821,73.328-70.821C188.832,530.823,206.115,564.375,206.115,564.375L206.115,564.375L206.115,564.375z"/>
					<path id="path5085" inkscape:connector-curvature="0" fill="#FFCA08" d="M188.998,564.968l-19.137,20.066
						c0,0-1.017,0.511-1.863,0.511c-0.85,0-2.04-0.85-2.04-0.85l-2.367-2.025c0,0-0.682-0.166-0.682-0.85
						c0-0.668,1.864-2.374,1.864-5.593c0-3.221-0.674-16.604-21.341-16.604c-20.667,0-29.816,19.314-29.816,35.24
						c0,15.927,9.821,45.067,42.02,45.067c18.724,0,22.691-10.514,22.691-10.514h6.435v27.453h-35.233
						c-42.012,0-65.397-32.875-65.397-56.59c0-36.364,31.622-56.543,60.313-56.543C172.23,543.738,188.998,564.968,188.998,564.968
						L188.998,564.968L188.998,564.968z"/>
					<path id="path5087" inkscape:connector-curvature="0" fill="#FFCA08" d="M248.301,546.756h28.968l35.24,92.16
						c1.011,2.532,2.705,4.924,4.398,6.941c1.688,2.037,5.758,3.4,5.758,3.4v7.949h-42.511v-8.131c0,0,2.702,0.352,4.063-2.025
						c1.353-2.374,1.353-4.235,0.341-6.604c-1.017-2.38-8.148-21.177-8.148-21.177h-34.722c0,0-7.111,18.973-7.795,20.661
						c-0.678,1.694-0.678,4.408,0,6.097c1.127,2.82,5.085,3.236,5.085,3.236v7.949h-34.058v-7.949c0,0,3.098-1.067,5.422-3.4
						c2.54-2.538,3.384-5.255,3.384-5.255L248.301,546.756L248.301,546.756L248.301,546.756z M247.445,601.982h22.37l-11.518-32.185
						L247.445,601.982L247.445,601.982z"/>
					<path id="path5089" inkscape:connector-curvature="0" fill="#FFCA08" d="M336.217,546.756c0,0,34.22,0,54.216,0
						c19.993,0,39.978,7.106,39.978,30.148c0,23.04-14.57,31.179-27.104,36.939c-14.471,6.648-33.542,11.862-33.542,11.862v17.611
						c0,0,0.17,1.19,1.863,3.209c1.699,2.034,3.56,2.55,3.56,2.55v8.131h-39.307v-7.952c0,0,2.371-0.516,4.073-2.207
						c1.688-1.694,2.036-3.731,2.036-3.731v-79.623c0,0,0.155-3.391-1.191-4.741c-1.353-1.366-4.577-3.221-4.577-3.221v-8.975
						h-0.003l0,0H336.217z M370.101,563.353v47.095c0,0,31.848-13.21,31.848-31.846
						C401.949,555.561,370.101,563.353,370.101,563.353L370.101,563.353z"/>
					<path id="path5091" inkscape:connector-curvature="0" fill="#FFCA08" d="M547.823,565.162l-19.146,20.068
						c0,0-1.017,0.509-1.864,0.509c-0.841,0-2.028-0.849-2.028-0.849l-2.377-2.037c0,0-0.674-0.16-0.674-0.834
						c0-0.682,1.858-2.387,1.858-5.593c0-3.224-0.668-16.607-21.341-16.607c-20.676,0-29.821,19.307-29.821,35.237
						c0,15.916,9.828,45.062,42.026,45.062c18.724,0,22.692-10.506,22.692-10.506h6.442v27.445h-35.249
						c-42.008,0-65.394-32.865-65.394-56.583c0-36.36,31.616-56.548,60.311-56.548C531.048,543.926,547.823,565.162,547.823,565.162
						L547.823,565.162z"/>
					<path id="path5093" inkscape:connector-curvature="0" fill="#FFCA08" d="M616.439,660.389
						c-36.603,0-62.907-26.727-62.907-59.247c0-32.544,26.99-57.745,62.907-57.745c35.906,0,62.889,25.201,62.889,57.745
						C679.329,633.659,653.022,660.389,616.439,660.389L616.439,660.389z M583.898,601.643c0,32.528,16.608,40.658,32.541,40.658
						c15.913,0,32.863-10.165,32.863-40.658c0-30.49-18.976-40.66-32.863-40.66C602.543,560.983,583.898,569.108,583.898,601.643
						L583.898,601.643L583.898,601.643z"/>
					<path id="path5095" inkscape:connector-curvature="0" fill="#FFCA08" d="M695.713,546.826h40.326l14.573,44.994l15.579-45.064
						h42.181v6.601c0,0-2.808,1.187-4.054,2.713c-1.527,1.866-1.527,3.218-1.19,5.938c0.337,2.703,11.179,76.234,11.522,78.946
						c0.34,2.711,0.674,4.235,1.354,6.099c0.668,1.847,3.898,3.383,3.898,3.383v6.832h-40.496v-7.339c0,0,3.555-0.507,4.748-2.207
						c1.19-1.694,1.688-2.714,1.354-5.42c-0.34-2.708-9.989-64.378-9.989-64.378l-17.622,54.552h-21.344l-17.458-51.171
						l-8.805,60.314c0,0-0.346,3.623,1.014,5.598c1.864,2.711,5.261,2.711,5.261,2.711v7.278h-35.082v-7.779
						c0,0,2.793-0.431,4.824-2.808c2.031-2.362,2.374-5.422,2.374-5.422l12.797-79.539c0,0,0.768-2.971-0.085-4.319
						c-0.894-1.427-5.68-2.625-5.68-2.625v-7.888H695.713L695.713,546.826z"/>
				</g>
			</g>
		</g>
	</g>
</g>
</svg>
