<?xml version="1.0" encoding="utf-8"?>
<!-- Generator: Adobe Illustrator 16.0.0, SVG Export Plug-In . SVG Version: 6.00 Build 0)  -->
<!DOCTYPE svg PUBLIC "-//W3C//DTD SVG 1.1//EN" "http://www.w3.org/Graphics/SVG/1.1/DTD/svg11.dtd">
<svg version="1.1"
	 id="svg2" xmlns:dc="http://purl.org/dc/elements/1.1/" xmlns:cc="http://creativecommons.org/ns#" xmlns:rdf="http://www.w3.org/1999/02/22-rdf-syntax-ns#" xmlns:svg="http://www.w3.org/2000/svg" xmlns:sodipodi="http://sodipodi.sourceforge.net/DTD/sodipodi-0.dtd" xmlns:inkscape="http://www.inkscape.org/namespaces/inkscape" sodipodi:docname="The_Simpsons_Logo.svg" inkscape:version="0.91 r13725"
	 xmlns="http://www.w3.org/2000/svg" xmlns:xlink="http://www.w3.org/1999/xlink" x="0px" y="0px" width="439px" height="133px"
	 viewBox="-69.5 0 439 133" enable-background="new -69.5 0 439 133" xml:space="preserve">
<sodipodi:namedview  showgrid="false" inkscape:cy="65.719167" inkscape:cx="145.19177" inkscape:zoom="3.5595182" borderopacity="1" bordercolor="#666666" pagecolor="#ffffff" id="namedview48" inkscape:window-maximized="1" inkscape:window-y="34" inkscape:window-x="0" inkscape:current-layer="g4" inkscape:pageshadow="2" inkscape:pageopacity="0" inkscape:window-height="980" inkscape:window-width="1920" guidetolerance="10" gridtolerance="10" objecttolerance="10">
	</sodipodi:namedview>
<g id="g4" transform="matrix(0.7239155,0,0,0.72377758,-102.33486,-291.93139)">
	<path id="path6" d="M386.406,403.344c-2.933-0.024-5.841,0.638-8.259,1.827c-3.735,2.445-8.218,3.703-11.717,6.277
		c-6.351,7.623-12.099,15.527-13.32,24.945c-1.662-7.664,0.29-16.288-1.214-24.386c-0.925-0.84-1.139-1.942-2.215-2.755
		c-2.08-0.711-4.555-1.472-6.764-0.402c-2.076,0.893-1.614,4.002-4.325,4.426c-8.092,7.334,1.267,16.799-1.139,25.293
		c-7.783,0.959-0.805-7.227-5.053-9.68c1.242-3.75,0.751-8.712,0.049-12.575c-1.812-2.119-4.511-5.124-7.568-3.341
		c-1.846,1.655-2.09,3.995-3.58,5.686c-6.256-0.315-0.893,8.852-7.239,6.455c-2.944,3.679-8.758,1.423-12.314,4.023
		c-2.176-2.431,0.201-5.087-0.766-7.866c-3.189-7.226-8.843,0.65-12.834,0.434c-3.25,1.27-3.822,4.965-3.847,8.015
		c-6.016,2.039-12.884-1.651-19.005,0.966c-3.131,0.657-4.052,3.775-4.811,6.136c-1.627,3.457,1.246,5.981,3.265,8.562
		c3.181,2.361,7.02,3.039,10.854,3.524c2.779,1.076,6.871-0.831,9.203,1.336c0.271,6.885-1.792,16.774,2.903,22.727
		c2.83,1.699,6.303,1.583,9.192-0.343c9.306-5.112,3.575-15.871,5.364-23.812c0.162-0.293,0.506-0.489,0.674-0.796
		c2.457,0.688,4.639-0.685,6.694-1.406c6.66-1.741,0.766,6.698,5.668,8.778c5.965,2.168,2.778,10.078,5.026,14.769
		c2.01,2.899,6.033,3.951,9.305,3.303c1.351-0.675,2.531-2.085,1.945-3.648c4.58-3.455,2.598-10.27,2.725-15.047
		c1.431,0.973,3.652-0.455,4.773,0.977c-0.845,5.463,0.192,9.553,1.346,14.518c1.511,2.625,4.21,2.035,6.651,2.628
		c2.432-0.783,5.002-1.685,6.497-3.341c0.801-1.727,2.779-4.092,0.675-5.645c3.399-5.856-4.296-12.122,1.071-17.753
		c0.583,1.687,0.623,3.284,1.025,5.038c5.086,6.266,11.441,14.909,20.877,15.546c4.835,1.322,9.724,1.668,14.512,0.656
		c3.123,0.229,5.151-2.16,7.884-2.701c6.138-3.526,15.318-7.799,13.431-16.599c1.689-1.503,2.121-3.488,2.401-5.648
		c-1.097-1.444-2.925-3.383-4.821-3.719c-3.865-1.578-6.988,2.693-8.796,4.992c-5.547,0.737-9.162,5.763-14.896,5.019
		c0.975-1.26,2.555-1.089,3.184-2.618c4.784-1.774,8.217-6.702,9.934-11.018c-0.923-7.677,2.984-19.124-2.952-26.114
		c-2.672-1.842-4.279-3.326-6.769-5.386C388.365,403.438,387.383,403.352,386.406,403.344z M380.902,424.775
		c1.265,0.919,4.908,1.44,3.108,3.805c-3.518-1.035-6.424,6.151-8.304,1.428C378.663,429.455,377.973,425.352,380.902,424.775z"/>
	<path id="path8" fill="#EE3133" d="M385.321,404.998c-9.821,0.254-13.922,11.187-19.005,17.481
		c-1.051,5.605-7.263,10.847-3.049,16.615c0.78,3.321,0.414,7.097,1.586,10.308c4.921,3.932,6.966,11.243,14.866,9.636
		c5.258,2.611,10.886-0.491,16.04-1.352c5.342-5.271,15.527-7.258,16.102-15.149c-1.234-0.586-2.653-1.908-4.236-2.164
		c-2.559,0.783-3.019,3.43-5.563,5.278c-7.595-0.035-11.487,7.293-19.315,6.582c-2.996-1.348-7.318-1.067-9.332-4.436
		c-0.252-1.64-1.724-5.014,0.993-5.948c10.649,2.094,16.906-7.456,22.339-13.692c0.235-3.939,0.994-7.764,0.453-11.817
		c-0.77-2.332-2.057-4.873-2.342-7c-2.432-0.078-4.086-3.134-6.3-4.061C387.412,405.059,386.337,404.972,385.321,404.998z
		 M385.162,413.601c1.554-0.074,3.054,0.642,4.268,2.65c3.479,5.789-3.267,9.951-4.97,15.149c-4.006-0.088-7.645,5.16-11.607,1.158
		c-1.186-4.215,3.186-7.971,3.726-12.445C378.06,417.736,381.742,413.763,385.162,413.601z"/>
	<path id="path10" fill="#EE3133" d="M349.79,412.57c1.939,9.459-2.705,20.131,3.439,27.732c1.296,2.42-1.57,4.295-2.142,6.316
		c-2.27,5.17,1.156,9.801,0.853,15.076c-1.128,2.158-3.412,1.904-5.807,1.695c-2.34-1.156-0.695-4.773-1.813-6.699
		c-1.859-3.043,1.891-9.93-4.514-9.69c-1.682,1.508-4.504,0.607-6.744,1.056c-5.505,5.625,1.563,12.764-3.466,18.66
		c-1.871,0.57-3.305-0.836-4.236-2.154c0.176-5.078-1.031-9.621-2.072-14.217c-1.428-1.713-6.297-2.076-4.008-5.756
		c0.578-3.395,5.623-3.316,5.635-6.895c1.303-7.117,0.039-14.141,0.123-21.162c0.967-1.531,2.344-1.9,4.068-1.786
		c0.129,4.137,3.604,8.246,0.799,12.269c2.233,3.563,0.273,7.348,1.611,11.215c1.855,3.064,6.439,2.249,9.57,1.685
		c1.025-0.679,2.094-0.926,2.896-2.081c-2.156-7.311-0.264-17.52-1.281-25.863C344.348,409.418,348.688,409.799,349.79,412.57z"/>
	<path id="path14" fill="#EE3133" d="M298.709,426.77c-1.311,1.008,0.951,1.941-0.201,2.816c5.291,4.104,11.208-1.352,16.879-2.014
		c1.934,1.34,1.557,4.313,1.098,6.113c-3.982,4.566-9.998,6.957-16.385,7.287c-3.035,1.457-2.559,4.822-1.798,7.15
		c1.215,5.525,0.068,12.588,0.103,18.021c-0.611,2.168-2.855,2.24-4.363,3.416c-2.947-1.336-3.646-4.914-2.695-7.777
		c0.264-6.549,0.154-10.822-0.604-17.332c-3.662-4.947-11.168-1.242-16.1-3.721c-3.252,0.904-5.777-1.131-7.572-3.002
		c-1.077-1.457,0.455-2.788,0.757-4.299c1.506-1.205,3.893-1.779,5.83-1.021c5.678-1.034,13.807,3.303,17.2-2.9
		c0.615-2.438-1.766-6.641,2.35-7.121c1.564-0.561,3.362-2.863,4.939-1.508C297.725,423.218,299.171,424.128,298.709,426.77
		L298.709,426.77z"/>
	<path id="path18" d="M213.086,447.114c-19.325,2.482-34.179,12.039-50.353,21.081c-3.328,4.112-8.258,5.531-10.498,10.559
		c-6.086,4.164-7.922,11.128-10.104,17.276c-4.725,18.365,13.316,29.006,26.281,37.547c5.576,5.609,13.783,8.248,19.14,13.652
		c7.795,4.01,16.202,6.155,23.645,11.007c-0.34,0.329-0.846,0.842-1.198,1.16c-6.008,0.551-13.659,0.019-20.432-0.111
		c-7.158,2.415-14.698,0.526-21.19-2.078c-4.5-0.923-9.479,0.712-12.303,3.756c-4.535-0.184-7.54,2.887-9.343,5.688
		c-1.11,3.194,0.433,6.617,1.236,9.51c1.336,2.941,4.665,4.442,7.603,5.149c14.147,6.421,29.184,2.097,44.684,4.855
		c5.942,1.761,12.132,0.909,17.761-1.479c7.315-3.022,17.437-6.655,17.596-15.991c4.679-1.156,2.347-13.068,7.781-6.466
		c3.116,0.818,6.682,2.842,10.056,0.723c1.622-2.145,4.722-3.403,3.437-6.288c4.053-1.314,3.564-5.531,5.925-8.071
		c2.185,2.68,3.823,6.258,6.489,8.43c3.34,0.043,5.466,2.753,9.618,1.633c2.844-1.882,4.865-4.571,5.204-7.693
		c3.933-1.959,1.845-7.281,5.072-9.701c0.633,3.074,4.634,3.432,6.753,5.313c7.653-0.394,8.523-8.279,11.685-12.996
		c0.225,7.525-5.078,17.359,0.85,24.071c2.703,2.511,5.853,3.835,9.964,3.109c0.649-1.159,3.46-0.323,2.552-2.431
		c3.57-2.067,1.329-6.093,2.911-8.784c2.138-4.145,0.229-9.499,2.825-13.52c10.615,0.723,2.687,11.552,7.73,16.321
		c1.6,2.34,5.151,3.589,8.747,2.769c7.735-1.889,6.153-10.508,7.74-16.315c5.043,0.607,9.61-1.619,14.415-2.145
		c2.069-0.739,3.567-2.759,6.143-2.218c4.789-2.896,3.321-8.757,4.573-13.412c2.185,3.047,4.552,6.869,9.098,7.861
		c1.104,1.49,1.499,3.604,0.858,4.747c-2.52,0.934-5.334,1.503-7.711,2.596c-0.464,0.494-1.141,1.004-0.815,1.649
		c-3.766,0.803-7.101,3.366-8.032,7.005c0.289,2.959-0.583,7.267,2.73,9.24c7.584,3.219,16.807,4.682,24.657,0.807
		c4.692-3.789,14.704-5.133,12.851-13.422c2.717,3.889,3.22,8.132,7.503,11.042c4.487,5.292,10.87,4.397,17.049,3.057
		c1.886-0.733,2.35-1.909,4.414-2.135c4.913-3.635,6.286-8.738,10.479-12.189c1.683-1.838,1.412-4.59,3.095-5.996
		c1.918,5.69-2.952,9.782-1.524,15.767c0.432,2.322,2.357,3.719,4.627,4.161c2.76-0.777,6.559-1.587,6.945-4.871
		c4.074-2.145,5.659-5.964,8.501-8.646c2.767,3.686,4.471,7.715,8.205,10.36c6.618,0.569,7.7-6.34,12.67-9.412
		c4.082-4.748,3.293-12.961,2.531-19.505c0.355-0.308,0.499-0.499,0.828-0.82c1.886,8.797,15.217,8.8,14.343,17.737
		c-0.904,3.299-4.703,3.937-7.247,5.324c-2.544,1.233-7.274,0.54-7.441,4.525c-3.494-0.583-5.879,2.132-7.654,4.663
		c0.113,2.738,1.238,5.181,2.72,7.313c4.28,3.933,10.482,4.026,16.35,3.063c10.611-4.044,22.569-8.044,25.429-20.271
		c-0.758-2.423,0.691-4.937,2.169-7.14c0.766-3.487,2.158-7.586-1.584-10.098c0.664-5.633-6.205-4.847-8.955-8.417
		c-3.379-2.431-8.021-5.753-8.334-9.491c2.347-2.566,5.836-2.53,8.69-4.28c1.905-0.219,1.635,1.778,1.657,3.079
		c0.293,3.072,3.467,4.115,6.108,5.397c4.346,1.619,6.116-3.022,9.017-5.111c-1.122-2.419,1.902-3.658-0.723-5.521
		c4.709-3.128,2.374-10.296,2.652-15.859c-2.641-2.39-5.865-5.697-9.729-6.735c-13.895-2.281-25.636,4.351-33.091,14.138
		c-1.918,3.789-4.413,7.386-5.803,11.336c-3.34-5.297-5.801-11.929-11.453-15.023c-1.918-0.418-3.065,0.787-4.417,1.816
		c-1.779,4.111-4.249,7.518-7.077,11.247c-1.735,4.451,3.208,6.717,5.385,9.979c0.549,1.57,0.992,4.033-0.272,5.508
		c-1.972-1.05-3.916-2.396-6.354-2.523c-2.629-5.166-7.631-0.702-11.604-0.753c-4.027,0.475-6.78,4.798-7.714,7.677
		c-1.311-2.574-0.928-5.939-3.062-8.133c-3.27-4.098-8.825-4.463-13.22-6.598c-1.48-2.553-5.793-1.449-7.873-2.143
		c-10.738,0.51-12.629,11.235-17.354,17.964c-2.508-2.697-5.061-5.448-7.746-7.917c-0.912-1.965-1.547-4.229-3.502-5.473
		c-0.092-3.26,4.639-1.992,6.162-3.006c4.759-1.615,10.679-0.367,14.747-3.327c0.461-1.461,0.928-3.909-0.866-5.035
		c-1.435-1.406,0.436-2.658,1.055-3.951c-0.658-3.924-2-8.157-5.755-10.446c-6.773-1.783-12.523,3.066-18.525,5.076
		c-2.288,1.828-4.91,2.627-7.848,2.99c-5.782,2.375-10.807,6.619-11.963,12.907c-3.005-5.949-7.077-12.71-14.262-15.565
		c-6.483-1.619-12.921,1.56-18.543,4.264c-9.209,4.388-9.365,14.599-8.358,23.089c1.059,4.239-5.754,3.115-8.086,5.691
		c-2.959-5.146-0.239-11.331-1.495-17.184c-1.453-2.566-4.345-5.245-7.63-5.332c-3.412-4.099-5.619,2.836-7.886,2.739
		c-0.202-0.491-1.062-1.104-2.099-0.761c-3.078,1.622-5.199,4.623-5.941,8.12c-2.681-2.367-1.443-7.024-5.199-9.348
		c-3.52-1.687-6.649-3.074-10.924-1.854c-2.582,1.465-3.105,5.765-6.99,3.605c-2.402,0.293-4.464,1.482-6.079,3.492
		c-5.368,10.003-4.912,22.172-8.353,32.973c-0.524,0.147-0.9-0.468-1.255-0.82c3.086-5.991,2.151-12.996,1.368-19.397
		c2.42-5.51-1.549-10.396-2.291-15.638c-1.502-3.303-5.173-4.734-8.823-4.299c-1.75-0.47-2.458,3.513-4.058,1.249
		c-2.072,0.769-3.964,1.84-5.782,3.381c-2.289,4.11-2.798,9.92-1.049,14.567c-0.287,11.023,0.67,19.68-2.717,29.622
		c-4.654-3.702-9.339-7.552-14.413-10.136c-11.382-3.845-20.576-13.047-31.774-16.949c0.008-0.305-0.01-0.497-0.024-0.831
		c-8.762-2.609-14.935-10.303-21.892-15.762c1.246-4.354-6.209-3.763-3.2-7.769c0.673-9.373,10.382-15.119,18.943-18.107
		c4.123,0.41,6.788-2.313,10.765-2.609c7.799-4.584,17.334-4.378,26.346-4.034c3.173,1.846,1.129,6.829,4.147,9.199
		c3.949,3.838,11.364,2.253,15.786,0.766c2.885-1.241,1.006-4.28,1.522-6.436c3.855-3.238,2.263-8.928,2.288-13.08
		c-0.861-4.488-4.825-9.445-9.421-10.613C230.548,447.023,221.398,447.825,213.086,447.114z M354.424,507.185
		c1.539,3.244,4.228,6.082,4.047,9.984c-2.102-0.047-9.28,2.823-6.357-2.356C353.594,512.462,352.462,509.236,354.424,507.185z
		 M431.12,526.172c4.055,1.867,0.656,7.683,5.709,8.479c0.372,0.98-0.285,1.842-1.139,2.008c-2.299-0.084-4.7,0.488-6.589-0.273
		C427.901,532.824,428.483,528.892,431.12,526.172z"/>
	<path id="path20" fill="#EE3133" d="M229.84,451.63c5.191,3.756,14.756,5.385,14.539,13.744c-0.063,3.16,1.469,7.832-2.475,9.135
		c-7.697,1.581-0.234-8.069-8.238-8.445c-14.832-7.53-33.1-0.82-47.313,3.994c-4.102,5.491-13.057,2.398-16.242,9.725
		c-6.379,1.146-7.217,7.787-8.209,12.73c1.207,4.189,1.219,9.645,5.463,11.658c1.588,5.856,8.813,9.013,12.393,13.784
		c3.18,1.523,6.596,4.396,10.275,5.568c14.535,8.854,31.045,15.5,44.932,25.975c-0.131,1.851,2.268,1.398,2.695,3.061
		c1.49,7.326-0.922,13.467-6.803,18.219c-5.086,3.001-10.855,1.221-15.221,5.357c-4.622,1.608-10.563-0.992-15.367,1.378
		c-6.762,0.015-12.354-2.406-19.109-2.193c-7.154-1.386-15.289-2.105-21.84-5.953c-2.178-1.736-1.396-5.396-1.189-7.832
		c2.197-2.193,6.869-2.352,10.336-1.82c5.064,1.619,10.164,2.918,15.902,2.545c9.607-2.453,19.42,2.126,28.089-2.135
		c3.148-0.109,6.657,1.414,9.202,0.03c2.616,0.729,3.943-1.465,6.145-1.363c2.238-1.706-0.461-3.284-1.335-4.704
		c-6.99-1.085-7.313-10.454-15.184-8.523c-9.456-6.698-20.163-10.105-29.676-15.832c-2.846-2.029-3.885-6.422-8.557-5.602
		c-4.039-2.008-5.924-6.696-10.281-8.008c-1.501-2.939-6.748-3.211-6.495-6.861c-3.057-2.651-2.68-6.764-5.381-9.648
		c-2.846-6.803,2.35-11.848,2.639-18.135c2.783-4.346,8.104-5.873,9.963-10.984c17.109-10.889,34.926-21.559,57.121-20.852
		C223.461,451.023,226.727,450.916,229.84,451.63z"/>
	<path id="path22" fill="#EE3133" d="M534.739,484.09c8.674,1.774,3.961,9.988,5.555,15.016c-1.3,2.35-4.441,1.987-6.533,1.541
		c-1.712-3.2,1.14-6.58-2.918-8.539c-5.682,0.631-11.148,2.473-14.627,7.209c-3.708,2.927-1.992,7.739-4.624,11.144
		c3.908,6.731,10.926,9.904,17.15,14.635c1.033,4.073,5.65,7.526,2.9,12.195c-3.889,8.016-11.731,11.846-18.816,16.422
		c-5.562-0.519-10.706,5.123-15.411,0.536c-3.537-7.783,6.594-5.338,9.537-9.045c5.342-1.479,11.152-3.35,13.947-8.369
		c0.834-3.771-2.486-5.961-5.35-7.679c-5.233-1.133-5.814-7.333-11.574-8.303c-2.038-5.351-3.646-11.342-0.896-16.862
		c2.115-8.729,10.684-15.784,18.855-19.152c1.67-2.855,5.291-2.16,8.268-1.809C531.32,484.521,533.479,483.094,534.739,484.09z"/>
	<path id="path24" fill="#EE3133" d="M414.44,491.01c1.623,1.223,0.674,3.602,1.097,5.39c-5.426,3.602-14.148,1.427-18.102,7.353
		c-4.815,0.814-0.687,5.23-3,7.954c3.312,6.405,9.381,10.642,13.043,16.916c1.38,3.918,0.321,7.896-0.426,12.153
		c-5.605,6.923-15.992,7.432-24.658,6.791c-3.211-2.014-2.838-6.17-2.436-9.429c4.91-3.818,12.826-1.12,17.265-5.675
		c-1.164-4.31-4.272-9.089-9.007-10.696c-3.845-6.427-7.967-14.66-2.523-21.572c6.008-4.973,12.167-8.916,19.153-12.166
		C408.465,488.085,413.087,487.102,414.44,491.01z"/>
	<path id="path26" fill="#EE3133" d="M354.497,492.951c-3.078-0.14-3.768,2.911-6.688,3.457c-5.446,6.941-7.203,15.334-7.096,24.238
		c-2,1.553-4.758,1.762-7.352,2.216c-3.898,1.741,1.009,4.366-0.958,7.046c1.428,1.303,3.178,0.872,5.086,1.101
		c2.641,1.406,1.872,4.384,2.604,6.544c0.787,2.385,0.416,5.518,2.404,7.467c11.108,1.244,2.516-11.13,7.352-16.048
		c6.988,1.077,13.263-1.595,19.844-2.631c1.306-3.039,6.025-5.308,3.324-9.121c2.072-5.025-2.455-9.28-2.976-14.178
		c-3.65-4.952-7.808-10.416-14.893-10.02C354.919,492.982,354.702,492.96,354.497,492.951z M356.339,501.551
		c6.88-0.418,5.276,7.656,9.91,10.789c1.422,1.465,0.92,2.573,0.478,4.261c-1.113,2.611-4.622,1.746-6.858,2.529
		c-3.416,0.092-6.798,2.037-10.012,0.351c-1.502-3.574,2.528-6.642,0.874-10.208C352.886,506.876,352.535,502.476,356.339,501.551z"
		/>
	<path id="path28" fill="#EE3133" d="M491.069,507.239c-0.647,10.685,4.924,26.85-7.832,32.85
		c-5.169,1.229-8.447-3.914-11.491-6.611c-2.177,2.236-2.185,5.76-4.387,8.337c-1.968,2.354-4.09,6.015-8.089,5.367
		c0.229-3.481,0.054-6.884,1.679-9.92c-1.331-4.221,0.209-8.355,1.33-12.162c-1.414-1.116-0.982-3.549-0.557-5.068
		c1.16-1.204,1.433-3.667,3.548-3.246c1.67,3.252,5.378,1.633,7.538,3.69c3.193,2.009,3.955,8.38,9.473,7.544
		c3.401-2.407-0.062-7.092,2.601-9.612c-1.089-5.057-1.429-10.256-5.496-13.914c0.604-0.653,0.229-1.622,0.405-2.472
		c-1.573-1.271-2.993-1.728-1.862-3.853c1.497-1.419,0.577-3.993,3.101-4.894C486.975,495.887,488.1,502.385,491.069,507.239z"/>
	<path id="path30" fill="#EE3133" d="M258.31,506.24c0.025,5.401,4.713,10.347,1.469,15.707c2.713,4.273-0.883,8.916,0.479,13.266
		c-3.463,5.702,2.691,12.663-2.668,18.301c-2.373,1.222-4.471,0.963-7.066,0.515c-2.189-3.017-0.803-7.487-1.971-10.851
		c1.477-7.936,3.123-14.71,1.98-22.929c3.787-5.134-2.76-12.335,1.439-17.351C255.396,501.554,257.222,504.28,258.31,506.24z"/>
	<path id="path32" fill="#EE3133" d="M295.37,506.45c1.418,5.649,4.365,10.713,5.99,16.33c0.686,0.306,1.076,1.629,2.088,1.051
		c2.701-2.211,2.061-5.606,2.65-8.732c3.303-3.604,3.998-8.378,7.473-12.104c3.002,0.409,6.359,1.827,7.609,4.536
		c0.822,7.023-0.883,13.127,2.324,19.582c1.102,7.322-1.302,13.158-1.348,20.885c-1.516,1.349-3.482,4.479-6.141,3.462
		c-1.578-1.724-2.219-4.342-1.42-6.638c2.361-6.317,1.633-12.675,1.391-19.4c-1.068-0.619-1.076-2.091-2.512-2.197
		c-3.613,0.603-4.363,4.547-6.506,6.86c-2.193,2.412-2.871,6.725-7.581,5.745c-5.277-1.973-3.099-9.064-7.884-11.521
		c0.099-2.13,1.039-5.452-1.103-7.042c-3.777,1.441-2.932,5.833-3.475,9.144c-3.537,3.269,2.297,6.98-1.193,10.369
		c0.832,3.764-0.172,9.365-3.723,11.961c-2.971-0.75-5.55-1.143-6.932-4.207c-0.314-8.805,2.549-16.678,2.939-25.181
		c2.004-2.186-0.156-4.45,0.957-6.753c2.467-3.377,3.133-8.535,7.623-10.159C290.04,502.209,293.518,503.393,295.37,506.45
		L295.37,506.45z"/>
	<path id="path38" fill="#EE3133" d="M429.393,509.711c-0.301-0.018-0.607-0.019-0.92,0.003c-10.42,3.632-2.08,14.509-10.582,19.213
		c-1.009,5.807,0.407,11.513,4.406,15.581c3.297,4.651,9.894,2.425,15.516,2.769c3.197-1.936,5.563-3.128,8.439-5.562
		c4.203-4.231,3.51-11.919,1.449-16.955c-0.378-4.722-2.684-7.739-6.281-10.762C437.215,514.309,433.908,509.977,429.393,509.711z
		 M435.232,521.604c2.037,0.162,3.932,1.086,5.048,3.087c0.92,1.946,1.894,4.358,1.098,6.684c-3.58,1.282-0.626,6.447-4.757,7.205
		c-3.491-0.846-9.783,2.646-10.452-2.391c-0.737-4.892,1.6-8.921,3.173-13.107C431.019,522.039,433.195,521.442,435.232,521.604z"/>
	<path id="path44" fill="#EE3133" d="M539.569,554.06h-2.583v-1.816h7.352v1.816h-2.613v7.747h-2.153v-7.747H539.569z"/>
	<path id="path46" fill="#EE3133" d="M553.52,558.14c-0.046-1.148-0.089-2.524-0.089-3.93h-0.028
		c-0.309,1.22-0.707,2.582-1.078,3.702l-1.163,3.732h-1.688l-1.022-3.689c-0.314-1.135-0.625-2.481-0.867-3.746h-0.03
		c-0.036,1.29-0.094,2.766-0.154,3.959l-0.186,3.634h-1.999l0.611-9.565h2.879l0.936,3.208c0.314,1.09,0.6,2.283,0.811,3.406h0.059
		c0.252-1.108,0.58-2.356,0.906-3.437l1.012-3.177h2.836l0.51,9.564h-2.099L553.52,558.14L553.52,558.14z"/>
</g>
</svg>
