<?xml version="1.0" encoding="utf-8"?>
<!-- Generator: Adobe Illustrator 16.0.0, SVG Export Plug-In . SVG Version: 6.00 Build 0)  -->
<!DOCTYPE svg PUBLIC "-//W3C//DTD SVG 1.1//EN" "http://www.w3.org/Graphics/SVG/1.1/DTD/svg11.dtd">
<svg version="1.1" id="Layer_1" xmlns="http://www.w3.org/2000/svg" xmlns:xlink="http://www.w3.org/1999/xlink" x="0px" y="0px"
	 width="2279.41px" height="595.598px" viewBox="110.295 952.201 2279.41 595.598"
	 enable-background="new 110.295 952.201 2279.41 595.598" xml:space="preserve">
<path d="M277.592,1061.666c1.569-0.35,3.19-0.688,4.864-1.024c40.764-8.21,75.017-4.669,101.177,9.468
	c26.588,14.37,44.538,39.428,52.164,73.992h0.026c0.194,0.908,0.415,1.895,0.609,2.932l0.013,0.078
	c1.375,6.887,1.894,13.994,1.608,21.141c-0.304,7.215-1.359,14.378-3.151,21.374c-9.131,36.276-37.34,70.581-75.899,80.724
	l-31.698,8.34l20.751,103.148l1.582,7.872l-7.938,1.544l-0.078,0.013c-14.734,2.84-29.455,5.75-44.162,8.729
	c-36.274,7.302-72.475,14.968-108.596,22.995l-7.833,1.738l-1.699-7.834l-67.365-309.86l-1.673-7.69l7.717-1.777v-0.013
	l21.296-5.084l21.66-5.071c38.783-8.998,77.665-17.566,116.637-25.706L277.592,1061.666L277.592,1061.666z M917.377,1136.035
	l141.41,60.775l7.327,3.152l-3.139,7.328l-0.013,0.038v0.026c-3.852,8.936-8.301,17.327-13.32,25.148
	c-4.894,7.668-10.449,14.894-16.601,21.595c-31.063,33.864-74.991,51.347-125.6,51.347h-0.013
	c-48.637,0-92.799-19.844-124.782-51.827c-33.174-33.042-51.823-77.935-51.827-124.756v-0.052
	c0-48.637,19.844-92.786,51.827-124.782c33.042-33.174,77.935-51.823,124.756-51.827h0.065c34.222,0.063,67.699,9.998,96.417,28.611
	c20.702,13.327,38.373,30.856,51.866,51.451l4.267,6.537l-6.459,4.396L917.377,1136.035L917.377,1136.035z M549.827,1028.541
	l216.504,286.165l8.443,11.154l-13.916,1.608l-0.13,0.013c-31.926,3.699-63.82,7.672-95.678,11.919
	c-78.359,10.523-156.486,22.718-234.325,36.575l-13.307,2.373l4.357-12.813l114.108-334.75l4.863-14.267L549.827,1028.541
	L549.827,1028.541z"/>
<path fill="#93C8D8" d="M900.841,1137.643l154.794,66.522c-26.342,61.256-80.996,93.291-148.18,93.291
	c-92.876,0-168.606-75.743-168.606-168.62c0-92.876,75.743-168.619,168.606-168.619c56.64,0,110.658,28.975,141.617,76.404
	L900.841,1137.643L900.841,1137.643z M543.446,1033.354l216.504,286.164c-110.672,12.833-220.927,29.035-330.612,48.585
	L543.446,1033.354L543.446,1033.354z M279.317,1069.486c81.502-18.015,135.676,11.479,149.282,79.116
	c8.962,44.563-22.126,101.034-71.606,114.03l-39.013,10.259l22.23,110.516c-53.254,10.285-104.407,20.959-153.056,31.788
	l-67.365-309.86C172.783,1092.592,225.965,1080.641,279.317,1069.486z"/>
<path d="M336.708,1080.68c2.905-0.661,5.72-1.258,8.431-1.777c39.597-7.509,72.955-3.281,98.57,11.596
	c25.913,15.045,43.604,40.699,51.58,75.834c0.467,2.049,0.883,4.047,1.259,6.005l0.013,0.091c1.375,7.315,1.894,14.812,1.621,22.295
	c-0.3,7.616-1.352,15.184-3.139,22.594c-9.17,38.455-37.534,74.705-76.354,85.25l-32.151,8.716l21.011,110.645l1.479,7.77
	l-7.769,1.556l-0.078,0.014h-0.039c-14.835,2.939-29.659,5.931-44.473,8.975c-37.353,7.717-73.863,15.681-109.348,23.787
	l-7.95,1.828l-1.647-8.016l-67.832-330.625l-1.557-7.587l7.536-1.803l0.065-0.013v0.013c14.385-3.55,28.782-7.057,43.189-10.519
	C258.211,1097.964,297.409,1089.088,336.708,1080.68z M970.229,1169.795l129.438,70.854l6.406,3.516l-2.866,6.666l-0.96,2.114
	c-3.774,8.482-8.32,16.602-13.579,24.253c-4.99,7.299-10.667,14.104-16.951,20.324c-31.257,30.92-75.121,45.018-124.212,44.668
	c-0.882,0-1.673-0.026-2.398-0.039c-25.747-0.483-51.07-6.644-74.162-18.041c-56.963-28.261-95.587-86.807-95.587-155.223
	l0.013-2.321v-0.025c0.571-46.977,18.353-89.492,47.729-120.373c29.467-30.984,70.581-50.231,117.727-50.543h2.334
	c9.066,0.079,18.09,1.255,26.874,3.502c7.833,1.972,15.498,4.799,22.956,8.301c36.886,17.314,67.677,51.412,89.958,85.717
	l4.539,6.978l-7.159,4.255L970.229,1169.795L970.229,1169.795z M595.935,1032.367l236.997,317.526l8.223,11.023l-13.67,1.713
	c-0.156,0.013-0.091,0,0-0.014l-0.13,0.026c-34.948,4.319-69.856,8.962-104.718,13.93c-85.812,12.232-171.346,26.334-256.542,42.294
	l-13.346,2.49l4.306-12.879l124.898-373.841l4.852-14.5L595.935,1032.367L595.935,1032.367z"/>
<path fill="#CD312C" d="M954.121,1170.067l141.721,77.585c-25.992,60.258-82.034,86.988-148.31,86.534
	c-91.632-0.636-164.158-73.668-164.158-165.286c0-91.619,68.13-165.884,159.749-165.248c55.887,0.376,102.577,46.859,133.121,93.85
	L954.121,1170.067z M589.527,1037.153l236.984,317.525c-121.185,15.032-241.874,33.813-361.896,56.315L589.527,1037.153
	L589.527,1037.153z M338.355,1088.487c82.085-18.624,136.637,13.178,150.332,85.328c9.027,47.561-22.281,107.493-72.111,121.021
	l-39.286,10.647l22.399,117.908c-51.542,10.18-102.929,21.123-154.146,32.827l-67.845-330.626
	C231.053,1112.383,284.611,1100.012,338.355,1088.487L338.355,1088.487z"/>
<path d="M1876.284,1056.479l95.042,344.697l3.748,13.54l-13.527-3.684l-0.025-0.013l-0.078-0.013h0.026
	c-29.381-7.447-58.841-14.577-88.376-21.388c-79.799-18.46-160.146-34.468-240.927-48.001l-13.929-2.334l9.169-10.752
	l235.103-275.115l9.779-11.426L1876.284,1056.479L1876.284,1056.479z M2073.813,1089.551l106.624,212.691l48.43-172.848l2.179-7.743
	l7.704,2.205l0.077,0.013l-0.025,0.013l11.024,3.113l14.085,4.033c24.851,7.173,60.595,17.613,84.575,24.682l7.627,2.257
	l-2.205,7.626l-89.596,308.629l-2.23,7.665l-7.626-2.18l0.155,0.026l-0.155-0.052v0.025v-0.013l0,0l-0.078-0.039
	c-22.313-6.523-44.692-12.827-67.131-18.909c-63.669-17.356-127.722-33.274-192.108-47.742l-8.158-1.842l2.18-8.015
	L2073.813,1089.551L2073.813,1089.551z M1324.058,970.463l145.002,188.412l175.675-148.349l-31.814,306.125l-0.855,8.094
	l-8.081-1.025c-52.864-6.666-104.264-12.58-155.079-17.729c-50.171-5.096-100.417-9.41-150.722-12.943l-8.288-0.584l0.882-8.274
	L1324.058,970.463L1324.058,970.463z"/>
<path fill="#93C8D8" d="M1868.58,1058.605l95.068,344.697c-103.46-26.199-214.909-50.349-330.172-69.583L1868.58,1058.605z
	 M1330.114,991.396l137.726,178.97l167.816-141.331l-30.699,286.749c-106.21-13.385-205.817-23.735-306.256-30.777L1330.114,991.396
	z M2076.045,1112.417l106.52,211.874l54.007-192.718c21.763,6.083,77.767,22.425,109.659,31.814l-89.569,308.642
	c-85.878-24.945-172.51-47.217-259.771-66.781L2076.045,1112.417L2076.045,1112.417z"/>
<path d="M2123.617,1104.35l104.55,215.895l37.664-124.652l2.36-7.756l7.73,2.438l0.051,0.013l10.714,3.463l13.683,4.436
	c26.394,8.612,60.595,19.883,82.047,27.017l7.289,2.425l-2.102,7.367l-86.91,304.764l-2.309,8.041l-7.898-2.633l-0.052-0.025
	c-21.634-7.125-43.329-14.064-65.082-20.817c-61.726-19.126-123.88-36.839-186.415-53.124l-7.729-2.01l0.104-0.402l-10.687-2.75
	l-0.078-0.025l-0.026-0.039c-32.131-8.418-64.354-16.481-96.663-24.188c-87.109-20.884-174.859-38.999-263.118-54.317l-8.689-1.505
	l-0.026,0.052l-8.313-1.336c-50.665-8.01-101.502-14.898-152.472-20.66c-49.468-5.568-99.003-10.511-148.596-14.824l-8.105-0.727
	l0.83-8.106l38.961-378.172l145.638,210.603l170.89-154.963l-37.949,359.769l-0.053,0.597l3.062-3.696l256.71-311.171l9.883-11.984
	l4.008,15.02l103.811,389.871l2.152,8.041l0.688-2.775L2123.617,1104.35L2123.617,1104.35z"/>
<path fill="#CD312C" d="M2126.562,1128.098l103.356,214.104l43.591-144.289c21.103,6.706,75.458,24.604,106.392,34.889
	l-86.911,304.751c-83.226-27.309-167.285-52.012-252.054-74.07L2126.562,1128.098z M1380.139,984.808l138.465,200.02
	l162.148-147.143l-35.771,339.107c-102.954-16.458-204.015-26.938-301.651-35.614L1380.139,984.808L1380.139,984.808z
	 M1918.785,1068.397l103.811,389.884c-112.928-29.623-234.675-56.95-360.521-78.7L1918.785,1068.397L1918.785,1068.397z"/>
<path d="M1167.344,1130.938h123.952v80.257h-131.968v-80.257H1167.344z"/>
<path fill="#CD312C" d="M1167.344,1138.953h115.949v64.239h-115.949V1138.953z"/>
<path d="M1124.725,1086.905h120.334v75.471h-128.336v-75.471H1124.725z"/>
<path fill="#93C8D8" d="M1124.725,1094.907h112.318v59.467h-112.318V1094.907L1124.725,1094.907z"/>
<path d="M578.88,1042.925l216.504,286.165l14.461,19.13l-23.851,2.75l-0.143,0.013c-16.031,1.861-32.053,3.793-48.066,5.798
	c-18.923,2.36-34.785,4.396-47.534,6.108c-78.277,10.52-156.321,22.705-234.078,36.549l-22.827,4.047l7.496-21.958l114.096-334.75
	l8.34-24.448L578.88,1042.925L578.88,1042.925z M954.186,1150.833l131.293,56.432l12.567,5.396l-5.396,12.567v0.078
	c-3.981,9.208-8.702,18.054-14.124,26.445c-5.351,8.33-11.376,16.208-18.015,23.553c-33.941,37.509-82.916,60.361-135.249,60.361
	h-0.013c-48.352,0.008-94.713-19.25-128.828-53.513c-34.242-34.113-53.493-80.456-53.501-128.79v-0.052
	c0.001-48.35,19.258-94.708,53.514-128.829c34.112-34.242,80.455-53.493,128.79-53.5h0.064c30.583,0,60.479,7.847,86.91,22.101
	c26.776,14.338,49.524,35.169,66.159,60.582l7.47,11.439l-11.49,7.496L954.186,1150.833z M307.708,1073.923
	c1.594-0.356,3.189-0.706,4.786-1.051c42.113-8.47,77.676-4.734,105.016,10.052c28.105,15.174,47.016,41.529,55.044,77.806
	l0.052,0.052c0.285,1.322,0.519,2.348,0.635,2.97l0.014,0.078c1.465,7.354,2.023,14.902,1.725,22.477
	c-0.331,7.608-1.448,15.162-3.333,22.541c-9.598,38.105-39.312,74.175-79.984,84.861l-26.484,6.952l19.688,97.896l2.71,13.501
	l-13.592,2.634l-0.078,0.013c-14.716,2.847-29.419,5.756-44.11,8.729c-36.236,7.284-72.398,14.937-108.479,22.956l-13.437,2.983
	l-2.931-13.437l-67.352-309.874l-2.879-13.203l13.19-3.035v-0.025c14.317-3.438,28.649-6.814,42.995-10.13
	C229.741,1090.654,268.679,1082.072,307.708,1073.923L307.708,1073.923z"/>
<path fill="#EEC64C" d="M925.263,1153.35l154.794,66.521c-26.341,61.256-87.598,102.085-154.794,102.085
	c-92.876,0-168.62-75.743-168.62-168.606c0-92.877,75.744-168.62,168.62-168.62c56.652,0,110.658,28.975,141.617,76.405
	L925.263,1153.35z M310.496,1087.308c81.502-18.003,135.677,11.478,149.282,79.115c8.962,44.577-22.127,101.034-71.606,114.03
	l-39,10.259l22.23,110.516c-53.267,10.298-104.407,20.959-153.069,31.802l-67.352-309.86
	C203.971,1110.419,257.148,1098.464,310.496,1087.308L310.496,1087.308z M567.946,1051.187l216.504,286.165
	c-110.672,12.828-220.927,29.026-330.612,48.571L567.946,1051.187L567.946,1051.187z"/>
<path d="M1647.316,1340.243l235.103-275.127l16.718-19.585l6.861,24.851l95.068,344.697l4.63,16.899l2.179-8.184l86.742-325.762
	L2197.74,1312.8l42.684-155.65l3.8-13.813l13.579,4.332c25.442,8.221,50.851,16.547,76.224,24.979l16.057,5.33
	c10.972,3.645-8.962-2.97,13.825,4.644l0.026-0.013l0.428,0.13l12.49,4.15l-3.567,12.58l-86.936,305.879l-3.93,13.813l-13.554-4.488
	c-70.42-23.243-141.46-44.564-213.041-63.94c-12.687-3.451-25.389-6.845-38.105-10.182l-0.052-0.025l-13.32-3.477l-19.83-5.032
	c-92.933-23.563-186.646-43.925-280.978-61.049c-15.983-2.867-31.983-5.639-48.001-8.313l-0.078-0.013l-18.066-3.009l-0.025,0.259
	l-14.061-1.906c-51.477-6.99-101.553-13.229-151.123-18.65c-48.877-5.353-97.841-9.889-146.869-13.605l-13.982-1.063l1.362-14.008
	l35.239-345.009l145.611,205.078l178.918-164.34l-33.695,339.38l-0.506,5.059L1647.316,1340.243L1647.316,1340.243z"/>
<path fill="#EEC64C" d="M1892.795,1074.026l-235.104,275.114c115.262,19.234,226.737,43.396,330.172,69.583L1892.795,1074.026z
	 M1356.987,1002.719l-30.647,309.29c98.013,7.432,195.208,18.313,298.811,32.411l29.947-302.053l-163.717,148.88L1356.987,1002.719
	L1356.987,1002.719z M2097.911,1136.903l-76.807,290.38c84.778,22.134,168.838,46.931,252.055,74.356l86.937-305.893
	c-35.418-11.837-70.892-23.509-106.418-35.018l-52.41,191.058L2097.911,1136.903L2097.911,1136.903z"/>
<path d="M322.623,1169.017c12.179,0,22.101,9.935,22.101,22.113s-9.922,22.114-22.101,22.114s-22.114-9.936-22.114-22.114
	S310.444,1169.017,322.623,1169.017z M424.111,1153.777c1.245,4.138,2.309,8.365,3.165,12.646
	c8.962,41.866-14.047,76.405-79.791,90.763c-13.852,3.645-27.289,6.354-41.153,9.999c7.406,36.835,14.565,72.216,21.971,109.063
	c-32.969,6.368-63.889,13.28-94.55,19.896l2.283,12.347c36.395-7.984,72.873-15.589,109.426-22.813l-22.205-110.373
	c13.865-3.645,27.289-6.368,41.153-10.013c59.635-15.031,84.692-57.015,75.717-98.881c-1.06-5.223-2.402-10.384-4.021-15.461
	L424.111,1153.777L424.111,1153.777z M657.671,1332.916c29.947-4.189,60.271-8.171,90.931-11.933l-9.104-12.022l-57.962-76.613
	l-16.523,2.438l57.495,75.99c-22.14,2.827-45.719,6.29-67.469,9.352L657.671,1332.916L657.671,1332.916z M933.953,1177.811
	l120.203,48.208l0.96,0.39l-0.44,0.934l-0.014,0.025c-3.413,7.438-7.567,14.511-12.398,21.115
	c-12.575,17.061-29.035,30.879-48.015,40.311l-0.727,0.362l-0.505-0.648l-7.705-9.96l-0.752-0.986l1.115-0.519l0.026-0.013
	c6.108-2.822,12.008-6.077,17.651-9.74c13.93-9.183,25.681-20.855,33.981-34.357l-104.083-39.985l-0.635-0.247v-0.648l-0.039-13.333
	v-1.465L933.953,1177.811L933.953,1177.811z M1514.804,1309.752c28.352,3.333,57.002,6.926,86.158,10.791
	c3.165-32.036,6.329-64.059,9.52-96.094l-13.903-2.022l-8.236,83.175c-24.072-3.089-48.162-6.042-72.268-8.858L1514.804,1309.752
	L1514.804,1309.752z M1864.702,1368.842c30.829,6.835,61.126,13.93,90.84,21.206c-9.675-35.148-19.377-70.296-29.078-105.444
	l-13.903-2.932l25.057,90.866c-23.34-5.62-46.729-11.033-70.166-16.237L1864.702,1368.842L1864.702,1368.842z M2164.809,1446.933
	c31.621,9.455,61.983,18.949,90.944,28.378l31.491-110.84l-14.268-4.072l-27.509,98.44c-25.729-8.292-51.546-16.315-77.442-24.071
	L2164.809,1446.933z M1851.382,1244.955c12.179,0,22.113,9.935,22.113,22.113c0,12.166-9.935,22.101-22.113,22.101
	s-22.113-9.935-22.113-22.101C1829.269,1254.89,1839.203,1244.955,1851.382,1244.955z M600.682,1220.39
	c12.179,0,22.113,9.936,22.113,22.114c0,12.178-9.922,22.1-22.113,22.1c-12.199-0.021-22.085-9.901-22.113-22.1
	C578.568,1230.325,588.503,1220.39,600.682,1220.39z"/>
<path d="M1149.718,1109.46h116.456v78.83h-130.178v-78.83H1149.718L1149.718,1109.46z"/>
<path fill="#EEC64C" d="M1149.718,1123.194h102.746v51.36h-102.746V1123.194z"/>
</svg>
