<?xml version="1.0" encoding="utf-8"?>
<!-- Generator: Adobe Illustrator 16.0.0, SVG Export Plug-In . SVG Version: 6.00 Build 0)  -->
<!DOCTYPE svg PUBLIC "-//W3C//DTD SVG 1.1//EN" "http://www.w3.org/Graphics/SVG/1.1/DTD/svg11.dtd">
<svg version="1.1" id="Layer_1" xmlns="http://www.w3.org/2000/svg" xmlns:xlink="http://www.w3.org/1999/xlink" x="0px" y="0px"
	 width="22px" height="20.922px" viewBox="0 0 22 20.922" enable-background="new 0 0 22 20.922" xml:space="preserve">
<g>
	<path d="M11.001,1.13l2.951,5.979l0.116,0.236l0.26,0.038l6.598,0.959l-4.773,4.653l-0.188,0.185l0.044,0.26l1.128,6.571
		l-5.902-3.104l-0.232-0.121l-0.232,0.121L4.869,20.01l1.127-6.571l0.044-0.26l-0.19-0.185L1.075,8.341l6.599-0.959l0.26-0.038
		L8.05,7.109L11.001,1.13 M11.001,0L7.602,6.888L0,7.992l5.5,5.361l-1.298,7.569l6.799-3.573l6.799,3.573l-1.299-7.569L22,7.992
		l-7.6-1.104L11.001,0L11.001,0z"/>
</g>
</svg>
