<?xml version="1.0" encoding="utf-8"?>
<!-- Generator: Adobe Illustrator 16.0.0, SVG Export Plug-In . SVG Version: 6.00 Build 0)  -->
<!DOCTYPE svg PUBLIC "-//W3C//DTD SVG 1.1//EN" "http://www.w3.org/Graphics/SVG/1.1/DTD/svg11.dtd">
<svg version="1.1" id="Layer_1" xmlns="http://www.w3.org/2000/svg" xmlns:xlink="http://www.w3.org/1999/xlink" x="0px" y="0px"
	 width="3531px" height="1070px" viewBox="-515.5 0 3531 1070" enable-background="new -515.5 0 3531 1070" xml:space="preserve">
<path fill="#FFC500" d="M468.416,580.768l34.182,100.381c18.495,54.285,35.007,97.689,37.159,97.689
	c0.035-0.001,0.069-0.016,0.095-0.039c2.365-2.09,69.271-196.388,69.271-196.388h129.671l-156.44,455.836h-90.127
	c0,0-96.199-277.841-95.805-278.894L296.004,1034.75h-89.22L52.314,580.768l129.04,0.083c0,0,70.686,200.36,71.628,200.36
	l0.008-0.008l70.533-200.443L468.416,580.768 M8.26,549.195l14.197,41.729l154.47,453.981l7.274,21.385h133.877l7.562-20.737
	l69.724-191.215c6.009,17.481,12.502,36.323,18.995,55.145c15.997,46.368,32.017,92.728,48.064,139.078l7.349,21.227h135.104
	l7.31-21.298l156.441-455.831l14.339-41.787h-196.34l-7.325,21.273c-13.441,39.031-26.973,78.031-40.593,117
	c-2.105-6.052-4.191-12.11-6.257-18.176l-34.178-100.377l-7.278-21.373H301.188l-7.416,21.077l-41.212,117.118
	c-13.867-39.004-27.687-78.023-41.46-117.06l-7.42-21.029l-22.303-0.016l-129.041-0.083L8.26,549.195L8.26,549.195z
	 M2465.479,579.001l-0.291,119.479c0,0-128.697-0.426-194.124-0.426c-21.767,0-36.54,0.056-37.237,0.178
	c-11.264,2.054-18.451,26.032-15.254,36.551c1.568,5.327,13.377,22.71,26.143,38.681c12.73,15.976,33.674,42.114,46.439,58.07
	c32.795,40.928,37.293,49.006,40.332,72.508c4.929,38.176-13.12,79.482-46.632,106.726c-33.595,27.321-32.116,27.515-281.433,27.515
	h-10.948c-151.636-0.043-231.827-1.297-243.501-3.896c-20.738-4.691-53.788-31.658-141.108-115.438
	c-31.41-30.105-60.364-56.466-61.851-56.474c-0.039,0-0.055,0.027-0.055,0.071l-1.033,175.751l-141.53-0.623l-0.876-453.315h315.65
	c95.13,3.434,159.512,98.209,146.699,158.648c-2.902,13.717-10.318,33.595-16.48,44.157c-12.66,21.684-44.871,49.519-71.014,61.468
	c-9.655,4.365-17.54,9.451-17.54,11.265c0,6.741,31.78,38.037,43.683,43.009c10.172,4.254,39.781,5.2,170.363,5.2l41.818,0.008
	c131.26,0,124.652-0.946,134.792-22.634c7.101-15.096,1.703-24.125-48.249-80.389c-63.282-62.967-56.658-93.128-57.088-115.403
	c-0.902-26.695,20.115-110.66,129.363-110.66L2465.479,579.001 M1617.556,788.426c60.597,0,72.901-0.938,85.794-6.54
	c43.529-18.929,45.855-74.826,4.104-99.633c-9.146-5.444-20.898-6.34-86.582-6.698l-76.009-0.402
	c0.631,0.588-0.24,108.696-0.24,108.696S1563.66,788.426,1617.556,788.426 M2497.098,547.461h-322.58
	c-63.211,0-100.599,24.944-120.82,45.879c-32.92,34.036-40.655,76.896-40.064,97.102c0.032,1.684,0.017,3.41-0.008,5.212
	c-0.283,32.838,4.543,70.013,65.684,131.075c12.072,13.605,32.285,36.421,39.941,47.76c-16.708,2.054-59.059,2.054-103.555,2.054
	h-18.889l-22.922-0.008c-78.473,0-144.649-0.229-158.203-2.901c-1.9-1.23-4.559-3.367-7.483-5.906
	c27.112-16.688,54.525-42.575,67.434-64.701c7.829-13.456,16.472-36.441,20.099-53.488c8.047-37.947-5.22-83.725-35.482-122.488
	c-35.314-45.225-86.682-72.283-140.932-74.238l-0.571-0.023H1370.92l0.067,31.611l0.875,453.313l0.063,31.339l31.339,0.139
	l141.53,0.622l31.485,0.135l0.193-31.489l0.607-105.286c2.886,2.739,5.874,5.594,8.949,8.531
	c95.524,91.625,127.569,117.016,155.976,123.438c7.807,1.735,20.715,4.621,250.443,4.684h10.949c124.384,0,186.811,0,223.941-3.583
	c42.536-4.112,56.221-13.76,76.727-30.465l0.686-0.556c42.123-34.253,64.351-86.066,58.016-135.229
	c-4.137-31.975-12.597-45.257-47.004-88.188l-10.227-12.774c-12.07-15.073-24.133-30.152-36.185-45.24
	c-7.822-9.794-13.984-18.487-17.679-24.184c4.865-0.013,11.197-0.021,19.39-0.021c64.638,0,192.74,0.422,194.025,0.43l31.572,0.099
	l0.079-31.572l0.299-119.486L2497.098,547.461L2497.098,547.461z M1576.363,755.734l0.146-25.855
	c0.039-7.885,0.078-15.786,0.082-23.024l44.109,0.232c25.352,0.134,63.491,0.347,70.927,2.456
	c9.486,5.761,14.785,14.671,14.21,23.896c-0.316,4.983-2.689,14.146-15.069,19.516c-6.899,3-17.896,3.931-73.205,3.931
	C1600.011,756.886,1586.477,756.377,1576.363,755.734L1576.363,755.734z M1115.746,577.141l158.85,457.021l-129.438,0.588
	l-21.487-68.641l-231.428-1.856l-20.423,68.723l-128.134-1.345l156.836-454.298L1115.746,577.141 M1011.658,644.144
	c-0.327,1.313-20.28,56.063-40.301,110.802c-20.186,55.196-40.439,110.393-40.719,110.818l0,0
	c0.536-0.158,72.212-0.315,118.15-0.315c21.499,0,37.356,0.039,37.651,0.11l0.005,0.02v-0.012l-0.005-0.008
	C1085.637,863.484,1011.891,646.813,1011.658,644.144l0.004-0.023L1011.658,644.144 M1138.167,545.576l-22.444,0.023l-215.225,0.201
	l-22.457,0.023l-7.329,21.234l-156.835,454.298l-14.284,41.37l43.771,0.453l128.133,1.344l23.785,0.249l6.777-22.796l13.665-45.979
	l184.726,1.479l14.619,46.716l6.958,22.231l23.289-0.103l129.435-0.587l44.133-0.209l-14.497-41.685l-158.85-457.022
	L1138.167,545.576L1138.167,545.576z M976.037,833.951c5.973-16.283,14.02-38.282,24.945-68.163l9.434-25.805l8.552,25.217
	c2.547,7.515,13.74,40.494,23.34,68.715C1013.764,833.915,992.276,833.919,976.037,833.951z M1169.286,31.651v112.757h-225.83
	v344.86H808.817V144.136l-263.601,0.745c-31.776,0-36.034,25.311-36.034,35.01c0,11.911,7.767,23.813,50.425,77.826
	c27.677,35.085,53.106,70.099,56.458,77.748c18.293,42.11-5.362,107.711-48.454,134.362
	c-30.713,18.976-25.465,19.445-253.539,19.445H31.541V362.594h385.977l11.395-7.925c7.688-5.357,12.143-12.73,13.838-22.827
	c2.365-14.509,1.144-16.401-46.522-70.095c-56.339-63.479-62.292-75.067-59.375-115.592
	c3.312-46.247,44.551-113.432,116.621-113.432L1169.286,31.651 M1200.826,0.063l-31.592,0.051L453.423,1.179
	c-41.231,0-79.526,17.82-107.798,50.161c-22.922,26.222-37.967,60.834-40.238,92.563c-3.836,53.268,8.425,72.52,67.245,138.786
	c17.071,19.228,33.303,37.518,38.72,45.28c-0.058,0.214-0.129,0.423-0.213,0.627c-0.06,0.052-0.15,0.114-0.276,0.205l-3.24,2.251H0
	v189.76h314.073c112.45,0,167.953-0.103,200.653-2.507c37.415-2.736,49.353-9.155,67.236-20.266l2.231-1.388
	c56.229-34.773,85.207-117.595,60.803-173.761c-7.531-17.181-55.208-77.85-60.621-84.709c-14.967-18.956-39.67-50.229-43.581-59.28
	c0.095-0.757,0.279-1.55,0.477-2.094c0.65-0.166,1.896-0.39,3.946-0.39l232.06-0.659v345.045h197.72v-344.86h225.83V0.063
	L1200.826,0.063z M1536.182,35.313l158.412,458.205l-129.198-0.71l-20.975-68.64l-230.399-1.025l-20.584,66.121h-131.56
	l156.674-453.951H1536.182 M1351.626,325.569l156.921-0.197v0.004c0.541,0-76.257-225.519-76.77-225.677
	C1431.218,99.68,1349.859,325.569,1351.626,325.569 M1558.653,3.773h-262.57l-7.329,21.254l-156.682,453.955l-14.438,41.826h199.04
	l6.899-22.169l13.646-43.845l183.854,0.815l14.188,46.416l6.789,22.192l23.211,0.131l129.201,0.713l44.539,0.245l-14.552-42.091
	L1566.037,25.004L1558.653,3.773z M1395.443,293.978c11.736-33.304,23.583-66.569,35.538-99.794
	c11.331,33.221,22.616,66.457,33.858,99.708L1395.443,293.978L1395.443,293.978z M1981.092,35.313
	c102.199,0,173.117,1.459,186.763,3.824c31.541,5.488,60.042,22.315,81.406,48.186c22.354,27.038,27.483,39.978,30.401,77.034
	c4.183,52.322-20.699,97.464-69.787,126.75c-14.309,8.556-29.006,16.875-32.68,18.53c-5.639,2.559-4.881,5.012,5.203,16.839
	c6.498,7.613,17.781,18.455,25.035,24.085l13.244,10.29l244.754,3.51l2.401,124.904h-150.063
	c-116.061,0-153.196-1.068-164.093-4.728c-16.279-5.52-55.456-38.716-135.111-114.492l-56.853-54.096l0.6,173.315h-146.053V35.313
	H1981.092 M1959.576,239.42h77.551c75.465,0,77.826-0.24,88.594-8.315c19.243-14.43,26.057-29.297,24.01-52.125
	c-2.077-23.541-11.157-35.794-33.905-45.651c-12.813-5.603-25.157-6.505-85.637-6.505h-70.611L1959.576,239.42 M1981.092,3.773
	h-196.336v517.032h209.232l-0.107-31.646l-0.354-99.42l3.319,3.154c98.502,93.719,127.563,115.017,146.73,121.51
	c14.714,4.968,39.355,6.402,174.215,6.402H2500l-0.615-32.144l-2.4-124.904l-0.576-30.488l-30.492-0.438l-234.195-3.354
	l-4.905-3.816c-1.562-1.223-3.458-2.831-5.476-4.652l4.758-2.827c59.146-35.298,90.146-92.284,85.033-156.334
	c-3.402-43.207-11.117-62.671-37.537-94.622c-25.957-31.418-61.586-52.428-100.326-59.158
	C2151.729,4.333,2043.624,3.773,1981.092,3.773L1981.092,3.773z M1991.117,158.361h39.071c55.294,0,66.255,0.918,73.009,3.868
	c12.813,5.547,14.114,8.244,15.115,19.54c1.01,11.232-0.379,15.747-11.52,24.093l-0.88,0.655
	c-7.353,1.364-34.636,1.364-68.786,1.364h-46.01V158.361L1991.117,158.361z"/>
</svg>
