<?xml version="1.0" encoding="utf-8"?>
<!-- Generator: Adobe Illustrator 16.0.0, SVG Export Plug-In . SVG Version: 6.00 Build 0)  -->
<!DOCTYPE svg PUBLIC "-//W3C//DTD SVG 1.1//EN" "http://www.w3.org/Graphics/SVG/1.1/DTD/svg11.dtd">
<svg version="1.1"
	 id="Ebene_1" xmlns:dc="http://purl.org/dc/elements/1.1/" xmlns:cc="http://creativecommons.org/ns#" xmlns:rdf="http://www.w3.org/1999/02/22-rdf-syntax-ns#" xmlns:svg="http://www.w3.org/2000/svg" xmlns:sodipodi="http://sodipodi.sourceforge.net/DTD/sodipodi-0.dtd" xmlns:inkscape="http://www.inkscape.org/namespaces/inkscape" sodipodi:docname="sega_megacd_white.svg" inkscape:version="0.91 r13725"
	 xmlns="http://www.w3.org/2000/svg" xmlns:xlink="http://www.w3.org/1999/xlink" x="0px" y="0px" width="514px" height="155.878px"
	 viewBox="21.728 -10.052 514 155.878" enable-background="new 21.728 -10.052 514 155.878" xml:space="preserve">
<sodipodi:namedview  showgrid="false" inkscape:cy="11.000912" inkscape:cx="26.573032" inkscape:zoom="1.7043424" borderopacity="1" bordercolor="#666666" pagecolor="#ffffff" id="namedview5297" inkscape:window-maximized="1" inkscape:window-y="-8" inkscape:window-x="-8" inkscape:current-layer="g6103" inkscape:pageshadow="2" inkscape:pageopacity="0" inkscape:window-height="1137" inkscape:window-width="1920" fit-margin-top="0" guidetolerance="10" gridtolerance="10" objecttolerance="10" fit-margin-left="0" fit-margin-right="0" fit-margin-bottom="0">
	</sodipodi:namedview>
<g id="g6103">
	<g id="g4756">
		<path id="path4332" inkscape:connector-curvature="0" fill="#2B4277" d="M170.114,60.094l28.708-0.029
			c11.746,0,21.264-9.489,21.264-21.182c0-11.715-9.518-21.205-21.264-21.205l-7.455,0.041c-0.588,0-1.064-0.482-1.064-1.075
			s0.477-1.075,1.064-1.075l28.655,0.006l0.012-8.99H191.36c-5.543,0-10.054,4.504-10.054,10.036
			c0,5.539,4.509,10.024,10.054,10.024l7.491,0.099c6.729,0,12.175,5.428,12.175,12.123c0,6.7-5.444,12.14-12.175,12.14h-28.725
			L170.114,60.094"/>
		<path id="path4334" inkscape:connector-curvature="0" fill="#2B4277" d="M170.125,48.896h28.725
			c5.562,0,10.059-4.485,10.059-10.03c0-5.538-4.498-10.019-10.059-10.019l-7.491-0.081c-6.718,0-12.169-5.434-12.169-12.146
			c0-6.694,5.451-12.129,12.169-12.129l28.673-0.006l-0.012-9.024h-28.655c-11.733,0-21.264,9.479-21.264,21.183
			s9.53,21.188,21.264,21.188l7.415,0.012c0.564,0,1.041,0.46,1.041,1.04c0,0.57-0.477,1.029-1.041,1.029l-28.667,0.022
			L170.125,48.896"/>
		<path id="path4336" inkscape:connector-curvature="0" fill="#2B4277" d="M242.342,51.064c-4.98,0-9.06-3.97-9.06-9.037V13.349
			c0-4.876,4.079-8.886,9.06-8.886l30.643,0.005v-9.007h-30.643c-9.971,0-18.049,8.049-18.049,17.986v28.579
			c0,9.938,8.078,17.999,18.049,17.999l30.516,0.012l-0.006-8.984L242.342,51.064"/>
		<path id="path4338" inkscape:connector-curvature="0" fill="#2B4277" d="M235.479,13.448c0-3.801,3.057-6.881,6.863-6.881h30.643
			v9.02h-26.4c-2.114,0-2.144,2.098-2.144,2.098h22.024v8.979h-30.997L235.479,13.448"/>
		<path id="path4340" inkscape:connector-curvature="0" fill="#2B4277" d="M242.342,48.879c-3.795,0-6.875-3.063-6.875-6.853V28.8
			h30.998v8.997h-22.025c0.029,2.115,2.145,2.126,2.145,2.126h26.272l-0.007,8.943L242.342,48.879"/>
		<path id="path4342" inkscape:connector-curvature="0" fill="#2B4277" d="M294.459,51.04c-4.963,0-9.02-4.044-9.02-9.014v-28.58
			c0-4.975,4.027-8.984,8.995-8.984h29.679v-9.001h-29.748c-9.967,0-18.045,8.049-18.045,17.986v28.579
			c0,9.938,8.148,17.999,18.114,17.999l29.679,0.012V17.684h-25.506v8.979H315.1V51.04H294.459"/>
		<path id="path4344" inkscape:connector-curvature="0" fill="#2B4277" d="M287.555,42.027c0,3.808,3.08,6.904,6.88,6.904h18.538
			V28.789H298.63v9.008h5.323l0.018,2.115h-5.3c-1.157,0-2.104-0.959-2.104-2.115l-0.048-20.119c0,0-0.006-2.092,2.127-2.145h25.477
			l-0.011-8.973l-29.679,0.006c-3.801,0-6.881,3.08-6.881,6.881v28.579"/>
		<path id="path4346" inkscape:connector-curvature="0" fill="#2B4277" d="M352.002,6.433c0.399-1.145,1.486-1.97,2.771-1.97
			s2.383,0.825,2.771,1.97l14.407,42.562h-21.096l0.022-10.013h7.051l-3.174-9.432L344.418,60.03h-10.635L352.002,6.433"/>
		<path id="path4348" inkscape:connector-curvature="0" fill="#2B4277" d="M374.857,51.04h-23.966v8.989h36.472L368.395,3.91
			c-1.662-5.474-7.141-9.501-13.627-9.501c-6.497,0-11.959,4.01-13.634,9.479l-19.142,56.143h9.548l18.585-54.573
			c0.754-1.808,2.534-3.08,4.626-3.08c2.081,0,3.87,1.272,4.632,3.068L374.857,51.04"/>
		<path id="path4350" inkscape:connector-curvature="0" fill="#231F20" d="M380.488,2.604c1.698,0,3.296-0.663,4.493-1.854
			c1.196-1.203,1.865-2.789,1.865-4.486c0-1.685-0.669-3.266-1.865-4.469c-1.197-1.185-2.795-1.848-4.493-1.848
			c-3.492,0-6.346,2.83-6.346,6.317c0,1.696,0.663,3.283,1.871,4.485C377.205,1.941,378.797,2.604,380.488,2.604 M375.039-3.737
			c0-1.446,0.557-2.817,1.597-3.847c1.035-1.028,2.406-1.586,3.853-1.586c1.465,0,2.836,0.559,3.871,1.586
			c1.029,1.029,1.599,2.4,1.599,3.847c0,3.005-2.452,5.445-5.47,5.445c-1.447,0-2.818-0.563-3.853-1.593
			C375.596-0.912,375.039-2.278,375.039-3.737z"/>
		<path id="path4352" inkscape:connector-curvature="0" fill="#231F20" d="M378.861-3.202v2.986h-0.918v-7.02h2.609
			c0.982,0.012,1.558,0.012,2.104,0.424c0.529,0.39,0.75,0.977,0.75,1.628c0,1.639-1.336,1.854-1.674,1.923l1.977,3.045h-1.11
			l-1.924-2.986H378.861 M378.861-3.974h1.865c0.298,0,0.576,0,0.855-0.07c0.65-0.157,0.883-0.622,0.883-1.133
			c0-0.187-0.018-0.656-0.419-0.982c-0.366-0.308-0.831-0.296-1.371-0.296h-1.813V-3.974z"/>
	</g>
	<g id="g4877" transform="matrix(1.3267784,0,0,1.3267784,-90.046541,75.517357)">
		<g id="g4885">
		</g>
		<g id="g4891">
		</g>
		
			<path id="path4895" sodipodi:nodetypes="ccccccccccccccccccccccccccccccccccccccccccccccccccccscccccccccccccccsccccccccccccccccccccccccccccccccccc" inkscape:connector-curvature="0" fill="#FFFFFF" stroke="#000000" stroke-width="1.8843" stroke-linecap="square" stroke-linejoin="round" d="
			M327.101,26.972c4.46-0.02,8.919-0.02,13.389,0c0,2.96,0,5.91-0.01,8.86c-4.45,0.16-8.9,0.079-13.35,0.1
			C327.08,32.941,327.08,29.961,327.101,26.972z M400.14,10.582c12.28-0.01,24.55-0.06,36.83,0.01c2.71-0.22,5.09,1.6,6.35,3.88
			c2.9,4.67,6.2,9.09,8.93,13.871c1.03,2.8,0.96,6.32-1.06,8.69c-2.92,4.16-5.361,8.64-8.36,12.74
			c-1.541,2.18-4.391,2.494-6.861,2.434c-11.95-0.04-23.91,0.15-35.869,0C400.19,38.327,400.11,24.461,400.14,10.582L400.14,10.582z
			 M415.79,19.921c0.021,7.76-0.029,15.625,0.021,23.385h13.13c1.43-0.14,3.3,0.114,4.09-1.446c2.35-3.24,4.58-6.591,6.57-10.06
			c-0.81-3-3.01-5.36-4.6-7.97c-1.27-1.63-2.519-4.04-4.92-3.89C425.31,19.862,420.55,19.972,415.79,19.921z M353.6,13.512
			c1.24-1.76,3.19-3.15,5.44-2.93c12.42-0.04,24.84,0,37.26-0.01c0,3.07,0.01,6.14-0.02,9.21c-9.11,0.079-18.23-0.13-27.34,0.09
			c-2.95,0.05-4.37,2.98-5.82,5.08c-1.42,2.36-3.77,5.14-1.82,7.92c2.241,3.54,4.15,9.575,8.76,10.435h26.24
			c0,3.331,0.01,5.57,0,8.899c-12.09-0.01-24.19,0.03-36.28,0c-4.94-0.01-7.08-5.284-9.479-8.774c-1.98-3.88-5.75-7.03-5.93-11.65
			c-0.16-2.519,0.26-5.24,1.82-7.31C348.86,20.852,351.11,17.102,353.6,13.512L353.6,13.512z M279.95,10.612
			c7.701-0.1,15.41-0.02,23.11-0.06c4.13-0.41,7.12,3.11,9.14,6.239c7.279,11.911,14.9,23.455,22.09,35.415
			c-5.25-0.02-11.224,0.03-16.474,0l-5.556-8.899H298.32l-4.1-5.535c0.13,4.84,0.079,9.595,0.079,14.434
			c-4.789,0-9.57,0.091-14.35,0C279.94,38.327,279.94,24.492,279.95,10.612L279.95,10.612z M294.59,19.602
			c-0.08,5.22,0.021,10.824-0.08,16.044h12.64l-8.022-13.164c0,0-1.206-2.002-2.185-2.539
			C296.249,19.561,294.59,19.602,294.59,19.602L294.59,19.602z M233.68,14.651c1.28-1.82,2.78-4.23,5.35-4.07
			c11.43-0.05,22.86,0,34.28-0.01c0.02,3.119-0.03,6.239-0.149,9.35c-7.43,0.05-14.85-0.07-22.27,0.05
			c-1.406,0-2.726-0.126-3.314,0.794l-5.036,8.386v14.156h20.23v-7.661h-9.64l5.07-8.55h17.335v25.11H234
			c-3.813,0-5.67-3.155-5.67-6.355c0.1-7.57-0.17-15.16,0.12-22.72C229.9,20.142,231.9,17.452,233.68,14.651L233.68,14.651z
			 M185.66,16.572c1.92-2.47,3.57-6.37,7.32-5.991c10.64-0.029,21.52-0.029,32.16,0.01v9.26c-7.93,0.24-16.18-0.11-24.1,0.17
			l-5.41,7.074h29.51c-1.97,2.681-3.53,5.799-5.4,8.55h-24.23c0.04,2.61,0.05,5.041,0.06,7.661h29.57v8.899h-44.55
			c-0.02-8.489-0.03-16.834-0.01-25.335C180.24,22.691,183.62,19.802,185.66,16.572z M126.75,14.711c1.4-2.08,3.48-4.19,6.19-4.1
			c5.13-0.14,10.26,0,15.4-0.04c-0.04,1.719-0.08,3.44-0.14,5.16c2.09-2.31,4.34-5.24,7.8-5.12c7.1-0.13,14.2,0,21.3-0.04
			c0,13.88,0.01,27.745,0,41.635c-4.8,0.01-9.61,0-14.41,0c-0.02-9.93,0.01-19.836-0.02-29.765c-2.7-0.24-3.99,2.33-5.21,4.26
			c-5.22,8.52-10.74,16.835-15.7,25.505c-5.05,0.1-10.09,0.1-15.14,0c6.06-10.22,12.56-20.145,18.78-30.276
			c-3.18,0.191-7.27-0.87-9.63,1.881c-6,9.42-11.8,18.945-17.75,28.395c-5.08-0.02-10.15,0.03-15.23,0
			C110.9,39.697,118.85,27.231,126.75,14.711L126.75,14.711z"/>
	</g>
</g>
</svg>
