<?xml version="1.0" encoding="utf-8"?>
<!-- Generator: Adobe Illustrator 16.0.0, SVG Export Plug-In . SVG Version: 6.00 Build 0)  -->
<!DOCTYPE svg PUBLIC "-//W3C//DTD SVG 1.1//EN" "http://www.w3.org/Graphics/SVG/1.1/DTD/svg11.dtd">
<svg version="1.1" id="svg2" xmlns="http://www.w3.org/2000/svg" xmlns:xlink="http://www.w3.org/1999/xlink" x="0px" y="0px"
	 width="3189px" height="966.486px" viewBox="-279.151 85.514 3189 966.486" enable-background="new -279.151 85.514 3189 966.486"
	 xml:space="preserve">
<text transform="matrix(1.0001 0 0 1 2332.4609 362.457)" fill="#CA010C" font-family="'ArialMT'" font-size="48.1098">®</text>
<path id="path4" fill="#CA010C" d="M2096.932,252.576l56.932,59.736L2012.74,812.252l-73.769,60.138l207.674-2.807l-48.511-46.104
	l32.875-149.942l111.054,0.802l30.068,146.735l-47.308,51.316l254.98-2.005l-63.345-60.138L2267.722,254.58L2096.932,252.576
	L2096.932,252.576z M2188.341,473.48l39.29,138.716l-74.17-2.405L2188.341,473.48L2188.341,473.48z"/>
<path id="path6" fill="#CA010C" d="M1771.79,262.198l-154.353-5.613l58.936,57.331l0.802,506.355l-79.382,62.543l205.27-8.82
	C2162.281,806.239,2102.145,250.171,1771.79,262.198L1771.79,262.198z M1799.453,311.912
	c121.076,4.009,189.633,415.748,4.41,507.156L1799.453,311.912z"/>
<path id="path8" fill="#CA010C" d="M243.103,149.14l-70.561,192.039l184.822-145.131l365.232,3.608L176.552,1029.95l663.915,10.424
	L899.4,879.206l352.003-4.01l-4.009-279.838l-86.197,220.503l-108.247-0.401l0.802-220.503l60.538-6.014l58.534,66.552
	l-0.401-194.844l-59.735,62.942l-58.533-1.203v-210.88l105.439-6.415l91.009,187.627l2.807-239.346l-376.459,3.208l48.911,60.938
	l2.005,505.152L752.265,979.435l-397.708,2.006l545.244-831.898L243.103,149.14L243.103,149.14z"/>
<path id="path10" fill="#CA010C" d="M1258.219,258.991l264.203-4.41l-61.741,54.123l2.808,505.151l58.132-1.604l83.792-226.918
	l3.607,285.051l-354.81-1.203l77.376-54.523l-4.009-507.156L1258.219,258.991z"/>
<path id="path14" fill="#CA010C" d="M1569.729,132.703c-0.4-45.704,54.926-53.322,89.403-43.299l0.401,26.861
	c-5.612-24.456-32.475-27.262-52.922-22.05c-8.819,6.415-12.828,16.438-15.635,26.861c1.604,20.447,1.604,51.718,29.267,56.128
	c6.415-1.203,13.229-1.604,20.046-2.004l1.203-31.271c-4.41-2.806-8.419-5.613-12.829-8.419c21.647,5.613,21.248,4.41,41.694,0
	c-2.405,2.004-6.414,5.613-8.42,7.617v34.078C1627.061,191.236,1566.121,180.813,1569.729,132.703L1569.729,132.703z"/>
<path id="path16" fill="#CA010C" d="M1799.453,88.201l51.719,60.939V95.417l-12.027-8.018c15.636,2.807,16.438,3.207,33.677,0.802
	l-12.027,7.617v87.399l-70.562-82.188v70.561l14.834,12.028c-19.243-4.811-20.446-5.613-37.284,0l12.829-12.028V95.017
	c-5.213-2.405-8.02-4.811-12.829-7.216C1782.615,90.606,1779.809,87.399,1799.453,88.201z"/>
<path id="path18" fill="#CA010C" d="M2094.928,85.796c-19.645,0.802-39.29,10.825-47.309,30.068
	c-0.801,5.212-1.604,10.825-2.404,16.438c-0.803,19.244,10.022,36.483,26.46,45.303c38.087,19.645,89.403-14.833,74.569-58.533
	C2140.23,96.22,2117.379,84.994,2094.928,85.796z M2092.121,92.21c41.695-2.406,46.907,78.178,5.212,85.795
	c-11.627-2.405-20.046-10.824-25.659-20.847c-1.604-5.212,0-11.626-4.408-15.636c-1.203-17.239,2.004-36.083,16.035-47.709
	C2086.508,93.012,2089.314,92.21,2092.121,92.21z"/>
<path id="path20" fill="#CA010C" d="M1052.95,88.602l69.76-0.401l6.414,25.659c-8.419-11.626-14.433-24.456-31.271-19.244
	l2.808,76.976c2.005,0.802,10.424,8.419,12.429,9.221c-26.06-4.41-25.658-4.41-50.516,0.401c4.812-2.806,9.221-5.613,14.434-7.617
	V94.215c-16.438-4.009-23.254,6.415-28.866,19.244L1052.95,88.602L1052.95,88.602z"/>
<path id="path22" fill="#CA010C" d="M1132.732,87.399c20.848,2.807,21.648,2.807,45.304-0.401
	c-3.208,3.608-7.217,6.415-11.627,8.018l1.604,35.281l38.488,0.401V95.417l-9.222-8.419c18.844,4.811,19.646,4.811,43.699,0.802
	l-12.026,6.415v78.579l10.021,8.419c-22.05-4.009-24.454-3.608-45.303,0.401l12.829-7.617v-36.884h-40.492l2.004,37.686
	c6.815,4.41,4.813,4.009,10.825,6.815c-21.649-6.014-22.051-6.014-43.7,0l6.815-8.82l-0.4-79.782L1132.732,87.399L1132.732,87.399z"
	/>
<path id="path24" fill="#CA010C" d="M1247.795,87.8c23.253,5.613,39.69,1.203,69.759,1.604c0,8.419,2.005,14.032,1.604,22.451
	c-8.82-18.041-6.816-18.041-24.456-18.442l-18.442,0.401v36.083l23.654-0.401l10.021-17.24c-2.404,19.645-2.807,19.244,0.803,39.691
	l-10.824-16.438l-23.654-0.802v42.096l25.658-0.802c17.239-4.811,18.442-9.221,23.654-23.654c0.802,9.221,0.802,18.442,0.802,27.663
	c-25.258-2.405-52.921-3.208-79.381,1.203l7.216-5.613V93.413C1252.605,92.21,1249.398,89.003,1247.795,87.8L1247.795,87.8z"/>
<path id="path26" fill="#CA010C" d="M1388.115,86.999c21.648,3.208,23.654,3.608,46.104,0.401l-12.429,8.82l0.401,77.777
	c19.645,4.41,43.298,0.802,46.905-23.253c2.406,9.622,1.604,19.645,1.604,29.267c-31.271-0.401-54.524-5.212-81.385,1.203
	l11.626-9.622l-0.803-75.773L1388.115,86.999z"/>
<path id="path28" fill="#CA010C" d="M1922.534,86.598c-20.046,0-23.653,4.811-40.894,1.203l10.824,8.419l-1.203,78.579
	l-10.021,6.815c19.645-5.212,16.838,0.802,56.128-0.401c61.34-1.604,55.326-94.616-4.812-94.215
	C1928.548,86.598,1925.341,86.598,1922.534,86.598z M1924.939,91.409c40.491,0.802,47.309,59.736,19.645,80.985
	c-9.621,3.207-16.838,6.415-30.469,2.004c-1.604-26.861-0.401-53.322-0.401-80.183C1916.521,93.814,1922.133,92.21,1924.939,91.409
	L1924.939,91.409z"/>
<path id="path30" fill="#CA010C" d="M2160.275,88.602c23.254,5.212,25.259,0,76.575,0.401c-0.4,8.419,0,17.239-0.4,25.659
	c-2.405-4.811-4.409-9.622-6.414-14.433c-2.005-1.604-6.015-4.009-8.02-5.613c-9.221-0.401-18.041-0.802-27.262-1.203
	c-1.203,12.027-0.803,24.055-0.803,36.483c15.235,2.806,26.06-2.406,32.875-16.438c-0.802,12.428-0.802,25.257,0,37.686
	c-6.815-14.834-18.843-19.244-34.479-16.037c1.203,13.23,2.005,26.46,2.005,39.69c2.005,1.604,5.613,4.811,7.618,6.815
	c-14.834-6.014-28.064-4.009-40.895,0l11.627-8.419l-1.202-77.778C2167.494,93.413,2163.885,91.008,2160.275,88.602L2160.275,88.602
	z"/>
<path id="path36" fill="#EF9FA1" d="M773.112,236.94L644.018,483.503l-52.119,25.258L773.112,236.94z"/>
<path id="path38" fill="#7D0609" d="M773.513,236.54L594.305,504.752l-4.812-51.317L773.513,236.54z"/>
<path id="path40" fill="#EF9FA1" d="M1271.449,238.544c87.398,5.212,174.799,0.401,262.197,2.406
	c-8.42,8.419-17.238,17.239-28.865,20.848c-75.372-1.203-151.146-0.802-226.518-0.401c-1.604-0.401-4.41-1.604-5.612-2.406
	L1271.449,238.544z"/>
<path id="path42" fill="#7D0609" d="M1536.453,238.144l6.816,23.654l-66.554,50.115l2.406,493.124l-25.659,16.839l-3.207-525.599
	l54.524-34.479L1536.453,238.144L1536.453,238.144z"/>
<path id="path44" fill="#EF9FA1" d="M1605.01,240.549c99.828,2.004,199.656-10.424,295.073,25.658l-18.041,19.244
	c-78.579-34.479-166.38-21.249-249.369-24.055l-45.704,0.401L1605.01,240.549z"/>
<path id="path46" fill="#EF9FA1" d="M2088.112,240.95h191.637l-20.046,17.64H2073.68L2088.112,240.95L2088.112,240.95z"/>
<path id="path48" fill="#7D0609" d="M2279.749,240.95l2.807-3.208l142.727,558.875l74.169,71.764l-1.604,20.447l-287.456,2.004
	l-6.414-23.253l37.285-1.604l220.903-0.802l-56.128-47.308L2259.703,259.39L2279.749,240.95L2279.749,240.95z"/>
<path id="path50" fill="#7D0609" d="M1271.449,238.544l1.202,20.447l63.345,44.101l-27.663,4.812l-36.082-21.649V503.95l-46.104,0.4
	l20.046-16.839l-0.401-226.516L1271.449,238.544L1271.449,238.544z"/>
<path id="path52" fill="#7D0609" d="M1586.969,261.797c15.234,0,30.471-0.401,45.704-0.401
	c16.438,17.239,36.483,30.469,54.124,46.506c-9.222,6.014-18.844,10.824-29.668,13.229
	C1634.275,300.285,1610.623,281.442,1586.969,261.797z"/>
<path id="path54" fill="#7D0609" d="M2076.085,258.59h36.082l52.119,52.521l-26.461,1.604L2076.085,258.59z"/>
<path id="path56" fill="#EF9FA1" d="M2138.627,313.916l25.659-2.807l-142.325,507.156l-62.143,46.105l-38.486,26.46l-4.41-23.653
	l86.598-66.15L2138.627,313.916L2138.627,313.916z"/>
<path id="path58" fill="#7D0609" d="M1882.042,285.451l18.041-18.843c125.888,52.921,167.183,202.061,155.956,327.547
	c-2.807,62.142-15.636,125.485-50.114,178.407c-51.317,86.195-157.96,119.07-253.378,117.468
	c-280.24,1.604-560.479-0.4-841.119,0.802L854.898,1052H160.515l-14.032-23.253l684.361,3.608l63.745-168.785l352.003,1.201V602.174
	l26.861-18.441l-1.202,257.388l-6.014,24.455l336.769-0.4V604.579l26.861-24.856v248.566l-11.228,38.088l194.845-3.208
	c87.802-7.617,170.391-68.155,194.444-154.352C2052.431,564.087,2040.402,354.81,1882.042,285.451z"/>
<path id="path60" fill="#7D0609" d="M1042.928,296.677h125.887l-19.242,19.646h-79.782l-0.802,3.208v195.245l-24.857,18.441
	L1042.928,296.677L1042.928,296.677z"/>
<path id="path62" fill="#EF9FA1" d="M1167.211,296.276l78.98,191.236l-20.047,16.839l-1.201,0.803l-75.372-188.831L1167.211,296.276
	L1167.211,296.276z"/>
<path id="path64" fill="#EF9FA1" d="M1782.214,296.677c122.279,19.244,151.546,169.587,151.546,272.622
	c-2.807,99.427-30.47,244.157-147.537,263l25.659-29.668c34.077-11.226,50.515-47.308,64.146-77.777
	c41.294-110.651,41.294-241.351-11.226-348.395c-12.43-21.249-27.664-45.304-53.322-51.718L1782.214,296.677L1782.214,296.677z"/>
<path id="path68" fill="#7D0609" d="M1784.219,298.682l27.262,26.06l0.401,477.89l-23.253,26.861L1784.219,298.682z"/>
<path id="path70" fill="#EF9FA1" d="M1335.996,303.091l4.01,514.775l-72.566,48.108l4.813-24.855l40.895-31.271l-4.813-501.944
	L1335.996,303.091L1335.996,303.091z"/>
<path id="path74" fill="#EF9FA1" d="M1657.129,321.133l29.668-13.229l-0.4,520.388l-67.756,38.087l11.228-38.087l30.469-15.235
	L1657.129,321.133L1657.129,321.133z"/>
<path id="path76" fill="#EF9FA1" d="M914.234,317.123l25.658-6.414l-0.401,517.981L752.265,979.435l-397.708,2.006l1.203-4.41
	l44.102-20.849l345.589,0.803l169.587-142.727L914.234,317.123L914.234,317.123z"/>
<path id="path82" fill="#EF9FA1" d="M2191.548,430.182l50.114,192.038H2135.02l32.475-22.853l43.7,2.406l-21.65-80.185
	L2191.548,430.182L2191.548,430.182z"/>
<path id="path84" fill="#7D0609" d="M2191.548,434.592l-2.005,86.998l-22.05,77.777l-30.87,22.853L2191.548,434.592
	L2191.548,434.592z"/>
<path id="path86" fill="#EF9FA1" d="M1169.216,440.605l26.46,8.819l-29.667,28.063l-48.11,58.133l-73.768-2.405l24.856-18.441
	l38.889,0.4L1169.216,440.605L1169.216,440.605z"/>
<path id="path88" fill="#7D0609" d="M1166.009,477.489c8.819-10.424,19.243-19.244,29.667-28.063c0,72.966,0.401,145.934,0,218.898
	c-0.399,1.203-1.604,3.208-2.004,4.41c-3.607,1.203-7.617,2.405-11.627,3.607c-6.814,2.005-13.631,3.208-20.446,4.813
	c-18.042-26.461-36.482-52.521-54.523-78.98c-12.027-0.4-23.654-0.4-35.683-0.4h-4.41c0,67.354,0.803,134.708,0,202.062
	c-8.418,6.815-16.838,13.23-24.855,20.046c-0.401-82.589-0.401-165.177-0.401-247.364c24.456,0.4,48.912,0.4,73.367,0
	c20.046,19.646,33.677,44.102,51.317,65.35C1166.811,586.939,1167.211,532.014,1166.009,477.489L1166.009,477.489z"/>
<path id="path90" fill="#7D0609" d="M508.508,572.506l53.723-21.248l4.41,48.109l-50.113,20.447L508.508,572.506z"/>
<path id="path92" fill="#EF9FA1" d="M1584.162,581.326l44.902-1.203l-26.06,24.456l-77.776,219.701l-73.368,0.4l27.263-19.645
	l28.465-1.604L1584.162,581.326z"/>
<path id="path94" fill="#EF9FA1" d="M1226.947,585.335l45.304-0.4l-25.659,17.239l-77.376,222.106h-127.09v-0.4l24.856-20.046
	l87.398-1.203L1226.947,585.335z"/>
<path id="path96" fill="#EF9FA1" d="M516.526,619.814l20.848-32.073l27.663,12.829l-50.114,21.648L516.526,619.814L516.526,619.814z
	"/>
<path id="path98" fill="#7D0609" d="M2124.996,664.717l125.086,0.802l-20.447,20.849l-85.395,1.202l-34.479,133.505l55.729,47.308
	l-6.815,20.046l-237.342,2.405l38.488-26.46l169.986,0.802l-46.104-35.28L2124.996,664.717L2124.996,664.717z"/>
<path id="path100" fill="#EF9FA1" d="M2250.081,665.519l0.802,3.207l34.078,158.763l-44.902,38.487l-36.082,1.604l54.523-47.709
	l-28.865-133.504L2250.081,665.519L2250.081,665.519z"/>
<path id="path102" fill="#7D0609" d="M431.533,695.587l54.925-19.645v43.698L299.231,941.348L431.533,695.587z"/>
<path id="path104" fill="#EF9FA1" d="M458.795,707.614l28.465,13.631L304.443,937.739L458.795,707.614z"/>
<path id="path106" fill="#EF9FA1" d="M223.057,121.878c235.738-2.004,472.278,2.005,707.615-2.405l-3.208,2.806
	c-9.221,8.82-17.64,18.843-27.663,27.262c-218.898-1.203-437.799-0.401-656.698-0.401c-22.852,64.146-47.709,127.491-70.561,192.039
	c-12.829,12.429-27.262,22.451-41.294,32.875C160.916,289.46,194.191,206.471,223.057,121.878z"/>
<path id="path108" fill="#7D0609" d="M899.801,149.541l27.663-27.262l10.023,26.06l-67.354,99.828l69.358,62.943l-25.257,5.612
	l-56.529-48.109L399.86,956.182l-44.102,20.849L899.801,149.541z"/>
<path id="path110" fill="#7D0609" d="M357.364,196.047l365.232,3.608L678.496,219.3l-313.916-0.401L149.289,391.693l-18.042-17.641
	L357.364,196.047z"/>
<path id="path112" fill="#EF9FA1" d="M726.205,198.453L176.551,1029.95h-30.069L678.496,219.3L726.205,198.453z"/>
<path id="path114" fill="#EF9FA1" d="M866.124,254.581c3.608-5.212,7.617-10.424,11.226-15.636
	c130.299,4.41,260.996,0,391.293,2.004c-7.616,6.815-15.233,13.631-22.853,20.046c-119.873,0.401-239.747-0.401-359.62,0.401
	C879.354,259.392,872.539,256.986,866.124,254.581L866.124,254.581z"/>
<path id="path116" fill="#CA010C" d="M1481.528,87.8c23.253,5.613,39.689,1.203,69.759,1.604c0,8.419,2.005,14.032,1.604,22.451
	c-8.819-18.041-6.814-18.041-24.455-18.442l-18.441,0.401v36.083l23.652-0.401l10.023-17.24
	c-2.406,19.645-2.807,19.244,0.802,39.691l-10.825-16.438l-23.652-0.802v42.096l25.658-0.802
	c17.238-4.811,18.441-9.221,23.654-23.654c0.801,9.221,0.801,18.442,0.801,27.663c-25.258-2.405-52.92-3.208-79.381,1.203
	l7.217-5.613V93.413C1486.339,92.21,1483.132,89.003,1481.528,87.8L1481.528,87.8z"/>
<path id="path118" fill="#CA010C" d="M1681.584,87.8c23.254,5.613,39.691,1.203,69.76,1.604c0,8.419,2.004,14.032,1.604,22.451
	c-8.82-18.041-6.815-18.041-24.456-18.442l-18.442,0.401v36.083l23.654-0.401l10.022-17.24c-2.406,19.645-2.807,19.244,0.803,39.691
	l-10.825-16.438l-23.654-0.802v42.096l25.659-0.802c17.239-4.811,18.441-9.221,23.652-23.654c0.804,9.221,0.804,18.442,0.804,27.663
	c-25.259-2.405-52.921-3.208-79.381,1.203L1688,175.6V93.413C1686.396,92.21,1683.188,89.003,1681.584,87.8z"/>
</svg>
