<?xml version="1.0" encoding="utf-8"?>
<!-- Generator: Adobe Illustrator 16.0.0, SVG Export Plug-In . SVG Version: 6.00 Build 0)  -->
<!DOCTYPE svg PUBLIC "-//W3C//DTD SVG 1.1//EN" "http://www.w3.org/Graphics/SVG/1.1/DTD/svg11.dtd">
<svg version="1.1"
	 id="Layer_2" xmlns:dc="http://purl.org/dc/elements/1.1/" xmlns:cc="http://creativecommons.org/ns#" xmlns:rdf="http://www.w3.org/1999/02/22-rdf-syntax-ns#"
	 xmlns="http://www.w3.org/2000/svg" xmlns:xlink="http://www.w3.org/1999/xlink" x="0px" y="0px" width="1444.065px"
	 height="423.955px" viewBox="222.537 16.263 1444.065 423.955" enable-background="new 222.537 16.263 1444.065 423.955"
	 xml:space="preserve">
<polygon fill="#919191" points="223.087,24.132 429.453,24.132 429.453,85.766 359.013,85.766 359.013,266.818 290.225,266.818 
	290.225,85.766 222.537,85.766 "/>
<polygon fill="#919191" points="448.714,24.132 516.402,24.132 516.402,267.368 447.613,267.368 "/>
<rect x="537.313" y="113.282" fill="#919191" width="61.084" height="47.877"/>
<g>
	<path fill="#919191" d="M614.022,213.782l71.331-8.391c1.877,9.324,5.047,15.905,9.511,19.743c4.461,3.84,9.921,5.758,16.379,5.758
		c11.506,0,20.489-5.43,26.947-16.288c4.695-8.005,8.217-24.951,10.568-50.837c-8.573,8.226-17.379,14.259-26.419,18.098
		c-9.043,3.84-19.492,5.758-31.35,5.758c-23.133,0-42.652-7.676-58.562-23.033c-15.912-15.354-23.865-34.768-23.865-58.241
		c0-16.012,4.051-30.601,12.153-43.763s19.255-23.116,33.464-29.861c14.205-6.746,32.055-10.118,53.542-10.118
		c25.83,0,46.555,4.141,62.172,12.421c15.614,8.283,28.092,21.444,37.427,39.485c9.334,18.043,14.001,41.871,14.001,71.485
		c0,43.544-9.805,75.434-29.413,95.67c-19.611,20.235-46.792,30.354-81.546,30.354c-20.549,0-36.752-2.222-48.61-6.663
		c-11.861-4.442-21.724-10.941-29.589-19.496C624.295,237.309,618.25,226.615,614.022,213.782z M746.116,106.185
		c0-13.051-3.522-23.28-10.567-30.684c-7.045-7.403-15.618-11.105-25.714-11.105c-9.511,0-17.409,3.347-23.689,10.036
		c-6.283,6.691-9.422,16.727-9.422,30.107c0,13.491,3.258,23.802,9.775,30.93c6.516,7.131,14.646,10.694,24.394,10.694
		c10.097,0,18.493-3.455,25.186-10.365C742.77,128.889,746.116,119.018,746.116,106.185z"/>
	<path fill="#919191" d="M836.574,213.782l71.33-8.391c1.876,9.324,5.047,15.905,9.511,19.743c4.46,3.84,9.921,5.758,16.379,5.758
		c11.506,0,20.489-5.43,26.948-16.288c4.695-8.005,8.218-24.951,10.567-50.837c-8.572,8.226-17.378,14.259-26.418,18.098
		c-9.043,3.84-19.493,5.758-31.351,5.758c-23.132,0-42.652-7.676-58.561-23.033c-15.912-15.354-23.865-34.768-23.865-58.241
		c0-16.012,4.051-30.601,12.152-43.763c8.102-13.162,19.256-23.116,33.464-29.861c14.205-6.746,32.054-10.118,53.542-10.118
		c25.829,0,46.555,4.141,62.172,12.421c15.615,8.283,28.092,21.444,37.427,39.485c9.335,18.043,14.002,41.871,14.002,71.485
		c0,43.544-9.806,75.434-29.412,95.67c-19.611,20.235-46.793,30.354-81.547,30.354c-20.548,0-36.752-2.222-48.61-6.663
		c-11.861-4.442-21.724-10.941-29.589-19.496C846.847,237.309,840.801,226.615,836.574,213.782z M968.667,106.185
		c0-13.051-3.522-23.28-10.566-30.684c-7.046-7.403-15.618-11.105-25.714-11.105c-9.511,0-17.409,3.347-23.689,10.036
		c-6.283,6.691-9.423,16.727-9.423,30.107c0,13.491,3.258,23.802,9.775,30.93c6.517,7.131,14.646,10.694,24.393,10.694
		c10.097,0,18.493-3.455,25.186-10.365C965.321,128.889,968.667,119.018,968.667,106.185z"/>
</g>
<polygon fill="#919191" points="1132.198,23.581 1165.862,23.581 1055.8,273.972 1025.989,273.972 "/>
<g>
	<g>
		<path fill="#919191" d="M1255.066,278.075v-45.079h-130.684v-66.538l135.265-150.195h74.453v148.235h32.408v68.498H1334.1v45.079
			H1255.066L1255.066,278.075z M1271.578,216.487L1271.578,216.487l-0.003,45.078h46.017v-45.078l32.406-0.002v-35.478h-32.406
			l-0.002-148.235l-50.594,0.002l-126.104,140.021v43.692 M1271.578,181.007H1175.6l0,0l95.978-105.5 M1212.939,164.499h42.127
			v-46.309L1212.939,164.499L1212.939,164.499z"/>
		<path fill="#919191" d="M1564.834,278.076l-12.916-39.816h-78.534l-12.583,39.816h-99.732l103.687-257.701h98.183l103.664,257.701
			H1564.834L1564.834,278.076z M1563.917,221.752l12.919,39.813h65.328l-90.38-224.68h-75.874l-90.401,224.68h63.196l12.586-39.813
			h96.628v8.255l-7.853,2.547l7.853-2.547v-8.255H1563.917L1563.917,221.752z M1552.769,186.108H1473.3l0,0l39.523-121.522
			 M1496.03,169.598h33.937l-17.057-51.89L1496.03,169.598L1496.03,169.598z"/>
	</g>
</g>
<g>
	<path fill="#919191" d="M368.916,381.396l16.977,1.699c-1.855,9.015-6.603,16.072-14.243,21.172
		c-7.641,5.099-17.024,7.647-28.15,7.647c-13.94,0-25.146-3.51-33.617-10.53c-8.473-7.021-12.708-17.082-12.708-30.187
		c0-8.473,1.822-15.888,5.467-22.242c3.645-6.355,9.191-11.122,16.641-14.3c7.448-3.178,15.552-4.767,24.313-4.767
		c11.062,0,20.109,2.155,27.143,6.467c7.033,4.311,11.541,10.432,13.523,18.362l-16.785,1.996
		c-1.599-5.271-4.428-9.238-8.488-11.897c-4.061-2.661-8.967-3.99-14.722-3.99c-8.697,0-15.763,2.401-21.196,7.205
		c-5.436,4.803-8.153,12.402-8.153,22.796c0,10.544,2.621,18.204,7.865,22.982c5.242,4.779,12.085,7.168,20.525,7.168
		c6.776,0,12.435-1.601,16.976-4.803C364.823,392.974,367.7,388.046,368.916,381.396z"/>
	<path fill="#919191" d="M394.237,370.902c0-14.532,5.242-25.297,15.729-32.292c8.759-5.813,19.437-8.721,32.035-8.721
		c14.003,0,25.447,3.536,34.335,10.604c8.887,7.069,13.332,16.837,13.332,29.3c0,10.1-1.966,18.044-5.898,23.832
		c-3.932,5.789-9.656,10.284-17.168,13.486c-7.514,3.202-15.714,4.803-24.601,4.803c-14.26,0-25.785-3.521-34.577-10.567
		C398.632,394.303,394.237,384.156,394.237,370.902z M411.98,370.902c0,10.05,2.844,17.576,8.536,22.575
		c5.69,5.001,12.852,7.501,21.484,7.501c8.567,0,15.696-2.513,21.388-7.538c5.69-5.024,8.536-12.685,8.536-22.981
		c0-9.705-2.862-17.057-8.584-22.059c-5.723-4.999-12.837-7.5-21.34-7.5c-8.632,0-15.794,2.488-21.484,7.464
		C414.824,353.341,411.98,360.853,411.98,370.902z"/>
	<path fill="#919191" d="M509.905,410.142v-78.478h15.442v11.011c3.196-3.843,7.448-6.934,12.756-9.274
		c5.307-2.34,11.349-3.511,18.127-3.511c7.544,0,13.73,1.208,18.56,3.621c4.827,2.414,8.231,5.789,10.214,10.124
		c8.056-9.163,18.542-13.745,31.458-13.745c10.103,0,17.871,2.155,23.306,6.467c5.434,4.311,8.153,10.949,8.153,19.914v53.871
		h-17.168v-49.438c0-5.32-0.561-9.15-1.679-11.49c-1.119-2.34-3.15-4.224-6.09-5.653c-2.942-1.429-6.395-2.143-10.358-2.143
		c-7.162,0-13.108,1.836-17.839,5.505c-4.732,3.671-7.097,9.546-7.097,17.625v45.594h-17.264v-50.989
		c0-5.911-1.407-10.345-4.22-13.3c-2.814-2.957-7.418-4.435-13.811-4.435c-4.86,0-9.352,0.985-13.476,2.955
		c-4.124,1.972-7.114,4.854-8.968,8.646c-1.855,3.795-2.782,9.263-2.782,16.405v40.717H509.905z"/>
	<path fill="#919191" d="M673.529,440.218V331.664h15.73v10.197c3.707-3.99,7.896-6.983,12.564-8.979
		c4.666-1.995,10.325-2.993,16.976-2.993c8.695,0,16.368,1.726,23.019,5.173c6.649,3.449,11.668,8.313,15.058,14.595
		c3.388,6.281,5.083,13.167,5.083,20.654c0,8.03-1.87,15.26-5.61,21.688c-3.741,6.429-9.176,11.356-16.305,14.779
		c-7.13,3.424-14.626,5.136-22.491,5.136c-5.755,0-10.919-0.937-15.49-2.809c-4.572-1.871-8.329-4.235-11.27-7.094v38.205H673.529z
		 M689.163,371.346c0,10.1,2.653,17.563,7.961,22.391c5.306,4.829,11.732,7.242,19.278,7.242c7.673,0,14.243-2.5,19.71-7.501
		c5.467-4.999,8.2-12.746,8.2-23.24c0-10-2.67-17.487-8.009-22.465c-5.339-4.975-11.717-7.463-19.134-7.463
		c-7.354,0-13.859,2.648-19.518,7.943C691.993,353.55,689.163,361.248,689.163,371.346z"/>
	<path fill="#919191" d="M849.526,410.142v-11.527c-7.929,8.867-18.703,13.301-32.321,13.301c-6.011,0-11.622-0.887-16.833-2.66
		c-5.212-1.773-9.08-4.002-11.605-6.688c-2.526-2.685-4.301-5.974-5.323-9.865c-0.705-2.61-1.055-6.749-1.055-12.415v-48.623h17.264
		v43.524c0,6.946,0.351,11.627,1.055,14.041c1.086,3.498,3.389,6.244,6.906,8.238c3.516,1.996,7.865,2.993,13.044,2.993
		s10.038-1.021,14.578-3.066c4.54-2.044,7.752-4.827,9.639-8.351c1.885-3.521,2.83-8.633,2.83-15.333v-42.047h17.264v78.478H849.526
		z"/>
	<path fill="#919191" d="M929.708,398.244l2.494,11.75c-4.86,0.787-9.207,1.183-13.043,1.183c-6.268,0-11.126-0.766-14.579-2.291
		c-3.453-1.526-5.883-3.535-7.289-6.023c-1.407-2.486-2.109-7.722-2.109-15.702v-45.151H882.52v-10.345h12.661v-19.436l17.167-7.98
		v27.416h17.36v10.345h-17.36v45.891c0,3.794,0.303,6.232,0.911,7.315c0.606,1.084,1.597,1.946,2.974,2.586
		c1.374,0.641,3.34,0.961,5.898,0.961C924.049,398.762,926.575,398.59,929.708,398.244z"/>
	<path fill="#919191" d="M1016.315,384.869l17.841,1.699c-2.815,8.031-8.026,14.263-15.634,18.696
		c-7.61,4.435-17.328,6.65-29.157,6.65c-14.899,0-26.711-3.534-35.439-10.604c-8.727-7.067-13.092-16.983-13.092-29.742
		c0-13.202,4.412-23.45,13.236-30.741c8.823-7.29,20.27-10.938,34.337-10.938c13.619,0,24.744,3.573,33.377,10.715
		c8.632,7.144,12.948,17.194,12.948,30.15c0,0.789-0.033,1.971-0.097,3.547h-75.962c0.64,8.622,3.804,15.223,9.496,19.805
		c5.689,4.582,12.787,6.872,21.292,6.872c6.331,0,11.733-1.28,16.209-3.843C1010.144,394.575,1013.693,390.485,1016.315,384.869z
		 M959.632,363.365h56.876c-0.769-6.601-2.943-11.552-6.523-14.854c-5.5-5.123-12.628-7.685-21.388-7.685
		c-7.929,0-14.595,2.044-19.997,6.133C963.196,351.05,960.208,356.519,959.632,363.365z"/>
	<path fill="#919191" d="M1055.639,410.142v-78.478h15.538v11.896c3.964-5.566,7.625-9.237,10.981-11.01
		c3.356-1.774,7.05-2.661,11.078-2.661c5.817,0,11.732,1.43,17.743,4.287l-5.946,12.34c-4.22-1.921-8.44-2.882-12.66-2.882
		c-3.774,0-7.162,0.875-10.167,2.623c-3.007,1.75-5.147,4.176-6.426,7.279c-1.918,4.729-2.878,9.902-2.878,15.519v41.086H1055.639z"
		/>
</g>
</svg>
