<?xml version="1.0" encoding="utf-8"?>
<!-- Generator: Adobe Illustrator 16.0.0, SVG Export Plug-In . SVG Version: 6.00 Build 0)  -->
<!DOCTYPE svg PUBLIC "-//W3C//DTD SVG 1.1//EN" "http://www.w3.org/Graphics/SVG/1.1/DTD/svg11.dtd">
<svg version="1.1"
	 id="Ebene_1" xmlns:dc="http://purl.org/dc/elements/1.1/" xmlns:cc="http://creativecommons.org/ns#" xmlns:rdf="http://www.w3.org/1999/02/22-rdf-syntax-ns#" xmlns:svg="http://www.w3.org/2000/svg" xmlns:sodipodi="http://sodipodi.sourceforge.net/DTD/sodipodi-0.dtd" xmlns:inkscape="http://www.inkscape.org/namespaces/inkscape" sodipodi:docname="Kodi.svg" inkscape:version="0.48.5 r10040"
	 xmlns="http://www.w3.org/2000/svg" xmlns:xlink="http://www.w3.org/1999/xlink" x="0px" y="0px" width="260px" height="78.762px"
	 viewBox="-10.12 0 260 78.762" enable-background="new -10.12 0 260 78.762" xml:space="preserve">
<sodipodi:namedview  showgrid="false" inkscape:cy="11.282395" inkscape:cx="481.8057" inkscape:zoom="0.67942367" borderopacity="1" bordercolor="#666666" pagecolor="#ffffff" id="namedview31" inkscape:window-maximized="1" inkscape:window-y="-8" inkscape:window-x="-8" inkscape:current-layer="Ebene_1" inkscape:pageshadow="2" inkscape:pageopacity="0" inkscape:window-height="706" inkscape:window-width="1366" fit-margin-top="0" guidetolerance="10" gridtolerance="10" objecttolerance="10" fit-margin-left="0" fit-margin-right="0" fit-margin-bottom="0">
	</sodipodi:namedview>
<g id="g3" transform="matrix(0.4237353,0,0,0.4237353,-53.58646,-83.348259)">
	<g id="g5">
		<path id="path7" inkscape:connector-curvature="0" fill="#6B6B6B" d="M502.529,236.388c0.954,0.06,1.913,0.118,2.867,0.184
			c7.333,0.507,14.344,2.226,20.894,5.63c4.678,2.431,8.827,5.579,12.528,9.334c4.019,4.075,7.343,8.645,9.845,13.8
			c1.837,3.784,3.111,7.753,3.996,11.86c1.081,5.036,1.438,10.131,1.224,15.257c-0.346,8.23-2.167,16.091-6.045,23.413
			c-2.706,5.105-6.234,9.585-10.431,13.549c-6.729,6.354-14.616,10.5-23.678,12.42c-3.353,0.71-6.734,1.157-10.161,1.263
			c-0.155,0.007-0.309,0.051-0.463,0.076h-4.033c-0.876-0.065-1.754-0.122-2.627-0.189c-10.491-0.76-20.069-4.001-28.37-10.606
			c-6.55-5.211-11.68-11.567-15.178-19.2c-1.777-3.879-2.968-7.947-3.761-12.134c-0.899-4.736-1.182-9.523-0.942-14.326
			c0.507-10.117,3.169-19.564,9.041-27.935c6.868-9.792,15.852-16.759,27.444-20.126c3.535-1.026,7.14-1.71,10.811-1.989
			c1.164-0.092,2.33-0.136,3.496-0.207c0.189-0.011,0.378-0.048,0.567-0.074H502.529L502.529,236.388z M500.934,329.445
			c3.729-0.03,7.338-0.334,10.88-1.21c7.711-1.906,14.125-5.907,19.221-12.007c5.206-6.225,7.912-13.457,8.645-21.477
			c0.253-2.745,0.281-5.494,0.12-8.248c-0.18-2.987-0.572-5.944-1.365-8.834c-2.475-9.025-7.545-16.227-15.331-21.438
			c-5.826-3.893-12.344-5.674-19.294-6.02c-3.798-0.187-7.575-0.016-11.321,0.664c-6.545,1.189-12.367,3.89-17.386,8.288
			c-4.863,4.264-8.384,9.442-10.56,15.536c-1.65,4.607-2.309,9.378-2.374,14.25c-0.06,3.784,0.208,7.545,1.03,11.242
			c1.491,6.674,4.492,12.565,9.177,17.585c4.137,4.43,9.055,7.617,14.78,9.569C491.655,328.874,496.302,329.395,500.934,329.445"/>
		<path id="path9" inkscape:connector-curvature="0" fill="#6B6B6B" d="M692.285,340.773c-0.392,0.954-0.696,1.148-1.775,1.148
			c-3.519,0-7.041,0.002-10.564,0c-1.24,0-1.696-0.461-1.696-1.708V239.384c0-1.293,0.456-1.747,1.768-1.747
			c3.521,0,7.043-0.014,10.562,0.018c0.436,0.005,0.908,0.175,1.281,0.406c0.223,0.141,0.29,0.537,0.426,0.82v101.891H692.285z"/>
		<path id="path11" inkscape:connector-curvature="0" fill="#6B6B6B" d="M405.102,279.939c1.777,2.358,3.537,4.697,5.296,7.034
			c3.729,4.957,7.458,9.912,11.189,14.874c4.798,6.377,9.594,12.752,14.393,19.124c4.701,6.25,9.398,12.498,14.109,18.741
			c0.35,0.459,0.498,0.926,0.249,1.461c-0.253,0.539-0.747,0.714-1.3,0.744c-0.256,0.016-0.512,0.002-0.77,0.002
			c-4.335,0-8.675-0.002-13.012,0.005c-0.742,0.002-1.286-0.247-1.752-0.864c-8.177-10.933-16.377-21.855-24.572-32.779
			c-4.654-6.199-9.311-12.404-13.966-18.603c-0.038-0.053-0.083-0.097-0.15-0.175c-0.564,0.528-1.126,1.051-1.685,1.567
			c-3.775,3.531-7.548,7.062-11.323,10.592c-2.08,1.943-4.161,3.888-6.255,5.819c-0.27,0.247-0.379,0.495-0.379,0.864
			c0.008,10.56,0.008,21.124,0.008,31.687c0,0.127,0.002,0.256,0,0.385c-0.029,0.968-0.521,1.493-1.489,1.498
			c-3.698,0.014-7.393,0.009-11.091,0c-0.938-0.005-1.43-0.53-1.451-1.473c-0.002-0.108,0-0.224,0-0.334V239.476v-0.097
			c0-1.272,0.46-1.74,1.724-1.74c3.377,0,6.755,0,10.131,0c0.224,0,0.448-0.007,0.672,0c0.978,0.046,1.46,0.528,1.501,1.5
			c0.007,0.145,0.001,0.29,0.001,0.433v48.783v0.675c0.838-0.781,1.595-1.484,2.346-2.192c4.457-4.181,8.911-8.366,13.373-12.547
			c5.848-5.48,11.7-10.959,17.549-16.439c4.903-4.598,9.801-9.198,14.7-13.796c2.067-1.938,4.137-3.872,6.197-5.815
			c0.429-0.406,0.919-0.606,1.507-0.606c5.172,0.002,10.339,0,15.51,0.002c0.88,0,1.378,0.32,1.563,0.979
			c0.152,0.544-0.055,0.966-0.438,1.33c-1.498,1.424-2.989,2.846-4.489,4.261c-2.655,2.503-5.315,5.001-7.969,7.504
			c-3.683,3.466-7.361,6.93-11.035,10.403c-3.77,3.556-7.536,7.119-11.307,10.675C410.179,275.166,407.66,277.531,405.102,279.939"
			/>
		<path id="path13" inkscape:connector-curvature="0" fill="#6B6B6B" d="M569.926,289.791v-50.223c0-0.145,0-0.288,0-0.433
			c0.018-0.947,0.498-1.443,1.438-1.496c0.064-0.002,0.129-0.002,0.189-0.002c14.36,0.002,28.716-0.032,43.074,0.023
			c6.603,0.023,12.92,1.507,18.949,4.204c5.243,2.344,9.85,5.614,13.851,9.728c6.522,6.697,10.855,14.595,12.98,23.708
			c1.226,5.248,1.733,10.56,1.622,15.934c-0.152,7.218-1.406,14.229-4.139,20.94c-2.286,5.598-5.559,10.574-9.684,14.987
			c-6.324,6.778-14.015,11.233-23.019,13.413c-3.89,0.94-7.827,1.36-11.828,1.355c-13.906-0.018-27.813-0.007-41.726-0.009
			c-0.237,0-0.477-0.016-0.712-0.051c-0.516-0.083-0.834-0.392-0.927-0.903c-0.046-0.265-0.069-0.537-0.069-0.807
			C569.926,323.37,569.926,306.581,569.926,289.791 M583.97,328.498h0.618c9.348,0,18.695,0.009,28.043-0.007
			c1.678-0.007,3.36-0.076,5.029-0.203c3.471-0.274,6.785-1.196,9.947-2.648c4.139-1.892,7.619-4.653,10.613-8.064
			c2.791-3.178,4.994-6.711,6.621-10.613c1.731-4.151,2.659-8.481,3.003-12.959c0.318-4.086,0.189-8.154-0.424-12.201
			c-0.731-4.78-2.286-9.292-4.69-13.496c-2.671-4.672-6.121-8.672-10.548-11.765c-5.301-3.699-11.256-5.423-17.681-5.453
			c-10.002-0.048-20.009-0.016-30.011-0.016h-0.519V328.498L583.97,328.498z"/>
	</g>
	<g id="g15">
		<path id="path17" inkscape:connector-curvature="0" fill="#31AFE1" d="M313.057,291.183c-0.603,1.952-1.921,3.383-3.334,4.791
			c-9.464,9.431-18.899,18.896-28.345,28.347c-3.404,3.406-7.041,3.397-10.456-0.023c-9.749-9.756-19.497-19.511-29.24-29.269
			c-3.32-3.321-3.318-6.951,0.01-10.281c9.797-9.816,19.601-19.624,29.404-29.433c3.187-3.192,6.937-3.194,10.124-0.005
			c9.503,9.507,18.994,19.023,28.513,28.513c1.413,1.406,2.728,2.842,3.323,4.796V291.183L313.057,291.183L313.057,291.183z"/>
		<path id="path19" inkscape:connector-curvature="0" fill="#31AFE1" d="M219.101,382.574c-1.944-0.618-3.352-1.964-4.753-3.372
			c-9.425-9.474-18.876-18.917-28.322-28.373c-3.379-3.383-3.382-6.992-0.009-10.366c9.772-9.781,19.546-19.564,29.322-29.343
			c3.252-3.254,6.974-3.266,10.206-0.03c9.775,9.779,19.549,19.564,29.321,29.345c3.357,3.365,3.366,7.048,0.024,10.389
			c-9.526,9.539-19.066,19.064-28.57,28.619c-1.362,1.364-2.761,2.595-4.656,3.13H219.101L219.101,382.574z"/>
		<path id="path21" inkscape:connector-curvature="0" fill="#31AFE1" d="M184.799,266.464c0-10.876,0.098-21.754-0.061-32.627
			c-0.046-3.148,0.704-5.605,3.109-7.684c1.931-1.671,3.646-3.6,5.457-5.414c7.166-7.174,14.329-14.344,21.497-21.516
			c3.372-3.367,7.006-3.367,10.375,0.002c9.749,9.751,19.495,19.504,29.243,29.26c3.35,3.353,3.346,7.036-0.001,10.389
			c-11.528,11.542-23.058,23.081-34.588,34.621c-10.182,10.196-20.362,20.387-30.545,30.576c-1.889,1.89-3.561,1.45-4.244-1.168
			c-0.212-0.811-0.229-1.685-0.229-2.531C184.795,289.07,184.799,277.766,184.799,266.464"/>
		<path id="path23" inkscape:connector-curvature="0" fill="#31AFE1" d="M161.487,290.031c0,9.979,0.014,19.965-0.021,29.942
			c-0.006,0.947-0.154,1.952-0.494,2.832c-0.666,1.733-1.916,1.947-3.224,0.641c-4.591-4.582-9.169-9.177-13.75-13.768
			c-5.296-5.303-10.594-10.606-15.887-15.916c-2.191-2.199-2.2-5.243-0.018-7.453c9.75-9.857,19.5-19.716,29.252-29.573
			c0.645-0.65,1.254-1.535,2.351-1.12c1.046,0.396,1.461,1.341,1.609,2.388c0.094,0.65,0.167,1.309,0.168,1.966
			c0.01,10.021,0.006,20.039,0.006,30.062H161.487L161.487,290.031z"/>
	</g>
</g>
</svg>
