<?xml version="1.0" encoding="utf-8"?>
<!-- Generator: Adobe Illustrator 16.0.0, SVG Export Plug-In . SVG Version: 6.00 Build 0)  -->
<!DOCTYPE svg PUBLIC "-//W3C//DTD SVG 1.1//EN" "http://www.w3.org/Graphics/SVG/1.1/DTD/svg11.dtd">
<svg version="1.1" id="Ebene_1" xmlns="http://www.w3.org/2000/svg" xmlns:xlink="http://www.w3.org/1999/xlink" x="0px" y="0px"
	 width="566.929px" height="142.315px" viewBox="0 0 566.929 142.315" enable-background="new 0 0 566.929 142.315"
	 xml:space="preserve">
<path fill="#5B5B5B" d="M240.575,77.262c-14.877,14.885-14.877,39.008,0,53.895c14.885,14.877,39.008,14.877,53.893,0
	c12.871-12.871,14.605-32.656,5.219-47.393l-20.5,20.5c-0.016,2.971-1.151,5.934-3.414,8.193c-4.557,4.551-11.945,4.551-16.502,0
	c-4.55-4.558-4.55-11.941,0-16.5c4.557-4.551,11.945-4.551,16.502,0l0.35,0.371l18.705-18.704l-0.354-0.364
	C279.583,62.385,255.46,62.385,240.575,77.262z"/>
<path fill="#494949" d="M92.1,142.161l92.101-104.84h-38.433l-58.87,59.936c-1.797,1.828-4.713,1.828-6.509,0
	c-1.796-1.824-1.796-4.797,0-6.633l52.361-53.301H0L92.1,142.161z"/>
<path fill="#5B5B5B" d="M503.134,104.038l-31.893,37.5h26.061l24.832-25.281c1.439-1.463,3.771-1.463,5.211,0
	c1.438,1.461,1.438,3.834,0,5.307l-19.621,19.979h59.205l-31.893-37.502l31.893-37.499h-26.061l-24.832,25.282
	c-1.439,1.471-3.771,1.471-5.211,0c-1.439-1.462-1.439-3.832,0-5.304l19.621-19.979h-59.205L503.134,104.038z"/>
<path fill="#5B5B5B" d="M356.339,66.539v75h23.938V92.793h18.15l22.326-26.254h-26.062l-24.84,25.282
	c-1.433,1.471-3.767,1.471-5.201,0c-1.438-1.462-1.438-3.833,0-5.304l19.619-19.979L356.339,66.539L356.339,66.539z"/>
<path fill="#5B5B5B" d="M338.494,66.857h14.465l23.894-24.691h-38.354V0l-58.351,66.857h25.519l17.474-16.23
	c1.438-1.462,3.772-1.462,5.202,0c1.438,1.472,1.438,3.842,0,5.306L314.56,69.969v71.571h23.938V66.857H338.494z"/>
<path fill="#5B5B5B" d="M158.919,77.262c-14.877,14.885-14.877,39.008,0,53.895c14.885,14.877,39.008,14.877,53.893,0
	c12.871-12.871,14.605-32.656,5.218-47.393l-20.5,20.5c-0.016,2.971-1.151,5.934-3.414,8.193c-3.741,3.732-9.379,4.4-13.796,2.018
	l34.747-34.747c-0.599-0.715-4.425-4.512-5.576-5.42C194.537,62.456,172.738,63.443,158.919,77.262z M175.094,108.704
	c-1.765-4.229-0.925-9.301,2.521-12.744c3.445-3.443,8.516-4.287,12.746-2.521L175.094,108.704z"/>
<path fill="#5B5B5B" d="M418.664,77.262c-14.877,14.885-14.877,39.008,0,53.895c14.887,14.877,39.01,14.877,53.895,0
	c12.871-12.871,14.605-32.656,5.225-47.393l-20.5,20.5c-0.021,2.971-1.15,5.934-3.414,8.193c-3.74,3.732-9.379,4.4-13.795,2.018
	l34.746-34.747c-0.605-0.715-4.432-4.512-5.576-5.42C454.283,62.456,432.484,63.443,418.664,77.262z M434.839,108.704
	c-1.766-4.229-0.926-9.301,2.52-12.744s8.518-4.287,12.746-2.521L434.839,108.704z"/>
</svg>
