<?xml version="1.0" encoding="utf-8"?>
<!-- Generator: Adobe Illustrator 16.0.0, SVG Export Plug-In . SVG Version: 6.00 Build 0)  -->
<!DOCTYPE svg PUBLIC "-//W3C//DTD SVG 1.1//EN" "http://www.w3.org/Graphics/SVG/1.1/DTD/svg11.dtd">
<svg version="1.1" id="Layer_4" xmlns="http://www.w3.org/2000/svg" xmlns:xlink="http://www.w3.org/1999/xlink" x="0px" y="0px"
	 width="1506px" height="456.5px" viewBox="195.65 0 1506 456.5" enable-background="new 195.65 0 1506 456.5" xml:space="preserve"
	>
<path fill="#FFE5C0" d="M521.207,296.791L401.949,412.288l-1.333,1.289H243.996L597.305,37.552v170.096L740.917,47.444v247.694
	h6.193L850.673,65.13h246.362l-37.186,82.886H915.145l-22.517,51.715h78.993l-37.025,85.89l-65.831-0.002l-22.399,49.998h300.364
	l22.399-49.996h-139.158l96.45-220.491h248.204l-36.022,82.886h-149.392l-22.52,51.715h138.53l-59.478,135.886h176.389
	l22.396-49.996h-139.156l96.449-220.491h244.391l-36.022,82.886h-143.482l-22.515,51.715h136.643l-93.956,213.846h-847.81v-116.2
	L521.207,420.392V296.791L521.207,296.791z M398.763,409.001v-4.578V409.001L398.763,409.001z"/>
<path fill="#F7F7F7" d="M512.875,329.448l-95.974,92.947l-5.324,5.157H217.654L616.438,3.126v168.875L760.049,11.797v233.401
	l87.147-193.555h275.646h275.399h274.314l-47.957,110.348h-143.491l-10.557,24.252h136.717l-106.02,241.31H630.739v-95.75
	L512.875,454.818V329.448L512.875,329.448z M404.164,409.243v-18.309V409.243L404.164,409.243z M1193.049,186.243h138.575
	l-59.48,135.889h146.493l10.095-22.537h-138.954l60.194-137.604h-146.364L1193.049,186.243L1193.049,186.243z M872.964,322.13
	h270.271l10.096-22.535h-138.957l76.997-176.014l-17.232,38.41H929.543l-10.559,24.252h78.912l-48.869,113.352H883.06
	L872.964,322.13L872.964,322.13z"/>
<path fill="#A05F00" d="M520.474,313.116L412.857,417.342l-3.331,3.224H234.257L610.304,20.342l-0.003,169.483L753.916,29.622
	v247.425l98.451-218.663h261.409l-43.348,96.62l-144.651-0.002l-16.537,37.984h78.951l-42.946,99.622l-65.9-0.002l-16.249,36.269
	h285.321l16.249-36.267h-139.054l102.454-234.225h263.165l-41.99,96.62l-149.4-0.002l-16.536,37.984h138.555l-59.482,135.889
	h161.441l16.249-36.267H1301.01l102.456-234.225h259.351l-41.988,96.62h-143.49l-16.535,37.986h136.683l-99.988,227.576H638.339
	V314.589L520.474,437.604V313.116L520.474,313.116z M404.896,409.122v-11.445V409.122L404.896,409.122z"/>
<path fill="#F7F7F7" d="M528.753,292.56L407.258,409.938l-1.002,0.967H252.368l350.374-371.99v170.198L746.709,48.905v245.85h8.1
	L858.626,64.746h244.453l-36.25,80.598h-145.07l-23.566,54.003h79.192l-36.129,83.599h-65.98l-23.482,52.29h303.617l23.482-52.287
	h-139.519l95.683-218.203h246.315l-35.112,80.598H1196.5l-23.569,54.003h138.864l-59.624,135.889h179.315l23.482-52.287h-139.516
	l95.682-218.203h242.493l-35.115,80.598H1474.68l-23.571,54.003h136.972l-93.18,211.558H646.908V293.001L528.753,416.016V292.56
	L528.753,292.56z M404.865,407.472v-3.435V407.472L404.865,407.472z"/>
<polygon fill="#FFA102" points="407.177,404.674 533.136,283.781 533.136,402.553 652.063,280.599 652.063,406.796 
	1490.185,406.796 1580.118,204.227 1443.5,204.227 1470.003,143.356 1613.484,143.356 1645.526,69.625 1413.23,69.625 
	1322.91,278.84 1462.133,278.84 1433.51,340.116 1245.036,340.116 1304.516,204.227 1166.002,204.227 1192.503,143.356 
	1341.898,143.356 1373.939,69.625 1137.829,69.625 1047.507,278.84 1184.613,278.84 1155.989,340.116 845.591,340.116 
	873.153,278.84 938.936,278.84 970.956,204.227 891.936,204.227 918.437,143.356 1063.179,143.356 1096.259,69.625 862.046,69.625 
	758.484,299.636 742.631,299.636 742.631,59.326 599.019,219.533 599.019,49.027 262.993,404.674 "/>
<g>
	<g>
		
			<linearGradient id="SVGID_1_" gradientUnits="userSpaceOnUse" x1="921.6953" y1="54.2866" x2="921.6953" y2="211.8199" gradientTransform="matrix(1 0 0 1 -7 0)">
			<stop  offset="0" style="stop-color:#FFFFFF"/>
			<stop  offset="0.7909" style="stop-color:#FFA102"/>
		</linearGradient>
		<path fill="url(#SVGID_1_)" d="M852.921,87.534c66.592-5.182,146.623,8.831,212.502,53.187l31.897-71.096H860.985L852.921,87.534z
			 M1412.168,69.625l-17.37,39.711c69.873-7.504,164.834-8.357,222.567,27.529l29.221-67.24H1412.168z M1104.445,143.519
			c107.86,0.172,145.137-5.329,208.041-20.736c8.031-1.967,23.235-5.135,42.997-8.247L1375,69.625h-238.232L1104.445,143.519z
			 M600.079,100.285V49.027l-51.871,55.206C564.931,101.094,581.504,98.868,600.079,100.285z M720.512,151.075
			c3.55-10.763,11.608-20.671,23.18-29.33V59.326l-61.2,68.271C694.215,134.004,706.828,141.753,720.512,151.075z"/>
	</g>
</g>
</svg>
