<?xml version="1.0" encoding="utf-8"?>
<!-- Generator: Adobe Illustrator 16.0.0, SVG Export Plug-In . SVG Version: 6.00 Build 0)  -->
<!DOCTYPE svg PUBLIC "-//W3C//DTD SVG 1.1//EN" "http://www.w3.org/Graphics/SVG/1.1/DTD/svg11.dtd">
<svg version="1.1" id="Ebene_1" xmlns="http://www.w3.org/2000/svg" xmlns:xlink="http://www.w3.org/1999/xlink" x="0px" y="0px"
	 width="285.603px" height="85.79px" viewBox="26.858 0 285.603 85.79" enable-background="new 26.858 0 285.603 85.79"
	 xml:space="preserve">
<g>
	<path fill="#D61616" d="M277.234,70.452H62.086c-19.423,0-35.228-15.804-35.228-35.228S42.665,0,62.086,0h215.146
		c19.426,0,35.229,15.802,35.229,35.226C312.461,54.648,296.66,70.452,277.234,70.452z M62.086,8.333
		c-14.829,0-26.895,12.063-26.895,26.895c0,14.829,12.064,26.895,26.895,26.895h215.146c14.826,0,26.896-12.064,26.896-26.895
		c0-14.83-12.067-26.895-26.896-26.895H62.086z"/>
	<path fill="#D61616" d="M89.718,51.563V19.047H79.94v22.735L65.516,19.047H55.004v32.516h9.779v-23.47l15.154,23.47H89.718z"/>
	<path fill="#D61616" d="M105.61,51.563V29.56h-9.778v22.002H105.61z"/>
	<path fill="#D61616" d="M105.61,24.914v-5.867h-9.778v5.867H105.61z"/>
	<path id="_x33_162" fill="#D61616" d="M139.834,51.563v-15.16c0-3.178-6.112-7.577-9.289-7.577h-2.935
		c-2.199,0-4.646,1.956-6.846,2.934v-2.2h-9.778v22.002h9.778v-15.16c0-1.467,3.422-3.178,4.891-3.178
		c1.467,0,4.154,1.711,4.154,3.178v15.158L139.834,51.563L139.834,51.563z"/>
	<path id="_x33_162_1_" fill="#D61616" d="M221.655,52.318V37.162c0-3.18-6.109-7.578-9.294-7.578h-2.932
		c-2.201,0-4.646,1.956-6.849,2.933v-2.199h-9.776V52.32h9.776V37.162c0-1.467,3.425-3.18,4.892-3.18s4.154,1.713,4.154,3.18v15.156
		H221.655L221.655,52.318z"/>
	<path fill="#D61616" d="M155.725,51.563V29.56h5.135v-2.934h-5.135V21.98h-10.021v4.646h-5.135v2.934h5.135v22.002H155.725z"/>
	<path fill="#D61616" d="M174.549,28.826c-7.822,0-14.423,5.378-14.423,11.979c0,6.845,6.601,12.222,14.423,12.222
		c6.846,0,12.469-3.909,13.936-9.045h-10.021v2.936c0,2.443-1.709,3.18-3.909,3.18c-2.199,0-3.669-0.733-3.669-3.18v-6.111h18.095
		C188.975,34.205,182.619,28.826,174.549,28.826z M174.549,31.026c2.201,0,3.912,1.468,3.912,3.912v2.199h-7.578v-2.199
		C170.883,32.493,172.35,31.026,174.549,31.026z"/>
	<path fill="#D61616" d="M270.875,28.826c-8.07,0-14.427,5.378-14.427,11.979c0,6.845,6.354,12.222,14.427,12.222
		c7.816,0,14.422-5.377,14.422-12.222C285.293,34.205,278.693,28.826,270.875,28.826z M270.875,31.026
		c2.193,0,3.666,1.468,3.666,3.912v11.979c0,2.442-1.473,3.179-3.666,3.179c-2.445,0-3.914-0.734-3.914-3.179V34.938
		C266.959,32.493,268.428,31.026,270.875,31.026z"/>
	<path fill="#D61616" d="M242.758,19.047v11.979c0,0-2.938-2.199-6.849-2.199c-6.11,0-11.244,5.378-11.244,11.246
		c0,6.11,5.136,12.224,11.244,12.224c3.911,0,6.849-1.467,6.849-1.467v0.73h9.778V19.047H242.758z M239.09,32.493
		c2.198,0,3.668,1.712,3.668,3.912v9.045c0,2.2-1.47,2.934-3.668,2.934c-2.443,0-3.912-0.731-3.912-2.934v-9.045
		C235.178,34.205,236.646,32.493,239.09,32.493z"/>
	<g>
		<path fill="#D61616" d="M286.516,29.216c-2.772,0-5.035-2.258-5.035-5.035c0-2.959,2.213-5.28,5.035-5.28
			c2.729,0,5.037,2.417,5.037,5.28C291.553,26.862,289.203,29.216,286.516,29.216z M286.516,19.683c-2.426,0-4.252,1.935-4.252,4.5
			c0,2.344,1.908,4.254,4.252,4.254c2.229,0,4.254-2.027,4.254-4.254C290.77,21.784,288.787,19.683,286.516,19.683z M287.4,26.33
			l-0.862-1.516h-1.097v1.321h-0.778V21.59h2.104c0.979,0,1.487,0.813,1.487,1.613c0,0.614-0.303,1.237-0.885,1.491l0.711,1.248
			L287.4,26.33z M285.441,24.036h1.32c0.221,0,0.396-0.079,0.521-0.235c0.119-0.149,0.188-0.368,0.188-0.597
			c0-0.312-0.15-0.832-0.709-0.832h-1.32V24.036L285.441,24.036z"/>
	</g>
</g>
<g>
	<path fill="#999999" d="M48.071,85.789h-9.103c-2.601,0-3.901-1.301-3.901-3.9v-7.804h13.004v2.603H37.667v1.949H48.07v2.602
		H37.667v0.65c0,0.866,0.434,1.301,1.301,1.301h9.103V85.789z"/>
	<path fill="#999999" d="M49.372,85.789V74.085h9.103c2.601,0,3.901,1.301,3.901,3.901v7.803h-2.601v-7.803
		c0-0.866-0.434-1.301-1.3-1.301h-6.502v9.104H49.372z"/>
	<path fill="#999999" d="M63.676,74.085H76.68v2.603h-5.202v9.103h-2.601v-9.103h-5.202L63.676,74.085L63.676,74.085z"/>
	<path fill="#999999" d="M90.984,85.789h-9.103c-2.601,0-3.901-1.301-3.901-3.9v-7.804h13.004v2.603H80.581v1.949h10.403v2.602
		H80.581v0.65c0,0.866,0.434,1.301,1.301,1.301h9.103L90.984,85.789L90.984,85.789z"/>
	<path fill="#999999" d="M94.886,81.238v4.552h-2.601V74.085h9.103c2.601,0,3.901,1.188,3.901,3.563
		c0,1.127-0.187,1.955-0.559,2.482c0.373,0.616,0.559,1.418,0.559,2.406v3.251h-2.601v-3.251c0-0.867-0.434-1.301-1.3-1.301h-6.502
		V81.238z M94.886,78.637h7.803v-1.949h-7.803V78.637z"/>
	<path fill="#999999" d="M106.589,74.085h13.004v2.603h-5.202v9.103h-2.601v-9.103h-5.202L106.589,74.085L106.589,74.085z"/>
	<path fill="#999999" d="M123.495,82.538v3.251h-2.601v-7.803c0-2.602,1.3-3.901,3.901-3.901h5.202c2.601,0,3.901,1.301,3.901,3.901
		v7.803h-2.601v-3.251H123.495z M131.297,79.938v-1.951c0-0.865-0.434-1.299-1.3-1.299h-5.202c-0.867,0-1.301,0.434-1.301,1.299
		v1.951H131.297z"/>
	<path fill="#999999" d="M135.199,85.789V74.085h2.601v11.704H135.199z"/>
	<path fill="#999999" d="M139.1,85.789V74.085h9.103c2.602,0,3.9,1.301,3.9,3.901v7.803h-2.601v-7.803
		c0-0.866-0.435-1.301-1.3-1.301h-6.502v9.104H139.1z"/>
	<path fill="#999999" d="M153.404,85.789V74.085h10.402c2.603,0,3.901,1.301,3.901,3.901v7.803h-2.601v-7.803
		c0-0.866-0.435-1.301-1.301-1.301h-1.951v9.104h-2.601v-9.104h-3.251v9.104H153.404z"/>
	<path fill="#999999" d="M182.014,85.789h-9.104c-2.602,0-3.901-1.301-3.901-3.9v-7.804h13.005v2.603h-10.404v1.949h10.404v2.602
		h-10.404v0.65c0,0.866,0.435,1.301,1.302,1.301h9.103V85.789L182.014,85.789z"/>
	<path fill="#999999" d="M183.314,85.789V74.085h9.103c2.603,0,3.901,1.301,3.901,3.901v7.803h-2.602v-7.803
		c0-0.866-0.434-1.301-1.301-1.301h-6.502v9.104H183.314z"/>
	<path fill="#999999" d="M197.619,74.085h13.004v2.603h-5.201v9.103h-2.602v-9.103h-5.201V74.085z"/>
	<path fill="#999999" d="M217.125,83.189h10.402v-1.951h-6.502c-2.601,0-3.9-1.176-3.9-3.523c0-2.419,1.301-3.629,3.9-3.629h9.104
		v2.602h-10.402v1.951h6.502c2.602,0,3.9,1.191,3.9,3.575s-1.3,3.576-3.9,3.576h-9.104V83.189z"/>
	<path fill="#999999" d="M236.63,81.238h-1.3c-2.602,0-3.9-1.301-3.9-3.901v-3.251h2.601v3.251c0,0.867,0.434,1.302,1.301,1.302
		h5.201c0.866,0,1.301-0.435,1.301-1.302v-3.251h2.601v3.251c0,2.603-1.3,3.901-3.9,3.901h-1.301v4.552h-2.602L236.63,81.238
		L236.63,81.238z"/>
	<path fill="#999999" d="M245.734,83.189h10.402v-1.951h-6.502c-2.601,0-3.9-1.176-3.9-3.523c0-2.419,1.301-3.629,3.9-3.629h9.104
		v2.602h-10.403v1.951h6.502c2.603,0,3.901,1.191,3.901,3.575s-1.301,3.576-3.901,3.576h-9.103V83.189z"/>
	<path fill="#999999" d="M260.039,74.085h13.004v2.603h-5.201v9.103h-2.602v-9.103h-5.201V74.085L260.039,74.085z"/>
	<path fill="#999999" d="M287.346,85.789h-9.103c-2.601,0-3.901-1.301-3.901-3.9v-7.804h13.004v2.603h-10.402v1.949h10.402v2.602
		h-10.402v0.65c0,0.866,0.434,1.301,1.301,1.301h9.104v2.6H287.346z"/>
	<path fill="#999999" d="M288.646,85.789V74.085h10.403c2.601,0,3.901,1.301,3.901,3.901v7.803h-2.602v-7.803
		c0-0.866-0.434-1.301-1.301-1.301H297.1v9.104h-2.603v-9.104h-3.251v9.104H288.646z"/>
</g>
</svg>
