<?xml version="1.0" encoding="utf-8"?>
<!-- Generator: Adobe Illustrator 16.0.0, SVG Export Plug-In . SVG Version: 6.00 Build 0)  -->
<!DOCTYPE svg PUBLIC "-//W3C//DTD SVG 1.1//EN" "http://www.w3.org/Graphics/SVG/1.1/DTD/svg11.dtd">
<svg version="1.1" id="Layer_2" xmlns="http://www.w3.org/2000/svg" xmlns:xlink="http://www.w3.org/1999/xlink" x="0px" y="0px"
	 width="472.247px" height="105.726px" viewBox="58.151 5.167 472.247 105.726"
	 enable-background="new 58.151 5.167 472.247 105.726" xml:space="preserve">
<path d="M58.2,42.874c-0.475-9.773,2.562-15.749,7.685-17.932c5.124-2.183,18.975-3.227,30.455-1.804s29.223,6.452,31.404,24.383
	c3.511-1.896,13.757-4.744,21.537-4.269c7.779,0.475,16.413,3.984,19.639,8.633c7.305-7.4,27.229-9.866,34.724-3.604
	c-1.707-12.524,9.013-19.261,17.173-18.597c8.159,0.664,16.224,4.744,16.508,18.121c5.978-5.502,13.094-4.079,15.75-4.079
	c-0.569-13.377,4.555-21.442,14.516-21.252c9.963,0.19,17.268,6.926,17.078,20.208c4.934-1.139,12.524-0.664,14.516,2.751
	c5.124-4.08,20.684-6.167,25.807,4.08c10.627-10.721,26.186-7.399,31.213-3.604c-0.854-12.81,6.737-22.202,21.729-18.313
	c-0.76-10.247,7.59-16.128,15.561-14.23c7.969,1.896,12.854,10.104,27.893,39.563c0.096-32.353-0.473-36.716,2.184-41.271
	c2.654-4.555,9.201-6.831,14.42-6.451c5.219,0.379,12.619,3.983,12.902,12.144c7.354-8.539,19.023,3.842,31.975,19.497
	c6.262-24.383,14.42-31.261,22.104-30.691c7.688,0.568,10.912,5.598,13.283,15.844c2.373,10.246,10.152,51.896,11.576,59.582
	c1.422,7.685,0.473,15.086-6.264,17.078c-6.734,1.991-20.111,3.699-25.615-8.539c-0.854,1.044-7.115,3.226-11.48,2.183
	c-0.188,9.962-7.307,16.413-13.377,16.792c-6.072,0.38-16.225,0.761-19.068-12.712c-2.846-13.473-4.271-20.02-4.365-20.399
	c-1.896,12.998-2.42,27.04-11.338,31.879s-17.408,5.123-26.611-8.537c-9.203-13.663-23.529-41.938-23.814-42.602
	c-0.854,1.043-0.854,2.656-0.854,6.072s0.096,17.362,1.043,28.178c0.949,10.816-3.699,16.698-8.918,17.362
	c-5.219,0.665-11.67,0.285-14.896-2.087c-3.7,2.562-12.618,4.459-16.128,1.138c-2.941,1.424-12.43,4.744-22.771-2.655
	c-1.139-0.948-3.131-1.327-4.934,0.76c-1.803,2.088-10.531,5.028-16.697,0.948c-2.089,0.76-9.015,3.984-15.466-0.284
	c-6.451-4.27-7.874-4.175-8.918-3.132c-1.044,1.044-6.452,5.502-12.714,5.028s-5.502-1.328-8.442,0
	c-2.942,1.328-10.343,2.277-19.45-2.941c-2.088-1.138-5.029-2.654-6.926-0.854c-1.897,1.803-5.313,4.269-10.911,4.269
	s-9.962-1.517-11.385-2.654c-1.423-1.14-3.511-1.613-7.59-0.096c-4.08,1.519-15.56,3.984-23.34,0.569
	c-7.78-3.416-11.385-5.504-11.955-6.263c-3.794,3.036-13.946,7.496-20.778,8.35c-6.831,0.854-15.844-1.613-18.975-4.839
	c-4.27,3.511-4.838,4.554-11.575,4.648c-6.737,0.094-17.647,1.139-21.252-5.883c-0.854-1.232-2.277-0.189-2.656,0.948
	c-0.38,1.14-2.562,4.271-8.729,4.648c-6.167,0.38-24.572,1.898-24.383-10.34c0.19-12.239,1.138-24.952,1.233-32.924
	C59.624,56.727,58.674,52.551,58.2,42.874z"/>
<g>
	<g>
		<path fill="#DBBD3B" d="M110.903,77.172c-3.131-4.412,1.85-7.686,6.831-12.381c4.98-4.697,5.977-19.497-3.558-26.755
			c-9.535-7.259-31.024-8.397-39.421-7.4c-8.396,0.996-8.396,6.689-7.685,14.089c0.712,7.4,0.657,20.912-0.285,50.094
			c-0.285,8.823,5.266,6.975,11.243,7.116c5.977,0.143,7.542-1.565,7.685-5.55c0.142-3.985,1.281-9.82,5.55-10.104
			c4.269-0.285,6.689,5.406,8.823,10.673c2.135,5.266,5.266,4.98,17.505,4.554C129.831,101.08,114.034,81.583,110.903,77.172z
			 M91.691,65.218c-7.685-0.285-7.827-6.405-7.685-8.824c0.142-2.419,2.704-8.823,7.116-8.681c4.27,0,6.974,1.281,8.396,5.692
			C100.941,57.817,99.376,65.502,91.691,65.218z"/>
	</g>
</g>
<g>
	<g>
		<path fill="#DBBD3B" d="M163.559,84.003c-2.277-3.56-8.112-1.708-16.224,1.281c-3.843,1.279-5.978,1.991-6.832,0.427
			c-0.853-1.565,3.558-3.273,10.105-5.268c6.546-1.991,13.662-5.834,14.374-11.952c0.711-6.12-5.265-14.374-19.924-14.943
			c-14.658-0.569-20.778,11.527-23.055,18.216c-2.276,6.688,0.427,19.64,8.54,25.617c8.112,5.977,17.931,3.415,27.039-1.139
			C166.69,91.688,165.836,87.561,163.559,84.003z M138.37,73.045c-2.277-3.842,0-7.4,2.703-9.108
			c2.704-1.708,7.828-1.423,9.251,1.565c1.422,2.989,0,6.547-3.131,7.97C144.062,74.895,139.508,74.895,138.37,73.045z"/>
	</g>
</g>
<path fill="#DBBD3B" d="M195.438,69.061c4.82,3.687,10.531,4.555,11.955,2.419c1.423-2.135,2.846-7.97-2.135-11.955
	c-4.98-3.984-15.369-5.977-23.909-3.131c-8.539,2.848-12.523,10.104-10.815,16.082c1.707,5.978,10.962,8.671,13.946,10.104
	c3.558,1.707,5.124,2.987,4.27,4.27c-0.854,1.28-4.127-0.285-7.259-1.708c-3.13-1.424-8.112-3.7-10.104-0.996
	c-1.992,2.704-3.7,8.538,3.415,12.666c7.116,4.126,16.793,5.978,25.048,2.276c8.254-3.7,9.108-10.674,7.257-15.37
	c-1.85-4.696-8.254-7.826-12.239-10.246c-3.984-2.42-7.116-3.416-6.404-5.123C189.176,66.641,193.018,67.21,195.438,69.061z"/>
<path fill="#DBBD3B" d="M213.226,65.645c-0.854-3.272,1.851-7.828,6.832-8.255c4.98-0.427,8.823,3.131,8.538,7.116
	c-0.284,3.985-1.85,12.809-1.85,18.643c0,5.835,1.708,10.816,1.565,13.806c-0.143,2.988-3.559,5.407-7.97,5.407
	c-4.412,0-7.97-0.143-8.254-5.691c-0.285-5.551,1.281-14.089,1.565-18.786C213.938,73.187,213.369,68.491,213.226,65.645z"/>
<ellipse fill="#DBBD3B" cx="221.125" cy="45.863" rx="8.752" ry="8.112"/>
<g>
	<g>
		<path fill="#DBBD3B" d="M274.279,71.764c0.143-8.823,2.135-21.632,2.135-30.74c0-9.107-4.98-10.673-9.393-10.247
			c-4.412,0.428-5.551,5.408-4.696,11.813c0,9.82-2.419,8.396-5.266,8.539c-19.497,1.281-22.913,11.669-25.331,20.92
			c-2.42,9.25,0.853,18.073,6.403,24.336c5.55,6.261,21.063,5.977,22.201,4.695c1.138-1.281,2.419-3.131,4.127-1.14
			c1.708,1.993,5.266,2.277,7.827,0.712c2.561-1.564,3.7-5.691,2.846-8.396C274.279,89.553,274.136,80.587,274.279,71.764z
			 M252.363,85.426c-4.087,0-7.4-4.078-7.4-9.107c0-5.03,3.313-9.107,7.4-9.107c4.087,0,7.4,4.077,7.4,9.107
			C259.763,81.348,256.45,85.426,252.363,85.426z"/>
	</g>
</g>
<path fill="#DBBD3B" d="M279.403,84.146c0.284-21.488,0.284-21.063,0.284-23.767c0-2.705,4.411-7.827,8.822-8.254
	c4.412-0.427,8.539-0.854,8.539,5.691c0,6.547-0.284,19.355-0.284,21.774c0,2.42,4.127,5.835,4.554,0.284
	c0.428-5.55,0.428-18.927,0.568-22.627c0.145-3.7,3.843-5.266,7.686-5.408c3.844-0.142,9.393,1.423,8.396,7.827
	c-0.996,6.403-0.996,12.666-0.996,18.073s1.992,12.809,1.564,17.506c-0.427,4.694-3.699,6.973-7.115,6.83s-5.834-1.992-7.114-2.419
	c-1.281-0.428-8.966,4.839-16.081,0.142C281.11,95.104,279.118,89.268,279.403,84.146z"/>
<g>
	<g>
		<path fill="#DBBD3B" d="M360.378,88.557c-1.521-9.115-0.854-15.085-0.285-21.631c0.568-6.547-2.277-10.675-8.254-12.951
			c-5.979-2.276-18.358-0.142-22.771,5.267c-4.41,5.407-7.542,16.082-6.688,22.771c0.854,6.688,1.281,15.37,12.238,19.069
			c10.959,3.7,11.955-2.419,14.373-2.563c2.42-0.143,3.7,3.131,6.547,3.273c2.846,0.143,5.979-2.848,6.688-5.835
			C362.94,92.969,360.805,91.118,360.378,88.557z M342.02,85.995c-3.853,0-6.974-4.175-6.974-9.321c0-5.148,3.121-9.321,6.974-9.321
			c3.851,0,6.974,4.173,6.974,9.321S345.871,85.995,342.02,85.995z"/>
	</g>
</g>
<path fill="#9A5F1B" d="M385.853,30.493c-3.132-8.824,8.396-17.221,13.805-5.979c5.406,11.243,21.346,41.699,23.623,45.115
	c2.277,3.415,4.98,2.987,4.555-4.555c-0.428-7.543,0.426-43.265,0.426-46.537c0-3.273,3.131-7.686,8.684-7.827
	c5.549-0.144,8.682,3.272,7.969,11.385c-0.711,8.112-2.135,54.222-2.846,65.893c-0.713,11.669-14.518,25.758-25.477,6.261
	C405.634,74.753,388.414,36.613,385.853,30.493z"/>
<path fill="#9A5F1B" d="M450.605,34.763c-1.139-9.678,2.42-13.378,6.119-13.805s17.504,14.374,25.189,27.182
	c4.412,6.404,5.549,8.396,6.83-1.708c1.281-10.104,5.691-24.051,7.828-28.463c2.135-4.412,12.238-10.389,14.516,2.846
	c2.277,13.236,11.813,50.665,12.809,57.21c0.996,6.548,2.277,13.235-2.135,14.802c-4.412,1.565-11.67,3.984-13.805-5.123
	c-2.135-9.108-4.555-32.875-5.408-34.583s-2.135-0.711-2.561,3.699c-0.43,4.412-1.994,20.778-2.564,23.909
	s-7.684,10.246-13.377-0.568c-5.691-10.815-10.957-19.781-12.236-21.205c-1.281-1.423-1.852,0.854-1.424,3.984
	c0.426,3.131,3.559,16.081,6.545,23.197c2.99,7.115,2.705,15.654-3.271,17.22c-5.979,1.565-10.389,2.136-13.234-13.521
	C457.578,74.184,451.601,43.017,450.605,34.763z"/>
<path fill="#DBBD3B" d="M364.173,40.313c0-4.648,2.75-7.306,7.209-7.211c4.461,0.097,11.293,0.476,10.912,6.927
	s-1.233,30.266-1.043,39.279c0.188,9.015,0.379,15.37,0.379,17.837c0,2.466-2.088,4.174-6.641,4.174
	c-4.555,0-9.109,1.328-9.584-4.839c-0.475-6.166,0.285-23.813,0.285-31.023C365.692,58.244,364.08,44.771,364.173,40.313z"/>
<path fill="#FFF8B6" d="M68.431,52.027c-0.731-7.157-0.649-13.542,0.812-16.153c1.46-2.612,5.112-5.61,16.556-4.354
	c11.444,1.257,20.127,2.708,28.162,6.771c-11.281-3.771-29.542-4.934-36.197-4.354C71.109,34.519,68.918,36.357,68.431,52.027z"/>
<path fill="#F9D84B" d="M100.538,57.343c-0.782,4.412-2.134,7.258-5.337,8.254c-3.202,0.996-8.183-0.214-9.606-1.779
	c2.206,3.061,7.756,3.346,11.101,2.419C100.041,65.312,100.396,58.837,100.538,57.343z"/>
<path fill="#FFF8B6" d="M123.806,69.156c5.479-9.465,9.251-12.453,13.52-13.877c4.27-1.422,8.112-1.422,15.725,0.215
	c-8.254-0.641-14.942,0.142-18.216,2.206C131.563,59.762,125.229,67.02,123.806,69.156z"/>
<path fill="#FFF8B6" d="M151.344,69.368c-0.854,3.131-4.625,6.973-12.239,5.052C146.007,77.978,151.202,73.922,151.344,69.368z"/>
<path fill="#FFF8B6" d="M140.813,86.801c0.925,0.854,3.273,0.569,6.119-0.498c2.847-1.067,8.396-3.628,11.813-3.416
	c-2.704,0.285-4.057,1.21-6.262,2.136C150.277,85.948,144.157,89.365,140.813,86.801z"/>
<path fill="#FFF8B6" d="M171.126,69.012c1.637-9.463,11.385-13.875,21.276-13.235C185.357,55.35,173.829,60.26,171.126,69.012z"/>
<path fill="#FFF8B6" d="M170.201,89.79c0.783-4.483,2.064-7.971,8.041-5.408C175.252,83.315,171.695,84.168,170.201,89.79z"/>
<path fill="#FFF8B6" d="M223.852,58.552c-3.201-1.566-10.887,0.356-9.819,8.681C214.673,59.762,220.367,57.556,223.852,58.552z"/>
<path fill="#FFF8B6" d="M212.965,47.096c-0.07-4.483,4.198-10.815,11.741-7.827C219.228,37.775,213.393,41.688,212.965,47.096z"/>
<path fill="#FFF8B6" d="M233.458,68.656c6.334-13.52,11.67-16.225,24.977-16.865C246.125,53.287,238.654,59.264,233.458,68.656z"/>
<path fill="#FFF8B6" d="M247.761,84.097c4.697,4.341,10.887,1.139,12.097-4.197C259.004,87.94,250.608,88.794,247.761,84.097z"/>
<path fill="#FFF8B6" d="M269.464,31.512c-2.562-0.569-6.404,0.854-6.476,7.543C263.985,33.22,267.044,31.726,269.464,31.512z"/>
<path fill="#FFF8B6" d="M280.351,65.668c0.428-10.673,5.052-12.738,10.959-12.88C285.759,53.215,281.277,57.129,280.351,65.668z"/>
<path fill="#FFF8B6" d="M297.572,82.817c1.85,1.707,4.482,1.14,4.838-4.909C302.908,84.595,299.279,85.948,297.572,82.817z"/>
<path fill="#FFF8B6" d="M302.481,60.26c0-6.261,3.558-7.969,6.831-7.685C306.251,52.86,302.908,55.848,302.481,60.26z"/>
<path fill="#FFF8B6" d="M324.326,70.507c4.697-11.528,8.824-15.797,21.489-16.651C337.845,55.065,331.228,57.414,324.326,70.507z"/>
<path fill="#FFF8B6" d="M336.992,84.382c3.487,3.345,9.393,3.486,11.741-2.49C347.951,87.442,341.759,90.004,336.992,84.382z"/>
<path fill="#FFF8B6" d="M365.027,45.459c-0.212-7.472,0.285-12.666,9.893-11.456C370.151,33.719,365.382,34.501,365.027,45.459z"/>
<path fill="#E08A34" d="M386.232,27.385c0.428-5.408,4.839-9.393,10.389-6.12C392.779,19.986,388.296,20.839,386.232,27.385z"/>
<path fill="#E08A34" d="M428.572,24.255c0.354-8.468,2.773-12.381,8.039-12.808C432.056,12.443,429.283,18.206,428.572,24.255z"/>
<path fill="#E08A34" d="M451.484,28.24c1.922-5.978,4.695-8.396,9.961-3.345C456.724,20.958,453.832,23.116,451.484,28.24z"/>
<path fill="#E08A34" d="M490.904,38.273c5.621-19.354,6.902-22.059,10.318-23.694c3.414-1.638,6.402,0.711,6.402,0.711
	c-3.201-1.565-6.617-0.569-8.68,2.917C496.88,21.693,491.259,36.849,490.904,38.273z"/>
<path fill="#E08A34" d="M484.855,53.784c1.707,1.067,3.559,0.711,4.697-5.551C488.912,53.429,488.626,56.417,484.855,53.784z"/>
<path fill="#E08A34" d="M423.234,71.288c2.988,2.276,5.338,2.207,5.764-6.19C430.136,74.278,426.435,75.202,423.234,71.288z"/>
</svg>
