<?xml version="1.0" encoding="utf-8"?>
<!-- Generator: Adobe Illustrator 16.0.0, SVG Export Plug-In . SVG Version: 6.00 Build 0)  -->
<!DOCTYPE svg PUBLIC "-//W3C//DTD SVG 1.1//EN" "http://www.w3.org/Graphics/SVG/1.1/DTD/svg11.dtd">
<svg version="1.1" id="Ebene_1" xmlns="http://www.w3.org/2000/svg" xmlns:xlink="http://www.w3.org/1999/xlink" x="0px" y="0px"
	 width="569.927px" height="126.416px" viewBox="-1.503 -1.506 569.927 126.416"
	 enable-background="new -1.503 -1.506 569.927 126.416" xml:space="preserve">
<g>
	<g id="_x23_ffffffff">
		<g>
			
				<linearGradient id="SVGID_1_" gradientUnits="userSpaceOnUse" x1="-345.7739" y1="377.624" x2="-345.7739" y2="247.623" gradientTransform="matrix(1 0 0 -1 564 375)">
				<stop  offset="0.0051" style="stop-color:#FF6F0D"/>
				<stop  offset="0.3807" style="stop-color:#FF0000"/>
				<stop  offset="1" style="stop-color:#A80000"/>
			</linearGradient>
			<path fill="url(#SVGID_1_)" d="M207.014,5.277c4.724-6.043,14.501-7.076,20.297-2.006c2.37,1.996,4.031,4.75,4.88,7.715
				c10.73,36.92,21.508,73.823,32.223,110.747c-6.332,0.006-12.667-0.013-18.999,0.006c-2.987-10.18-5.903-20.377-8.852-30.565
				c-12.246-0.024-24.485-0.006-36.73-0.012c-2.998,10.184-5.958,20.379-8.901,30.582c-6.298-0.021-12.596-0.005-18.895-0.011
				c10.194-35.222,20.4-70.438,30.643-105.647C203.898,12.404,204.358,8.287,207.014,5.277 M218.193,27.902
				c-4.49,15.295-8.889,30.619-13.354,45.922c8.9,0.043,17.796,0.016,26.692,0.016C227.078,58.527,222.647,43.215,218.193,27.902z"
				/>
			<path fill="#470000" d="M190.926,123.24c-2.73-0.012-5.46-0.014-8.193-0.012l0,0c-2.436-0.002-4.87-0.002-7.304-0.002l0,0
				c-1.131,0-2.262,0.002-3.389,0.002l0,0l-2.001,0.004l0.558-1.92c10.193-35.221,20.399-70.438,30.659-105.701l0,0
				c1.174-3.433,1.591-7.781,4.585-11.272l0,0c3.019-3.839,7.757-5.809,12.455-5.813l0,0c3.579,0,7.188,1.152,9.98,3.596l0,0
				c2.626,2.214,4.433,5.226,5.355,8.443l0,0c10.73,36.919,21.508,73.819,32.223,110.745l0,0l0.557,1.918h-1.997
				c-0.984,0-1.964,0-2.948,0l0,0c-3.103,0-6.206-0.004-9.307-0.004l0,0c-2.25,0-4.495,0.002-6.738,0.012l0,0l-1.129,0.004
				l-0.317-1.081c-2.884-9.827-5.7-19.665-8.542-29.491l0,0c-4.855-0.009-9.708-0.013-14.562-0.011l0,0
				c-5.156-0.002-10.31-0.002-15.465,0l0,0c-1.485-0.001-2.969,0-4.453,0.001l0,0c-2.887,9.822-5.743,19.656-8.581,29.499l0,0
				l-0.315,1.087L190.926,123.24L190.926,123.24z M182.733,120.229c2.357,0,4.714,0.004,7.071,0.011l0,0
				c2.84-9.845,5.696-19.679,8.589-29.503l0,0l0.317-1.075h1.121c1.858-0.004,3.718-0.004,5.576-0.004l0,0c5.156,0,10.31,0,15.465,0
				l0,0c5.229,0,10.461,0.004,15.693,0.015l0,0l1.125,0.002l0.313,1.081c2.845,9.83,5.658,19.665,8.534,29.479l0,0
				c1.874-0.008,3.749-0.008,5.622-0.008l0,0c3.103,0.002,6.206,0.006,9.307,0.006l0,0c0.316,0,0.633,0,0.949,0l0,0
				c-10.53-36.283-21.123-72.546-31.667-108.833l0,0c-0.774-2.708-2.291-5.204-4.426-7l0,0c-2.196-1.924-5.082-2.871-8.027-2.871
				l0,0c-3.874-0.004-7.753,1.655-10.101,4.671l0,0l-1.173-0.917l1.117,0.985c-2.274,2.521-2.78,6.378-4.019,10.235l0,0
				c-10.057,34.568-20.078,69.146-30.087,103.726l0,0c0.465,0,0.93,0,1.396,0l0,0C177.863,120.229,180.297,120.229,182.733,120.229
				L182.733,120.229z M204.832,75.323l-1.991-0.013l0.557-1.908c4.464-15.298,8.864-30.624,13.354-45.923l0,0l1.446-4.924
				l1.434,4.926c4.456,15.314,8.887,30.626,13.34,45.938l0,0l0.557,1.92h-1.999c-4.98-0.002-9.961,0.007-14.946,0.007l0,0
				C212.667,75.348,208.75,75.342,204.832,75.323L204.832,75.323z M216.584,72.348c4.314,0,8.631-0.007,12.948-0.009l0,0
				c-3.788-13.028-7.56-26.055-11.345-39.083l0,0c-3.805,13.015-7.555,26.05-11.351,39.076l0,0
				C210.085,72.344,213.333,72.348,216.584,72.348L216.584,72.348z M216.752,28.321l1.44-0.418L216.752,28.321L216.752,28.321z"/>
		</g>
		<g>
			
				<linearGradient id="SVGID_2_" gradientUnits="userSpaceOnUse" x1="-211.7935" y1="377.624" x2="-211.7935" y2="247.623" gradientTransform="matrix(1 0 0 -1 564 375)">
				<stop  offset="0.0051" style="stop-color:#FF6F0D"/>
				<stop  offset="0.3807" style="stop-color:#FF0000"/>
				<stop  offset="1" style="stop-color:#A80000"/>
			</linearGradient>
			<path fill="url(#SVGID_2_)" d="M340.411,6.072c3.301-4.787,9.681-7.109,15.296-5.631c5.143,1.184,9.075,5.615,10.434,10.604
				c10.721,36.893,21.478,73.771,32.194,110.666c-6.342,0.049-12.679,0-19.021,0.023c-2.948-10.188-5.864-20.387-8.834-30.574
				c-12.227,0.006-24.447-0.021-36.672,0.01c-2.923,10.195-5.936,20.367-8.855,30.563c-6.293,0.007-12.581-0.006-18.874,0.007
				c10.188-35.414,20.497-70.797,30.769-106.188C337.923,12.357,338.339,8.834,340.411,6.072 M338.868,73.84
				c8.862,0.014,17.722,0.008,26.584,0.008c-4.409-15.348-8.89-30.672-13.284-46.016C347.742,43.17,343.273,58.494,338.868,73.84z"
				/>
			<path fill="#470000" d="M377.873,122.15c-2.848-9.83-5.659-19.668-8.52-29.492l0,0c-0.929,0-1.857,0-2.785,0l0,0
				c-6.264,0-12.522-0.01-18.782-0.006l0,0c-4.282-0.002-8.565,0-12.849,0.013l0,0c-2.826,9.84-5.729,19.653-8.545,29.479l0,0
				l-0.311,1.086l-1.129,0.002c-1.428,0-2.854,0-4.28,0l0,0c-2.544,0-5.086-0.004-7.628-0.004l0,0c-2.32,0-4.645,0.002-6.964,0.01
				l0,0l-1.998,0.002l0.553-1.916c10.188-35.418,20.499-70.802,30.787-106.251l0,0c1.029-2.962,1.414-6.658,3.751-9.852l0,0l0,0
				c2.953-4.266,7.984-6.714,13.072-6.723l0,0c1.284,0,2.575,0.157,3.795,0.48l0,0c5.792,1.357,10.05,6.213,11.537,11.647l0,0
				c10.722,36.892,21.477,73.771,32.196,110.666l0,0l0.552,1.902l-1.982,0.016c-2.348,0.02-4.695,0.021-7.037,0.021l0,0
				c-2.566,0-5.127-0.008-7.686-0.008l0,0c-1.436,0-2.869,0.002-4.3,0.012l0,0l-1.136,0.006L377.873,122.15L377.873,122.15z
				 M320.674,120.234c1.051,0,2.1,0,3.147,0l0,0c2.825-9.842,5.729-19.653,8.544-29.48l0,0l0.311-1.082l1.129-0.002
				c4.659-0.015,9.321-0.021,13.981-0.021l0,0c6.262,0,12.522,0.009,18.782,0.012l0,0c1.305-0.003,2.606,0,3.91,0l0,0h1.127
				l0.313,1.08c2.865,9.83,5.679,19.665,8.521,29.488l0,0c1.062-0.004,2.121-0.006,3.183-0.006l0,0c2.563,0,5.125,0.008,7.687,0.008
				l0,0c1.678,0,3.354-0.002,5.03-0.008l0,0c-10.534-36.26-21.104-72.5-31.646-108.785l0,0c-1.223-4.519-4.831-8.524-9.37-9.548l0,0
				c-1.003-0.265-2.037-0.392-3.075-0.392l0,0c-4.12-0.008-8.287,2.046-10.602,5.424l0,0v0.002l-1.235-0.852l1.2,0.9
				c-1.776,2.316-2.225,5.645-3.323,8.998l0,0c-10.086,34.751-20.208,69.495-30.214,104.264l0,0
				c1.658-0.004,3.316-0.004,4.973-0.004l0,0C315.59,120.229,318.132,120.234,320.674,120.234L320.674,120.234z M365.452,75.346
				c-4.259,0-8.511,0-12.763,0l0,0c-4.606,0-9.215-0.003-13.823-0.007l0,0l-1.989-0.002l0.549-1.912
				c4.405-15.348,8.874-30.674,13.301-46.01l0,0l1.445-5.008l1.438,5.013c4.394,15.338,8.873,30.662,13.283,46.014l0,0l0.554,1.914
				h-1.994V75.346z M352.689,72.345c3.588,0,7.177,0,10.769,0l0,0c-3.748-13.034-7.547-26.055-11.296-39.091l0,0
				c-3.768,13.032-7.557,26.053-11.305,39.087l0,0C344.803,72.345,348.746,72.345,352.689,72.345L352.689,72.345z"/>
		</g>
		<g>
			
				<linearGradient id="SVGID_3_" gradientUnits="userSpaceOnUse" x1="-279.4048" y1="377.624" x2="-279.4048" y2="247.624" gradientTransform="matrix(1 0 0 -1 564 375)">
				<stop  offset="0.0051" style="stop-color:#FF6F0D"/>
				<stop  offset="0.3807" style="stop-color:#FF0000"/>
				<stop  offset="1" style="stop-color:#A80000"/>
			</linearGradient>
			<path fill="url(#SVGID_3_)" d="M250.237,0.256c22.91,0,45.814,0,68.719,0c0,6.182,0,12.355,0,18.533
				c-8.437,0.006-16.865-0.01-25.296,0.006c0,34.313,0.006,68.627-0.005,102.938c-6.039,0-12.083,0-18.122,0
				c0-34.312-0.005-68.625,0.005-102.938c-8.436-0.016-16.866,0-25.301-0.006C250.237,12.611,250.232,6.438,250.237,0.256z"/>
			<path fill="#470000" d="M293.655,123.232c-6.04,0-12.083,0-18.123,0l0,0h-1.5v-1.5c0-17.556-0.002-35.11-0.002-52.667l0,0
				c0-16.259,0-32.518,0.005-48.775l0,0c-2.514-0.004-5.029-0.005-7.543-0.005l0,0c-4,0-8,0.002-12.002,0.002l0,0
				c-1.417,0-2.836,0-4.253,0l0,0l-1.501,0.002v-1.501c0-4.118-0.002-8.234-0.002-12.354l0,0c0-2.059,0-4.12,0.002-6.181l0,0
				l0.002-1.498h1.498c22.91,0,45.814,0,68.72,0l0,0h1.5v1.5c-0.003,6.181-0.003,12.354,0,18.533l0,0v1.5h-1.5
				c-1.421,0.002-2.842,0.002-4.261,0.002l0,0c-4.002,0-8.002-0.004-12-0.004l0,0c-2.514,0-5.025,0.001-7.536,0.005l0,0
				c0,17.402,0,34.807,0,52.209l0,0c0,16.41-0.004,32.819-0.004,49.231l0,0v1.5H293.655L293.655,123.232z M292.153,120.232
				c0.003-15.912,0.007-31.821,0.007-47.731l0,0c0-17.901,0-35.805,0-53.707l0,0v-1.496l1.495-0.004
				c3.014-0.008,6.028-0.008,9.04-0.008l0,0c4,0,8,0.002,12,0.004l0,0c0.92-0.001,1.84-0.001,2.759-0.002l0,0
				c0-5.178,0-10.354,0-15.534l0,0c-21.906,0-43.81,0-65.72,0l0,0c-0.001,1.56-0.001,3.12-0.001,4.679l0,0
				c0,3.619,0.002,7.235,0.002,10.854l0,0c0.919,0,1.837,0,2.755,0l0,0c4,0,8-0.002,12.002-0.002l0,0
				c3.016,0,6.032,0.002,9.048,0.008l0,0l1.498,0.002v1.498c-0.008,16.756-0.008,33.514-0.008,50.272l0,0
				c0,17.053,0.002,34.111,0.002,51.166l0,0c2.52,0,5.04,0,7.561,0l0,0C287.113,120.23,289.634,120.23,292.153,120.232
				L292.153,120.232z"/>
		</g>
		<g>
			
				<linearGradient id="SVGID_4_" gradientUnits="userSpaceOnUse" x1="-117.6089" y1="377.624" x2="-117.6089" y2="247.624" gradientTransform="matrix(1 0 0 -1 564 375)">
				<stop  offset="0.0051" style="stop-color:#FF6F0D"/>
				<stop  offset="0.3807" style="stop-color:#FF0000"/>
				<stop  offset="1" style="stop-color:#A80000"/>
			</linearGradient>
			<path fill="url(#SVGID_4_)" d="M418.475,1.01c1.74-0.602,3.6-0.807,5.438-0.764c7.223,0.025,14.446,0.006,21.667,0.01
				c12.164,0.225,23.772,7.771,29.037,18.719c3.646,7.109,4.021,15.377,3.102,23.176c-0.634,8.164-4.058,16.328-10.334,21.741
				c-3.313,2.952-7.442,4.743-10.992,7.375c-1.946,1.48-2.047,4.363-1.039,6.428c9.587,14.799,19.553,29.367,29.341,44.039
				c-7.158,0.012-14.316-0.018-21.477,0.012c-9.37-14.074-18.643-28.219-27.976-42.313c-2.743-4.014-3.489-9.325-1.847-13.902
				c1.281-3.512,4.352-6.08,7.77-7.406c6.523-2.49,12.958-6.4,16.572-12.559c2.748-4.627,2.604-10.336,1.369-15.4
				c-1.449-6.574-7.854-11.746-14.625-11.52c-4.682,0.031-9.358-0.021-14.032,0.021c-2.116-0.049-4.107,1.791-4.08,3.934
				c-0.022,33.047,0.011,66.096-0.011,99.141c-6.088-0.012-12.168,0-18.256-0.006c-0.012-35.576,0.013-71.154-0.012-106.73
				C408.128,8.77,412.563,2.902,418.475,1.01z"/>
			<path fill="#470000" d="M461.967,122.575c-9.374-14.079-18.647-28.226-27.966-42.296l0,0c-1.949-2.854-2.973-6.274-2.975-9.7l0,0
				c0.002-1.88,0.31-3.766,0.958-5.564l0,0c1.48-4.026,4.904-6.839,8.644-8.293l0,0c6.356-2.418,12.471-6.196,15.816-11.923l0,0
				c1.425-2.396,2.004-5.16,2.004-8.038l0,0c0-2.08-0.309-4.208-0.81-6.271l0,0c-1.229-5.721-6.896-10.388-12.731-10.35l0,0
				c-0.133,0-0.255,0-0.418,0.006l0,0c-1.209,0.008-2.414,0.01-3.617,0.01l0,0c-1.982,0-3.959-0.008-5.932-0.006l0,0
				c-1.496-0.002-2.991,0.002-4.479,0.017l0,0h-0.038h-0.026c-0.029-0.002-0.031-0.002-0.031-0.002l0,0
				c-0.6-0.004-1.256,0.274-1.738,0.744l0,0c-0.463,0.443-0.735,1.006-0.761,1.557l0,0l0,0v0.137
				c-0.006,9.164-0.008,18.327-0.008,27.49l0,0c0,15.309,0.002,30.618,0.002,45.928l0,0c0,8.573,0,17.147-0.002,25.724l0,0v1.502
				l-1.505-0.004c-2.248-0.005-4.494-0.007-6.74-0.007l0,0c-2.461,0-4.918,0-7.377,0l0,0c-1.378,0-2.756,0.002-4.135,0.002l0,0h-1.5
				v-1.5c-0.004-8.06-0.006-16.118-0.006-24.18l0,0c0-14.377,0-28.753,0.002-43.126l0,0c-0.002-13.141-0.005-26.283-0.009-39.435
				l0,0c0.069-6.935,4.869-13.279,11.404-15.405l0,0c1.784-0.615,3.639-0.85,5.449-0.85l0,0c0.165,0,0.335,0.002,0.473,0.006l0,0
				c2.983,0.011,5.967,0.013,8.952,0.013l0,0c3.515,0,7.031-0.004,10.55-0.004l0,0c0.723,0,1.443,0,2.188,0.002l0,0
				c12.766,0.252,24.828,8.095,30.345,19.534l0,0c2.727,5.32,3.688,11.19,3.688,16.982l0,0c0,2.375-0.164,4.737-0.428,6.996l0,0
				c-0.661,8.493-4.21,17.024-10.832,22.742l0,0c-3.563,3.154-7.743,4.954-11.081,7.45l0,0c-0.712,0.538-1.07,1.419-1.078,2.497l0,0
				c-0.002,0.681,0.159,1.396,0.439,1.996l0,0c9.557,14.753,19.501,29.291,29.278,43.946l0,0l1.556,2.328l-2.8,0.004
				c-1.363,0.004-2.724,0-4.081,0l0,0c-3.214,0-6.425-0.006-9.637-0.006l0,0c-2.585,0-5.17,0.004-7.754,0.018l0,0l-0.809,0.005
				L461.967,122.575L461.967,122.575z M460.563,29.811c0.537,2.221,0.886,4.575,0.886,6.949l0,0c0.002,3.272-0.66,6.601-2.419,9.563
				l0,0c-3.887,6.599-10.64,10.643-17.324,13.198l0,0c-3.105,1.203-5.819,3.524-6.9,6.517l0,0c-0.521,1.445-0.776,2.988-0.774,4.541
				l0,0c-0.002,2.827,0.854,5.676,2.461,8.022l0,0c9.188,13.873,18.312,27.791,27.526,41.639l0,0
				c2.321-0.014,4.644-0.014,6.961-0.014l0,0c3.216,0,6.427,0.008,9.636,0.006l0,0c0.425,0,0.85,0,1.272,0l0,0
				c-9.281-13.877-18.704-27.69-27.795-41.724l0,0l-0.046-0.071l-0.042-0.084c-0.508-1.045-0.782-2.213-0.784-3.396l0,0
				c-0.006-1.753,0.644-3.65,2.278-4.896l0,0c3.744-2.756,7.823-4.538,10.905-7.307l0,0c5.914-5.088,9.214-12.884,9.823-20.777l0,0
				c0.259-2.221,0.412-4.469,0.412-6.705l0,0c0-5.465-0.912-10.847-3.376-15.646l0,0c-4.995-10.423-16.151-17.671-27.688-17.87l0,0
				c-0.722-0.002-1.438-0.004-2.158-0.002l0,0c-3.515-0.002-7.031,0.004-10.55,0.004l0,0c-2.987,0-5.973-0.002-9.003-0.013l0,0
				c-0.136-0.004-0.274-0.006-0.422-0.006l0,0c-1.556,0-3.08,0.204-4.479,0.687l0,0l-0.488-1.416l0.457,1.428
				c-5.274,1.663-9.336,7.048-9.343,12.564l0,0c0.005,13.143,0.007,26.285,0.007,39.426l0,0c0,14.374,0,28.75,0,43.127l0,0
				c0,7.56,0.002,15.117,0.004,22.68l0,0c0.879-0.002,1.758-0.002,2.637-0.002l0,0c2.459,0,4.918,0,7.377,0l0,0
				c1.748,0,3.496,0.002,5.244,0.006l0,0c0.002-8.073,0.002-16.146,0.002-24.221l0,0c0-15.31-0.002-30.619-0.002-45.928l0,0
				c0-9.139,0.002-18.279,0.011-27.418l0,0c-0.002-0.028-0.002-0.053-0.002-0.072l0,0c-0.002-0.046,0-0.046-0.002-0.046l0,0
				c0.061-3.034,2.583-5.348,5.501-5.39l0,0c0.055,0,0.096,0,0.124,0.001l0,0c1.482-0.016,2.969-0.019,4.452-0.019l0,0
				c1.979,0,3.957,0.006,5.932,0.006l0,0c1.199,0,2.398-0.002,3.54-0.008l0,0c0.177-0.008,0.341-0.008,0.495-0.008l0,0
				C452.29,17.173,458.958,22.691,460.563,29.811L460.563,29.811z"/>
		</g>
		<g>
			
				<linearGradient id="SVGID_5_" gradientUnits="userSpaceOnUse" x1="-60.1328" y1="377.624" x2="-60.1328" y2="247.624" gradientTransform="matrix(1 0 0 -1 564 375)">
				<stop  offset="0.0051" style="stop-color:#FF6F0D"/>
				<stop  offset="0.3807" style="stop-color:#FF0000"/>
				<stop  offset="1" style="stop-color:#A80000"/>
			</linearGradient>
			<path fill="url(#SVGID_5_)" d="M494.262,0.256c6.402,0,12.803,0,19.21,0c-0.006,40.496,0.014,80.986-0.012,121.48
				c-6.396-0.018-12.796,0-19.198-0.006C494.262,81.234,494.262,40.746,494.262,0.256z"/>
			<path fill="#470000" d="M513.454,123.236c-2.27-0.008-4.539-0.012-6.81-0.01l0,0c-3.135-0.002-6.271,0-9.406,0l0,0
				c-0.993,0-1.985,0.002-2.978,0.002l0,0l-1.501,0.002v-1.5c0-40.498,0-80.985,0-121.476l0,0v-1.5h1.501c6.401,0,12.802,0,19.209,0
				l0,0h1.501v1.5c-0.002,6.147-0.004,12.294-0.004,18.44l0,0c0,17.05,0,34.099,0,51.147l0,0c0,17.297,0,34.596-0.009,51.895l0,0
				v1.504L513.454,123.236L513.454,123.236z M511.96,120.232c0.008-16.799,0.008-33.594,0.008-50.391l0,0
				c0-17.048,0-34.097,0-51.147l0,0c0-5.647,0.002-11.295,0.002-16.941l0,0c-5.405,0-10.808,0-16.209,0l0,0
				c0,39.489,0,78.979,0,118.475l0,0c0.492,0,0.984-0.002,1.479-0.002l0,0c3.135,0,6.271-0.002,9.407,0l0,0c0.401,0,0.805,0,1.207,0
				l0,0C509.222,120.229,510.591,120.229,511.96,120.232L511.96,120.232z"/>
		</g>
	</g>
	<g>
		<g>
			
				<linearGradient id="SVGID_6_" gradientUnits="userSpaceOnUse" x1="-532.2939" y1="377.624" x2="-532.2939" y2="247.624" gradientTransform="matrix(1 0 0 -1 564 375)">
				<stop  offset="0.0051" style="stop-color:#FF6F0D"/>
				<stop  offset="0.3807" style="stop-color:#FF0000"/>
				<stop  offset="1" style="stop-color:#A80000"/>
			</linearGradient>
			<path fill="url(#SVGID_6_)" d="M54.173,0.008c3.076-0.01,6.153,0,9.229-0.008c0.013,7.234,0,14.469,0.005,21.701
				c0.032,6.039-0.139,12.076-0.389,18.107c-0.412,8.711-0.957,17.439-2.4,26.05c-0.991,5.937-3.044,11.662-5.592,17.099
				c-4.156,8.76-10.686,16.172-18.027,22.404c-6.567,5.779-14.405,9.986-22.649,12.836c-4.664,1.604-9.463,2.844-14.35,3.531
				c0.005-6.064,0.005-12.137,0-18.203c5.883-0.883,11.538-2.971,16.791-5.729c6.233-3.295,11.844-7.729,16.566-12.953
				c4.877-5.395,8.764-11.641,11.714-18.271c3.474-7.625,5.333-15.861,6.597-24.109c1.584-10.482,2.244-21.088,2.489-31.684
				C54.192,7.188,54.162,3.596,54.173,0.008z"/>
			<path fill="#470000" d="M-1.5,121.727c0.002-3.031,0.002-6.066,0.002-9.1l0,0c0-3.035-0.002-6.07-0.002-9.102l0,0v-1.293
				l1.276-0.189c5.678-0.852,11.18-2.877,16.313-5.572l0,0c6.069-3.209,11.544-7.533,16.153-12.634l0,0
				C37,78.575,40.807,72.466,43.705,65.949l0,0c3.389-7.437,5.229-15.536,6.48-23.712l0,0c1.57-10.395,2.229-20.937,2.473-31.475
				l0,0c0.013-1.421,0.017-2.844,0.015-4.271l0,0c0.002-1.547-0.004-3.101-0.004-4.655l0,0c0-0.613,0-1.226,0.004-1.837l0,0
				l0.008-1.487l1.487-0.004c1.259-0.004,2.517-0.006,3.776-0.006l0,0c0.723,0,1.446,0,2.171,0l0,0c1.094,0,2.188-0.002,3.286-0.002
				l0,0l1.498-0.002l0.002,1.5c0.004,2.612,0.006,5.225,0.006,7.836l0,0c0,3.269-0.002,6.538-0.002,9.805l0,0
				c0,1.354,0,2.708,0.002,4.056l0,0c0.002,0.487,0.002,0.974,0.004,1.46l0,0c-0.002,5.583-0.166,11.155-0.396,16.724l0,0
				c-0.412,8.727-0.959,17.514-2.417,26.227l0,0c-1.021,6.115-3.126,11.968-5.717,17.494l0,0
				c-4.278,9.016-10.96,16.578-18.391,22.891l0,0c-6.743,5.931-14.753,10.224-23.151,13.128l0,0
				c-4.74,1.628-9.63,2.894-14.629,3.598l0,0l-1.713,0.24L-1.5,121.727L-1.5,121.727z M1.504,112.627
				c-0.002,2.45-0.002,4.9-0.003,7.352l0,0c4.189-0.703,8.32-1.811,12.357-3.201l0,0c8.091-2.793,15.756-6.916,22.169-12.559l0,0
				c7.229-6.139,13.61-13.4,17.639-21.898l0,0c2.509-5.353,4.51-10.951,5.471-16.71l0,0c1.427-8.507,1.97-17.176,2.382-25.864l0,0
				c0.228-5.537,0.39-11.068,0.39-16.591l0,0c0-0.484,0-0.965-0.002-1.45l0,0c-0.004-1.357-0.004-2.712-0.004-4.066l0,0
				c0-3.267,0.004-6.536,0.004-9.805l0,0c0-2.11-0.001-4.222-0.004-6.333l0,0c-0.596,0-1.191,0-1.788,0l0,0
				c-0.723,0-1.448,0-2.171,0.002l0,0c-0.76-0.001-1.519-0.001-2.276,0l0,0c0,0.111,0,0.222,0,0.333l0,0
				c0,1.548,0.006,3.099,0.006,4.655l0,0c0,1.432-0.004,2.865-0.017,4.321l0,0c-0.247,10.635-0.909,21.303-2.506,31.876l0,0
				c-1.276,8.317-3.157,16.69-6.709,24.491l0,0c-3.008,6.76-6.975,13.141-11.974,18.668l0,0c-4.834,5.35-10.581,9.894-16.98,13.275
				l0,0c-4.992,2.622-10.364,4.664-15.987,5.673l0,0C1.502,107.404,1.502,110.016,1.504,112.627L1.504,112.627z"/>
		</g>
		<g>
			
				<linearGradient id="SVGID_7_" gradientUnits="userSpaceOnUse" x1="-488.3872" y1="377.624" x2="-488.3872" y2="247.623" gradientTransform="matrix(1 0 0 -1 564 375)">
				<stop  offset="0.0051" style="stop-color:#FF6F0D"/>
				<stop  offset="0.3807" style="stop-color:#FF0000"/>
				<stop  offset="1" style="stop-color:#A80000"/>
			</linearGradient>
			<path fill="url(#SVGID_7_)" d="M67.116,0.02c5.662-0.037,11.328-0.006,16.992-0.016c0.002,40.574,0.002,81.148,0,121.729
				c-5.65,0.012-11.303-0.027-16.953,0.021c-0.072-12.938-0.01-25.879-0.03-38.815C67.118,55.295,67.136,27.658,67.116,0.02z"/>
			<path fill="#470000" d="M65.655,121.76c-0.029-5.105-0.037-10.214-0.037-15.316l0,0c0-5.861,0.008-11.721,0.008-17.577l0,0
				c0-1.979,0-3.956,0-5.929l0,0c-0.002-5.02-0.004-10.037-0.004-15.056l0,0c0-11.903,0.002-23.805,0.002-35.706l0,0
				c0-10.717-0.002-21.438-0.008-32.155l0,0l1.5-0.002l0.01,1.5l-0.01-1.5l-1.5,0.002v-1.492l1.49-0.01
				c2.27-0.015,4.539-0.019,6.807-0.019l0,0c2.519,0,5.036,0.004,7.55,0.004l0,0c0.882,0,1.763-0.002,2.646-0.002l0,0h1.5v1.5
				c0.002,20.288,0.002,40.576,0.002,60.864l0,0c0,20.288-0.002,40.575-0.002,60.864l0,0v1.498l-1.498,0.002
				c-0.81,0-1.62,0-2.43,0.002l0,0c-2.554-0.002-5.104-0.01-7.65-0.01l0,0c-2.289,0-4.578,0.006-6.861,0.028l0,0l-1.506,0.015
				L65.655,121.76L65.655,121.76z M68.623,32.176c0,11.903-0.002,23.803,0,35.706l0,0c-0.002,5.019,0,10.036,0.002,15.054l0,0
				c0,1.975,0,3.951,0,5.931l0,0c0,5.86-0.008,11.718-0.008,17.577l0,0c0,4.6,0.007,9.197,0.029,13.797l0,0
				c1.795-0.014,3.59-0.018,5.383-0.018l0,0c2.554,0,5.104,0.01,7.65,0.01l0,0c0.31,0,0.619,0,0.928,0l0,0
				c0-19.793,0.002-39.58,0.002-59.366l0,0c0-19.788-0.001-39.576-0.002-59.362l0,0c-0.381,0-0.763,0-1.146,0l0,0
				c-2.519,0-5.036-0.004-7.55-0.004l0,0c-1.767,0-3.532,0.002-5.296,0.01l0,0C68.621,11.733,68.623,21.956,68.623,32.176
				L68.623,32.176z"/>
		</g>
		<g>
			
				<linearGradient id="SVGID_8_" gradientUnits="userSpaceOnUse" x1="-444.4438" y1="377.624" x2="-444.444" y2="247.624" gradientTransform="matrix(1 0 0 -1 564 375)">
				<stop  offset="0.0051" style="stop-color:#FF6F0D"/>
				<stop  offset="0.3807" style="stop-color:#FF0000"/>
				<stop  offset="1" style="stop-color:#A80000"/>
			</linearGradient>
			<path fill="url(#SVGID_8_)" d="M87.888,0.004c3.06-0.002,6.118-0.008,9.176,0.002c-0.099,12.371,0.322,24.766,1.797,37.057
				c1.207,9.547,2.909,19.164,6.711,28.059c3.604,8.604,8.801,16.604,15.572,23.051c6.466,6.166,14.302,10.906,22.815,13.636
				c2.375,0.76,4.805,1.354,7.274,1.715c-0.003,6.063-0.006,12.129,0,18.19c-4.852-0.657-9.61-1.907-14.24-3.481
				c-5.514-1.918-10.847-4.401-15.745-7.588c-3.576-2.302-6.828-5.054-9.952-7.925c-5.149-4.747-9.758-10.146-13.219-16.256
				c-2.708-4.758-4.683-9.899-6.23-15.146c-1.418-5.271-2.023-10.716-2.573-16.134c-1.064-11.709-1.462-23.477-1.386-35.23
				C87.888,13.305,87.886,6.652,87.888,0.004z"/>
			<path fill="#470000" d="M151.031,123.199c-4.974-0.674-9.825-1.952-14.532-3.553l0,0c-5.609-1.953-11.053-4.483-16.064-7.744l0,0
				c-3.685-2.371-7-5.182-10.156-8.08l0,0c-5.237-4.831-9.952-10.344-13.506-16.618l0,0c-2.782-4.89-4.795-10.14-6.374-15.496l0,0
				c-1.458-5.42-2.065-10.946-2.618-16.388l0,0c-0.986-10.836-1.402-21.715-1.402-32.579l0,0c0-0.934,0.002-1.866,0.01-2.788l0,0
				c0-4.433-0.002-8.868-0.002-13.301l0,0c0-2.216,0-4.435,0.002-6.649l0,0v-1.498l1.498-0.002c1.757-0.002,3.513-0.004,5.27-0.004
				l0,0c1.303,0,2.606,0,3.913,0.006l0,0l1.506,0.006l-0.012,1.506c-0.008,1.123-0.015,2.246-0.013,3.366l0,0
				c-0.002,11.207,0.466,22.405,1.798,33.49l0,0c1.199,9.5,2.89,18.977,6.608,27.668l0,0c3.534,8.438,8.622,16.26,15.223,22.544l0,0
				c6.306,6.015,13.95,10.638,22.236,13.293l0,0c2.31,0.737,4.661,1.313,7.033,1.659l0,0l1.284,0.188v1.297
				c-0.002,3.5-0.004,7.002-0.004,10.502l0,0c0,2.563,0,5.125,0.004,7.688l0,0l0.004,1.721L151.031,123.199L151.031,123.199z
				 M89.386,6.652c0,4.433,0.002,8.868,0.002,13.313l0,0c-0.008,0.922-0.01,1.848-0.01,2.776l0,0
				c0,10.787,0.414,21.575,1.388,32.291l0,0c0.549,5.409,1.15,10.773,2.521,15.86l0,0c1.522,5.168,3.461,10.202,6.097,14.83l0,0
				c3.364,5.942,7.87,11.227,12.928,15.891l0,0c3.093,2.845,6.281,5.537,9.754,7.771l0,0c4.779,3.109,10.001,5.545,15.41,7.426l0,0
				c4.015,1.363,8.108,2.475,12.255,3.158l0,0c-0.002-1.982-0.002-3.965-0.002-5.945l0,0c0-3.075,0.002-6.15,0.003-9.228l0,0
				c-2.119-0.376-4.197-0.911-6.23-1.562l0,0c-8.74-2.803-16.767-7.66-23.392-13.979l0,0c-6.943-6.608-12.247-14.784-15.917-23.546
				l0,0c-3.891-9.108-5.605-18.865-6.822-28.469l0,0c-1.351-11.252-1.823-22.569-1.823-33.858l0,0c0-0.628,0.002-1.255,0.005-1.883
				l0,0c-0.798-0.001-1.597-0.002-2.397-0.002l0,0c-1.256,0-2.512,0.001-3.769,0.002l0,0C89.386,3.217,89.386,4.934,89.386,6.652
				L89.386,6.652z"/>
		</g>
		<g>
			
				<linearGradient id="SVGID_9_" gradientUnits="userSpaceOnUse" x1="-532.2939" y1="377.624" x2="-532.2939" y2="247.624" gradientTransform="matrix(1 0 0 -1 564 375)">
				<stop  offset="0.0051" style="stop-color:#FF6F0D"/>
				<stop  offset="0.3807" style="stop-color:#FF0000"/>
				<stop  offset="1" style="stop-color:#A80000"/>
			</linearGradient>
			<path fill="url(#SVGID_9_)" d="M54.173,0.008c-0.01,3.588,0.02,7.18-0.016,10.77c-0.245,10.596-0.904,21.201-2.489,31.684
				c-1.264,8.248-3.124,16.484-6.597,24.109c-2.95,6.635-6.837,12.879-11.714,18.272c-4.722,5.228-10.333,9.658-16.566,12.953
				c-5.253,2.765-10.908,4.851-16.791,5.729c0.005,6.066,0.005,12.139,0,18.203c4.887-0.688,9.686-1.928,14.35-3.531
				c8.244-2.85,16.082-7.057,22.649-12.834c7.341-6.234,13.871-13.646,18.027-22.406c2.547-5.438,4.601-11.162,5.592-17.099
				c1.443-8.61,1.989-17.339,2.4-26.05c0.25-6.031,0.421-12.068,0.389-18.107C63.402,14.469,63.415,7.234,63.402,0
				C60.325,0.008,57.249-0.002,54.173,0.008"/>
			<path fill="#470000" d="M-1.5,121.729c0-3.033,0.002-6.068,0.002-9.102l0,0c0-3.033,0-6.068-0.002-9.102l0,0l-0.002-1.295
				l1.278-0.189c5.68-0.85,11.18-2.871,16.313-5.57l0,0c6.069-3.209,11.544-7.531,16.153-12.634l0,0
				c4.756-5.26,8.563-11.368,11.461-17.888l0,0c3.389-7.437,5.229-15.536,6.48-23.712l0,0c1.572-10.395,2.229-20.937,2.473-31.475
				l0,0c0.013-1.438,0.015-2.875,0.015-4.317l0,0c0-1.587-0.002-3.174-0.002-4.765l0,0c-0.002-0.559,0-1.119,0.002-1.68l0,0v0.002
				l1.501,0.004l-0.007-1.5C55.424-1.5,56.684-1.5,57.941-1.5l0,0c0.727,0,1.45,0.002,2.173,0l0,0c1.094,0,2.188,0,3.283-0.002l0,0
				l1.5-0.004L64.9-0.003c0.004,2.612,0.004,5.225,0.004,7.836l0,0c0,3.269,0,6.538,0,9.807l0,0c0,1.353,0,2.706,0.002,4.056l0,0
				c0.002,0.484,0.002,0.969,0.004,1.458l0,0c-0.002,5.583-0.164,11.155-0.396,16.724l0,0c-0.412,8.727-0.959,17.517-2.417,26.227
				l0,0C61.076,72.22,58.969,78.073,56.38,83.6l0,0c-4.278,9.015-10.96,16.577-18.391,22.89l0,0
				c-6.743,5.931-14.753,10.224-23.151,13.128l0,0c-4.74,1.628-9.63,2.894-14.629,3.598l0,0l-1.711,0.24L-1.5,121.729L-1.5,121.729z
				 M1.504,112.627c-0.002,2.451-0.002,4.9-0.003,7.352l0,0c4.189-0.703,8.32-1.811,12.357-3.201l0,0
				c8.091-2.793,15.756-6.916,22.169-12.559l0,0c7.229-6.139,13.61-13.4,17.639-21.898l0,0c2.509-5.353,4.51-10.951,5.471-16.71l0,0
				c1.427-8.507,1.972-17.176,2.382-25.864l0,0c0.228-5.535,0.39-11.066,0.39-16.591l0,0c0-0.482,0-0.965-0.002-1.452l0,0
				c-0.002-1.354-0.002-2.707-0.002-4.062l0,0c0-3.269,0-6.538,0-9.807l0,0c0-2.111,0-4.222-0.002-6.332l0,0
				c-0.596,0.001-1.192,0.001-1.788,0.001l0,0c-0.727,0-1.45-0.002-2.173-0.002l0,0c-0.758,0-1.516,0.001-2.272,0.002l0,0
				c0,0.059,0,0.119,0,0.178l0,0c0,1.585,0.002,3.174,0.004,4.765l0,0c-0.002,1.446-0.004,2.894-0.017,4.367l0,0
				c-0.247,10.635-0.909,21.303-2.506,31.876l0,0c-1.276,8.317-3.157,16.69-6.709,24.491l0,0
				c-3.008,6.761-6.975,13.142-11.971,18.669l0,0c-4.837,5.353-10.583,9.893-16.982,13.274l0,0
				c-4.992,2.624-10.365,4.668-15.987,5.675l0,0C1.502,107.408,1.502,110.018,1.504,112.627L1.504,112.627z"/>
		</g>
		<g>
			
				<linearGradient id="SVGID_10_" gradientUnits="userSpaceOnUse" x1="-488.3862" y1="377.624" x2="-488.3862" y2="247.624" gradientTransform="matrix(1 0 0 -1 564 375)">
				<stop  offset="0.0051" style="stop-color:#FF6F0D"/>
				<stop  offset="0.3807" style="stop-color:#FF0000"/>
				<stop  offset="1" style="stop-color:#A80000"/>
			</linearGradient>
			<path fill="url(#SVGID_10_)" d="M67.116,0.02c0.02,27.641,0.002,55.275,0.01,82.917c0.02,12.938-0.042,25.879,0.03,38.814
				c5.65-0.051,11.302-0.012,16.953-0.021c0.002-40.573,0.002-81.149,0-121.728C78.444,0.014,72.778-0.018,67.116,0.02"/>
			<path fill="#470000" d="M65.656,121.759c-0.031-5.106-0.037-10.212-0.037-15.315l0,0c0-5.86,0.01-11.721,0.01-17.576l0,0
				c0-1.977,0-3.952-0.004-5.932l0,0c-0.002-5.701-0.004-11.398-0.004-17.096l0,0c0-11.061,0.004-22.121,0.004-33.18l0,0
				c0-10.878-0.002-21.757-0.008-32.638l0,0l1.499-0.002l-0.011-1.5c2.254-0.017,4.513-0.02,6.766-0.02l0,0
				c2.559,0,5.117,0.006,7.671,0.006l0,0c0.855,0,1.711,0,2.564-0.002l0,0l1.501-0.002v1.502c0,20.288,0.002,40.575,0.002,60.865
				l0,0c0,20.286,0,40.574-0.002,60.863l0,0v1.504l-1.504-0.006c-0.613,0-1.226,0-1.843,0l0,0c-2.699,0-5.396-0.006-8.089-0.006l0,0
				c-2.336,0-4.671,0.006-7.001,0.025l0,0l-1.506,0.016L65.656,121.759L65.656,121.759z M68.624,32.66
				c0,11.06-0.002,22.119-0.002,33.18l0,0c0,5.696,0,11.395,0.002,17.094l0,0c0.004,1.978,0.004,3.955,0.004,5.934l0,0
				c0,5.857-0.01,11.719-0.01,17.576l0,0c0,4.602,0.007,9.197,0.029,13.797l0,0c1.842-0.012,3.683-0.016,5.524-0.016l0,0
				c2.699,0,5.394,0.006,8.089,0.006l0,0c0.116,0,0.232,0,0.348,0l0,0c0-19.787,0-39.575,0-59.361l0,0c0-19.788,0-39.576,0-59.364
				l0,0c-0.355,0-0.711,0-1.066,0l0,0c-2.559,0-5.117-0.006-7.671-0.006l0,0c-1.753,0-3.505,0.002-5.254,0.011l0,0
				C68.622,11.896,68.624,22.278,68.624,32.66L68.624,32.66z M65.617,0.02c0,0,0,0.001,0,0.002l0,0l0,0V0.02L65.617,0.02z"/>
		</g>
		<g>
			
				<linearGradient id="SVGID_11_" gradientUnits="userSpaceOnUse" x1="-444.4438" y1="377.624" x2="-444.444" y2="247.624" gradientTransform="matrix(1 0 0 -1 564 375)">
				<stop  offset="0.0051" style="stop-color:#FF6F0D"/>
				<stop  offset="0.3807" style="stop-color:#FF0000"/>
				<stop  offset="1" style="stop-color:#A80000"/>
			</linearGradient>
			<path fill="url(#SVGID_11_)" d="M87.888,0.004c-0.002,6.648,0,13.301,0,19.949c-0.076,11.754,0.322,23.521,1.386,35.23
				c0.55,5.418,1.155,10.863,2.573,16.133c1.547,5.244,3.522,10.389,6.23,15.146c3.46,6.109,8.07,11.51,13.219,16.256
				c3.124,2.871,6.376,5.623,9.952,7.924c4.898,3.188,10.231,5.672,15.745,7.59c4.63,1.574,9.388,2.824,14.24,3.48
				c-0.006-6.063-0.003-12.127,0-18.189c-2.47-0.359-4.899-0.955-7.274-1.715c-8.513-2.729-16.35-7.471-22.815-13.637
				c-6.771-6.445-11.967-14.443-15.572-23.051c-3.802-8.895-5.504-18.512-6.711-28.061c-1.475-12.289-1.896-24.684-1.797-37.055
				C94.007-0.004,90.948,0.002,87.888,0.004"/>
			<path fill="#470000" d="M151.031,123.198c-4.974-0.673-9.823-1.951-14.532-3.552l0,0c-5.609-1.951-11.053-4.483-16.062-7.744l0,0
				c-3.688-2.373-7.002-5.184-10.159-8.082l0,0c-5.237-4.829-9.952-10.342-13.504-16.616l0,0
				c-2.784-4.892-4.795-10.144-6.376-15.499l0,0c-1.456-5.419-2.065-10.943-2.618-16.387l0,0
				c-0.986-10.836-1.402-21.714-1.402-32.579l0,0c0-0.932,0.004-1.864,0.01-2.786l0,0c0-4.433-0.002-8.868-0.002-13.301l0,0
				c0-2.216,0-4.433,0.002-6.649l0,0l1.5,0.001l-0.002-1.5C89.713-1.498,91.54-1.5,93.369-1.5l0,0c1.232,0,2.467,0.002,3.7,0.006
				l0,0l1.508,0.004l-0.012,1.508c-0.01,1.121-0.015,2.243-0.015,3.366l0,0c0,11.207,0.468,22.405,1.798,33.488l0,0
				c1.199,9.5,2.89,18.977,6.608,27.669l0,0c3.534,8.438,8.624,16.264,15.223,22.546l0,0c6.304,6.015,13.95,10.638,22.238,13.293
				l0,0c2.308,0.737,4.657,1.313,7.033,1.659l0,0l1.284,0.188l-0.002,1.299c-0.002,3.498-0.004,6.998-0.004,10.5l0,0
				c0,2.561,0.002,5.123,0.004,7.688l0,0l0.004,1.721L151.031,123.198L151.031,123.198z M89.385,6.652
				c0,4.433,0.002,8.868,0.002,13.312l0,0c-0.006,0.926-0.01,1.852-0.008,2.776l0,0c-0.002,10.788,0.412,21.575,1.388,32.292l0,0
				c0.547,5.409,1.15,10.772,2.519,15.86l0,0c1.525,5.168,3.461,10.202,6.097,14.83l0,0c3.364,5.941,7.87,11.229,12.928,15.892l0,0
				c3.092,2.844,6.283,5.536,9.754,7.771l0,0c4.779,3.109,10.001,5.545,15.41,7.426l0,0c4.015,1.365,8.107,2.476,12.255,3.16l0,0
				c-0.001-1.981-0.003-3.965-0.003-5.945l0,0c0-3.074,0-6.149,0.003-9.227l0,0c-2.119-0.378-4.197-0.913-6.23-1.563l0,0
				c-8.74-2.803-16.767-7.66-23.392-13.979l0,0c-6.943-6.61-12.247-14.784-15.917-23.547l0,0
				c-3.891-9.108-5.605-18.865-6.822-28.472l0,0C96.022,25.992,95.55,14.673,95.55,3.383l0,0c0-0.628,0.001-1.255,0.004-1.883l0,0
				c-0.729-0.001-1.457-0.001-2.186,0l0,0c-1.327-0.001-2.654,0-3.982,0.001l0,0C89.386,3.218,89.385,4.935,89.385,6.652
				L89.385,6.652z"/>
		</g>
	</g>
	<g>
		
			<linearGradient id="SVGID_12_" gradientUnits="userSpaceOnUse" x1="-15.5737" y1="377.624" x2="-15.5737" y2="247.624" gradientTransform="matrix(1 0 0 -1 564 375)">
			<stop  offset="0.0051" style="stop-color:#FF6F0D"/>
			<stop  offset="0.3807" style="stop-color:#FF0000"/>
			<stop  offset="1" style="stop-color:#A80000"/>
		</linearGradient>
		<path fill="url(#SVGID_12_)" d="M562.213,99.303h3.963v22.449l-18.669-15.213c-1.751-1.432-3.919-3.09-6.225-3.09
			c-3.643,0-6.638,3.229-6.638,6.82c0,3.553,2.855,6.455,6.357,6.688v4.334c-6.177-0.689-10.324-4.703-10.324-11.021
			c0-5.896,4.381-10.971,10.418-10.971c2.582,0,5.164,0.969,7.146,2.58l13.969,11.434L562.213,99.303L562.213,99.303z"/>
		<path fill="#470000" d="M546.557,107.7c-1.71-1.437-3.716-2.802-5.273-2.751l0,0c-1.37-0.002-2.646,0.605-3.604,1.6l0,0
			c-0.952,0.994-1.538,2.346-1.534,3.721l0,0c-0.015,2.724,2.224,5.015,4.957,5.19l0,0l1.399,0.091v7.416l-1.666-0.186
			c-6.745-0.659-11.733-5.473-11.658-12.512l0,0c0.013-6.623,4.978-12.465,11.92-12.47l0,0c2.957,0.002,5.843,1.091,8.097,2.918l0,0
			l11.519,9.429V99.302v-1.499h6.964v27.107L546.557,107.7L546.557,107.7z M541.097,100.8c-5.137,0.009-8.896,4.298-8.919,9.47l0,0
			c0.068,5.019,2.733,8.119,7.326,9.227l0,0v-1.257c-3.605-0.87-6.35-4.077-6.359-7.97l0,0c0.022-4.414,3.581-8.28,8.139-8.32l0,0
			c3.05,0.049,5.381,2.002,7.172,3.427l0,0l16.22,13.22v-17.793h-0.962v15.678l-16.415-13.438c-1.712-1.395-3.985-2.242-6.184-2.242
			l0,0C541.107,100.8,541.104,100.8,541.097,100.8L541.097,100.8z"/>
	</g>
	<g>
		
			<linearGradient id="SVGID_13_" gradientUnits="userSpaceOnUse" x1="-15.2002" y1="377.6201" x2="-15.2002" y2="247.6256" gradientTransform="matrix(1 0 0 -1 564 375)">
			<stop  offset="0.0051" style="stop-color:#FF6F0D"/>
			<stop  offset="0.3807" style="stop-color:#FF0000"/>
			<stop  offset="1" style="stop-color:#A80000"/>
		</linearGradient>
		<path fill="url(#SVGID_13_)" d="M532.8,79.434l12.538,9.266l0.095-0.092c-0.509-1.018-0.829-2.166-0.829-3.412
			c0-5.715,5.303-10.049,10.88-10.049c6.359,0,11.434,5.164,11.434,11.479c0,5.992-4.979,11.572-11.108,11.572
			c-3.506,0-6.453-1.752-9.176-3.779l-15.949-11.85L532.8,79.434z M555.943,79.293c-4.334,0-7.471,3.688-7.471,7.375
			c0,3.781,3.458,7.377,7.236,7.377c4.013,0,7.332-3.41,7.332-7.377C563.044,82.795,559.814,79.293,555.943,79.293z"/>
		<path fill="#470000" d="M545.736,95.62l-17.101-12.704l2.919-4.323l0.877-1.296l10.672,7.887
			c0.06-6.705,6.071-11.529,12.378-11.539l0,0c7.194,0,12.919,5.847,12.933,12.979l0,0c-0.026,6.797-5.531,13.021-12.605,13.071l0,0
			C551.771,99.688,548.527,97.693,545.736,95.62L545.736,95.62z M532.727,82.216l14.802,10.998c2.65,1.979,5.302,3.489,8.28,3.479
			l0,0c2.6,0.002,4.989-1.183,6.758-3.063l0,0c1.766-1.881,2.853-4.432,2.849-7.008l0,0c-0.002-5.496-4.408-9.968-9.933-9.979l0,0
			c-2.399-0.002-4.788,0.945-6.535,2.5l0,0c-1.75,1.564-2.842,3.666-2.844,6.049l0,0c0,0.986,0.25,1.901,0.67,2.74l0,0l0.492,0.982
			l-1.799,1.742l-12.302-9.094L532.727,82.216L532.727,82.216z M546.973,86.668c0.016-4.508,3.737-8.841,8.972-8.877l0,0v1.502v1.5
			c-1.733,0.002-3.201,0.725-4.278,1.842l0,0c-1.074,1.114-1.697,2.616-1.693,4.033l0,0c-0.006,1.426,0.678,2.934,1.776,4.059l0,0
			c1.098,1.131,2.558,1.823,3.961,1.817l0,0c3.124-0.007,5.793-2.716,5.833-5.815l0,0c-0.001-0.021-0.002-0.043-0.002-0.063l0,0
			c0.002-1.515-0.643-3.011-1.688-4.104l0,0c-1.045-1.099-2.438-1.77-3.909-1.767l0,0v-1.5v-1.5
			c4.784,0.047,8.547,4.156,8.596,8.831l0,0c0.001,0.014,0.002,0.029,0.003,0.044l0,0c-0.02,4.808-3.952,8.853-8.833,8.875l0,0
			C550.98,95.463,547.043,91.342,546.973,86.668L546.973,86.668z"/>
	</g>
	<g>
		
			<linearGradient id="SVGID_14_" gradientUnits="userSpaceOnUse" x1="-15.1987" y1="377.625" x2="-15.1987" y2="247.6215" gradientTransform="matrix(1 0 0 -1 564 375)">
			<stop  offset="0.0051" style="stop-color:#FF6F0D"/>
			<stop  offset="0.3807" style="stop-color:#FF0000"/>
			<stop  offset="1" style="stop-color:#A80000"/>
		</linearGradient>
		<path fill="url(#SVGID_14_)" d="M530.68,56.256c0,9.955,8.162,18.055,18.195,18.055c9.953,0,18.049-8.1,18.049-18.055
			c0-10.242-7.96-18.268-18.121-18.268C538.641,37.988,530.68,46.014,530.68,56.256z M548.876,42.256
			c7.854,0,14.003,6.248,14.003,14.223c0,7.479-6.281,13.563-14.003,13.563c-7.801,0-14.147-6.084-14.147-13.563
			C534.729,48.369,540.811,42.256,548.876,42.256z"/>
		<path fill="#470000" d="M529.179,56.255c-0.003-5.512,2.15-10.469,5.687-14.03l0,0c3.531-3.565,8.459-5.739,13.938-5.737l0,0
			c5.479-0.002,10.402,2.172,13.938,5.737l0,0c3.533,3.561,5.686,8.518,5.684,14.03l0,0c-0.002,10.785-8.765,19.552-19.548,19.554
			l0,0C538.02,75.807,529.183,67.051,529.179,56.255L529.179,56.255z M548.875,72.811c9.12-0.019,16.531-7.432,16.546-16.556l0,0
			c-0.017-9.443-7.274-16.753-16.618-16.768l0,0c-9.348,0.015-16.604,7.324-16.623,16.768l0,0
			C532.195,65.37,539.662,72.792,548.875,72.811L548.875,72.811z M533.227,56.478c-0.002-4.431,1.675-8.388,4.486-11.211l0,0
			c2.809-2.827,6.75-4.514,11.162-4.512l0,0v1.5v1.5c-7.277,0.036-12.61,5.391-12.648,12.723l0,0
			c0.014,6.596,5.631,12.06,12.648,12.064l0,0c6.927-0.002,12.491-5.454,12.502-12.064l0,0c-0.019-7.186-5.474-12.708-12.502-12.723
			l0,0v-1.5v-1.5c4.329-0.002,8.227,1.731,11.016,4.569l0,0c2.793,2.833,4.488,6.777,4.486,11.153l0,0
			c-0.007,8.347-6.986,15.048-15.502,15.063l0,0C540.291,71.525,533.239,64.838,533.227,56.478L533.227,56.478z"/>
	</g>
	<g>
		
			<linearGradient id="SVGID_15_" gradientUnits="userSpaceOnUse" x1="-15.1987" y1="377.624" x2="-15.1987" y2="247.624" gradientTransform="matrix(1 0 0 -1 564 375)">
			<stop  offset="0.0051" style="stop-color:#FF6F0D"/>
			<stop  offset="0.3807" style="stop-color:#FF0000"/>
			<stop  offset="1" style="stop-color:#A80000"/>
		</linearGradient>
		<path fill="url(#SVGID_15_)" d="M530.68,18.299c0,9.953,8.162,18.051,18.195,18.051c9.953,0,18.049-8.098,18.049-18.051
			c0-10.244-7.96-18.27-18.121-18.27C538.641,0.029,530.68,8.055,530.68,18.299z M548.876,4.297c7.854,0,14.003,6.246,14.003,14.223
			c0,7.479-6.281,13.563-14.003,13.563c-7.801,0-14.147-6.084-14.147-13.563C534.729,10.412,540.811,4.297,548.876,4.297z"/>
		<path fill="#470000" d="M529.179,18.299c-0.003-5.514,2.15-10.473,5.687-14.034l0,0c3.531-3.565,8.459-5.739,13.938-5.737l0,0
			c5.479-0.002,10.402,2.172,13.938,5.737l0,0c3.533,3.562,5.686,8.52,5.684,14.034l0,0c-0.002,10.783-8.765,19.548-19.548,19.55
			l0,0C538.02,37.847,529.183,29.091,529.179,18.299L529.179,18.299z M548.875,34.85c9.12-0.017,16.531-7.428,16.546-16.55l0,0
			c-0.017-9.447-7.274-16.757-16.618-16.772l0,0c-9.348,0.015-16.604,7.325-16.623,16.772l0,0h-0.002
			C532.195,27.411,539.662,34.833,548.875,34.85L548.875,34.85z M533.227,18.521c-0.002-4.431,1.675-8.388,4.486-11.211l0,0
			c2.809-2.827,6.748-4.516,11.162-4.514l0,0v1.502v1.5c-7.277,0.034-12.61,5.391-12.648,12.724l0,0
			c0.014,6.597,5.631,12.06,12.648,12.062l0,0c6.927-0.002,12.491-5.453,12.505-12.062l0,0c-0.021-7.19-5.477-12.711-12.505-12.724
			l0,0v-1.5V2.795c4.327-0.002,8.227,1.731,11.016,4.569l0,0c2.793,2.833,4.488,6.778,4.486,11.156l0,0
			c-0.007,8.348-6.986,15.046-15.502,15.062l0,0C540.291,33.567,533.239,26.879,533.227,18.521L533.227,18.521z"/>
	</g>
</g>
</svg>
