<?xml version="1.0" encoding="utf-8"?>
<!-- Generator: Adobe Illustrator 16.0.0, SVG Export Plug-In . SVG Version: 6.00 Build 0)  -->
<!DOCTYPE svg PUBLIC "-//W3C//DTD SVG 1.1//EN" "http://www.w3.org/Graphics/SVG/1.1/DTD/svg11.dtd">
<svg version="1.1" id="Layer_1" xmlns="http://www.w3.org/2000/svg" xmlns:xlink="http://www.w3.org/1999/xlink" x="0px" y="0px"
	 width="524.236px" height="60.214px" viewBox="26.4 90.91 524.236 60.214" enable-background="new 26.4 90.91 524.236 60.214"
	 xml:space="preserve">
<g>
	<g>
		<path fill="#C61717" d="M37.843,133.395c-0.077,0-0.156-0.019-0.229-0.054c-7.506-3.644-11.381-7.89-11.208-12.282
			c0.142-3.615,3.092-7.029,8.534-9.873c5.162-2.697,12.444-4.838,21.058-6.19c0.288-0.046,0.557,0.149,0.602,0.438
			c0.045,0.285-0.151,0.557-0.438,0.602c-17.449,2.74-28.447,8.514-28.703,15.066c-0.153,3.887,3.616,7.896,10.615,11.295
			c0.262,0.127,0.371,0.438,0.244,0.703C38.226,133.284,38.039,133.395,37.843,133.395z"/>
	</g>
	<g>
		<path fill="#C61717" d="M103.273,106.418c-0.029,0-0.058-0.002-0.086-0.007c-5.544-0.91-11.397-1.519-17.396-1.804
			c-0.291-0.016-0.515-0.262-0.5-0.553c0.014-0.289,0.265-0.512,0.55-0.5c6.04,0.289,11.933,0.9,17.518,1.817
			c0.286,0.047,0.481,0.317,0.433,0.604C103.749,106.234,103.526,106.418,103.273,106.418z"/>
	</g>
	<g>
		<path fill="#C61717" d="M86.708,142.359c-0.147,0-0.293,0-0.441,0c-0.291-0.002-0.525-0.237-0.524-0.527s0.235-0.523,0.525-0.523
			c0.001,0,0.001,0,0.002,0c0.145,0,0.292,0,0.438,0c28.163,0,50.385-7.319,50.678-16.729c0.104-3.293-2.541-6.634-7.65-9.658
			c-5.085-3.015-12.375-5.583-21.079-7.429c-0.284-0.063-0.465-0.34-0.406-0.624c0.06-0.284,0.34-0.466,0.624-0.405
			c8.814,1.868,16.213,4.48,21.397,7.553c5.458,3.234,8.281,6.897,8.166,10.598c-0.156,5.003-5.683,9.563-15.563,12.841
			C113.323,140.62,100.494,142.359,86.708,142.359z"/>
	</g>
	<polygon fill="#C61717" points="96.238,114.963 110.131,104.373 93.814,110.887 89.228,106.114 90.69,112.729 76.797,123.316 
		93.116,116.801 97.7,121.575 	"/>
	<g>
		<path fill="#C61717" d="M78.839,128.184c0.199-0.979,0.563-0.839,1.557-0.996l0.926-0.146l-0.289,1.542l-0.925,0.148
			C79.114,128.891,78.676,129.156,78.839,128.184z M76.833,126.77l-0.72,3.875c-0.198,1.06,0.123,1.399,1.141,1.238l5.895-0.936
			l1.264-6.797l-5.895,0.936C77.498,125.247,77.028,125.712,76.833,126.77z M114.257,120.652l-0.069,0.375l6.082-0.965
			c0.48-0.078,0.948-0.563,1.045-1.088c0.096-0.523-0.212-0.887-0.693-0.811l-1.562,0.246l-2.492,0.396l-0.631,0.1
			C115.207,119.023,114.405,119.855,114.257,120.652z M71.592,138.178l0.049-0.271c0.209,0.016,0.49,0.097,0.734,0.06l6.32-0.99
			c-0.235,1.26-1.9,1.575-4.442,1.979l-2.893,0.46l-1.551,8.34l3.8-0.602c9.356-0.924,12.916-5.76,14.059-11.524l11.401-1.81
			l1.837-9.887l0.927-0.146c1.016-0.161,0.866-0.346,0.671,0.711l-1.682,9.044l8.185-1.298l0.112-0.6
			c0.617,0.271,1.339,0.367,2.104,0.248l14.155-2.244l1.32-7.106l-0.917-0.651c0.795-0.941,1.415-2.095,1.594-3.062l0.223-1.121
			c0.706-4.19-3.158-5.304-4.921-5.022l-8.123,1.289c-1.438,0.229-3.023,1.23-4.176,2.56c-1.066-1.056-2.711-1.466-3.668-1.314
			l-9.043,1.435l1.012,2.238l8.156-1.293c1.176-0.188,1.962,0.282,2.177,1.213c-0.086,0.246-2.177,11.379-2.177,11.379l-2.925,0.466
			l1.568-8.429c0.194-1.056-0.125-1.396-1.141-1.234l-5.604,0.89l-1.839,9.886l-3.215,0.512l2.104-11.317l-2.646-3.122l-9.526,3.443
			l4.515-0.717l0.073-0.01l-2.871,15.445c-0.73,3.923-4.917,7.675-8.63,8.266l-3.8,0.603l0.576-3.09l2.891-0.458
			c2.541-0.405,5.402-2.947,5.896-5.607l0.313-1.674l-7.527,1.193c-1.614,0.257-2.49-0.725-2.173-2.43l1.35-7.262
			c0.239-1.289,1.044-2.359,2.121-2.918l0.019-0.193l3.776-2.906l-2.206,0.371c-1.173,0.186-3.35,1.064-4.733,2.83
			c-1.046-1.248-2.875-1.736-3.905-1.574l-8.113,1.289l1.322-7.106l5.919-0.938c3.151-0.498,6.638-4.043,7.257-7.371l0.89-4.789
			c0.62-3.331-1.723-5.949-4.874-5.449L58.76,98.841l-2.757,14.829l-11.912,1.893c-1.008,0.158-1.989,1.153-2.186,2.22
			l-4.452,23.942c-0.198,1.065,0.459,1.801,1.468,1.643l22.729-3.607l1.839-9.886l0.925-0.147c1.019-0.16,0.869-0.343,0.671,0.713
			l-1.681,9.043L71.592,138.178z M54.726,132.757l-7.6,1.206l0.286-1.543l6.138-0.977l1.494-8.032l-6.139,0.975l0.286-1.545
			l7.6-1.206L54.726,132.757z M54.266,135.229l-0.631,3.397l-13.447,2.134l4.191-22.554l11.109-1.763l-0.575,3.09l-7.893,1.254
			l-1.205,6.486l6.43-1.02l-0.574,3.088l-6.431,1.02l-1.208,6.49L54.266,135.229z M69.712,136.078l-3.216,0.509l1.567-8.427
			c0.197-1.057-0.123-1.396-1.141-1.237l-5.604,0.89l-1.836,9.888l-3.217,0.511l2.412-12.977l0.075-0.012l10.669-1.69
			c1.614-0.259,2.49,0.722,2.172,2.429L69.712,136.078z M90.613,120.168l3.144-0.498l-2.413,12.977l-3.215,0.51l2.41-12.975
			L90.613,120.168z M110.116,126.283l1.116-6.002c0.354-1.899,2.394-3.764,4.132-4.039l7.52-1.191
			c1.267-0.201,2.147,1.213,1.889,2.6l-0.369,1.931c-0.259,1.386-1.673,2.856-2.939,3.058l-7.806,1.24l-0.112,0.701
			c-0.148,0.796,0.38,1.419,1.111,1.302l8.724-1.389l-0.588,3.166l-9.842,1.56C111.213,129.493,109.765,128.184,110.116,126.283z
			 M63.595,109.462l1.091-5.871l4.092-0.647c0.537-0.084,0.811,0.222,0.704,0.787l-0.746,4.019c-0.107,0.567-0.513,0.979-1.05,1.065
			L63.595,109.462z"/>
		<g>
			<path fill="#C61717" d="M89.753,112.208l-0.869-3.44l-0.489,0.061l-0.158,0.848c-0.109,0.59-0.582,1.067-1.138,1.157
				l-3.362,0.532c-0.555,0.089-0.873-0.268-0.763-0.854l1.694-9.114c0.109-0.586,0.582-1.064,1.136-1.152l3.364-0.533
				c0.555-0.088,0.872,0.268,0.762,0.854l-0.216,1.16l6.797-1.08l0.259-1.39c0.651-3.507-1.733-6.172-5.052-5.646l-6.503,1.031
				c-3.317,0.526-6.868,4.135-7.519,7.641l-1.809,9.729c-0.651,3.509,1.732,6.173,5.051,5.646l2.174-0.343L89.753,112.208z"/>
			<path fill="#C61717" d="M94.571,110.132c0.177-0.477,0.3-0.657,0.391-1.146l0.231-1.238l-2.705,0.43L94.571,110.132z"/>
		</g>
	</g>
</g>
<g>
	<g>
		<path fill="#F9F9F9" d="M210.313,141.697c0,0-22.097,0-35.514,0c-11.838,0-19.73-7.958-19.73-15.784s7.892-15.784,19.73-15.784
			c8.944,0,22.098,0,35.514,0v-7.893c0,0-22.097,0-35.514,0c-15.784,0-27.622,10.26-27.622,23.677
			c0,13.416,11.838,23.676,27.622,23.676c17.888,0,35.514,0,35.514,0V141.697z"/>
		<path fill="#020202" d="M210.313,151.123c0,0-17.625,0-35.514,0l0,0c-8.224,0-15.491-2.674-20.73-7.178l0,0
			c-5.239-4.496-8.432-10.865-8.426-18.032l0,0c-0.006-7.168,3.187-13.537,8.426-18.033l0,0c5.24-4.504,12.507-7.179,20.73-7.179
			l0,0c13.416,0,35.514,0,35.514,0l0,0h1.535v10.962h-1.535c-13.416,0-26.57,0-35.514,0l0,0c-5.574,0.001-10.14,1.869-13.304,4.586
			l0,0c-3.167,2.724-4.896,6.274-4.891,9.664l0,0c-0.005,3.388,1.724,6.94,4.891,9.663l0,0c3.165,2.718,7.73,4.585,13.304,4.586l0,0
			c13.416,0,35.514,0,35.514,0l0,0v1.535v-1.535h1.535v10.961H210.313L210.313,151.123z M156.069,110.207
			c-4.625,3.988-7.352,9.457-7.358,15.706l0,0c0.006,6.249,2.733,11.718,7.358,15.706l0,0c4.626,3.979,11.169,6.436,18.729,6.436
			l0,0c14.75,0,29.32,0,33.98,0l0,0v-4.822c-5.235,0-22.685,0-33.98,0l0,0c-12.514-0.002-21.219-8.434-21.264-17.318l0,0
			c0.045-8.887,8.75-17.316,21.264-17.318l0,0c8.603,0,21.1,0,33.98,0l0,0v-4.822c-5.235-0.002-22.685-0.002-33.98-0.002l0,0
			C167.238,103.771,160.695,106.229,156.069,110.207L156.069,110.207z"/>
	</g>
	<g>
		<g>
			<path fill="#F9F9F9" d="M418.575,102.236h-23.677c-15.784,0-27.621,10.26-27.621,23.677c0,13.416,11.837,23.676,27.621,23.676
				h23.677c15.784,0,27.621-10.26,27.621-23.676C446.196,112.496,434.359,102.236,418.575,102.236z M418.575,141.697h-23.677
				c-11.838,0-19.729-7.958-19.729-15.784s7.894-15.784,19.729-15.784h23.677c11.838,0,19.729,7.958,19.729,15.784
				S430.413,141.697,418.575,141.697z"/>
		</g>
		<g>
			<path fill="#020202" d="M394.898,151.123c-8.224,0-15.491-2.673-20.729-7.178l0,0c-5.241-4.496-8.434-10.865-8.427-18.032l0,0
				c-0.007-7.168,3.186-13.537,8.427-18.033l0,0c5.237-4.504,12.506-7.178,20.729-7.178l0,0h23.677v1.534v1.535h-23.677
				c-7.563,0-14.104,2.457-18.729,6.435l0,0c-4.625,3.989-7.353,9.457-7.356,15.707l0,0c0.006,6.249,2.731,11.718,7.356,15.706l0,0
				c4.626,3.979,11.168,6.436,18.729,6.436l0,0h23.677c7.56,0,14.104-2.457,18.729-6.436l0,0c4.625-3.988,7.354-9.457,7.358-15.706
				l0,0c-0.006-6.25-2.733-11.718-7.358-15.707l0,0c-4.626-3.978-11.17-6.435-18.729-6.435l0,0v-1.535v-1.534
				c8.223,0,15.491,2.674,20.729,7.178l0,0c5.239,4.496,8.432,10.865,8.426,18.033l0,0c0.006,7.167-3.187,13.536-8.426,18.032l0,0
				c-5.238,4.505-12.508,7.178-20.729,7.178l0,0H394.898L394.898,151.123z M394.898,143.23c-12.514,0-21.221-8.434-21.266-17.317
				l0,0c0.045-8.886,8.752-17.317,21.266-17.319l0,0h23.677c12.514,0.002,21.219,8.434,21.264,17.319l0,0
				c-0.045,8.885-8.75,17.317-21.264,17.317l0,0v-1.535v-1.533c5.573-0.001,10.14-1.868,13.303-4.586l0,0
				c3.168-2.723,4.897-6.275,4.894-9.663l0,0c0.005-3.39-1.726-6.94-4.894-9.664l0,0c-3.163-2.717-7.729-4.585-13.303-4.586l0,0
				h-23.677c-5.574,0.001-10.141,1.869-13.305,4.586l0,0c-3.167,2.724-4.896,6.274-4.892,9.664l0,0
				c-0.005,3.388,1.725,6.94,4.892,9.663l0,0c3.164,2.718,7.729,4.585,13.305,4.586l0,0h23.677v1.533v1.535H394.898L394.898,143.23z
				"/>
		</g>
	</g>
	<g>
		<g>
			<path fill="#F9F9F9" d="M253.72,102.236c-17.889,0-35.515,0-35.515,0v47.353c0,0,22.098,0,35.515,0
				c15.784,0,27.621-10.26,27.621-23.676C281.341,112.496,269.504,102.236,253.72,102.236z M253.72,141.697
				c-7.26,0-15.947,0-27.622,0v-31.568c8.769,0,18.894,0,27.622,0c11.838,0,19.729,7.958,19.729,15.784
				S265.558,141.697,253.72,141.697z"/>
		</g>
		<g>
			<path fill="#020202" d="M230.931,151.123c-7.202,0-12.713,0-12.725,0l0,0h-1.535v-50.422h1.535c0.01,0,4.406,0,11.048,0l0,0
				c6.642,0,15.521,0,24.464,0l0,0v1.535v1.535c-8.944-0.002-17.822-0.002-24.464,0l0,0c-4.315-0.002-7.683-0.002-9.515-0.002l0,0
				v44.283c2.124,0.002,6.262,0.002,11.192,0.002l0,0c7.201-0.002,16.08-0.002,22.788,0l0,0c7.562-0.002,14.104-2.457,18.73-6.437
				l0,0c4.626-3.988,7.353-9.457,7.357-15.706l0,0c-0.005-6.249-2.73-11.719-7.357-15.706l0,0
				c-4.625-3.979-11.169-6.437-18.73-6.437l0,0v-1.533v-1.535c8.224-0.001,15.493,2.674,20.729,7.178l0,0
				c5.241,4.496,8.434,10.865,8.428,18.033l0,0c0.006,7.167-3.187,13.536-8.428,18.031l0,0c-5.237,4.505-12.506,7.179-20.729,7.179
				l0,0C247.011,151.123,238.132,151.123,230.931,151.123L230.931,151.123z M226.098,143.23h-1.535v-34.637h1.535
				c8.769,0,18.894,0,27.621,0l0,0c12.516,0.001,21.221,8.434,21.266,17.318l0,0c-0.045,8.886-8.75,17.316-21.266,17.318l0,0v-1.534
				v-1.535c5.574-0.001,10.142-1.868,13.304-4.586l0,0c3.167-2.724,4.896-6.275,4.892-9.663l0,0
				c0.004-3.389-1.725-6.941-4.892-9.664l0,0c-3.163-2.717-7.73-4.585-13.304-4.586l0,0c-8.222,0-17.686,0-26.087,0l0,0v28.499
				c10.908,0,19.148,0,26.087,0l0,0v1.535v1.534C246.458,143.23,237.773,143.23,226.098,143.23L226.098,143.23z"/>
		</g>
	</g>
	<g>
		<g>
			<path fill="#F9F9F9" d="M352.369,125.913c3.945,0,7.893-5.7,7.893-9.646c0-7.893-3.945-14.031-11.839-14.031
				c-7.891,0-47.352,0-47.352,0v47.354h7.893v-19.73c11.838,0,31.568,0,35.515,0c3.945,0,7.892,3.947,7.892,7.894s0,11.838,0,11.838
				h7.894c0,0,0-3.944,0-11.838S352.369,125.913,352.369,125.913z M344.479,121.967c-7.893,0-35.515,0-35.515,0v-11.838
				c0,0,27.622,0,35.515,0c3.944,0,7.892,2.191,7.892,6.139C352.369,120.213,348.423,121.967,344.479,121.967z"/>
		</g>
		<g>
			<path fill="#020202" d="M350.836,151.123v-1.534c-0.002,0-0.002-7.894,0-11.838l0,0c0.01-1.452-0.768-3.101-2.018-4.341l0,0
				c-1.241-1.249-2.89-2.028-4.342-2.018l0,0c-3.778,0-22.043,0-33.979,0l0,0v19.729h-10.962V100.7h1.534c0.021,0,9.865,0,20.718,0
				l0,0c10.851,0,22.688,0,26.635,0l0,0c4.345-0.021,7.854,1.758,10.089,4.646l0,0c2.245,2.881,3.281,6.725,3.284,10.92l0,0
				c-0.021,2.477-1.142,5.082-2.786,7.24l0,0c-0.887,1.135-1.941,2.173-3.152,2.898l0,0c0.492,0.396,1.017,0.854,1.545,1.382l0,0
				c2.143,2.137,4.395,5.479,4.395,9.964l0,0c0,7.893,0,11.838,0,11.838l0,0v1.534L350.836,151.123L350.836,151.123z
				 M358.727,148.055c0-1.818,0-5.253,0.002-10.304l0,0c-0.002-3.198-1.487-5.653-3.162-7.448l0,0
				c-1.666-1.781-3.488-2.812-3.83-2.988l0,0c-0.045-0.024-0.053-0.028-0.053-0.028l0,0l0.687-1.373l-0.687,1.373l0.687-2.907
				c1.202,0.042,2.907-1.025,4.211-2.745l0,0c1.313-1.678,2.168-3.895,2.147-5.366l0,0c0.002-3.695-0.935-6.865-2.636-9.027l0,0
				c-1.71-2.154-4.12-3.447-7.67-3.469l0,0c-6.96,0-38.471,0-45.815,0l0,0v44.285h4.821v-19.73h1.535c11.838,0,31.567,0,35.515,0
				l0,0c2.492,0.011,4.791,1.206,6.51,2.915l0,0c1.712,1.719,2.904,4.019,2.916,6.512l0,0c0,2.864,0,7.808,0,10.304l0,0h4.822
				V148.055z M323.762,123.502c-7.893,0-14.783,0-14.798,0l0,0h-1.535v-14.908h1.535c0.015,0,6.905,0,14.798,0l0,0
				c7.893,0,16.771,0,20.717,0l0,0c2.254,0.006,4.506,0.608,6.309,1.87l0,0c1.799,1.238,3.134,3.295,3.117,5.804l0,0
				c0.027,2.512-1.362,4.521-3.182,5.629l0,0c-1.822,1.138-4.048,1.6-6.244,1.605l0,0v-1.535v-1.533
				c1.748,0.004,3.471-0.41,4.607-1.136l0,0c1.141-0.755,1.725-1.597,1.75-3.03l0,0c-0.018-1.438-0.654-2.449-1.814-3.293l0,0
				c-1.158-0.824-2.853-1.315-4.543-1.312l0,0c-3.946,0-12.824,0-20.717,0l0,0c-5.656,0-10.8,0-13.264,0l0,0v8.771
				c2.464,0,7.605,0,13.264,0l0,0c7.893,0,16.771,0,20.717,0l0,0v1.533v1.535C340.531,123.502,331.652,123.502,323.762,123.502
				L323.762,123.502z"/>
		</g>
	</g>
	<g>
		<path fill="#F9F9F9" d="M289.893,129.857c-2.181,0-3.947-1.767-3.947-3.944c0-2.179,1.768-3.946,3.947-3.946h2.959
			c2.18,0,3.945,1.768,3.945,3.946c0,2.178-1.767,3.944-3.945,3.944H289.893z"/>
		<path fill="#020202" d="M289.891,131.393v-1.533v-1.534l2.961-0.001c1.33-0.001,2.408-1.079,2.41-2.41l0,0
			c-0.002-1.332-1.08-2.41-2.41-2.412l0,0l-2.961,0.001c-1.33,0.001-2.408,1.079-2.41,2.411l0,0c0.002,1.331,1.08,2.409,2.41,2.41
			l0,0v1.535V131.393c-3.026,0-5.479-2.451-5.479-5.479l0,0c0-3.027,2.452-5.48,5.479-5.48l0,0h2.961
			c3.026,0,5.479,2.453,5.479,5.48l0,0c-0.001,3.027-2.453,5.479-5.479,5.479l0,0H289.891L289.891,131.393z"/>
	</g>
	<g>
		<path fill="#F9F9F9" d="M481.712,110.129v39.46h7.892v-39.46h7.894c3.945,0,11.837,0,11.837,7.893s0,31.567,0,31.567h7.893
			v-35.514c0-7.894-7.893-11.839-15.783-11.839c-3.945,0-27.622,0-31.568,0c-7.893,0-15.784,3.945-15.784,11.839
			c0,7.892,0,23.676,0,35.514h7.893c0,0,0-23.676,0-31.567c0-7.893,7.893-7.893,11.839-7.893H481.712L481.712,110.129z"/>
		<path fill="#020202" d="M507.798,151.123v-1.534c0,0,0-23.676,0-31.567l0,0c-0.004-1.724-0.413-2.84-1.003-3.664l0,0
			c-0.594-0.82-1.429-1.397-2.471-1.816l0,0c-2.078-0.843-4.871-0.887-6.828-0.876l0,0l-6.358-0.001v39.46h-10.961v-39.459h-6.357
			c-1.474-0.003-3.402,0.007-5.16,0.382l0,0c-1.775,0.376-3.263,1.088-4.14,2.311l0,0c-0.591,0.824-0.998,1.941-1.005,3.664l0,0
			c0,7.894,0,31.568,0,31.568l0,0v1.534h-10.961v-1.534c0-11.838,0-27.622,0-35.514l0,0c-0.02-4.483,2.326-7.994,5.616-10.157l0,0
			c3.291-2.185,7.504-3.211,11.703-3.216l0,0c3.945-0.001,27.623-0.001,31.568,0l0,0c4.197,0.005,8.409,1.031,11.701,3.216l0,0
			c3.29,2.163,5.638,5.674,5.616,10.157l0,0v37.048L507.798,151.123L507.798,151.123z M515.691,148.055v-33.979
			c-0.022-3.41-1.621-5.817-4.25-7.604l0,0c-2.629-1.761-6.309-2.705-10-2.701l0,0c-3.947,0-27.623,0-31.568,0l0,0
			c-3.694-0.004-7.374,0.94-10.001,2.701l0,0c-2.63,1.785-4.229,4.192-4.249,7.604l0,0c0,7.554,0,22.345,0,33.979l0,0h4.823
			c-0.002-5.371-0.002-23.354,0-30.033l0,0c-0.007-2.225,0.571-4.065,1.584-5.461l0,0c1.011-1.398,2.395-2.302,3.819-2.869l0,0
			c2.855-1.129,5.981-1.086,7.969-1.097l0,0h7.892v1.534v-1.534h1.535v39.46h4.822v-39.46h9.429
			c1.484,0.001,3.624-0.009,5.797,0.448l0,0c2.155,0.457,4.46,1.411,5.989,3.518l0,0c1.013,1.396,1.591,3.236,1.585,5.461l0,0
			c0,6.679,0,24.662,0,30.033l0,0H515.691L515.691,148.055z"/>
	</g>
	<g>
		<path fill="#F9F9F9" d="M537.763,108.902c0,0-0.945,0,2.938,0c5.259,0,9.062-2.686,9.062-8.727c0-3.883-2.46-8.39-7.766-8.39
			c-3.884,0-12.514,0-16.396,0v6.04c0,0,8.014,0,11.896,0c1.696,0,3.598,0.281,3.598,2.35c0,1.958-1.512,2.686-3.262,2.686h-4.916
			c-8.827,0-9.896,6.299-9.896,11.219v3.884h26.305v-6.479H531.82C531.818,108.465,535.174,108.902,537.763,108.902z"/>
		<path fill="#020202" d="M522.139,118.84v-4.76c0.006-2.52,0.256-5.479,1.772-7.919l0,0c1.514-2.459,4.391-4.201,9-4.177l0,0h4.918
			c0.758,0.004,1.399-0.168,1.776-0.444l0,0c0.369-0.283,0.589-0.606,0.606-1.363l0,0c-0.039-0.757-0.219-0.901-0.664-1.159l0,0
			c-0.46-0.229-1.257-0.316-2.056-0.313l0,0c-3.883,0-11.896,0-11.896,0l0,0h-0.876V90.91h0.876c3.883,0,12.514,0,16.397,0l0,0
			c2.903-0.01,5.146,1.271,6.559,3.07l0,0c1.422,1.801,2.082,4.071,2.085,6.195l0,0c0.008,3.196-1.029,5.676-2.854,7.284l0,0
			c-1.82,1.61-4.313,2.317-7.085,2.317l0,0c-1.308,0-2.066,0-2.498,0l0,0c-0.225,0-0.357,0-0.438,0l0,0c-0.001,0-0.102,0-0.102,0
			l0,0c-0.01,0-0.018,0-0.024,0l0,0c-0.563-0.002-1.142-0.021-1.69-0.021l0,0c-1.021-0.007-1.956,0.084-2.486,0.344l0,0
			c-0.275,0.152-0.466,0.277-0.587,0.508l0,0h17.327v8.231L522.139,118.84L522.139,118.84z M525.396,107.091
			c-1.224,1.938-1.51,4.591-1.504,6.989l0,0v3.007h24.555v-4.726h-17.508v-0.877c-0.043-1.424,0.75-2.541,1.778-2.976l0,0
			c1.007-0.459,2.134-0.5,3.228-0.507l0,0c0.634,0,1.255,0.021,1.816,0.021l0,0c0.236,0,0.961,0,2.938,0l0,0
			c2.488,0,4.523-0.635,5.921-1.877l0,0c1.393-1.241,2.256-3.127,2.263-5.972l0,0c0.005-1.76-0.566-3.681-1.702-5.106l0,0
			c-1.143-1.424-2.786-2.396-5.186-2.405l0,0c-3.614,0-11.336,0-15.521,0l0,0v4.287c2.185,0,7.916,0,11.019,0l0,0
			c0.896,0.005,1.896,0.057,2.813,0.483l0,0c0.93,0.4,1.698,1.431,1.661,2.741l0,0c0.018,1.202-0.518,2.222-1.34,2.79l0,0
			c-0.814,0.576-1.806,0.768-2.798,0.771l0,0h-4.918C528.694,103.764,526.624,105.171,525.396,107.091L525.396,107.091z
			 M537.763,108.902v-0.877V108.902L537.763,108.902z"/>
	</g>
</g>
</svg>
