<?xml version="1.0" encoding="utf-8"?>
<!-- Generator: Adobe Illustrator 16.0.0, SVG Export Plug-In . SVG Version: 6.00 Build 0)  -->
<!DOCTYPE svg PUBLIC "-//W3C//DTD SVG 1.1//EN" "http://www.w3.org/Graphics/SVG/1.1/DTD/svg11.dtd">
<svg version="1.1"
	 id="Ebene_1" xmlns:dc="http://purl.org/dc/elements/1.1/" xmlns:cc="http://creativecommons.org/ns#" xmlns:rdf="http://www.w3.org/1999/02/22-rdf-syntax-ns#" xmlns:svg="http://www.w3.org/2000/svg" xmlns:sodipodi="http://sodipodi.sourceforge.net/DTD/sodipodi-0.dtd" xmlns:inkscape="http://www.inkscape.org/namespaces/inkscape" sodipodi:docname="system.svg" inkscape:version="0.91 r13725"
	 xmlns="http://www.w3.org/2000/svg" xmlns:xlink="http://www.w3.org/1999/xlink" x="0px" y="0px" width="463.868px"
	 height="112.368px" viewBox="43.869 -10.914 463.868 112.368" enable-background="new 43.869 -10.914 463.868 112.368"
	 xml:space="preserve">
<sodipodi:namedview  showgrid="false" inkscape:cy="3.2140759" inkscape:cx="111.32989" inkscape:zoom="1.7043424" borderopacity="1" bordercolor="#666666" pagecolor="#ffffff" id="namedview5297" inkscape:window-maximized="1" inkscape:window-y="-8" inkscape:window-x="-8" inkscape:current-layer="g6104" inkscape:pageshadow="2" inkscape:pageopacity="0" inkscape:window-height="1137" inkscape:window-width="1920" fit-margin-top="0" guidetolerance="10" gridtolerance="10" objecttolerance="10" fit-margin-left="0" fit-margin-right="0" fit-margin-bottom="0">
	</sodipodi:namedview>
<g id="g6103" transform="translate(-4.7330963,-4.9560282)">
	<g id="g4733">
		<g id="g6104" transform="matrix(0.87975643,0,0,0.87975643,39.615581,-29.152372)">
			<g id="g4464">
				<path id="path55" inkscape:connector-curvature="0" fill="#FFFFFF" stroke="#FFFFFF" stroke-width="0.0938" d="M466.64,135.07
					c5.621-6.09,11.56-11.88,17.561-17.58c14.37,9.741,28.779,19.42,43.18,29.11c2.14,1.64,4.809,2.03,7.439,1.93
					c0.189,0.01,0.571,0.02,0.75,0.02c0.08,1.21,0.16,2.43,0.24,3.64c-1.63,1.15-3.47,1.93-5.51,1.62l1.03-0.689
					c0.571-0.39,1.72-1.171,2.289-1.56c-14.168-1.33-28.47-0.071-42.67-0.67c-1.21-0.211-2.189-1-3.21-1.59
					C480.711,144.541,473.711,139.75,466.64,135.07z"/>
				<g id="g5832">
					<g id="_x23_272727ff">
						<path id="path5" inkscape:connector-curvature="0" fill="#272727" stroke="#272727" stroke-width="0.0938" d="M61.99,31.98
							c-0.24-2.36,0.99-5.67,3.85-5.43c20.07-0.08,40.14-0.02,60.21-0.03c2.64-0.18,5.01,1.19,6.66,3.17
							c0.02-2.86,3.02-3.19,5.181-3.18c12.34-0.02,24.68,0.04,37.02-0.03c1.91-0.02,3.82,0.17,5.72,0.47
							c-0.35,0.59-1.05,1.76-1.4,2.35c-8.36-1.04-16.79-0.51-25.19-0.63c-6.21,0.14-12.44-0.31-18.65,0.17
							c-0.29,2.5-0.61,4.99-0.86,7.49c0.29,0.05,0.85,0.16,1.14,0.21c1.17,0.17,2.34,0.33,3.52,0.49c2.47,0.38,4.94,0.78,7.35,1.47
							c-3.66,0.4-7.36,0.32-11.03,0.32c0.01,3.4,0.06,6.79,0.03,10.19c-0.03,1.78-0.09,3.55-0.19,5.32
							c-3.24-3.76-1.53-9.06-3.04-13.47c0.4-3.15,2.16-6.48-0.69-9.03c-3.84-3.29-9.05-2.3-13.68-2.41
							c-17.6-0.06-35.21,0.17-52.81-0.13c-0.1,2.4-0.19,4.8-0.31,7.19c1.47,0.2,2.94,0.38,4.4,0.599c1.79,0.38,3.56,0.86,5.29,1.45
							c-3.16,0.33-6.34,0.3-9.51,0.28c0,2.77,0.01,5.53,0.01,8.3c0.01,2.1,0.04,4.2,0,6.3c-1.03,0.45-2.06,0.91-3.08,1.37
							C61.89,47.17,62.39,39.57,61.99,31.98L61.99,31.98z"/>
						<path id="path7" inkscape:connector-curvature="0" fill="#272727" stroke="#272727" stroke-width="0.0938" d="M239.99,33.03
							c0.411-3.521,3.52-6.47,7.1-6.47c13.01-0.1,26.02-0.07,39.031-0.01c3.289-0.07,6.059,2.17,7.069,5.24
							c-1.05-0.34-2.1-0.68-3.139-1.04c-4.11-1.84-8.661-1.28-13.021-1.33c-10.859,0.03-21.719-0.03-32.58,0.01
							c-0.95,2.26-1.621,4.63-2.16,7.01c1.27,0.14,2.551,0.27,3.83,0.39c2.131,0.5,4.25,1.03,6.331,1.7
							c-3.3,0.32-6.62,0.3-9.929,0.29c0.009,2.38,0.009,4.76,0.029,7.14c0.4,4.5-0.12,8.93-2.28,12.93
							c-1.17-2.82-0.779-5.9-0.79-8.87C239.53,44.36,239.411,38.67,239.99,33.03z"/>
						<path id="path9" inkscape:connector-curvature="0" fill="#272727" stroke="#272727" stroke-width="0.0938" d="M295.47,27.38
							c1.611-1.07,3.65-0.8,5.481-0.89c13.309,0.09,26.619-0.07,39.929,0.07c3.249-0.05,5.81,2.22,6.94,5.12
							c-1.23-0.39-2.45-0.8-3.66-1.19c-1.98-0.68-4.049-1.11-6.15-1.07c-13.58-0.04-27.17,0.12-40.751-0.1
							c-0.02,2.41-0.04,4.82-0.06,7.23c0.749,0.13,2.24,0.38,2.989,0.51c-1.759,0.06-3.519,0.16-5.279,0.24
							c-0.15-1.19-0.36-2.37-0.559-3.55C294.051,31.59,294.14,29.21,295.47,27.38z"/>
						<path id="path11" inkscape:connector-curvature="0" fill="#272727" stroke="#272727" stroke-width="0.0938" d="M351.13,28.54
							c1.771-1.03,3.66-2.09,5.78-2.01c12.379-0.06,24.76,0.01,37.151-0.03c2.629-0.01,6.039,0.45,7.229,3.18
							c-0.919,1.09-2.08,1.26-3.459,0.51c-3.19-1.04-6.58-0.76-9.87-0.78c-11.4,0.12-22.8-0.15-34.19,0.12
							c-0.4,0.91-0.78,1.82-1.149,2.75C352.25,31.34,351.511,29.47,351.13,28.54z"/>
						<path id="path13" inkscape:connector-curvature="0" fill="#272727" stroke="#272727" stroke-width="0.0938" d="M276.46,39.6
							c3.84-2.53,8.679-2.73,12.92-1.13c-3.44,0.38-6.9,0.37-10.36,0.38c-0.03,2.21-0.08,4.42-0.12,6.63
							c-0.49-0.1-1.471-0.29-1.97-0.39c-6.78,0.561-13.589,0.19-20.38,0.35c-0.34,1.62-0.679,3.23-1.09,4.83
							c-0.448-2.03-0.599-4.11,0.051-6.11c0.51-0.87,1.01-1.75,1.54-2.6c6.011,1.98,12.53,0.52,18.761,0.94
							C275.971,41.78,276.299,40.33,276.46,39.6z"/>
						<path id="path15" inkscape:connector-curvature="0" fill="#272727" stroke="#272727" stroke-width="0.0938" d="M385.67,39.56
							c3.911-1.9,8.511-3.08,12.62-1c-3.23,0.3-6.469,0.25-9.711,0.28c-0.089,1.81-0.06,3.62-0.32,5.42
							c-7.11,2.21-14.639,0.6-21.93,1.23c-0.75,1.41-0.551,3.15-0.89,4.69c-2.1-2.66-0.45-5.77,0.82-8.38
							c6.319,1.51,12.88,0.33,19.31,0.78C385.59,41.82,385.64,40.31,385.67,39.56z"/>
					</g>
					<g id="_x23_191919ff">
						<path id="path18" inkscape:connector-curvature="0" fill="#191919" stroke="#191919" stroke-width="0.0938" d="M185.92,27.95
							c3.27-2.21,7.39-1.27,11.09-1.46c12.76,0.26,25.58-0.49,38.32,0.4c-0.29,0.58-0.859,1.73-1.15,2.31
							c-15.53-1.33-31.16-0.21-46.73-0.74c-0.74,0.76-1.48,1.51-2.22,2.26c0.38-0.091,1.13-0.27,1.5-0.36
							c-0.469,2.01-0.91,4.03-1.32,6.06c1.59,0.25,3.19,0.48,4.78,0.76c1.791,0.36,3.561,0.79,5.31,1.33
							c-3.25,0.28-6.51,0.26-9.76,0.25c0.01,2.45,0.02,4.9,0.03,7.35c0.11,3.61,0.02,7.29-1.51,10.62l-0.14,0.41
							c-2.57-6.5-0.98-13.65-1.24-20.44c-0.43,0.21-1.29,0.62-1.72,0.82c-0.27-0.09-0.82-0.28-1.09-0.37
							c-1.17,1.82-3.37,0.97-5.08,0.97c-8.35-0.75-16.74-0.03-25.11-0.37c-1.92-0.09-3.67-0.96-5.46-1.58
							c11.45,0.7,22.94,0.1,34.41,0.33c0.18-1.6,0.37-3.2,0.57-4.79c0.86,1.44,1.47,3.07,2.63,4.31
							C183.33,33.38,183.26,29.76,185.92,27.95z"/>
						<path id="path20" inkscape:connector-curvature="0" fill="#191919" stroke="#191919" stroke-width="0.0938" d="M118.93,38.46
							c3.38-1.28,7.13-1.34,10.5,0.01c-3.3,0.34-6.62,0.31-9.93,0.33c0,2.46,0,4.92,0,7.38c0,2.74-0.021,5.48-0.16,8.22
							c-0.98,1.36-2.01,2.76-2.03,4.52c-1.74-5.75-0.43-11.89-0.79-17.8l0.71-0.76C117.81,39.75,118.38,39.11,118.93,38.46z"/>
						<path id="path22" inkscape:connector-curvature="0" fill="#191919" stroke="#191919" stroke-width="0.0938" d="M294.91,37.3
							c1.76-0.08,3.52-0.18,5.279-0.24c0.24-0.01,0.72-0.01,0.95-0.01c2.171,0.37,4.32,0.84,6.441,1.44
							c-3.45,0.31-6.91,0.29-10.37,0.28c0.03,5.26,0.21,10.53-0.04,15.79c-0.99,1.39-1.82,2.87-2.21,4.54
							c-0.04-0.37-0.14-1.1-0.18-1.47c-0.09-0.7-0.27-2.09-0.361-2.79C294.87,49,294.599,43.14,294.91,37.3L294.91,37.3z"/>
						<path id="path24" inkscape:connector-curvature="0" fill="#191919" stroke="#191919" stroke-width="0.0938" d="M62.04,66.92
							c-0.07-2.2,1.51-4.69,3.96-4.39c38.68-0.07,77.37-0.01,116.05-0.03c6.65,0.25,14.23,2.71,17.44,9.03
							c-3.64,0.29-5.97-2.909-9-4.32c-1.95-0.65-3.94-1.2-5.92-1.77c-0.39-0.15-1.16-0.44-1.55-0.59c-1.64-0.25-3.3-0.33-4.95-0.35
							c-37.58,0.07-75.161,0.16-112.73-0.05c-0.09,0.27-0.27,0.79-0.36,1.06c-0.05,6.32,0.11,12.64-0.03,18.95
							c-0.76,0-2.28-0.01-3.04-0.01C62.16,78.61,61.85,72.76,62.04,66.92z"/>
					</g>
					<g id="_x23_1a1a1aff">
						<path id="path27" inkscape:connector-curvature="0" fill="#1A1A1A" stroke="#1A1A1A" stroke-width="0.0938" d="M406.041,30.95
							c0.02-1.79,0.939-4.12,2.97-4.33c4.34-0.18,8.798-0.53,13.058,0.54c-0.548,0.44-1.658,1.31-2.22,1.75
							c-3.53,0-7.02-0.79-10.55-0.71c-0.08,0.31-0.229,0.94-0.309,1.25c-0.071,3.18,0.04,6.35,0.02,9.53
							c0,2.03-0.011,4.07-0.011,6.11c-0.009,3.07,0.071,6.14-0.06,9.21c-1.019,0.2-2.04,0.4-3.05,0.601
							C406.18,46.92,405.85,38.93,406.041,30.95z"/>
						<path id="path29" inkscape:connector-curvature="0" fill="#1A1A1A" stroke="#1A1A1A" stroke-width="0.0938" d="M330.73,39.47
							c0.19,0.02,0.569,0.05,0.76,0.07l1.681,0.4c0.129,2.33,0.109,4.66,0.089,6.99c-3.33,1.07-6.689,2.46-10.259,2.26
							c-3.49-0.15-7.08-0.75-10.45,0.53c-0.351,0.09-1.061,0.26-1.421,0.35c-0.17,1.49-0.36,2.97-0.579,4.45
							c-1.361-2.68-0.63-5.48,1.279-7.67c6.301,0.29,12.601,0.1,18.911,0.15C330.74,44.49,330.73,41.98,330.73,39.47z"/>
					</g>
					<g id="_x23_1b1b1bff">
						<path id="path32" inkscape:connector-curvature="0" fill="#1B1B1B" stroke="#1B1B1B" stroke-width="0.0938" d="M428.901,26.86
							c4.32-0.72,8.769-0.31,13.138-0.32c4.54-0.17,6.032,4.96,7.941,8.14c-1.05-2.04-2.791-3.52-5.179-3.43
							c-0.36-0.43-1.07-1.29-1.43-1.72c-4.62-1.04-9.562-1.65-14.142-0.11c0.502,0.77,1.521,2.31,2.02,3.07
							c-0.87,0.54-1.82,0.89-2.839,1.04C426.521,31.88,425.711,27.44,428.901,26.86z"/>
					</g>
					<g id="_x23_2b2b2bff">
						<path id="path35" inkscape:connector-curvature="0" fill="#2B2B2B" stroke="#2B2B2B" stroke-width="0.0938" d="M469.519,26.72
							c4.762-0.41,9.582-0.24,14.362-0.11c1.689-0.06,2.2,1.73,2.879,2.94c-5.619-0.11-11.249-0.06-16.87-0.26
							c-1.279,2.33-2.611,4.63-3.981,6.9c2.962,0.48,5.861,1.23,8.752,2.01c-3.781,0.94-7.67,0.46-11.5,0.36
							c-1.43,2.83-3.01,5.58-4.731,8.24c-0.5,0.75-1.019,1.48-1.55,2.19c-0.619-0.69-1.201-1.4-1.74-2.15
							c-0.369-1.53-0.571-3.1-0.979-4.62c-1.281-1.27-2.78-2.29-4.2-3.38c-3.83,0.02-7.659,0.01-11.48-0.13
							c-0.579,0.55-1.161,1.1-1.74,1.65c0.44,0.48,1.31,1.45,1.749,1.94c-0.648,0.37-1.958,1.11-2.609,1.48
							c-0.941-1.43-1.75-2.94-2.48-4.49c0.819,0.12,2.449,0.35,3.259,0.46c0.191-0.49,0.571-1.48,0.759-1.98
							c2.411-0.02,4.822-0.23,7.211-0.58c1.59-0.12,3.079-0.7,4.32-1.74c0.431,0.07,1.29,0.23,1.72,0.3
							c3.19,1.46,4.189,5.31,6.239,7.93c1.871-2.74,3.361-5.8,5.841-8.06C464.819,32.56,466.271,28.73,469.519,26.72L469.519,26.72z
							"/>
					</g>
					<g id="_x23_181818ff">
						<path id="path38" inkscape:connector-curvature="0" fill="#181818" stroke="#181818" stroke-width="0.0938" d="M488.51,27.6
							c1.9-1.32,4.3-1.09,6.5-1.13c12.67,0.1,25.351-0.05,38.021,0.06c1.989-0.09,3.89,0.97,4.249,3.06
							c-0.71-0.01-2.14-0.02-2.859-0.02c-8.041-1.751-16.3-0.73-24.441-0.99c-6.44,0.21-12.901-0.38-19.319,0.11
							c-0.491,2.65-0.471,5.36-0.571,8.04c0.799,0.05,2.389,0.14,3.19,0.18l1.299,0.1c-1.41,0.55-2.799,1.14-4.189,1.721
							c-0.091,4.37,0.391,8.79-0.311,13.12c-0.539,0.44-1.618,1.3-2.16,1.74c-0.469-6.86,0.1-13.73-0.18-20.6
							C487.77,31.19,487.58,29.23,488.51,27.6z"/>
						<path id="path40" inkscape:connector-curvature="0" fill="#181818" stroke="#181818" stroke-width="0.0938" d="M146.58,38.87
							c8.15-0.26,16.3-0.2,24.46-0.17c2.58-0.11,4.95,1.01,7.2,2.16c0.35-0.39,1.06-1.18,1.42-1.57c0.46,3.41-0.73,7.27,1.92,10.06
							c-11.29,0.86-22.68,0.96-33.961,0.19c10.19-1.3,20.52,0.01,30.76-0.73c0.34,0.03,1.02,0.1,1.36,0.14
							c-0.16-2.27,0.41-4.76-0.81-6.81c-1.34-1.22-3.23-1.07-4.9-1.19c-8.05-0.2-16.11-0.02-24.15-0.02
							C148.38,41.18,147.58,39.64,146.58,38.87z"/>
						<path id="path42" inkscape:connector-curvature="0" fill="#181818" stroke="#181818" stroke-width="0.0938" d="M212.48,63.45
							c1.67-0.97,3.66-0.94,5.53-0.97c37.321,0.05,74.64,0,111.971,0.03c6.369,0.04,12.89,2.16,17.459,6.73
							c-1.139,0.37-2.269,0.74-3.39,1.12c-0.759-0.66-1.53-1.3-2.32-1.91c-2.859-1.57-6.039-2.41-9.2-3.1
							c-1.49-0.37-2.979-0.72-4.5-0.82c-37.859-0.21-75.74,0.24-113.599-0.25c0,0.3,0,0.89,0.01,1.19
							c-0.031,5.86,0.22,11.73-0.01,17.59c-0.01,1.64-1.16,2.91-1.91,4.27l-0.79,0.88c-0.5-5.71-0.11-11.46-0.26-17.19
							C211.56,68.49,211.15,65.74,212.48,63.45L212.48,63.45z"/>
						<path id="path44" inkscape:connector-curvature="0" fill="#181818" stroke="#181818" stroke-width="0.0938" d="M90.37,101.05
							c0.02-1.91,1.9-2.45,3.4-2.92c-1.58,6.21-0.39,12.62-0.86,18.911c-0.02,2.089-1.59,3.63-2.64,5.289
							C90.31,115.23,90.06,108.129,90.37,101.05z"/>
					</g>
					<g id="_x23_707070fc">
						<path id="path58" inkscape:connector-curvature="0" fill="#707070" stroke="#707070" stroke-width="0.0938" d="M180.63,26.95
							c0.64,1.5,1.28,3.03,1.41,4.68c-1.83-1.13-3.85-2.13-6.07-1.95c-13.44-0.11-26.89,0.13-40.33-0.15
							c0.03,2.331,0.03,4.671,0.03,7.01c-0.29-0.05-0.85-0.16-1.14-0.21c0.25-2.5,0.57-4.99,0.86-7.49
							c6.21-0.48,12.44-0.03,18.65-0.17c8.4,0.12,16.83-0.41,25.19,0.63C179.58,28.71,180.28,27.54,180.63,26.95z"/>
					</g>
					<g id="_x23_6d6d6df8">
						
							<path id="path61" inkscape:connector-curvature="0" opacity="0.97" fill="#6D6D6D" stroke="#6D6D6D" stroke-width="0.0938" enable-background="new    " d="
							M235.33,26.89c1.98,3.42,2.4,7.79,0.611,11.38c-0.9-1.59-2.72-3.89-0.86-5.53c0.24-0.21,0.72-0.62,0.96-0.83
							c0.36-2.13-2.691-1.68-4.021-2.11c-12-0.4-24.03,0.01-36.04-0.2c-3.1-0.09-6.23-0.05-9.25,0.76c-0.37,0.09-1.12,0.27-1.5,0.36
							c0.74-0.75,1.48-1.5,2.22-2.26c15.57,0.529,31.2-0.591,46.73,0.74C234.471,28.62,235.04,27.47,235.33,26.89z"/>
					</g>
					<g id="_x23_555555ff">
						<path id="path64" inkscape:connector-curvature="0" fill="#555555" stroke="#555555" stroke-width="0.0938" d="M422.07,27.16
							c0.81,0.86,1.61,2.45,1.57,3.81c-0.4,8.6,0.151,17.24-0.249,25.83c-0.1-8.58,0.54-17.23-0.24-25.78
							c-0.722-0.91-1.701-1.32-2.919-1.24c-3.741-0.27-7.49-0.33-11.24-0.33c0.08-0.31,0.229-0.94,0.309-1.25
							c3.53-0.08,7.02,0.71,10.55,0.71C420.411,28.47,421.521,27.6,422.07,27.16z"/>
						<path id="path66" inkscape:connector-curvature="0" fill="#555555" stroke="#555555" stroke-width="0.0938" d="M100.49,36.02
							c6.95,0.61,13.93,0.46,20.88,0.05c-0.4,0.31-1.21,0.94-1.62,1.26l-0.82,1.13c-0.549,0.65-1.12,1.29-1.699,1.9
							c-3.501-0.99-7.15-0.89-10.74-0.88c-0.28,0.38-0.84,1.13-1.12,1.5c-0.09,3.7,0.42,7.4,0.25,11.11
							c-1.01,1.46-1.53,3.15-2.02,4.83l-0.08,0.01c0.18-3.6,0.1-7.2,0.19-10.8c0.13-2.43,0.52-4.84,0.85-7.25
							c4.63,0.35,9.6,0.66,13.779-1.74c-5.33-0.79-10.75-0.67-16.08,0.11C101.82,36.95,100.94,36.33,100.49,36.02z"/>
						<path id="path68" inkscape:connector-curvature="0" fill="#555555" stroke="#555555" stroke-width="0.0938" d="M432.69,36.68
							l1.35-0.15c1.8-0.17,3.61-0.24,5.419-0.24C437.239,36.87,434.919,37.76,432.69,36.68z"/>
						<path id="path70" inkscape:connector-curvature="0" fill="#555555" stroke="#555555" stroke-width="0.0938" d="M91.88,37.81
							c3.521-0.59,7.16-0.75,10.56,0.54c-3.3,0.81-6.72,0.72-10.09,0.65c0,2.37,0,4.74,0.02,7.11c-0.11,2.91,0.43,5.97-0.56,8.78
							c-0.31,1.26-1.61,2.75-0.18,3.79c0.4-0.12,1.18-0.34,1.58-0.45c2.98,0.92,6.09,1.35,9.22,1.3l-0.91,0.46
							c-3.9-0.62-9.97,1.99-12.1-2.47C93.04,51.5,91.78,44.46,91.88,37.81z"/>
						<path id="path72" inkscape:connector-curvature="0" fill="#555555" stroke="#555555" stroke-width="0.0938" d="M197.46,38.34
							c2.34,0.39,4.72,0.53,7.09,0.75c0.47,0.08,1.43,0.24,1.91,0.32l-0.78,0.03c-1.76,0.07-3.521,0.09-5.28,0.07
							c0.28,2.49,0.1,4.99-0.16,7.47c-0.73,0.62-1.46,1.24-2.15,1.89c0.18-0.43,0.55-1.3,0.74-1.74c-0.29-1.55-0.27-3.12-0.141-4.69
							c-0.26-0.13-0.77-0.38-1.02-0.51C197.63,40.73,197.56,39.53,197.46,38.34z"/>
						<path id="path74" inkscape:connector-curvature="0" fill="#555555" stroke="#555555" stroke-width="0.0938" d="M535,47.12
							c3.319,2.29,2.389,6.72,2.04,10.16c-0.131-2.28-0.14-4.56-0.131-6.84c-2.14-0.24-4.28-0.47-6.42-0.62l1.381-0.63
							c0.939-0.17,1.88-0.35,2.831-0.54C534.769,48.27,534.929,47.5,535,47.12z"/>
						<path id="path76" inkscape:connector-curvature="0" fill="#555555" stroke="#555555" stroke-width="0.0938" d="M471.679,52.69
							c-0.069-1.28,0.81-2.28,1.9-2.82C474.57,50.98,473.131,53.4,471.679,52.69z"/>
						<path id="path78" inkscape:connector-curvature="0" fill="#555555" stroke="#555555" stroke-width="0.0938" d="M469.921,55.9
							c-0.171-1.29,0.388-2.06,1.658-2.32C471.901,55.09,471.34,55.87,469.921,55.9z"/>
						<path id="path80" inkscape:connector-curvature="0" fill="#555555" stroke="#555555" stroke-width="0.0938" d="M525.561,74.71
							c0.089-1.17,0.77-1.79,2.04-1.85C527.81,74.37,527.13,74.98,525.561,74.71z"/>
						<path id="path82" inkscape:connector-curvature="0" fill="#555555" stroke="#555555" stroke-width="0.0938" d="M522.621,76.54
							c0.289-1.17,1.059-1.75,2.289-1.76C524.961,76.3,524.2,76.89,522.621,76.54z"/>
						<path id="path84" inkscape:connector-curvature="0" fill="#555555" stroke="#555555" stroke-width="0.0938" d="M217.85,89.73
							c-0.12-0.12-0.36-0.35-0.47-0.47c32.021,0.19,64.07-0.44,96.09,0.25l1.23,0.24c-3.57,0.4-7.16,0.23-10.73,0.24
							c-26,0.03-52.001-0.01-78,0.02C223.26,89.95,220.51,90.29,217.85,89.73z"/>
						<path id="path86" inkscape:connector-curvature="0" fill="#555555" stroke="#555555" stroke-width="0.0938" d="M201.34,91.2
							c3.57,2.82,2.28,7.85,2.28,11.8c-0.42,9.641,1.07,19.36-0.2,28.951c-0.83-12.19,0.35-24.521-0.68-36.671
							c-0.88-0.39-1.77-0.73-2.69-1.01C200.48,93.24,200.91,92.22,201.34,91.2z"/>
						<path id="path88" inkscape:connector-curvature="0" fill="#555555" stroke="#555555" stroke-width="0.0938" d="M422.72,107.53
							c1.729-0.451,3.381,0.05,4.911,0.88c-8.241,4.59-15.9,10.1-23.7,15.391c-12.791,8.969-26.07,17.25-38.59,26.599
							c-0.02,1.19-0.04,2.391-0.07,3.59c-2.31-0.42-4.91-3.169-2.72-5.329c19.129-12.911,38.23-25.869,57.399-38.72
							C420.919,109.191,421.841,108.39,422.72,107.53L422.72,107.53z"/>
						<path id="path90" inkscape:connector-curvature="0" fill="#555555" stroke="#555555" stroke-width="0.0938" d="M196.95,147.71
							c-0.08-1.591,1.14-2.989,2.75-3.06C199.92,145.991,198.39,148.14,196.95,147.71z"/>
						<path id="path92" inkscape:connector-curvature="0" fill="#555555" stroke="#555555" stroke-width="0.0938" d="
							M193.52,150.511c0.34-1.161,1.06-1.721,2.19-1.681C195.83,150.411,195.11,150.97,193.52,150.511z"/>
					</g>
					<g id="_x23_747474ff">
						<path id="path95" inkscape:connector-curvature="0" fill="#747474" stroke="#747474" stroke-width="0.0938" d="M429.229,29.42
							c4.58-1.54,9.522-0.93,14.142,0.11C438.66,29.78,433.929,29.76,429.229,29.42z"/>
					</g>
					<g id="_x23_6e6e6eff">
						<path id="path98" inkscape:connector-curvature="0" fill="#6E6E6E" stroke="#6E6E6E" stroke-width="0.0938" d="M490.661,28.69
							c6.418-0.49,12.879,0.1,19.319-0.11c8.141,0.26,16.4-0.76,24.441,0.99c-14.49,0.15-28.99,0.12-43.48-0.02
							c0,2.29-0.011,4.59-0.04,6.89c0.599,0.12,1.789,0.35,2.38,0.47c-0.802-0.04-2.391-0.13-3.19-0.18
							C490.19,34.05,490.17,31.34,490.661,28.69z"/>
					</g>
					<g id="_x23_f3f3f3ff">
						<path id="path101" inkscape:connector-curvature="0" fill="#F3F3F3" stroke="#F3F3F3" stroke-width="0.0938" d="M65.13,29.29
							c17.6,0.3,35.21,0.07,52.81,0.13c4.63,0.11,9.84-0.88,13.68,2.41c-0.04,0.59-0.13,1.77-0.17,2.361
							c-0.24,0.27-0.72,0.8-0.96,1.06c-0.559,0.26-1.68,0.78-2.24,1.04c-2.29-0.13-4.58-0.36-6.88-0.22
							c-6.95,0.41-13.93,0.56-20.88-0.05c-2.04-0.21-4.11-0.31-6.15-0.01c-6.8,0.81-13.71,0.61-20.53,0.17
							c-1.62-0.38-3.17,0.18-4.59,0.9c-1.46-0.22-2.93-0.4-4.4-0.6C64.94,34.09,65.03,31.69,65.13,29.29z"/>
						<path id="path103" inkscape:connector-curvature="0" fill="#F3F3F3" stroke="#F3F3F3" stroke-width="0.0938" d="M244.45,29.43
							c10.861-0.04,21.72,0.02,32.58-0.01c4.36,0.05,8.91-0.51,13.021,1.33c-0.151,1.679-0.3,3.359-0.479,5.03
							c-0.562,0.17-1.671,0.5-2.231,0.67c-2.22-0.32-4.469-0.49-6.709-0.23c-9.94,0.4-19.931,0.51-29.86-0.06
							c-1.601-0.28-3.13,0.3-4.651,0.67c-1.279-0.12-2.56-0.25-3.83-0.39C242.83,34.06,243.5,31.69,244.45,29.43z"/>
						<path id="path105" inkscape:connector-curvature="0" fill="#F3F3F3" stroke="#F3F3F3" stroke-width="0.0938" d="M297.26,29.32
							c13.58,0.22,27.17,0.06,40.751,0.1c2.1-0.04,4.169,0.39,6.15,1.07c0.25,0.43,0.77,1.29,1.03,1.72
							c-0.071,0.98-0.2,2.93-0.26,3.9c-0.95-0.03-2.831-0.09-3.77-0.12c-1.891-0.14-3.791-0.12-5.661,0.14
							c-9.93,0.6-19.96,0.57-29.9,0.01c-1.58-0.39-3.019,0.4-4.46,0.91c-0.23,0-0.71,0-0.95,0.01c-0.749-0.13-2.24-0.38-2.989-0.51
							C297.22,34.14,297.24,31.73,297.26,29.32z"/>
						<path id="path107" inkscape:connector-curvature="0" fill="#F3F3F3" stroke="#F3F3F3" stroke-width="0.0938" d="M353.77,29.53
							c11.39-0.27,22.79,0,34.19-0.12c3.29,0.02,6.68-0.26,9.87,0.78c0.759,0.89,1.53,1.79,2.18,2.77c0.04,0.9,0.129,2.71,0.18,3.62
							c-1.521-0.16-3.04-0.3-4.551-0.44c-1.769-0.19-3.559-0.17-5.319,0.03c-9.799,0.5-19.69,0.55-29.489-0.02
							c-1.9-0.38-3.771,0.12-5.51,0.85c-1.19-0.19-2.391-0.38-3.581-0.549c0.271-1.4,0.531-2.79,0.88-4.17
							C352.99,31.35,353.37,30.44,353.77,29.53z"/>
					</g>
					<g id="_x23_141414ff">
						<path id="path110" inkscape:connector-curvature="0" fill="#141414" stroke="#141414" stroke-width="0.0938" d="M349.14,35.84
							c-0.511-2.62,1.06-4.96,1.99-7.3c0.381,0.93,1.12,2.8,1.49,3.74c-0.35,1.38-0.609,2.77-0.88,4.17
							c1.19,0.17,2.391,0.36,3.581,0.549c2.24,0.41,4.469,0.82,6.689,1.35c-3.319,0.47-6.68,0.42-10.019,0.38
							c-0.011,2.43-0.011,4.86,0,7.28c0,2.02,0.02,4.04-0.031,6.06l-0.149,1.85c-3.59-2.57-1.681-7.56-2.88-11.28
							C348.03,40.33,349.7,38.16,349.14,35.84z"/>
						<path id="path112" inkscape:connector-curvature="0" fill="#141414" stroke="#141414" stroke-width="0.0938" d="
							M479.629,36.39c1.341-1.91,2.38-4.44,5.091-4.62c-0.151,0.81-0.44,2.44-0.59,3.26c-0.759,1.79-2.249,3.11-3.619,4.42
							c-1.421,2.78-3.081,5.41-4.76,8.03c-0.051,0.06-0.131,0.19-0.171,0.25c-0.5,0.53-1.501,1.61-2,2.14
							c-1.09,0.54-1.969,1.54-1.9,2.82l-0.1,0.89c-1.27,0.26-1.829,1.03-1.658,2.32l0.069,1.01c-4.429,3.98-10.599,2.7-16.029,2.87
							c-2.702,0.19-5.262-0.65-7.502-2.11c6.472-1.47,13.181-0.39,19.761-0.69c2.06-3.22,4.1-6.45,6.101-9.7
							c1.698-2.77,3.49-5.48,5.308-8.17c-0.429-0.28-1.27-0.85-1.698-1.13c-0.5-0.35-1.51-1.05-2.011-1.39
							C475.82,36.52,477.72,36.46,479.629,36.39z"/>
						<path id="path114" inkscape:connector-curvature="0" fill="#141414" stroke="#141414" stroke-width="0.0938" d="M194.39,36.17
							c13.11,0.59,26.28,0.41,39.399,0.07c0.051,0.38,0.151,1.15,0.201,1.53c-9.8,0.61-19.85-1.3-29.44,1.32
							c-2.37-0.22-4.75-0.36-7.09-0.75C196.44,37.6,195.42,36.88,194.39,36.17z"/>
						<path id="path116" inkscape:connector-curvature="0" fill="#141414" stroke="#141414" stroke-width="0.0938" d="
							M250.771,36.16c9.929,0.57,19.92,0.46,29.86,0.06c-1.81,0.85-3.561,1.83-5.35,2.71c-6.6,0.42-13.209,0.25-19.81,0.28
							c-0.36-0.24-1.061-0.72-1.421-0.96C252.971,37.52,251.89,36.79,250.771,36.16z"/>
						<path id="path118" inkscape:connector-curvature="0" fill="#141414" stroke="#141414" stroke-width="0.0938" d="M305.6,36.14
							c9.94,0.56,19.97,0.59,29.9-0.01c-1.94,0.92-3.8,2-5.77,2.84c-6.689-0.62-13.389-0.23-20.089-0.27
							C308.311,37.81,306.99,36.92,305.6,36.14z"/>
						<path id="path120" inkscape:connector-curvature="0" fill="#141414" stroke="#141414" stroke-width="0.0938" d="
							M360.831,36.15c9.799,0.57,19.69,0.52,29.489,0.02c-2.7,1.15-5.259,2.97-8.301,3.01c-5.95,0.16-11.908-0.03-17.859,0.12
							C363.271,38.04,362.11,37,360.831,36.15z"/>
						<path id="path122" inkscape:connector-curvature="0" fill="#141414" stroke="#141414" stroke-width="0.0938" d="
							M254.389,50.99c0.781,0.51,1.571,1.03,2.36,1.55c7.021-0.11,14.041-0.01,21.061-0.07c-0.07,0.49-0.23,1.46-0.3,1.94
							c-6.85,1.43-13.87,0.61-20.81,0.84c-1.41,5.92-10.01,5.61-13.96,2.57c3.57-1.67,7.659-0.6,11.46-0.87
							C254.241,54.96,254.301,52.98,254.389,50.99L254.389,50.99z"/>
						<path id="path124" inkscape:connector-curvature="0" fill="#141414" stroke="#141414" stroke-width="0.0938" d="M363.68,51.67
							c0.25-0.02,0.74-0.04,0.98-0.05c6.969,2.62,15.039-1.26,21.71,2.34l1.27,1.8c-6.221-0.61-12.47-0.65-18.7-0.62
							c-3.381-0.69-3.911,3.87-6.88,4.32c-3.23,0.45-7.65,1.21-9.461-2.31c3.72-0.21,7.441-0.18,11.17-0.16
							C363.74,55.21,363.71,53.44,363.68,51.67z"/>
						<path id="path126" inkscape:connector-curvature="0" fill="#141414" stroke="#141414" stroke-width="0.0938" d="M534.67,52.47
							c2.131,2.51,1.19,6.13-1.889,7.29c-12.25,0.6-24.621,0.04-36.911,0.27c-1.43-1.02-2.82-2.1-4.169-3.21
							c14.14,0.34,28.279,0.07,42.421,0.15C534.27,55.47,534.45,53.97,534.67,52.47z"/>
						<path id="path128" inkscape:connector-curvature="0" fill="#141414" stroke="#141414" stroke-width="0.0938" d="
							M502.649,86.68c10.19-6.23,19.65-13.65,30-19.63c-0.04,0.8-0.12,2.39-0.149,3.18l-0.02,0.33c-1.57,0.87-3.059,2.05-4.88,2.3
							c-1.27,0.06-1.952,0.68-2.04,1.85l-0.651,0.07c-1.23,0.01-2,0.59-2.289,1.76l-0.202,0.68c-0.459,0.29-1.39,0.88-1.849,1.18
							c-0.04,0.031-0.129,0.09-0.18,0.12c-0.719,0.47-2.149,1.42-2.871,1.89c-0.049,0.04-0.149,0.1-0.2,0.14
							c-3.818,2.57-7.57,5.25-11.429,7.75c-3.81,1.48-7.93,1.6-11.959,1.39c-9.502-0.5-19.01-0.34-28.521-0.37
							c-0.85-0.38-2.54-1.13-3.39-1.51c6.201-1.58,12.65-0.55,18.959-0.82C488.19,86.76,495.501,87.47,502.649,86.68L502.649,86.68z
							"/>
						<path id="path130" inkscape:connector-curvature="0" fill="#141414" stroke="#141414" stroke-width="0.0938" d="
							M472.45,107.25c6.041-4.06,11.911-8.43,18.291-11.97c-0.12,0.86-0.371,2.57-0.502,3.42c-4.078,3.03-8.458,5.66-12.588,8.64
							c-1.84,0.68-3.792,1.04-5.681,1.5L472.45,107.25z"/>
						<path id="path132" inkscape:connector-curvature="0" fill="#141414" stroke="#141414" stroke-width="0.0938" d="M350.581,96.7
							c3.179,8.701,0.549,19.2-6.751,25.081l-1.21,0.749c-0.029,0.02-0.1,0.061-0.129,0.081c-1.09,0.568-2.22,1.039-3.381,1.43
							c-3.31,0.579-6.669,0.91-10.039,0.87c-25.03-0.071-50.07,0.1-75.101-0.031c-2-0.02-4.001,0.171-5.9,0.77l-0.17,0.05
							c-1.561,0.43-3.119,0.869-4.68,1.28c1.15-1.729,2.36-3.66,4.52-4.229c26.76-0.111,53.53,0.08,80.289,0
							c6.241-0.1,13.201-1.23,17.421-6.311C350.18,111.01,349.771,103.401,350.581,96.7z"/>
						<path id="path134" inkscape:connector-curvature="0" fill="#141414" stroke="#141414" stroke-width="0.0938" d="M94,122.76
							c3.2-0.029,6.39-0.029,9.59-0.02c12.33,0.06,24.67-0.02,37.01-0.009c7.3,0.189,14.61-0.251,21.9,0.3l-2.19,1.299
							c1.5,0.511,3.03,0.941,4.55,1.391c-0.18,0.43-0.539,1.28-0.72,1.711c-1.39-0.291-2.77-0.581-4.15-0.881l-0.18-0.629
							c0.11-0.29,0.33-0.86,0.43-1.15c-21.4,0.241-42.82,0.04-64.23,0.17c-0.34-0.18-1.03-0.549-1.37-0.73
							C94.48,123.85,94.16,123.119,94,122.76z"/>
						<path id="path136" inkscape:connector-curvature="0" fill="#141414" stroke="#141414" stroke-width="0.0938" d="M409.011,150
							c13.338-9.02,26.699-18,40.05-27.001c5.699,4.251,11.72,8.041,17.579,12.071c7.071,4.68,14.071,9.471,21.099,14.231
							c1.021,0.589,2,1.379,3.21,1.59c14.2,0.599,28.501-0.659,42.67,0.67c-0.568,0.388-1.718,1.17-2.289,1.56
							c-5.401,1.04-10.921,0.49-16.371,0.589c-6.98-0.069-13.969,0.151-20.94-0.04c-4.18-0.06-7.06-3.439-10.33-5.519
							c-10.83-7.231-21.539-14.681-32.591-21.57l-1.518,0.27c-1.441,0.29-2.651,1.18-3.861,1.95
							c-11.891,8.07-23.799,16.109-35.71,24.139c-2.02,1.541-4.67,0.97-7.02,1.09c-11.18-0.18-22.389,0.211-33.55-0.18
							c-0.639-0.85-1.26-1.709-1.86-2.58c12.039-0.619,24.101-0.13,36.149-0.24C405.521,150.98,407.49,151.17,409.011,150
							L409.011,150z"/>
					</g>
					<g id="_x23_d6d6d6ff">
						<path id="path139" inkscape:connector-curvature="0" fill="#D6D6D6" stroke="#D6D6D6" stroke-width="0.0938" d="M401.29,29.68
							l0.14-0.12c0.521,1.42,1.121,2.83,1.461,4.31c-0.52,5.17,0.67,10.36-0.26,15.51c-0.591-2.68-1.081-5.4-2.09-7.97
							c-0.689,4.03,0.25,9.27-4.139,11.48c0.859,0.54,1.709,1.11,2.589,1.65c0.421-0.86,0.89-1.69,1.43-2.49
							c1.991,1.4,3.361,3.44,4.56,5.52c-0.508,0.42-1.539,1.27-2.049,1.7c-0.67,0.15-2.009,0.45-2.68,0.6l0.41-1.65l0.33-1.26
							c-3.99,0-7.979-0.04-11.96-0.17l0.34-1.25c-0.99-0.56-1.989-1.07-2.999-1.58c-6.671-3.6-14.741,0.28-21.71-2.34
							c-0.24,0.01-0.73,0.03-0.98,0.05c-3.9,0.26-7.81,0.39-11.721,0.4c0.051-2.02,0.031-4.04,0.031-6.06
							c3.51-0.01,7.029-0.06,10.55-0.14c0.531-2.2,1.099-4.38,1.62-6.57c5.951-0.15,11.91,0.04,17.859-0.12
							c3.042-0.04,5.601-1.86,8.301-3.01c1.76-0.2,3.55-0.22,5.319-0.03c2.011,0.46,6.261,2.91,5.601-1.12
							c-0.311-0.51-0.921-1.54-1.23-2.06c-0.65-0.98-1.421-1.88-2.18-2.77C399.209,30.94,400.371,30.77,401.29,29.68 M385.67,39.56
							c-5.891-0.22-11.79,0.18-17.671-0.21c-0.619,0.79-1.199,1.61-1.739,2.45c-1.27,2.61-2.921,5.72-0.82,8.38
							c0.34-1.54,0.14-3.28,0.89-4.69c7.291-0.63,14.82,0.98,21.93-1.23c0.26-1.8,0.231-3.61,0.32-5.42
							c3.241-0.03,6.48,0.02,9.711-0.28C394.181,36.48,389.581,37.66,385.67,39.56z"/>
					</g>
					<g id="_x23_f1f1f1ff">
						<path id="path142" inkscape:connector-curvature="0" fill="#F1F1F1" stroke="#F1F1F1" stroke-width="0.0938" d="M135.64,29.53
							c13.44,0.28,26.89,0.041,40.33,0.15c2.22-0.18,4.24,0.82,6.07,1.95c0,1.1-0.01,3.29-0.01,4.39c-1.16-1.24-1.77-2.87-2.63-4.31
							c-0.2,1.59-0.39,3.19-0.57,4.79c-11.47-0.23-22.96,0.37-34.41-0.33c-1.82-0.42-3.59,0.05-5.23,0.86
							c-1.18-0.16-2.35-0.32-3.52-0.49C135.67,34.2,135.67,31.86,135.64,29.53z"/>
						<path id="path144" inkscape:connector-curvature="0" fill="#F1F1F1" stroke="#F1F1F1" stroke-width="0.0938" d="M186.73,30.36
							c3.02-0.81,6.15-0.85,9.25-0.76c12.01,0.21,24.04-0.2,36.04,0.2c1.33,0.43,4.38-0.02,4.021,2.11
							c-0.24,0.21-0.72,0.62-0.96,0.83c-1.03,0.86-1.46,2.03-1.291,3.5c-13.119,0.34-26.289,0.52-39.399-0.07
							c-1.53-0.37-2.96,0.09-4.2,1.01c-1.589-0.28-3.19-0.51-4.78-0.76C185.82,34.39,186.26,32.37,186.73,30.36z"/>
						<path id="path146" inkscape:connector-curvature="0" fill="#F1F1F1" stroke="#F1F1F1" stroke-width="0.0938" d="
							M429.229,29.42c4.7,0.34,9.431,0.36,14.142,0.11c0.36,0.43,1.07,1.29,1.43,1.72c2.389-0.09,4.129,1.39,5.179,3.43
							c0.171,0.27,0.52,0.81,0.69,1.07c-0.431-0.07-1.29-0.23-1.72-0.3c-1.241,1.04-2.731,1.62-4.32,1.74
							c-1.701-0.4-3.399-0.96-5.171-0.9c-1.809,0-3.619,0.07-5.419,0.24c-0.97-1.32-1.75-2.77-2.791-4.04
							C430.75,31.73,429.731,30.19,429.229,29.42z"/>
						<path id="path148" inkscape:connector-curvature="0" fill="#F1F1F1" stroke="#F1F1F1" stroke-width="0.0938" d="M469.89,29.29
							c5.621,0.2,11.251,0.15,16.87,0.26c-0.591,1.95-1.37,3.86-2.631,5.48c0.151-0.82,0.44-2.45,0.59-3.26
							c-2.711,0.18-3.75,2.71-5.091,4.62c-1.909,0.07-3.81,0.13-5.71,0.2c0.502,0.34,1.512,1.04,2.011,1.39
							c-0.32,0.05-0.95,0.16-1.27,0.22c-2.891-0.78-5.79-1.53-8.752-2.01C467.279,33.92,468.611,31.62,469.89,29.29L469.89,29.29z"
							/>
						<path id="path150" inkscape:connector-curvature="0" fill="#F1F1F1" stroke="#F1F1F1" stroke-width="0.0938" d="
							M490.941,29.55c14.49,0.14,28.99,0.17,43.48,0.02c0.719,0,2.149,0.01,2.859,0.02c-0.571,3.2,1.521,8.85-3.039,9.7
							c0.109,0.44,0.328,1.31,0.44,1.741c-2.491-0.95-4.951-2.17-7.67-2.23c-8.141-0.3-16.3,0.23-24.43-0.31
							c-1.35-0.37-2.7-0.72-4.049-1.06c-0.02-0.24-0.071-0.73-0.091-0.97c-1.301,0.18-2.58,0.37-3.861,0.549l-1.299-0.1
							c-0.591-0.12-1.781-0.35-2.38-0.47C490.93,34.14,490.941,31.84,490.941,29.55 M534.001,36.44
							c-11.12,0.18-22.261-0.3-33.372,0.25c1.392,0.53,2.822,1.09,4.34,1.14c9.42,0.66,18.871-0.15,28.29,0.62
							c3.47,0.12,4.049-4.99,1.51-6.78C534.47,33.26,534.221,34.84,534.001,36.44z"/>
					</g>
					<g id="_x23_f0f0f0ff">
						<path id="path153" inkscape:connector-curvature="0" fill="#F0F0F0" stroke="#F0F0F0" stroke-width="0.0938" d="
							M408.991,29.45c3.75,0,7.499,0.06,11.238,0.33c0.111,1.34,0.231,2.69,0.322,4.03c0,1.71,0,3.41,0.02,5.12
							c-3.861-0.06-7.71-0.04-11.56,0.05C409.031,35.8,408.92,32.63,408.991,29.45z"/>
					</g>
					<g id="_x23_d3d3d3ff">
						<path id="path156" inkscape:connector-curvature="0" fill="#D3D3D3" stroke="#D3D3D3" stroke-width="0.0938" d="
							M420.231,29.78c1.219-0.08,2.198,0.33,2.919,1.24c0.779,8.55,0.14,17.2,0.24,25.78c0.149,1.79-1.86,2.75-3.33,3.03
							c-3.75,0.4-7.531-0.03-11.29,0.22c-0.381-0.46-1.13-1.38-1.511-1.84c0.571-1.3,1.161-2.59,1.681-3.91
							c0.131-3.07,0.051-6.14,0.06-9.21c3.861,0.08,7.719,0.08,11.591-0.01c0.02,3.95-0.06,7.91-0.131,11.86
							c-3.741-0.03-7.491-0.05-11.209,0.36c2.469,3.28,7.12,2.9,10.619,1.83c2.611-0.89,2.842-3.89,2.431-6.21
							c-1.021-6.68-0.24-13.44-0.739-20.15l-1.01,1.04c-0.091-1.34-0.211-2.69-0.322-4.03H420.231z"/>
					</g>
					<g id="_x23_e1e1e1ff">
						<path id="path173" inkscape:connector-curvature="0" fill="#E1E1E1" stroke="#E1E1E1" stroke-width="0.0938" d="M290.05,30.75
							c1.039,0.36,2.089,0.7,3.139,1.04l-0.02,1.12c-0.1,7.77,0.36,15.53,0.571,23.29c-0.08,0.2-0.251,0.6-0.34,0.8
							c-0.371-4.81-0.26-9.65-0.99-14.42c-0.411-0.06-1.23-0.16-1.641-0.21c0,1.22,0.011,2.44,0.02,3.67
							c-3.959,0.03-7.99,0.35-11.89-0.56c0.04-2.21,0.09-4.42,0.12-6.63c3.46-0.01,6.92,0,10.36-0.38c-4.24-1.6-9.08-1.4-12.92,1.13
							l-1.18-0.67c1.789-0.88,3.54-1.86,5.35-2.71c2.24-0.26,4.489-0.09,6.709,0.23c1.681,0.95,5.21,1.58,4.78-1.46
							c-0.35-1.7-1.879,0.5-2.549,0.79C289.751,34.11,289.899,32.43,290.05,30.75z"/>
						<path id="path175" inkscape:connector-curvature="0" fill="#E1E1E1" stroke="#E1E1E1" stroke-width="0.0938" d="M131.45,34.19
							c0.04-0.591,0.13-1.771,0.17-2.361c2.851,2.55,1.09,5.88,0.69,9.03c-0.15,0.52-0.45,1.56-0.6,2.08
							c-0.14,0.81-0.42,2.43-0.56,3.24c-3.88,0.13-7.77,0.11-11.65,0c0-2.46,0-4.92,0-7.38c3.31-0.02,6.63,0.01,9.93-0.33
							c-3.37-1.35-7.12-1.29-10.5-0.01l0.82-1.13c0.41-0.32,1.22-0.95,1.62-1.26c2.3-0.14,4.59,0.09,6.88,0.22
							C129.84,38.57,133.51,36.53,131.45,34.19z"/>
						<path id="path177" inkscape:connector-curvature="0" fill="#E1E1E1" stroke="#E1E1E1" stroke-width="0.0938" d="M69.22,37.08
							c1.42-0.72,2.97-1.28,4.59-0.9c1.19,0.94,2.3,1.98,3.4,3.04c4.55,0.09,9.12,0.12,13.58-0.95c0.35,0.9-0.13,1.33-1.46,1.28
							c-2.81-0.09-5.63-0.03-8.43-0.21c-0.51,0.63-0.97,1.3-1.37,2.01c-0.24,5.31,0.18,10.63-0.16,15.93
							c-0.15-5.82-1.88-11.98,0.43-17.57c-1.18,0.12-2.35,0.22-3.52,0.33c0.09,1.26,0.16,2.53,0.22,3.8
							c0.02,0.78,0.07,2.33,0.09,3.1c-3.86,0.03-7.72,0.1-11.58,0.17c0-2.77-0.01-5.53-0.01-8.3c3.17,0.02,6.351,0.05,9.51-0.28
							C72.78,37.94,71.01,37.46,69.22,37.08L69.22,37.08z"/>
						<path id="path179" inkscape:connector-curvature="0" fill="#E1E1E1" stroke="#E1E1E1" stroke-width="0.0938" d="M94.34,36.01
							c2.04-0.3,4.11-0.2,6.15,0.01c0.45,0.31,1.33,0.93,1.77,1.23c0.58,0.41,1.73,1.23,2.301,1.63c-0.33,2.41-0.72,4.82-0.85,7.25
							c-3.78,0.06-7.56,0.05-11.34-0.02c-0.02-2.37-0.02-4.74-0.02-7.11c3.37,0.07,6.79,0.16,10.09-0.65
							c-3.4-1.29-7.04-1.13-10.56-0.54l0.17-0.42C92.62,37.05,93.77,36.35,94.34,36.01z"/>
						<path id="path181" inkscape:connector-curvature="0" fill="#E1E1E1" stroke="#E1E1E1" stroke-width="0.0938" d="M190.19,37.18
							c1.24-0.92,2.67-1.38,4.2-1.01c1.03,0.71,2.05,1.43,3.07,2.17c0.1,1.19,0.17,2.39,0.21,3.59c-0.43,1.39-0.84,2.79-1.25,4.19
							c-3.55,0.11-7.1,0.11-10.65-0.01c-0.01-2.45-0.02-4.9-0.03-7.35c3.25,0.01,6.51,0.03,9.76-0.25
							C193.75,37.97,191.98,37.54,190.19,37.18z"/>
						<path id="path183" inkscape:connector-curvature="0" fill="#E1E1E1" stroke="#E1E1E1" stroke-width="0.0938" d="M246.12,36.83
							c1.521-0.37,3.05-0.95,4.651-0.67c1.119,0.63,2.2,1.36,3.279,2.09c0.171,2.21,0.34,4.41,0.44,6.62
							c-3.59,2.1-7.999,0.89-11.94,1.09c-0.02-2.38-0.02-4.76-0.029-7.14c3.309,0.01,6.629,0.03,9.929-0.29
							C250.37,37.86,248.251,37.33,246.12,36.83z"/>
						<path id="path185" inkscape:connector-curvature="0" fill="#E1E1E1" stroke="#E1E1E1" stroke-width="0.0938" d="M355.321,37
							c1.739-0.73,3.61-1.23,5.51-0.85c1.279,0.85,2.44,1.89,3.33,3.15c-0.522,2.19-1.09,4.37-1.621,6.57
							c-3.521,0.08-7.04,0.13-10.55,0.14c-0.011-2.42-0.011-4.85,0-7.28c3.339,0.04,6.7,0.09,10.019-0.38
							C359.79,37.82,357.561,37.41,355.321,37z"/>
						<path id="path187" inkscape:connector-curvature="0" fill="#E1E1E1" stroke="#E1E1E1" stroke-width="0.0938" d="M400.74,87.03
							c4.85-5.38,10.069-10.411,15.32-15.4c8.081,4.82,15.09,11.94,24.55,14.01c0.031,0.49,0.1,1.46,0.131,1.95
							c-1.23,2.55-4.7,2.55-7.12,2.2l-1.081-0.18c1.9-0.56,3.812-1.2,5.61-2.06C425.739,86.39,413.2,87.25,400.74,87.03z"/>
					</g>
					<g id="_x23_dfdfdfff">
						<path id="path190" inkscape:connector-curvature="0" fill="#DFDFDF" stroke="#DFDFDF" stroke-width="0.0938" d="M344.16,30.49
							c1.21,0.39,2.43,0.8,3.66,1.19c0.481,6.61,0.49,13.26,0.29,19.89c0,0.09-0.009,0.29-0.009,0.38
							c0.2,4.011-2.761,8.47-7.161,7.99c-8.739-0.06-17.531,0.37-26.23-0.22l-0.929-0.28c7.709,0.73,15.479,0.11,23.22,0.37
							c3.39,0.02,7.99,0.05,9.56-3.64c0.679-4.81,0.27-9.76-0.2-14.58c-0.671,1.771-0.86,3.66-0.8,5.54
							c-3.88,0.09-7.76,0.08-11.64-0.01c0-2.71,0.02-5.42,0.04-8.14c3.41,0.06,6.83,0.04,10.23-0.36c-4.09-1.93-9-1.77-12.7,0.92
							c-0.191-0.02-0.571-0.05-0.76-0.07l-2.019-0.07l1.019-0.43c1.97-0.84,3.83-1.92,5.77-2.84c1.87-0.26,3.77-0.28,5.66-0.14
							c2.06,0.82,4.21,1.38,6.439,1.55c-0.508-1.9-1.29-3.71-2.409-5.33C344.931,31.78,344.41,30.92,344.16,30.49L344.16,30.49z"/>
						<path id="path192" inkscape:connector-curvature="0" fill="#DFDFDF" stroke="#DFDFDF" stroke-width="0.0938" d="
							M475.931,37.98c0.428,0.28,1.27,0.85,1.698,1.13c-1.818,2.69-3.61,5.4-5.308,8.17c-4.64-0.06-9.271-0.16-13.891-0.479
							c1.72-2.66,3.301-5.41,4.731-8.24c3.83,0.1,7.719,0.58,11.5-0.36C474.981,38.14,475.611,38.03,475.931,37.98z"/>
						<path id="path194" inkscape:connector-curvature="0" fill="#DFDFDF" stroke="#DFDFDF" stroke-width="0.0938" d="M436.74,40.36
							c0.579-0.55,1.161-1.1,1.74-1.65c3.821,0.14,7.65,0.15,11.48,0.13c1.421,1.09,2.919,2.11,4.2,3.38
							c0.409,1.52,0.611,3.09,0.979,4.62c-4.3,0.18-8.681,0.8-12.939-0.06c-1.572-1.171-2.462-3.01-3.712-4.48
							C438.05,41.81,437.179,40.84,436.74,40.36L436.74,40.36z"/>
					</g>
					<g id="_x23_c7c7c7ff">
						<path id="path197" inkscape:connector-curvature="0" fill="#C7C7C7" stroke="#C7C7C7" stroke-width="0.0938" d="M431.25,32.49
							c1.041,1.27,1.82,2.72,2.791,4.04l-1.35,0.15c2.229,1.08,4.549,0.19,6.769-0.39c1.772-0.06,3.47,0.5,5.171,0.9
							c-2.389,0.35-4.8,0.56-7.211,0.58c-0.189,0.5-0.568,1.49-0.759,1.98c-0.81-0.11-2.44-0.34-3.259-0.46
							c-2.6-0.87-3.341-3.85-4.991-5.76C429.429,33.38,430.379,33.03,431.25,32.49z"/>
						<path id="path199" inkscape:connector-curvature="0" fill="#C7C7C7" stroke="#C7C7C7" stroke-width="0.0938" d="
							M261.341,129.5c9.35-0.009,18.69-0.06,28.04,0c-6.25,7.74-14,14.111-20.67,21.49c-9.31,0.03-18.62-0.01-27.93,0
							C247.321,143.531,255.14,137.27,261.341,129.5z"/>
					</g>
					<g id="_x23_2b2b2ba6">
						
							<path id="path202" inkscape:connector-curvature="0" opacity="0.65" fill="#2B2B2B" stroke="#2B2B2B" stroke-width="0.0938" enable-background="new    " d="
							M293.17,32.91l1.181,0.84c0.2,1.18,0.41,2.36,0.559,3.55c-0.311,5.84-0.04,11.7-0.491,17.54l-0.679,1.36
							C293.529,48.44,293.07,40.68,293.17,32.91z"/>
					</g>
					<g id="_x23_8f8f8fff">
						<path id="path205" inkscape:connector-curvature="0" fill="#8F8F8F" stroke="#8F8F8F" stroke-width="0.0938" d="M345.19,32.21
							c1.119,1.62,1.9,3.43,2.41,5.33c-2.23-0.17-4.38-0.73-6.439-1.55c0.939,0.03,2.819,0.09,3.77,0.12
							C344.991,35.14,345.119,33.19,345.19,32.21z"/>
					</g>
					<g id="_x23_222222ff">
						<path id="path208" inkscape:connector-curvature="0" fill="#222222" stroke="#222222" stroke-width="0.0938" d="
							M534.001,36.44c0.22-1.6,0.469-3.18,0.768-4.77c2.54,1.79,1.96,6.9-1.51,6.78c-9.42-0.77-18.871,0.04-28.29-0.62
							c-1.519-0.05-2.948-0.61-4.34-1.14C511.741,36.14,522.881,36.62,534.001,36.44z"/>
						<path id="path210" inkscape:connector-curvature="0" fill="#222222" stroke="#222222" stroke-width="0.0938" d="
							M473.871,110.549c1.19-0.428,2.4-0.819,3.63-1.17c16.52,11.171,33.059,22.341,49.61,33.481c2.62,1.82,5.45,3.37,7.71,5.67
							c-2.631,0.1-5.299-0.291-7.439-1.93c-14.402-9.69-28.81-19.369-43.18-29.11C480.771,115.16,477.329,112.829,473.871,110.549z"
							/>
					</g>
					<g id="_x23_989898ff">
						<path id="path213" inkscape:connector-curvature="0" fill="#989898" stroke="#989898" stroke-width="0.0938" d="M131.45,34.19
							c2.06,2.34-1.609,4.38-3.2,2.1c0.56-0.26,1.68-0.78,2.24-1.04C130.73,34.99,131.21,34.46,131.45,34.19z"/>
					</g>
					<g id="_x23_878787ff">
						<path id="path216" inkscape:connector-curvature="0" fill="#878787" stroke="#878787" stroke-width="0.0938" d="
							M289.571,35.78c0.669-0.29,2.2-2.49,2.549-0.79c0.431,3.04-3.099,2.41-4.78,1.46C287.9,36.28,289.01,35.95,289.571,35.78z"/>
					</g>
					<g id="_x23_383838ff">
						<path id="path219" inkscape:connector-curvature="0" fill="#383838" stroke="#383838" stroke-width="0.0938" d="
							M400.011,32.96c0.309,0.52,0.919,1.55,1.23,2.06c0.659,4.03-3.59,1.58-5.601,1.12c1.511,0.14,3.031,0.28,4.551,0.44
							C400.14,35.67,400.051,33.86,400.011,32.96z"/>
						<path id="path221" inkscape:connector-curvature="0" fill="#383838" stroke="#383838" stroke-width="0.0938" d="M309.64,38.7
							c6.7,0.041,13.4-0.35,20.089,0.27l-1.019,0.43c-5.57,0.41-11.16,0-16.73,0.26c-0.431,0.16-1.29,0.49-1.729,0.66
							c0.249,2.64,0.44,5.37-0.83,7.82c-0.1-0.73-0.291-2.2-0.38-2.93C309.15,43.03,309.421,40.87,309.64,38.7z"/>
						<path id="path223" inkscape:connector-curvature="0" fill="#383838" stroke="#383838" stroke-width="0.0938" d="M200.71,96.73
							c0.64,1.02,1.79,1.85,1.7,3.18c0.32,5.36-0.14,10.72-0.13,16.089c-0.19,7.75,0.67,15.501-0.06,23.24
							c-0.23,1.991-1.35,3.701-2.5,5.29c0.71-3.37,1.93-6.92,0.62-10.31c0.03-6.2,0.28-12.39,0.13-18.58
							C200.53,109.339,200.22,103.02,200.71,96.73L200.71,96.73z"/>
						<path id="path225" inkscape:connector-curvature="0" fill="#383838" stroke="#383838" stroke-width="0.0938" d="M410.76,98.62
							l2.069-0.05c3.57,2.6,7.59,4.639,10.67,7.87c-3.65-0.579-6.678-2.74-9.58-4.86C412.87,100.59,411.791,99.6,410.76,98.62
							L410.76,98.62z"/>
						<path id="path227" inkscape:connector-curvature="0" fill="#383838" stroke="#383838" stroke-width="0.0938" d="
							M243.05,129.611c1.35-0.99,2.7-1.991,4.031-3.002c33.969-0.22,67.959-0.06,101.929-0.049c2.36-0.391,3.44,1.849,4.11,3.67
							c-4.21-0.719-8.481-0.81-12.741-0.759c-16.999-0.031-33.999,0.009-51,0.029c-9.35-0.06-18.69-0.009-28.04,0
							c-6.101-0.07-12.19-0.009-18.291,0.111H243.05z"/>
					</g>
					<g id="_x23_151515ff">
						<path id="path230" inkscape:connector-curvature="0" fill="#151515" stroke="#151515" stroke-width="0.0938" d="
							M420.551,33.81l1.01-1.04c0.5,6.71-0.282,13.47,0.739,20.15c0.411,2.32,0.18,5.32-2.431,6.21
							c-3.499,1.07-8.15,1.45-10.619-1.83c3.719-0.41,7.468-0.39,11.209-0.36c0.071-3.95,0.151-7.91,0.131-11.86
							c-0.02-2.05-0.02-4.1-0.02-6.15C420.551,37.22,420.551,35.52,420.551,33.81L420.551,33.81z"/>
						<path id="path232" inkscape:connector-curvature="0" fill="#151515" stroke="#151515" stroke-width="0.0938" d="M73.81,36.18
							c6.82,0.44,13.73,0.64,20.53-0.17c-0.57,0.34-1.72,1.04-2.29,1.38l-0.17,0.42c-0.1,6.65,1.16,13.69-2.46,19.71l-0.18,0.43
							c0.03-6.13-0.09-12.27,0.09-18.4c1.33,0.05,1.81-0.38,1.46-1.28c-4.46,1.07-9.03,1.04-13.58,0.95
							C76.11,38.16,75,37.12,73.81,36.18z"/>
						<path id="path234" inkscape:connector-curvature="0" fill="#151515" stroke="#151515" stroke-width="0.0938" d="
							M502.581,38.49c8.13,0.54,16.289,0.01,24.43,0.31c2.72,0.06,5.179,1.28,7.67,2.23c-0.111-0.43-0.331-1.3-0.44-1.741
							c0.169,0.42,0.508,1.26,0.688,1.68c-0.628,0.18-1.869,0.56-2.489,0.75l0.18-0.95c-9.531,0.24-19.07,0.02-28.601,0.12
							c-0.22-0.18-0.679-0.53-0.908-0.71L502.581,38.49z"/>
						<path id="path236" inkscape:connector-curvature="0" fill="#151515" stroke="#151515" stroke-width="0.0938" d="M290.77,42.37
							c0.411,0.05,1.23,0.15,1.641,0.21c-1.201,4.77,0.07,9.59-0.111,14.39c-2.28,3.97-7.659,2.64-11.409,2.42
							c-0.371-0.56-1.11-1.7-1.481-2.259c3.761-0.2,7.521-0.22,11.291-0.17c0.049-3.64,0.109-7.28,0.089-10.92
							C290.781,44.81,290.77,43.59,290.77,42.37L290.77,42.37z"/>
						<path id="path238" inkscape:connector-curvature="0" fill="#151515" stroke="#151515" stroke-width="0.0938" d="M345.56,47.13
							c-0.06-1.88,0.13-3.77,0.8-5.54c0.469,4.82,0.879,9.77,0.2,14.58c-1.57,3.69-6.17,3.66-9.56,3.64
							c-7.74-0.26-15.511,0.36-23.22-0.37c-3.51-1.64-7.121,0.549-10.731,0.37c-2.14,0.22-3.911-1.13-5.68-2.07
							c3.65-1.22,7.51-0.559,11.27-0.87c0.26-0.67,0.78-2.01,1.04-2.68c0.48,0.96,0.959,1.91,1.45,2.86
							c10.55-0.35,21.14,0.29,31.669-0.31C345.961,54.72,345.37,50.39,345.56,47.13L345.56,47.13z"/>
						<path id="path240" inkscape:connector-curvature="0" fill="#151515" stroke="#151515" stroke-width="0.0938" d="M76.5,43.84
							c0.29-0.18,0.86-0.54,1.15-0.72c-0.26,4.86,0.39,9.73-0.081,14.57c-2.94,2.69-7.18,1.85-10.76,1.5
							c-0.31-0.51-0.94-1.53-1.25-2.04c3.63-0.2,7.27-0.22,10.899-0.2c0.061-3.33,0.16-6.67,0.13-10.01
							C76.57,46.17,76.52,44.62,76.5,43.84z"/>
						<path id="path242" inkscape:connector-curvature="0" fill="#151515" stroke="#151515" stroke-width="0.0938" d="M131.71,42.94
							c-0.78,4.98,1.11,9.86,0.89,14.79c-3.52,3.15-9.38,2.66-13.03-0.04c3.82-1,7.78-0.75,11.67-0.71c0.15-3.6,0.08-7.2-0.09-10.8
							C131.29,45.37,131.57,43.75,131.71,42.94z"/>
						<path id="path244" inkscape:connector-curvature="0" fill="#151515" stroke="#151515" stroke-width="0.0938" d="M236.76,45.73
							c0.63,3.56,1.78,7.51,0.12,10.94c-1.989,3.4-6.429,3.12-9.839,3.14c-12.41-0.26-24.85,0.31-37.24-0.3
							c-0.96-0.73-1.891-1.49-2.81-2.27c11.66-0.59,23.34-0.12,35.01-0.27c3.86-0.17,7.84,0.5,11.629-0.41
							c3.101-2.09,2.1-6.43,2.841-9.61L236.76,45.73z"/>
						<path id="path246" inkscape:connector-curvature="0" fill="#151515" stroke="#151515" stroke-width="0.0938" d="M368.73,70
							c4.55,1.47,8.101,4.8,12.099,7.28c4.46,2.811,8.62,6.06,13.151,8.76c2,1.33,4.49,0.9,6.76,0.99
							c12.46,0.22,24.999-0.641,37.409,0.519c-1.798,0.86-3.71,1.5-5.61,2.06c-7.189-0.45-14.399-0.14-21.599-0.19
							c-4.96-0.1-10.12,1.12-14.94-0.4c-3.791-2.06-6.82-5.27-10.571-7.41C379.86,77.75,373.929,74.35,368.73,70z"/>
						<path id="path248" inkscape:connector-curvature="0" fill="#151515" stroke="#151515" stroke-width="0.0938" d="M199.57,77.13
							c1,3.59,3.34,7.51,1.67,11.22c-4.54,1.73-9.53,0.78-14.26,0.99c-14.35-0.28-28.68,0.6-43.03,0.39
							c-25.44-0.06-50.89,0.13-76.33-0.16c-0.84-0.75-1.67-1.53-2.48-2.32c14.21-0.54,28.45-0.14,42.67-0.27
							c7.99,0.05,15.99,0,23.98,0.01c13.33,0.03,26.66-0.02,39.99-0.01c9.58,0.05,19.16-0.021,28.74,0
							C200.49,83.67,200.35,80.35,199.57,77.13z"/>
						<path id="path250" inkscape:connector-curvature="0" fill="#151515" stroke="#151515" stroke-width="0.0938" d="
							M349.631,79.18c0.49,1.67,0.939,3.33,1.48,5c0.501-1.28,0.98-2.57,1.33-3.89c0.49,1.14,0.561,2.44,0.31,3.66
							c-0.18-0.13-0.549-0.37-0.73-0.49c-0.559,1.64-0.468,3.59-1.57,5.01c-2.02,0.87-4.269,0.82-6.421,0.87
							c-10.179,0.01-20.379-0.14-30.559,0.17c-32.02-0.69-64.069-0.06-96.09-0.25c0.11,0.12,0.35,0.35,0.47,0.47l-0.49-0.12
							c-0.8-0.81-1.58-1.62-2.36-2.44c7.59-0.33,15.199-0.13,22.79-0.18c28.66,0,57.32,0,85.98,0.01c8.77-0.01,17.551,0.01,26.32,0
							C349.94,84.39,349.79,81.79,349.631,79.18z"/>
						<path id="path252" inkscape:connector-curvature="0" fill="#151515" stroke="#151515" stroke-width="0.0938" d="
							M350.59,131.74c2.091,5.49,0.66,11.56,1.17,17.301c0.481,2.38-1.359,3.938-3.399,4.62c-42.45,0.149-84.9-0.011-127.351,0.08
							c-2.36,0.2-4.48-0.821-6.39-2.091c8.63-1.419,17.451-0.3,26.16-0.659c9.31-0.01,18.62,0.03,27.93,0
							c17.03-0.03,34.05,0.03,51.081,0.01c10.059-0.01,20.13,0.01,30.19,0C350.321,144.581,349.711,138.12,350.59,131.74
							L350.59,131.74z"/>
					</g>
					<g id="_x23_dededeff">
						<path id="path255" inkscape:connector-curvature="0" fill="#DEDEDE" stroke="#DEDEDE" stroke-width="0.0938" d="M139.19,37.03
							c1.64-0.81,3.41-1.28,5.23-0.86c1.79,0.62,3.54,1.49,5.46,1.58c8.37,0.34,16.76-0.38,25.11,0.37c1.71,0,3.91,0.85,5.08-0.97
							c0.27,0.09,0.82,0.28,1.09,0.37l0.4,0.14l-1.9,1.63c-0.36,0.39-1.07,1.18-1.42,1.57c-2.25-1.15-4.62-2.27-7.2-2.16
							c-8.16-0.03-16.31-0.09-24.46,0.17c1,0.77,1.8,2.31,3.3,2.06c8.04,0,16.1-0.18,24.15,0.02c1.67,0.12,3.56-0.03,4.9,1.19
							c1.22,2.05,0.65,4.54,0.81,6.81c-0.34-0.04-1.02-0.11-1.36-0.14c-6.71-1.3-13.55-0.54-20.33-0.76
							c-7.53-0.33-14.981,1.19-22.51,0.96c0.031-3.4-0.02-6.79-0.03-10.19c3.67,0,7.37,0.08,11.03-0.32
							C144.13,37.81,141.66,37.41,139.19,37.03 M177.23,44.38c-0.91,1.24-0.71,1.96,0.62,2.14
							C178.78,45.27,178.57,44.56,177.23,44.38z"/>
						<path id="path257" inkscape:connector-curvature="0" fill="#DEDEDE" stroke="#DEDEDE" stroke-width="0.0938" d="M490.941,39
							c3.559,0.03,7.109-0.07,10.67,0.07c0.371,0.28,1.13,0.83,1.501,1.11c0.229,0.18,0.688,0.53,0.908,0.71
							c9.531-0.1,19.07,0.12,28.601-0.12l-0.18,0.95c-0.1,0.53-0.311,1.58-0.411,2.11c-0.269,1.27-0.32,2.55-0.14,3.84
							c-9.54,1.11-19.19-0.26-28.739,0.71c-4.032,0.44-8.09,0.62-12.13,0.58C490.961,45.64,490.921,42.32,490.941,39z"/>
						<path id="path259" inkscape:connector-curvature="0" fill="#DEDEDE" stroke="#DEDEDE" stroke-width="0.0938" d="M208.43,41
							c6.53-0.15,13.05-0.06,19.58-0.06c3.299-0.15,6.24,1.76,9.52,1.7c1.96,4.62,2.24,10.28-0.371,14.7
							c-1.538,2.29-4.589,2.77-7.149,2.66c-13.201-0.05-26.401,0.03-39.591-0.03l-0.62-0.46c12.39,0.61,24.83,0.04,37.24,0.3
							c3.41-0.02,7.85,0.26,9.839-3.14c1.661-3.43,0.511-7.38-0.12-10.94l-0.29,1.22c-9.25,0.72-18.55-0.41-27.76,0.75l-0.23-0.02
							C208.49,45.45,208.47,43.22,208.43,41L208.43,41z"/>
						<path id="path261" inkscape:connector-curvature="0" fill="#DEDEDE" stroke="#DEDEDE" stroke-width="0.0938" d="M152.32,65.67
							c10.75-0.18,21.51,0.26,32.25-0.23c1.98,0.57,3.97,1.12,5.92,1.77c-5.52,7.24-12.76,12.91-18.71,19.77
							c-13.33-0.01-26.66,0.04-39.99,0.01C138.29,79.55,146.01,73.27,152.32,65.67z"/>
					</g>
					<g id="_x23_e3e3e3ff">
						<path id="path264" inkscape:connector-curvature="0" fill="#E3E3E3" stroke="#E3E3E3" stroke-width="0.0938" d="M301.14,37.05
							c1.441-0.51,2.881-1.3,4.46-0.91c1.39,0.78,2.711,1.67,4.041,2.56c-0.22,2.17-0.491,4.33-0.599,6.51
							c-3.561,0.07-7.111,0.11-10.661,0.15c-0.191,3.08-0.271,6.23-1.21,9.2c0.25-5.26,0.07-10.53,0.04-15.79
							c3.46,0.01,6.92,0.03,10.37-0.28C305.46,37.89,303.311,37.42,301.14,37.05z"/>
						<path id="path266" inkscape:connector-curvature="0" fill="#E3E3E3" stroke="#E3E3E3" stroke-width="0.0938" d="
							M409.011,38.98c3.85-0.09,7.699-0.11,11.56-0.05c0,2.05,0,4.1,0.02,6.15c-3.872,0.09-7.73,0.09-11.591,0.01
							C409,43.05,409.011,41.01,409.011,38.98z"/>
					</g>
					<g id="_x23_616161f7">
						
							<path id="path269" inkscape:connector-curvature="0" opacity="0.97" fill="#616161" stroke="#616161" stroke-width="0.0938" enable-background="new    " d="
							M494.579,37.01c1.281-0.18,2.56-0.37,3.861-0.549c0.02,0.24,0.071,0.73,0.091,0.97c1.35,0.34,2.7,0.69,4.049,1.06l0.531,1.69
							c-0.371-0.28-1.13-0.83-1.501-1.11c-3.561-0.14-7.111-0.04-10.67-0.07c-0.02,3.32,0.02,6.64,0.08,9.96
							c0.12,2.99-0.491,5.93-1.45,8.75c-0.591-1.37-1.13-2.74-1.652-4.12c0.542-0.44,1.621-1.3,2.16-1.74
							c0.702-4.33,0.22-8.75,0.311-13.12C491.78,38.15,493.17,37.56,494.579,37.01z"/>
					</g>
					<g id="_x23_1f1f1fff">
						<path id="path272" inkscape:connector-curvature="0" fill="#1F1F1F" stroke="#1F1F1F" stroke-width="0.0938" d="M102.26,37.25
							c5.33-0.78,10.75-0.9,16.08-0.11c-4.18,2.4-9.15,2.09-13.78,1.74C103.99,38.48,102.84,37.66,102.26,37.25z"/>
						<path id="path274" inkscape:connector-curvature="0" fill="#1F1F1F" stroke="#1F1F1F" stroke-width="0.0938" d="
							M63.36,127.391c1.26-1.17,3.12-0.79,4.67-0.91c30.65,0.1,61.31,0.009,91.96,0.069c1.38,0.301,2.76,0.591,4.15,0.881
							c-1.31,0.719-2.7,1.299-4.11,1.769c-3.01,0.32-6.04,0.291-9.06,0.28c-28.63-0.13-57.27,0.12-85.9-0.19
							c-0.22,5.94,0.12,11.901-0.16,17.839c0.11,2.1-1.57,3.541-2.64,5.131c-0.58-5.75-0.13-11.55-0.3-17.33
							C62.09,132.41,61.52,129.45,63.36,127.391L63.36,127.391z"/>
					</g>
					<g id="_x23_cfcfcfff">
						<path id="path277" inkscape:connector-curvature="0" fill="#CFCFCF" stroke="#CFCFCF" stroke-width="0.0938" d="M204.55,39.09
							c9.59-2.62,19.64-0.71,29.44-1.32c0.19,0.29,0.569,0.87,0.76,1.16c-9.431,0.04-18.901-0.81-28.291,0.48
							C205.98,39.33,205.02,39.17,204.55,39.09z"/>
						<path id="path279" inkscape:connector-curvature="0" fill="#CFCFCF" stroke="#CFCFCF" stroke-width="0.0938" d="
							M310.251,40.32c0.44-0.17,1.299-0.5,1.729-0.66c0.01,2.4-0.011,4.8-0.151,7.19c-1.909,2.19-2.64,4.99-1.279,7.67
							c0.22-1.48,0.41-2.96,0.579-4.45c0.36-0.09,1.07-0.26,1.421-0.35c7.12,0.48,14.248,0.33,21.369,0.02c0-0.65,0-1.96,0-2.62
							c3.88,0.09,7.76,0.1,11.64,0.01c-0.19,3.26,0.401,7.59-2.761,9.61c-10.53,0.6-21.12-0.04-31.669,0.31
							c-0.491-0.95-0.97-1.9-1.45-2.86c-0.26,0.67-0.78,2.01-1.04,2.68c-3.76,0.31-7.62-0.35-11.27,0.87
							c1.769,0.94,3.54,2.29,5.68,2.07c3.61,0.18,7.221-2.01,10.731-0.37l0.929,0.28c-6.57-0.16-13.311,1.11-19.75-0.62
							c0.39-1.67,1.22-3.15,2.21-4.54c0.939-2.97,1.019-6.12,1.21-9.2c3.55-0.04,7.1-0.08,10.661-0.15
							c0.089,0.73,0.28,2.2,0.38,2.93C310.69,45.69,310.5,42.96,310.251,40.32z"/>
						<path id="path281" inkscape:connector-curvature="0" fill="#CFCFCF" stroke="#CFCFCF" stroke-width="0.0938" d="M197.67,41.93
							c0.25,0.13,0.76,0.38,1.02,0.51c-0.13,1.57-0.15,3.14,0.141,4.69c-0.19,0.44-0.56,1.31-0.74,1.74
							c-0.27,0.29-0.81,0.87-1.07,1.16c8.33-0.47,16.671,0.21,25.01-0.1c-0.09-0.4-0.27-1.21-0.36-1.61
							c-4.31,0.9-8.79,0.92-12.96-0.62c9.21-1.16,18.51-0.03,27.76-0.75c-0.74,3.18,0.261,7.52-2.841,9.61
							c-3.79,0.91-7.769,0.24-11.629,0.41c-11.67,0.15-23.35-0.32-35.01,0.27c0.92,0.78,1.85,1.54,2.81,2.27l0.62,0.46
							c-2.46,0.08-5.06-0.87-6.16-3.24c1.53-3.33,1.62-7.01,1.51-10.62c3.55,0.12,7.1,0.12,10.65,0.01
							C196.83,44.72,197.24,43.32,197.67,41.93z"/>
						<path id="path283" inkscape:connector-curvature="0" fill="#CFCFCF" stroke="#CFCFCF" stroke-width="0.0938" d="M164.86,93.89
							c10.921,0.09,21.86,0.35,32.771-0.12c0.599,0.12,1.82,0.37,2.42,0.5c0.92,0.28,1.81,0.62,2.69,1.01
							c1.03,12.15-0.15,24.48,0.68,36.671c-0.12,2.46-0.581,4.9-1.2,7.289c0.73-7.739-0.13-15.49,0.06-23.24
							c-0.01-5.369,0.45-10.73,0.13-16.089c0.09-1.33-1.06-2.16-1.7-3.18c-0.49,6.29-0.18,12.609-0.24,18.91
							c-5.56,4.36-10.17,9.759-15.29,14.6c-6.77,6.95-13.86,13.579-20.41,20.74c-18.98-0.01-37.96,0.05-56.94,0.01
							c6.56-7.151,13.7-13.76,20.38-20.79c6.59,0.08,13.18-0.15,19.76-0.13c4.03-0.011,8.13,0.17,12.06-0.87
							c1.41-0.471,2.8-1.05,4.11-1.769c0.18-0.431,0.54-1.281,0.72-1.711c-1.52-0.45-3.05-0.88-4.55-1.391l2.19-1.299
							c-7.29-0.551-14.6-0.111-21.9-0.3c5.91-8.271,14.81-13.921,20.45-22.381C162.99,98.63,164.32,96.43,164.86,93.89z"/>
					</g>
					<g id="_x23_bebebeff">
						<path id="path286" inkscape:connector-curvature="0" fill="#BEBEBE" stroke="#BEBEBE" stroke-width="0.0938" d="M254.05,38.25
							c0.36,0.24,1.061,0.72,1.421,0.96c6.6-0.03,13.209,0.14,19.81-0.28l1.18,0.67c-5.75-0.34-11.52,0.17-17.27-0.27
							c-0.75,0.71-1.46,1.45-2.14,2.23c-0.529,0.85-1.03,1.73-1.54,2.6l-1.021,0.71C254.389,42.66,254.221,40.46,254.05,38.25z"/>
					</g>
					<g id="_x23_4c4c4cff">
						<path id="path289" inkscape:connector-curvature="0" fill="#4C4C4C" stroke="#4C4C4C" stroke-width="0.0938" d="M331.49,39.54
							c3.7-2.69,8.609-2.85,12.7-0.92c-3.4,0.4-6.82,0.42-10.23,0.36c-0.02,2.72-0.04,5.43-0.04,8.14c0,0.66,0,1.97,0,2.62
							c-7.121,0.31-14.25,0.46-21.369-0.02c3.37-1.28,6.96-0.68,10.45-0.53c3.57,0.2,6.929-1.19,10.259-2.26
							c0.02-2.33,0.04-4.66-0.089-6.99L331.49,39.54L331.49,39.54z"/>
					</g>
					<g id="_x23_252525ff">
						<path id="path292" inkscape:connector-curvature="0" fill="#252525" stroke="#252525" stroke-width="0.0938" d="M206.46,39.41
							c9.39-1.29,18.86-0.44,28.291-0.48c1.23,1.21,2.42,2.45,3.55,3.76l-0.77-0.05c-3.28,0.06-6.221-1.85-9.52-1.7
							c-6.53,0-13.05-0.09-19.58,0.06c0.04,2.22,0.06,4.45,0.05,6.68l0.23,0.02c4.17,1.54,8.65,1.52,12.96,0.62
							c0.09,0.4,0.27,1.21,0.36,1.61c-8.34,0.31-16.68-0.37-25.01,0.1c0.26-0.29,0.8-0.87,1.07-1.16c0.69-0.65,1.42-1.27,2.15-1.89
							c1.73,0.02,3.47,0.03,5.21,0.03c0.05-2.52,0.13-5.04,0.23-7.57L206.46,39.41z"/>
					</g>
					<g id="_x23_878787f7">
						
							<path id="path298" inkscape:connector-curvature="0" opacity="0.97" fill="#878787" stroke="#878787" stroke-width="0.0938" enable-background="new    " d="
							M76.28,40.04c1.17-0.11,2.34-0.21,3.52-0.33c-2.31,5.59-0.58,11.75-0.43,17.57c0.02,1.62-1.89,2.33-3.19,2.65
							c-2.94,0.17-5.9,0.13-8.84,0.06l-0.53-0.8c3.58,0.35,7.82,1.19,10.76-1.5c0.47-4.84-0.18-9.71,0.081-14.57
							c-0.29,0.18-0.86,0.54-1.15,0.72C76.44,42.57,76.37,41.3,76.28,40.04z"/>
					</g>
					<g id="_x23_ccccccff">
						<path id="path301" inkscape:connector-curvature="0" fill="#CCCCCC" stroke="#CCCCCC" stroke-width="0.0938" d="M105.37,40.98
							c0.28-0.37,0.84-1.12,1.12-1.5c0.53,4.51,0.17,9.05,0.28,13.57c-0.09,1.92,0.34,4.09-0.88,5.76c-1.23,0.98-2.9,0.93-4.37,1.18
							l0.91-0.46c3.33-1,3.45-4.55,3.19-7.44C105.79,48.38,105.28,44.68,105.37,40.98z"/>
						<path id="path303" inkscape:connector-curvature="0" fill="#CCCCCC" stroke="#CCCCCC" stroke-width="0.0938" d="M351.96,52.07
							c3.911-0.01,7.821-0.14,11.721-0.4c0.03,1.77,0.06,3.54,0.09,5.32c-3.73-0.02-7.451-0.05-11.17,0.16
							c1.81,3.52,6.231,2.76,9.461,2.31c2.969-0.45,3.499-5.01,6.88-4.32c6.23-0.03,12.479,0.01,18.7,0.62l-1.27-1.8
							c1.01,0.51,2.009,1.02,2.999,1.58l-0.34,1.25c-0.05,0.21-0.171,0.64-0.22,0.86c-0.84-0.45-1.641-0.94-2.48-1.37
							c-0.601-0.09-1.801-0.27-2.411-0.35c-5.02-0.73-10.13-0.41-15.19-0.42c-0.38,0.15-1.14,0.46-1.52,0.61
							c-0.81,1.15-1.04,2.98-2.601,3.37c-4.269,0.95-8.689,0.3-13.01,0.56c-1.98-1.53-0.799-3.481,0.02-5.31
							c0.051-0.2,0.14-0.62,0.191-0.82L351.96,52.07L351.96,52.07z"/>
						<path id="path305" inkscape:connector-curvature="0" fill="#CCCCCC" stroke="#CCCCCC" stroke-width="0.0938" d="M314.42,93.93
							c11.069,0.15,22.13,0.08,33.2,0.02c1.779,0.19,3.6,0.4,5.349-0.15c-0.049,6.15,0.361,12.52-1.819,18.39
							c-1.27,3.921-3.959,7.26-7.321,9.591c7.301-5.881,9.93-16.38,6.751-25.081c-0.81,6.701-0.401,14.31-5.131,19.74
							c-4.22,5.081-11.18,6.211-17.421,6.311c-26.759,0.08-53.529-0.111-80.289,0c6.93-1.872,14.191-0.06,21.231-1.07
							c1.809-0.521,3.009-2.171,4.369-3.381c5.56-5.819,11.51-11.28,16.9-17.259c6.559-0.26,13.231,0.66,19.71-0.59
							C312.979,99.75,313.93,96.62,314.42,93.93L314.42,93.93z"/>
					</g>
					<g id="_x23_cececeff">
						<path id="path308" inkscape:connector-curvature="0" fill="#CECECE" stroke="#CECECE" stroke-width="0.0938" d="M131.71,42.94
							c0.15-0.52,0.45-1.56,0.6-2.08c1.51,4.41-0.2,9.71,3.04,13.47c0.1-1.77,0.16-3.54,0.19-5.32c7.53,0.23,14.981-1.29,22.51-0.96
							c6.78,0.22,13.62-0.54,20.33,0.76c-10.24,0.74-20.57-0.57-30.76,0.73c11.28,0.77,22.67,0.67,33.961-0.19
							c0.23,2.87,0.92,5.88,0.02,8.69c-0.84,2.25-3.66,1.84-5.57,1.95c-12.37-0.09-24.74,0.15-37.1-0.12
							c-1.95,0.16-3.28-1.3-4.5-2.55c-1.13,1.41-2.46,2.92-4.49,2.61c-4.19-0.11-8.68,0.74-12.63-1.01
							c0.02-1.76,1.05-3.16,2.03-4.52c0.14-2.74,0.16-5.48,0.16-8.22c3.88,0.11,7.77,0.13,11.65,0c0.17,3.6,0.24,7.2,0.09,10.8
							c-3.89-0.04-7.85-0.29-11.67,0.71c3.65,2.7,9.51,3.19,13.03,0.04C132.82,52.8,130.93,47.92,131.71,42.94 M179.36,52.57
							c-0.19,1.48-0.35,2.95-0.48,4.43c-13.99,0.11-28-0.38-41.97,0.27c1.42,1.27,3.02,2.6,5.07,2.43
							c10.68,0.13,21.38-0.02,32.06,0.07c2.391,0.08,5.38-0.31,6.6-2.67C180.98,55.46,180.78,53.65,179.36,52.57z"/>
						<path id="path310" inkscape:connector-curvature="0" fill="#CECECE" stroke="#CECECE" stroke-width="0.0938" d="
							M532.441,41.72c0.619-0.19,1.86-0.57,2.489-0.75c0.04,2.04,0.16,4.1,0.071,6.15c-0.071,0.38-0.231,1.15-0.3,1.53
							c-0.95,0.19-1.891,0.37-2.831,0.54c-9.74-0.18-19.539-0.6-29.25,0.25c9.22,1.1,18.6,0.48,27.869,0.38
							c2.14,0.15,4.28,0.38,6.42,0.62c-0.009,2.28,0,4.56,0.131,6.84l0.029,0.8c-1.39,1.03-2.82,2.39-4.789,2.05l0.5-0.37
							c3.079-1.16,4.021-4.78,1.889-7.29c-0.22,1.5-0.4,3-0.548,4.5c-14.142-0.08-28.281,0.19-42.421-0.15
							c1.35,1.11,2.74,2.19,4.169,3.21c-2.389,0.11-4.54-0.76-6.298-2.32c0.959-2.82,1.57-5.76,1.45-8.75
							c4.041,0.04,8.099-0.14,12.13-0.58c9.548-0.97,19.199,0.4,28.739-0.71c2.191-0.02,2.799-4.19,0.14-3.84
							C532.13,43.3,532.341,42.25,532.441,41.72L532.441,41.72z"/>
						<path id="path312" inkscape:connector-curvature="0" fill="#CECECE" stroke="#CECECE" stroke-width="0.0938" d="
							M352.019,83.46c0.181,0.12,0.551,0.36,0.73,0.49c1.11,2.61-0.42,6.41-3.68,6.01c-11.45-0.07-22.94,0.33-34.37-0.21l-1.23-0.24
							c10.18-0.31,20.38-0.16,30.559-0.17c2.151-0.05,4.4,0,6.421-0.87C351.551,87.05,351.46,85.1,352.019,83.46L352.019,83.46z"/>
					</g>
					<g id="_x23_262626ff">
						<path id="path315" inkscape:connector-curvature="0" fill="#262626" stroke="#262626" stroke-width="0.0938" d="M400.54,41.41
							c1.009,2.57,1.5,5.29,2.09,7.97c-0.011,0.73-0.211,1.43-0.61,2.09c0.411,0.67,0.83,1.33,1.25,2.01
							c1.29,1.19,1.83,2.78,1.96,4.5l-0.251-0.41c-1.199-2.08-2.569-4.12-4.559-5.52c-0.541,0.8-1.01,1.63-1.431,2.49
							c-0.879-0.54-1.729-1.11-2.589-1.65C400.79,50.68,399.851,45.44,400.54,41.41L400.54,41.41z"/>
						<path id="path317" inkscape:connector-curvature="0" fill="#262626" stroke="#262626" stroke-width="0.0938" d="
							M502.621,49.44c9.711-0.85,19.51-0.43,29.25-0.25l-1.381,0.63C521.22,49.92,511.841,50.54,502.621,49.44z"/>
					</g>
					<g id="_x23_d0d0d0ff">
						<path id="path320" inkscape:connector-curvature="0" fill="#D0D0D0" stroke="#D0D0D0" stroke-width="0.0938" d="M438.489,42.3
							c1.25,1.47,2.14,3.31,3.712,4.48c4.258,0.86,8.638,0.24,12.939,0.06c0.539,0.75,1.121,1.46,1.74,2.15
							c0.531-0.71,1.05-1.44,1.55-2.19c4.62,0.32,9.251,0.42,13.891,0.479c-2,3.25-4.041,6.48-6.101,9.7
							c-6.58,0.3-13.289-0.78-19.761,0.69c2.24,1.46,4.8,2.3,7.502,2.11c5.43-0.17,11.6,1.11,16.029-2.87
							c-1.279,2.08-3.479,3.35-5.97,3.06c-6.021-0.23-12.259,0.71-18.14-0.7c-3.71-4.88-6.389-10.51-9.999-15.49
							C436.531,43.41,437.841,42.67,438.489,42.3L438.489,42.3z"/>
					</g>
					<g id="_x23_c2c2c2ff">
						<path id="path323" inkscape:connector-curvature="0" fill="#C2C2C2" stroke="#C2C2C2" stroke-width="0.0938" d="M292.41,42.58
							c0.73,4.77,0.619,9.61,0.99,14.42c0.089-0.2,0.26-0.6,0.34-0.8l0.679-1.36c0.091,0.7,0.271,2.09,0.36,2.79l-0.949-0.39
							c-2.46,4.4-8.411,2.25-12.5,2.77l-0.44-0.62c3.75,0.22,9.129,1.55,11.409-2.42C292.479,52.17,291.209,47.35,292.41,42.58z"/>
						<path id="path325" inkscape:connector-curvature="0" fill="#C2C2C2" stroke="#C2C2C2" stroke-width="0.0938" d="
							M493.931,89.69c4.029,0.21,8.15,0.09,11.959-1.39c-2.491,2.06-5.881,1.66-8.891,1.71c-10.11-0.16-20.258,0.21-30.349-0.16
							l-1.241-0.53C474.921,89.35,484.429,89.19,493.931,89.69L493.931,89.69z"/>
						<path id="path327" inkscape:connector-curvature="0" fill="#C2C2C2" stroke="#C2C2C2" stroke-width="0.0938" d="
							M408.461,95.38c1.49,1.01,2.919,2.12,4.369,3.19l-2.069,0.05c1.03,0.98,2.109,1.97,3.159,2.96l0.73,1.48
							c-2.999-1.36-5.499-3.57-8.35-5.181C407.011,97.05,407.74,96.21,408.461,95.38z"/>
						<path id="path329" inkscape:connector-curvature="0" fill="#C2C2C2" stroke="#C2C2C2" stroke-width="0.0938" d="M223.9,102.85
							c5.77-2.19,12.049-1.81,18.11-1.85c16.07,0.05,32.15-0.04,48.23,0.04c-5.39,5.979-11.34,11.441-16.9,17.259
							c-1.36,1.21-2.56,2.861-4.369,3.381c-7.04,1.01-14.301-0.801-21.231,1.07c-2.16,0.569-3.37,2.5-4.52,4.229
							c1.561-0.411,3.119-0.85,4.68-1.28l-0.819,0.909c-1.331,1.01-2.681,2.011-4.032,3.002c6.101-0.12,12.19-0.181,18.291-0.111
							c-6.201,7.77-14.02,14.031-20.56,21.49c-8.709,0.36-17.53-0.759-26.16,0.659c1.91,1.27,4.03,2.291,6.39,2.091
							c42.451-0.091,84.901,0.069,127.351-0.08l-0.68,0.309c-43.52,0.02-87.04,0.04-130.55-0.009c-1.711,0.16-3.34-0.351-4.86-1.081
							c0-1.799,1.06-3.229,2.06-4.62c0.42-9.389-0.01-18.789,0.21-28.179c0.09-3.039,0.83-6,1.75-8.88
							C218.35,108.069,220.04,104.07,223.9,102.85z"/>
						<path id="path331" inkscape:connector-curvature="0" fill="#C2C2C2" stroke="#C2C2C2" stroke-width="0.0938" d="M470.6,108.54
							c0.61-0.431,1.23-0.859,1.849-1.29l-0.48,1.59c1.889-0.46,3.841-0.819,5.679-1.5c-0.04,0.51-0.109,1.531-0.149,2.039
							c-1.23,0.351-2.44,0.742-3.63,1.17C472.789,109.86,471.679,109.199,470.6,108.54z"/>
						<path id="path333" inkscape:connector-curvature="0" fill="#C2C2C2" stroke="#C2C2C2" stroke-width="0.0938" d="
							M329.07,124.911c3.37,0.04,6.729-0.291,10.039-0.87c-7.129,2.349-14.739,1.64-22.12,1.749c-22.97-0.09-45.95,0.19-68.92-0.14
							c1.9-0.599,3.9-0.79,5.9-0.77C279,125.011,304.04,124.84,329.07,124.911z"/>
					</g>
					<g id="_x23_434343e3">
						
							<path id="path336" inkscape:connector-curvature="0" opacity="0.89" fill="#434343" stroke="#434343" stroke-width="0.0938" enable-background="new    " d="
							M348.93,42.64c1.2,3.72-0.709,8.71,2.88,11.28c-0.051,0.2-0.14,0.62-0.191,0.82c-0.819,1.83-2,3.78-0.02,5.31
							c-3.119-1.099-2.62-4.51-2.829-7.17l-0.669-0.93c0-0.09,0.009-0.29,0.009-0.38C348.689,48.63,348.82,45.63,348.93,42.64z"/>
					</g>
					<g id="_x23_4b4b4bff">
						<path id="path339" inkscape:connector-curvature="0" fill="#4B4B4B" stroke="#4B4B4B" stroke-width="0.0938" d="M177.23,44.38
							c1.34,0.18,1.55,0.89,0.62,2.14C176.52,46.34,176.32,45.62,177.23,44.38z"/>
						<path id="path341" inkscape:connector-curvature="0" fill="#4B4B4B" stroke="#4B4B4B" stroke-width="0.0938" d="M310.91,96.36
							c1.8-1.6,3.199-4.38,6.02-3.96c7.7-0.06,15.391,0.16,23.09-0.04c2.591,0.05,5.58-0.47,7.6,1.59
							c-11.07,0.06-22.131,0.13-33.2-0.02c-0.491,2.69-1.441,5.82-4.47,6.52c-6.479,1.25-13.151,0.33-19.71,0.59
							c-16.08-0.08-32.16,0.01-48.23-0.04c-6.061,0.04-12.34-0.34-18.11,1.85c-3.86,1.22-5.55,5.219-7.61,8.35
							c0.19-1.94,0.25-3.88,0.3-5.819c2.99-3.121,6.85-5.601,11.181-6.241c22.7,0.73,45.439,0.05,68.16,0.38
							c4.23-0.08,8.739,0.64,12.68-1.32C309.501,97.76,310.211,97.05,310.91,96.36z"/>
					</g>
					<g id="_x23_d4d4d4ff">
						<path id="path344" inkscape:connector-curvature="0" fill="#D4D4D4" stroke="#D4D4D4" stroke-width="0.0938" d="
							M254.489,44.87l1.021-0.71c-0.651,2-0.501,4.08-0.051,6.11c0.411-1.6,0.75-3.21,1.09-4.83c6.791-0.16,13.6,0.21,20.38-0.35
							c0.5,0.1,1.481,0.29,1.97,0.39c3.9,0.91,7.93,0.59,11.89,0.56c0.02,3.64-0.04,7.28-0.089,10.92
							c-3.771-0.05-7.531-0.03-11.291,0.17c0.371,0.559,1.11,1.699,1.481,2.259l0.44,0.62c-3.13,0.641-5.259-1.719-5.659-4.61
							c-4.911,0.18-9.822,0.05-14.73,0.13c-1.431-0.28-2.571,0.64-3.761,1.21c-0.42,2-2.109,3.44-4.2,3.2
							c-4.229-0.1-8.739,0.73-12.71-1.05c2.16-4,2.68-8.43,2.28-12.93C246.49,45.76,250.899,46.97,254.489,44.87 M254.389,50.99
							c-0.089,1.99-0.149,3.97-0.189,5.96c-3.801,0.27-7.89-0.8-11.46,0.87c3.949,3.04,12.55,3.35,13.96-2.57
							c6.94-0.23,13.96,0.59,20.81-0.84c0.07-0.48,0.23-1.45,0.3-1.94c-7.02,0.06-14.04-0.04-21.061,0.07
							C255.96,52.02,255.171,51.5,254.389,50.99L254.389,50.99z"/>
					</g>
					<g id="_x23_323232ff">
						<path id="path347" inkscape:connector-curvature="0" fill="#323232" stroke="#323232" stroke-width="0.0938" d="M532.03,43.83
							c2.66-0.35,2.051,3.82-0.14,3.84C531.71,46.38,531.761,45.1,532.03,43.83z"/>
						<path id="path349" inkscape:connector-curvature="0" fill="#323232" stroke="#323232" stroke-width="0.0938" d="
							M403.721,93.96c0.43-1.92,2.409-2.89,4.24-2.85c27.138-0.28,54.31,0.26,81.439-0.27c0.22,0.53,0.651,1.61,0.87,2.14
							c-0.3,0.26-0.89,0.77-1.181,1.02c-9.28-0.04-18.56-0.09-27.84-0.08c-18.28,0.02-36.569-0.1-54.859,0.09
							c0.521,0.35,1.56,1.03,2.07,1.37c-0.72,0.83-1.45,1.67-2.16,2.5C405.07,96.91,403.201,95.84,403.721,93.96L403.721,93.96z"/>
					</g>
					<g id="_x23_d1d1d1ff">
						<path id="path352" inkscape:connector-curvature="0" fill="#D1D1D1" stroke="#D1D1D1" stroke-width="0.0938" d="M92.37,46.11
							c3.78,0.07,7.56,0.08,11.34,0.02c-0.09,3.6-0.01,7.2-0.19,10.8c-3.15,0.12-6.3,0.04-9.44-0.22c-0.22,0.38-0.66,1.14-0.87,1.52
							c-0.4,0.11-1.18,0.33-1.58,0.45c-1.43-1.04-0.13-2.53,0.18-3.79C92.8,52.08,92.26,49.02,92.37,46.11z"/>
						<path id="path354" inkscape:connector-curvature="0" fill="#D1D1D1" stroke="#D1D1D1" stroke-width="0.0938" d="M65.01,47.11
							c3.86-0.07,7.72-0.14,11.58-0.17c0.03,3.34-0.07,6.68-0.13,10.01c-3.63-0.02-7.27,0-10.899,0.2c0.31,0.51,0.94,1.53,1.25,2.04
							l0.53,0.8c-0.61-0.01-1.84-0.03-2.45-0.03c-0.47-0.44-1.41-1.3-1.87-1.73c0.64-1.109,1.26-2.22,1.86-3.34
							c0.03-0.37,0.1-1.11,0.13-1.48C65.05,51.31,65.02,49.21,65.01,47.11z"/>
						<path id="path356" inkscape:connector-curvature="0" fill="#D1D1D1" stroke="#D1D1D1" stroke-width="0.0938" d="M289.38,129.5
							c17-0.02,34-0.06,51-0.029c-6.219,7.769-14.14,13.96-20.589,21.529c-17.03,0.02-34.05-0.04-51.081-0.01
							C275.38,143.611,283.131,137.24,289.38,129.5z"/>
					</g>
					<g id="_x23_4242429c">
						
							<path id="path359" inkscape:connector-curvature="0" opacity="0.61" fill="#424242" stroke="#424242" stroke-width="0.0938" enable-background="new    " d="
							M475.58,47.73c0.04-0.06,0.12-0.19,0.171-0.25C475.7,47.54,475.62,47.67,475.58,47.73z"/>
					</g>
					<g id="_x23_575757e1">
						
							<path id="path362" inkscape:connector-curvature="0" opacity="0.88" fill="#575757" stroke="#575757" stroke-width="0.0938" enable-background="new    " d="
							M61.93,54.78c1.02-0.46,2.05-0.92,3.08-1.37c-0.031,0.37-0.1,1.11-0.13,1.48c-0.6,1.12-1.22,2.23-1.86,3.34
							c0.46,0.43,1.4,1.29,1.87,1.73C62.33,59.52,61.83,56.98,61.93,54.78z"/>
					</g>
					<g id="_x23_1e1e1eff">
						<path id="path365" inkscape:connector-curvature="0" fill="#1E1E1E" stroke="#1E1E1E" stroke-width="0.0938" d="M103.6,56.92
							c0.49-1.68,1.01-3.37,2.02-4.83c0.26,2.89,0.14,6.44-3.19,7.44c-3.13,0.05-6.24-0.38-9.22-1.3c0.21-0.38,0.65-1.14,0.87-1.52
							c3.14,0.26,6.29,0.34,9.44,0.22L103.6,56.92z"/>
					</g>
					<g id="_x23_161616ff">
						<path id="path368" inkscape:connector-curvature="0" fill="#161616" stroke="#161616" stroke-width="0.0938" d="M179.36,52.57
							c1.42,1.08,1.62,2.889,1.28,4.529c-1.22,2.361-4.21,2.75-6.6,2.67c-10.68-0.09-21.38,0.06-32.06-0.07
							c-2.05,0.17-3.65-1.16-5.07-2.43c13.97-0.65,27.98-0.16,41.97-0.27C179.01,55.52,179.17,54.05,179.36,52.57L179.36,52.57z"/>
					</g>
					<g id="_x23_5e5e5edc">
						
							<path id="path371" inkscape:connector-curvature="0" opacity="0.86" fill="#5E5E5E" stroke="#5E5E5E" stroke-width="0.0938" enable-background="new    " d="
							M405.89,54.9c1.01-0.2,2.031-0.4,3.05-0.601c-0.52,1.32-1.11,2.61-1.681,3.91c0.381,0.46,1.13,1.38,1.511,1.84
							C406.43,59.36,405.801,57.09,405.89,54.9z"/>
					</g>
					<g id="_x23_797979d9">
						
							<path id="path374" inkscape:connector-curvature="0" opacity="0.85" fill="#797979" stroke="#797979" stroke-width="0.0938" enable-background="new    " d="
							M383.92,55.93c0.61,0.081,1.81,0.26,2.411,0.35c0.839,0.43,1.64,0.92,2.48,1.37c3.479,2.51,8.11,2.52,11.85,0.57l-0.41,1.65
							c0.67-0.15,2.009-0.45,2.68-0.6c-3.45,1.37-7.26,0.54-10.87,0.77C388.74,60.51,386.18,57.96,383.92,55.93z"/>
					</g>
					<g id="_x23_212121ff">
						<path id="path377" inkscape:connector-curvature="0" fill="#212121" stroke="#212121" stroke-width="0.0938" d="
							M388.811,57.65c0.049-0.22,0.17-0.65,0.22-0.86c3.981,0.13,7.97,0.17,11.96,0.17l-0.33,1.26
							C396.92,60.17,392.289,60.16,388.811,57.65z"/>
					</g>
					<g id="_x23_282828ff">
						<path id="path385" inkscape:connector-curvature="0" fill="#282828" stroke="#282828" stroke-width="0.0938" d="M361.74,64.52
							c0.461-1.81,2.581-2,4.13-2.01c13.06,0,26.13,0.01,39.2,0c2.58-0.26,4.75,1.28,6.789,2.65
							c9.3,6.379,18.702,12.609,28.031,18.949c1.709,0.81,1.081,2.83,0.919,4.29l-0.069-0.81c-0.031-0.49-0.1-1.46-0.131-1.95
							c-9.46-2.07-16.469-9.19-24.55-14.01c-4.12-2.45-7.799-6.74-13.02-6.23c-12.87,0.15-25.741-0.17-38.599,0.25
							c0.569,0.48,1.7,1.43,2.269,1.9c-0.769,0.64-1.53,1.29-2.28,1.94l-0.34,0.29C362.64,68.47,361.02,66.61,361.74,64.52z"/>
						<path id="path387" inkscape:connector-curvature="0" fill="#282828" stroke="#282828" stroke-width="0.0938" d="
							M487.431,64.32c1.63-1.15,3.519-1.99,5.559-1.81c12.67-0.01,25.331,0.03,38.001-0.02c1.55,0.06,3.29-0.1,4.649,0.85
							c1.381,1.4,0.491,3.21,0.04,4.79c-0.009-0.68-0.04-2.06-0.049-2.75c-15.301,0.2-30.61-0.1-45.911,0.15
							c-6.98,5.09-14.359,9.61-21.43,14.58c-2.68,2.08-5.199,4.36-8.03,6.24c0.031,0.75,0.091,2.25,0.12,3.01
							c-3.039,1.05-5.029-3.81-2.209-5.25C467.89,77.47,477.711,70.96,487.431,64.32z"/>
					</g>
					<g id="_x23_686868ff">
						<path id="path390" inkscape:connector-curvature="0" fill="#686868" stroke="#686868" stroke-width="0.0938" d="M65.34,64.45
							c37.57,0.21,75.15,0.12,112.73,0.05c1.65,0.02,3.31,0.1,4.95,0.35c0.39,0.15,1.16,0.44,1.55,0.59
							c-10.74,0.49-21.5,0.05-32.25,0.23c-8.02,0-16.03-0.03-24.04,0.01c-21.1-0.13-42.2,0.09-63.3-0.17
							C65.07,65.24,65.25,64.72,65.34,64.45z"/>
					</g>
					<g id="_x23_5f5f5fff">
						<path id="path393" inkscape:connector-curvature="0" fill="#5F5F5F" stroke="#5F5F5F" stroke-width="0.0938" d="M214.43,64.28
							c37.86,0.49,75.74,0.04,113.599,0.25c1.521,0.1,3.01,0.45,4.5,0.82c-24.729,0.76-49.49,0.05-74.219,0.32
							c-14.63-0.07-29.249,0.05-43.87-0.2C214.43,65.17,214.43,64.58,214.43,64.28z"/>
					</g>
					<g id="_x23_f6f6f6ff">
						<path id="path404" inkscape:connector-curvature="0" fill="#F6F6F6" stroke="#F6F6F6" stroke-width="0.0938" d="M489.72,65.53
							c15.301-0.25,30.61,0.05,45.911-0.15c0.009,0.69,0.04,2.07,0.049,2.75c-1.079,0.69-2.14,1.4-3.179,2.1
							c0.029-0.79,0.109-2.38,0.149-3.18c-10.35,5.98-19.81,13.4-30,19.63c-7.149,0.79-14.459,0.08-21.67,0.31
							c-6.309,0.27-12.759-0.76-18.959,0.82c0.85,0.38,2.54,1.13,3.39,1.51l1.241,0.53c-2.04,0.03-4.06,0.03-6.081-0.05l-0.191-0.44
							c-0.029-0.76-0.089-2.26-0.12-3.01c2.831-1.88,5.35-4.16,8.03-6.24C475.36,75.14,482.74,70.62,489.72,65.53z"/>
					</g>
					<g id="_x23_f2f2f2ff">
						<path id="path412" inkscape:connector-curvature="0" fill="#F2F2F2" stroke="#F2F2F2" stroke-width="0.0938" d="M64.98,65.51
							c21.1,0.26,42.2,0.04,63.3,0.17c-6.37,7.521-14.03,13.83-20.47,21.3c-14.22,0.13-28.46-0.27-42.67,0.27
							c0.81,0.79,1.64,1.57,2.48,2.32l0.62,0.31c-0.87,0.03-2.61,0.08-3.48,0.1c-0.33-0.45-0.99-1.36-1.32-1.81
							c0.52-1.23,1.06-2.45,1.51-3.71C65.09,78.15,64.93,71.83,64.98,65.51L64.98,65.51z"/>
					</g>
					<g id="_x23_e7e7e7ff">
						<path id="path415" inkscape:connector-curvature="0" fill="#E7E7E7" stroke="#E7E7E7" stroke-width="0.0938" d="M128.28,65.68
							c8.01-0.04,16.02-0.01,24.04-0.01c-6.31,7.6-14.03,13.88-20.53,21.32c-7.99-0.01-15.99,0.04-23.98-0.01
							C114.25,79.51,121.91,73.2,128.28,65.68z"/>
					</g>
					<g id="_x23_cacacaff">
						<path id="path418" inkscape:connector-curvature="0" fill="#CACACA" stroke="#CACACA" stroke-width="0.0938" d="M214.44,65.47
							c14.62,0.25,29.24,0.13,43.87,0.2c-6.34,7.57-13.98,13.92-20.52,21.32c-7.59,0.05-15.2-0.15-22.79,0.18
							c0.78,0.82,1.56,1.63,2.36,2.44c-1.81,1.13-3.69-0.41-5.36-1.06l0.521-1.22c0.75-1.36,1.9-2.63,1.91-4.27
							C214.66,77.2,214.41,71.33,214.44,65.47z"/>
					</g>
					<g id="_x23_c3c3c3ff">
						<path id="path421" inkscape:connector-curvature="0" fill="#C3C3C3" stroke="#C3C3C3" stroke-width="0.0938" d="M258.31,65.67
							c24.729-0.27,49.49,0.44,74.219-0.32c3.161,0.69,6.34,1.53,9.2,3.1c-5.67,6.48-12.289,12.06-17.959,18.55
							c-28.66-0.01-57.32-0.01-85.98-0.01C244.33,79.59,251.97,73.24,258.31,65.67z"/>
						<path id="path423" inkscape:connector-curvature="0" fill="#C3C3C3" stroke="#C3C3C3" stroke-width="0.0938" d="
							M449.581,126.85l1.518-0.27c11.052,6.889,21.761,14.339,32.591,21.57c3.27,2.08,6.15,5.459,10.33,5.519
							c6.971,0.191,13.96-0.029,20.94,0.04c5.45-0.1,10.969,0.451,16.371-0.589l-1.03,0.689c-11.42,0.42-22.86,0.031-34.28,0.191
							c-2.831-0.2-6.09,0.579-8.481-1.361C474.941,143.97,462.1,135.641,449.581,126.85L449.581,126.85z"/>
					</g>
					<g id="_x23_d8d8d8ff">
						<path id="path426" inkscape:connector-curvature="0" fill="#D8D8D8" stroke="#D8D8D8" stroke-width="0.0938" d="
							M364.441,65.65c12.859-0.42,25.73-0.1,38.599-0.25c5.221-0.51,8.899,3.78,13.02,6.23c-5.25,4.99-10.47,10.02-15.32,15.4
							c-2.27-0.09-4.76,0.34-6.76-0.99c-4.53-2.7-8.691-5.95-13.151-8.76c-3.998-2.48-7.549-5.811-12.099-7.28
							c5.199,4.35,11.13,7.75,16.699,11.61c3.751,2.14,6.78,5.35,10.571,7.41c4.82,1.52,9.98,0.3,14.94,0.4
							c7.2,0.05,14.411-0.26,21.599,0.19l1.081,0.18c-10.861,0.48-21.761,0.05-32.631,0.21c-2.82-0.14-6.03,0.45-8.4-1.45
							c-9.34-6.41-18.821-12.64-28.161-19.06c0.75-0.65,1.51-1.3,2.28-1.94C366.14,67.08,365.01,66.13,364.441,65.65L364.441,65.65z
							"/>
					</g>
					<g id="_x23_d5d5d5ff">
						<path id="path429" inkscape:connector-curvature="0" fill="#D5D5D5" stroke="#D5D5D5" stroke-width="0.0938" d="M190.49,67.21
							c3.03,1.41,5.36,4.61,9,4.32c2.9,4.49,4.01,10.08,3.94,15.42c-0.57,2.96-4.12,3.15-6.53,3.04
							c-42.88-0.07-85.78,0.13-128.66-0.11l-0.62-0.31c25.44,0.29,50.89,0.1,76.33,0.16c14.35,0.21,28.68-0.67,43.03-0.39
							c4.73-0.21,9.72,0.74,14.26-0.99c1.67-3.71-0.67-7.63-1.67-11.22c0.78,3.22,0.92,6.54,0.95,9.85
							c-9.58-0.021-19.16,0.05-28.74,0C177.73,80.12,184.97,74.45,190.49,67.21z"/>
					</g>
					<g id="_x23_cbcbcbff">
						<path id="path432" inkscape:connector-curvature="0" fill="#CBCBCB" stroke="#CBCBCB" stroke-width="0.0938" d="
							M341.729,68.45c0.79,0.61,1.561,1.25,2.32,1.91c2.08,1.89,4.431,3.47,6.891,4.84c0.45,1.71,1.24,3.34,1.5,5.09
							c-0.35,1.32-0.829,2.61-1.33,3.89c-0.541-1.669-0.99-3.33-1.48-5c0.16,2.61,0.31,5.21,0.46,7.82
							c-8.769,0.01-17.55-0.01-26.32,0C329.44,80.51,336.059,74.93,341.729,68.45z"/>
					</g>
					<g id="_x23_646464e3">
						
							<path id="path435" inkscape:connector-curvature="0" opacity="0.89" fill="#646464" stroke="#646464" stroke-width="0.0938" enable-background="new    " d="
							M347.439,69.24c1.311,1.9,2.591,3.83,3.501,5.96c-2.46-1.37-4.811-2.95-6.891-4.84C345.171,69.98,346.301,69.61,347.439,69.24
							z"/>
					</g>
					<g id="_x23_3434345c">
						
							<path id="path441" inkscape:connector-curvature="0" opacity="0.36" fill="#343434" stroke="#343434" stroke-width="0.0938" enable-background="new    " d="
							M520.39,78.52c0.051-0.03,0.14-0.09,0.18-0.12C520.53,78.43,520.441,78.49,520.39,78.52z"/>
					</g>
					<g id="_x23_3333335c">
						
							<path id="path444" inkscape:connector-curvature="0" opacity="0.36" fill="#333333" stroke="#333333" stroke-width="0.0938" enable-background="new    " d="
							M517.32,80.55c0.051-0.04,0.151-0.1,0.2-0.14C517.471,80.45,517.371,80.51,517.32,80.55z"/>
					</g>
					<g id="_x23_595959df">
						
							<path id="path447" inkscape:connector-curvature="0" opacity="0.87" fill="#595959" stroke="#595959" stroke-width="0.0938" enable-background="new    " d="
							M61.91,84.45c0.76,0,2.28,0.01,3.04,0.01c-0.45,1.26-0.99,2.48-1.51,3.71c0.33,0.45,0.99,1.36,1.32,1.81
							C62.16,89.37,61.85,86.7,61.91,84.45z"/>
					</g>
					<g id="_x23_171717f0">
						
							<path id="path453" inkscape:connector-curvature="0" opacity="0.94" fill="#171717" stroke="#171717" stroke-width="0.0938" enable-background="new    " d="
							M161.15,96.27c0.02-2.75,1.75-5.54,4.82-5.25c11.79,0.061,23.59-0.25,35.37,0.18c-0.43,1.02-0.86,2.04-1.29,3.07
							c-0.6-0.13-1.82-0.38-2.42-0.5c-2.51-1.83-5.69-1.33-8.591-1.38c-7.38,0.15-14.76-0.14-22.14,0.02
							C164.38,92.39,162.98,94.91,161.15,96.27z"/>
					</g>
					<g id="_x23_1b1b1bf5">
						
							<path id="path456" inkscape:connector-curvature="0" opacity="0.96" fill="#1B1B1B" stroke="#1B1B1B" stroke-width="0.0938" enable-background="new    " d="
							M310.91,96.36c0.06-2.08,0.31-5.16,3.05-5.25c11.66-0.26,23.34-0.06,35.009-0.091c1.879-0.24,3.54,0.97,4,2.78
							c-1.749,0.55-3.57,0.34-5.349,0.15c-2.02-2.06-5.01-1.54-7.6-1.59c-7.699,0.2-15.39-0.02-23.09,0.04
							C314.109,91.98,312.711,94.76,310.91,96.36z"/>
					</g>
					<g id="_x23_4d4d4dd9">
						
							<path id="path459" inkscape:connector-curvature="0" opacity="0.85" fill="#4D4D4D" stroke="#4D4D4D" stroke-width="0.0938" enable-background="new    " d="
							M489.4,90.84c2.62-0.06,4.54,1.5,5.419,3.88l-0.468-0.06c-1.752-0.25-3.51-0.51-5.262-0.66c0.291-0.25,0.881-0.76,1.181-1.02
							C490.05,92.45,489.62,91.37,489.4,90.84z"/>
					</g>
					<g id="_x23_4e4e4eff">
						<path id="path462" inkscape:connector-curvature="0" fill="#4E4E4E" stroke="#4E4E4E" stroke-width="0.0938" d="M161.15,96.27
							c1.83-1.36,3.23-3.88,5.75-3.86c7.38-0.16,14.76,0.13,22.14-0.02c2.901,0.05,6.08-0.45,8.591,1.38
							c-10.911,0.47-21.851,0.21-32.771,0.12c-0.539,2.54-1.87,4.74-3.81,6.46c-12.2,1.46-24.55,0.27-36.82,0.66
							c-10.22,0.07-20.47-0.14-30.67,0.06c-1.12,7.881,1.41,16.37-2.09,23.91c-0.41-0.879-0.81-1.769-1.201-2.65
							c1.05-1.659,2.62-3.2,2.64-5.289c0.47-6.291-0.72-12.701,0.86-18.911l0.01-0.07c20.42,0.11,40.85-0.04,61.27,0.08
							C157.21,98.13,159.69,98.16,161.15,96.27 M96.58,100.01c8.77,0.74,17.6,0.24,26.4,0.43c11.15-0.29,22.33,0.44,33.45-0.46
							c-1.13-1.28-2.82-1.48-4.42-1.48c-17-0.13-34.01-0.11-51.01-0.01C99.38,98.48,97.68,98.68,96.58,100.01L96.58,100.01z"/>
					</g>
					<g id="_x23_edededff">
						<path id="path477" inkscape:connector-curvature="0" fill="#EDEDED" stroke="#EDEDED" stroke-width="0.0938" d="M406.39,94.01
							c18.29-0.19,36.579-0.07,54.859-0.09c-14.18,14.931-29.09,29.179-43.509,43.88c-4.38,4.729-9.99,8.15-14.011,13.229
							c-12.049,0.11-24.11-0.38-36.149,0.24c0.599,0.87,1.221,1.729,1.86,2.58c-1.39,0.02-2.78,0.071-4.17,0.14
							c0.03-1.199,0.05-2.4,0.07-3.59c12.52-9.349,25.8-17.63,38.59-26.599c7.8-5.29,15.46-10.801,23.7-15.391
							c-1.53-0.83-3.181-1.331-4.911-0.88l-1.361,0.18c-2.26-1.5-4.789-2.73-6.709-4.649l-0.73-1.48c2.902,2.12,5.93,4.28,9.58,4.86
							c-3.079-3.23-7.1-5.27-10.67-7.87c-1.45-1.07-2.879-2.18-4.369-3.19C407.95,95.04,406.911,94.36,406.39,94.01L406.39,94.01z"
							/>
					</g>
					<g id="_x23_f5f5f5ff">
						<path id="path480" inkscape:connector-curvature="0" fill="#F5F5F5" stroke="#F5F5F5" stroke-width="0.0938" d="
							M461.249,93.92c9.28-0.01,18.56,0.04,27.84,0.08c1.752,0.15,3.51,0.41,5.262,0.66c-0.69,1.96-2.471,2.99-4.112,4.04
							c0.131-0.85,0.382-2.56,0.502-3.42c-6.38,3.54-12.25,7.91-18.291,11.97c-0.62,0.431-1.239,0.859-1.849,1.29
							c1.079,0.659,2.189,1.32,3.27,2.009c3.459,2.28,6.9,4.611,10.33,6.941c-6.001,5.7-11.94,11.49-17.561,17.58
							c-5.859-4.029-11.88-7.819-17.579-12.071c-13.352,9-26.712,17.98-40.05,27.001c-1.521,1.17-3.49,0.98-5.282,1.03
							c4.021-5.08,9.631-8.501,14.011-13.229C432.16,123.099,447.07,108.851,461.249,93.92z"/>
					</g>
					<g id="_x23_1b1b1bf8">
						
							<path id="path483" inkscape:connector-curvature="0" opacity="0.97" fill="#1B1B1B" stroke="#1B1B1B" stroke-width="0.0938" enable-background="new    " d="
							M227.771,99.14c4.889-1.68,10.119-1.03,15.19-1.14c21.879,0.13,43.78-0.26,65.65,0.2c-3.941,1.96-8.45,1.24-12.68,1.32
							C273.21,99.19,250.471,99.87,227.771,99.14z"/>
					</g>
					<g id="_x23_2e2e2eff">
						<path id="path486" inkscape:connector-curvature="0" fill="#2E2E2E" stroke="#2E2E2E" stroke-width="0.0938" d="M96.58,100.01
							c1.1-1.33,2.799-1.53,4.42-1.52c17-0.1,34.01-0.12,51.01,0.01c1.6,0,3.29,0.2,4.42,1.48c-11.12,0.9-22.3,0.17-33.45,0.46
							C114.18,100.25,105.35,100.75,96.58,100.01z"/>
					</g>
					<g id="_x23_e5e5e5ff">
						<path id="path489" inkscape:connector-curvature="0" fill="#E5E5E5" stroke="#E5E5E5" stroke-width="0.0938" d="M93.56,101.07
							c10.2-0.2,20.45,0.01,30.67-0.06c-6.57,7.54-14.54,13.791-20.64,21.73c-3.2-0.009-6.39-0.009-9.59,0.02
							c0.16,0.36,0.48,1.09,0.64,1.45c0.34,0.181,1.03,0.551,1.37,0.73c-0.38,0.091-1.15,0.28-1.53,0.371
							c-0.75-0.08-2.26-0.251-3.01-0.331C94.97,117.44,92.44,108.951,93.56,101.07z"/>
						<path id="path491" inkscape:connector-curvature="0" fill="#E5E5E5" stroke="#E5E5E5" stroke-width="0.0938" d="M65.07,129.29
							c28.63,0.31,57.27,0.06,85.9,0.19c3.02,0.011,6.05,0.04,9.06-0.28c-3.93,1.04-8.03,0.859-12.06,0.87
							c-6.58-0.02-13.17,0.21-19.76,0.13c-8.72-0.29-17.45,0.17-26.17,0c-2.21,0.02-4.46-0.141-6.63,0.36
							c-1.61,0.96-2.881,2.381-4.21,3.691c-5.42,5.63-11.2,10.909-16.44,16.719c-3.24-0.06-6.5-0.05-9.69,0.571
							c0.56,0.41,1.67,1.239,2.23,1.659l1.099,0.74c-2.22,0.189-4.43-0.12-6.13-1.681c1.07-1.59,2.75-3.03,2.64-5.131
							C65.19,141.191,64.85,135.23,65.07,129.29L65.07,129.29z"/>
					</g>
					<g id="_x23_dcdcdcff">
						<path id="path494" inkscape:connector-curvature="0" fill="#DCDCDC" stroke="#DCDCDC" stroke-width="0.0938" d="
							M124.23,101.01c12.27-0.39,24.62,0.8,36.82-0.66c-5.64,8.461-14.54,14.11-20.45,22.381c-12.34-0.011-24.68,0.069-37.01,0.009
							C109.69,114.801,117.66,108.55,124.23,101.01z"/>
						<path id="path496" inkscape:connector-curvature="0" fill="#DCDCDC" stroke="#DCDCDC" stroke-width="0.0938" d="
							M340.38,129.471c4.26-0.051,8.531,0.04,12.741,0.759c-0.491,6.95-0.051,13.93-0.3,20.88c-0.131,2.651-3.11,2.939-5.141,2.859
							l0.68-0.309c2.04-0.682,3.88-2.24,3.399-4.62c-0.51-5.741,0.921-11.811-1.17-17.301c-0.879,6.38-0.27,12.841-0.609,19.26
							c-10.06,0.01-20.13-0.01-30.19,0C326.24,143.431,334.16,137.24,340.38,129.471z"/>
					</g>
					<g id="_x23_1d1d1dff">
						<path id="path499" inkscape:connector-curvature="0" fill="#1D1D1D" stroke="#1D1D1D" stroke-width="0.0938" d="
							M211.49,120.94c0.02-5.55,1.71-11.13,5.099-15.559c-0.05,1.939-0.11,3.878-0.3,5.819c-0.92,2.88-1.66,5.841-1.75,8.88
							c-0.22,9.391,0.21,18.791-0.21,28.179c-1,1.391-2.06,2.821-2.06,4.62c-0.57-1.558-0.91-3.209-0.82-4.869
							C211.53,138.98,211.47,129.959,211.49,120.94z"/>
					</g>
					<g id="_x23_c6c6c6ff">
						<path id="path505" inkscape:connector-curvature="0" fill="#C6C6C6" stroke="#C6C6C6" stroke-width="0.0938" d="
							M185.18,130.24c5.12-4.841,9.73-10.24,15.29-14.6c0.15,6.19-0.1,12.38-0.13,18.58c-0.78,4.041-1.87,8.29-4.78,11.371
							c-3.39,3.779-8.58,5.399-13.55,5.399c-5.74,0.06-11.49,0-17.24-0.01C171.32,143.819,178.41,137.19,185.18,130.24z"/>
					</g>
					<g id="_x23_48484884">
						
							<path id="path511" inkscape:connector-curvature="0" opacity="0.52" fill="#484848" stroke="#484848" stroke-width="0.0938" enable-background="new    " d="
							M342.491,122.611c0.029-0.02,0.1-0.061,0.129-0.081C342.591,122.55,342.52,122.591,342.491,122.611z"/>
					</g>
					<g id="_x23_9d9d9dc0">
						
							<path id="path514" inkscape:connector-curvature="0" opacity="0.75" fill="#9D9D9D" stroke="#9D9D9D" stroke-width="0.0938" enable-background="new    " d="
							M94.48,125.311c0.38-0.091,1.15-0.28,1.53-0.371c21.41-0.13,42.83,0.071,64.23-0.17c-0.1,0.29-0.32,0.86-0.43,1.15
							c-17.26,0.27-34.57,0.02-51.85,0.13c-4.77-0.11-9.6,0.4-14.33-0.509L94.48,125.311L94.48,125.311z"/>
					</g>
					<g id="_x23_ddddddff">
						<path id="path523" inkscape:connector-curvature="0" fill="#DDDDDD" stroke="#DDDDDD" stroke-width="0.0938" d="M95.41,130.56
							c2.17-0.501,4.42-0.34,6.63-0.36c8.72,0.17,17.45-0.29,26.17,0c-6.68,7.03-13.82,13.639-20.38,20.79
							c-11.02-0.03-22.05,0.06-33.07-0.02c5.24-5.81,11.02-11.089,16.44-16.719C92.53,132.941,93.8,131.52,95.41,130.56
							L95.41,130.56z"/>
					</g>
					<g id="_x23_161616fe">
						<path id="path526" inkscape:connector-curvature="0" fill="#161616" stroke="#161616" stroke-width="0.0938" d="
							M200.34,134.22c1.31,3.39,0.09,6.94-0.62,10.31l-0.02,0.12c-1.61,0.071-2.83,1.47-2.75,3.06l-0.12,1.14l-1.12-0.02
							c-1.13-0.04-1.85,0.52-2.19,1.681c-0.53,1.079-1.41,1.56-2.64,1.439c-0.47,0.241-1.41,0.722-1.88,0.961l-0.79,0.18
							c-33.04-0.16-66.09,0-99.14-0.06c-7.26,0.049-14.52-0.18-21.77,0.17c-0.559-0.421-1.669-1.251-2.229-1.659
							c3.19-0.621,6.45-0.631,9.69-0.571c11.02,0.08,22.05-0.01,33.07,0.02c18.98,0.04,37.96-0.02,56.94-0.01
							c5.75,0.01,11.5,0.07,17.24,0.01c4.97,0,10.16-1.621,13.55-5.399C198.47,142.509,199.56,138.26,200.34,134.22z"/>
					</g>
					<g id="_x23_3a3a3aa4">
						
							<path id="path529" inkscape:connector-curvature="0" opacity="0.64" fill="#3A3A3A" stroke="#3A3A3A" stroke-width="0.0938" enable-background="new    " d="
							M189,152.911c0.47-0.24,1.41-0.72,1.88-0.961l-0.11,0.901l-0.96,0.48L189,152.911z"/>
					</g>
					<g id="_x23_414141fc">
						<path id="path532" inkscape:connector-curvature="0" fill="#414141" stroke="#414141" stroke-width="0.0938" d="M67.3,153.2
							c7.25-0.35,14.51-0.121,21.77-0.17c33.05,0.06,66.101-0.1,99.14,0.06c-2.32,0.71-4.75,0.999-7.18,0.939
							c-37.54-0.109-75.1,0.08-112.631-0.089L67.3,153.2L67.3,153.2z"/>
					</g>
				</g>
				<g id="g4448">
					<path id="path4332" inkscape:connector-curvature="0" fill="#2B4277" d="M50.418,152.482l-0.017-16.454
						c0-6.731-5.438-12.187-12.139-12.187c-6.715,0-12.153,5.456-12.153,12.187l0.023,4.273c0,0.337-0.276,0.611-0.616,0.611
						c-0.34,0-0.617-0.273-0.617-0.611l0.004-16.422l-5.153-0.008v16.434c0,3.177,2.581,5.761,5.752,5.761
						c3.174,0,5.745-2.584,5.745-5.761l0.057-4.294c0-3.856,3.11-6.978,6.948-6.978c3.84,0,6.958,3.12,6.958,6.978v16.463
						L50.418,152.482"/>
					<path id="path4334" inkscape:connector-curvature="0" fill="#2B4277" d="M43.999,152.475v-16.464
						c0-3.188-2.571-5.766-5.748-5.766c-3.174,0-5.742,2.579-5.742,5.766l-0.047,4.294c0,3.85-3.114,6.973-6.961,6.973
						c-3.836,0-6.951-3.124-6.951-6.973l-0.003-16.433l-5.172,0.007v16.423c0,6.723,5.432,12.187,12.14,12.187
						c6.707,0,12.143-5.464,12.143-12.187l0.007-4.25c0-0.322,0.263-0.595,0.596-0.595c0.326,0,0.589,0.273,0.589,0.595
						l0.013,16.431L43.999,152.475"/>
					<path id="path4336" inkscape:connector-curvature="0" fill="#2B4277" d="M45.242,111.085c0,2.854-2.276,5.193-5.18,5.193
						H23.626c-2.795,0-5.093-2.339-5.093-5.193l0.003-17.562h-5.162v17.562c0,5.716,4.613,10.344,10.308,10.344h16.38
						c5.696,0,10.316-4.629,10.316-10.344l0.007-17.489L45.235,93.6L45.242,111.085"/>
					<path id="path4338" inkscape:connector-curvature="0" fill="#2B4277" d="M23.683,115.018c-2.178,0-3.943-1.752-3.943-3.933
						V93.523h5.169v15.13c0,1.212,1.203,1.23,1.203,1.23V97.26h5.146v17.765L23.683,115.018"/>
					<path id="path4340" inkscape:connector-curvature="0" fill="#2B4277" d="M43.99,111.085c0,2.175-1.756,3.94-3.927,3.94h-7.58
						V97.26h5.156v12.623c1.212-0.017,1.218-1.229,1.218-1.229V93.597l5.126,0.004L43.99,111.085"/>
					<path id="path4342" inkscape:connector-curvature="0" fill="#2B4277" d="M45.229,81.216c0,2.844-2.318,5.169-5.167,5.169
						h-16.38c-2.851,0-5.149-2.308-5.149-5.156V64.22h-5.159v17.049c0,5.713,4.613,10.342,10.308,10.342h16.38
						c5.696,0,10.315-4.669,10.315-10.382l0.007-17.01H26.111v14.618h5.146v-9.453h13.972V81.216"/>
					<path id="path4344" inkscape:connector-curvature="0" fill="#2B4277" d="M40.062,85.173c2.182,0,3.957-1.766,3.957-3.943
						V70.605H32.476v8.22h5.163v-3.051l1.212-0.01v3.038c0,0.663-0.549,1.206-1.212,1.206l-11.531,0.027
						c0,0-1.199,0.003-1.229-1.219V64.214l-5.143,0.007l0.003,17.01c0,2.178,1.766,3.943,3.943,3.943L40.062,85.173"/>
					<path id="path4346" inkscape:connector-curvature="0" fill="#2B4277" d="M19.663,48.237c-0.656-0.229-1.129-0.852-1.129-1.588
						s0.473-1.366,1.129-1.588l24.393-8.258v12.091l-5.738-0.013v-4.041l-5.406,1.819l17.469,5.925v6.095L19.663,48.237"/>
					<path id="path4348" inkscape:connector-curvature="0" fill="#2B4277" d="M45.229,35.138v13.735h5.152V27.97L18.217,38.841
						c-3.137,0.952-5.445,4.093-5.445,7.81c0,3.724,2.298,6.854,5.433,7.814l32.177,10.971v-5.472L19.104,49.312
						c-1.036-0.432-1.766-1.452-1.766-2.651c0-1.192,0.73-2.218,1.759-2.654L45.229,35.138"/>
					<path id="path4350" inkscape:connector-curvature="0" fill="#231F20" d="M17.468,31.91c0-0.973-0.38-1.889-1.063-2.575
						c-0.689-0.685-1.598-1.069-2.571-1.069c-0.966,0-1.872,0.383-2.561,1.069c-0.679,0.687-1.059,1.602-1.059,2.575
						c0,2.001,1.622,3.636,3.62,3.636c0.972,0,1.882-0.38,2.571-1.072C17.088,33.792,17.468,32.879,17.468,31.91 M13.835,35.033
						c-0.83,0-1.615-0.319-2.205-0.915c-0.589-0.593-0.909-1.379-0.909-2.208c0-0.84,0.32-1.626,0.909-2.218
						c0.59-0.59,1.375-0.916,2.205-0.916c1.722,0,3.12,1.405,3.12,3.135c0,0.829-0.323,1.615-0.912,2.208
						C15.453,34.714,14.671,35.033,13.835,35.033z"/>
					<path id="path4352" inkscape:connector-curvature="0" fill="#231F20" d="M14.141,32.843h1.712v0.526h-4.023v-1.495
						c0.007-0.563,0.007-0.893,0.242-1.206c0.224-0.303,0.56-0.43,0.933-0.43c0.94,0,1.063,0.765,1.103,0.96l1.745-1.133v0.636
						l-1.712,1.102V32.843 M13.698,32.843v-1.069c0-0.17,0-0.33-0.04-0.49c-0.09-0.374-0.357-0.506-0.649-0.506
						c-0.107,0-0.376,0.01-0.563,0.24c-0.176,0.21-0.17,0.477-0.17,0.786v1.04H13.698z"/>
				</g>
			</g>
		</g>
	</g>
</g>
</svg>
