<?xml version="1.0" encoding="utf-8"?>
<!-- Generator: Adobe Illustrator 16.0.0, SVG Export Plug-In . SVG Version: 6.00 Build 0)  -->
<!DOCTYPE svg PUBLIC "-//W3C//DTD SVG 1.1//EN" "http://www.w3.org/Graphics/SVG/1.1/DTD/svg11.dtd">
<svg version="1.1" id="Layer_1" xmlns="http://www.w3.org/2000/svg" xmlns:xlink="http://www.w3.org/1999/xlink" x="0px" y="0px"
	 width="1605.85px" height="227.377px" viewBox="0 0 1605.85 227.377" enable-background="new 0 0 1605.85 227.377"
	 xml:space="preserve">
<g>
	<path fill-rule="evenodd" clip-rule="evenodd" fill="#A661AF" d="M634.522,224.746c2.996-75.629,5.961-150.475,8.902-224.71
		c16.239,0,31.92-0.104,47.599,0.043c8.142,0.075,16.277,0.675,24.42,0.881c4.457,0.113,8.923-0.158,13.384-0.154
		c18.829,0.018,37.657,0.063,56.485,0.121c6.58,0.021,13.168-0.087,19.733,0.239c3.205,0.159,6.383,1.739,9.547,1.662
		c3.67-0.089,7.308-0.155,10.883,0.528c8.822,1.688,17.691,3.237,26.382,5.465c6.796,1.741,13.417,4.24,19.999,6.714
		c11.626,4.369,21.959,10.897,31.686,18.645c9.012,7.179,16.133,15.93,21.602,25.758c3.836,6.896,5.574,14.942,8.403,22.417
		c4.414,11.66,3.338,23.782,2.819,35.768c-0.407,9.398-2.991,18.439-5.625,27.538c-2.984,10.311-8.932,18.795-14.727,27.224
		c-6.186,8.998-14.105,16.857-23.648,22.643c-6.869,4.165-13.756,8.332-20.849,12.097c-13.929,7.395-29.104,11.085-44.459,13.946
		c-6.714,1.251-13.591,1.677-20.409,2.309c-6.979,0.646-13.978,1.547-20.964,1.517c-12.649-0.056-25.293-0.852-37.944-1.08
		c-7.381-0.133-14.772,0.386-22.156,0.336c-6.885-0.047-13.765-0.583-20.65-0.667c-4.913-0.06-9.833,0.224-14.746,0.441
		c-7.727,0.344-15.448,1.022-23.175,1.075c-7.876,0.053-15.756-0.503-23.637-0.741C640.654,224.676,637.928,224.746,634.522,224.746
		z M669.458,211.583c6.547-1.47,12.169,1.195,18.106-0.579c2.615-0.782,5.778,0.446,8.694,0.461
		c5.421,0.026,10.844-0.283,16.264-0.239c6.344,0.052,12.685,0.389,19.028,0.468c1.449,0.019,2.907-0.765,4.357-0.752
		c9.49,0.086,18.979,0.427,28.469,0.418c11.274-0.01,22.549-0.245,33.822-0.488c2.145-0.047,4.271-0.684,6.42-0.882
		c5.476-0.504,11.189-0.082,16.393-1.526c12.08-3.354,23.339-8.894,34.3-14.975c2.395-1.328,4.988-2.42,7.1-4.108
		c5.801-4.64,11.544-9.281,16.204-15.264c6.413-8.231,11.764-17.102,14.708-26.953c2.633-8.811,3.987-18.106,4.943-27.288
		c0.969-9.306,1.871-18.871,0.742-28.07c-1.085-8.855-3.608-17.592-6.951-26.221c-4.747-12.25-12.393-21.993-22.271-29.399
		c-8.69-6.517-19.013-11.403-29.297-15.123c-16.371-5.923-33.709-7.769-51.11-8.302c-6.033-0.185-12.069-0.258-18.104-0.319
		c-11.047-0.113-22.096-0.313-33.142-0.229c-9.75,0.074-19.499,0.743-29.244,0.674c-9.215-0.066-18.43-0.679-27.635-1.206
		c-2.911-0.167-3.929,1.266-4.069,3.77c-0.602,10.753-1.288,21.502-1.706,32.262c-0.319,8.227-0.098,16.474-0.441,24.698
		c-0.745,17.888-1.894,35.76-2.516,53.65c-0.868,24.961-1.382,49.935-2.111,74.901C670.316,204.191,669.843,207.41,669.458,211.583z
		"/>
	<path fill-rule="evenodd" clip-rule="evenodd" fill="#A661AF" d="M1471.093,3.228c1.085-0.19,2.312-0.724,3.433-0.554
		c11.362,1.716,22.808,3.078,34.026,5.487c9.566,2.054,18.9,5.24,28.27,8.144c4.348,1.348,8.618,3.03,12.765,4.911
		c2.845,1.29,5.593,2.951,8.076,4.85c8.337,6.374,17.098,12.011,24.45,19.876c11.099,11.87,17.731,25.437,21.33,41.017
		c2.501,10.825,3.166,21.827,1.463,32.532c-1.632,10.256-4.898,20.435-8.808,30.096c-4.52,11.171-11.454,21.058-20.416,29.389
		c-11.183,10.395-23.029,19.75-37.287,25.677c-8.965,3.727-17.806,7.757-26.813,11.373c-3.069,1.232-6.468,1.665-9.735,2.378
		c-4.664,1.018-9.336,2.01-14.023,2.916c-5.891,1.139-11.761,2.646-17.713,3.164c-11.809,1.028-23.661,1.637-35.508,2.125
		c-7.422,0.307-14.934,0.727-22.284-0.049c-15.124-1.597-30.299-3.295-45.192-6.262c-8.874-1.768-17.36-5.762-25.818-9.247
		c-7.089-2.92-13.905-6.508-20.803-9.882c-9.252-4.525-16.291-11.824-23.69-18.743c-7.407-6.929-12.058-15.722-16.601-24.396
		c-3.156-6.026-4.476-13.098-6.103-19.826c-3.496-14.453-1.406-28.892,1.564-43.066c2.311-11.027,6.602-21.538,13.642-30.577
		c5.018-6.442,9.828-13.207,15.744-18.745c5.717-5.352,12.693-9.371,19.193-13.866c2.816-1.948,5.748-3.762,8.757-5.396
		c10.945-5.949,22.322-10.762,34.579-13.416c3.658-0.792,7.105-2.534,10.674-3.772c3.019-1.048,6.009-2.502,9.122-2.889
		c7.185-0.892,14.45-1.111,21.651-1.891c2.379-0.257,4.654-1.973,6.992-2.01c5.947-0.094,11.948,0.906,17.839,0.413
		c2.946-0.246,5.697-1.662,9.028-1.241c4.587,0.581,9.307,0.112,13.971,0.106c3.326-0.005,6.661-0.112,9.978,0.08
		C1468.24,2.013,1469.598,2.75,1471.093,3.228z M1430.413,13.659c-7.221,1.157-12.178,2.406-17.186,2.662
		c-11.331,0.579-22.014,3.958-32.669,7.234c-19.305,5.934-35.332,16.897-48.123,32.649c-7.385,9.094-12.35,19.532-15.359,30.525
		c-4.419,16.143-6.202,32.812-4.562,49.624c0.44,4.516,0.965,9.172,2.466,13.403c3.387,9.551,7.97,18.46,13.5,27.126
		c5.825,9.127,14.575,14.235,22.909,19.48c8.157,5.135,17.911,7.995,27.264,10.884c7.387,2.282,15.2,3.272,22.879,4.484
		c3.834,0.605,7.792,0.456,11.695,0.593c5.828,0.205,11.696,1.268,17.385,1.339c10.637,0.132,21.345-1.317,31.933-2.77
		c8.587-1.178,16.988-3.683,25.568-4.949c11.155-1.647,21.076-6.313,30.658-11.743c5.238-2.968,9.977-6.855,14.792-10.523
		c11.609-8.845,19.554-20.678,24.659-33.991c3.607-9.405,5.613-19.571,7.18-29.578c2.477-15.825,1.354-31.511-3.493-46.99
		c-5.696-18.191-17.308-31.143-33.192-41.06c-13.933-8.698-29.568-12.143-45.244-15.054c-11.262-2.091-22.859-2.521-34.334-3.265
		C1442.2,13.292,1435.209,13.659,1430.413,13.659z"/>
	<path fill-rule="evenodd" clip-rule="evenodd" fill="#A661AF" d="M1217.789,6.178c11.357-1.275,22.692-2.549,34.596-3.886
		c-0.443,8.912-0.815,16.967-1.261,25.017c-0.17,3.062-0.563,6.11-0.759,9.172c-0.985,15.398-2.013,30.795-2.883,46.2
		c-0.764,13.536-1.247,27.088-2.034,40.622c-0.451,7.766-1.37,15.503-1.879,23.266c-0.553,8.422-0.761,16.867-1.321,25.288
		c-0.83,12.49-1.861,24.967-2.745,37.453c-0.141,1.984,0.076,3.991,0.067,5.987c-0.03,7.217-0.33,7.488-7.162,8.506
		c-7.396,1.101-14.754,2.469-22.169,3.392c-1.595,0.198-4.256-0.506-4.904-1.653c-3.274-5.796-9.015-4.447-13.899-5.135
		c-4.669-0.657-9.458-0.469-14.196-0.619c-1.316-0.042-2.638-0.007-3.954,0.06c-4.393,0.222-8.813,0.231-13.166,0.781
		c-4.35,0.549-8.626,1.669-12.944,2.486c-0.782,0.148-1.617-0.01-2.418,0.071c-5.207,0.527-10.408,1.116-15.618,1.618
		c-4.959,0.479-9.926,0.872-14.89,1.309c-3.016,0.266-6.026,0.685-9.047,0.781c-7.349,0.235-14.719,0.693-22.05,0.375
		c-8.654-0.376-17.271-1.556-25.918-2.211c-2.566-0.194-5.186,0.409-7.766,0.298c-15.192-0.659-29.906-4.398-43.799-9.944
		c-14.732-5.883-27.621-14.877-36.351-29.109c-7.466-12.175-6.987-25.231-6.58-38.481c0.189-6.15,0.604-12.293,0.929-18.439
		c0.973-18.354,1.952-36.706,2.928-55.06c0.662-12.45,1.334-24.899,1.982-37.35c0.432-8.276,0.898-16.552,1.224-24.833
		c0.237-6.057,0.57-7.022,6.384-7.868c9.116-1.327,18.312-2.105,27.768-3.147c-0.867,16.695-1.748,32.753-2.522,48.817
		c-1.118,23.176-2.095,46.359-3.268,69.533c-0.36,7.104-1.678,14.188-1.642,21.277c0.051,9.923-0.523,20.083,4.898,29.18
		c3.524,5.912,6.647,12.088,10.527,17.75c1.653,2.411,4.712,3.914,7.255,5.648c4.651,3.173,9.267,6.438,14.152,9.216
		c2.62,1.489,5.804,1.96,8.68,3.032c10.443,3.896,21.511,5.058,32.364,6.834c7.298,1.194,14.941,0.28,22.43,0.306
		c5.887,0.02,11.793,0.351,17.653-0.032c7.044-0.461,14.03-1.794,21.073-2.274c9.058-0.618,17.799-3.141,26.731-4.144
		c8.493-0.954,17.155-0.425,25.744-0.492c4.106-0.032,8.226,0.26,12.316,0.026c2.26-0.128,4.375-0.806,4.556-4.02
		c0.501-8.877,1.416-17.73,1.963-26.605c1.009-16.386,1.73-32.791,2.837-49.17c1.06-15.703,2.657-31.371,3.641-47.078
		c0.813-13.01,0.889-26.065,1.645-39.08C1215.609,29.116,1216.749,18.414,1217.789,6.178z"/>
	<path fill-rule="evenodd" clip-rule="evenodd" fill="#A661AF" d="M352.876,153.574c5.31-0.171,10.65-0.511,15.98-0.381
		c1.149,0.028,3.117,1.653,3.24,2.713c0.674,5.823,5.454,5.485,8.978,5.544c4.513,0.074,7.793-3.379,8.995-7.431
		c1.053-3.556,0.532-7.576,0.731-11.938c-3.881,1.603-6.877,2.672-9.726,4.047c-7.689,3.71-14.908,2.238-20.5-3.442
		c-3.56-3.616-5.509-8.887-7.89-13.563c-1.013-1.988-1.241-4.368-1.899-6.548c-2.304-7.634,0.217-14.721,2.344-21.889
		c2.408-8.115,7.057-14.13,14.971-17.65c7.283-3.238,15.585-1.605,20.897,4.537c0.52,0.601,1.259,1.011,2.449,1.941
		c1.316-2.069,2.5-3.93,3.833-6.027c5.518,0,11.364,0,17.953,0c0,4.793,0.081,8.959-0.017,13.122
		c-0.211,9.01-0.491,18.019-0.785,27.026c-0.275,8.423,0.361,17.018-1.125,25.225c-2.518,13.902-6.86,21.937-22.288,26.113
		c-8.569,2.319-16.969,1.607-24.381-1.707C357.562,170.103,352.673,163.545,352.876,153.574z M391.393,108.048
		c0.063,0.002,0.125,0.003,0.188,0.004c0-0.499,0.001-0.998,0-1.498c-0.014-4.208-2.57-8.604-5.788-9.515
		c-4.304-1.217-8.03,0.01-10.35,3.813c-1.401,2.298-2.552,5.043-2.805,7.684c-0.465,4.85-0.283,9.771-0.184,14.66
		c0.092,4.524,4.585,10.064,7.952,10.085c4.061,0.026,10.84-6.146,10.954-10.21C391.5,118.068,391.393,113.057,391.393,108.048z"/>
	<path fill-rule="evenodd" clip-rule="evenodd" fill="#A661AF" d="M225.314,131.801c12.296,0,23.778,0,36.17,0
		c0,5.382,0.385,10.255-0.129,15.03c-0.372,3.459-3.405,3.746-6.519,3.665c-6.15-0.16-12.313,0.196-18.465,0.078
		c-10.331-0.199-20.664-0.496-30.976-1.094c-0.974-0.057-2.583-2.55-2.569-3.899c0.054-5.579,0.806-11.148,0.953-16.73
		c0.225-8.575,0.01-17.163,0.259-25.737c0.369-12.707,1.004-25.406,1.472-38.11c0.114-3.09,0.017-6.188,0.017-9.582
		c2.027-0.261,3.637-0.682,5.232-0.636c7.417,0.213,14.83,0.758,22.245,0.788c6.178,0.025,12.357-0.501,18.536-0.779
		c2.761-0.125,5.536-0.457,8.281-0.299c2.516,0.144,3.739,1.788,3.692,4.404c-0.072,3.979-0.019,7.959-0.019,13.005
		c-1.751,0.217-3.817,0.588-5.896,0.708c-6.068,0.351-12.143,0.596-18.214,0.894c-3.305,0.162-6.648,0.743-9.902,0.414
		c-3.361-0.34-3.741,1.806-3.854,3.878c-0.241,4.417-0.074,8.857-0.074,14.349c4.953,0.359,9.628,0.859,14.313,0.994
		c4.916,0.142,9.851,0.093,14.76-0.182c2.965-0.166,4.554,1.089,4.709,3.794c0.229,3.978,0.319,8.003-0.095,11.949
		c-0.107,1.026-2.282,2.58-3.549,2.62c-8.81,0.286-17.631,0.172-26.446,0.337c-2.379,0.045-4.032,1.155-3.966,4.023
		C225.398,120.755,225.314,125.833,225.314,131.801z"/>
	<path fill-rule="evenodd" clip-rule="evenodd" fill="#A661AF" d="M20.837,118.153c0,10.263,0,20.487,0,31.493
		c-6.51,0-12.091,0.253-17.616-0.196c-1.228-0.1-3.212-2.67-3.218-4.11c-0.041-9.688,0.396-19.376,0.601-29.065
		c0.136-6.452-0.005-12.913,0.254-19.359C1.109,90.643,1.841,84.391,2.11,78.12c0.132-3.096-0.315-6.215-0.475-9.324
		c-0.051-0.997-0.054-1.999-0.023-2.997c0.292-9.345,0.709-9.725,9.876-10.005c5.254-0.161,10.531-0.917,15.749-0.599
		c7.683,0.469,15.51,0.909,22.923,2.767c6.382,1.6,10.667,6.16,13.656,12.8c4.866,10.81,3.988,20.917-0.122,31.343
		c-2.924,7.416-8.786,11.456-16.252,12.665c-6.619,1.071-13.425,0.944-20.131,1.546C25.412,116.485,23.575,117.35,20.837,118.153z
		 M21.538,89.577c-0.241,8.425,0.104,8.766,8.538,8.393c0.328-0.015,0.659,0.053,0.988,0.057c8.198,0.088,12.021-2.722,14.051-10.32
		c1.502-5.624-2.291-12.03-8.07-13.17c-2.901-0.572-5.922-0.529-8.887-0.792c-3.609-0.32-5.198,1.841-5.637,4.935
		C22.009,82.285,21.851,85.941,21.538,89.577z"/>
	<path fill-rule="evenodd" clip-rule="evenodd" fill="#A661AF" d="M149.207,85.018c-4.583,0-8.754-0.541-12.715,0.142
		c-4.651,0.802-7.31-1.172-8.394-5.009c-1.949-6.896-7.289-7-12.841-7.626c-6.126-0.691-9.549,2.938-11.655,7.479
		c-3.088,6.658-4.732,13.841-4.26,21.343c0.387,6.146,0.504,12.314,1.032,18.447c0.55,6.378,3.263,11.277,10.046,13.002
		c1.052,0.267,1.95,1.137,2.95,1.746c1.087-0.56,2.162-1.503,3.339-1.654c5.495-0.71,8.878-3.81,10.564-8.904
		c1.129-3.414,3.512-4.469,6.89-4.277c3.316,0.188,6.647,0.115,9.971,0.184c3.965,0.082,6.089,2.603,5.233,6.552
		c-2.399,11.071-8.004,19.201-19.624,22.498c-9.415,2.671-18.682,4.046-28.253,1.125c-9.57-2.92-15.563-9.581-19.562-18.385
		c-8.359-18.406-5.56-37.182,0.274-55.146c4.258-13.11,15.239-23.688,32.745-22.851c8.978,0.43,17.401,1.178,24.797,6.449
		c6.773,4.826,9.572,12.026,10.59,19.967C150.527,81.604,149.642,83.247,149.207,85.018z"/>
	<path fill-rule="evenodd" clip-rule="evenodd" fill="#A661AF" d="M506.668,150.126c0-13.674,0.069-26.357-0.061-39.04
		c-0.024-2.418-0.705-4.859-1.304-7.234c-0.926-3.67-3.923-6.309-7.117-5.656c-2.698,0.551-6.234,3.488-6.925,6.039
		c-1.485,5.483-1.546,11.388-1.879,17.138c-0.459,7.951-0.625,15.919-0.931,23.879c-0.151,3.931-2.238,5.675-6.135,5.447
		c-4.435-0.259-8.874-0.442-14.023-0.693c0-21.809,0-43.463,0-65.86c6.783-0.229,12.842-0.729,18.863-0.443
		c1.672,0.079,3.234,2.491,5.214,4.14c4.748-4.196,11.118-6.277,18.074-4.911c3.195,0.628,6.794,2.085,8.994,4.348
		c6.709,6.902,9.067,15.228,7.364,25.03c-1.1,6.33-0.589,12.937-0.833,19.418c-0.2,5.299-0.533,10.594-0.644,15.894
		c-0.072,3.472-2.817,3.674-4.903,3.643C515.676,151.19,510.938,150.514,506.668,150.126z"/>
	<path fill-rule="evenodd" clip-rule="evenodd" fill="#A661AF" d="M278.639,83.763c7.853,0.863,16.083-4.121,22.705,3.915
		c1.29-0.735,2.752-1.455,4.096-2.353c13.986-9.339,28.961,1.938,30.49,13.895c0.586,4.578,0.309,9.283,0.228,13.928
		c-0.172,9.909-0.475,19.816-0.72,29.725c-0.159,6.432-0.15,6.532-6.536,6.831c-4.115,0.192-8.246,0.036-13.385,0.036
		c-0.189-3.58-0.536-6.934-0.511-10.285c0.082-11.229,0.588-22.466,0.236-33.679c-0.079-2.522-2.438-6.104-4.701-7.163
		c-3.349-1.568-7.302-0.396-8.964,3.686c-1.334,3.276-2.853,6.713-3.084,10.159c-0.666,9.925-0.719,19.892-1.017,29.841
		c-0.241,8.044-0.608,8.375-8.708,8.098c-2.274-0.078-4.742,0.437-6.765-0.299c-1.594-0.579-3.753-2.652-3.762-4.075
		c-0.093-14.172,0.233-28.346,0.387-42.52C278.695,97.263,278.639,91.022,278.639,83.763z"/>
	<path fill-rule="evenodd" clip-rule="evenodd" fill="#A661AF" d="M558.542,123.171c1.178,4.618,1.398,8.884,3.307,12.166
		c2.875,4.944,12.755,3.593,14.47-1.882c1.283-4.096,3.675-5.024,7.386-4.813c2.471,0.141,4.966-0.135,7.438,0.004
		c3.698,0.207,5.029,2.176,3.768,5.722c-2.889,8.122-8.366,13.955-16.463,16.686c-12.652,4.268-28.133,1.259-34.35-12.409
		c-3.207-7.051-3.854-14.649-3.076-22.273c0.644-6.303,1.378-12.435,4.528-18.408c5.483-10.396,16.624-16.114,27.578-14.893
		c15.583,1.738,19.584,11.594,22.156,22.896c0.949,4.17,0.639,8.619,1.001,12.933c0.205,2.437-0.456,3.761-3.22,3.739
		c-8.964-0.069-17.93-0.024-26.894,0.036C564.082,122.687,561.994,122.938,558.542,123.171z M570.899,95.082
		c-10.366,5.738-11.278,7.073-9.535,14.68c4.163,0,8.449,0.086,12.73-0.032c2.517-0.07,3.624-1.183,3.602-4.117
		C577.66,100.68,575.046,97.749,570.899,95.082z"/>
	<path fill-rule="evenodd" clip-rule="evenodd" fill="#A661AF" d="M429.359,85.414c1.756-0.625,3.263-1.285,4.836-1.686
		c1.575-0.4,3.223-0.796,4.829-0.757c11.949,0.292,11.613-0.965,11.341,11.925c-0.332,15.732-0.769,31.463-1.26,47.19
		c-0.071,2.269-0.7,4.52-1.263,7.958c-5.48,0-11.241,0.19-16.962-0.204c-0.865-0.06-2.208-2.844-2.2-4.362
		c0.051-9.744,0.521-19.486,0.649-29.231C429.461,106.177,429.359,96.106,429.359,85.414z"/>
	<path fill-rule="evenodd" clip-rule="evenodd" fill="#A661AF" d="M430.618,71.899c0-6.06,0-11.438,0-17.495
		c6.207,0,11.459-0.1,16.705,0.047c2.292,0.063,4.237,0.896,4.038,3.875c-0.285,4.254-0.455,8.516-0.716,13.573
		C443.986,71.899,437.822,71.899,430.618,71.899z"/>
</g>
</svg>
