<?xml version="1.0" encoding="utf-8"?>
<!-- Generator: Adobe Illustrator 24.3.0, SVG Export Plug-In . SVG Version: 6.00 Build 0)  -->
<svg version="1.2" baseProfile="tiny" id="Layer_1" xmlns="http://www.w3.org/2000/svg" xmlns:xlink="http://www.w3.org/1999/xlink"
	 x="0px" y="0px" viewBox="0 0 905 256.7" overflow="visible" xml:space="preserve">
<g>
	<path fill="#020202" d="M658.9,180.2c15.3-21.3,14.6-42.9-1.9-58.8c-16.2-15.4-44.7-17.2-61.7-3.8c-18.7,14.8-20.8,36.2-5.7,61.7
		c-17.6,16.6-19.6,40.9-4.8,59c16.2,19.8,46.6,24.3,67.1,9.9C673.8,232.7,676.3,209.1,658.9,180.2z M624.9,138.2
		c7.8,0.3,13.8,6.8,13.5,14.6c0,0.1,0,0.1,0,0.1c-0.2,7.7-6.7,13.7-14.3,13.4c-7.8-0.2-14-6.8-13.8-14.6
		C610.6,143.9,617.1,137.9,624.9,138.2z M622.8,226.5c-0.1,0-0.3,0-0.4,0c-9-0.1-16.1-7.5-16-16.4c0.1-9,7-15.6,16.4-15.7
		c0.2,0,0.4,0,0.6,0c8.9,0.2,15.9,7.6,15.7,16.5C639,219.2,631.4,226.4,622.8,226.5z"/>
	<path fill="#020202" d="M234.7,110.1c19.9,0,39.3-1.5,58.4,0.4c26,2.5,43.8,28.8,39,54.5c-4.4,24.2-31.7,42.1-56.4,36.7V172
		c8.2,0.3,15.8-0.7,19.6-8.4c1.7-3.8,2.2-7.9,1.6-12c-1.8-9.7-12.5-14-26.4-10.9v111h-35.8L234.7,110.1L234.7,110.1z"/>
	<path fill="#020202" d="M569.7,144.4c-4.8-20-22.5-34.5-43.5-35.9c-20.5-1.1-39.3,11.2-46.4,30.5c-7.3,19.5-1.4,42.1,15.4,54
		c7.3,5.2,16.2,8.2,24.8,12.3c-7.2,14.8-14.9,30.7-23,47.3l32.3-0.1c0.6-0.7,1.1-1.4,1.5-2.1c12-24.9,24.2-49.8,36-74.8
		C571.5,165.7,572.2,155.1,569.7,144.4z M524,174.2c-9.6,0-17.7-8.6-17.6-18.5s8.4-18.1,18.1-18c9.8,0.2,17.6,8.1,17.7,17.9
		C542.2,165.6,533.8,174.2,524,174.2z"/>
	<path fill="#020202" d="M420.5,140.5c-35.6,1.2-51.6,13.4-52.6,40s16.1,41.7,52,46.1v28c-19.6,7.5-53.1-5.4-69.3-26.5
		c-20.8-27-22.2-63.1-3.6-89.2c16.2-22.8,50.4-35.8,73.6-28L420.5,140.5z"/>
	<path fill="#FE190A" d="M250.6,31.9c-2.2,9.5-4,17.7-6,26.2l10.1,7.8l-19.8,8.3c1.4-6.9,2.5-12.8,3.8-18.7
		c1.7-7.5,3.3-14.9,5.2-22.4c1.7-6.4,1.3-11.7-7.1-14.1l17.4-18.7l35.2,40c3.2-13.9,6.1-26.6,9.2-40.3l16,9.2
		c-0.6,0.7-0.7,1.2-1,1.2c-12,3.2-14.4,12.9-16.4,23.4c-2.2,11.9-5.2,23.7-7.8,35.6c-0.3,1.4-0.8,2.7-1.4,5.1L250.6,31.9z"/>
	<path fill="#FE190A" d="M316.6,39.6l-6.2-1.7v-1.1l7-1.2c2-8.7,4.1-17.8,6.2-27.3L315.1,3h62.6c-1.5,7-2.9,13.6-4.3,20.1
		c-3.4-16.9-15.1-17.3-28.7-15c-1.8,8.4-3.7,16.9-5.6,25.8c9.4,0.4,14.4-5.6,21.2-12.3c-2.4,11.1-4.4,20.3-6.6,30.4
		c-4.4-5.8-6.6-13.4-15.9-12.5c-2,9.1-3.9,17.9-5.8,26.7c16.8,4.2,27.4-3.1,34.4-17.6l1.4,1c-1.5,7.2-3,14.4-4.6,21.7h-61.5
		c0-0.4,0-0.7,0.1-1.1c10-1.5,10.3-9.6,11.8-17C314.3,48.9,315.5,44.6,316.6,39.6z"/>
	<path fill="#FE190A" d="M432.3,0.8l7.4,17L429,22.2L418.8,8.1c-11.3,3.3-20.5,8.8-24.2,20.4c-2.5,7.8-1,15.2,5.6,20.4
		c12.6,9.8,23.8,1.8,36.8-4.6c-5.2,9.9-8.1,20-14.5,26.4c-5.9,5.8-16.1,4.4-24.4,1.8c-18.4-5.8-26.5-25.6-18.1-43.8
		C388,11.2,412.3-1.9,432.3,0.8z"/>
	<path fill="#020202" d="M467.7,168.4c0.2,0.5,0.3,1.1,0.4,1.6c0,6.6,0,13.3,0,20.1h-45v-21.7L467.7,168.4L467.7,168.4z"/>
</g>
</svg>
