<?xml version="1.0" encoding="utf-8"?>
<!-- Generator: Adobe Illustrator 24.3.0, SVG Export Plug-In . SVG Version: 6.00 Build 0)  -->
<svg version="1.1" id="Layer_1" xmlns="http://www.w3.org/2000/svg" xmlns:xlink="http://www.w3.org/1999/xlink" x="0px" y="0px"
	 width="435.6px" height="256.7px" viewBox="0 0 435.6 256.7" style="enable-background:new 0 0 435.6 256.7;" xml:space="preserve"
	>
<style type="text/css">
	.st0{fill:#020202;}
	.st1{fill:#FE190A;}
</style>
<path class="st0" d="M354.9,179.3c-15.1-25.5-13-46.9,5.7-61.7c17-13.4,45.5-11.6,61.7,3.8c16.5,15.9,17.2,37.5,1.9,58.8
	c17.4,28.9,14.9,52.5-7,68c-20.5,14.4-50.9,9.9-67.1-9.9C335.3,220.2,337.3,195.9,354.9,179.3z M388.1,194.4
	c-9.4,0.1-16.3,6.7-16.4,15.7c-0.1,8.9,7,16.3,16,16.4c0.1,0,0.3,0,0.4,0c8.6-0.1,16.2-7.3,16.3-15.6c0.2-8.9-6.8-16.3-15.7-16.5
	C388.5,194.4,388.3,194.4,388.1,194.4z M403.7,152.8c0.3-7.8-5.7-14.3-13.5-14.6s-14.3,5.7-14.6,13.5l0,0c-0.2,7.8,6,14.4,13.8,14.6
	c7.6,0.3,14.1-5.7,14.3-13.4C403.7,152.9,403.7,152.9,403.7,152.8L403.7,152.8z"/>
<path class="st0" d="M0,110.1c19.9,0,39.3-1.5,58.4,0.4c26,2.5,43.8,28.8,39,54.5C93,189.2,65.7,207.1,41,201.7V172
	c8.2,0.3,15.8-0.7,19.6-8.4c1.7-3.8,2.2-7.9,1.6-12c-1.8-9.7-12.5-14-26.4-10.9v111H0V110.1z"/>
<path class="st0" d="M262.3,252.6c8.1-16.6,15.8-32.5,23-47.3c-8.6-4.1-17.5-7.1-24.8-12.3c-16.8-11.9-22.7-34.5-15.4-54
	c7.1-19.3,25.9-31.6,46.4-30.5c21,1.4,38.7,15.9,43.5,35.9c2.5,10.7,1.8,21.3-2.9,31.2c-11.8,25-24,49.9-36,74.8
	c-0.4,0.7-0.9,1.4-1.5,2.1L262.3,252.6z M289.3,174.2c9.8,0,18.2-8.6,18.2-18.6c-0.1-9.8-7.9-17.7-17.7-17.9
	c-9.7-0.1-18,8.1-18.1,18S279.7,174.2,289.3,174.2z"/>
<path class="st0" d="M185.8,140.5c-35.6,1.2-51.6,13.4-52.6,40s16.1,41.7,52,46.1v28c-19.6,7.5-53.1-5.4-69.3-26.5
	c-20.8-27-22.2-63.1-3.6-89.2c16.2-22.8,50.4-35.8,73.6-28L185.8,140.5z"/>
<path class="st1" d="M15.9,31.9c-2.2,9.5-4,17.7-6,26.2L20,65.9L0.2,74.2C1.6,67.3,2.7,61.4,4,55.5c1.7-7.5,3.3-14.9,5.2-22.4
	c1.7-6.4,1.3-11.7-7.1-14.1L19.5,0.3l35.2,40c3.2-13.9,6.1-26.6,9.2-40.3l16,9.2c-0.6,0.7-0.7,1.2-1,1.2
	c-12,3.2-14.4,12.9-16.4,23.4c-2.2,11.9-5.2,23.7-7.8,35.6c-0.3,1.4-0.8,2.7-1.4,5.1L15.9,31.9z"/>
<path class="st1" d="M81.9,39.6l-6.2-1.7v-1.1l7-1.2c2-8.7,4.1-17.8,6.2-27.3l-8.5-5.3H143c-1.5,7-2.9,13.6-4.3,20.1
	C135.3,6.2,123.6,5.8,110,8.1c-1.8,8.4-3.7,16.9-5.6,25.8c9.4,0.4,14.4-5.6,21.2-12.3c-2.4,11.1-4.4,20.3-6.6,30.4
	c-4.4-5.8-6.6-13.4-15.9-12.5c-2,9.1-3.9,17.9-5.8,26.7c16.8,4.2,27.4-3.1,34.4-17.6l1.4,1c-1.5,7.2-3,14.4-4.6,21.7H67
	c0-0.4,0-0.7,0.1-1.1c10-1.5,10.3-9.6,11.8-17C79.6,48.9,80.8,44.6,81.9,39.6z"/>
<path class="st1" d="M197.6,0.8l7.4,17l-10.7,4.4L184.1,8.1c-11.3,3.3-20.5,8.8-24.2,20.4c-2.5,7.8-1,15.2,5.6,20.4
	c12.6,9.8,23.8,1.8,36.8-4.6c-5.2,9.9-8.1,20-14.5,26.4c-5.9,5.8-16.1,4.4-24.4,1.8c-18.4-5.8-26.5-25.6-18.1-43.8
	C153.3,11.2,177.6-1.9,197.6,0.8z"/>
<path class="st0" d="M233,168.4c0.2,0.5,0.3,1.1,0.4,1.6c0,6.6,0,13.3,0,20.1h-45v-21.7H233z"/>
</svg>
