<svg id="Layer_1" data-name="Layer 1" xmlns="http://www.w3.org/2000/svg" viewBox="0 0 435.6 256.69"><defs><style>.cls-1{fill:#020202;}.cls-2{fill:#fe190a;}</style></defs><path class="cls-1" d="M382.27,295.06c-15.06-25.54-13-46.94,5.7-61.66,17-13.39,45.55-11.62,61.67,3.83,16.54,15.86,17.23,37.46,1.89,58.8,17.39,28.92,14.94,52.49-7,68-20.52,14.44-50.93,9.94-67.09-9.93C362.72,336,364.65,311.69,382.27,295.06Zm33.25,15.09c-9.37.08-16.32,6.73-16.4,15.69a16.17,16.17,0,0,0,16.39,16.38c8.64-.08,16.19-7.31,16.27-15.6A16.08,16.08,0,0,0,415.52,310.15Zm15.61-41.58A14.06,14.06,0,1,0,403,267.42a14.35,14.35,0,0,0,13.82,14.65A13.85,13.85,0,0,0,431.13,268.57Z" transform="translate(-27.39 -115.76)"/><path class="cls-1" d="M27.39,225.87c19.87,0,39.31-1.49,58.43.36,26,2.52,43.76,28.81,39,54.52C120.36,305,93.06,322.87,68.4,317.48V287.72c8.16.33,15.85-.66,19.62-8.39a20.69,20.69,0,0,0,1.55-12c-1.76-9.68-12.49-14-26.44-10.91v111H27.39Z" transform="translate(-27.39 -115.76)"/><path class="cls-1" d="M289.74,368.33c8.09-16.6,15.84-32.48,23.05-47.26-8.57-4.15-17.48-7.12-24.82-12.3-16.82-11.89-22.71-34.45-15.37-54A46.56,46.56,0,0,1,319,224.31c21,1.35,38.74,15.86,43.48,35.88,2.53,10.67,1.81,21.29-2.89,31.23-11.84,25-24,49.89-36,74.81a15.42,15.42,0,0,1-1.45,2.1ZM316.66,290c9.82,0,18.25-8.6,18.17-18.62a18,18,0,0,0-17.74-17.88c-9.67-.13-18,8.15-18.14,18S307.05,289.93,316.66,290Z" transform="translate(-27.39 -115.76)"/><path class="cls-1" d="M213.19,256.24c-35.61,1.18-51.58,13.42-52.62,39.95s16.06,41.66,52,46.06v28c-19.61,7.45-53.1-5.39-69.34-26.47-20.77-27-22.25-63.07-3.65-89.21,16.21-22.77,50.36-35.82,73.61-28Z" transform="translate(-27.39 -115.76)"/><path class="cls-2" d="M43.25,147.68c-2.17,9.5-4,17.72-6,26.17l10.1,7.84L27.6,190c1.41-6.93,2.53-12.83,3.83-18.7,1.66-7.47,3.34-14.94,5.25-22.35,1.65-6.39,1.27-11.69-7.12-14.12l17.33-18.75,35.19,40c3.19-13.93,6.12-26.65,9.25-40.29l16,9.17c-.56.74-.71,1.15-1,1.22-12,3.2-14.43,12.92-16.37,23.38-2.22,11.93-5.19,23.72-7.85,35.57-.31,1.36-.76,2.69-1.44,5.09Z" transform="translate(-27.39 -115.76)"/><path class="cls-2" d="M109.28,155.4l-6.21-1.71,0-1.06,7-1.19c2-8.72,4.09-17.84,6.25-27.28l-8.53-5.26h62.61c-1.5,7-2.9,13.56-4.29,20.09-3.39-17.06-15.15-17.47-28.76-15.11-1.83,8.37-3.68,16.87-5.64,25.83,9.41.42,14.41-5.56,21.18-12.27-2.41,11.11-4.42,20.32-6.6,30.38-4.41-5.78-6.59-13.43-15.85-12.46-2,9.1-3.91,17.92-5.83,26.71C141.45,186.26,152,179,159,164.44l1.38,1c-1.53,7.2-3,14.39-4.59,21.67H94.36a6.92,6.92,0,0,1,.06-1.09c10-1.46,10.34-9.57,11.77-17C107,164.66,108.15,160.33,109.28,155.4Z" transform="translate(-27.39 -115.76)"/><path class="cls-2" d="M225,116.61l7.43,17-10.73,4.43-10.23-14.16c-11.34,3.3-20.51,8.79-24.25,20.37-2.5,7.75-1,15.24,5.6,20.35,12.6,9.76,23.83,1.75,36.82-4.62-5.2,9.94-8.06,20-14.54,26.42-5.91,5.83-16.08,4.41-24.38,1.81-18.42-5.77-26.49-25.63-18.11-43.78C180.67,127,205,113.87,225,116.61Z" transform="translate(-27.39 -115.76)"/><path class="cls-1" d="M260.35,284.19a7.9,7.9,0,0,1,.39,1.63c0,6.63,0,13.26,0,20.1H215.7V284.19Z" transform="translate(-27.39 -115.76)"/></svg>