<?xml version="1.0" encoding="utf-8"?>
<!-- Generator: Adobe Illustrator 16.0.0, SVG Export Plug-In . SVG Version: 6.00 Build 0)  -->
<!DOCTYPE svg PUBLIC "-//W3C//DTD SVG 1.1//EN" "http://www.w3.org/Graphics/SVG/1.1/DTD/svg11.dtd">
<svg version="1.1"
	 id="Layer_2" xmlns:rdf="http://www.w3.org/1999/02/22-rdf-syntax-ns#" xmlns:cc="http://creativecommons.org/ns#" xmlns:dc="http://purl.org/dc/elements/1.1/"
	 xmlns="http://www.w3.org/2000/svg" xmlns:xlink="http://www.w3.org/1999/xlink" x="0px" y="0px" width="282.08px"
	 height="381.19px" viewBox="0.014 -0.017 282.08 381.19" enable-background="new 0.014 -0.017 282.08 381.19" xml:space="preserve"
	>
<g id="Layer_5_1_" transform="matrix(0.4161329,0,0,0.4161329,197.98398,622.57578)">
	<path id="path134_1_" fill="#991A37" d="M-138.798-585.28c-52.105,0-102.821-9.882-142.791-27.825
		c-43.625-19.588-73.443-48.033-86.228-82.256c-5.699-15.263-45.744-122.461-66.231-177.321c0.95,0.221,1.957,0.418,3.024,0.589
		c1.308,0.209,2.601,0.383,3.883,0.561c4.871,0.667,9.076,1.239,13.009,3.346c5.274,2.828,6.889,7.113,9.291,14.442l6.747,20.37
		c1.488,4.494,6.756,6.242,18.799,6.242c1.333,0,2.384-0.023,2.926-0.042c1.045-0.033,2.084-0.07,3.117-0.113
		c2.449-0.094,4.759-0.178,7.072-0.178c4.008,0,7.268,0.286,10.255,0.906c6.964,1.436,12.711,4.121,16.615,7.761
		c2.172,2.021,2.97,4.231,4.07,7.291c0.637,1.765,1.358,3.769,2.434,5.86c5.154,9.997,17.165,15.733,32.959,15.733
		c2.76,0,5.524-0.176,8.223-0.528c3.709-0.481,7.262-1.286,10.7-2.063c4.48-1.018,8.715-1.971,13.048-2.201
		c1.246-0.066,2.498-0.103,3.75-0.103c5.883,0,11.589,0.734,16.965,2.171c7.063,1.896,12.702,4.705,16.761,8.371
		c1.044,0.927,1.995,1.838,2.929,2.729c3.064,2.922,6.227,5.942,10.835,8.195c6.822,3.337,14.781,5.095,23.016,5.095
		c8.58,0,17.143-1.87,24.764-5.419l1.476-0.685c6.768-3.159,12.614-5.89,19.581-7.115c4.116-0.718,8.356-1.089,12.6-1.089
		c2.99,0,6.017,0.185,8.993,0.549c6.888,0.831,13.224,3.473,19.932,6.261c7.356,3.06,14.964,6.224,23.64,7.05
		c1.924,0.183,3.87,0.277,5.778,0.277c6.574,0,12.826-1.065,18.578-3.168c7.27-2.647,11.798-6.918,16.593-11.443l1.252-1.178
		c10.003-9.382,25.203-10.783,33.376-10.783c1.399,0,2.82,0.04,4.221,0.12c4.899,0.277,9.626,1.197,14.637,2.168
		c5.97,1.159,12.143,2.366,18.575,2.366c4.665,0,8.967-0.629,13.159-1.915c9.449-2.886,16.12-8.552,18.775-15.944l0.073-0.209
		l0.056-0.211c1.683-6.318,3.822-9.723,7.883-12.557c4.729-3.314,10.808-5.426,18.075-6.299c1.516-0.178,3.177-0.267,5.078-0.267
		c1.984,0,3.966,0.094,6.068,0.19c2.12,0.099,4.316,0.199,6.539,0.199c1.555,0,2.965-0.052,4.317-0.153l0.866-0.056
		c4.218-0.284,12.07-0.805,14.31-7.39l3.846-11.33c0.595-1.753,1.132-3.64,1.649-5.466c1.401-4.933,2.851-10.039,5.531-13.055
		c4.043-4.557,10.772-6.184,15.704-6.752l1.084-0.12c2.212-0.249,4.627-0.514,7.063-1.03L93.168-695.894
		c-13.026,34.234-43.305,62.776-87.555,82.528c-40.633,18.14-91.912,28.119-144.39,28.119"/>
	<path id="path136_1_" fill="#010101" d="M168.751-882.318c-0.035,0.028-0.066,0.066-0.1,0.099
		c-0.089,0.089-0.164,0.164-0.176,0.178c0.09-0.092,0.18-0.183,0.28-0.282 M168.766-882.332l-0.008,0.012l0.011-0.012H168.766z
		 M168.776-882.342c-0.006,0-0.009,0.005-0.014,0.009l0.009-0.009H168.776z M168.825-882.393c-0.041,0.04-0.116,0.122-0.214,0.216
		l0.045-0.042c0.06-0.061,0.121-0.122,0.17-0.171 M168.857-882.431c-0.012,0.016-0.021,0.023-0.033,0.038
		c0.007-0.009,0.019-0.019,0.025-0.024v-0.019 M168.858-882.445l-0.019,0.023c-0.026,0.021-0.05,0.047-0.072,0.07
		c0.07-0.049,0.089-0.089,0.089-0.089 M-444.372-885.58c17.657,47.266,65.463,175.239,71.73,192.03
		c28.328,75.831,130.91,113.44,233.851,113.44c103.79,0,207.93-38.201,236.77-113.97c6.722-17.662,55.294-145.25,72.859-191.378
		c-0.439,1.143-1.13,2.171-1.975,3.046c0.095-0.092,0.17-0.169,0.17-0.169s-0.073,0.077-0.272,0.279
		c-0.203,0.204-0.278,0.279-0.278,0.279s0-0.002,0.002-0.002c-1.119,1.131-1.504,1.521-1.504,1.521
		c-0.004,0,1.117-1.131,1.636-1.657c-4.444,4.358-11.065,4.839-16.894,5.508c-6.856,0.786-14.252,3.133-18.97,8.446
		c-4.633,5.214-6.015,13.829-8.208,20.29c-1.284,3.776-2.566,7.554-3.845,11.328c-1.231,3.626-7.176,3.701-10.681,3.966
		c-1.311,0.099-2.624,0.136-3.932,0.136c-4.207,0-8.398-0.387-12.607-0.387c-1.89,0-3.786,0.075-5.69,0.3
		c-7.171,0.859-14.448,3.013-20.413,7.188c-5.704,3.982-8.171,8.922-9.915,15.463c-2.415,6.728-8.881,10.76-15.432,12.759
		c-3.978,1.22-7.842,1.685-11.649,1.685c-11.01,0-21.533-3.877-32.918-4.522c-1.477-0.087-2.986-0.131-4.512-0.131
		c-13.028,0-27.333,3.208-36.903,12.177c-5.143,4.823-9.243,9.054-16.081,11.544c-5.361,1.957-11.099,2.856-16.816,2.856
		c-1.767,0-3.537-0.089-5.287-0.253c-15.479-1.474-27.929-11.415-43.441-13.301c-3.189-0.385-6.4-0.582-9.612-0.582
		c-4.522,0-9.042,0.385-13.493,1.164c-8.182,1.441-14.914,4.757-22.34,8.209c-6.904,3.215-14.768,4.942-22.592,4.942
		c-7.207,0-14.381-1.469-20.75-4.581c-5.202-2.544-8.377-6.386-12.573-10.119c-5.272-4.755-12.089-7.702-18.883-9.523
		c-5.95-1.591-12.132-2.337-18.293-2.337c-1.34,0-2.686,0.033-4.021,0.103c-8.298,0.437-15.973,3.234-24.14,4.299
		c-2.356,0.305-4.916,0.484-7.562,0.484c-10.924,0-23.282-3.06-28.373-12.94c-2.721-5.278-2.905-10.211-7.572-14.564
		c-5.212-4.853-12.197-7.608-19.09-9.03c-3.815-0.789-7.552-1.014-11.297-1.014c-3.416,0-6.842,0.183-10.354,0.296
		c-0.512,0.016-1.504,0.042-2.763,0.042c-4.705,0-13.121-0.343-13.906-2.713c-2.086-6.303-4.182-12.616-6.271-18.929
		c-2.558-7.725-4.385-14.604-12.224-18.807c-5.911-3.166-12.062-3.431-18.519-4.454c-5.29-0.84-12.15-2.91-14.21-8.411
		 M-444.437-885.613c0.005,0.012,0.007,0.019,0.012,0.033c0,0,0-0.021-0.009-0.03 M152.485-866.37l-25.55,67.113L88.287-697.755
		c-12.529,32.923-41.867,60.467-84.84,79.651c-39.984,17.852-90.518,27.673-142.291,27.673c-51.394,0-101.36-9.723-140.68-27.375
		c-42.34-19.009-71.217-46.452-83.509-79.358c-5.423-14.522-41.953-112.32-63.132-169.018c3.759,0.53,6.84,1.089,9.549,2.539
		c3.409,1.826,4.523,4.464,6.831,11.504l0.475,1.46l3.772,11.377l2.499,7.547c3.236,9.781,16.546,9.781,23.694,9.781
		c1.409,0,2.519-0.026,3.091-0.042c1.056-0.038,2.106-0.075,3.152-0.117c2.398-0.089,4.662-0.174,6.875-0.174
		c3.701,0,6.54,0.244,9.213,0.798c6.038,1.241,10.93,3.487,14.146,6.482c1.152,1.075,1.64,2.234,2.732,5.266
		c0.69,1.92,1.471,4.083,2.701,6.477c6.065,11.776,19.749,18.528,37.54,18.528c2.983,0,5.971-0.195,8.893-0.575
		c3.945-0.507,7.616-1.34,11.168-2.145c4.259-0.967,8.284-1.873,12.18-2.079c1.16-0.066,2.331-0.089,3.484-0.089
		c5.429,0,10.688,0.667,15.628,1.99c6.267,1.673,11.192,4.102,14.702,7.27c0.921,0.824,1.816,1.676,2.763,2.572
		c3.188,3.051,6.806,6.496,12.122,9.096c7.527,3.684,16.269,5.628,25.283,5.628c9.327,0,18.64-2.039,26.941-5.897l1.484-0.695
		c6.436-3.006,11.994-5.602,18.294-6.709c3.818-0.669,7.756-1.009,11.703-1.009c2.787,0,5.601,0.169,8.37,0.507
		c6.186,0.751,12.203,3.257,18.577,5.904c7.709,3.21,15.681,6.526,25.13,7.42c2.084,0.207,4.192,0.303,6.265,0.303
		c7.181,0,14.025-1.171,20.344-3.473c8.27-3.013,13.402-7.862,18.367-12.543l1.238-1.169c6.363-5.965,17.245-9.389,29.85-9.389
		c1.305,0,2.626,0.042,3.927,0.115c4.552,0.256,9.112,1.145,13.946,2.084c6.211,1.211,12.634,2.455,19.558,2.455
		c5.186,0,9.983-0.699,14.664-2.131c11.05-3.379,18.908-10.178,22.125-19.145l0.144-0.406l0.112-0.42
		c1.366-5.121,2.844-7.557,5.86-9.664c3.967-2.779,9.405-4.642,15.727-5.4c1.312-0.155,2.774-0.232,4.468-0.232
		c1.868,0,3.792,0.089,5.829,0.183c2.181,0.103,4.437,0.204,6.776,0.204c1.685,0,3.224-0.054,4.699-0.162l0.827-0.061
		c4.637-0.305,15.503-1.028,18.849-10.877l1.787-5.259l2.057-6.064c0.637-1.877,1.192-3.825,1.728-5.717
		c1.183-4.173,2.527-8.904,4.428-11.044c2.271-2.53,6.55-4.309,12.089-4.989"/>
	<path id="path138_1_" fill="#010101" d="M-162.238-1091.1c-9.962,0-18.968,3.825-28.734,4.46c-9.52,0.617-19.023-1.013-28.559-0.28
		c-12.162,0.934-22.501,7.532-34.859,7.532c-11.376,0-23.208-0.203-33.622,5.211c-17.006,8.84-42.183,3.269-56.24,17.806
		c-11.356,11.744-32.775,5.833-45.746,18.109c-3.359,3.18-3.874,8.486-8.141,9.95c-4.792,1.657-9.791,2.674-14.6,4.291
		c-9.432,3.173-19.496,8.64-23.161,18.545c-2.354,6.351,0.823,7.193-5.599,9.833c-4.434,1.826-8.757,3.973-12.563,6.925
		c-6.972,5.409-8.833,12.847-9.842,21.696c-0.076,0.662,0.095,11.999,0.107,11.987c-3.357,2.724-6.313,6.008-8.457,9.781
		c-5.076,8.948-4.088,18.476-0.324,27.776c4.086,10.084,7.542,13.895,7.953,24.277c-0.438,4.975,1.962,10.15,3.776,14.599
		c7.727,18.976,12.127,33.46,35.171,33.95c4.657,0.099,6.848,18.392,8.581,22.998c4.276,11.37,14.517,19.194,26.056,22.285
		c15.607,4.187,40.228-5.06,47.201,13.151c7.906,20.647,32.446,28.283,52.705,26.629c16.365-1.34,40.408-11.703,53.775,3.492
		c15.451,17.561,41.7,21.994,63.564,16.237c20.045-5.273,34.754-17.441,56.421-9.101c23.918,9.211,46.034,17.343,70.708,3.922
		c17.361-9.448,23.795-22.599,46.377-18.783c19.917,3.389,38.953,7.596,57.364-3.966c13.434-8.425,13.795-27.875,29.879-29.776
		c14.16-1.671,27.922,1.685,41.347-5.308c16.23-8.446,20.006-26.8,23.613-43.225c14.287-2.121,26.659-5.998,31.885-21.255
		c3.269-7.219,6.613-15,7.681-22.923c0.476-3.154,0.333-6.378-0.367-9.49c2.35-3.046,4.711-5.759,6.382-9.274
		c8.054-16.981,6.186-36.802-10.222-47.697c4.34-15.55-0.535-26.544-14.704-34.754c-7.161-4.148-11.1-3.47-13.246-11.289
		c-2.021-7.247-5.34-12.932-11.706-16.665c-8.205-4.811-17.502-5.707-26.131-9.272c-3.545-9.23-12.567-14.694-21.548-17.657
		c-7.43-2.45-15.186-2.774-22.69-4.777c-7.714-2.069-12.072-9.266-19.985-12.143c-8.574-3.115-17.676-3.399-26.646-4.344
		c-9.66-1.016-16.373-6.878-25.515-9.249c-9.656-2.538-19.14-1.883-28.927-2.475c-9.838-0.59-18.166-5.734-27.864-6.973
		c-7.696-0.983-15.402-0.33-23.112-0.022c-10.538,0.414-20.038-2.909-30.372-4.197c-9.741-1.212-19.262,0.61-28.933,1.559
		c-9.59,1-18.55-2.1-28.12-2.1"/>
	<path id="path140_1_" fill="#991A37" d="M-192.289-750.299c-12.885,0-26.496-4.264-35.356-14.538
		c-6.937-8.047-17.443-11.431-27.48-12.49c-14.401-1.521-27.387,4.71-41.594,4.71c-12.587,0-27.231-4.287-33.935-16.477
		c-2.551-4.67-2.533-10.178-6.465-13.984c-5.156-5.05-12.601-7.327-19.45-8.181c-13.501-1.673-26.767,2.607-39.278-5.325
		c-4.993-3.161-8.803-8.148-10.083-14.226c-0.857-3.175-6.136-21.424-6.872-25.298c-1.082-5.707-18.447-1.814-24.281-5.144
		c-5.297-3.025-7.952-11.07-9.649-14.829c-1.698-3.757-6.909-15.456-7.246-19.128c0.867-1.744,19.926-5.684,19.926-5.684
		s-3.331-0.936-9.156-2.943c-5.827-2.004-12.634-7.824-14.334-11.093c-1.703-3.274-9.759-17.335-7.263-24.467
		c3.688-4.614,22.306-4.13,26.413-7.568c-0.956-1.164-11.342-8.879-12.512-10.477c-4.007-5.47-3.078-17.566,1.069-22.505
		c4.365-5.2,23.397-2.583,30.111-6.532c2.597-1.53-9.322-0.8-6.984-2.781c3.016-2.55,1.819-11.06,2.274-14.706
		c1.87-14.972,27.015-10.24,36.605-14.042c2.861-1.137,5.582,1.37,7.981-0.649c1.457-1.234,1.32-5.582,2.598-7.594
		c3.345-5.281,16.202-12.162,21.766-13.86c6.222-1.897,6.203,1.971,12.403-0.027c2.971-0.958,6.172-2.107,8.683-4.095
		c2.077-1.612,3.072-4.759,5.482-6.477c5.964-4.255,12.443-7.27,19.215-8.69c6.899-1.446,14.103-1.254,21.527-1.251
		c5.02,0.002,7.896-5.705,12.732-7.437c6.948-3.39,11.65-4.485,18.47-5.285c6.126,0.338,14.693,2.211,20.613,0.509
		c5.288-1.515,9.702-4.671,15.207-5.748c12.214-2.382,24.331,1.298,36.581-0.823c5.359-0.929,10.245-3.308,15.668-3.992
		c6.416-0.807,13.142-0.617,19.414,1.057c12.702,3.444,24.502-1.559,37.122-1.409c9.41,0.111,17.584,4.205,26.808,5.088
		c11.282,1.069,22.281-1.99,33.519,0.65c5.13,1.21,9.347,4.278,14.374,5.637c6.28,1.684,12.717-0.568,19.151-0.723
		c5.603,0.495,9.389,2.662,16.817,5.969c6.539,2.729,10.537,5.319,16.426,7.331c6.801,2.321,8.115-1.057,15.54-0.246
		c7.883,0.86,19.855,6.192,25.278,10.903c2.187,1.897,3,4.77,5.426,6.24c2.517,1.535,5.338,2.585,8.123,3.445
		c4.853,1.489,1.125-2.983,6.104-2.12c7.628,1.544,20.277,8.662,24.696,12.717c2.341,2.144,4.151,5.004,4.506,8.305
		c0.311,3,3.024,3.816,5.78,3.276c1.049-0.205,2.14-0.544,3.755-0.15c5.949,1.927,20.525-1.136,26.725,4.265
		c4.392,3.83,7.936,3.925,8.824,10.428c0.401,2.942,1.474,16.975,3.742,16.71c5.852,2.628,16.891,0.327,22.193,6.687
		c2.323,2.789,4.19,5.246,2.932,10.009c-1.261,4.761-5.559,19.452-4.405,20.339c5.539,4.231,14.306,2.875,16.756,8.998
		c2.627,6.576-0.981,21.346-4.857,25.692c-1.156,1.291-7.268,9.176-7.456,10.692c2.875,3.947,2.74,4.879,2.608,7.683
		c-0.136,2.811-2.175,10.499-7.061,21.398c-4.549,14.747-21.909,11.708-32.966,15.55c-1.069,5.881-6.274,30.94-10.833,36.825
		c-9.048,11.663-24.17,10.772-36.975,10.354c-6.495-0.209-13.17,0.739-19.194,3.361c-2.783,1.211-5.467,2.811-7.682,4.961
		c-2.949,2.858-3.442,5.914-4.601,9.72c-4.106,13.438-17.961,19.544-30.333,20.703c-10.355,0.962-19.423-2.164-29.462-3.9
		c-9.757-1.69-20.108-1.094-29.509,2.22c-4.438,1.568-8.81,3.806-12.298,7.125c-3.275,3.126-5.869,6.604-9.642,9.18
		c-8.246,5.642-18.268,8.049-28.034,8.049c-9.987,0-20.048-2.527-28.776-7.66c-8.594-5.027-18.766-6.944-28.515-6.944
		c-9.747,0.012-19.944,1.908-28.517,6.977c-8.741,5.121-18.84,7.669-28.86,7.669"/>
	<path id="path142_1_" fill="#CB2027" d="M-193.578-782.539c-13.185,0-27.114-3.877-36.178-13.198
		c-7.102-7.303-17.852-10.377-28.119-11.337c-14.74-1.378-28.026,4.278-42.568,4.278c-12.873,0-27.858-3.896-34.72-14.963
		c-2.612-4.238-2.591-9.241-6.618-12.696c-5.272-4.586-12.893-6.651-19.898-7.418c-13.815-1.528-27.389,2.363-40.186-4.846
		c-5.115-2.868-9.155-7.369-10.322-12.912c-0.554-2.68-0.42-5.428,0.278-8.068c0.701-2.607,2.192-4.97,0.974-7.665
		c-2.213-4.895-9.21-6.935-14.307-7.735c-6.532-1.033-12.851-1.138-18.82-4.166c-5.42-2.746-9.606-7.54-9.876-13.459
		c-0.303-6.665,3.966-11.084,8.197-15.864c4.289-4.837,1.448-8.183-4.366-9.601c-6.165-1.502-12.452-4.832-14.38-10.884
		c-2.021-6.31,1.808-12.363,6.733-16.448c4.248-3.518,10.821-5.555,13.596-10.43c0.948-1.666-4.675-4.147-5.874-5.596
		c-4.1-4.968-2.84-11.363,1.402-15.843c4.465-4.723,10.646-7.061,16.698-9.46c2.817-1.11,5.59-2.468,7.984-4.268
		c3.082-2.318,0.835-2.701,0.216-5.989c-2.718-14.435,20.035-17.493,29.847-20.946c2.929-1.028,5.929-2.275,8.385-4.112
		c1.495-1.118,1.359-5.067,2.662-6.894c3.423-4.797,9.902-7.216,15.597-8.76c6.362-1.718,13.022-2.029,19.362-3.845
		c3.045-0.872,6.321-1.914,8.888-3.717c2.125-1.467,3.141-4.323,5.608-5.881c12.319-7.795,28.236-4.429,41.689-9.023
		c4.799-1.638,8.076-5.178,13.026-6.752c6.719-2.13,14.104-2.804,21.163-2.471c6.267,0.31,12.778-0.318,18.836-1.866
		c5.407-1.374,9.926-4.239,15.558-5.218c12.499-2.164,24.897,1.18,37.431-0.745c5.481-0.844,10.478-3.004,16.034-3.627
		c6.563-0.729,13.447-0.56,19.858,0.962c13,3.127,25.075-1.413,37.983-1.279c9.632,0.1,17.993,3.816,27.432,4.615
		c11.546,0.973,22.801-1.801,34.3,0.596c5.246,1.094,9.563,3.88,14.713,5.112c6.42,1.529,12.927,1.811,19.511,1.67
		c5.922-0.124,11.959,0.453,17.662,1.982c6.247,1.653,10.407,5.941,16.432,7.77c13.406,4.059,30.233,0.78,41.768,9.673
		c2.239,1.72,3.071,4.329,5.555,5.66c2.576,1.394,5.459,2.348,8.309,3.132c4.968,1.352,10.104,1.741,15.127,2.821
		c5.753,1.238,11.87,3.116,16.39,6.799c2.396,1.948,4.251,4.542,4.61,7.542c0.316,2.72,3.342,3.777,5.909,4.913
		c8.203,3.612,17.325,4.24,25.103,8.891c4.942,2.959,9.407,7.842,8.143,13.697c-0.513,2.363-2.48,3.2-0.358,4.967
		c2.56,2.133,5.711,3.664,8.86,4.912c9.348,3.702,26.801,11.919,19.042,24.108c-1.436,2.255-3.641,3.98-6.11,5.199
		c-1.755,0.868,0.292,2.474,1.27,3.461c4.391,4.424,10.747,6.47,14.991,11.14c4.086,4.453,6.012,10.63,2.93,16.065
		c-3.465,6.111-9.862,6.768-15.93,9.371c-6.617,2.842-2.177,7.477,1.126,10.908c4.541,4.715,7.547,11.154,5.341,17.488
		c-4.655,13.395-20.871,11.187-32.182,14.674c-5.315,1.638-11.682,5.543-9.094,11.567c2.721,6.325,1.956,13.412-2.708,18.753
		c-9.251,10.591-24.731,9.777-37.833,9.401c-6.646-0.185-13.479,0.671-19.642,3.051c-2.844,1.101-5.59,2.551-7.858,4.501
		c-3.016,2.598-3.518,5.372-4.708,8.826c-4.201,12.196-18.379,17.744-31.041,18.795c-10.594,0.873-19.871-1.964-30.138-3.544
		c-9.991-1.53-20.581-1-30.204,2.013c-4.541,1.422-9.014,3.459-12.582,6.472c-3.355,2.835-6.008,5.994-9.867,8.336
		c-8.439,5.121-18.697,7.308-28.683,7.308c-10.218,0-20.515-2.297-29.448-6.96c-8.791-4.555-19.201-6.299-29.174-6.299
		c-9.978,0.007-20.411,1.727-29.181,6.341c-8.969,4.698-19.302,7.012-29.561,7.012"/>
	<path id="path144_1_" fill="#010101" d="M-56.889-991.84c0,21.084-37.507,38.177-83.773,38.177s-83.777-17.093-83.777-38.177
		c0-21.086,37.509-38.183,83.777-38.182c46.263,0,83.769,17.1,83.769,38.161"/>
	<path id="path146_1_" fill="#FFCD05" d="M-48.908-853.73c-9.344,0-18.653-1.685-26.927-4.874
		c-10.098-3.896-17.5-9.706-21.413-16.805c-0.432-0.779-0.778-1.359-1.057-1.826c-1.616-2.701-1.889-3.727-2.089-7.833l-0.378-7.669
		l-0.562-12.076l9.103,7.953c2.591,2.26,5.589,4.278,8.915,5.991c9.913,5.102,21.715,7.794,34.13,7.794
		c11.716,0,22.989-2.41,32.6-6.982c3.794-1.807,7.228-4.036,10.205-6.632l9.21-8.016l-0.675,12.189
		c-0.129,2.276-0.263,3.25-0.381,4.107c-0.103,0.756-0.195,1.408-0.296,3.283c-0.636,12.398-11.147,19.985-17.355,23.404
		c-9.506,5.238-20.926,7.998-33.035,7.998"/>
	<path id="path148_1_" fill="#1D1D1B" d="M-107.049-916.651l1.125,24.153c0.073,1.547,0.148,3.088,0.225,4.628l0.15,3.048
		c0.229,4.663,0.628,6.573,2.815,10.234c0.257,0.427,0.575,0.953,0.974,1.683c4.498,8.162,12.823,14.773,24.061,19.112
		c8.864,3.415,18.816,5.219,28.785,5.219c12.976,0,25.258-2.985,35.517-8.634C-1.053-864,6.057-873.828,6.624-884.876
		c0.087-1.631,0.158-2.159,0.252-2.821c0.154-1.119,0.293-2.229,0.421-4.534l1.352-24.383l-18.417,16.033
		c-2.626,2.29-5.665,4.262-9.033,5.862c-8.922,4.248-19.431,6.486-30.388,6.486c-11.598,0-22.585-2.502-31.773-7.223
		c-2.953-1.521-5.606-3.3-7.883-5.29l-18.185-15.909L-107.049-916.651z M-95.622-892.98c2.824,2.464,6.13,4.722,9.949,6.688
		c10.635,5.473,23.248,8.371,36.489,8.371c12.479,0,24.515-2.591,34.814-7.486c4.425-2.103,8.19-4.618,11.377-7.397
		c-0.229,4.154-0.452,3.241-0.675,7.397c-0.447,8.697-7.545,15.233-14.697,19.168c-9.051,4.98-19.81,7.355-30.543,7.355
		c-8.683,0-17.351-1.554-25.075-4.534c-7.336-2.828-14.847-7.399-18.751-14.482c-2.204-3.983-2.3-3.053-2.513-7.425
		c-0.124-2.551-0.253-5.109-0.375-7.66"/>
	<path id="path150_1_" fill="#FFCD05" d="M-49.193-883.79c-12.202,0-23.822-2.356-33.603-6.813
		c-13.669-6.219-20.822-15.876-19.618-26.514c1.055-9.359,8.527-17.408,21.036-22.665c9.474-3.975,20.552-6.073,32.038-6.073
		c11.566,0,22.681,2.131,32.163,6.167c0.846,0.3,2.011,0.77,3.186,1.455c11.642,5.792,18.038,14.137,18.014,23.531
		c-0.008,10.136-7.72,19.189-21.156,24.829c-9.495,3.98-20.581,6.08-32.066,6.08"/>
	<path id="path152_1_" fill="#1D1D1B" d="M-49.337-951.01c-12.166,0-23.935,2.241-34.034,6.482
		c-14.308,6.01-22.891,15.543-24.163,26.849c-1.45,12.795,7.003,24.674,22.61,31.775c10.442,4.755,22.801,7.273,35.734,7.273
		c12.162,0,23.939-2.241,34.05-6.482c15.446-6.484,24.31-17.265,24.322-29.586c0.029-11.405-7.327-21.362-20.724-28.069
		c-1.388-0.798-2.74-1.359-3.761-1.725c-10.078-4.261-21.837-6.51-34.03-6.51 M-49.334-940.694c10.958,0,21.406,2.009,30.311,5.825
		c0.834,0.286,1.768,0.69,2.576,1.178c6.281,3.095,15.348,9.239,15.324,18.985c-0.009,7.967-6.569,15.291-17.996,20.091
		c-8.863,3.715-19.259,5.677-30.067,5.677c-11.453,0-22.342-2.185-31.469-6.348c-11.498-5.229-17.569-12.959-16.629-21.238
		c0.833-7.425,7.207-14.001,17.908-18.488c8.864-3.713,19.255-5.672,30.042-5.672"/>
	<path id="path154_1_" fill="#669A40" d="M54.54-906.52c-9.344,0-18.653-1.683-26.93-4.877
		c-10.092-3.893-17.496-9.699-21.411-16.798c-0.432-0.777-0.777-1.356-1.055-1.823c-1.616-2.699-1.888-3.729-2.094-7.829
		L2.067-957.62l9.139,7.969c2.6,2.267,5.605,4.284,8.927,5.995c9.904,5.097,21.706,7.794,34.128,7.794
		c11.711,0,22.983-2.415,32.601-6.986c3.783-1.798,7.213-4.028,10.198-6.627l9.19-8.007l-0.656,12.17
		c-0.123,2.3-0.259,3.274-0.378,4.13c-0.104,0.763-0.194,1.41-0.297,3.274c-0.627,12.381-11.136,19.973-17.344,23.4
		c-9.498,5.25-20.919,8.009-33.028,8.009"/>
	<path id="path156_1_" fill="#1D1D1B" d="M-3.688-969.47l1.21,24.221c0.128,2.544,0.252,5.083,0.375,7.632
		c0.236,4.677,0.634,6.58,2.817,10.246c0.258,0.425,0.576,0.958,0.974,1.68c4.503,8.162,12.825,14.775,24.066,19.112
		c8.859,3.414,18.815,5.217,28.784,5.217c12.975,0,25.257-2.983,35.518-8.629c12.347-6.81,19.451-16.634,20.011-27.68
		c0.088-1.603,0.161-2.133,0.253-2.8c0.16-1.164,0.295-2.234,0.42-4.562l1.312-24.345l-18.381,16.015
		c-2.631,2.289-5.664,4.259-9.022,5.858c-8.928,4.244-19.44,6.485-30.389,6.485c-11.605,0-22.59-2.502-31.768-7.222
		c-2.955-1.517-5.611-3.3-7.898-5.293l-18.281-15.931L-3.688-969.47z M7.82-945.77c2.822,2.459,6.126,4.719,9.954,6.691
		c10.627,5.47,23.245,8.364,36.489,8.364c12.479,0,24.513-2.588,34.813-7.484c4.425-2.103,8.184-4.623,11.372-7.397
		c-0.225,4.156-0.449,3.241-0.675,7.397c-0.441,8.697-7.54,15.228-14.686,19.173c-9.055,4.98-19.815,7.345-30.548,7.345
		c-8.683,0-17.351-1.549-25.076-4.529c-7.337-2.826-14.85-7.404-18.753-14.477c-2.2-3.98-2.295-3.055-2.512-7.425
		c-0.129-2.551-0.256-5.099-0.381-7.65"/>
	<path id="path158_1_" fill="#669A40" d="M54.252-936.58c-12.202,0-23.821-2.354-33.604-6.808
		c-13.66-6.214-20.81-15.873-19.618-26.507c1.06-9.371,8.533-17.421,21.042-22.671c9.481-3.979,20.555-6.078,32.032-6.078
		c11.555,0,22.674,2.131,32.169,6.167c0.835,0.293,1.991,0.764,3.174,1.454c11.646,5.787,18.042,14.139,18.022,23.533
		c-0.011,10.132-7.72,19.185-21.15,24.829c-9.502,3.99-20.588,6.09-32.07,6.09"/>
	<path id="path160_1_" fill="#1D1D1B" d="M54.105-1003.8c-12.154,0-23.919,2.242-34.028,6.479
		c-14.308,6.008-22.89,15.538-24.167,26.848c-1.439,12.81,7.011,24.684,22.605,31.781c10.445,4.755,22.805,7.268,35.736,7.268
		c12.159,0,23.935-2.241,34.05-6.477c15.451-6.491,24.31-17.272,24.322-29.588c0.023-11.405-7.336-21.372-20.736-28.077
		c-1.393-0.794-2.734-1.354-3.742-1.717c-10.091-4.21-21.854-6.511-34.037-6.511 M54.109-993.483
		c10.958,0,21.406,2.008,30.313,5.827c0.837,0.284,1.765,0.69,2.572,1.178c6.279,3.091,15.344,9.238,15.324,18.983
		c-0.008,7.964-6.576,15.292-17.994,20.092c-8.868,3.713-19.267,5.672-30.07,5.672c-11.454,0-22.338-2.182-31.465-6.342
		C11.291-953.298,5.228-961.04,6.16-969.311c0.839-7.431,7.206-14.001,17.909-18.495c8.867-3.72,19.256-5.68,30.043-5.68"/>
	<path id="path162_1_" fill="#FFFFFF" d="M-140.228-977.28c-11.866,0-32.135-4.675-32.821-22.194
		c-1.347-34.504-15.856-207.499-19.134-246.389l104.659,0.401c-5.693,73.585-18.847,242.28-19.889,249.201
		c-0.876,5.4-5.19,10.599-11.836,14.258c-5.55,3.08-13,4.76-20.98,4.76"/>
	<path id="path164_1_" fill="#010101" d="M-199.668-1252.799c0,0,18.25,215.18,19.75,253.56
		c0.778,19.895,20.491,28.798,39.687,28.798c9.109,0,17.74-1.982,24.297-5.584c8.509-4.683,14.089-11.675,15.309-19.188
		c1.257-7.693,20.524-257.13,20.524-257.13l-119.57-0.5L-199.668-1252.799z M-184.698-1238.999l89.758,0.345
		c-7.568,97.806-18.189,233.04-19.261,241.32c-0.559,3.189-3.75,6.735-8.339,9.264c-4.5,2.469-10.944,3.884-17.68,3.884
		c-1.035,0-25.351-0.176-25.95-15.589c-1.29-32.67-14.349-189.271-18.53-239.17"/>
	<path id="path166_1_" fill="#1D1D1B" d="M-2.712-1359.099c0,75.681-61.364,137.04-137.031,137.04
		c-75.691,0-137.049-61.362-137.049-137.04c0-75.681,61.357-137.04,137.049-137.04c75.662,0,137.031,61.399,137.031,137"/>
	<path id="path168_1_" fill="#CB2027" d="M-49.321-1277.1c-48.801,48.808-127.459,49.283-175.679,1.071
		c-48.221-48.228-47.747-126.89,1.057-175.69c48.804-48.807,127.47-49.281,175.69-1.057c48.212,48.2,47.735,126.9-1.072,175.7"/>
	<path id="path170_1_" fill="#FFFFFF" d="M-64.996-1444.799c19.797,21.892,22.551,47.993,12.677,53.331
		c-9.955,5.529-28.282-5.543-45.289-20.196c-16.711-14.829-27.532-32.958-20.455-45.547c6.89-12.5,33.238-9.601,53.072,12.399"/>
</g>
</svg>
