<?xml version="1.0" encoding="utf-8"?>
<!-- Generator: Adobe Illustrator 16.0.0, SVG Export Plug-In . SVG Version: 6.00 Build 0)  -->
<!DOCTYPE svg PUBLIC "-//W3C//DTD SVG 1.1//EN" "http://www.w3.org/Graphics/SVG/1.1/DTD/svg11.dtd">
<svg version="1.1"
	 id="Layer_2" xmlns:rdf="http://www.w3.org/1999/02/22-rdf-syntax-ns#" xmlns:cc="http://creativecommons.org/ns#" xmlns:dc="http://purl.org/dc/elements/1.1/"
	 xmlns="http://www.w3.org/2000/svg" xmlns:xlink="http://www.w3.org/1999/xlink" x="0px" y="0px" width="1606.007px"
	 height="447.522px" viewBox="291.068 9.007 1606.007 447.522" enable-background="new 291.068 9.007 1606.007 447.522"
	 xml:space="preserve">
<g id="g236">
	<path id="path238" fill="#FEE600" d="M1873.113,447.11c-0.002-0.005-36-44.438-56.768-70.271
		c-6.947-8.646-12.102-15.091-13.914-17.459c-2.52-3.319-4.314-5.711-5.492-6.885c-1.24-1.194-1.43-1.258-2.363-1.588
		c-0.648-0.195-1.813-0.406-3.803-0.406h-85.002c-2.766,0-5.471-1.118-7.424-3.074c-1.953-1.955-3.074-4.66-3.074-7.425v-12.501h-74
		c-2.768,0-5.471-1.121-7.426-3.074c-1.955-1.955-3.076-4.66-3.076-7.425v-57.001c0-2.765,1.121-5.47,3.076-7.425
		s4.658-3.074,7.426-3.074l75-0.002v-1.999h-77c-2.766,0-5.471-1.119-7.426-3.074c-1.953-1.954-3.074-4.659-3.074-7.425v-54
		c0-2.765,1.121-5.47,3.074-7.425c1.955-1.956,4.66-3.074,7.426-3.074l74.998-0.002v-1.999h-90v169.5
		c0,2.765-1.119,5.467-3.074,7.423c-1.955,1.955-4.658,3.076-7.424,3.076h-64.5c-2.766,0-5.471-1.118-7.426-3.074
		c-1.953-1.955-3.074-4.66-3.074-7.425l-0.002-189.5h-4.5v189.5c0,2.765-1.119,5.467-3.074,7.423
		c-1.955,1.955-4.658,3.076-7.424,3.076h-157.5c-2.768,0-5.471-1.118-7.426-3.074c-1.953-1.955-3.074-4.66-3.074-7.425v-135.5
		c0-2.765,1.119-5.47,3.074-7.425c1.955-1.956,4.658-3.076,7.426-3.076h81.998v-99.5h-101.5v246.5c0,2.765-1.121,5.47-3.076,7.426
		c-1.953,1.953-4.658,3.074-7.422,3.074h-122.5c-2.768,0-5.471-1.119-7.426-3.074c-1.957-1.956-3.076-4.661-3.076-7.426v-36
		c0-2.765,1.119-5.47,3.076-7.425c1.955-1.955,4.658-3.074,7.426-3.074l47.498-0.002V169h-124v125.5h45.502
		c2.766,0,5.471,1.119,7.426,3.074s3.074,4.66,3.074,7.425v36c0,2.765-1.121,5.47-3.076,7.426c-1.957,1.953-4.658,3.074-7.424,3.074
		h-111.5c-3.131-0.015-6.658-0.02-10.691-0.915c-4.014-0.871-8.395-2.879-12.111-6.086c-0.646-0.564-0.848-0.787-1.189-1.128
		c-0.313-0.321-0.643-0.668-1.023-1.073c-0.752-0.805-1.693-1.829-2.822-3.076c-2.26-2.49-5.266-5.846-8.773-9.793
		c-7.02-7.889-16.051-18.124-24.98-28.271c-17.859-20.297-35.305-40.239-35.309-40.243c-2.711-3.099-3.359-7.504-1.658-11.252
		c1.699-3.75,5.443-6.161,9.563-6.161h68.998V170h-87.999v170c0,2.765-1.121,5.467-3.076,7.423
		c-1.953,1.955-4.658,3.076-7.423,3.076h-64c-2.768,0-5.47-1.121-7.425-3.076c-1.956-1.956-3.076-4.658-3.076-7.423V107.96
		c0-2.765,1.121-5.47,3.076-7.425c1.956-1.953,4.658-3.074,7.425-3.074h85.498v-4.5h-195.42v4.5h84.001
		c2.765,0,5.47,1.121,7.423,3.074c1.955,1.956,3.076,4.661,3.076,7.425v232c0,2.765-1.121,5.467-3.076,7.423
		c-1.953,1.958-4.658,3.076-7.423,3.076h-64.502c-2.766,0-5.467-1.118-7.422-3.074c-1.956-1.955-3.077-4.66-3.077-7.425v-13.503h-76
		c-2.765,0-5.47-1.118-7.422-3.073c-1.956-1.953-3.077-4.658-3.077-7.423V258.96c0-2.769,1.121-5.47,3.074-7.425
		c1.955-1.956,4.659-3.074,7.425-3.074l76-0.003v-2.498h-76.5c-2.766,0-5.47-1.121-7.425-3.074
		c-1.955-1.956-3.074-4.661-3.074-7.426v-53.5c0-2.765,1.119-5.47,3.074-7.425c1.955-1.956,4.66-3.076,7.425-3.076h77v-3.001h-91.5
		v171.5c0,2.765-1.121,5.467-3.076,7.423c-1.956,1.958-4.658,3.076-7.423,3.076h-67c-1.116-0.005-2.322-0.027-3.77-0.247
		c-1.435-0.209-3.058-0.687-4.371-1.282c-2.676-1.247-3.996-2.313-6.186-3.733c-1.143-0.783-1.568-1.259-1.982-1.666
		c-0.391-0.403-0.666-0.729-0.93-1.046c-0.513-0.629-0.951-1.223-1.435-1.897c-0.951-1.335-2.036-2.962-3.314-4.942
		c-2.549-3.949-5.839-9.267-9.653-15.548c-7.623-12.553-17.31-28.923-26.855-45.198c-19.089-32.545-37.595-64.686-37.604-64.696
		c-1.872-3.253-1.868-7.249,0.01-10.497c1.877-3.246,5.339-5.243,9.089-5.243l81.5-0.002v-100h-99.58l-1.438,245.56
		c-0.034,5.735-4.702,10.403-10.437,10.439c-0.03,0-82.436,0.5-86.063,0.5c-6.281,0.014-11.354-2.072-14.664-4.182
		c-3.172-2.013-4.93-4.004-5.549-4.748l-0.001,0.001l-76.876-92.878v0.002c-3.698-4.467-3.074-11.088,1.394-14.783
		c4.468-3.697,11.086-3.074,14.784,1.395l76.744,92.714c0.099,0.094,0.351,0.313,0.708,0.536c0.752,0.452,1.74,0.932,3.461,0.944
		c1.632,0,23.213-0.126,44.249-0.25c11.746-0.07,23.342-0.14,31.312-0.188l1.439-245.62c0.032-5.768,4.731-10.438,10.499-10.438
		h120.5c2.766,0,5.469,1.119,7.422,3.074c1.956,1.956,3.077,4.661,3.077,7.425v121c0,2.765-1.12,5.47-3.077,7.425
		c-1.953,1.953-4.657,3.074-7.422,3.074h-73.809c3.109,5.373,6.854,11.833,10.976,18.918c11.49,19.761,25.896,44.396,37.511,63.808
		c7.722,12.91,14.289,23.618,17.664,28.633c0.464,0.696,0.882,1.293,1.182,1.709c0.615,0.408,1.095,0.723,1.425,0.934
		c0.017,0.001,0.034,0.001,0.052,0.001c2.6-0.002,38.303-0.003,56.499-0.002v-171.5c0-2.765,1.121-5.47,3.077-7.423
		c1.956-1.956,4.658-3.077,7.425-3.077h112.5c2.766,0,5.468,1.121,7.423,3.077c1.955,1.953,3.076,4.658,3.076,7.423v24.001
		c0,2.765-1.121,5.47-3.076,7.423c-1.955,1.955-4.657,3.076-7.423,3.076h-77.002v32.5h76.5c2.766,0,5.47,1.121,7.425,3.076
		c1.957,1.955,3.077,4.657,3.077,7.425v23.5c0,2.766-1.12,5.467-3.077,7.423c-1.955,1.958-4.66,3.076-7.425,3.076l-76-0.002v36.002
		h76c2.766,0,5.47,1.121,7.425,3.076c1.957,1.956,3.077,4.658,3.077,7.426v13.497h43.498v-211h-83.998
		c-2.765,0-5.47-1.119-7.425-3.074c-1.956-1.956-3.077-4.661-3.077-7.425V82.445c0-2.767,1.121-5.47,3.077-7.425
		c1.956-1.956,4.661-3.077,7.425-3.077h216.5c2.766,0,5.471,1.121,7.424,3.077c1.957,1.955,3.074,4.658,3.074,7.425v25.499
		c0,2.765-1.117,5.47-3.074,7.425c-1.953,1.955-4.658,3.076-7.424,3.076h-85.5v211h43.001v-170c0-2.765,1.121-5.47,3.076-7.425
		c1.956-1.956,4.661-3.076,7.425-3.076h109c2.766,0,5.469,1.121,7.424,3.076c1.955,1.956,3.074,4.661,3.074,7.425v94.5
		c0,2.765-1.121,5.468-3.076,7.423c-1.953,1.954-4.656,3.075-7.422,3.075h-56.342c4.75,5.418,10.236,11.668,15.898,18.108
		c16.277,18.517,34.145,38.746,39.77,44.816c0.504,0.547,0.932,0.995,1.141,1.211c1.174,0.931,1.793,1.164,2.973,1.467
		c1.219,0.291,3.188,0.41,6.059,0.398c4.832-0.002,74.168-0.002,101-0.001v-15h-45.502c-2.764,0-5.469-1.121-7.422-3.074
		c-1.957-1.956-3.078-4.661-3.078-7.426v-146.5c0-2.767,1.121-5.47,3.078-7.425c1.953-1.956,4.658-3.076,7.422-3.076h145
		c2.766,0,5.471,1.121,7.424,3.076c1.955,1.956,3.076,4.658,3.076,7.425v146.5c0,2.765-1.121,5.47-3.076,7.426
		c-1.955,1.953-4.658,3.074-7.424,3.074h-47.502v14.999h101.5v-246.5c0-2.765,1.119-5.47,3.074-7.425
		c1.955-1.956,4.66-3.074,7.426-3.074h122.5c2.764,0,5.469,1.119,7.424,3.074c1.957,1.956,3.074,4.661,3.074,7.425v120.5
		c0,2.765-1.117,5.47-3.074,7.423c-1.955,1.955-4.66,3.076-7.424,3.076h-82.002v114.5h136.5v-189.5c0-2.765,1.121-5.47,3.076-7.423
		c1.955-1.956,4.658-3.077,7.424-3.077h25.5c2.766,0,5.469,1.121,7.424,3.077c1.957,1.955,3.074,4.658,3.074,7.423v189.5h43.502
		v-169.5c0-2.765,1.121-5.47,3.076-7.425c1.955-1.955,4.658-3.074,7.424-3.074h111c2.766,0,5.471,1.119,7.426,3.074
		c1.957,1.956,3.074,4.661,3.074,7.425v23c0,2.765-1.119,5.47-3.074,7.425c-1.955,1.953-4.66,3.074-7.426,3.074h-75v33.001h77.002
		c2.766,0,5.471,1.119,7.426,3.075c1.953,1.955,3.072,4.66,3.072,7.426v22.998c0,2.766-1.119,5.471-3.076,7.427
		c-1.953,1.952-4.656,3.073-7.422,3.073h-75.004v36h74.002c2.766,0,5.469,1.12,7.426,3.076c1.955,1.955,3.074,4.658,3.074,7.426
		v12.498c21.961,0,71.016,0,74.5,0c3.426,0.002,6.658,0.351,9.762,1.268c3.094,0.9,5.967,2.431,8.279,4.234
		c4.664,3.704,7.15,7.597,10.301,11.619c1.059,1.391,4.34,5.515,8.773,11.043c4.449,5.553,10.125,12.605,16.223,20.166
		c12.195,15.123,26.074,32.282,35.225,43.589c6.1,7.536,10.088,12.459,10.1,12.473c3.648,4.507,2.955,11.118-1.551,14.769
		c-1.945,1.575-4.281,2.342-6.604,2.342c-3.199,0-6.199-1.32-8.301-3.891L1873.113,447.11z"/>
	<path id="path240" d="M1881.314,456.5c-4.639,0.008-9.289-2.034-12.439-5.928v-0.002c-0.193-0.238-36.053-44.505-56.779-70.286
		c-6.963-8.667-12.09-15.072-14.01-17.579c-2.41-3.199-4.27-5.596-4.934-6.256c-0.135-0.127-0.246-0.232-0.336-0.315
		c-0.08-0.015-0.188-0.031-0.322-0.048c-0.354-0.044-0.898-0.087-1.686-0.085h-85.002c-4.248-0.009-8.301-1.684-11.313-4.687
		c-3-3.012-4.676-7.062-4.688-11.313v-7h-68.498c-4.254-0.012-8.301-1.69-11.314-4.686c-0.063-0.063-0.125-0.129-0.188-0.192v11.878
		c-0.01,4.247-1.686,8.3-4.686,11.313c-3.012,2.996-7.061,4.679-11.313,4.688h-64.502c-4.248-0.009-8.301-1.684-11.314-4.688
		c-0.52-0.521-0.998-1.074-1.436-1.652c-0.438,0.579-0.918,1.131-1.438,1.652c-3.012,2.996-7.061,4.679-11.313,4.688h-157.5
		c-4.248-0.009-8.301-1.684-11.313-4.686c-1.523-1.53-2.707-3.328-3.504-5.285c-0.775,2.344-2.09,4.497-3.869,6.285
		c-3.012,2.996-7.061,4.676-11.313,4.686h-122.5c-4.25-0.01-8.303-1.686-11.313-4.686c-2.051-2.061-3.482-4.604-4.189-7.362
		c-0.705,2.761-2.139,5.304-4.189,7.367c-3.008,2.989-7.057,4.671-11.309,4.681h-111.529c-3.115-0.019-7.164-0.002-11.832-1.041
		c-4.904-1.071-10.051-3.438-14.557-7.312c-0.76-0.654-1.236-1.156-1.453-1.369l-0.037-0.039l-0.037-0.039
		c-0.338-0.347-0.689-0.716-1.092-1.147c-0.777-0.83-1.738-1.873-2.885-3.137c-2.275-2.512-5.291-5.876-8.807-9.832
		c-7.031-7.901-16.066-18.142-25-28.295c-17.867-20.305-35.313-40.248-35.318-40.252c-0.539-0.618-1.025-1.27-1.458-1.949v77.413
		c-0.009,4.252-1.689,8.3-4.686,11.312c-3.011,2.999-7.062,4.68-11.312,4.688h-64c-4.252-0.009-8.304-1.69-11.314-4.688
		c-0.62-0.622-1.184-1.289-1.688-1.992c-0.502,0.701-1.063,1.366-1.682,1.987c-3.016,3.01-7.07,4.685-11.316,4.692h-64.739
		c-4.248-0.009-8.3-1.686-11.313-4.686c-2.998-3.013-4.679-7.063-4.688-11.313v-8.002h-70.499c-3.447-0.008-6.764-1.111-9.5-3.129
		v11.131c-0.01,4.252-1.69,8.3-4.687,11.309c-3.014,3.006-7.065,4.683-11.313,4.69h-67.024c-1.172-0.005-2.73-0.03-4.539-0.305
		c-2.022-0.304-3.99-0.885-5.9-1.739c-3.182-1.481-4.949-2.876-6.857-4.107l-0.06-0.036l-0.058-0.042
		c-1.434-0.955-2.479-2.023-2.727-2.278l-0.05-0.048l-0.048-0.052c-0.521-0.536-0.922-1.014-1.231-1.388
		c-0.619-0.759-1.14-1.466-1.656-2.186c-1.028-1.447-2.153-3.134-3.456-5.153c-2.599-4.025-5.906-9.369-9.732-15.674
		c-7.649-12.599-17.346-28.982-26.9-45.272c-17.089-29.136-33.719-57.958-37.023-63.69l-0.738,126.06
		c-0.066,8.758-7.131,15.83-15.919,15.907h-0.046c-0.039,0-0.099,0-0.176,0.002c-0.158,0-0.391,0.003-0.693,0.003
		c-0.605,0.004-1.495,0.009-2.626,0.016c-2.265,0.015-5.5,0.034-9.393,0.059c-7.786,0.046-18.202,0.109-28.731,0.172
		c-21.072,0.124-42.539,0.25-44.413,0.25h-0.063c-7.495-0.009-13.52-2.478-17.546-5.036c-0.919-0.583-1.746-1.169-2.483-1.738
		l-0.507,0.506l-70.992-85.766l-9.736-11.761c-2.46-2.971-3.681-6.617-3.676-10.199c-0.004-2.941,0.816-5.893,2.413-8.46v-0.12
		l0.043,0.053c0.884-1.404,2.001-2.693,3.345-3.803c2.968-2.461,6.614-3.681,10.197-3.676c4.58-0.008,9.176,1.985,12.332,5.8
		l76.291,92.168c0.047,0.004,0.149,0.009,0.384,0.034c1.571,0,23.194-0.127,44.216-0.25c9.292-0.057,18.491-0.111,25.875-0.156
		l1.409-240.19c0.06-8.802,7.199-15.898,15.999-15.907h120.5c4.25,0.011,8.302,1.686,11.311,4.686c3,3.014,4.68,7.064,4.688,11.316
		v121c-0.009,4.252-1.688,8.302-4.688,11.316c-3.011,2.998-7.059,4.674-11.311,4.686h-64.264c1.931,3.33,4.006,6.904,6.187,10.653
		c11.483,19.748,25.882,44.373,37.476,63.748c7.691,12.861,14.276,23.592,17.521,28.407c0.042,0.063,0.085,0.127,0.127,0.189
		c5.819-0.002,22.178-0.004,37.027-0.004c4.185,0,8.25,0,11.926,0.001v-165.95c0.009-4.252,1.688-8.302,4.688-11.312
		c3.01-3,7.061-4.679,11.314-4.688h112.5c4.252,0.009,8.302,1.69,11.311,4.686c3,3.011,4.68,7.062,4.688,11.313v24.001
		c-0.009,4.252-1.688,8.302-4.688,11.312c-3.009,2.998-7.059,4.679-11.311,4.688h-71.501v21.499h70.999
		c4.252,0.009,8.302,1.688,11.313,4.688c3,3.009,4.68,7.06,4.688,11.313l0.002,23.502c-0.012,4.249-1.692,8.3-4.686,11.308
		c-3.017,3.006-7.071,4.681-11.318,4.688h-70.5v25.003h70.499c4.252,0.01,8.302,1.688,11.316,4.688
		c2.994,3.01,4.679,7.061,4.688,11.313v8h32.496v-200h-78.496c-4.25-0.012-8.3-1.686-11.316-4.686
		c-2.998-3.014-4.679-7.062-4.688-11.314V82.545c0.009-4.254,1.689-8.305,4.688-11.313c3.014-3,7.063-4.679,11.316-4.688h216.5
		c4.254,0.009,8.303,1.688,11.314,4.686c3,3.014,4.676,7.066,4.686,11.316v25.499c-0.01,4.248-1.684,8.3-4.686,11.314
		c-3.014,3-7.063,4.676-11.314,4.688h-80.001v200h32.001v-164.49c0.011-4.252,1.688-8.302,4.688-11.316
		c3.014-3,7.063-4.676,11.315-4.686l109-0.002c4.25,0.011,8.299,1.688,11.313,4.688c3,3.016,4.676,7.066,4.686,11.316v94.497
		c-0.01,4.253-1.689,8.304-4.686,11.312c-3.014,3-7.063,4.68-11.313,4.688h-44.201c2.549,2.903,5.197,5.919,7.887,8.978
		c16.256,18.488,34.174,38.772,39.686,44.723c0.299,0.322,0.57,0.611,0.773,0.825c0.068,0.05,0.115,0.081,0.143,0.097l0.008,0.009
		c0.002-0.002,0.002,0,0.053,0.018c0.066,0.021,0.219,0.065,0.461,0.128c0.447,0.094,2.033,0.238,4.313,0.228
		c0.063,0,0.236-0.005,0.498-0.001c3.367-0.002,28.008-0.004,53.264-0.004c15.365,0,30.957,0,42.117,0.001v-3.999h-40
		c-4.254-0.009-8.301-1.688-11.313-4.686c-2.998-3.012-4.68-7.063-4.688-11.313v-146.52c0.008-4.254,1.689-8.305,4.686-11.314
		c3.014-3.002,7.063-4.679,11.314-4.688h145c4.252,0.009,8.303,1.686,11.313,4.686c3,3.012,4.68,7.062,4.689,11.316v146.5
		c-0.012,4.252-1.689,8.303-4.689,11.315c-3.012,2.995-7.061,4.674-11.313,4.684h-42.002v4h90.502v-241
		c0.01-4.25,1.688-8.3,4.688-11.316c3.016-3,7.064-4.674,11.314-4.684l122.5-0.002c4.246,0.011,8.299,1.686,11.311,4.686
		c3.006,3.016,4.68,7.066,4.686,11.316l0.004,120.5c-0.01,4.245-1.684,8.3-4.686,11.311c-3.016,2.998-7.063,4.676-11.314,4.686
		h-76.504v103.5h125.5v-184c0.01-4.252,1.689-8.302,4.688-11.314c3.012-2.998,7.061-4.679,11.314-4.688h25.5
		c4.252,0.009,8.301,1.69,11.311,4.688c3.004,3.014,4.68,7.064,4.688,11.314v184h32.5v-164c0.01-4.252,1.689-8.3,4.689-11.314
		c3.01-3,7.063-4.676,11.313-4.686h111c4.246,0.012,8.297,1.686,11.313,4.686c3.004,3.014,4.676,7.066,4.686,11.314l0.002,23.001
		c-0.012,4.248-1.684,8.3-4.688,11.316c-3.016,2.995-7.061,4.672-11.313,4.683h-69.504v22.001h71.504
		c4.25,0.009,8.299,1.683,11.318,4.688c2.994,3.013,4.668,7.063,4.68,11.311v23c-0.008,4.25-1.688,8.3-4.689,11.315
		c-3.01,2.995-7.057,4.675-11.309,4.683h-69.504v25.002h68.502c4.248,0.01,8.301,1.687,11.314,4.686
		c2.998,3.014,4.674,7.064,4.686,11.316v6.997h69.004c3.791,0.003,7.572,0.388,11.295,1.485c3.818,1.119,7.258,2.949,10.166,5.209
		c5.416,4.313,8.273,8.82,11.25,12.597c0.965,1.264,4.275,5.428,8.691,10.935c4.443,5.544,10.119,12.596,16.211,20.153
		c12.195,15.118,26.07,32.274,35.219,43.58c6.057,7.48,10.018,12.368,10.105,12.479c0.004,0.007,0,0-0.004-0.005
		c-0.002-0.004-0.008-0.009-0.002-0.002c2.389,2.947,3.566,6.539,3.564,10.063c0.008,4.64-2.041,9.281-5.928,12.439
		c-2.945,2.385-6.527,3.566-10.047,3.565h-0.299L1881.314,456.5z M1746.613,345h44.188c2.381,0.002,4.049,0.24,5.389,0.64
		l0.129,0.039l0.115,0.039c0.391,0.141,1.281,0.426,2.227,1.041c0.91,0.602,1.443,1.128,2.121,1.772l0.066,0.063
		c1.75,1.779,3.439,4.117,5.979,7.438c1.721,2.248,6.904,8.729,13.836,17.356c20.756,25.817,56.754,70.255,56.754,70.255
		l-4.273,3.465l4.273-3.465c0.996,1.229,2.412,1.848,3.893,1.854c1.117-0.005,2.201-0.355,3.135-1.11
		c1.232-1.004,1.852-2.424,1.857-3.896c-0.006-1.121-0.355-2.199-1.162-3.204c-0.031-0.036-0.078-0.093-0.137-0.167
		c-0.123-0.151-0.303-0.374-0.539-0.663c-0.471-0.582-1.16-1.434-2.041-2.521c-1.764-2.175-4.283-5.289-7.334-9.061
		c-9.15-11.307-23.031-28.466-35.229-43.594c-6.104-7.563-11.779-14.621-16.234-20.178c-4.451-5.554-7.701-9.636-8.813-11.095
		c-3.365-4.332-5.48-7.606-9.352-10.674c-1.76-1.378-4.068-2.606-6.455-3.296c-2.467-0.729-5.146-1.041-8.201-1.043
		c-3.486,0-52.541,0-74.502,0.002h-5.502v-17.999c0.01-1.284-0.553-2.64-1.463-3.536c-0.898-0.913-2.258-1.476-3.535-1.466H1626.3
		v-47h80.504c1.275,0.009,2.635-0.553,3.533-1.463c0.91-0.899,1.475-2.257,1.467-3.537V237c0.008-1.279-0.557-2.643-1.461-3.536
		c-0.9-0.909-2.262-1.473-3.539-1.463H1624.3v-44.002h80.504c1.273,0.011,2.639-0.553,3.535-1.463
		c0.908-0.895,1.471-2.252,1.461-3.534v-23.001c0.01-1.28-0.553-2.64-1.463-3.537c-0.895-0.908-2.256-1.473-3.533-1.461h-111
		c-1.285-0.009-2.639,0.55-3.537,1.461c-0.91,0.899-1.475,2.259-1.465,3.537v175H1534.3v-195c0.008-1.282-0.553-2.638-1.463-3.537
		c-0.898-0.911-2.262-1.475-3.535-1.463h-25.498c-1.281-0.011-2.639,0.551-3.539,1.466c-0.908,0.894-1.475,2.254-1.463,3.534v195
		h-147.5v-125.51h87.502c1.273,0.012,2.637-0.553,3.539-1.468c0.904-0.892,1.467-2.25,1.461-3.529l-0.002-120.5
		c0.008-1.282-0.553-2.64-1.463-3.539c-0.898-0.908-2.256-1.47-3.535-1.461h-122.5c-1.281-0.009-2.643,0.553-3.539,1.461
		c-0.908,0.899-1.471,2.259-1.463,3.539v252h-112.5v-25.999h53.006c1.277,0.009,2.637-0.553,3.533-1.463
		c0.914-0.899,1.475-2.261,1.465-3.537v-146.5c0.01-1.282-0.551-2.635-1.467-3.539c-0.895-0.911-2.254-1.472-3.531-1.463h-145
		c-1.279-0.009-2.639,0.553-3.537,1.466c-0.912,0.901-1.475,2.254-1.463,3.537v146.5c-0.012,1.277,0.553,2.638,1.465,3.537
		c0.896,0.908,2.258,1.472,3.535,1.463h51v26.001h-5.5c-11.117-0.002-29.523-0.002-47.617-0.002c-25.59,0-50.557,0-53.381,0.002
		h-0.066l-0.063-0.002h-0.254c-2.855-0.014-4.896-0.081-6.955-0.546l-0.051-0.015l-0.039-0.01c-1.326-0.254-3.586-1.223-5.025-2.485
		l-0.277-0.221l-0.254-0.262c-0.244-0.252-0.693-0.723-1.223-1.298c-5.748-6.204-23.568-26.384-39.869-44.925
		c-5.664-6.442-11.152-12.694-15.904-18.113l-8.002-9.126h68.48c1.277,0.01,2.637-0.556,3.533-1.465
		c0.912-0.899,1.475-2.257,1.465-3.535v-94.497c0.01-1.282-0.553-2.642-1.463-3.539c-0.896-0.911-2.258-1.473-3.535-1.463H932.889
		c-1.28-0.009-2.641,0.553-3.537,1.466c-0.913,0.896-1.475,2.257-1.466,3.536v175.5h-54v-222.03h91.002
		c1.275,0.011,2.637-0.553,3.537-1.466c0.906-0.894,1.473-2.254,1.461-3.534V82.463c0.012-1.284-0.553-2.638-1.465-3.537
		c-0.896-0.913-2.258-1.475-3.533-1.465H748.377c-1.277-0.009-2.64,0.553-3.539,1.465c-0.912,0.901-1.472,2.254-1.463,3.537v25.499
		c-0.011,1.278,0.554,2.638,1.463,3.534c0.897,0.911,2.258,1.475,3.539,1.463h89.495v222h-54.497v-18.997
		c0.01-1.282-0.55-2.635-1.465-3.536c-0.898-0.911-2.259-1.475-3.537-1.466h-81.5v-47.002l81.5,0.002
		c1.282,0.009,2.638-0.553,3.537-1.463c0.915-0.904,1.476-2.261,1.465-3.534v-23.502c0.01-1.279-0.553-2.637-1.465-3.536
		c-0.898-0.909-2.259-1.475-3.537-1.466h-82v-43.497h82.504c1.276,0.009,2.635-0.553,3.535-1.468
		c0.908-0.895,1.474-2.255,1.463-3.532v-24.001c0.01-1.277-0.555-2.638-1.465-3.534c-0.898-0.913-2.257-1.475-3.533-1.466H666.366
		c-1.28-0.009-2.635,0.553-3.539,1.468c-0.911,0.895-1.472,2.255-1.463,3.532v177l-5.504-0.004h-17.421
		c-17.526,0-37.175,0-39.074,0.002c-0.016,0-0.138,0.002-0.365-0.009l-1.438-0.083l-1.211-0.772
		c-0.372-0.239-0.874-0.565-1.512-0.991l-0.827-0.553l-0.583-0.808c-0.342-0.47-0.797-1.116-1.287-1.855
		c-3.521-5.234-10.07-15.923-17.82-28.879c-11.637-19.45-26.049-44.097-37.544-63.866c-4.124-7.089-7.871-13.554-10.983-18.927
		l-4.776-8.257h83.347c1.277,0.012,2.641-0.555,3.534-1.463c0.913-0.899,1.475-2.259,1.465-3.537V83.979
		c0.009-1.277-0.553-2.64-1.468-3.539c-0.895-0.908-2.25-1.47-3.532-1.461h-120.5c-2.733-0.009-4.993,2.236-5,4.97l-1.47,251.06
		l-5.436,0.031c-7.971,0.049-19.566,0.117-31.313,0.188c-21.049,0.124-42.587,0.25-44.323,0.25c-2.704,0.044-5.151-1.007-6.252-1.73
		l-0.037-0.023l-0.051-0.028c-0.745-0.472-1.222-0.881-1.555-1.19l-0.25-0.233l-76.962-92.979c-1.002-1.207-2.399-1.806-3.857-1.813
		c-1.135,0.004-2.234,0.365-3.188,1.151c-1.202,0.996-1.8,2.39-1.81,3.854c0.004,1.111,0.353,2.189,1.103,3.127l76.378,92.273
		l0.538,0.646c0.399,0.475,1.697,1.985,4.275,3.623c2.562,1.636,6.64,3.331,11.648,3.322h0.062c3.578,0,85.976-0.499,86.028-0.499
		c2.708-0.003,4.97-2.264,4.97-4.973l1.47-251.03h110.54v111l-86.997,0.002c-1.793,0-3.435,0.947-4.33,2.5
		c-0.45,0.773-0.673,1.63-0.673,2.498c0,0.835,0.207,1.664,0.626,2.424c0.015,0.022,0.019,0.03,0.023,0.037
		c0.007,0.011,0.009,0.016,0.011,0.023c0.007,0.009,0.013,0.018,0.017,0.027c0.012,0.019,0.024,0.042,0.043,0.073
		c0.037,0.064,0.09,0.158,0.16,0.28c0.143,0.243,0.352,0.605,0.623,1.076c0.543,0.945,1.342,2.328,2.357,4.087
		c2.034,3.523,4.944,8.555,8.449,14.605c7.011,12.098,16.404,28.262,25.94,44.522c9.539,16.264,19.218,32.618,26.813,45.126
		c3.8,6.26,7.073,11.546,9.573,15.419c1.255,1.943,2.3,3.512,3.167,4.726c0.458,0.641,0.813,1.121,1.188,1.577
		c0.236,0.281,0.382,0.457,0.615,0.701c0.515,0.5,0.361,0.406,1.183,0.996v0.001c2.381,1.561,3.261,2.288,5.35,3.263
		c0.764,0.357,2.041,0.734,2.922,0.852c1.053,0.161,1.905,0.182,2.941,0.187h67.001c1.282,0.01,2.633-0.553,3.532-1.466
		c0.915-0.9,1.478-2.257,1.468-3.534v-177.02h102.511v14.001h-82.498c-1.28-0.009-2.638,0.555-3.537,1.465
		c-0.91,0.897-1.472,2.254-1.463,3.537v53.499c-0.009,1.28,0.553,2.642,1.461,3.534c0.898,0.91,2.261,1.476,3.539,1.466h81.998
		v13.499l-81.498,0.003c-1.282-0.01-2.641,0.55-3.534,1.461c-0.913,0.897-1.475,2.254-1.465,3.539v56.999
		c-0.01,1.277,0.553,2.638,1.468,3.536c0.892,0.906,2.25,1.468,3.532,1.459h81.5v19.004c-0.012,1.277,0.553,2.638,1.465,3.536
		c0.896,0.911,2.25,1.473,3.532,1.464h64.503c1.279,0.009,2.635-0.553,3.531-1.466c0.913-0.901,1.476-2.257,1.466-3.534v-232
		c0.009-1.277-0.554-2.637-1.466-3.536c-0.895-0.908-2.254-1.473-3.531-1.463h-89.502v-15.5h206.509v15.5h-90.997
		c-1.28-0.009-2.638,0.553-3.537,1.463c-0.911,0.899-1.475,2.256-1.463,3.536v232c-0.009,1.277,0.55,2.633,1.463,3.534
		c0.901,0.913,2.257,1.475,3.537,1.466H932.9c1.277,0.009,2.635-0.556,3.532-1.466c0.913-0.901,1.475-2.257,1.465-3.534v-175.5h99
		v84.5l-74.5-0.003c-1.957,0-3.748,1.154-4.559,2.945c-0.297,0.65-0.443,1.346-0.443,2.053c0.004,1.178,0.414,2.333,1.244,3.304
		l0.002-0.001l0.008,0.01c0.006,0.008,0.02,0.022,0.035,0.043c0.033,0.039,0.086,0.094,0.148,0.17
		c0.133,0.15,0.328,0.377,0.586,0.668c0.512,0.584,1.264,1.443,2.221,2.539c1.914,2.186,4.652,5.312,7.947,9.071
		c6.592,7.521,15.418,17.58,24.344,27.724c8.926,10.146,17.953,20.375,24.963,28.252c3.502,3.938,6.5,7.283,8.736,9.754
		c1.115,1.229,2.041,2.235,2.758,3.002c0.361,0.384,0.666,0.705,0.949,0.997c0.402,0.399,0.354,0.371,0.852,0.809
		c2.943,2.555,6.559,4.203,9.711,4.88c3.369,0.748,6.375,0.773,9.5,0.784h111.5c1.275,0.01,2.635-0.553,3.533-1.463
		c0.912-0.899,1.475-2.262,1.465-3.536v-36.001c0.01-1.282-0.553-2.64-1.463-3.536c-0.896-0.911-2.258-1.473-3.535-1.464h-51.002
		v-136.48h135v136.5h-53c-1.281-0.01-2.639,0.553-3.537,1.465c-0.91,0.896-1.475,2.256-1.465,3.535l0.002,36
		c-0.012,1.277,0.553,2.638,1.463,3.536c0.9,0.91,2.256,1.474,3.537,1.463h122.5c1.273,0.011,2.637-0.555,3.531-1.463
		c0.912-0.898,1.475-2.262,1.467-3.536v-252h112.5v110.5h-87.498c-1.279-0.009-2.635,0.553-3.533,1.463
		c-0.914,0.899-1.477,2.261-1.467,3.539v135.5c-0.012,1.277,0.553,2.639,1.467,3.536c0.895,0.911,2.248,1.474,3.533,1.464h157.5
		c1.275,0.01,2.633-0.553,3.533-1.466c0.91-0.898,1.471-2.252,1.463-3.534v-195h15.502l0.002,195
		c-0.012,1.277,0.555,2.641,1.465,3.536c0.895,0.911,2.252,1.474,3.535,1.464h64.5c1.275,0.01,2.633-0.553,3.531-1.466
		c0.912-0.898,1.473-2.252,1.465-3.534v-175h101v13l-80.496,0.002c-1.283-0.009-2.641,0.553-3.535,1.461
		c-0.91,0.899-1.475,2.261-1.465,3.539v54c-0.01,1.276,0.555,2.64,1.463,3.533c0.896,0.911,2.256,1.476,3.537,1.467h82.498v12.998
		h-80.498c-1.283-0.009-2.639,0.554-3.535,1.465c-0.912,0.897-1.479,2.259-1.465,3.535v57.003c-0.014,1.274,0.553,2.638,1.463,3.531
		c0.898,0.912,2.256,1.476,3.537,1.466h79.5v18.002c-0.014,1.276,0.553,2.638,1.467,3.539c0.891,0.907,2.248,1.47,3.531,1.461
		h40.799L1746.613,345z M1122.814,289h40.002c4.25,0.009,8.301,1.686,11.313,4.684c2.053,2.061,3.482,4.604,4.188,7.363
		c0.705-2.761,2.137-5.304,4.188-7.361c3.012-3,7.064-4.677,11.313-4.686l41.998-0.002v-114.49h-113v114.5v-0.004V289z
		 M958.574,257.34c-0.01-0.014-0.018-0.02-0.02-0.021l-0.012-0.015l-0.004-0.005l-0.002,0.001c0.01,0.021,0.021,0.03,0.031,0.04
		H958.574z M948.793,245.42c2.908-4.575,7.98-7.409,13.501-7.413h63.496V175.51h-76.998v69.905l-0.02,0.005H948.793z
		 M1332.314,196.77c0.717-1.299,1.617-2.503,2.686-3.577c3.012-2.998,7.063-4.678,11.314-4.686l76.498-0.002v-88.498h-90.5v96.77
		L1332.314,196.77z M499.133,195.9c2.971-4.296,7.879-6.896,13.157-6.896l75.999-0.002v-89h-88.594l-0.57,95.9L499.133,195.9z
		 M855.793,98.683c0.042-0.06,0.086-0.119,0.129-0.178h-0.259C855.713,98.563,855.754,98.623,855.793,98.683L855.793,98.683z"/>
</g>
<g id="g242">
	<path id="path244" fill="#FEE600" d="M1507.414,102.43l-35.5-35.501c-1.986-1.983-3.096-4.694-3.074-7.5
		c0.021-2.805,1.168-5.5,3.182-7.456l35.502-34.5c4.135-4.019,10.746-3.948,14.793,0.159l34.5,35.002
		c4.025,4.083,4.025,10.656,0,14.741l-34.5,35c-1.969,2-4.635,3.119-7.439,3.13h-0.033c-2.9-0.01-5.6-1.11-7.5-3.08L1507.414,102.43
		z M1494.212,59.61l20.49,20.491l19.809-20.098L1514.599,39.8l-20.4,19.81H1494.212z"/>
	<path id="path246" d="M1514.814,111c-4.242,0.002-8.318-1.684-11.318-4.686l3.887-3.89l-3.887,3.888l-35.5-35.49
		c-3-3-4.684-7.06-4.689-11.296c-0.002-0.013-0.002-0.051,0-0.106c0-0.051,0.002-0.118,0.006-0.202
		c0.076-4.219,1.813-8.238,4.844-11.187l35.502-34.5c3.094-3.01,7.145-4.531,11.146-4.524c4.115-0.006,8.277,1.6,11.396,4.765
		l34.5,35.002c3.061,3.101,4.607,7.192,4.602,11.232c0.008,4.04-1.543,8.129-4.602,11.232l-34.498,34.996
		c-2.99,3.043-7.082,4.761-11.357,4.774h0.1L1514.814,111z M1514.814,100h0.012c1.352-0.011,2.594-0.533,3.541-1.492l34.502-34.998
		c0.965-0.986,1.432-2.226,1.436-3.512c-0.004-1.291-0.471-2.528-1.436-3.51l-34.498-35c-0.992-1.003-2.252-1.483-3.564-1.49
		c-1.271,0.004-2.498,0.46-3.479,1.412l-35.502,34.5c-0.953,0.921-1.508,2.224-1.516,3.552l-0.002,0.141
		c0.025,1.275,0.557,2.524,1.467,3.428l35.496,35.5c1,0.955,2.199,1.469,3.6,1.469H1514.814z M1490.314,63.498l-3.945-3.945
		l28.301-27.503l27.555,27.952l-27.502,27.905l-24.5-24.409H1490.314z M1514.712,72.294l12.115-12.292l-12.273-12.452
		l-12.469,12.116l12.701,12.628H1514.712z"/>
</g>
</svg>
