<?xml version="1.0" encoding="utf-8"?>
<!-- Generator: Adobe Illustrator 16.0.0, SVG Export Plug-In . SVG Version: 6.00 Build 0)  -->
<!DOCTYPE svg PUBLIC "-//W3C//DTD SVG 1.1//EN" "http://www.w3.org/Graphics/SVG/1.1/DTD/svg11.dtd">
<svg version="1.1"
	 id="Layer_1" inkscape:version="0.91 r13725" sodipodi:docname="system.svg" xmlns:rdf="http://www.w3.org/1999/02/22-rdf-syntax-ns#" xmlns:cc="http://creativecommons.org/ns#" xmlns:dc="http://purl.org/dc/elements/1.1/" xmlns:sodipodi="http://sodipodi.sourceforge.net/DTD/sodipodi-0.dtd" xmlns:svg="http://www.w3.org/2000/svg" xmlns:inkscape="http://www.inkscape.org/namespaces/inkscape" sodipodi:version="0.32" inkscape:output_extension="org.inkscape.output.svg.inkscape"
	 xmlns="http://www.w3.org/2000/svg" xmlns:xlink="http://www.w3.org/1999/xlink" x="0px" y="0px" width="114.348px"
	 height="144.117px" viewBox="3.637 5.345 114.348 144.117" enable-background="new 3.637 5.345 114.348 144.117"
	 xml:space="preserve">
<filter  width="1.17739" height="1.37094" style="color-interpolation-filters:sRGB" x="-0.0886925" y="-0.185468" id="filter4519" inkscape:collect="always">
	<feGaussianBlur  stdDeviation="0.756603" id="feGaussianBlur4521" inkscape:collect="always"></feGaussianBlur>
</filter>
<defs>
	
	
		<inkscape:perspective  id="perspective2709" sodipodi:type="inkscape:persp3d" inkscape:vp_y="0 : 1000 : 0" inkscape:vp_z="1160 : 170 : 1" inkscape:vp_x="0 : 170 : 1" inkscape:persp3d-origin="580 : 113.33333 : 1">
		</inkscape:perspective>
</defs>
<sodipodi:namedview  id="namedview2703" inkscape:window-y="-8" inkscape:window-x="-8" inkscape:window-height="1377" inkscape:pageopacity="0.0" inkscape:window-width="2560" inkscape:pageshadow="2" inkscape:current-layer="layer1" inkscape:window-maximized="1" guidetolerance="10.0" objecttolerance="10.0" showgrid="false" pagecolor="#ffffff" borderopacity="1.0" inkscape:cx="259.05968" inkscape:zoom="1.3483795" bordercolor="#666666" inkscape:cy="138.53526" gridtolerance="10.0">
	</sodipodi:namedview>
<g id="layer1" transform="translate(2384.4462,-866.44932)" inkscape:groupmode="layer" inkscape:label="Layer 1">
	<g id="layer1-2" transform="translate(-512.0346,364.44601)" inkscape:groupmode="layer" inkscape:label="Layer 1">
		<g id="g3668" transform="matrix(0.90626,0,0,0.90626,-746.489,91.5129)">
			<g id="g4829" transform="matrix(1.62811,0,0,1.62811,-1394.9758,577.91639)">
				<path id="path4831" inkscape:connector-curvature="0" sodipodi:nodetypes="ccsccccccc" fill="#CC0000" d="M138.874-28.557
					l-17.198,0.379c-3.025,4.169-21.541,1.5-12.924,34.004c1.641,6.188-3.123,5.582-4.095,11.001
					c-0.168,0.936-2.728,1.643-4.376,0.091c-0.622,1.798-0.602,4.274,1.295,5.754l3.679-3.12c3.129,0.334-0.33,4.367-0.33,4.367
					l49.624,0.236C155.846,4.091,144.323-9.838,138.874-28.557z"/>
				
					<path id="path4833" inkscape:connector-curvature="0" sodipodi:nodetypes="cccccccccccccc" opacity="0.2" enable-background="new    " d="
					M118.289-18.875c-2.209,0.744-7.771,2.964-8.935,4.841c-1.634,7.545,2.532,15.589,1.881,23.616
					c-0.267,1.905-1.612,3.35-2.812,4.748c1.084-0.545,2.35-1.727,3.467-2.566c1.438-1.096,2.07-3.046,1.47-4.767
					c-0.277-1.824,1.321-3.209,2.426-4.434c2.741-2.61,5.85-4.872,9.247-6.552c-2.324-4.4-3.249-9.414-5.688-13.764
					C119.065-18.179,118.788-18.68,118.289-18.875z M107.163,13.484c-0.922,2.344-2.762,4.46-5.231,5.292
					c-1.58,0.279,0.085,2.896,1.289,1.608C105.761,19.142,106.92,16.1,107.163,13.484z"/>
				
					<path id="path4835" inkscape:connector-curvature="0" sodipodi:nodetypes="ccsscscccc" opacity="0.4" fill="#FFFFFF" enable-background="new    " d="
					M139.062-28.556l-17.197,0.379c-3.024,4.169-20.791,1.188-12.174,33.691c1.641,6.188-3.78,6.458-4.752,11.002
					c-0.101,0.472,1.288-1.716,1.395-2.313c1.659-3.388,5.845-1.907,4.204-8.096c-8.617-32.504,9.01-30.116,12.035-34.285
					l16.494-0.363C139.064-28.546,139.064-28.551,139.062-28.556L139.062-28.556z"/>
			</g>
			<g id="g4837" transform="matrix(1.57836,0,0,1.57836,-1287.0358,100.04139)">
				<path id="path4839" inkscape:connector-curvature="0" sodipodi:nodetypes="cccccccccccccc" fill="#2D3C50" d="M95.567,289.275
					c-0.382-0.013-0.94,0.114-1.027,0.485l-8.468,34.499c-0.056,0.238,2.165,2.481,3.105,3.423h5.377l0.772-3.252l-0.43-1.812
					l0.987-0.961l0.813-3.687l-1.296-1.341l1.548-0.675l5.353-25.486c0.117-0.492-0.246-0.967-0.751-0.983L95.567,289.275z"/>
				<path id="path4841" inkscape:connector-curvature="0" sodipodi:nodetypes="cccccccccccc" fill="#618599" d="M96.378,290.075
					l-8.576,36.198l1.376,1.41h3.707l0.937-3.921l-0.474-1.463l1.003-1.15l0.681-3.033l-1.363-1.899l1.945-1.044l5.466-23.973
					L96.378,290.075z"/>
				<path id="path4843" inkscape:connector-curvature="0" sodipodi:nodetypes="ccccccccccccccccccccccc" fill="#2D3C50" d="
					M101.74,272.355c-2.087-0.001-3.796,1.708-3.795,3.795c0,1.143,0.604,2.133,1.469,2.846l-2.535,8.049
					c-2.55-0.386-4.791-0.759-7.304-1.128c-0.325-0.048-0.645,0.111-0.805,0.397l-2.553,4.855c-0.283,0.511,0.068,1.14,0.65,1.17
					l8.01,0.429c-0.4,2.062-1.979,15.126-0.953,17.11c1.883-0.806,6.058-14.857,6.699-16.242l1.057,0.408l0.237,0.091l6.412,2.247
					c0.566,0.208,1.146-0.27,1.051-0.866l-0.492-5.221c-0.049-0.302-0.268-0.549-0.563-0.632c0,0-4.043-1.312-6.668-1.883
					l1.445-8.152c1.429-0.562,2.431-1.906,2.434-3.477v-0.002C105.535,274.063,103.826,272.354,101.74,272.355L101.74,272.355z"/>
				<path id="path4845" inkscape:connector-curvature="0" sodipodi:nodetypes="ccccccccccccccc" fill="#425B68" d="M101.74,273.145
					c-1.66,0-3.006,1.346-3.006,3.006c0.001,1.089,0.59,2.092,1.541,2.623l-2.213,9.475c-2.789-0.441-5.512-0.758-8.281-1.165
					l-2.164,3.889l8.512,0.722c-1.048,4.898-2.342,18.353-2.103,17.699c0.064,0.674,5.687-15.478,6.078-17.179l8.239,2.91
					l-0.751-4.64c0,0-5.009-1.527-7.395-1.965l2.954-9.95c1.359-0.315,1.592-1.024,1.595-2.42
					C104.746,274.491,103.4,273.145,101.74,273.145L101.74,273.145z"/>
			</g>
			<path id="path4847" inkscape:connector-curvature="0" sodipodi:nodetypes="ccccc" fill="#FFFFFF" d="M-1136.916,561.25
				l-12.712,52.56l1.848,1.97c1.596-7.052,8.344-29.048,8.344-29.048C-1138.313,569.627-1136.916,561.25-1136.916,561.25z"/>
			
				<path id="path4849" inkscape:connector-curvature="0" sodipodi:nodetypes="ccccccccccccccccccccccccc" opacity="0.4" fill="#FFFFFF" enable-background="new    " d="
				M-1130.116,547.875c-0.684,0.012-1.124,0.168-1.168,0.414c-0.075,0.398,0.895,0.909,2.167,1.143
				c1.271,0.234,2.36,0.1,2.432-0.299c0.075-0.399-0.895-0.912-2.167-1.144C-1129.293,547.908-1129.731,547.868-1130.116,547.875
				L-1130.116,547.875z M-1130.951,550.946c-0.684,0.011-1.124,0.167-1.169,0.413c-0.07,0.398,0.9,0.908,2.168,1.141
				c1.269,0.233,2.356,0.099,2.429-0.3c0.07-0.398-0.9-0.907-2.167-1.14C-1130.13,550.978-1130.568,550.94-1130.951,550.946
				L-1130.951,550.946z M-1144.885,552.795l-0.395,1.184l28.312,4.735c-3.871-1.568-7.84-2.574-11.85-3.354
				c0.393-0.063,0.63-0.192,0.666-0.366c0.076-0.398-0.893-0.909-2.164-1.144c-0.441-0.08-0.88-0.121-1.264-0.114
				c-0.684,0.013-1.125,0.168-1.169,0.414c-0.031,0.185,0.164,0.403,0.546,0.61
				C-1136.422,554.058-1140.668,553.511-1144.885,552.795z"/>
			<path id="path4851" inkscape:connector-curvature="0" sodipodi:nodetypes="scccccccccs" fill="#2D3C50" d="M-1123.176,523.201
				c-4.431,0.162-9.119,1.182-9.119,1.182l-18.964-0.513c-3.226,11.751,1.679,17.577,5.453,27.406
				c0.361-0.434,9.132-8.998,12.159-12.183c0,0,1.744,5.368,2.519,5.95c1.259,0.644,5.333,2.39,8.697-0.942l0.628-1.179l9.399-3.198
				c1.327-7.641-4.143-15.484-4.143-15.484C-1117.952,523.317-1120.517,523.104-1123.176,523.201L-1123.176,523.201z"/>
			<path id="path4853" inkscape:connector-curvature="0" sodipodi:nodetypes="csccccccccccccccscccccccccccccccc" d="
				M-1174.876,525.43c-1.852,0.032-3.843,0.598-6.112,0.598c-4.366,0-8.42,2.324-11.772,6.281
				c-5.177-0.412-9.828-2.283-13.536-0.697c-19.199,6.378-24.626,19.434-25.808,26.999c7.029-0.479,10.629-1.278,19.341-2.537
				l10.76-5.751c2.83,13.018-1.524,33.557-3.559,42.772c-1.202,2.636-2.216,4.248-1.727,5.269c1.853,2.157,4.54,1.259,8.128,1.325
				c-0.836,2.851-1.402,6.181-1.056,8.876c-4.928,1.322-9.452,4.899-10.398,9.306h63.054c-5.427-5.276-13.664-9.195-20.412-9.926
				c2.354-3.063,3.449-6.06,4.169-9.487c5.32-0.761,11.509-1.563,12.548-3.366c-0.379-13.305-3.576-33.34-4.845-41.915
				c-0.078-0.528-0.739-5.22-0.819-5.662l1.217,3.977l10.177-4.574c1.938,1.004-1.356-17.967-3.897-17.898
				c-2.718,0.753-12.319,1.662-14.915,2.378c-1.489,0.411-3.869-3.779-5.26-3.38C-1171.31,525.896-1173.023,525.396-1174.876,525.43
				L-1174.876,525.43z M-1176.691,599.534v0.003c-0.648,2.818-0.67,5.541-0.067,7.628c-4.455-0.291-8.654,0.541-12.777,0.36
				c-0.095-0.003-0.185-0.006-0.28-0.011c1.159-2.477,1.89-5.185,2.105-7.737C-1184.145,599.761-1180.393,599.688-1176.691,599.534
				L-1176.691,599.534z"/>
			
				<path id="path4857" inkscape:connector-curvature="0" sodipodi:nodetypes="cssccccsccccccccsscccccccccccccccccscc" fill="#2C3E46" d="
				M-1178.186,482.626c-5.242-0.021-12.483,1.031-18.428,2.738c-2.973,0.853-5.611,1.857-7.568,3.074
				c-0.977,0.607-1.809,1.269-2.405,2.099c-0.537,0.748-0.792,1.701-0.684,2.667c1.489,12.716,3.181,25.512,4.798,38.248
				c0.067,0.523,0.403,0.976,0.885,1.19c6.134,2.719,12.067,4.154,17.141,4.584c5.071,0.43,9.274-0.086,12.121-1.581
				c0.607-0.318,0.926-1.012,0.771-1.68l-0.01-0.046l2.7,0.743c0.115,0.031,0.239,0.012,0.339-0.053l7.852-5.077
				c0.369-0.21,0.548-0.583,0.629-0.943c0.081-0.359,0.071-0.729-0.032-1.06c-0.149-0.485-0.958-3.601-1.986-7.689
				c-1.027-4.087-2.319-9.284-3.585-14.393c-2.531-10.218-4.954-20.09-4.954-20.09l0,0c-0.013-0.047-0.026-0.095-0.043-0.142
				c-0.239-0.678-0.697-1.165-1.236-1.492c-0.541-0.328-1.159-0.516-1.779-0.666
				C-1174.917,482.75-1176.439,482.633-1178.186,482.626L-1178.186,482.626z M-1173.269,504.276l0.512,2.512l-2.509,1.498
				c-0.557,0.332-0.839,0.985-0.7,1.619l-0.01-0.025l2.568,16.11l-3.62-15.589c-0.168-0.723-0.844-1.219-1.585-1.162l-6.819,0.521
				l-0.715-3.037c3.424,0.166,6.513-0.184,8.934-0.875c1.693-0.484,2.913-1.033,3.94-1.572L-1173.269,504.276z"/>
			<path id="path4859" inkscape:connector-curvature="0" sodipodi:nodetypes="ccccccc" d="M-1194.896,501.302l5.768,33.496
				l8.559,0.5c3.009-1.824,6.154-2.337,9.545-2.924l2.535-1.064l-1.887-35.321L-1194.896,501.302z"/>
			<path id="path4861" inkscape:connector-curvature="0" sodipodi:nodetypes="scccccccccccccs" fill="#425B68" d="
				M-1178.186,484.133c-10.059-0.04-28.752,4.155-27.615,9.097l4.831,38.029c11.968,5.305,23.133,5.576,27.951,3.045l-5.154-23.179
				l-8.418,0.238l-3.428-6.182c8.233,1.006,18.329-3.327,19.88-4.543l-0.111,0.711l0.193,5.985l-4.43,2.247l5.436,23.311
				c1.276-1.053,7.541-4.923,7.541-4.923c-0.846-2.758-10.549-42.255-10.549-42.255
				C-1172.441,484.631-1174.833,484.147-1178.186,484.133L-1178.186,484.133z"/>
			<path id="path4863" inkscape:connector-curvature="0" sodipodi:nodetypes="cccccccccccccc" fill="#70979F" d="M-1170.216,501.318
				l-1.131,0.705l-0.113,4.654l-4.321,2.042l4.577,23.656l2.225,0.493l-4.496-23.162l3.592-2.244L-1170.216,501.318z
				 M-1179.221,509.497l-7.568,1.017l0.341,1.539l8.243-0.875L-1179.221,509.497z"/>
			<path id="path4865" inkscape:connector-curvature="0" sodipodi:nodetypes="cssssc" fill="#2C3E46" d="M-1171.676,484.843
				c0.343,1.692-6.875,5.599-15.753,7.231c-8.877,1.633-18.251,1.391-18.593-0.302c-0.343-1.692,7.685-5.058,16.561-6.691
				C-1180.583,483.45-1172.018,483.151-1171.676,484.843L-1171.676,484.843z"/>
			<path id="path4869" inkscape:connector-curvature="0" sodipodi:nodetypes="ccccc" opacity="0.3" enable-background="new    " d="
				M-1198.496,531.904c-3.763-36.596,4.901-44.658,10.658-47.167c-6.024,0.394-14.778,2.584-18.367,7.412
				c0.363,1.631,5.645,38.502,5.645,38.502L-1198.496,531.904z"/>
			<path id="path4873" inkscape:connector-curvature="0" sodipodi:nodetypes="ccccccssssscccc" fill="#618599" d="
				M-1148.715,526.228c2.331,2.927,5.752,12.646,4.999,20.634c3.266-4.31,5.433-6.207,9.837-10.354
				c2.313,0.695,4.07,6.287,4.07,6.287c1.927,1.086,4.946,1.745,6.534-1.584c0,0-2.845-5.036-3.47-7.29
				c2.188,1.406,8.153-1.503,8.153-1.503c0.192,0.183-3.523,2.297-3.791,2.864c-0.051,0.106,2.902-0.118,2.871,0.039
				c-0.038,0.191-2.778,1.006-2.802,1.231c-0.154,1.476,1.163,2.958,1.485,2.829l6.264-2.508c1.04-1.33-2.997-11.234-2.997-11.234
				c-0.165-0.826-8.302-0.953-14.188,0.957C-1136.379,526.692-1148.213,525.624-1148.715,526.228L-1148.715,526.228z"/>
			
				<path id="path4875" inkscape:connector-curvature="0" sodipodi:nodetypes="cccccc" opacity="0.6" fill="#FFFFFF" enable-background="new    " d="
				M-1148.806,526.028l2.505,4.034l15.101-1.479c0,0,2.351-1.603,13.137-2.976l-13.911,1.059L-1148.806,526.028z"/>
			<g id="g4877" transform="matrix(1.62811,0,0,1.62811,-1388.6458,585.39939)">
				<g id="g4879" transform="translate(23.4229,-3.97748)">
					<path id="path4881" inkscape:connector-curvature="0" sodipodi:nodetypes="ccccccccscccccccccc" fill="#800000" d="
						M96.135-73.649c-6.49-0.476-15.007,0.61-16.734,4.984c-0.012,0.049,1.988-0.213,3.381-0.271
						c-1.802,0.146-9.123,2.141-9.359,6.597c-0.319,0.248,3.33-0.549,3.33-0.549c-6.785,3.87-8.817,6.034-7.493,10.594
						c0.016,0.389,0.937-0.741,2.875-2.044c-6.233,7.996,4.724,18.061,12.435,21.766c0.971,0.568-1.438-2.511,0.643-7.626
						c0.272-0.668-2.52-2.237-2.677-2.851c-0.287-1.549,3.768-1.737,0.745-5.398c1.632-2.163,5.011-1.634,7.368-3.164
						c1.251-0.832,1.905-1.864,2.344-2.635c0.44-0.772,0.674-1.223,1.226-1.621c0.552-0.397,1.562-0.812,3.635-1.015
						c0.997-0.098,1.529-0.547,1.981-0.758c0.452-0.212,0.498-0.161,0.429-0.199c0.409,0.224,0.907,0.214,1.306-0.027
						C110.929-61.445,103.383-72.759,96.135-73.649z"/>
					<path id="path4883" inkscape:connector-curvature="0" sodipodi:nodetypes="csscccccccscccccccc" fill="#CC0000" d="
						M100.896-58.985c4.905-0.028,4.831-8.073-0.837-11.9c-3.442-2.323-11.155-1.987-18.858,1.538
						c-0.203,0.093,6.931-1.391,10.146,0.583c-4.955-1.424-14.319,1.804-16.434,5.317c3.463-0.963,8.955-2.546,9.834-2.806
						c-6.568,2.982-13.04,6.914-13.999,11.124c-0.255,0.483,5.412-2.582,9.996-4.667c-5.522,4.022-9.033,3.514-8.954,10.553
						c0.187,8.371,12.344,15.907,12.344,15.907s-2.054-4.15-0.966-6.242c0.892-1.715-1.78-1.985-2.08-3.46
						c-0.119-1.05,0.836-1.918,0.836-1.918c-0.639,0.569-3.657,0.404-3.559,0.147c0.11-0.236,1.898-0.504,2.827-3.708
						c-0.788,1.128-2.27,0.808-2.27,0.808c-0.12-1.781,1.657-1.854,4.069-3.33c11.523,7,14.694-3.905,15.135-7.232
						C99.03-58.419,99.891-59.538,100.896-58.985L100.896-58.985z"/>
					<path id="path4885" inkscape:connector-curvature="0" opacity="0.2" enable-background="new    " d="M95.039-70.505
						c0.632,1.006,1.951,1.837,3.193,2.9c-1.88-1.139-11.392,0.41-13.174-0.199c2.303,2.096,15.781,0.27,15.133,8.416l0.252-0.09
						c0.429-3.217,0.126-5.104-0.606-6.449c1.149,1.587,1.95,3.007,0.713,6.389l0.254-0.139
						C106.789-70.063,98.602-68.658,95.039-70.505L95.039-70.505z M92.14-64.419c-4.353-0.148-9.819,1.15-14.707,3.637
						c3.021,0.753,19.255-6.039,22.549,1.439l0.189-0.033C99.734-62.677,96.494-64.271,92.14-64.419z"/>
					
						<path id="path4887" inkscape:connector-curvature="0" sodipodi:nodetypes="scccscccccccccccc" opacity="0.3" fill="#FFFFFF" enable-background="new    " d="
						M93.449-72.363c-3.577,0.059-7.915,1.033-12.248,3.016c-0.131,0.06,2.807-0.527,5.769-0.424
						c2.792-0.806,5.426-1.621,9.801-2.344C95.768-72.298,94.653-72.383,93.449-72.363L93.449-72.363z M83.9-68.478
						c-3.924,0.972-7.731,2.947-8.986,5.031c0.797-0.222,1.773-0.425,2.704-0.689L83.9-68.478z M78.356-62.829
						c-4.626,2.218-7.173,5.792-7.608,7.7c-0.118,0.224,1.111-0.356,2.846-1.209C73.716-58.455,77.462-61.324,78.356-62.829
						L78.356-62.829z M73.617-55.162c-1.209,1.202-1.863,2.837-1.828,5.918c0.069,3.078,1.761,6.041,3.867,8.56
						C73.083-45.199,72.834-50.3,73.617-55.162z"/>
					<path id="path4889" inkscape:connector-curvature="0" sodipodi:nodetypes="ccc" opacity="0.3" enable-background="new    " d="
						M83.397-51.611c0.082-0.106,8.48,3.857,13.939-4.562C97.007-55.033,92.934-44.892,83.397-51.611z"/>
					<g id="path4891" inkscape:connector-curvature="0" opacity="0.3" filter="url(#filter4519)" enable-background="new    ">
						<path fill="#FFFFFF" d="M94.976-55.9c-1.972,4.568-7.632,3.321-11.415,2.631c-2.41,1.602-6.966,5.302-8.211,0.366
							c-0.409-3.98,4.755-3.587,6.227-6.692c3.181-2.19,6.435,2.213,10.039,0.808C93.574-59.303,97.51-58.556,94.976-55.9
							L94.976-55.9z"/>
					</g>
				</g>
				<g id="g4893" transform="translate(-3.27037,-4.77297)">
					<path id="path4895" inkscape:connector-curvature="0" sodipodi:nodetypes="ccccc" fill="#888A85" d="M124.828-55.639
						l0.046-3.115l2.661-0.553l1.634,2.907C127.922-55.487,126.346-55.064,124.828-55.639z"/>
					<path id="path4897" inkscape:connector-curvature="0" sodipodi:nodetypes="ccccc" fill="#D3D7CF" d="M127.783-60.103
						c1,0.421,0.699,1.423,0.401,1.713c-1.278,1.068-2.901,0.869-3.66,0.468l-0.207-1.1
						C124.779-59.592,126.667-58.717,127.783-60.103z"/>
				</g>
			</g>
			
				<ellipse id="ellipse4899" transform="matrix(0.8638 -0.5038 0.5038 0.8638 -415.1854 -525.2075)" fill="#FFFFFF" cx="-1179.177" cy="505.45" rx="1.119" ry="1.323"/>
			
				<ellipse id="ellipse4901" transform="matrix(0.9928 -0.1199 0.1199 0.9928 -68.9541 -137.2855)" fill="#FFFFFF" cx="-1175.76" cy="504.587" rx="1.119" ry="1.323"/>
			<g id="g3489" transform="matrix(0.996776,0.0802333,-0.0802333,0.996776,126.54489,14.616291)">
				<g id="g3416" transform="matrix(0.856124,-0.163821,0.163821,0.856124,-301.288,-120.176)">
					<path id="path4855" inkscape:connector-curvature="0" sodipodi:nodetypes="ccccscssssscccc" fill="#2D3C50" d="
						M-1279.52,637.103c-10.083-2.21-22.978,7.107-30.276,12.58c6.724,3.719,5.201,13.693,21.423,12.295
						c0,0,0.265,0.407,0.616,1.122c-1.345-0.808-5.058,3.156-5.058,3.156c-1.331,4.133,4.263,8.163,4.263,8.163
						c1.25,3.493,5.396,4.773,6.2,4.733c2.517-0.123,6.216-0.674,9.247-1.683c0.317-0.106,0.377-1.216,0.694-1.313
						c1.63-0.497,3.49-0.381,4.932-1.028c0.362-0.162,0.172-1.128,0.518-1.296c2.033-0.989,3.704-1.279,5.052-2.341l1.238-10.794
						c-3.516-4.286-13.255-8.871-13.255-8.871L-1279.52,637.103z"/>
					<path id="path4871" inkscape:connector-curvature="0" sodipodi:nodetypes="ccccscccccccsccccc" fill="#618599" d="
						M-1305.92,649.853c2.413-2.108,8.463-10.069,25.45-10.747c0,0,3.005,11.456,5.959,14.044c7.32,4.769,10.741,7.115,12.043,8.05
						l-1.158,8.847c-0.16,1.219-1.598,1.771-3.32,2.177l0.496-5.099c-0.575,1.831-1.914,4.487-2.403,6.122
						c-1.287,1.175-3.217,1.31-4.131,1.317c-0.286,0.111,1.726-3.585,0.368-5.459c-0.412,0.913-1.996,5.795-2.459,6.026
						c-4.756,2.234-11.14,1.347-11.702-2.529c-2.193-1.406-3.919-3.764-3.521-5.175c0,0,2.05-2.059,4.073-1.732
						c0.327-0.173,0.441,3.468,2.427,5.058c1.992-6.926-3.729-5.743-3.864-14.221l-0.609,3.56
						C-1303.472,658.646-1300.768,652.793-1305.92,649.853L-1305.92,649.853z"/>
					
						<path id="path4905" inkscape:connector-curvature="0" sodipodi:nodetypes="ccccc" opacity="0.4" fill="#FFFFFF" enable-background="new    " d="
						M-1281.03,639.308c-8.058-0.911-18.455,5.435-23.858,10.166c2.584,2.943,2.363,6.157,8.041,8.428
						c4.636-6.021-4.135-14.063,15.986-17.127C-1280.268,640.005-1280.669,640.123-1281.03,639.308z"/>
				</g>
				
					<path id="path4427-3" inkscape:connector-curvature="0" sodipodi:nodetypes="ccssccccccsccsccc" opacity="0.3" fill="#FFFFFF" enable-background="new    " d="
					M-1302.58,640.318c0.18,0.336-7.939,5.435-9.671,9.257c5.169,6.128,9.185,6.455,16.04,6.405c0.195,0-0.138-3.472,0.063-3.473
					c0,0,0.83,3.399,1.214,3.396l2.032,2.583c2.327,2.272,2.755,3.297,2.435,6.307l-3.103-4.26
					c-1.757,0.486-2.007,1.224-2.871,1.859c0.4,1.127-0.351,2.141,3.891,4.141c1.563,2.22,3.274,2.346,4.282,2.25
					c1.484-0.14,1.141-1.331,2.211-2.491l0.896-8.293c-5.431-2.995-3.435-3.912-6.733-6.195c-0.291-0.201,5.991-3.703,5.991-3.703
					s-8.921,2.648-9.155,2.6C-1304.701,651.183-1312.251,649.575-1302.58,640.318L-1302.58,640.318z"/>
				
					<path id="path4431-5" inkscape:connector-curvature="0" sodipodi:nodetypes="ccccsc" opacity="0.7" fill="#2D3C50" enable-background="new    " d="
					M-1284.5,657.911c3.132,0.573,9.455-1.804,10.626-5.51l1.231,9.525c-4.428,3.548-10.615,5.522-15.043,7.458
					c0.386-0.456,1.759-1.431,2.032-2.424C-1284.863,664.085-1284.5,657.911-1284.5,657.911L-1284.5,657.911z"/>
			</g>
		</g>
		<g id="text3537" transform="matrix(0.871055,-0.00256253,0.00194429,1.14803,0,0)">
		</g>
	</g>
	<g id="g3835" transform="matrix(1.1406473,0,0,1.1406473,-575.32425,189.47907)">
		<g id="g3837" transform="matrix(1.17312,0,0,1.17312,710.548,145.669)">
			<path id="path3909-2" inkscape:connector-curvature="0" fill="#F57900" d="M-1914.897,442.167l-0.513,0.064l-0.444,0.706
				c-2.28,3.571-3.063,5.022-3.394,6.312c-0.158,0.617-0.135,0.867,0.121,1.451c0.557,1.268,2.329,2.391,4.99,3.164
				c0.978,0.285,1.027,0.342,0.798,0.836c-0.16,0.347-0.276,0.39-0.942,0.347c-1.485-0.097-2.167,0.01-3.01,0.493
				c-0.521,0.296-0.595,0.488-0.49,1.246c0.123,0.879,1.053,2.271,1.765,2.638c0.314,0.163,0.428,0.078,0.298-0.217
				c-0.249-0.565-0.136-0.993,0.296-1.144c0.396-0.137,1.556,0.091,2.305,0.455c0.535,0.26,1.488,1.006,1.928,1.506
				c0.166,0.188,0.387,0.389,0.49,0.447c0.245,0.136,0.264,0.131,0.697-0.139c0.87-0.545,3.106-2.624,4.719-4.383
				c0.57-0.622,0.812-1.636,0.767-3.208c-0.032-1.133-0.184-1.617-0.738-2.33c-0.223-0.286-0.711-0.753-1.082-1.044
				c-0.57-0.447-1.052-0.746-2.734-1.674c-0.249-0.137-0.27-0.315-0.072-0.661c0.467-0.817,0.9-2.703,0.844-3.664
				c-0.034-0.579-0.039-0.593-0.325-0.851c-0.364-0.327-0.603-0.323-0.788,0.015c-0.075,0.136-0.208,0.293-0.293,0.35
				c-0.347,0.23-1.413,0.123-2.62-0.269c-0.206-0.066-0.752-0.21-1.215-0.317C-1914.226,442.134-1914.479,442.111-1914.897,442.167
				L-1914.897,442.167z M-1915.526,445.111c0.337-0.017,0.83,0.101,1.679,0.383c1.532,0.509,1.731,0.548,2.762,0.514
				c0.833-0.028,0.887-0.02,0.909,0.133c0.029,0.195-0.166,0.735-0.357,0.996c-0.13,0.177-0.336,0.258-0.445,0.171
				c-0.029-0.021-0.376-0.08-0.767-0.125c-2.206-0.258-3.426-0.504-4.068-0.812c-0.569-0.273-0.659-0.74-0.204-1.087
				C-1915.877,445.179-1915.728,445.121-1915.526,445.111L-1915.526,445.111z M-1917.504,447.742
				c0.075-0.015,0.172,0.055,0.284,0.214c0.256,0.365,1.454,1.117,2.258,1.417c0.778,0.29,1.192,0.381,1.963,0.451
				c0.794,0.073,1.316,0.272,1.349,0.512c0.022,0.159-0.258,0.685-0.468,0.874c-0.04,0.035-0.108,0.067-0.151,0.066
				c-0.402-0.005-1.474-0.258-1.936-0.454c-0.08-0.034-0.183-0.057-0.228-0.053c-0.22,0.02-1.531-0.666-2.107-1.1
				c-0.866-0.653-1.119-0.975-1.119-1.457C-1917.659,447.922-1917.598,447.762-1917.504,447.742L-1917.504,447.742z
				 M-1910.209,450.495c0.102-0.019,0.235-0.004,0.431,0.022c0.648,0.085,1.661,0.591,2.525,1.268
				c1.04,0.816,1.448,1.448,1.431,2.211c-0.013,0.185-0.051,0.322-0.108,0.326c-0.056,0.006-0.313-0.298-0.575-0.67
				c-0.373-0.531-0.572-0.734-0.906-0.934c-0.62-0.371-2.23-0.957-2.545-0.93c-0.08,0.007-0.273-0.036-0.435-0.094
				c-0.36-0.131-0.41-0.334-0.19-0.797C-1910.46,450.64-1910.379,450.527-1910.209,450.495L-1910.209,450.495z M-1911.735,454.403
				l0.798,0.156c1.823,0.342,2.202,0.423,2.68,0.601c0.276,0.103,0.604,0.265,0.732,0.353c0.292,0.202,0.554,0.571,0.516,0.729
				c-0.015,0.066-0.268,0.334-0.56,0.597c-0.595,0.537-0.903,0.638-1.199,0.375c-0.575-0.508-2.153-1.362-2.785-1.503
				c-0.238-0.054-0.479-0.127-0.538-0.165c-0.203-0.133-0.167-0.442,0.097-0.795L-1911.735,454.403L-1911.735,454.403z"/>
		</g>
	</g>
</g>
</svg>
