<?xml version="1.0" encoding="utf-8"?>
<!-- Generator: Adobe Illustrator 16.0.0, SVG Export Plug-In . SVG Version: 6.00 Build 0)  -->
<!DOCTYPE svg PUBLIC "-//W3C//DTD SVG 1.1//EN" "http://www.w3.org/Graphics/SVG/1.1/DTD/svg11.dtd">
<svg version="1.1" id="Layer_1" xmlns="http://www.w3.org/2000/svg" xmlns:xlink="http://www.w3.org/1999/xlink" x="0px" y="0px"
	 width="2078.264px" height="377.108px" viewBox="210.855 1753.538 2078.264 377.108"
	 enable-background="new 210.855 1753.538 2078.264 377.108" xml:space="preserve">
<g>
	<path fill="#434244" d="M1855.234,1777.636l92.409-6.459c5.551,0,12.944,4.604,14.799,9.234l20.311,43.437l-2.763-38.806
		c0-8.314,7.393-15.72,14.772-16.641l60.063-3.696c7.393-0.921,15.732,6.484,16.64,14.799l0.935,15.706
		c1.828-2.763,4.604-4.604,6.459-6.459c15.706-12.944,35.109-20.337,55.445-18.495h0.908l80.399,4.617
		c30.479,2.775,49.882,13.865,60.971,34.201c11.089,17.549,13.852,41.581,12.01,71.14v0.921c0,3.696,0,7.393-0.907,9.247v7.38
		c-0.935,22.179-6.459,24.954-34.201,23.1c-2.763,0-5.552,0-7.394-0.921c-7.366,0-13.852-0.921-19.402-0.921
		c-24.928-1.855-27.717-7.38-25.862-26.783v-2.775v-5.551v-1.854v-3.696c-1.854-3.697-4.63-9.234-11.089-9.234l-25.861-1.855
		c-4.63,0-10.155,1.855-13.852,5.551c-3.696,3.684-6.485,8.314-6.485,14.786h-0.908l-6.484,111.813v5.551
		c0,0.908,0.934,2.763,1.854,4.604c1.854,7.393,7.394,12.943,12.944,13.852l18.494,0.934c4.604,0,8.314-1.854,11.076-4.63
		c3.697-2.763,5.551-8.314,5.551-13.852v-4.618c-17.561-1.841-20.311-4.604-18.469-23.099v-3.684v-5.551l1.855-20.323v-1.855
		c0.908-10.168,0.908-14.785,7.366-20.323c6.485-4.617,10.182-4.617,18.495-3.696h3.696l57.301,3.696
		c0.48,0.528,1.143,0.856,1.854,0.921c11.076,0,16.614,0.921,22.165,7.38c4.604,6.472,4.604,11.089,3.696,20.323v4.617
		l-9.247,138.621v5.551c0,8.314,0,12.931-5.551,19.403c-6.459,6.459-12.918,6.459-24.954,5.551h-0.908l-31.412-2.775h-2.789
		c-8.313,0-12.01-0.921-17.561-6.472c-1.595-2.267-2.84-4.759-3.696-7.394c-6.288,4.491-13.593,7.352-21.258,8.327
		c-10.155,1.854-20.311,1.854-33.255,0.92l-20.336-1.854c-4.604,0-10.155-0.921-14.773-1.854c-4.63-1.854-10.154-2.775-14.798-4.617
		c-2.238-1.077-4.396-2.313-6.459-3.696c0,0.921-0.935,0.921-1.854,0.921l-90.555,5.551c-4.604,0-12.918-4.617-14.799-9.248
		l-12.918-27.716l0.908,24.033c0.934,7.38-6.459,14.785-13.852,15.706l-69.311,4.617c-7.393,0-15.707-7.393-15.707-14.799
		l-1.854-24.953c-24.954,28.65-58.208,46.198-96.106,47.132h-1.828h-0.934c-11.021,0.039-21.967-1.835-32.348-5.538
		c-8.313-1.854-16.613-5.551-24.02-9.247c-2.789,3.696-8.34,6.472-15.706,7.393c-3.696,0-7.394,0.921-13.878,0.921h-4.604
		l-29.558,0.921c-24.954,0.921-25.888,0-35.109-19.403c0-0.934-0.934-1.854-2.789-4.617l-32.346-61.917l2.788,55.445v8.313
		c0.907,6.459,0,11.076-2.788,15.707c-3.671,5.551-8.314,8.313-16.615,9.234h-11.089l-35.108,0.934
		c-1.855,0.908,2.762,0-5.552,0.908h-4.604c-4.63-0.908-8.339-0.908-11.089-2.775c-6.459-3.684-9.247-7.38-10.155-13.852
		c-0.934-2.775-0.934-6.473-0.934-11.076c0-1.855,0-4.617-0.908-7.394c-1.854-57.287-4.63-114.574-6.459-170.954l-3.723-100.724
		c0-1.854-0.907-5.551-0.907-8.326c-2.763-26.796-2.763-29.559,30.505-30.505l35.109-0.908h12.943
		c6.459,0.908,11.076,2.763,14.772,7.393c3.696,4.604,4.63,8.314,5.552,13.852v12.012l1.854,46.198l21.258-52.671
		c0.934-3.696,1.855-5.551,1.855-7.393c6.459-16.641,7.393-21.258,31.412-22.179l39.739-1.854c17.562,0,25.862,5.538,26.796,19.402
		c20.311-14.785,44.356-23.099,70.219-23.099h1.854c12.011,0,23.1,0.921,33.255,4.617c10.755,2.777,21.035,7.14,30.505,12.943
		c8.314,4.604,15.707,11.077,23.1,17.562l-0.934-16.627C1840.436,1785.937,1846.92,1777.636,1855.234,1777.636L1855.234,1777.636z
		 M227.062,1838.62c-1.854-24.941-2.763-38.806,2.775-48.961c6.472-11.089,17.562-13.865,40.661-14.799l56.367-1.854
		c10.168,0,20.336,0.921,30.505,3.709c10.168,1.842,19.402,6.459,28.637,11.076c20.324,12.023,39.727,31.426,53.592,56.38
		c3.696-6.472,7.393-12.01,12.022-16.628c25.861-32.346,60.983-52.683,100.71-52.683h2.775c11.09,0,22.179,0.921,33.268,4.617
		c10.155,2.775,20.324,7.38,30.492,12.944c4.617,2.762,9.234,6.459,13.852,10.155v-4.617c-0.921-7.38,6.473-15.707,13.852-15.707
		l93.331-6.472c4.617,0,12.943,4.617,14.785,9.248l19.416,42.501l-1.854-38.806c-0.921-7.393,6.472-14.798,13.864-15.719
		l60.983-3.696c7.394-0.921,15.707,6.472,15.707,13.864l4.617,72.073l4.617-47.119c0-2.775,0.921-6.472,0.921-9.247
		c0.921-26.796,1.842-29.571,35.109-26.796l35.108,3.696h6.473c1.854,0.934,3.696,0.934,5.538,0.934
		c6.472,1.842,11.089,4.604,13.864,9.222c2.775,4.63,3.696,9.248,2.775,14.799v5.551c-0.92,1.854-0.92,3.696-0.92,6.472
		l-5.539,46.198l28.638-50.815c1.842-2.775,2.775-4.617,3.696-6.472c8.326-16.627,10.168-20.323,34.188-18.481l9.247,0.907
		c3.696-2.763,9.234-3.683,16.627-4.604h7.406l139.529-7.394h8.3c5.552-0.907,10.169,0,14.799,3.697l0.921,0.934l23.099-0.934h2.776
		c12.01-0.922,17.561-0.922,24.02,4.617c6.459,4.617,7.393,9.247,10.155,18.481c0,1.854,0.934,3.696,0.934,5.551
		c4.604,15.707,10.155,32.347,15.706,50.815c0.908,2.776,1.855,5.552,1.855,7.394c5.551-12.931,10.155-24.033,13.852-35.109
		c2.763-7.393,6.459-14.786,9.247-22.179c1.854-3.696,1.854-4.617,1.854-4.617c8.314-22.178,8.314-22.178,35.109-20.323
		l30.505,2.775c21.231,1.854,27.717,7.393,26.77,21.258c0,5.551-2.763,9.247-5.551,14.785c-0.908,1.854-2.763,4.617-4.604,8.327
		c-10.155,22.178-14.799,32.333-19.402,43.436c-14.799,32.333-29.559,64.667-43.423,92.396c-1.854,4.617-3.696,8.326-3.696,11.089
		c-0.935,2.775-0.935,6.459-1.855,11.089l-2.788,107.182v4.618c0,10.155,0,15.706-8.313,21.257
		c-5.551,3.697-10.155,3.697-20.311,3.697l-35.136-1.855c-16.614,0-23.099-2.775-25.874-10.168
		c-3.697,3.696-10.155,5.551-17.549,5.551h-10.168l-127.519,6.472h-1.854c-12.01,0.921-19.403,0.921-24.954-0.921
		c-2.775,6.459-9.234,9.234-19.402,9.234c-3.696,0-7.394,0-13.853-0.92h-4.617l-29.57-2.775
		c-24.954-1.842-24.954-3.684-32.347-23.087c0-0.921,0-1.854-0.921-4.617l-23.1-65.614l-6.484,55.434v4.617
		c-0.921,1.854-0.921,2.775-0.921,3.696c0,6.472-1.854,11.076-4.617,14.785c-4.617,5.551-10.155,7.393-17.562,7.393
		c-1.842,0-4.617,0-8.313-0.921c-8.326-0.92,12.01,0.921-3.696,0l-35.109-2.775c-1.854,0,2.775,0-4.617-0.921h-2.775l-87.779,5.552
		c-4.617,0-12.023-4.618-14.799-9.248l-12.931-27.729l1.854,23.1c0,8.326-7.393,15.72-14.785,16.64l-68.39,4.604
		c-7.38,0-15.706-7.38-16.627-14.785l-0.921-21.258c-24.033,24.033-54.512,37.885-87.779,38.806h-2.775
		c-11.09,0-22.179-1.842-33.268-5.538c-10.749-2.781-21.025-7.144-30.492-12.944c-19.416-11.076-36.043-27.716-49.895-48.053
		c-3.696,6.472-7.393,12.023-12.01,17.562c-23.1,27.716-53.591,41.581-81.321,43.436h-2.775l-60.984,1.842
		c-21.257,0.921-33.268-5.538-39.727-13.852s-6.472-18.482-7.393-25.875c-2.763-51.736-5.551-95.172-8.313-142.291
		C230.566,1909.488,228.725,1874.059,227.062,1838.62L227.062,1838.62z M325.943,1897.749v9.247l2.762,45.277l3.696,60.063
		l14.799-0.921h1.841c2.776-1.854,6.472-4.617,9.235-10.168c0-0.921,0.921-2.776,0.921-3.684c0.92-1.855,1.841-2.775,1.841-4.617
		c2.776-8.327,3.709-19.403,3.709-33.268c0-0.921,0,0,0,0v-0.921l-0.921-0.921v-0.908c0-4.617,0-8.326-0.92-12.01
		c0-3.709-0.934-6.485-1.855-10.182c-2.763-16.627-8.313-28.637-14.786-34.188l-0.921-0.922h-0.921
		c-0.92-0.92-1.854-0.92-2.775-1.854h-0.921h-14.785V1897.749L325.943,1897.749z M570.813,1920.861l-16.641-51.736l-15.706,51.736
		c-0.921,1.854-4.617,4.617-6.472,4.617h-53.592l43.436,32.333c1.842,0.921,2.763,5.552,1.842,7.394l-16.64,51.749l43.436-31.413
		c1.842-1.867,6.472-1.867,8.326,0l42.489,31.413l-16.627-51.749c0-1.855,0.934-6.473,2.775-7.394l43.436-32.333h-53.591
		C574.509,1925.479,571.746,1922.703,570.813,1920.861z M1043.937,1905.154l-26.809,43.436c-2.763,5.539,0.921,0-1.854,2.776
		c-0.921,1.854-0.921,1.854,0,3.683l42.515,108.129c-4.617-46.197-8.327-91.488-12.01-137.687
		C1044.857,1919.007,1044.857,1911.627,1043.937,1905.154L1043.937,1905.154z M1216.72,1873.742h-10.169l-69.31,3.684l2.775,28.649
		h0.921l26.795-1.854c12.944,0,25.875-0.921,38.818-1.854h3.697c7.393,0,12.01,0.921,16.627,5.551
		c4.617,4.617,5.551,8.313,6.472,14.785v6.472l2.775,28.638v9.234c0,6.472-2.775,12.01-6.472,15.72
		c-4.617,3.684-9.234,4.604-14.785,4.604h-11.09l-56.366,3.697l1.854,23.099v3.684c18.482,0,37.885-1.842,57.287-2.763
		c6.459-0.921,13.852-0.921,21.258-0.921l0.921-0.921c6.472,0,10.168,0,14.785,1.855c7.394,3.696,10.155,8.313,11.09,16.627v1.854
		l1.841-49.907c0-6.459,0-10.156-0.92-13.852c-0.83-4.829-2.387-9.504-4.617-13.865L1216.72,1873.742L1216.72,1873.742z
		 M1771.164,1920.861l-16.641-51.736l-16.614,51.736c-0.934,1.854-3.696,4.617-6.485,4.617h-53.604l43.449,32.333
		c1.854,0.921,3.696,5.552,2.762,7.394l-16.613,51.749l43.422-31.413c1.855-1.867,5.551-1.867,7.394,0l43.423,31.413l-16.615-51.749
		c-0.934-1.855,0.908-6.473,2.764-7.394l43.448-32.333h-53.604C1774.86,1925.479,1771.164,1922.703,1771.164,1920.861z"/>
	<path fill="#F4EB92" d="M2194.367,2114.901h2.763l31.413,2.776c12.943,0.92,19.402,0.92,25.888-5.552
		c5.551-5.551,5.551-11.076,5.551-19.402v-5.551l9.222-138.608v-4.617c0.934-9.247,0.934-13.852-3.697-20.323
		c-5.524-6.472-11.076-7.394-22.165-7.394h-1.854l-57.301-4.604h-3.696c-8.313-0.921-12.01-0.921-18.469,3.684
		c-6.485,5.551-7.393,10.168-7.393,20.323v1.854l-1.854,20.324v5.551c0,2.775,0,2.775-0.908,3.696
		c-0.934,18.495,1.854,21.258,19.402,23.099v4.618c0,5.538-1.854,11.076-5.551,14.785c-2.789,2.775-6.484,3.696-11.089,3.696
		l-18.495-0.921c-5.525,0-11.076-6.472-12.918-13.864c-0.934-1.842-1.854-2.763-1.854-4.604v-5.551l6.459-111.813
		c0.934-6.459,3.696-11.076,7.393-14.785c3.696-3.71,9.247-5.538,13.852-5.538l25.888,1.842c6.459,0.92,9.222,5.551,11.076,10.168
		v12.943c-1.854,19.403,0.934,24.954,25.888,26.796c5.552,0,12.011,0.921,19.403,0.921c1.854,0.921,4.604,0.921,7.393,0.921
		c27.717,1.854,32.32-0.921,34.176-23.1v-7.393c0.934-1.854,0.934-5.538,0.934-9.234c1.854-29.571-0.934-54.513-12.036-72.086
		c-11.076-20.324-30.479-31.426-60.971-34.201l-80.399-4.604h-0.908c-20.337-1.854-39.739,5.538-55.445,18.481
		c-14.773,12.944-24.954,32.347-26.796,55.446v0.921l-12.918,203.288c-1.854,31.412,18.469,53.591,44.356,64.68
		c4.779,1.965,9.723,3.506,14.772,4.604c4.63,0.921,10.155,1.854,14.799,1.854l20.311,1.855c12.944,0.92,23.1,0.92,33.28-0.922
		c7.367-0.92,13.852-3.683,21.258-8.313c0.908,2.776,1.854,4.617,3.67,7.38C2182.345,2113.98,2186.041,2114.901,2194.367,2114.901z"
		/>
	<path fill="#CD303C" d="M2052.971,1834.937c1.855-38.806,32.347-62.852,66.549-60.997c22.165,1.854,58.208,3.696,80.373,5.551
		c49.908,3.696,61.904,36.043,58.234,89.635c-0.934,24.032,2.763,26.782-18.495,24.953c-9.247,0-17.561-0.921-26.795-1.854
		c-14.799-0.921-12.011-3.696-11.076-18.482c0.907-10.168-5.577-29.57-25.888-30.505c-9.248-0.921-17.562-1.854-25.862-1.854
		c-17.561-1.854-36.043,13.852-36.989,34.201c-1.99,37.296-4.447,74.564-7.367,111.8c-0.934,19.402,12.918,38.805,29.559,39.726
		c7.393,0.921,11.089,0.921,18.494,1.855c20.311,0.921,31.413-15.707,32.321-33.255c0.934-6.472,0.934-12.931,1.854-19.402
		c-2.763,0-5.551-0.935-7.393-0.935c-15.707-0.907-12.918-0.907-12.01-16.627c0-6.459,0.934-13.839,0.934-20.323
		c0.908-13.852,0-12.01,13.852-11.076c19.402,0.92,37.897,2.775,56.366,3.696c17.562,0.921,14.799,0,13.852,16.627l-8.313,138.608
		c-0.934,16.64,1.855,16.64-15.706,15.719c-10.155-0.921-20.337-0.921-31.438-1.854c-12.01-0.921-10.156,0-9.222-12.023v-13.852
		h-7.394c-1.854,1.854-4.63,4.617-6.459,6.472c-18.494,16.628-31.438,15.707-55.445,13.852c-6.484,0-12.943-0.92-20.336-0.92
		c-29.559-1.855-60.971-22.179-59.13-55.434C2044.658,1967.979,2048.367,1904.221,2052.971,1834.937L2052.971,1834.937z"/>
	<path fill="#F4EB92" d="M1237.057,1944.894l-57.301-134.911v-0.921c-0.921-2.775-2.775-5.551-3.696-8.326
		c-2.763-5.552-4.617-9.248-5.538-13.865c0-16.627,7.393-19.402,30.491-20.323l36.964-1.855h2.763
		c11.089-0.92,16.627-0.92,23.1,4.618c6.484,4.617,7.393,9.247,10.181,18.481c0,1.867,0.908,3.696,0.908,5.564
		c4.604,15.706,10.155,32.333,15.706,50.815c0.935,2.775,1.854,5.551,1.854,7.393c5.552-12.943,10.156-24.033,13.853-35.122
		c2.788-7.38,5.551-14.785,9.247-22.165c1.854-3.696,1.854-4.617,1.854-4.617c8.313-22.191,8.313-22.191,35.109-20.337l30.505,2.775
		c21.258,1.855,27.717,7.394,26.795,21.271c0,5.538-2.788,9.234-5.551,14.786c-0.934,1.854-2.788,4.617-4.63,8.313
		c-10.155,22.179-14.772,32.347-19.403,43.436c-14.772,32.347-29.558,64.681-43.422,92.409c-1.855,4.617-3.697,8.314-3.697,11.076
		c-0.907,2.776-0.907,6.473-1.854,11.09l-2.763,107.195v4.604c0,10.168,0,15.72-8.339,21.258
		c-5.525,3.696-10.155,3.696-20.312,3.696l-35.108-1.854c-23.112,0-26.796-5.538-25.875-22.179v-5.538
		c0.921-1.854,0.921-3.709,0.921-6.472l2.763-102.565c0-6.472,0-10.168-0.921-13.864S1239.831,1950.433,1237.057,1944.894
		L1237.057,1944.894z"/>
	<path fill="#CD303C" d="M1249.987,1939.33c-17.562-45.265-36.964-90.542-56.367-135.833c-7.38-19.415-14.772-21.257,8.327-22.178
		c12.01,0,24.032-0.921,36.964-1.854c19.39,0,16.627-0.922,21.244,18.481c6.485,21.258,13.878,43.436,22.191,70.231
		c2.763,12.01,6.459,17.561,9.247,16.627c3.671-0.921,7.367-7.393,12.01-18.482c10.156-25.874,16.614-43.436,25.862-66.534
		c6.484-15.72,4.63-16.628,21.257-14.786c11.09,0.908,21.258,0.908,31.413,1.842c20.337,1.868,12.036,6.485,3.696,23.112
		c-20.311,45.265-42.502,92.396-62.825,135.832c-4.63,11.09-6.459,16.628-6.459,28.65l-2.788,106.262
		c-0.908,15.706,1.854,15.706-13.853,14.785c-11.089,0-23.099-0.921-35.108-0.921c-14.799-0.921-11.103-3.696-11.103-19.402
		l2.775-102.565C1257.38,1958.732,1256.445,1952.273,1249.987,1939.33L1249.987,1939.33z"/>
	<path fill="#F4EB92" d="M1048.541,1768.389h1.854l139.528-7.393h7.393c6.473-0.908,11.09,0,15.693,3.696
		c5.552,3.696,7.394,8.326,7.394,15.719c0.921,2.776,0.921,3.684,0.921,4.618v4.617l3.696,37.885v8.313
		c1.842,21.257-0.921,24.954-21.258,26.795h-12.01l-69.298,3.696l2.763,28.638h0.934l26.783-1.842
		c12.943,0,25.888-0.921,38.818-1.854h3.696c7.393,0,12.01,0.921,16.64,5.538c4.618,4.617,5.552,8.326,6.473,14.798v6.459
		l2.775,28.65v9.222c0,6.472-2.775,12.023-7.393,15.72c-3.696,3.684-8.313,4.617-13.853,4.617h-11.089c0,0.921,0.921,0,0,0.921
		l-56.38,2.775l1.855,23.1v3.683c18.481,0,37.885-1.842,57.287-2.775c6.472,0,13.864-0.908,21.244-0.908h0.934
		c6.473-0.92,10.169-0.92,14.786,0.908c8.326,3.696,11.089,8.327,12.01,17.562c0.921,2.775,0.921,3.684,0.921,5.538v3.696
		c0.921,12.944,1.854,13.852,1.854,14.799c0.921,12.01,1.854,23.086,2.775,33.254v0.921c0,20.324-11.089,24.033-25.874,24.941
		h-9.248l-127.519,6.472h-1.842c-28.65,1.854-34.188,1.854-36.964-31.413c-4.617-55.433-9.234-109.971-13.864-165.403
		c-2.763-36.977-6.472-73.928-9.234-111.813c-2.775-26.795-1.854-31.413,21.257-34.201
		C1045.777,1768.389,1047.619,1768.389,1048.541,1768.389L1048.541,1768.389z"/>
	<path fill="#CD303C" d="M1051.316,1783.174c-14.786,0.908-15.707,0.908-14.786,18.482c8.313,92.409,15.707,184.806,24.021,277.216
		c0.934,19.402,4.63,18.481,22.178,17.561c42.502-2.775,85.004-4.617,127.52-7.393c8.313,0,20.323,2.775,20.323-9.234
		c-0.921-15.72-2.763-31.426-3.696-47.132c-0.921-4.617-0.921-7.394-0.921-9.248c-0.921-5.551-2.775-6.459-11.089-5.551
		c-28.638,1.854-57.288,3.709-85.925,4.63c-8.313,0-9.234-1.867-9.234-11.089c0-1.854-0.921-4.617-0.921-7.393
		c-0.921-8.314-0.921-16.627-1.855-24.021c0-4.63-0.92-7.393-0.92-9.247c0-3.696,0-4.617,3.696-5.551c0.921,0,3.696,0,7.38-0.908
		l60.996-2.789h11.09c4.617,0,6.472-0.92,6.472-6.472v-7.38l-2.775-27.729v-7.38c0-4.617-0.921-6.472-7.393-5.552h-2.763
		c-22.179,0.921-44.356,1.855-65.614,2.776c-6.459,0.921-10.155,0.921-12.931,0.921c-2.775-0.921-3.696-2.776-3.696-11.09
		c0-0.921-0.921-1.854-0.921-2.775c-0.921-11.076-1.854-21.244-2.763-32.333c0-8.314-0.921-11.077,0.921-12.011
		c1.854-0.92,4.617-0.92,10.168-0.92c24.033-1.855,48.974-2.776,73.928-3.697c4.617-0.921,8.326-0.921,11.089-0.921
		c8.313,0,8.313-2.775,6.473-17.561c-0.921-12.944-1.854-25.875-2.763-37.897c-0.921-4.617-0.921-7.394-0.921-10.156
		c-0.921-4.604-1.854-5.551-7.393-5.551c-1.854,0-4.631,0-7.394,0.935C1143.726,1778.557,1097.527,1781.333,1051.316,1783.174
		L1051.316,1783.174z"/>
	<path fill="#F4EB92" d="M893.306,1760.982l34.188,3.697h7.393c1.854,0.934,3.696,0.934,5.551,0.934
		c6.473,1.842,11.09,4.604,13.865,9.234c2.762,4.617,3.696,9.234,2.762,14.799c0,1.842,0,3.696-0.92,5.538v6.472l-5.539,46.198
		l28.638-50.829c1.842-2.762,2.775-4.604,3.71-6.459c8.313-16.64,10.154-20.336,34.175-18.494l38.818,3.696
		c22.165,1.854,28.65,11.076,23.1,30.505c-2.776,9.247-9.248,20.311-18.482,35.109l-58.208,96.093c-3.71,5.551,0.921,0-1.854,2.775
		c-0.921,1.854-0.921,1.854,0,3.696l52.67,135.846c3.696,9.234,5.538,15.706,5.538,21.258c-0.921,12.931-7.393,18.481-21.244,18.481
		c-3.697,0-7.394,0-13.865-0.921h-4.617l-29.571-2.775c-24.954-1.854-24.954-3.696-32.347-23.1c0-0.92,0-1.854-0.921-4.617
		l-24.02-65.601l-5.551,55.42v4.63c-0.921,2.775-0.921,3.684-0.921,3.684c0,6.472-1.855,11.089-4.631,14.799
		c-4.617,5.537-10.155,7.379-17.561,7.379c-1.854,0-4.617,0-8.313-0.92c-8.313-0.922,12.01,1.854-3.696,0l-35.123-2.776
		c-1.854,0,2.763,0-4.617-0.907h-4.617c-4.617-0.922-8.326-1.855-11.089-4.618c-5.538-3.696-8.313-7.393-8.313-13.852
		c-0.934-3.696,0-6.472,0-11.089c0.921-2.775,0.921-4.617,0.921-7.393c6.472-57.288,12.01-113.654,18.481-170.955l10.155-98.868
		c0-2.763,0-6.459,0.921-9.247C859.117,1760.983,860.038,1758.221,893.306,1760.982L893.306,1760.982z"/>
	<path fill="#CD303C" d="M891.464,1776.715c12.01,0.908,24.02,1.842,35.109,2.763c4.617,0.921,8.313,0.921,11.089,1.854
		c3.696,0.921,4.617,1.855,4.617,6.459c-0.921,2.789-0.921,7.394-1.842,12.023c-1.702,20.99-3.859,41.941-6.472,62.838
		c-2.763,24.954-1.842,47.133,15.706,15.707c12.011-21.258,30.492-51.75,43.436-73.915c8.314-14.785,6.473-18.495,23.1-16.64
		l38.806,2.788c17.561,1.854,10.168,14.785-7.393,43.436c-22.179,36.03-36.964,60.971-58.222,96.093
		c-5.538,9.234-7.393,9.234-2.775,19.403c17.561,45.277,35.122,90.555,52.67,134.911c5.552,15.707,6.485,19.402-1.842,20.311
		c-3.696,0-9.234-0.908-16.627-1.842c-12.01-0.921-20.336-1.854-30.505-1.854c-16.627-1.854-14.785-2.775-20.323-18.481
		c-10.168-29.571-21.258-60.063-31.413-89.635c-7.393-22.178-15.706-21.257-18.481,2.775c-2.763,24.941-5.539,55.434-8.314,80.387
		c-0.92,3.697-0.92,6.473-0.92,8.327c-0.922,7.38-1.855,9.234-7.394,8.313h-11.076c-11.089-1.854-23.099-2.775-34.201-3.696
		c-3.696,0-6.459,0-9.234-0.921c-4.617,0-6.472-1.854-6.472-4.617s0.921-7.38,1.854-14.785
		c9.247-90.556,18.482-180.189,27.729-270.744C874.824,1776.715,870.207,1774.86,891.464,1776.715L891.464,1776.715z"/>
	<path fill="#F4EB92" d="M631.796,1771.177l93.331-6.484c4.617,0,12.943,4.617,14.785,9.247l19.402,42.502l-1.854-38.806
		c-0.921-7.393,6.472-14.785,13.865-15.706l60.983-3.697c7.393-0.92,15.706,6.459,15.706,13.853l18.482,315.101
		c0,8.326-6.472,15.719-14.786,16.64l-90.567,5.538c-4.604,0-12.931-4.617-14.785-9.234l-12.944-27.729l1.854,23.1
		c0,8.326-7.405,15.706-14.785,16.627l-68.377,4.617c-7.393,0-15.706-7.393-16.627-14.786l-17.562-315.113
		C617.023,1779.478,624.403,1771.177,631.796,1771.177L631.796,1771.177z"/>
	<path fill="#CD303C" d="M644.727,1785.029c22.179-0.935,43.437-2.776,65.614-3.697c16.641-0.921,15.706-1.854,22.179,13.852
		c12.931,26.796,21.257,43.437,33.268,71.152c12.01,25.875,12.01,15.706,11.089-7.393l-3.696-67.456
		c-0.921-15.706-1.842-13.852,13.852-14.772l30.492-2.789c20.323-0.92,15.706,1.855,16.64,22.191
		c5.538,87.779,10.155,176.479,15.706,265.193c0.922,24.033,7.381,26.782-17.561,28.637c-16.641,0.921-33.268,1.855-48.974,2.775
		c-24.954,1.855-22.179,1.855-33.268-21.257c-8.497-18.088-16.815-36.26-24.954-54.513c-12.01-25.874-11.089-8.326-9.234,23.1
		c0.921,19.402,1.854,14.785,2.775,34.188c0.921,20.323,5.538,22.179-15.706,23.099c-12.01,0.922-24.94,1.855-36.964,2.776
		c-18.482,0.921-14.785,0.921-15.706-17.562l-16.628-281.833C632.73,1786.857,629.954,1785.937,644.727,1785.029L644.727,1785.029z"
		/>
	<path fill="#F4EB92" d="M539.399,1763.759h0.921c11.089,0,22.165,1.867,33.255,4.617c10.168,2.788,20.336,7.393,30.491,12.943
		c48.054,29.571,82.242,89.634,84.097,159.853v3.709c0,47.119-15.707,90.542-40.66,121.955
		c-25.862,31.426-61.905,51.749-101.645,52.684h-1.842c-11.312-0.04-22.542-1.915-33.254-5.552
		c-10.747-2.782-21.021-7.14-30.492-12.931c-48.974-28.65-83.175-89.634-84.083-159.865v-2.775
		c0-48.04,15.706-90.542,40.647-121.968c25.888-32.347,60.983-52.684,100.735-52.684L539.399,1763.759L539.399,1763.759z
		 M556.027,1909.771l-16.628-51.749l-15.72,51.749c-0.92,1.855-4.617,4.617-6.472,4.617h-53.591l43.423,32.334
		c1.854,0.921,2.775,5.551,1.854,7.38l-16.627,51.749l43.423-31.412c1.854-1.855,6.472-1.855,8.313,0l42.515,31.412l-16.64-51.749
		c0-1.842,0.92-6.459,2.775-7.38l43.436-32.334h-53.591C559.723,1914.389,556.961,1911.627,556.027,1909.771L556.027,1909.771z
		 M1840.436,1766.534l92.41-6.459c5.551,0,12.943,4.604,14.798,9.234l20.337,43.448l-2.789-38.818
		c0-8.313,7.393-15.706,14.799-16.627l60.063-3.696c7.394-0.921,15.707,6.472,16.615,14.785l17.561,314.192
		c0.934,8.314-6.459,15.707-13.852,16.628l-90.555,5.538c-5.551,0.934-12.918-4.604-14.772-8.314l-12.944-28.649l0.934,24.032
		c0.908,7.394-6.484,14.786-13.852,15.707l-69.336,4.617c-7.367,0-15.706-7.393-15.706-14.785l-18.469-315.101
		C1825.677,1774.86,1832.135,1766.534,1840.436,1766.534L1840.436,1766.534z"/>
	<path fill="#CD303C" d="M1852.472,1781.332c22.165-1.854,44.356-2.775,66.521-4.604c16.641-0.935,14.799-1.868,22.191,13.852
		c12.01,27.716,20.311,44.356,33.255,71.139c12.01,25.875,11.089,15.707,10.155-7.38l-2.763-67.469
		c-0.934-15.693-2.789-13.852,12.918-14.785c10.182-0.908,21.258-1.854,31.438-1.854c20.311-1.855,14.772,1.854,16.614,21.258
		c4.631,88.713,10.155,176.492,14.799,265.205c1.854,24.954,7.393,26.783-17.562,28.65c-15.706,0.908-32.347,1.842-48.96,2.763
		c-24.954,1.854-22.191,1.854-32.348-20.324c-8.339-18.481-16.64-36.964-25.887-54.512c-12.01-26.796-10.156-9.247-8.314,22.179
		c0.908,19.402,0.908,15.706,1.855,34.188c0.934,21.258,6.459,22.179-15.707,24.033c-12.01,0-24.02,0.921-36.043,1.855
		c-18.469,0.92-15.706,0.92-16.614-17.562c-5.551-94.251-11.089-187.569-15.732-281.82
		C1841.383,1782.253,1838.594,1782.253,1852.472,1781.332z"/>
	<path fill="#F4EB92" d="M1739.752,1763.759c11.24,0.057,22.423,1.609,33.254,4.617c10.742,2.786,21.014,7.148,30.479,12.943
		c48.987,29.571,83.188,89.634,84.096,159.853v3.709c0,47.119-15.706,90.542-40.66,121.955
		c-24.953,31.426-60.996,51.749-100.723,52.684h-1.854h-0.935c-11.014,0.035-21.949-1.843-32.32-5.552
		c-10.751-2.779-21.031-7.138-30.505-12.931c-48.987-28.65-83.162-89.634-84.097-159.865v-2.775
		c0-48.04,14.799-90.542,40.661-121.968c24.954-32.347,60.997-52.684,100.749-52.684L1739.752,1763.759L1739.752,1763.759z
		 M1756.365,1909.771l-16.613-51.749l-16.641,51.749c-0.934,1.855-3.697,4.617-6.459,4.617h-53.604l43.422,32.334
		c1.855,0.921,3.697,5.551,2.789,7.38l-16.641,51.749l42.502-31.412c2.788-1.855,6.459-1.855,8.313,0l43.449,31.412l-16.641-51.749
		c-0.907-1.842,0.935-6.459,2.788-7.38l43.424-32.334h-53.604C1760.063,1914.389,1756.365,1911.627,1756.365,1909.771z"/>
	<path fill="#CD303C" d="M540.32,1781.332h-0.921c-0.934,0-0.934,0-1.854,0.921c-33.268,0-64.681,17.562-86.858,45.277
		c-22.179,28.65-36.043,67.443-36.043,110.879v2.775c0.934,63.772,31.426,118.284,74.849,144.159
		c8.313,4.604,17.548,9.234,25.861,12.01c9.248,1.854,18.495,3.696,28.65,3.696h1.842c34.201-0.921,64.68-18.481,86.858-46.198
		c23.099-27.729,36.964-67.455,36.964-109.957v-3.71c-0.921-62.838-31.413-118.271-75.77-144.146
		c-8.195-4.627-16.872-8.346-25.875-11.089C558.803,1783.174,549.568,1782.254,540.32,1781.332L540.32,1781.332z M545.858,1833.082
		l21.258,67.442h69.31c6.473,0,9.235,8.327,3.697,12.023l-55.446,41.567l21.271,68.39c1.842,5.538-5.551,11.076-10.168,7.38
		l-56.367-41.581l-55.445,41.581c-4.617,3.696-12.931-1.854-11.076-7.38l22.165-68.39l-56.366-41.567
		c-4.617-3.696-1.854-12.023,3.696-12.023h69.311l21.244-67.442C534.77,1827.531,544.017,1827.531,545.858,1833.082z
		 M1739.752,1781.332c-0.935,0-0.935,0-1.855,0.921c-34.201,0-64.693,17.562-86.885,45.277
		c-23.099,28.65-36.963,67.443-36.963,110.879v2.775c0.934,63.772,32.346,118.284,75.77,144.159
		c8.339,4.604,16.64,9.234,25.887,12.01c9.248,1.854,18.495,3.696,28.65,3.696h1.855c34.175-0.921,64.667-18.481,86.857-46.198
		c22.166-27.729,36.018-67.455,36.018-109.957v-3.71c-0.908-62.838-31.413-118.271-74.836-144.146
		c-8.202-4.622-16.883-8.341-25.888-11.089C1759.154,1783.174,1749.906,1782.254,1739.752,1781.332L1739.752,1781.332z
		 M1746.211,1833.082l21.257,67.442h69.311c5.524,0,8.313,8.327,3.671,12.023l-56.367,41.567l22.191,68.39
		c1.854,5.538-5.551,11.076-11.089,7.38l-55.42-41.581l-56.393,41.581c-4.604,3.696-12.01-1.854-10.155-7.38l21.258-68.39
		l-55.446-41.567c-5.551-3.696-2.763-12.023,3.696-12.023h69.284l21.258-67.442
		C1735.108,1827.531,1744.355,1827.531,1746.211,1833.082z"/>
	<path fill="#F4EB92" d="M212.289,1827.53c-1.854-24.953-2.775-38.806,2.775-48.974c6.472-11.089,17.562-13.864,40.66-14.799
		l56.367-1.842c10.168,0,20.324,0.921,30.492,3.697c10.168,1.842,19.403,6.459,28.65,11.089
		c45.277,25.861,78.545,85.004,83.175,165.391v6.472c2.763,54.524-12.943,94.264-36.043,121.968
		c-23.099,27.729-53.591,41.581-81.32,43.436h-2.763l-60.997,1.854c-21.258,0.921-33.255-5.551-39.727-13.852
		c-6.472-8.326-6.472-18.494-7.393-25.875c-2.776-51.736-5.538-95.185-8.327-142.304
		C215.784,1898.383,213.934,1862.962,212.289,1827.53L212.289,1827.53z M311.158,1887.594v8.313l2.775,45.277l3.696,60.063h14.786
		v-0.921v0.921l0.934-0.921h0.921c2.763-1.855,6.459-4.604,9.235-10.155c0-0.922,0.92-2.776,0.92-3.697
		c0.921-1.854,1.842-2.775,1.842-4.617c2.776-8.313,3.696-19.402,3.696-33.254v-0.921c0,0-0.92,0-0.92-0.921v-0.921
		c0-4.617,0-8.327-0.921-11.089c0-4.604-0.921-7.38-1.855-11.076c-2.762-16.628-8.313-28.65-14.785-34.188h-0.921v-0.921h-0.921
		c-0.921-0.921-1.842-0.921-2.775-1.854h-0.921h-1.855L311.158,1887.594L311.158,1887.594z"/>
	<path fill="#CD303C" d="M231.692,1787.791c-3.696,5.564-2.775,17.562-1.854,38.806c2.775,39.739,4.617,73.928,6.472,106.274
		c2.775,47.132,5.551,90.542,8.313,142.305c0,4.617,0.921,12.01,3.697,15.706c3.696,4.617,10.168,7.393,24.94,6.472l60.997-1.854
		h1.854c23.099-0.921,48.974-12.931,68.377-36.978c20.323-24.02,34.188-60.063,32.333-109.023c0-1.854-0.921-3.696-0.921-6.472
		c-3.696-73.915-34.188-127.506-73.927-150.604c-7.393-3.697-15.707-7.394-24.02-9.248s-16.64-2.775-24.954-2.775l-57.288,1.854
		C240.926,1783.174,233.534,1784.095,231.692,1787.791z M292.676,1885.752c0-3.696,0-6.472,0.921-8.326
		c0.887-3.651,3.74-6.5,7.393-7.38c1.854-0.921,4.617-0.921,7.393-0.921l14.773-0.921c2.775,0,5.551,0,7.393,0.921h1.842
		l0.934,0.921h0.921c1.855,0.921,4.617,1.854,6.459,3.696l0.921,0.908c0.921,0,0.921,0.934,1.855,0.934
		c9.234,8.313,16.627,23.086,21.257,44.344c0.92,3.696,0.92,7.393,1.854,12.022c0.921,4.604,0.921,9.235,0.921,12.944v2.762
		c0,0,0-0.92,0,0c0.921,15.707-0.921,29.571-3.696,39.727c-0.921,1.855-0.921,3.697-1.855,5.551l-2.762,5.539
		c-4.618,9.247-10.168,14.798-16.64,18.494c-0.921,0-2.763,0.908-3.697,0.908c-1.854,0.934-2.762,0.934-4.617,0.934h-0.92
		l-16.641,0.908c-3.696,0.921-6.472,0-9.234-0.908c-2.763-1.854-4.617-3.696-5.551-6.472c-0.921-1.854-1.842-4.617-1.842-6.472
		c-0.921-1.854-0.921-2.763-0.921-3.684l-3.696-60.076l-2.776-44.356L292.676,1885.752L292.676,1885.752z"/>
	<path fill="#F4EB92" d="M1476.374,1773.006l35.109-0.921h12.944c6.459,0.921,11.089,2.775,14.798,7.393
		c3.696,4.604,4.604,8.313,5.552,13.865v12.01l1.854,46.198l21.232-52.684c0.934-3.696,0.934-5.538,1.854-7.393
		c6.485-16.627,7.393-21.258,31.438-22.179l39.713-0.921c22.191-0.92,28.65,8.34,26.796,27.742
		c-1.854,9.235-6.459,21.245-12.943,36.965l-44.356,102.552c-2.763,5.551,0-0.921-0.908,2.775c-0.934,1.854-0.934,1.854,0,3.696
		l71.152,128.439c5.551,9.248,8.313,14.799,9.221,20.324c0.935,13.852-4.604,19.402-18.469,21.257
		c-3.696,0.921-7.393,0.921-13.852,0.921h-4.63l-29.558,0.921c-24.955,0.921-25.862,0-35.109-19.402
		c0-0.921-0.934-1.854-2.763-4.617l-32.347-61.905l2.762,55.434v8.313c0.935,6.472,0,11.089-2.762,15.706
		c-3.697,5.551-8.314,8.326-16.641,9.248H1525.4l-35.136,1.854c-1.854,0,2.788-0.921-5.524,0h-4.631
		c-4.604-0.921-8.313-0.921-11.089-2.776c-6.459-3.696-9.222-7.393-10.155-13.852c-0.908-2.775-0.908-6.472-0.908-11.089
		c-0.934-1.854-0.934-4.617-0.934-7.393c-1.854-57.288-4.604-114.575-6.459-170.941l-3.696-100.724c0-1.854-0.908-5.551-0.908-8.326
		C1443.119,1776.715,1443.119,1773.927,1476.374,1773.006L1476.374,1773.006z"/>
	<path fill="#CD303C" d="M1477.309,1788.725c12.01-0.934,24.02-0.934,35.108-1.867h11.089c4.605,0.921,5.525,2.788,5.525,7.406
		v12.01c0.934,22.178,1.855,45.277,2.789,68.363c0.908,17.561,12.01,26.795,22.165-0.908l27.742-69.311
		c6.459-15.706,3.696-19.402,20.311-20.336c12.944,0,25.862,0,39.739-0.908c17.562,0,11.076,13.852-1.854,43.423
		c-16.64,38.818-27.742,65.627-43.448,102.578c-4.604,10.155-5.551,10.155,0,20.323c23.099,42.502,47.145,85.017,71.152,127.519
		c8.313,14.786,9.247,18.482,0.934,20.324h-16.641c-11.089,0.921-20.336,0.921-29.558,1.854c-17.562,0-15.706-0.921-23.1-15.72
		c-14.798-28.637-29.584-57.287-44.356-85.925c-6.484-12.943-18.494-13.864-17.561,9.235c0.908,25.874,1.854,50.828,2.762,76.689
		c0,3.696,0.935,6.472,0.935,9.248c0,6.472-0.935,8.326-6.485,8.326c-1.854,0.921-5.551,0.921-10.155,0.921
		c-12.01,0-23.099,0.921-35.108,0.921h-9.248c-4.604,0-6.459-0.921-6.459-3.696c-0.934-2.775-0.934-7.393-0.934-15.72
		c-3.696-90.542-7.367-181.109-11.09-271.651C1460.668,1790.58,1456.063,1788.725,1477.309,1788.725L1477.309,1788.725z"/>
</g>
</svg>
