<?xml version="1.0" encoding="utf-8"?>
<!-- Generator: Adobe Illustrator 16.0.0, SVG Export Plug-In . SVG Version: 6.00 Build 0)  -->
<!DOCTYPE svg PUBLIC "-//W3C//DTD SVG 1.1//EN" "http://www.w3.org/Graphics/SVG/1.1/DTD/svg11.dtd">
<svg version="1.1"
	 id="svg4" xmlns:rdf="http://www.w3.org/1999/02/22-rdf-syntax-ns#" xmlns:svg="http://www.w3.org/2000/svg" xmlns:cc="http://creativecommons.org/ns#" xmlns:dc="http://purl.org/dc/elements/1.1/"
	 xmlns="http://www.w3.org/2000/svg" xmlns:xlink="http://www.w3.org/1999/xlink" x="0px" y="0px" width="557.135px"
	 height="168.976px" viewBox="24.385 33.231 557.135 168.976" enable-background="new 24.385 33.231 557.135 168.976"
	 xml:space="preserve">
<path id="path2" fill="#1B1918" d="M184.9,184.958h-0.299v-0.475h0.299V184.958z M109.283,33.231
	c29.342,0,55.288,14.948,70.547,37.582c-13.559-15.487-33.729-25.337-56.192-25.337c-40.661,0-73.825,32.27-73.825,71.836
	c0,39.565,33.164,71.834,73.825,71.834c23.729,0,44.9-10.995,58.422-28.013c-14.875,24.575-41.951,41.074-72.777,41.074
	c-46.758,0-84.898-37.954-84.898-84.488C24.385,71.186,62.524,33.231,109.283,33.231L109.283,33.231z M107.813,149.906
	c-2.192,2.204-4.974,5.195-8.347,8.919c-3.372,3.751-6.069,6.873-8.093,9.392c-4.954-4.512-8.115-8.473-9.548-11.884
	c-1.412-3.41-2.129-8.788-2.129-16.186v-19.203c0-6.008,0.695-10.126,2.107-12.409c1.391-2.282,4.743-4.774,10.075-7.502
	c4.637-2.414,8.009-4.303,10.096-5.719c2.087-1.417,5.143-3.909,9.168-7.503c3.204,4.354,6.302,7.739,9.274,10.152
	c2.951,2.414,6.871,4.749,11.719,6.978v1.023c-2.761,0.604-4.49,1.233-5.186,1.915c-0.737,0.813-1.202,1.994-1.349,3.568
	c-0.168,1.574-0.295,6.165-0.379,13.799v14.9c0,4.041,0.464,7.241,1.413,9.602c0.905,2.309,2.043,3.463,3.414,3.463
	c0.738,0,1.939-0.708,3.625-2.151l0.632,0.917c-0.463,0.525-1.96,1.994-4.51,4.381c-5.691,5.902-9.232,9.837-10.623,11.857
	C112.134,162.865,108.341,156.779,107.813,149.906z M107.813,109.795c-3.33-2.309-6.576-5.903-9.716-10.756l-0.549,0.315v38.642
	c0,5.378,0.296,9.287,0.864,11.752c0.211,0.918,0.612,1.731,1.202,2.387c0.611,0.656,1.201,0.997,1.833,0.997
	c0.906,0,3.036-1.784,6.365-5.378v-1.994v-2.833v-3.698V109.795z M165.536,119.269l15.042,8.096v28.04
	c-3.638,0.364-6.944,1.273-9.873,2.729c-2.95,1.456-6.301,3.957-10.006,7.459c-3.218-1.956-6.013-3.32-8.364-4.071
	c-2.374-0.75-4.859-1.137-7.521-1.137c-4.06,0-7.676,1.273-10.849,3.798c-1.176,0.933-2.019,1.41-2.529,1.41
	c-0.489,0-0.954-0.25-1.442-0.728c-0.466-0.5-0.71-0.978-0.71-1.479c0-0.523,0.466-1.25,1.375-2.137
	c0.511-0.523,1.397-1.546,2.663-3.07l5.901-7.527l8.365-11.416l-14.199-7.846v-24.856c4.459-1.41,7.964-3.002,10.494-4.753
	c2.53-1.751,4.97-4.162,7.322-7.232c5.546,2.41,10.005,4.093,13.378,5.071c2.44,0.66,4.747,1.001,6.966,1.001
	c2.418,0,4.304-0.546,5.657-1.637c1.354-1.092,2.02-2.229,2.02-3.434c0-0.796-0.444-1.592-1.31-2.388
	c-1.686-1.569-2.529-3.07-2.529-4.548c0-1.365,0.378-2.479,1.11-3.297s1.553-1.228,2.462-1.228c1.22,0,2.308,0.568,3.284,1.706
	c0.976,1.137,1.464,2.638,1.464,4.502c0,1.91-0.399,3.775-1.176,5.594c-0.776,1.82-2.263,4.185-4.481,7.073L165.536,119.269z
	 M146.523,123.863l8.897,4.73l14.154-19.307c-2.884,0.841-5.413,1.273-7.521,1.273c-5.324,0-10.516-1.819-15.53-5.458V123.863z
	 M157.705,129.935l-15.663,21.513c1.907-0.659,3.683-1.16,5.324-1.455c1.642-0.318,3.128-0.478,4.482-0.478
	c4.991,0,10.16,1.683,15.53,5.071v-19.307L157.705,129.935z M218.992,111.802h-12.857v32.4c0,2.502,0.464,4.431,1.413,5.789
	s2.297,2.025,4.026,2.025c1.896,0,4.257-1.286,7.102-3.835l0.696,1.238c-7.124,5.599-13.974,11.864-20.528,18.796
	c-1.434-2.858-3.731-5.693-6.872-8.528c-3.14-2.835-6.344-4.956-9.59-6.361v-1.238l1.054,0.119c0.526,0.095,0.969,0.143,1.286,0.143
	c2.845,0,4.257-2.121,4.257-6.337v-34.21h-7.904v-1.191c5.438-3.431,10.011-8.076,13.764-13.889
	c3.751-5.813,7.292-13.77,10.623-23.918h1.349c0,0.929-0.105,3.812-0.295,8.647c-0.042,1.025-0.169,5.956-0.38,14.794v6.623h12.857
	V111.802z M254.823,65.889v1.218c-3.836,0.536-6.387,1.462-7.672,2.778c-1.074,1.194-1.834,2.656-2.297,4.411
	c-0.442,1.73-0.674,4.045-0.674,6.945v61.485c0,6.409,1.539,9.626,4.637,9.626c1.455,0,3.457-1,6.007-2.998l0.674,1.438
	c-8.557,6.507-15.027,12.332-19.412,17.425c-5.016-7.92-10.454-13.232-16.292-16.011l0.443-1.414
	c1.18,0.561,2.128,0.854,2.824,0.854c1.201,0,2.002-0.536,2.381-1.609c0.4-1.072,0.59-3.216,0.59-6.458V96.033
	c-0.042-10.479-2.15-19.349-6.302-26.636l1.117-0.585c2.677,4.825,4.405,9.431,5.185,13.867
	C230.647,71.786,240.237,66.181,254.823,65.889z M287.723,85.817l13.405,26.522l-27.105,21.118c1.181,4.355,3.183,8.054,5.986,11.07
	c3.373,3.699,6.893,5.536,10.56,5.536c3.583,0,7.419-1.836,11.55-5.536l0.548,1.233c-1.349,1.128-4.046,3.489-8.093,7.083
	c-6.26,5.588-9.969,8.946-11.17,10.126c-1.201,1.18-2.782,2.938-4.763,5.247c-8.052-4.46-13.616-9.155-16.671-14.087
	c-1.729-2.86-2.973-6.952-3.752-12.251s-1.18-12.566-1.18-21.773c0-4.775,0.337-8.579,0.991-11.385
	c0.653-2.807,1.771-5.116,3.33-6.926c1.371-1.574,2.782-2.859,4.299-3.804c1.497-0.945,6.112-3.437,13.848-7.477L287.723,85.817z
	 M274.023,96.258c-0.379,4.46-0.569,13.039-0.569,25.762c0,1.443,0.084,4.434,0.252,8.998l11.971-9.313L274.023,96.258z
	 M308.515,105.099c-4.869-2.859-7.292-7.502-7.292-13.904c0-4.774,1.475-8.867,4.447-12.303c3.12-3.646,7.314-5.457,12.583-5.457
	c1.076,0,2.383,0.131,3.9,0.394v1.679c-1.688-0.236-3.141-0.367-4.385-0.367c-2.234,0-3.963,0.472-5.228,1.417
	c-1.243,0.944-1.875,2.256-1.875,3.882c0,1.128,0.273,1.941,0.801,2.414c0.548,0.498,1.918,1.233,4.151,2.204
	c3.857,1.626,6.429,3.594,7.65,5.876c1.244,2.282,1.918,6.295,2.045,12.015c1.308-1.286,3.984-3.594,8.031-6.978l6.976-5.929
	c2.34-1.994,3.815-3.306,4.447-3.909c1.032,1.574,2.149,3.069,3.394,4.46c2.592,2.964,4.236,5.562,4.932,7.765
	c0.695,2.203,1.054,5.929,1.054,11.201v25.683c0,5.824-0.569,9.785-1.728,11.858c-1.16,2.099-3.773,3.804-7.841,5.194
	c-4.532,1.548-8.6,3.699-12.226,6.506c-3.625,2.781-6.49,5.929-8.598,9.418c-7.693-9.392-14.986-15.53-21.899-18.468v-0.839
	c0.695-0.21,1.159-0.314,1.412-0.368c2.171-0.629,3.604-1.416,4.258-2.387s0.99-2.807,0.99-5.457V105.099z M325.313,142.298
	c3.583,3.279,7.081,7.319,10.496,12.067v-44.807c0-6.007-1.308-8.998-3.899-8.998c-0.906,0-1.961,0.499-3.204,1.469l-3.393,2.703
	V142.298z M384.53,149.906c-2.192,2.204-4.975,5.194-8.347,8.919c-3.372,3.751-6.07,6.873-8.094,9.392
	c-4.953-4.512-8.114-8.473-9.548-11.884c-1.412-3.41-2.128-8.788-2.128-16.186v-19.203c0-6.008,0.695-10.126,2.107-12.409
	c1.391-2.282,4.742-4.774,10.074-7.502c4.637-2.414,8.009-4.303,10.096-5.719c2.087-1.417,5.143-3.909,9.168-7.503
	c3.204,4.354,6.303,7.739,9.274,10.152c2.95,2.414,6.871,4.749,11.719,6.978v1.023c-2.761,0.604-4.489,1.233-5.186,1.915
	c-0.737,0.813-1.201,1.994-1.349,3.568c-0.168,1.574-0.295,6.165-0.379,13.799v14.9c0,4.041,0.463,7.241,1.412,9.602
	c0.906,2.309,2.044,3.463,3.414,3.463c0.737,0,1.939-0.708,3.625-2.151l0.633,0.917c-0.464,0.525-1.961,1.994-4.51,4.381
	c-5.691,5.902-9.232,9.837-10.623,11.857C388.851,162.865,385.057,156.779,384.53,149.906L384.53,149.906z M384.53,109.795
	c-3.33-2.309-6.576-5.902-9.716-10.756l-0.549,0.315v38.642c0,5.378,0.295,9.287,0.863,11.752c0.212,0.918,0.612,1.731,1.202,2.387
	c0.611,0.656,1.201,0.997,1.834,0.997c0.905,0,3.035-1.784,6.365-5.378v-1.994v-2.833v-3.699V109.795z M436.862,104.496
	l18.928-18.442c1.644,3.279,3.815,6.322,6.534,9.128c2.718,2.833,5.543,4.984,8.515,6.454v1.391
	c-3.709-0.21-5.648,1.312-5.859,4.538v36.36c0,2.046,0.4,3.778,1.181,5.168c0.779,1.417,1.749,2.125,2.887,2.125
	c0.611,0,1.918-0.683,3.899-2.072l0.611,1.39c-0.779,0.709-2.824,2.65-6.112,5.824c-4.616,4.354-8.494,8.316-11.655,11.857
	c-3.752-2.991-6.218-5.797-7.419-8.473c-1.201-2.649-1.791-6.637-1.791-11.91v-37.881c0-3.017-0.254-5.063-0.738-6.138
	c-0.506-1.075-1.454-1.627-2.846-1.627c-1.243,0-2.466,0.656-3.667,1.995l-2.467,2.702v38.563c0,2.676,0.338,4.564,1.013,5.667
	c0.695,1.102,1.96,1.862,3.814,2.256v0.997c-4.974,2.046-10.033,6.664-15.133,13.852c-4.615-7.582-9.273-12.33-14.016-14.218v-1.312
	c2.508-0.105,4.151-0.709,4.91-1.811s1.139-3.411,1.139-6.952v-32.058c0-3.017-0.4-5.377-1.202-7.057
	c-0.801-1.705-1.896-2.544-3.309-2.544c-1.223,0-2.593,0.734-4.067,2.229l-0.928-1.391l1.054-1.076
	c8.515-8.709,13.468-14.035,14.88-15.976C432.016,90.303,435.957,96.442,436.862,104.496z M489.112,87.287
	c0.611,0.708,1.201,1.417,1.792,2.152c5.1,6.401,9.759,10.572,13.953,12.513v1.233c-2.34,0.577-3.941,1.102-4.764,1.626
	c-0.822,0.499-1.412,1.285-1.791,2.361c-0.485,1.705-0.738,7.057-0.738,16.081c0,12.094,0.316,19.885,0.928,23.348
	c0.568,3.279,1.896,4.932,3.962,4.932c1.097,0,2.614-0.918,4.511-2.781l0.801,1.232c-0.822,0.918-2.655,2.781-5.501,5.536
	c-6.049,6.06-10.116,10.283-12.162,12.697c-4.089-3.594-6.786-6.874-8.093-9.838c-1.328-2.99-1.981-7.24-1.981-12.775v-35.336
	c0-4.723-1.096-7.083-3.267-7.083c-0.59,0-1.012,0.104-1.307,0.314c-0.274,0.21-1.012,0.944-2.15,2.23l-0.863-1.312
	c1.307-1.496,5.332-5.64,12.034-12.461C486.689,89.752,488.249,88.205,489.112,87.287z M484.096,82.04
	c-2.339-5.116-3.52-9.103-3.52-11.989c0-3.174,0.801-5.692,2.402-7.607c1.623-1.889,3.773-2.833,6.493-2.833
	c2.402,0,4.404,0.971,6.069,2.912c1.644,1.967,2.466,4.329,2.466,7.162c0,4.092-1.833,7.266-5.501,9.522
	c-1.518,0.971-3.267,1.705-5.248,2.229C485.234,81.962,484.181,82.145,484.096,82.04L484.096,82.04z M538.959,149.906
	c-2.192,2.204-4.975,5.194-8.348,8.919c-3.371,3.751-6.068,6.873-8.092,9.392c-4.954-4.512-8.115-8.473-9.549-11.884
	c-1.412-3.41-2.129-8.788-2.129-16.186v-19.203c0-6.008,0.695-10.126,2.107-12.409c1.392-2.282,4.743-4.774,10.075-7.502
	c4.638-2.414,8.009-4.303,10.096-5.719c2.087-1.417,5.143-3.909,9.169-7.503c3.203,4.354,6.302,7.739,9.273,10.152
	c2.95,2.414,6.871,4.749,11.719,6.978v1.023c-2.761,0.604-4.489,1.233-5.186,1.915c-0.736,0.813-1.201,1.994-1.349,3.568
	c-0.168,1.574-0.295,6.165-0.38,13.799v14.9c0,4.041,0.465,7.241,1.413,9.602c0.906,2.309,2.044,3.463,3.414,3.463
	c0.737,0,1.938-0.708,3.625-2.151l0.633,0.917c-0.464,0.525-1.96,1.994-4.511,4.381c-5.69,5.902-9.231,9.837-10.623,11.857
	C543.279,162.865,539.485,156.779,538.959,149.906z M538.959,109.795c-3.33-2.309-6.576-5.902-9.717-10.756l-0.548,0.315v38.642
	c0,5.378,0.295,9.287,0.864,11.752c0.211,0.918,0.611,1.731,1.201,2.387c0.611,0.656,1.201,0.997,1.834,0.997
	c0.906,0,3.035-1.784,6.365-5.378v-1.994v-2.833v-3.699V109.795z M581.52,156.014c0,1.949-0.686,3.613-2.063,4.992
	c-1.376,1.382-3.039,2.071-4.989,2.071c-1.948,0-3.612-0.689-4.994-2.071c-1.379-1.379-2.068-3.042-2.068-4.992
	c0-1.953,0.689-3.616,2.068-4.995c1.382-1.379,3.046-2.068,4.994-2.068c1.95,0,3.613,0.689,4.989,2.068
	C580.834,152.398,581.52,154.062,581.52,156.014z M580.735,156.014c0-1.732-0.611-3.212-1.837-4.438
	c-1.223-1.226-2.703-1.841-4.441-1.841c-1.731,0-3.209,0.615-4.432,1.841c-1.222,1.226-1.837,2.706-1.837,4.438
	c0,1.728,0.615,3.208,1.837,4.435c1.223,1.229,2.7,1.84,4.432,1.84c1.738,0,3.219-0.611,4.441-1.84
	C580.124,159.223,580.735,157.742,580.735,156.014z M571.843,151.963h2.954c1.066,0,1.833,0.196,2.299,0.587
	c0.461,0.39,0.696,0.879,0.696,1.463c0,0.615-0.245,1.134-0.728,1.551c-0.353,0.299-0.865,0.496-1.541,0.598
	c0.306,0.146,0.52,0.275,0.645,0.387c0.126,0.112,0.323,0.35,0.588,0.716c0.266,0.363,0.469,0.669,0.608,0.913l0.774,1.385h-1.213
	l-0.736-1.256c-0.564-0.975-0.995-1.559-1.287-1.749c-0.296-0.194-0.777-0.289-1.45-0.289h-0.625v3.293h-0.984V151.963z
	 M572.827,152.771v2.646h0.965c1.06,0,1.762-0.054,2.108-0.16c0.252-0.071,0.458-0.221,0.621-0.448
	c0.163-0.225,0.245-0.462,0.245-0.706c0-0.364-0.14-0.679-0.415-0.941c-0.275-0.261-0.968-0.391-2.081-0.391H572.827z"/>
</svg>
