<?xml version="1.0" encoding="utf-8"?>
<!-- Generator: Adobe Illustrator 12.0.0, SVG Export Plug-In . SVG Version: 6.00 Build 51448)  -->
<!DOCTYPE svg PUBLIC "-//W3C//DTD SVG 1.1//EN" "http://www.w3.org/Graphics/SVG/1.1/DTD/svg11.dtd" [
	<!ENTITY ns_svg "http://www.w3.org/2000/svg">
	<!ENTITY ns_xlink "http://www.w3.org/1999/xlink">
]>
<svg  version="1.1" id="Layer_1" xmlns="&ns_svg;" xmlns:xlink="&ns_xlink;" width="340.66" height="261.869"
	 viewBox="0 0 340.66 261.869" overflow="visible" enable-background="new 0 0 340.66 261.869" xml:space="preserve">
<path fill="#FFFFFF" d="M170.15,34.354c76.02,0,137.65,42.93,137.65,95.87c0,52.95-61.63,95.88-137.65,95.88
	S32.5,183.175,32.5,130.225C32.5,77.285,94.13,34.354,170.15,34.354z"/>
<g>
	<g>
		<path fill="#A58252" d="M140.531,186.856h4.25v0.224c0,1.331,0.414,2.346,1.244,3.043c0.828,0.696,2.035,1.046,3.619,1.046
			c1.223,0,2.164-0.253,2.828-0.757c0.664-0.506,0.996-1.222,0.996-2.146c0-0.775-0.219-1.349-0.654-1.716
			c-0.434-0.366-1.314-0.646-2.637-0.837l-2.951-0.413c-2.16-0.317-3.748-1.012-4.766-2.084c-1.016-1.069-1.523-2.582-1.523-4.532
			c0-2.313,0.732-4.194,2.199-5.647c1.465-1.453,3.406-2.181,5.822-2.181c2.594,0,4.625,0.687,6.09,2.057
			c1.467,1.371,2.201,3.247,2.201,5.627v0.191h-4.156c-0.098-1.183-0.484-2.065-1.162-2.651c-0.676-0.586-1.646-0.879-2.91-0.879
			c-1.166,0-2.07,0.237-2.715,0.71c-0.643,0.473-0.963,1.14-0.963,2.001c0,0.69,0.188,1.196,0.566,1.515
			c0.377,0.319,1.307,0.596,2.787,0.829l3.084,0.46c2.137,0.33,3.707,1.053,4.711,2.172c1.004,1.119,1.508,2.697,1.508,4.732
			c0,2.621-0.754,4.611-2.26,5.975c-1.506,1.364-3.707,2.045-6.605,2.045c-2.764,0-4.889-0.718-6.375-2.151
			c-1.486-1.435-2.229-3.479-2.229-6.136v-0.496H140.531z"/>
		<path fill="#A58252" d="M174.637,189.294c-0.511,2.023-1.396,3.587-2.656,4.689c-1.259,1.103-2.794,1.654-4.602,1.654
			c-2.297,0-4.113-0.848-5.453-2.539c-1.338-1.692-2.008-3.986-2.008-6.885c0-2.896,0.668-5.186,2.004-6.867
			c1.336-1.681,3.156-2.521,5.459-2.521c2.395,0,4.238,0.872,5.533,2.615c1.295,1.744,1.941,4.228,1.941,7.449v0.748H164.23
			c0.023,1.288,0.318,2.313,0.887,3.075c0.569,0.763,1.318,1.144,2.252,1.144c0.73,0,1.357-0.224,1.885-0.67
			c0.527-0.444,0.906-1.076,1.141-1.894L174.637,189.294L174.637,189.294z M164.355,183.981l6.219,0.017
			c-0.068-1.093-0.379-1.951-0.936-2.578c-0.555-0.625-1.279-0.938-2.174-0.938c-0.887,0-1.609,0.315-2.168,0.946
			C164.736,182.06,164.424,182.91,164.355,183.981z"/>
		<path fill="#A58252" d="M191.16,192.188c0,0.688,0.045,1.213,0.137,1.578s0.244,0.648,0.457,0.85v0.396h-4.244l-0.191-1.92
			c-0.668,0.87-1.422,1.511-2.262,1.925s-1.813,0.62-2.914,0.62c-1.711,0-3.057-0.524-4.039-1.575
			c-0.981-1.051-1.475-2.473-1.475-4.266c0-1.665,0.443-2.909,1.328-3.73c0.885-0.822,2.404-1.36,4.557-1.615
			c0.285-0.031,0.682-0.068,1.193-0.11c2.475-0.244,3.713-0.921,3.713-2.03c0-0.666-0.238-1.164-0.715-1.492
			c-0.477-0.327-1.189-0.491-2.141-0.491c-0.959,0-1.664,0.233-2.113,0.702c-0.449,0.47-0.682,1.203-0.697,2.203l-4.031,0.017
			v-0.063c0-2.065,0.604-3.643,1.813-4.729c1.207-1.086,2.955-1.63,5.243-1.63c1.125,0,2.121,0.157,2.988,0.47
			c0.865,0.313,1.592,0.775,2.178,1.393c0.441,0.478,0.757,1.078,0.939,1.806c0.184,0.727,0.275,1.825,0.275,3.301V192.188
			L191.16,192.188z M187.408,186.545c-0.48,0.371-1.396,0.651-2.752,0.842c-0.164,0.031-0.289,0.054-0.371,0.063
			c-1.445,0.213-2.357,0.474-2.74,0.781c-0.381,0.31-0.572,0.787-0.572,1.437c0,0.683,0.189,1.228,0.566,1.638
			c0.379,0.409,0.883,0.613,1.512,0.613c1.303,0,2.359-0.439,3.172-1.322c0.813-0.884,1.219-2.031,1.219-3.445
			c0-0.17-0.002-0.297-0.006-0.383C187.432,186.685,187.421,186.608,187.408,186.545z"/>
		<path fill="#A58252" d="M194.582,195.013v-23.531h3.813v23.531H194.582z"/>
	</g>
</g>
<path fill="#A58252" d="M324.2,130.294l16.46,17.63l-23.521,14.12l6.61,27.3l-25.31,0.7l-1.74,29.729l-28.21-7.77l-4.76,28.06
	l-26.11-10.37l-13.61,24.74l-20.39-17.64l-17.78,25.069l-19.58-21.279l-21.4,19.869l-13.97-23.399l-25.23,14.85l-8.72-26.2
	l-29.21,11.511l-4.3-25.83l-26.13,1.63l3.91-26.3l-26.73-0.11l6.25-28.72L0,146.234l16.5-18.74l-14.81-26.06l24.09-7.62l-6.34-27.88
	l26.42-0.35l3.06-27.65l23.9,7.93l7.91-26.95l24.14,13.06l9.99-23.84l20.91,14.53l14.69-22.66l19.75,19.74l17.45-18.05l15.3,22.75
	l23.9-15.36l9.479,25.11l24.021-11.37l6.18,26.2l28.47-5.07l-0.87,25.64l28.771,3.1l-8.15,24.77l25.061,10.74L324.2,130.294z
	 M307.8,130.225c0-52.94-61.63-95.87-137.65-95.87S32.5,77.285,32.5,130.225c0,52.95,61.63,95.88,137.65,95.88
	S307.8,183.175,307.8,130.225z"/>
<g>
	<g>
		<path fill="#A58252" d="M124.572,80.886c0-6.363,3.613-7.944,6.178-7.944c2.566,0,6.174,1.581,6.174,7.944
			c0,6.366-3.607,7.95-6.174,7.95C128.186,88.836,124.572,87.252,124.572,80.886L124.572,80.886z M119.836,80.886
			c0,10.662,7.904,11.958,10.914,11.958s10.912-1.296,10.912-11.958c0-10.658-7.902-11.953-10.912-11.953
			S119.836,70.228,119.836,80.886L119.836,80.886z"/>
		<path fill="#A58252" d="M149.611,92.246h-4.434V78.599h-2.436v-3.174h2.436v-1.369c0-3.493,1.9-4.823,4.939-4.823
			c1.297,0,1.898,0.033,2.277,0.063v3.575h-1.234c-1.518,0-1.549,0.48-1.549,1.885v0.669h2.879v3.174h-2.879L149.611,92.246
			L149.611,92.246z"/>
		<path fill="#A58252" d="M159.514,92.246h-4.432V78.599h-2.438v-3.174h2.438v-1.369c0-3.493,1.898-4.823,4.939-4.823
			c1.295,0,1.898,0.033,2.275,0.063v3.575h-1.234c-1.518,0-1.549,0.48-1.549,1.885v0.669h2.877v3.174h-2.877L159.514,92.246
			L159.514,92.246z"/>
		<path fill="#A58252" d="M168.85,75.423v16.823h-4.428V75.423H168.85L168.85,75.423z M168.85,73.4h-4.428v-4.104h4.428V73.4
			L168.85,73.4z"/>
		<path fill="#A58252" d="M186.953,86.106c-0.16,1.731-1.521,6.57-7.701,6.57c-6.336,0-7.795-4.839-7.795-8.364
			c0-5.423,2.377-9.316,8.082-9.316c2.66,0,7.031,1.204,7.443,6.446h-4.496c-0.193-1.104-0.889-2.839-2.947-2.712
			c-2.789,0-3.518,2.776-3.518,4.856c0,1.825,0.063,5.452,3.42,5.452c2.252,0,3.012-2.145,3.012-2.933L186.953,86.106
			L186.953,86.106z"/>
		<path fill="#A58252" d="M193.973,75.423v16.823h-4.435V75.423H193.973L193.973,75.423z M193.973,73.4h-4.435v-4.104h4.435V73.4
			L193.973,73.4z"/>
		<path fill="#A58252" d="M206.875,86.216c0,2.026-1.988,3.287-3.947,3.287c-0.854,0-2.053-0.475-2.053-2.018
			c0-1.827,1.359-2.237,3.002-2.521c1.832-0.284,2.555-0.567,2.998-0.914V86.216L206.875,86.216z M211.208,79.863
			c0-4.145-4.334-4.873-6.703-4.873c-3.44,0-7.021,0.729-7.522,5.887h4.272c0.125-0.983,0.504-2.341,2.716-2.341
			c1.135,0,2.903,0.095,2.903,1.961c0,0.945-0.853,1.229-1.549,1.326l-3.979,0.601c-2.813,0.41-4.904,2.086-4.904,5.37
			c0,3.454,2.597,4.883,5.129,4.883c2.998,0,4.421-1.396,5.431-2.445c0.097,0.972,0.158,1.229,0.412,2.015h4.776v-0.659
			c-0.539-0.191-0.981-0.633-0.981-2.625V79.863L211.208,79.863z"/>
		<polygon fill="#A58252" points="219.089,92.246 214.66,92.246 214.66,69.527 219.089,69.527 		"/>
	</g>
</g>
<path fill="#A58252" d="M170.147,218.165c71.125,0,128.987-39.447,128.987-87.937c0-48.488-57.86-87.938-128.987-87.938
	c-71.122,0-128.985,39.449-128.985,87.938C41.162,178.718,99.025,218.165,170.147,218.165L170.147,218.165z M44.335,130.229
	c0-46.739,56.439-84.767,125.813-84.767c69.375,0,125.815,38.027,125.815,84.767s-56.439,84.765-125.815,84.765
	C100.774,214.993,44.335,176.969,44.335,130.229L44.335,130.229z"/>
<g>
	<g>
		<path fill="#A58252" d="M251.273,159.819c15.065,0,27.328-12.26,27.328-27.328s-12.263-27.328-27.328-27.328H87.652
			c-15.068,0-27.328,12.26-27.328,27.328s12.26,27.328,27.328,27.328H251.273L251.273,159.819z M87.652,152.722
			c-11.154,0-20.23-9.076-20.23-20.229c0-11.154,9.076-20.23,20.23-20.23h163.622c11.153,0,20.229,9.076,20.229,20.23
			c0,11.153-9.074,20.229-20.229,20.229H87.652L87.652,152.722z"/>
		<path fill="#A58252" d="M80.644,145.536v-25.733l8.042-0.004l10.733,16.685l0.034-16.681h8.345l-0.004,25.733c0,0-5.556,0-8.341,0
			c-0.723-1.579-10.336-16.595-10.336-16.595v16.596L80.644,145.536L80.644,145.536z"/>
		<path fill="#A58252" d="M131.396,128.347c0.267,0.328,0.711,0.683,0.908,0.844c0.779-0.516,1.403-0.986,2.244-1.272
			c6.342-2.172,9.636,1.48,10.277,2.073c2.896,2.678,2.01,9.952,2.187,15.545c0.092,0-8.43,0-8.43,0s0.141-10.474,0.019-11.896
			c-0.104-1.238-1.879-2.747-2.914-2.789c-1.744-0.068-3.902,0.833-3.997,2.802c-0.191,4.002,0.063,11.882,0.063,11.882h-8.256
			V128.32L131.396,128.347L131.396,128.347z"/>
		<polygon fill="#A58252" points="151.008,126.372 151.003,123.921 159.261,123.921 159.253,126.363 163.196,126.368 
			163.166,128.679 159.261,128.675 159.26,145.536 151.008,145.536 151.012,128.671 147.278,128.671 147.28,126.368 		"/>
		<path fill="#A58252" d="M162.515,136.89c-0.151-5.64,5.087-9.189,9.524-9.42c2.1-0.105,4.26-0.272,6.154,0.614
			c1.199,0.566,2.576,0.752,3.565,1.693c1.964,1.859,3.229,4.222,3.229,7.24l-14.106-0.045c0,2.217-1.241,7.276,2.63,7.36
			c1.479,0.034,2.314-0.233,2.857-1.503c0.402-0.945,0.41-2.063,0.322-3.15c1.422,0.086,7.41-0.089,8.139-0.063
			c-1.615,4.498-6.494,6.451-11.199,6.451C171.68,146.067,162.736,145.178,162.515,136.89L162.515,136.89z M170.881,134.194
			l5.686-0.021c-0.004-0.973-0.004-1.505-0.113-2.3c-0.145-1.066-1-2.577-2.787-2.503c-2.426,0.103-2.783,1.479-2.785,2.984
			C170.878,133.013,170.883,133.688,170.881,134.194L170.881,134.194z"/>
		<path fill="#A58252" d="M239.305,140.562c-1.476-1.946-1.697-5.766-0.318-8.602c1.203-2.475,4.313-4.299,5.945-4.828
			c2.215-0.718,5.817-0.917,8.846-0.189c2.244,0.536,5.037,1.867,6.762,5.012c1.354,2.469,1.115,6.526-0.41,8.616
			c-0.98,1.343-3.156,3.668-5.588,4.313c-2.115,0.563-6.465,0.874-8.766,0.156C243.259,144.256,241.32,143.228,239.305,140.562
			L239.305,140.562z M249.83,143.522c2.332,0.017,2.863-1.804,2.906-2.953c0.094-2.619-0.055-5.869-0.049-8.615
			c0.006-1.414-0.795-3.279-2.912-3.279c-3.043-0.002-2.935,2.384-2.967,3.279c-0.063,1.512-0.063,6.66-0.031,8.607
			C246.789,141.213,247.1,143.51,249.83,143.522L249.83,143.522z"/>
		<path fill="#A58252" d="M235.3,145.532c0,0.004-7.452,0.004-7.424,0.002c-0.028,0.002-0.17-0.996-0.17-0.996
			c-2.078,1.618-10.418,2.415-13.64-4.373c-0.287-0.604-1.127-5.014,0.086-7.723c1.966-4.395,6.507-5.364,9.74-5.174
			c1.295,0.074,3.781,1.41,3.781,1.41l0.016-9.411l7.609,0.004C235.3,119.271,235.391,145.536,235.3,145.532L235.3,145.532z
			 M227.552,141.21c0.24-0.757,0.117-5.688,0.117-8.1c0-0.666-0.53-1.773-0.657-1.929c-0.63-0.771-1.115-1.175-2.382-1.119
			c-1.618,0.067-2.551,1.496-2.621,2.406c-0.192,2.416-0.327,4.896,0.052,7.977c0.086,0.731,0.424,1.425,1.092,1.898
			C224.962,143.627,227.091,142.649,227.552,141.21L227.552,141.21z"/>
		<polygon fill="#A58252" points="119.772,145.536 119.772,128.144 111.256,128.144 111.256,145.536 		"/>
		<polygon fill="#A58252" points="119.772,125.215 119.772,119.803 111.256,119.803 111.256,125.215 		"/>
		<path fill="#A58252" d="M195.816,128.211c0.266,0.331,0.711,0.686,0.908,0.848c0.776-0.517,1.401-0.985,2.243-1.276
			c6.345-2.167,9.636,1.482,10.277,2.074c2.896,2.68,2.008,9.955,2.188,15.544c0.088,0-8.431,0-8.431,0s0.138-10.475,0.019-11.896
			c-0.105-1.237-1.883-2.744-2.914-2.786c-1.746-0.069-3.902,0.833-3.998,2.804c-0.191,4.002-0.115,12.013-0.115,12.013h-7.986
			v-17.35L195.816,128.211L195.816,128.211z"/>
		<path fill="#A58252" d="M256.555,125.414H256v-2.598h0.973c0.668,0,1.066,0.192,1.066,0.785c0,0.48-0.283,0.651-0.629,0.678
			l0.664,1.135h-0.656l-0.602-1.089h-0.262V125.414L256.555,125.414z M257.048,123.885c0.246,0,0.396-0.055,0.396-0.341
			c0-0.267-0.287-0.287-0.498-0.287h-0.391v0.628H257.048L257.048,123.885z M256.957,126.534c-1.283,0-2.428-0.888-2.428-2.414
			c0-1.528,1.145-2.414,2.428-2.414c1.279,0,2.42,0.886,2.42,2.414C259.376,125.646,258.236,126.534,256.957,126.534
			L256.957,126.534z M256.957,122.266c-0.957,0-1.73,0.743-1.73,1.854c0,1.111,0.773,1.859,1.73,1.853v0.007
			c0.932,0,1.725-0.748,1.725-1.859C258.682,123.01,257.889,122.266,256.957,122.266L256.957,122.266z"/>
	</g>
</g>
</svg>
