<?xml version="1.0" encoding="utf-8"?>
<!-- Generator: Adobe Illustrator 16.0.0, SVG Export Plug-In . SVG Version: 6.00 Build 0)  -->
<!DOCTYPE svg PUBLIC "-//W3C//DTD SVG 1.1//EN" "http://www.w3.org/Graphics/SVG/1.1/DTD/svg11.dtd">
<svg version="1.1" id="Layer_1" xmlns="http://www.w3.org/2000/svg" xmlns:xlink="http://www.w3.org/1999/xlink" x="0px" y="0px"
	 width="2426.475px" height="597.751px" viewBox="36.77 951.124 2426.475 597.751"
	 enable-background="new 36.77 951.124 2426.475 597.751" xml:space="preserve">
<g>
	<path fill="#CC2131" d="M354.14,1548.875c-190.254-0.052-317.37-134.859-317.37-298.33c0-163.484,127.44-299.849,317.098-299.42
		h1792.278c189.657-0.428,317.099,135.936,317.099,299.42c0,163.471-127.143,298.278-317.409,298.33H354.14z"/>
	<path fill="#FFFFFF" d="M354.736,1024.676c-150.618,0.26-243.092,100.944-243.092,225.467c0,124.51,91.878,225.985,243.092,225.428
		h1790.502c151.201,0.558,243.131-100.918,243.131-225.428c0-124.522-92.487-225.193-243.131-225.467H354.736z"/>
	<path fill="#CC2131" d="M277.501,1108.798h87.624l121.332,196.207l-0.064-196.207h86.962v281.418h-86.846l-121.941-196.22v196.22
		h-87.105L277.501,1108.798z M1046.323,1137.772h84.692v37.858h45.822v27.795h-45.822l0.052,186.79h-84.744l0.038-186.79h-45.99
		v-27.769h46.017L1046.323,1137.772z M621.81,1203.088h84.628v187.128H621.81V1203.088z M621.628,1108.746h84.81v57.534h-84.81
		V1108.746z M2138.688,1295.147c0,0-0.052,28.248-0.052,39.623c0,29.817-17.601,42.151-34.604,42.151
		c-16.926,0-34.655-12.334-34.655-42.151c0-11.375,0.052-40.323,0.052-40.323s0.078-27.664,0.078-39.039
		c0-29.701,17.651-41.918,34.525-41.918c16.873,0,34.604,12.217,34.604,41.918c0,11.375,0,32.32,0.052,39.869V1295.147z
		 M2104.694,1190.3c-68.272,0-123.614,47.055-123.614,105.107c0,58.014,55.354,105.055,123.614,105.055
		c68.351,0,123.692-47.041,123.692-105.055C2228.387,1237.354,2173.045,1190.3,2104.694,1190.3L2104.694,1190.3z M1869.98,1108.798
		h83.512v281.366h-83.642l-0.052-10.765c-32.347,20.311-68.947,20.259-97.429,7.017c-7.626-3.566-57.884-27.69-57.884-92.76
		c0-49.44,46.639-103.356,107.584-98.013c20.09,1.79,34.344,9.104,47.897,16.692L1869.98,1108.798z M1870.59,1295.705v-33.436
		c0-28.949-19.96-36.315-33.137-36.315c-13.502,0-33.217,7.366-33.217,36.315c0,9.546,0.053,33.358,0.053,33.358
		s-0.053,23.28-0.053,33.254c0,28.923,19.715,36.472,33.217,36.472c13.177,0,33.137-7.549,33.137-36.472V1295.705z
		 M904.524,1194.438c31.62-0.869,95.847,19.844,95.38,93.953c-0.091,13.125-0.026,101.787-0.026,101.787h-84.069v-122.889
		c0-16.329-15.604-34.474-38.638-34.474c-23.073,0-40.193,18.145-40.193,34.474l0.091,122.889h-84.031l-0.064-187.115l84.083-0.064
		c0,0-0.091,15.07,0,19.662C855.289,1205.244,879.321,1195.191,904.524,1194.438L904.524,1194.438z M1592.271,1194.438
		c31.568-0.869,95.782,19.844,95.38,93.953c-0.13,13.125-0.077,101.787-0.077,101.787h-84.07v-122.889
		c0-16.329-15.576-34.474-38.637-34.474s-40.232,18.145-40.232,34.474l0.13,122.889h-84.005l0.052-187.115l83.953-0.064
		c0,0-0.13,15.07,0,19.662C1543.006,1205.232,1567.055,1195.178,1592.271,1194.438z M1255.681,1268.301
		c-0.155-16.368,0.182-27.314,5.551-36.73c6.667-11.518,18.819-17.004,29.818-17.056h-0.052c11.075,0.052,23.15,5.538,29.765,17.056
		c5.37,9.402,5.682,20.362,5.552,36.73H1255.681L1255.681,1268.301z M1325.951,1324.745c0,0,0.077,0.83,0.077,11.374
		c0,34.228-22.515,41.854-34.979,41.854c-12.516,0-35.433-7.626-35.433-41.854c0-10.285,0.13-38.65,0.13-38.65
		s159.359,0.053,159.359,0c0-58.052-56.004-106.131-124.834-106.131c-68.792,0-124.601,47.054-124.601,105.042
		c0,58.065,55.809,105.12,124.601,105.12c57.093,0,105.301-32.606,120.074-76.833L1325.951,1324.745L1325.951,1324.745z
		 M2234.275,1175.761h-9.753v-64.083h24.448c15.096,0,22.619,5.59,22.619,18.209c0,11.453-7.198,16.446-16.641,17.652l18.21,28.222
		h-10.843l-16.926-27.794h-11.115V1175.761L2234.275,1175.761z M2245.87,1139.731c8.236,0,15.525-0.571,15.525-10.428
		c0-7.925-7.198-9.416-13.903-9.416h-13.229v19.844H2245.87z"/>
	<path fill="#CC2131" d="M2189.556,1143.544c0-31.88,25.888-55.394,56.444-55.394c30.298,0,56.107,23.527,56.107,55.394
		c0,32.204-25.81,55.705-56.107,55.705C2215.443,1199.249,2189.556,1175.761,2189.556,1143.544z M2246,1189.989
		c25.148,0,44.94-19.688,44.94-46.445c0-26.276-19.778-46.146-44.94-46.146c-25.407,0-45.238,19.87-45.238,46.146
		C2200.762,1170.313,2220.593,1189.989,2246,1189.989z"/>
</g>
</svg>
