<?xml version="1.0" encoding="utf-8"?>
<!-- Generator: Adobe Illustrator 24.2.1, SVG Export Plug-In . SVG Version: 6.00 Build 0)  -->
<svg version="1.1" id="Layer_1" xmlns="http://www.w3.org/2000/svg" xmlns:xlink="http://www.w3.org/1999/xlink" x="0px" y="0px"
	 viewBox="0 0 2369.5 477.5" style="enable-background:new 0 0 2369.5 477.5;" xml:space="preserve">
<style type="text/css">
	.st0{fill-rule:evenodd;clip-rule:evenodd;}
	.st1{fill-rule:evenodd;clip-rule:evenodd;fill:#CC2229;}
</style>
<g>
	<path class="st0" d="M406.2,446.6V10.7h-72.4l1.2,280.3L0,14.3l1.2,437.1h63V168.7L406.2,446.6L406.2,446.6z M452.5,453.7l55.8-95
		h-51.1v-66.5h84.3L694.8,14.3l244.7,439.4h-86.7l-49.9-95H585.5l-52.3,95L452.5,453.7L452.5,453.7z M615.2,291H772l-78.4-143.7
		L615.2,291z M1559.5,453.7h-71.3V15.4l242.3,281.5L1975.2,9.5v444.2h-76L1898,215l-168.7,203.1l-169.8-201.9L1559.5,453.7
		L1559.5,453.7z M2112.9,453.7l1.2-448.9h72.4l-1.2,448.9L2112.9,453.7L2112.9,453.7z M2253.1,78.4v-63h-20.2V3.6h55.8v11.9h-21.4
		v63H2253.1z M2292.3,77.2V3.6h20.2l21.4,46.3L2354,3.6h15.5v74.8h-14.3V29.7l-20.2,48.7l-28.5-48.7v48.7L2292.3,77.2L2292.3,77.2z"
		/>
	<path class="st1" d="M937.1,238.7C937.1,106.9,1044,0,1175.9,0c131.8,0,238.7,106.9,238.7,238.7c0,131.8-106.9,238.7-238.7,238.7
		C1044,477.5,937.1,370.6,937.1,238.7z M1175.9,406.2c92.6,0,167.4-74.8,167.4-167.5c0-91.4-74.8-166.3-167.4-166.3
		c-91.5,0-166.3,74.8-166.3,166.3C1009.6,331.4,1084.4,406.2,1175.9,406.2z"/>
</g>
</svg>
