<?xml version="1.0" encoding="utf-8"?>
<!-- Generator: Adobe Illustrator 16.0.0, SVG Export Plug-In . SVG Version: 6.00 Build 0)  -->
<!DOCTYPE svg PUBLIC "-//W3C//DTD SVG 1.1//EN" "http://www.w3.org/Graphics/SVG/1.1/DTD/svg11.dtd">
<svg version="1.1"
	 id="Ebene_1" xmlns:rdf="http://www.w3.org/1999/02/22-rdf-syntax-ns#" xmlns:cc="http://creativecommons.org/ns#" xmlns:dc="http://purl.org/dc/elements/1.1/" xmlns:svg="http://www.w3.org/2000/svg"
	 xmlns="http://www.w3.org/2000/svg" xmlns:xlink="http://www.w3.org/1999/xlink" x="0px" y="0px" width="105.667px"
	 height="129.103px" viewBox="48.595 9.613 105.667 129.103" enable-background="new 48.595 9.613 105.667 129.103"
	 xml:space="preserve">
<path id="path3096" d="M133.433,48.001c0.325-0.116,0.875-0.313,1.232-0.478c0.358-0.166,0.663-0.254,0.914-0.517
	c0.252-0.263,0.448-0.731,0.596-1.062c0.148-0.327,0.044-0.682,0.292-0.913c0.247-0.231,0.729-0.269,1.192-0.479
	c0.464-0.209,1.19-0.545,1.59-0.781c0.4-0.235,0.532-0.186,0.808-0.636s0.647-1.641,0.848-2.066
	c0.201-0.427,0.099-0.266,0.356-0.489c0.258-0.227,0.808-0.537,1.192-0.861c0.384-0.325,0.822-0.751,1.113-1.087
	s0.473-0.594,0.636-0.928c0.163-0.333,0.3-0.765,0.344-1.072c0.044-0.31-0.172-0.541-0.08-0.782c0.093-0.24,0.389-0.438,0.636-0.662
	c0.247-0.226,0.569-0.313,0.848-0.688c0.278-0.375,0.687-0.989,0.821-1.563c0.134-0.574-0.126-1.382-0.013-1.881
	c0.113-0.499,0.462-0.738,0.689-1.113c0.228-0.375,0.49-0.722,0.676-1.14c0.186-0.417,0.429-0.858,0.438-1.364
	c0.009-0.506-0.427-1.201-0.385-1.67c0.042-0.468,0.435-0.813,0.636-1.139c0.201-0.327,0.455-0.429,0.569-0.821
	c0.115-0.394,0.241-0.977,0.12-1.537s-0.759-1.315-0.848-1.828c-0.088-0.513,0.223-0.816,0.317-1.245
	c0.095-0.43,0.285-0.814,0.252-1.324c-0.033-0.512-0.162-1.265-0.451-1.736c-0.29-0.472-0.822-0.841-1.285-1.1
	c-0.464-0.259-0.963-0.359-1.498-0.45c-0.534-0.09-1.181,0.137-1.708-0.093c-0.528-0.229-0.899-0.956-1.458-1.285
	c-0.559-0.329-1.241-0.572-1.896-0.688c-0.653-0.117-1.545-0.021-2.027-0.014s-0.572,0.168-0.861,0.053s-0.51-0.515-0.875-0.741
	c-0.364-0.228-0.808-0.513-1.312-0.622c-0.504-0.11-1.343-0.052-1.709-0.04c-0.367,0.011-0.232,0.229-0.49,0.105
	c-0.259-0.124-0.691-0.656-1.06-0.849c-0.369-0.191-0.616-0.249-1.153-0.306c-0.537-0.055-1.548-0.109-2.067-0.025
	s-0.744,0.443-1.047,0.529c-0.302,0.087-0.601,0.042-0.768-0.014c-0.168-0.055-0.102-0.243-0.238-0.317
	c-0.136-0.075-0.451-0.049-0.583-0.133c-0.133-0.084,0.181-0.294-0.212-0.371c-0.394-0.076-1.44-0.27-2.147-0.093
	s-1.625,0.943-2.093,1.153c-0.468,0.209-0.477,0.156-0.715,0.104c-0.238-0.051-0.298-0.352-0.715-0.41
	c-0.417-0.06-1.162-0.165-1.789,0.054c-0.627,0.218-1.577,1.044-1.974,1.258c-0.396,0.215-0.276,0.052-0.411,0.027
	c-0.134-0.024-0.017-0.146-0.397-0.173c-0.38-0.027-1.283-0.131-1.882,0.014c-0.598,0.144-1.256,0.534-1.708,0.848
	c-0.452,0.314-0.747,0.791-1.007,1.034c-0.26,0.242-0.137,0.338-0.556,0.424c-0.42,0.086-1.339-0.155-1.961,0.092
	c-0.623,0.248-1.176,0.857-1.775,1.393s-1.254,1.168-1.815,1.814s-1.17,1.46-1.55,2.066c-0.38,0.607-0.461,1.056-0.729,1.576
	c-0.267,0.521-0.561,0.824-0.874,1.551s-0.755,2.474-1.007,2.809c-0.252,0.336-0.261-0.212-0.504-0.795s-0.594-1.897-0.953-2.703
	c-0.36-0.804-0.632-1.277-1.206-2.118c-0.574-0.843-1.521-2.126-2.239-2.929c-0.718-0.802-1.515-1.425-2.066-1.882
	c-0.552-0.457-0.758-0.711-1.246-0.86c-0.488-0.15-1.164,0.186-1.683-0.04s-0.967-0.944-1.431-1.312
	c-0.464-0.367-0.675-0.716-1.351-0.889c-0.676-0.172-2.087-0.101-2.703-0.146c-0.616-0.047-0.676,0.009-0.994-0.133
	c-0.318-0.141-0.55-0.545-0.914-0.715c-0.364-0.171-0.859-0.257-1.272-0.306s-0.85-0.054-1.206,0.014s-0.654,0.378-0.928,0.385
	s-0.439-0.208-0.715-0.345c-0.276-0.137-0.698-0.385-0.941-0.479c-0.243-0.093-0.364-0.013-0.517-0.079
	C78.4,9.923,78.532,9.72,78.155,9.67c-0.378-0.051-1.501-0.037-1.868,0.014c-0.366,0.051-0.139,0.221-0.332,0.292
	c-0.192,0.07-0.684,0.046-0.821,0.132c-0.137,0.086,0.147,0.329,0,0.385c-0.148,0.056-0.572,0.03-0.888-0.054
	s-0.389-0.396-1.007-0.449c-0.619-0.054-2.025-0.07-2.703,0.133c-0.678,0.203-1.056,0.906-1.365,1.086
	c-0.309,0.179-0.115-0.002-0.49-0.014c-0.375-0.011-1.111-0.25-1.762-0.054c-0.651,0.197-1.683,1.01-2.146,1.232
	c-0.464,0.224-0.161,0.093-0.636,0.105c-0.475,0.014-1.594-0.095-2.212-0.025c-0.619,0.067-1.073,0.254-1.498,0.438
	c-0.424,0.184-0.737,0.405-1.046,0.662c-0.309,0.256-0.36,0.722-0.809,0.874c-0.449,0.152-1.271-0.06-1.881,0.04
	c-0.612,0.099-1.319,0.289-1.789,0.556c-0.47,0.269-0.804,0.656-1.033,1.048s-0.278,0.966-0.344,1.299s-0.08,0.429-0.053,0.701
	c0.026,0.273,0.119,0.653,0.212,0.94c0.093,0.287,0.298,0.539,0.344,0.782c0.046,0.243,0.066,0.424-0.066,0.676
	c-0.132,0.251-0.585,0.468-0.729,0.834c-0.144,0.367-0.144,0.994-0.133,1.365c0.011,0.371,0.113,0.526,0.199,0.86
	c0.086,0.333,0.155,0.813,0.318,1.141c0.164,0.326,0.601,0.516,0.662,0.821c0.062,0.305-0.263,0.617-0.292,1.007
	c-0.029,0.389-0.159,0.646,0.12,1.323c0.279,0.679,1.27,2.181,1.55,2.743c0.281,0.563,0.078,0.209,0.133,0.637
	c0.055,0.426-0.117,1.217,0.198,1.921c0.316,0.705,1.341,1.813,1.696,2.306s0.375,0.426,0.437,0.649
	c0.062,0.223-0.166,0.27-0.066,0.688c0.099,0.42,0.225,1.259,0.662,1.829c0.437,0.569,1.5,1.24,1.961,1.589
	c0.462,0.351,0.594,0.208,0.808,0.504c0.214,0.296,0.307,0.849,0.477,1.271c0.17,0.425,0.166,0.846,0.543,1.271
	s1.135,0.991,1.722,1.285s1.436,0.231,1.802,0.478c0.367,0.244,0.221,0.655,0.397,0.993c0.176,0.339,0.232,0.7,0.663,1.033
	c0.431,0.334,1.453,0.791,1.921,0.968c0.468,0.178,0.688,0.014,0.887,0.094c0.201,0.079,0.374,0.205,0.318,0.384
	c-0.056,0.179-0.36,0.497-0.649,0.688c-0.289,0.192-0.618,0.181-1.086,0.465c-0.468,0.284-1.159,0.776-1.722,1.245
	c-0.563,0.469-1.029,0.954-1.656,1.563s-1.493,1.349-2.106,2.093c-0.613,0.744-1.131,1.555-1.577,2.372
	c-0.446,0.816-0.742,1.623-1.1,2.53s-0.792,1.99-1.047,2.915c-0.254,0.925-0.375,1.585-0.477,2.636
	c-0.102,1.052-0.095,2.913-0.132,3.671c-0.038,0.758,0.046,0.51-0.093,0.874c-0.139,0.364-0.369,0.91-0.742,1.313
	c-0.373,0.4-0.937,0.622-1.497,1.099c-0.561,0.478-1.263,1.12-1.868,1.763c-0.605,0.644-1.106,1.13-1.762,2.094
	c-0.656,0.963-1.551,2.299-2.173,3.684c-0.622,1.385-1.243,3.235-1.563,4.624c-0.32,1.389-0.335,1.991-0.358,3.71
	c-0.022,1.718-0.051,4.469,0.226,6.598c0.276,2.129,0.548,3.909,1.431,6.176c0.883,2.266,2.217,5.241,3.869,7.419
	c1.651,2.178,3.851,4.011,6.042,5.645c2.191,1.634,5.781,3.171,7.102,4.16c1.32,0.989,0.594,1.051,0.822,1.775
	c0.228,0.724,0.188,1.48,0.543,2.569c0.355,1.088,0.898,2.698,1.589,3.961c0.691,1.265,1.526,2.467,2.557,3.617
	c1.032,1.15,2.259,2.314,3.631,3.286c1.371,0.972,2.849,1.793,4.597,2.544c1.749,0.751,3.995,1.466,5.896,1.961
	c1.901,0.494,4.025,0.812,5.511,1.007c1.486,0.196,1.594,0.142,3.405,0.172c1.811,0.031,5.353,0.028,7.459,0.015
	c2.106-0.017,3.698-0.026,5.18-0.106c1.481-0.079,2.365-0.159,3.71-0.371c1.345-0.212,2.343-0.263,4.359-0.899
	c2.016-0.64,5.58-1.77,7.738-2.93c2.157-1.158,3.815-2.625,5.207-4.026c1.392-1.402,2.281-2.714,3.141-4.387
	c0.859-1.671,1.647-4.341,2.013-5.644c0.367-1.303-0.04-1.696,0.187-2.173c0.225-0.479,0.375-0.271,1.166-0.689
	c0.791-0.419,1.943-0.746,3.577-1.828c1.634-1.082,4.586-3.169,6.227-4.663c1.641-1.495,2.648-2.922,3.617-4.307
	c0.97-1.385,1.594-2.683,2.199-4.001c0.605-1.317,1.063-2.531,1.431-3.909c0.369-1.378,0.585-2.937,0.782-4.357
	c0.197-1.422,0.345-2.766,0.397-4.174c0.053-1.408,0.088-2.994-0.08-4.279c-0.168-1.285-0.585-2.33-0.927-3.433
	c-0.343-1.102-0.647-2.184-1.126-3.18s-1.161-1.932-1.749-2.795c-0.587-0.864-1.17-1.694-1.775-2.386s-1.312-1.311-1.855-1.762
	c-0.543-0.453-0.962-0.505-1.404-0.954c-0.441-0.45-1.021-1.212-1.245-1.749c-0.223-0.536-0.064-0.879-0.093-1.472
	c-0.029-0.592-0.036-1.354-0.08-2.08c-0.044-0.724-0.031-1.403-0.185-2.266c-0.155-0.861-0.449-1.976-0.743-2.901
	c-0.293-0.925-0.494-1.637-1.02-2.649c-0.526-1.015-1.46-2.51-2.133-3.432c-0.674-0.921-1.288-1.473-1.908-2.094
	c-0.621-0.62-1.214-1.124-1.815-1.63c-0.601-0.505-1.255-1.035-1.789-1.404c-0.534-0.367-1.1-0.617-1.417-0.808
	c-0.318-0.19-0.464-0.208-0.49-0.331c-0.027-0.124,0.157-0.306,0.331-0.411C132.892,48.12,133.108,48.118,133.433,48.001z"/>
<path id="path3098" fill="none" d="M133.433,48.001c0.325-0.116,0.875-0.313,1.232-0.478c0.358-0.166,0.663-0.254,0.914-0.517
	c0.252-0.263,0.448-0.731,0.596-1.062c0.148-0.327,0.044-0.682,0.292-0.913c0.247-0.231,0.729-0.269,1.192-0.479
	c0.464-0.209,1.19-0.545,1.59-0.781c0.4-0.235,0.532-0.186,0.808-0.636s0.647-1.641,0.848-2.066
	c0.201-0.427,0.099-0.266,0.356-0.489c0.258-0.227,0.808-0.537,1.192-0.861c0.384-0.325,0.822-0.751,1.113-1.087
	s0.473-0.594,0.636-0.928c0.163-0.333,0.3-0.765,0.344-1.072c0.044-0.31-0.172-0.541-0.08-0.782c0.093-0.24,0.389-0.438,0.636-0.662
	c0.247-0.226,0.569-0.313,0.848-0.688c0.278-0.375,0.687-0.989,0.821-1.563c0.134-0.574-0.126-1.382-0.013-1.881
	c0.113-0.499,0.462-0.738,0.689-1.113c0.228-0.375,0.49-0.722,0.676-1.14c0.186-0.417,0.429-0.858,0.438-1.364
	c0.009-0.506-0.427-1.201-0.385-1.67c0.042-0.468,0.435-0.813,0.636-1.139c0.201-0.327,0.455-0.429,0.569-0.821
	c0.115-0.394,0.241-0.977,0.12-1.537s-0.759-1.315-0.848-1.828c-0.088-0.513,0.223-0.816,0.317-1.245
	c0.095-0.43,0.285-0.814,0.252-1.324c-0.033-0.512-0.162-1.265-0.451-1.736c-0.29-0.472-0.822-0.841-1.285-1.1
	c-0.464-0.259-0.963-0.359-1.498-0.45c-0.534-0.09-1.181,0.137-1.708-0.093c-0.528-0.229-0.899-0.956-1.458-1.285
	c-0.559-0.329-1.241-0.572-1.896-0.688c-0.653-0.117-1.545-0.021-2.027-0.014s-0.572,0.168-0.861,0.053s-0.51-0.515-0.875-0.741
	c-0.364-0.228-0.808-0.513-1.312-0.622c-0.504-0.11-1.343-0.052-1.709-0.04c-0.367,0.011-0.232,0.229-0.49,0.105
	c-0.259-0.124-0.691-0.656-1.06-0.849c-0.369-0.191-0.616-0.249-1.153-0.306c-0.537-0.055-1.548-0.109-2.067-0.025
	s-0.744,0.443-1.047,0.529c-0.302,0.087-0.601,0.042-0.768-0.014c-0.168-0.055-0.102-0.243-0.238-0.317
	c-0.136-0.075-0.451-0.049-0.583-0.133c-0.133-0.084,0.181-0.294-0.212-0.371c-0.394-0.076-1.44-0.27-2.147-0.093
	s-1.625,0.943-2.093,1.153c-0.468,0.209-0.477,0.156-0.715,0.104c-0.238-0.051-0.298-0.352-0.715-0.41
	c-0.417-0.06-1.162-0.165-1.789,0.054c-0.627,0.218-1.577,1.044-1.974,1.258c-0.396,0.215-0.276,0.052-0.411,0.027
	c-0.134-0.024-0.017-0.146-0.397-0.173c-0.38-0.027-1.283-0.131-1.882,0.014c-0.598,0.144-1.256,0.534-1.708,0.848
	c-0.452,0.314-0.747,0.791-1.007,1.034c-0.26,0.242-0.137,0.338-0.556,0.424c-0.42,0.086-1.339-0.155-1.961,0.092
	c-0.623,0.248-1.176,0.857-1.775,1.393s-1.254,1.168-1.815,1.814s-1.17,1.46-1.55,2.066c-0.38,0.607-0.461,1.056-0.729,1.576
	c-0.267,0.521-0.561,0.824-0.874,1.551s-0.755,2.474-1.007,2.809c-0.252,0.336-0.261-0.212-0.504-0.795s-0.594-1.897-0.953-2.703
	c-0.36-0.804-0.632-1.277-1.206-2.118c-0.574-0.843-1.521-2.126-2.239-2.929c-0.718-0.802-1.515-1.425-2.066-1.882
	c-0.552-0.457-0.758-0.711-1.246-0.86c-0.488-0.15-1.164,0.186-1.683-0.04s-0.967-0.944-1.431-1.312
	c-0.464-0.367-0.675-0.716-1.351-0.889c-0.676-0.172-2.087-0.101-2.703-0.146c-0.616-0.047-0.676,0.009-0.994-0.133
	c-0.318-0.141-0.55-0.545-0.914-0.715c-0.364-0.171-0.859-0.257-1.272-0.306s-0.85-0.054-1.206,0.014s-0.654,0.378-0.928,0.385
	s-0.439-0.208-0.715-0.345c-0.276-0.137-0.698-0.385-0.941-0.479c-0.243-0.093-0.364-0.013-0.517-0.079
	C78.4,9.923,78.532,9.72,78.155,9.67c-0.378-0.051-1.501-0.037-1.868,0.014c-0.366,0.051-0.139,0.221-0.332,0.292
	c-0.192,0.07-0.684,0.046-0.821,0.132c-0.137,0.086,0.147,0.329,0,0.385c-0.148,0.056-0.572,0.03-0.888-0.054
	s-0.389-0.396-1.007-0.449c-0.619-0.054-2.025-0.07-2.703,0.133c-0.678,0.203-1.056,0.906-1.365,1.086
	c-0.309,0.179-0.115-0.002-0.49-0.014c-0.375-0.011-1.111-0.25-1.762-0.054c-0.651,0.197-1.683,1.01-2.146,1.232
	c-0.464,0.224-0.161,0.093-0.636,0.105c-0.475,0.014-1.594-0.095-2.212-0.025c-0.619,0.067-1.073,0.254-1.498,0.438
	c-0.424,0.184-0.737,0.405-1.046,0.662c-0.309,0.256-0.36,0.722-0.809,0.874c-0.449,0.152-1.271-0.06-1.881,0.04
	c-0.612,0.099-1.319,0.289-1.789,0.556c-0.47,0.269-0.804,0.656-1.033,1.048s-0.278,0.966-0.344,1.299s-0.08,0.429-0.053,0.701
	c0.026,0.273,0.119,0.653,0.212,0.94c0.093,0.287,0.298,0.539,0.344,0.782c0.046,0.243,0.066,0.424-0.066,0.676
	c-0.132,0.251-0.585,0.468-0.729,0.834c-0.144,0.367-0.144,0.994-0.133,1.365c0.011,0.371,0.113,0.526,0.199,0.86
	c0.086,0.333,0.155,0.813,0.318,1.141c0.164,0.326,0.601,0.516,0.662,0.821c0.062,0.305-0.263,0.617-0.292,1.007
	c-0.029,0.389-0.159,0.646,0.12,1.323c0.279,0.679,1.27,2.181,1.55,2.743c0.281,0.563,0.078,0.209,0.133,0.637
	c0.055,0.426-0.117,1.217,0.198,1.921c0.316,0.705,1.341,1.813,1.696,2.306s0.375,0.426,0.437,0.649
	c0.062,0.223-0.166,0.27-0.066,0.688c0.099,0.42,0.225,1.259,0.662,1.829c0.437,0.569,1.5,1.24,1.961,1.589
	c0.462,0.351,0.594,0.208,0.808,0.504c0.214,0.296,0.307,0.849,0.477,1.271c0.17,0.425,0.166,0.846,0.543,1.271
	s1.135,0.991,1.722,1.285s1.436,0.231,1.802,0.478c0.367,0.244,0.221,0.655,0.397,0.993c0.176,0.339,0.232,0.7,0.663,1.033
	c0.431,0.334,1.453,0.791,1.921,0.968c0.468,0.178,0.688,0.014,0.887,0.094c0.201,0.079,0.374,0.205,0.318,0.384
	c-0.056,0.179-0.36,0.497-0.649,0.688c-0.289,0.192-0.618,0.181-1.086,0.465c-0.468,0.284-1.159,0.776-1.722,1.245
	c-0.563,0.469-1.029,0.954-1.656,1.563s-1.493,1.349-2.106,2.093c-0.613,0.744-1.131,1.555-1.577,2.372
	c-0.446,0.816-0.742,1.623-1.1,2.53s-0.792,1.99-1.047,2.915c-0.254,0.925-0.375,1.585-0.477,2.636
	c-0.102,1.052-0.095,2.913-0.132,3.671c-0.038,0.758,0.046,0.51-0.093,0.874c-0.139,0.364-0.369,0.91-0.742,1.313
	c-0.373,0.4-0.937,0.622-1.497,1.099c-0.561,0.478-1.263,1.12-1.868,1.763c-0.605,0.644-1.106,1.13-1.762,2.094
	c-0.656,0.963-1.551,2.299-2.173,3.684c-0.622,1.385-1.243,3.235-1.563,4.624c-0.32,1.389-0.335,1.991-0.358,3.71
	c-0.022,1.718-0.051,4.469,0.226,6.598c0.276,2.129,0.548,3.909,1.431,6.176c0.883,2.266,2.217,5.241,3.869,7.419
	c1.651,2.178,3.851,4.011,6.042,5.645c2.191,1.634,5.781,3.171,7.102,4.16c1.32,0.989,0.594,1.051,0.822,1.775
	c0.228,0.724,0.188,1.48,0.543,2.569c0.355,1.088,0.898,2.698,1.589,3.961c0.691,1.265,1.526,2.467,2.557,3.617
	c1.032,1.15,2.259,2.314,3.631,3.286c1.371,0.972,2.849,1.793,4.597,2.544c1.749,0.751,3.995,1.466,5.896,1.961
	c1.901,0.494,4.025,0.812,5.511,1.007c1.486,0.196,1.594,0.142,3.405,0.172c1.811,0.031,5.353,0.028,7.459,0.015
	c2.106-0.017,3.698-0.026,5.18-0.106c1.481-0.079,2.365-0.159,3.71-0.371c1.345-0.212,2.343-0.263,4.359-0.899
	c2.016-0.64,5.58-1.77,7.738-2.93c2.157-1.158,3.815-2.625,5.207-4.026c1.392-1.402,2.281-2.714,3.141-4.387
	c0.859-1.671,1.647-4.341,2.013-5.644c0.367-1.303-0.04-1.696,0.187-2.173c0.225-0.479,0.375-0.271,1.166-0.689
	c0.791-0.419,1.943-0.746,3.577-1.828c1.634-1.082,4.586-3.169,6.227-4.663c1.641-1.495,2.648-2.922,3.617-4.307
	c0.97-1.385,1.594-2.683,2.199-4.001c0.605-1.317,1.063-2.531,1.431-3.909c0.369-1.378,0.585-2.937,0.782-4.357
	c0.197-1.422,0.345-2.766,0.397-4.174c0.053-1.408,0.088-2.994-0.08-4.279c-0.168-1.285-0.585-2.33-0.927-3.433
	c-0.343-1.102-0.647-2.184-1.126-3.18s-1.161-1.932-1.749-2.795c-0.587-0.864-1.17-1.694-1.775-2.386s-1.312-1.311-1.855-1.762
	c-0.543-0.453-0.962-0.505-1.404-0.954c-0.441-0.45-1.021-1.212-1.245-1.749c-0.223-0.536-0.064-0.879-0.093-1.472
	c-0.029-0.592-0.036-1.354-0.08-2.08c-0.044-0.724-0.031-1.403-0.185-2.266c-0.155-0.861-0.449-1.976-0.743-2.901
	c-0.293-0.925-0.494-1.637-1.02-2.649c-0.526-1.015-1.46-2.51-2.133-3.432c-0.674-0.921-1.288-1.473-1.908-2.094
	c-0.621-0.62-1.214-1.124-1.815-1.63c-0.601-0.505-1.255-1.035-1.789-1.404c-0.534-0.367-1.1-0.617-1.417-0.808
	c-0.318-0.19-0.464-0.208-0.49-0.331c-0.027-0.124,0.157-0.306,0.331-0.411C132.892,48.12,133.108,48.118,133.433,48.001z"/>
<path id="path3100" fill="#378E04" d="M94.685,36.495c0.964,0.192,1.625-1.052,2.283-1.741c0.658-0.69,1.322-1.387,1.664-2.399
	c0.342-1.012,0.658-2.103,0.387-3.677c-0.271-1.573-1.064-3.979-2.013-5.766c-0.948-1.787-3.012-4.321-3.676-4.954
	c-0.664-0.632-0.181,0.898-0.31,1.161c-0.129,0.261-0.307,0.346-0.465,0.405c-0.158,0.063-0.332,0.042-0.483-0.038
	c-0.151-0.08,0.216,0.248-0.426-0.444c-0.642-0.693-2.825-3.265-3.425-3.715c-0.6-0.452-0.129,0.745-0.174,1.006
	c-0.045,0.262-0.019,0.377-0.096,0.562c-0.078,0.185-0.232,0.464-0.368,0.541c-0.136,0.078-0.323-0.013-0.445-0.077
	c-0.122-0.063,0.042,0.025-0.291-0.31c-0.332-0.336-1.199-1.255-1.703-1.703c-0.503-0.448-1.08-0.979-1.316-0.986
	c-0.235-0.007-0.055,0.657-0.097,0.948c-0.042,0.29-0.032,0.583-0.155,0.793s-0.313,0.521-0.58,0.465
	c-0.267-0.055-0.497-0.394-1.025-0.794c-0.529-0.398-1.578-1.236-2.148-1.604c-0.571-0.367-1.104-0.591-1.277-0.602
	c-0.174-0.01,0.158,0.397,0.232,0.542c0.074,0.146,0.178,0.123,0.213,0.329c0.035,0.206,0.055,0.668,0,0.909
	c-0.055,0.242-0.129,0.517-0.329,0.542c-0.2,0.026-0.403-0.151-0.871-0.387c-0.468-0.236-1.2-0.716-1.935-1.025
	c-0.735-0.309-2.064-0.79-2.477-0.832s-0.081,0.419,0,0.58s0.364,0.255,0.483,0.387c0.119,0.134,0.193,0.215,0.232,0.407
	c0.039,0.193,0.032,0.58,0,0.754c-0.032,0.176-0.064,0.266-0.193,0.291s-0.113,0.025-0.581-0.136
	c-0.468-0.161-1.46-0.616-2.225-0.832c-0.764-0.216-2.006-0.468-2.361-0.465c-0.354,0.004,0.113,0.326,0.232,0.484
	c0.119,0.157,0.403,0.188,0.484,0.464c0.081,0.274,0.132,0.975,0,1.181c-0.132,0.206-0.152,0.187-0.793,0.058
	c-0.641-0.129-2.067-0.709-3.058-0.831c-0.99-0.123-2.608-0.179-2.882,0.097c-0.274,0.273,1.348,1.226,1.238,1.549
	c-0.109,0.322-0.935,0.332-1.896,0.387c-0.961,0.056-3.357-0.329-3.87-0.059s0.513,1.087,0.793,1.684
	c0.281,0.598,0.709,1.342,0.89,1.896c0.181,0.555,0.539,1.226,0.194,1.432c-0.345,0.206-2.058-0.474-2.264-0.193
	c-0.206,0.28,0.438,1.196,1.026,1.878c0.587,0.681,2.229,1.716,2.497,2.205c0.268,0.49-0.503,0.622-0.891,0.735
	c-0.387,0.112-1.151-0.094-1.432-0.059c-0.281,0.035-0.654-0.217-0.251,0.271c0.403,0.486,2.054,2.045,2.67,2.65
	c0.616,0.605,0.848,0.758,1.026,0.986c0.177,0.229,0.077,0.28,0.038,0.388c-0.039,0.105,0.048,0.206-0.271,0.252
	c-0.319,0.045-1.339-0.007-1.645,0.02c-0.306,0.025-0.49-0.185-0.193,0.136c0.297,0.319,1.206,1.181,1.974,1.779
	c0.767,0.601,2.337,1.43,2.631,1.819c0.293,0.39-0.513,0.429-0.871,0.521c-0.358,0.094-1.074-0.043-1.277,0.038
	s-0.371,0.104,0.059,0.445c0.429,0.342,1.89,1.232,2.515,1.606s0.822,0.422,1.238,0.638s0.975,0.494,1.258,0.658
	c0.284,0.165,0.397,0.21,0.445,0.329c0.048,0.118,0.158,0.279-0.155,0.387c-0.313,0.105-1.39,0.2-1.722,0.251
	c-0.332,0.052-0.287-0.028-0.271,0.059c0.016,0.087-0.293,0.154,0.368,0.464c0.661,0.311,2.722,1.092,3.6,1.395
	c0.877,0.303,1.363,0.245,1.664,0.426c0.3,0.181,0.316,0.442,0.136,0.658c-0.181,0.216-1.013,0.479-1.219,0.638
	c-0.207,0.158-0.458,0.155-0.02,0.312c0.438,0.153,1.613,0.479,2.651,0.619c1.038,0.139,2.934,0.048,3.579,0.213
	c0.645,0.164,0.41,0.513,0.291,0.772c-0.119,0.262-0.822,0.601-1.006,0.794c-0.184,0.193-0.303,0.307-0.097,0.367
	c0.207,0.063,0.371,0.087,1.335,0s2.874-0.184,4.451-0.521c1.577-0.339,3.528-0.711,5.011-1.511s2.983-2.222,3.89-3.289
	c0.906-1.066,1.509-2.363,1.548-3.114s-0.393-0.542-1.315-1.395c-0.922-0.851-2.806-2.589-4.219-3.715
	c-1.413-1.125-2.754-2.031-4.257-3.038c-1.503-1.006-3.122-2.021-4.76-2.999c-1.639-0.977-3.635-2.066-5.069-2.863
	c-1.435-0.797-2.88-1.513-3.541-1.916c-0.661-0.401-0.813-0.551-0.426-0.503c0.387,0.049,0.674-0.045,2.748,0.794
	c2.074,0.838,7.607,3.282,9.694,4.237c2.086,0.954,1.167,0.489,2.825,1.489c1.657,1,5.35,3.273,7.121,4.509
	C92.953,34.828,93.72,36.302,94.685,36.495L94.685,36.495z"/>
<path id="path3102" fill="none" d="M94.685,36.495c0.964,0.192,1.625-1.052,2.283-1.741c0.658-0.69,1.322-1.387,1.664-2.399
	c0.342-1.012,0.658-2.103,0.387-3.677c-0.271-1.573-1.064-3.979-2.013-5.766c-0.948-1.787-3.012-4.321-3.676-4.954
	c-0.664-0.632-0.181,0.898-0.31,1.161c-0.129,0.261-0.307,0.346-0.465,0.405c-0.158,0.063-0.332,0.042-0.483-0.038
	c-0.151-0.08,0.216,0.248-0.426-0.444c-0.642-0.693-2.825-3.265-3.425-3.715c-0.6-0.452-0.129,0.745-0.174,1.006
	c-0.045,0.262-0.019,0.377-0.096,0.562c-0.078,0.185-0.232,0.464-0.368,0.541c-0.136,0.078-0.323-0.013-0.445-0.077
	c-0.122-0.063,0.042,0.025-0.291-0.31c-0.332-0.336-1.199-1.255-1.703-1.703c-0.503-0.448-1.08-0.979-1.316-0.986
	c-0.235-0.007-0.055,0.657-0.097,0.948c-0.042,0.29-0.032,0.583-0.155,0.793s-0.313,0.521-0.58,0.465
	c-0.267-0.055-0.497-0.394-1.025-0.794c-0.529-0.398-1.578-1.236-2.148-1.604c-0.571-0.367-1.104-0.591-1.277-0.602
	c-0.174-0.01,0.158,0.397,0.232,0.542c0.074,0.146,0.178,0.123,0.213,0.329c0.035,0.206,0.055,0.668,0,0.909
	c-0.055,0.242-0.129,0.517-0.329,0.542c-0.2,0.026-0.403-0.151-0.871-0.387c-0.468-0.236-1.2-0.716-1.935-1.025
	c-0.735-0.309-2.064-0.79-2.477-0.832s-0.081,0.419,0,0.58s0.364,0.255,0.483,0.387c0.119,0.134,0.193,0.215,0.232,0.407
	c0.039,0.193,0.032,0.58,0,0.754c-0.032,0.176-0.064,0.266-0.193,0.291s-0.113,0.025-0.581-0.136
	c-0.468-0.161-1.46-0.616-2.225-0.832c-0.764-0.216-2.006-0.468-2.361-0.465c-0.354,0.004,0.113,0.326,0.232,0.484
	c0.119,0.157,0.403,0.188,0.484,0.464c0.081,0.274,0.132,0.975,0,1.181c-0.132,0.206-0.152,0.187-0.793,0.058
	c-0.641-0.129-2.067-0.709-3.058-0.831c-0.99-0.123-2.608-0.179-2.882,0.097c-0.274,0.273,1.348,1.226,1.238,1.549
	c-0.109,0.322-0.935,0.332-1.896,0.387c-0.961,0.056-3.357-0.329-3.87-0.059s0.513,1.087,0.793,1.684
	c0.281,0.598,0.709,1.342,0.89,1.896c0.181,0.555,0.539,1.226,0.194,1.432c-0.345,0.206-2.058-0.474-2.264-0.193
	c-0.206,0.28,0.438,1.196,1.026,1.878c0.587,0.681,2.229,1.716,2.497,2.205c0.268,0.49-0.503,0.622-0.891,0.735
	c-0.387,0.112-1.151-0.094-1.432-0.059c-0.281,0.035-0.654-0.217-0.251,0.271c0.403,0.486,2.054,2.045,2.67,2.65
	c0.616,0.605,0.848,0.758,1.026,0.986c0.177,0.229,0.077,0.28,0.038,0.388c-0.039,0.105,0.048,0.206-0.271,0.252
	c-0.319,0.045-1.339-0.007-1.645,0.02c-0.306,0.025-0.49-0.185-0.193,0.136c0.297,0.319,1.206,1.181,1.974,1.779
	c0.767,0.601,2.337,1.43,2.631,1.819c0.293,0.39-0.513,0.429-0.871,0.521c-0.358,0.094-1.074-0.043-1.277,0.038
	s-0.371,0.104,0.059,0.445c0.429,0.342,1.89,1.232,2.515,1.606s0.822,0.422,1.238,0.638s0.975,0.494,1.258,0.658
	c0.284,0.165,0.397,0.21,0.445,0.329c0.048,0.118,0.158,0.279-0.155,0.387c-0.313,0.105-1.39,0.2-1.722,0.251
	c-0.332,0.052-0.287-0.028-0.271,0.059c0.016,0.087-0.293,0.154,0.368,0.464c0.661,0.311,2.722,1.092,3.6,1.395
	c0.877,0.303,1.363,0.245,1.664,0.426c0.3,0.181,0.316,0.442,0.136,0.658c-0.181,0.216-1.013,0.479-1.219,0.638
	c-0.207,0.158-0.458,0.155-0.02,0.312c0.438,0.153,1.613,0.479,2.651,0.619c1.038,0.139,2.934,0.048,3.579,0.213
	c0.645,0.164,0.41,0.513,0.291,0.772c-0.119,0.262-0.822,0.601-1.006,0.794c-0.184,0.193-0.303,0.307-0.097,0.367
	c0.207,0.063,0.371,0.087,1.335,0s2.874-0.184,4.451-0.521c1.577-0.339,3.528-0.711,5.011-1.511s2.983-2.222,3.89-3.289
	c0.906-1.066,1.509-2.363,1.548-3.114s-0.393-0.542-1.315-1.395c-0.922-0.851-2.806-2.589-4.219-3.715
	c-1.413-1.125-2.754-2.031-4.257-3.038c-1.503-1.006-3.122-2.021-4.76-2.999c-1.639-0.977-3.635-2.066-5.069-2.863
	c-1.435-0.797-2.88-1.513-3.541-1.916c-0.661-0.401-0.813-0.551-0.426-0.503c0.387,0.049,0.674-0.045,2.748,0.794
	c2.074,0.838,7.607,3.282,9.694,4.237c2.086,0.954,1.167,0.489,2.825,1.489c1.657,1,5.35,3.273,7.121,4.509
	C92.953,34.828,93.72,36.302,94.685,36.495L94.685,36.495z"/>
<path id="path3104" fill="#378E04" d="M109.495,36.496c-0.964,0.192-1.625-1.053-2.283-1.742c-0.658-0.689-1.322-1.387-1.664-2.399
	c-0.342-1.012-0.658-2.103-0.387-3.677s1.064-3.979,2.013-5.767c0.948-1.786,3.012-4.321,3.676-4.954
	c0.665-0.632,0.181,0.898,0.31,1.161c0.129,0.261,0.307,0.346,0.465,0.405c0.158,0.063,0.332,0.042,0.483-0.039
	c0.151-0.079-0.216,0.249,0.426-0.443c0.642-0.693,2.826-3.266,3.425-3.716c0.6-0.451,0.129,0.744,0.174,1.007
	c0.045,0.261,0.019,0.377,0.096,0.561c0.077,0.185,0.232,0.465,0.368,0.542c0.136,0.077,0.323-0.013,0.445-0.077
	c0.122-0.063-0.042,0.025,0.291-0.31c0.332-0.336,1.2-1.255,1.703-1.703s1.081-0.979,1.316-0.987
	c0.235-0.006,0.055,0.658,0.097,0.948s0.032,0.584,0.154,0.794c0.123,0.209,0.313,0.521,0.581,0.464
	c0.268-0.055,0.497-0.394,1.025-0.793c0.529-0.399,1.578-1.237,2.148-1.605c0.571-0.367,1.103-0.59,1.277-0.601
	c0.174-0.01-0.158,0.396-0.232,0.542c-0.074,0.146-0.177,0.122-0.213,0.328c-0.036,0.207-0.055,0.668,0,0.91
	s0.129,0.517,0.329,0.542c0.2,0.025,0.403-0.151,0.871-0.388c0.468-0.235,1.2-0.716,1.936-1.025c0.736-0.309,2.064-0.79,2.477-0.832
	c0.413-0.042,0.081,0.42,0,0.581c-0.081,0.161-0.364,0.254-0.483,0.387c-0.12,0.133-0.193,0.214-0.232,0.406
	c-0.039,0.193-0.032,0.581,0,0.755c0.032,0.174,0.064,0.266,0.193,0.29c0.129,0.026,0.113,0.025,0.581-0.136
	c0.467-0.161,1.46-0.615,2.225-0.832c0.764-0.216,2.006-0.468,2.361-0.464c0.354,0.003-0.112,0.326-0.232,0.482
	c-0.119,0.158-0.403,0.19-0.484,0.466c-0.081,0.272-0.132,0.974,0,1.181c0.132,0.206,0.151,0.187,0.793,0.058
	s2.067-0.709,3.058-0.832c0.99-0.122,2.609-0.178,2.883,0.098c0.274,0.272-1.348,1.226-1.238,1.548
	c0.109,0.323,0.935,0.332,1.896,0.387c0.961,0.057,3.357-0.328,3.87-0.058c0.513,0.271-0.513,1.087-0.793,1.684
	c-0.28,0.598-0.709,1.342-0.89,1.896c-0.181,0.554-0.539,1.226-0.194,1.432c0.345,0.207,2.058-0.474,2.265-0.193
	c0.206,0.281-0.438,1.197-1.026,1.879c-0.587,0.681-2.229,1.715-2.497,2.204c-0.268,0.49,0.503,0.623,0.89,0.736
	c0.387,0.112,1.152-0.094,1.432-0.059c0.281,0.035,0.655-0.217,0.252,0.271s-2.055,2.046-2.67,2.651
	c-0.616,0.605-0.849,0.758-1.026,0.986c-0.177,0.229-0.077,0.28-0.038,0.388c0.039,0.105-0.048,0.207,0.271,0.252
	c0.319,0.045,1.338-0.007,1.646,0.02c0.307,0.025,0.49-0.185,0.193,0.136c-0.297,0.319-1.207,1.181-1.974,1.78
	c-0.768,0.601-2.338,1.43-2.632,1.818c-0.293,0.391,0.513,0.43,0.871,0.521c0.358,0.095,1.074-0.042,1.277,0.039
	c0.203,0.08,0.371,0.104-0.058,0.445s-1.89,1.231-2.516,1.606c-0.625,0.374-0.822,0.422-1.238,0.638s-0.975,0.494-1.258,0.658
	c-0.284,0.165-0.397,0.21-0.445,0.329c-0.048,0.118-0.158,0.279,0.155,0.387c0.313,0.106,1.39,0.2,1.722,0.252
	c0.333,0.051,0.287-0.029,0.271,0.058c-0.016,0.088,0.293,0.155-0.368,0.465c-0.661,0.311-2.723,1.091-3.6,1.394
	c-0.877,0.304-1.364,0.245-1.664,0.426c-0.3,0.181-0.316,0.442-0.136,0.658c0.181,0.217,1.013,0.479,1.219,0.639
	c0.207,0.158,0.458,0.155,0.02,0.311c-0.438,0.154-1.613,0.48-2.651,0.62c-1.039,0.138-2.935,0.048-3.58,0.212
	c-0.645,0.165-0.41,0.513-0.291,0.773c0.119,0.262,0.822,0.601,1.006,0.793c0.184,0.194,0.303,0.308,0.097,0.368
	c-0.207,0.063-0.371,0.087-1.335,0c-0.964-0.087-2.874-0.184-4.451-0.521c-1.577-0.339-3.528-0.71-5.012-1.511
	c-1.484-0.8-2.983-2.222-3.89-3.29c-0.906-1.066-1.509-2.362-1.548-3.114s0.393-0.542,1.315-1.395
	c0.922-0.852,2.807-2.59,4.219-3.715c1.413-1.126,2.754-2.032,4.257-3.039c1.503-1.006,3.122-2.021,4.76-2.999
	c1.639-0.977,3.635-2.067,5.07-2.864c1.436-0.796,2.88-1.513,3.542-1.915c0.661-0.402,0.813-0.552,0.426-0.503
	c-0.387,0.048-0.674-0.046-2.749,0.793c-2.074,0.84-7.608,3.283-9.695,4.238c-2.087,0.954-1.167,0.489-2.825,1.489
	c-1.658,1-5.351,3.273-7.122,4.51C111.228,34.829,110.46,36.303,109.495,36.496z"/>
<path id="path3106" fill="none" d="M109.495,36.496c-0.964,0.192-1.625-1.053-2.283-1.742c-0.658-0.689-1.322-1.387-1.664-2.399
	c-0.342-1.012-0.658-2.103-0.387-3.677s1.064-3.979,2.013-5.767c0.948-1.786,3.012-4.321,3.676-4.954
	c0.665-0.632,0.181,0.898,0.31,1.161c0.129,0.261,0.307,0.346,0.465,0.405c0.158,0.063,0.332,0.042,0.483-0.039
	c0.151-0.079-0.216,0.249,0.426-0.443c0.642-0.693,2.826-3.266,3.425-3.716c0.6-0.451,0.129,0.744,0.174,1.007
	c0.045,0.261,0.019,0.377,0.096,0.561c0.077,0.185,0.232,0.465,0.368,0.542c0.136,0.077,0.323-0.013,0.445-0.077
	c0.122-0.063-0.042,0.025,0.291-0.31c0.332-0.336,1.2-1.255,1.703-1.703s1.081-0.979,1.316-0.987
	c0.235-0.006,0.055,0.658,0.097,0.948s0.032,0.584,0.154,0.794c0.123,0.209,0.313,0.521,0.581,0.464
	c0.268-0.055,0.497-0.394,1.025-0.793c0.529-0.399,1.578-1.237,2.148-1.605c0.571-0.367,1.103-0.59,1.277-0.601
	c0.174-0.01-0.158,0.396-0.232,0.542c-0.074,0.146-0.177,0.122-0.213,0.328c-0.036,0.207-0.055,0.668,0,0.91
	s0.129,0.517,0.329,0.542c0.2,0.025,0.403-0.151,0.871-0.388c0.468-0.235,1.2-0.716,1.936-1.025c0.736-0.309,2.064-0.79,2.477-0.832
	c0.413-0.042,0.081,0.42,0,0.581c-0.081,0.161-0.364,0.254-0.483,0.387c-0.12,0.133-0.193,0.214-0.232,0.406
	c-0.039,0.193-0.032,0.581,0,0.755c0.032,0.174,0.064,0.266,0.193,0.29c0.129,0.026,0.113,0.025,0.581-0.136
	c0.467-0.161,1.46-0.615,2.225-0.832c0.764-0.216,2.006-0.468,2.361-0.464c0.354,0.003-0.112,0.326-0.232,0.482
	c-0.119,0.158-0.403,0.19-0.484,0.466c-0.081,0.272-0.132,0.974,0,1.181c0.132,0.206,0.151,0.187,0.793,0.058
	s2.067-0.709,3.058-0.832c0.99-0.122,2.609-0.178,2.883,0.098c0.274,0.272-1.348,1.226-1.238,1.548
	c0.109,0.323,0.935,0.332,1.896,0.387c0.961,0.057,3.357-0.328,3.87-0.058c0.513,0.271-0.513,1.087-0.793,1.684
	c-0.28,0.598-0.709,1.342-0.89,1.896c-0.181,0.554-0.539,1.226-0.194,1.432c0.345,0.207,2.058-0.474,2.265-0.193
	c0.206,0.281-0.438,1.197-1.026,1.879c-0.587,0.681-2.229,1.715-2.497,2.204c-0.268,0.49,0.503,0.623,0.89,0.736
	c0.387,0.112,1.152-0.094,1.432-0.059c0.281,0.035,0.655-0.217,0.252,0.271s-2.055,2.046-2.67,2.651
	c-0.616,0.605-0.849,0.758-1.026,0.986c-0.177,0.229-0.077,0.28-0.038,0.388c0.039,0.105-0.048,0.207,0.271,0.252
	c0.319,0.045,1.338-0.007,1.646,0.02c0.307,0.025,0.49-0.185,0.193,0.136c-0.297,0.319-1.207,1.181-1.974,1.78
	c-0.768,0.601-2.338,1.43-2.632,1.818c-0.293,0.391,0.513,0.43,0.871,0.521c0.358,0.095,1.074-0.042,1.277,0.039
	c0.203,0.08,0.371,0.104-0.058,0.445s-1.89,1.231-2.516,1.606c-0.625,0.374-0.822,0.422-1.238,0.638s-0.975,0.494-1.258,0.658
	c-0.284,0.165-0.397,0.21-0.445,0.329c-0.048,0.118-0.158,0.279,0.155,0.387c0.313,0.106,1.39,0.2,1.722,0.252
	c0.333,0.051,0.287-0.029,0.271,0.058c-0.016,0.088,0.293,0.155-0.368,0.465c-0.661,0.311-2.723,1.091-3.6,1.394
	c-0.877,0.304-1.364,0.245-1.664,0.426c-0.3,0.181-0.316,0.442-0.136,0.658c0.181,0.217,1.013,0.479,1.219,0.639
	c0.207,0.158,0.458,0.155,0.02,0.311c-0.438,0.154-1.613,0.48-2.651,0.62c-1.039,0.138-2.935,0.048-3.58,0.212
	c-0.645,0.165-0.41,0.513-0.291,0.773c0.119,0.262,0.822,0.601,1.006,0.793c0.184,0.194,0.303,0.308,0.097,0.368
	c-0.207,0.063-0.371,0.087-1.335,0c-0.964-0.087-2.874-0.184-4.451-0.521c-1.577-0.339-3.528-0.71-5.012-1.511
	c-1.484-0.8-2.983-2.222-3.89-3.29c-0.906-1.066-1.509-2.362-1.548-3.114s0.393-0.542,1.315-1.395
	c0.922-0.852,2.807-2.59,4.219-3.715c1.413-1.126,2.754-2.032,4.257-3.039c1.503-1.006,3.122-2.021,4.76-2.999
	c1.639-0.977,3.635-2.067,5.07-2.864c1.436-0.796,2.88-1.513,3.542-1.915c0.661-0.402,0.813-0.552,0.426-0.503
	c-0.387,0.048-0.674-0.046-2.749,0.793c-2.074,0.84-7.608,3.283-9.695,4.238c-2.087,0.954-1.167,0.489-2.825,1.489
	c-1.658,1-5.351,3.273-7.122,4.51C111.228,34.829,110.46,36.303,109.495,36.496z"/>
<path id="path3108" fill="#D6033F" d="M88.376,56.036L88.376,56.036c0-4.358,6.1-7.894,13.624-7.894l0,0
	c7.524,0,13.624,3.534,13.624,7.894l0,0c0,4.357-6.1,7.892-13.624,7.892l0,0C94.476,63.928,88.376,60.395,88.376,56.036z"/>
<path id="path3110" fill="none" d="M88.376,56.036L88.376,56.036c0-4.358,6.1-7.894,13.624-7.894l0,0
	c7.524,0,13.624,3.534,13.624,7.894l0,0c0,4.357-6.1,7.892-13.624,7.892l0,0C94.476,63.928,88.376,60.395,88.376,56.036z"/>
<path id="path3112" fill="#D6033F" d="M107.427,86.365L107.427,86.365c-4.051-7.94-1.952-17.124,4.688-20.512l0,0
	c3.188-1.627,7.019-1.672,10.649-0.125c3.63,1.546,6.762,4.559,8.707,8.371l0,0c4.051,7.94,1.952,17.123-4.687,20.511l0,0
	C120.144,97.996,111.478,94.305,107.427,86.365z"/>
<path id="path3114" fill="none" d="M107.427,86.365L107.427,86.365c-4.051-7.94-1.952-17.124,4.688-20.512l0,0
	c3.188-1.627,7.019-1.672,10.649-0.125c3.63,1.546,6.762,4.559,8.707,8.371l0,0c4.051,7.94,1.952,17.123-4.687,20.511l0,0
	C120.144,97.996,111.478,94.305,107.427,86.365z"/>
<path id="path3116" fill="#D6033F" d="M96.318,87.292L96.318,87.292c4.05-7.941,1.952-17.124-4.687-20.511l0,0
	c-3.188-1.628-7.019-1.673-10.649-0.125c-3.63,1.546-6.762,4.558-8.707,8.369l0,0c-4.051,7.941-1.952,17.124,4.687,20.513l0,0
	C83.601,98.925,92.267,95.233,96.318,87.292z"/>
<path id="path3118" fill="none" d="M96.318,87.292L96.318,87.292c4.05-7.941,1.952-17.124-4.687-20.511l0,0
	c-3.188-1.628-7.019-1.673-10.649-0.125c-3.63,1.546-6.762,4.558-8.707,8.369l0,0c-4.051,7.941-1.952,17.124,4.687,20.513l0,0
	C83.601,98.925,92.267,95.233,96.318,87.292z"/>
<path id="path3120" fill="#D6033F" d="M125.218,51.298c-0.735-0.142-1.141-0.238-1.974-0.29c-0.832-0.052-2.116-0.067-3.019-0.021
	c-0.903,0.05-1.906,0.179-2.399,0.311c-0.493,0.132-0.57,0.178-0.561,0.484c0.01,0.306,0.1,0.625,0.619,1.354
	c0.519,0.729,1.716,2.146,2.496,3.02c0.781,0.873,1.225,1.297,2.187,2.226c0.961,0.929,2.535,2.399,3.58,3.348
	c1.045,0.949,1.59,1.464,2.689,2.341c1.1,0.879,2.854,2.164,3.909,2.923c1.055,0.758,1.638,1.178,2.419,1.626
	c0.78,0.447,1.741,0.866,2.264,1.063c0.522,0.197,0.639,0.194,0.871,0.116c0.232-0.077,0.438-0.067,0.522-0.58
	c0.083-0.513,0.042-1.625-0.021-2.496c-0.062-0.87-0.094-1.687-0.349-2.729c-0.254-1.042-0.712-2.457-1.18-3.521
	c-0.468-1.063-0.974-1.97-1.625-2.863c-0.651-0.893-1.451-1.762-2.284-2.497c-0.832-0.734-1.757-1.374-2.709-1.915
	c-0.951-0.542-2.093-1.02-2.999-1.335C126.75,51.543,125.954,51.44,125.218,51.298L125.218,51.298z"/>
<path id="path3122" fill="none" d="M125.218,51.298c-0.735-0.142-1.141-0.238-1.974-0.29c-0.832-0.052-2.116-0.067-3.019-0.021
	c-0.903,0.05-1.906,0.179-2.399,0.311c-0.493,0.132-0.57,0.178-0.561,0.484c0.01,0.306,0.1,0.625,0.619,1.354
	c0.519,0.729,1.716,2.146,2.496,3.02c0.781,0.873,1.225,1.297,2.187,2.226c0.961,0.929,2.535,2.399,3.58,3.348
	c1.045,0.949,1.59,1.464,2.689,2.341c1.1,0.879,2.854,2.164,3.909,2.923c1.055,0.758,1.638,1.178,2.419,1.626
	c0.78,0.447,1.741,0.866,2.264,1.063c0.522,0.197,0.639,0.194,0.871,0.116c0.232-0.077,0.438-0.067,0.522-0.58
	c0.083-0.513,0.042-1.625-0.021-2.496c-0.062-0.87-0.094-1.687-0.349-2.729c-0.254-1.042-0.712-2.457-1.18-3.521
	c-0.468-1.063-0.974-1.97-1.625-2.863c-0.651-0.893-1.451-1.762-2.284-2.497c-0.832-0.734-1.757-1.374-2.709-1.915
	c-0.951-0.542-2.093-1.02-2.999-1.335C126.75,51.543,125.954,51.44,125.218,51.298L125.218,51.298z"/>
<path id="path3124" fill="#D6033F" d="M64.977,61.413c-0.257,0.703-0.417,1.089-0.599,1.901c-0.182,0.813-0.402,2.078-0.498,2.979
	c-0.096,0.898-0.127,1.91-0.075,2.418c0.052,0.509,0.085,0.592,0.389,0.631c0.304,0.039,0.634,0.001,1.436-0.396
	c0.802-0.396,2.389-1.354,3.376-1.985c0.987-0.632,1.475-1.004,2.544-1.807c1.069-0.802,2.771-2.122,3.873-3.004
	s1.698-1.338,2.738-2.284c1.04-0.947,2.589-2.477,3.504-3.396c0.915-0.921,1.422-1.431,1.988-2.13
	c0.566-0.7,1.132-1.583,1.409-2.067c0.277-0.483,0.292-0.6,0.253-0.841c-0.04-0.242,0.003-0.444-0.49-0.607
	c-0.493-0.164-1.598-0.3-2.467-0.377c-0.87-0.077-1.681-0.175-2.75-0.089c-1.069,0.087-2.539,0.314-3.664,0.607
	s-2.1,0.649-3.085,1.15c-0.985,0.502-1.969,1.153-2.827,1.858c-0.858,0.705-1.635,1.519-2.321,2.371
	c-0.686,0.854-1.337,1.905-1.793,2.75S65.233,60.709,64.977,61.413z"/>
<path id="path3126" fill="none" d="M64.977,61.413c-0.257,0.703-0.417,1.089-0.599,1.901c-0.182,0.813-0.402,2.078-0.498,2.979
	c-0.096,0.898-0.127,1.91-0.075,2.418c0.052,0.509,0.085,0.592,0.389,0.631c0.304,0.039,0.634,0.001,1.436-0.396
	c0.802-0.396,2.389-1.354,3.376-1.985c0.987-0.632,1.475-1.004,2.544-1.807c1.069-0.802,2.771-2.122,3.873-3.004
	s1.698-1.338,2.738-2.284c1.04-0.947,2.589-2.477,3.504-3.396c0.915-0.921,1.422-1.431,1.988-2.13
	c0.566-0.7,1.132-1.583,1.409-2.067c0.277-0.483,0.292-0.6,0.253-0.841c-0.04-0.242,0.003-0.444-0.49-0.607
	c-0.493-0.164-1.598-0.3-2.467-0.377c-0.87-0.077-1.681-0.175-2.75-0.089c-1.069,0.087-2.539,0.314-3.664,0.607
	s-2.1,0.649-3.085,1.15c-0.985,0.502-1.969,1.153-2.827,1.858c-0.858,0.705-1.635,1.519-2.321,2.371
	c-0.686,0.854-1.337,1.905-1.793,2.75S65.233,60.709,64.977,61.413z"/>
<path id="path3128" fill="#D6033F" d="M147.529,80.922c-0.3-0.562-0.591-1.1-0.93-1.646c-0.338-0.545-0.751-1.164-1.103-1.626
	c-0.352-0.461-0.648-0.778-1.006-1.141c-0.358-0.362-0.758-0.704-1.142-1.026c-0.384-0.321-0.833-0.667-1.161-0.908
	c-0.329-0.241-0.558-0.391-0.813-0.542s-0.458-0.316-0.716-0.367c-0.258-0.052-0.558-0.094-0.832,0.059
	c-0.274,0.151-0.522,0.394-0.813,0.852s-0.684,0.961-0.929,1.896c-0.245,0.936-0.477,2.38-0.542,3.715s-0.036,2.511,0.155,4.296
	c0.19,1.787,0.563,4.52,0.987,6.425c0.422,1.905,1.054,3.758,1.548,5.012c0.493,1.255,0.954,1.894,1.412,2.516
	s0.974,0.98,1.335,1.219c0.361,0.239,0.509,0.316,0.832,0.214c0.322-0.104,0.613-0.322,1.104-0.832
	c0.49-0.51,1.322-1.415,1.838-2.226c0.516-0.81,0.929-1.835,1.258-2.632c0.329-0.797,0.532-1.436,0.716-2.146
	c0.184-0.714,0.31-1.253,0.387-2.13c0.078-0.878,0.119-2.234,0.078-3.135c-0.042-0.899-0.197-1.577-0.329-2.264
	c-0.132-0.688-0.242-1.261-0.464-1.857C148.177,82.048,147.829,81.484,147.529,80.922z"/>
<path id="path3130" fill="none" d="M147.529,80.922c-0.3-0.562-0.591-1.1-0.93-1.646c-0.338-0.545-0.751-1.164-1.103-1.626
	c-0.352-0.461-0.648-0.778-1.006-1.141c-0.358-0.362-0.758-0.704-1.142-1.026c-0.384-0.321-0.833-0.667-1.161-0.908
	c-0.329-0.241-0.558-0.391-0.813-0.542s-0.458-0.316-0.716-0.367c-0.258-0.052-0.558-0.094-0.832,0.059
	c-0.274,0.151-0.522,0.394-0.813,0.852s-0.684,0.961-0.929,1.896c-0.245,0.936-0.477,2.38-0.542,3.715s-0.036,2.511,0.155,4.296
	c0.19,1.787,0.563,4.52,0.987,6.425c0.422,1.905,1.054,3.758,1.548,5.012c0.493,1.255,0.954,1.894,1.412,2.516
	s0.974,0.98,1.335,1.219c0.361,0.239,0.509,0.316,0.832,0.214c0.322-0.104,0.613-0.322,1.104-0.832
	c0.49-0.51,1.322-1.415,1.838-2.226c0.516-0.81,0.929-1.835,1.258-2.632c0.329-0.797,0.532-1.436,0.716-2.146
	c0.184-0.714,0.31-1.253,0.387-2.13c0.078-0.878,0.119-2.234,0.078-3.135c-0.042-0.899-0.197-1.577-0.329-2.264
	c-0.132-0.688-0.242-1.261-0.464-1.857C148.177,82.048,147.829,81.484,147.529,80.922z"/>
<path id="path3132" fill="#D6033F" d="M54.923,81.287c0.3-0.563,0.59-1.101,0.929-1.646c0.338-0.545,0.751-1.164,1.103-1.625
	c0.352-0.462,0.648-0.78,1.006-1.142s0.758-0.703,1.142-1.026c0.384-0.322,0.832-0.667,1.161-0.909
	c0.329-0.24,0.558-0.39,0.813-0.542c0.254-0.15,0.458-0.314,0.716-0.366c0.258-0.053,0.558-0.095,0.833,0.059
	c0.274,0.151,0.522,0.394,0.812,0.851c0.291,0.458,0.685,0.961,0.929,1.896c0.245,0.936,0.477,2.38,0.542,3.715
	c0.064,1.336,0.036,2.51-0.155,4.296c-0.19,1.787-0.564,4.52-0.987,6.425c-0.422,1.905-1.055,3.757-1.548,5.012
	c-0.493,1.255-0.954,1.894-1.412,2.516c-0.458,0.623-0.974,0.979-1.335,1.22c-0.361,0.238-0.509,0.315-0.832,0.212
	c-0.322-0.104-0.613-0.321-1.103-0.832c-0.49-0.509-1.322-1.415-1.838-2.225c-0.516-0.81-0.929-1.835-1.257-2.632
	c-0.329-0.797-0.532-1.436-0.716-2.147c-0.184-0.713-0.309-1.252-0.387-2.129c-0.077-0.877-0.119-2.234-0.077-3.135
	c0.042-0.9,0.197-1.577,0.329-2.264c0.132-0.688,0.242-1.262,0.464-1.857C54.274,82.412,54.623,81.848,54.923,81.287z"/>
<path id="path3134" fill="none" d="M54.923,81.287c0.3-0.563,0.59-1.101,0.929-1.646c0.338-0.545,0.751-1.164,1.103-1.625
	c0.352-0.462,0.648-0.78,1.006-1.142s0.758-0.703,1.142-1.026c0.384-0.322,0.832-0.667,1.161-0.909
	c0.329-0.24,0.558-0.39,0.813-0.542c0.254-0.15,0.458-0.314,0.716-0.366c0.258-0.053,0.558-0.095,0.833,0.059
	c0.274,0.151,0.522,0.394,0.812,0.851c0.291,0.458,0.685,0.961,0.929,1.896c0.245,0.936,0.477,2.38,0.542,3.715
	c0.064,1.336,0.036,2.51-0.155,4.296c-0.19,1.787-0.564,4.52-0.987,6.425c-0.422,1.905-1.055,3.757-1.548,5.012
	c-0.493,1.255-0.954,1.894-1.412,2.516c-0.458,0.623-0.974,0.979-1.335,1.22c-0.361,0.238-0.509,0.315-0.832,0.212
	c-0.322-0.104-0.613-0.321-1.103-0.832c-0.49-0.509-1.322-1.415-1.838-2.225c-0.516-0.81-0.929-1.835-1.257-2.632
	c-0.329-0.797-0.532-1.436-0.716-2.147c-0.184-0.713-0.309-1.252-0.387-2.129c-0.077-0.877-0.119-2.234-0.077-3.135
	c0.042-0.9,0.197-1.577,0.329-2.264c0.132-0.688,0.242-1.262,0.464-1.857C54.274,82.412,54.623,81.848,54.923,81.287z"/>
<path id="path3136" fill="#FBDB85" d="M75.177,107.318c-1.429,0.81-1.75,1.097-2.611,1.736c-0.861,0.641-1.989,1.639-2.557,2.106
	c-0.567,0.468-0.698,0.431-0.848,0.701c-0.15,0.271-0.042,0.22-0.054,0.929c-0.011,0.709-0.072,2.245-0.013,3.325
	c0.059,1.079,0.196,2.142,0.371,3.152c0.175,1.011,0.323,1.87,0.676,2.915c0.354,1.044,0.872,2.313,1.444,3.353
	c0.572,1.04,1.228,1.982,1.987,2.889c0.759,0.906,1.691,1.795,2.57,2.544c0.879,0.748,1.515,1.265,2.703,1.947
	c1.188,0.682,3.151,1.621,4.425,2.146c1.274,0.525,2.016,0.693,3.22,1.007c1.203,0.313,2.153,0.647,4.001,0.875
	c1.848,0.228,4.548,0.422,7.088,0.489c2.539,0.069,6.092-0.015,8.148-0.079c2.056-0.063,2.771-0.144,4.187-0.305
	s2.924-0.397,4.306-0.662c1.382-0.266,2.844-0.583,3.988-0.928s1.811-0.653,2.875-1.141c1.064-0.484,2.458-1.133,3.511-1.774
	c1.053-0.643,2.034-1.401,2.809-2.08c0.775-0.678,1.204-1.201,1.842-1.987c0.638-0.786,1.396-1.65,1.987-2.729
	c0.592-1.077,1.186-2.464,1.563-3.736c0.377-1.271,0.567-2.548,0.702-3.896c0.135-1.348,0.133-3.185,0.106-4.187
	c-0.027-1.003-0.058-1.308-0.266-1.829c-0.208-0.521-0.406-0.742-0.98-1.298c-0.574-0.557-1.537-1.409-2.464-2.041
	c-0.928-0.631-1.802-1.117-3.101-1.748c-1.298-0.632-3.087-1.379-4.69-2.041c-1.603-0.663-3.118-1.347-4.928-1.935
	c-1.811-0.587-4.284-1.215-5.936-1.59c-1.651-0.375-2.628-0.494-3.975-0.662c-1.347-0.168-2.632-0.278-4.107-0.346
	c-1.475-0.066-3.025-0.133-4.743-0.053c-1.718,0.079-3.746,0.238-5.565,0.53c-1.82,0.291-3.4,0.671-5.353,1.219
	s-4.306,1.203-6.359,2.066C79.085,105.068,76.605,106.51,75.177,107.318L75.177,107.318z"/>
<path id="path3138" fill="none" d="M75.177,107.318c-1.429,0.81-1.75,1.097-2.611,1.736c-0.861,0.641-1.989,1.639-2.557,2.106
	c-0.567,0.468-0.698,0.431-0.848,0.701c-0.15,0.271-0.042,0.22-0.054,0.929c-0.011,0.709-0.072,2.245-0.013,3.325
	c0.059,1.079,0.196,2.142,0.371,3.152c0.175,1.011,0.323,1.87,0.676,2.915c0.354,1.044,0.872,2.313,1.444,3.353
	c0.572,1.04,1.228,1.982,1.987,2.889c0.759,0.906,1.691,1.795,2.57,2.544c0.879,0.748,1.515,1.265,2.703,1.947
	c1.188,0.682,3.151,1.621,4.425,2.146c1.274,0.525,2.016,0.693,3.22,1.007c1.203,0.313,2.153,0.647,4.001,0.875
	c1.848,0.228,4.548,0.422,7.088,0.489c2.539,0.069,6.092-0.015,8.148-0.079c2.056-0.063,2.771-0.144,4.187-0.305
	s2.924-0.397,4.306-0.662c1.382-0.266,2.844-0.583,3.988-0.928s1.811-0.653,2.875-1.141c1.064-0.484,2.458-1.133,3.511-1.774
	c1.053-0.643,2.034-1.401,2.809-2.08c0.775-0.678,1.204-1.201,1.842-1.987c0.638-0.786,1.396-1.65,1.987-2.729
	c0.592-1.077,1.186-2.464,1.563-3.736c0.377-1.271,0.567-2.548,0.702-3.896c0.135-1.348,0.133-3.185,0.106-4.187
	c-0.027-1.003-0.058-1.308-0.266-1.829c-0.208-0.521-0.406-0.742-0.98-1.298c-0.574-0.557-1.537-1.409-2.464-2.041
	c-0.928-0.631-1.802-1.117-3.101-1.748c-1.298-0.632-3.087-1.379-4.69-2.041c-1.603-0.663-3.118-1.347-4.928-1.935
	c-1.811-0.587-4.284-1.215-5.936-1.59c-1.651-0.375-2.628-0.494-3.975-0.662c-1.347-0.168-2.632-0.278-4.107-0.346
	c-1.475-0.066-3.025-0.133-4.743-0.053c-1.718,0.079-3.746,0.238-5.565,0.53c-1.82,0.291-3.4,0.671-5.353,1.219
	s-4.306,1.203-6.359,2.066C79.085,105.068,76.605,106.51,75.177,107.318L75.177,107.318z"/>
<path id="path3142" fill="none" d="M87.746,114.412L87.746,114.412c0-4.725,1.17-8.554,2.614-8.554l0,0
	c0.693,0,1.358,0.901,1.848,2.506c0.49,1.604,0.766,3.778,0.766,6.048l0,0c0,4.724-1.17,8.553-2.614,8.553l0,0
	c-0.693,0-1.358-0.9-1.849-2.505C88.021,118.857,87.746,116.681,87.746,114.412z"/>
<path id="path3146" fill="none" d="M87.735,111.414L87.735,111.414c0,6.38,1.175,11.551,2.624,11.551
	c1.449,0,2.624-5.171,2.624-11.551l0,0C91.261,113.34,89.458,113.34,87.735,111.414z"/>
<path id="path3150" fill="none" d="M109.58,114.412L109.58,114.412c0-4.725,1.17-8.554,2.614-8.554l0,0
	c0.693,0,1.358,0.901,1.848,2.506c0.49,1.604,0.766,3.778,0.766,6.048l0,0c0,4.724-1.17,8.553-2.614,8.553l0,0
	c-0.693,0-1.358-0.9-1.848-2.505C109.855,118.857,109.58,116.681,109.58,114.412z"/>
<path id="path3154" fill="none" d="M109.57,111.414L109.57,111.414c0,6.38,1.175,11.551,2.624,11.551
	c1.449,0,2.624-5.171,2.624-11.551l0,0C113.096,113.34,111.292,113.34,109.57,111.414z"/>
<g>
	<ellipse cx="111.498" cy="114.418" rx="3.125" ry="9.417"/>
	<g>
		<path fill="#FFFFFF" d="M111.386,110.59c0.848,0,1.657,0.208,2.409,0.571c-0.124-1.034-0.306-1.984-0.54-2.791
			c-0.465-1.604-1.097-2.505-1.756-2.505c-1.024,0-1.903,2.135-2.283,5.182C109.899,110.753,110.628,110.59,111.386,110.59z"/>
	</g>
	<ellipse cx="91.415" cy="114.418" rx="3.125" ry="9.417"/>
	<g>
		<path fill="#FFFFFF" d="M91.303,110.59c0.848,0,1.657,0.208,2.409,0.571c-0.124-1.034-0.306-1.984-0.54-2.791
			c-0.465-1.604-1.097-2.505-1.756-2.505c-1.024,0-1.903,2.135-2.283,5.182C89.816,110.753,90.544,110.59,91.303,110.59z"/>
	</g>
</g>
</svg>
