<?xml version="1.0" encoding="utf-8"?>
<!-- Generator: Adobe Illustrator 16.0.0, SVG Export Plug-In . SVG Version: 6.00 Build 0)  -->
<!DOCTYPE svg PUBLIC "-//W3C//DTD SVG 1.1//EN" "http://www.w3.org/Graphics/SVG/1.1/DTD/svg11.dtd">
<svg version="1.1" id="Layer_1" xmlns:svg="http://www.w3.org/2000/svg"
	 xmlns="http://www.w3.org/2000/svg" xmlns:xlink="http://www.w3.org/1999/xlink" x="0px" y="0px" width="398px" height="124.394px"
	 viewBox="93.249 12.002 398 124.394" enable-background="new 93.249 12.002 398 124.394" xml:space="preserve">
<linearGradient id="SVGID_1_" gradientUnits="userSpaceOnUse" x1="-1022.3281" y1="688.844" x2="-1022.3281" y2="615.2807" gradientTransform="matrix(1 0 0 1 1218 -600.1602)">
	<stop  offset="0" style="stop-color:#9B9B9B"/>
	<stop  offset="1" style="stop-color:#5B5C60"/>
</linearGradient>
<path fill="url(#SVGID_1_)" d="M174.233,127.865l1.17-2.779V17.825l-2.926-3.659h36.438l9.95,6v49.897l-27.071,15.071v25.462h3.659
	L174.233,127.865z M191.5,66.845l11.707-7.022v-28.39H191.5V66.845z"/>
<linearGradient id="SVGID_2_" gradientUnits="userSpaceOnUse" x1="-972.3579" y1="688.843" x2="-972.3579" y2="615.2805" gradientTransform="matrix(1 0 0 1 1218 -600.1602)">
	<stop  offset="0" style="stop-color:#9B9B9B"/>
	<stop  offset="1" style="stop-color:#5B5C60"/>
</linearGradient>
<path fill="url(#SVGID_2_)" d="M261.151,14.166l6.439,7.463v85.166l-23.852,20.191l-20.047-18.585V22.214l6.146-8.048H261.151z
	 M240.228,29.97v65.848l9.805,8.635V29.969L240.228,29.97L240.228,29.97z"/>
<linearGradient id="SVGID_3_" gradientUnits="userSpaceOnUse" x1="-924.3633" y1="688.843" x2="-924.3633" y2="615.2802" gradientTransform="matrix(1 0 0 1 1218 -600.1602)">
	<stop  offset="0" style="stop-color:#9B9B9B"/>
	<stop  offset="1" style="stop-color:#5B5C60"/>
</linearGradient>
<path fill="url(#SVGID_3_)" d="M272.856,125.378V17.825l-2.926-3.659h36.437l9.95,6v30.876l-15.364,8.78l15.364,8.192v28.242
	l1.024,0.879l-16.975,12.438V74.893l-11.12-5.854v44.046l2.195,3.22l-20.196,14.926L272.856,125.378z M288.953,50.749l11.706-7.024
	V31.433h-11.706V50.749z"/>
<linearGradient id="SVGID_4_" gradientUnits="userSpaceOnUse" x1="-874.6846" y1="688.844" x2="-874.6846" y2="615.2807" gradientTransform="matrix(1 0 0 1 1218 -600.1602)">
	<stop  offset="0" style="stop-color:#9B9B9B"/>
	<stop  offset="1" style="stop-color:#5B5C60"/>
</linearGradient>
<path fill="url(#SVGID_4_)" d="M334.608,31.433h-13.024V17.824l-2.926-3.659h49.313l-2.927,3.659v13.608h-14.196v83.553l2.342,3.514
	l-20.34,14.633l1.756-7.902V31.433H334.608z"/>
<linearGradient id="SVGID_5_" gradientUnits="userSpaceOnUse" x1="-827.4219" y1="688.844" x2="-827.4219" y2="615.2808" gradientTransform="matrix(1 0 0 1 1218 -600.1602)">
	<stop  offset="0" style="stop-color:#9B9B9B"/>
	<stop  offset="1" style="stop-color:#5B5C60"/>
</linearGradient>
<path fill="url(#SVGID_5_)" d="M403.82,14.166l9.951,6v14.779h-17.561v-3.512h-9.805v21.803l27.363,14.778v24.146l-44.632,35.704
	l1.172-2.779V77.088h16.097v10.39l9.805-7.17v-6l-25.899-14.634V17.825l-2.928-3.659H403.82z"/>
<linearGradient id="SVGID_6_" gradientUnits="userSpaceOnUse" x1="-1021.4702" y1="733.1409" x2="-1021.4702" y2="656.6036" gradientTransform="matrix(1 0 0 1 1218 -600.1602)">
	<stop  offset="0" style="stop-color:#F9DA55"/>
	<stop  offset="1" style="stop-color:#E04305"/>
</linearGradient>
<path fill="url(#SVGID_6_)" d="M218.845,60.32v9.688l-27.072,15.071v25.461h3.66l-21.219,17.268l1.171-2.779V85.201"/>
<linearGradient id="SVGID_7_" gradientUnits="userSpaceOnUse" x1="-972.377" y1="733.1409" x2="-972.377" y2="656.6047" gradientTransform="matrix(1 0 0 1 1218 -600.1602)">
	<stop  offset="0" style="stop-color:#F9DA55"/>
	<stop  offset="1" style="stop-color:#E04305"/>
</linearGradient>
<path fill="url(#SVGID_7_)" d="M267.572,84.119v22.615l-23.853,20.193l-20.047-18.585V59.869l16.535,9.014V95.76l9.804,8.634V74.475
	L267.572,84.119z"/>
<linearGradient id="SVGID_8_" gradientUnits="userSpaceOnUse" x1="-923.7227" y1="733.1418" x2="-923.7227" y2="656.6018" gradientTransform="matrix(1 0 0 1 1218 -600.1602)">
	<stop  offset="0" style="stop-color:#F9DA55"/>
	<stop  offset="1" style="stop-color:#E04305"/>
</linearGradient>
<path fill="url(#SVGID_8_)" d="M289.228,76.907v36.12l2.194,3.22l-20.192,14.927l1.608-5.854V84.66 M312.069,65.703l4.229,2.256
	V96.2l1.025,0.878l-16.976,12.438v-34.68l-3.293-1.732"/>
<linearGradient id="SVGID_9_" gradientUnits="userSpaceOnUse" x1="-874.9956" y1="733.1409" x2="-874.9956" y2="656.6032" gradientTransform="matrix(1 0 0 1 1218 -600.1602)">
	<stop  offset="0" style="stop-color:#F9DA55"/>
	<stop  offset="1" style="stop-color:#E04305"/>
</linearGradient>
<path fill="url(#SVGID_9_)" d="M350.833,74.203v40.727l2.341,3.512l-20.34,14.634l1.756-7.902V64.017"/>
<linearGradient id="SVGID_10_" gradientUnits="userSpaceOnUse" x1="-826.5625" y1="733.1409" x2="-826.5625" y2="656.6034" gradientTransform="matrix(1 0 0 1 1218 -600.1602)">
	<stop  offset="0" style="stop-color:#F9DA55"/>
	<stop  offset="1" style="stop-color:#E04305"/>
</linearGradient>
<path fill="url(#SVGID_10_)" d="M403.895,62.633l9.858,5.326v24.145l-44.632,35.704l1.171-2.779V77.031h16.096v10.391l9.806-7.171
	v-5.999l-8.329-4.708"/>
<polygon fill="#542209" points="175.901,83.96 217.281,60.023 218.364,61.898 176.985,85.834 "/>
<polygon fill="#542209" points="224.338,61.506 225.372,59.604 240.722,67.934 239.692,69.834 "/>
<polygon fill="#542209" points="250.54,75.686 251.64,73.821 267.461,83.153 266.36,85.018 "/>
<polygon fill="#542209" points="272.914,83.797 288.465,75.953 289.44,77.885 273.89,85.727 "/>
<polygon fill="#542209" points="297.238,71.634 309.542,65.143 310.551,67.059 298.246,73.549 "/>
<polygon fill="#542209" points="335.008,65.109 336.201,63.305 349.724,72.229 348.532,74.035 "/>
<polygon fill="#542209" points="387.896,68.225 401.821,61.869 402.721,63.839 388.793,70.195 "/>
<path d="M173.778,124.217V17.852l-4.678-5.849h40.264l11.119,6.705v51.77l-27.07,15.07v22.886h6.599l-24.756,20.146l-5.048,4.106
	L173.778,124.217L173.778,124.217z M175.728,127.952l-1.496-0.629L175.728,127.952L175.728,127.952z M177.024,16.712v106.244
	l13.857-11.277h-0.714V83.641l27.067-15.072V20.539l-8.774-5.291l-32.612-0.002L177.024,16.712L177.024,16.712z M189.875,29.27
	h14.953v30.93l-12.496,7.494l-0.835-1.391l0.835,1.391l-2.458,1.479L189.875,29.27L189.875,29.27z M193.12,63.437l8.46-5.075V32.515
	l-8.46-0.002V63.437L193.12,63.437z"/>
<path d="M222.067,108.567V21.124l6.965-9.121h32.117v1.622v-1.622h0.742l7.32,8.479v86.521l-25.525,21.61L222.067,108.567
	L222.067,108.567z M225.312,22.223v84.933l18.475,17.123l22.18-18.775V21.689l-5.56-6.441H230.64L225.312,22.223L225.312,22.223z
	 M238.603,96.009v-66.58v-1.623h13.049v79.7L238.603,96.009L238.603,96.009z M241.849,94.544l6.558,5.774V31.052h-6.558V94.544
	L241.849,94.544z M240.226,31.052v-1.623V31.052L240.226,31.052z"/>
<path d="M271.231,124.612l-0.002-106.76l-4.678-5.85h40.264l11.123,6.707v32.733l-13.633,7.788l13.633,7.271l-0.002,28.469
	l2.014,1.724l-21.208,15.534V75.331l-7.875-4.146v40.857l2.794,4.095l-25.227,18.645L271.231,124.612L271.231,124.612z
	 M274.478,125.055l-0.425,1.541l15.167-11.209l-1.598-2.346V65.812l14.365,7.561l-0.002,32.458l12.744-9.337l-0.039-0.031V68.448
	l-17.099-9.118l17.099-9.771V20.54l-8.779-5.293h-32.605l1.174,1.466v108.122L274.478,125.055L274.478,125.055z M287.329,29.27
	h14.952V44.1l-12.494,7.499l-0.836-1.392l0.836,1.392l-2.458,1.476V29.27L287.329,29.27z M290.574,47.341l8.461-5.078v-9.75h-8.461
	V47.341L290.574,47.341z"/>
<path d="M332.981,124.512V32.514H319.96V17.852l-4.677-5.849h56.063l-4.681,5.851v14.66h-14.195v81.442l2.938,4.402l-25.068,18.037
	L332.981,124.512L332.981,124.512z M336.229,29.27v95.598l-0.873,3.924l15.612-11.234l-1.743-2.619V29.27h14.194V16.713l1.173-1.465
	h-42.562l1.174,1.465V29.27h11.399v1.623V29.27H336.229L336.229,29.27z"/>
<path d="M368.687,124.216V74.923h19.342v8.813l6.559-4.794V74.71l-25.898-14.63V17.853l-4.678-5.851h39.811v1.623v-1.623h0.453
	l11.122,6.706v17.318H394.59v-3.512h-6.562v19.212l27.368,14.781V92.4l-50.234,40.18L368.687,124.216L368.687,124.216z
	 M371.933,123.01l40.212-32.17V68.441l-27.362-14.778V29.269h13.051l-0.002,3.512h14.315V20.539l-8.775-5.291l-32.613-0.002
	l1.177,1.468l-0.004,41.471l25.902,14.633v7.77l-13.051,9.546V78.169h-12.85V123.01L371.933,123.01z"/>
</svg>
