<?xml version="1.0" encoding="utf-8"?>
<!-- Generator: Adobe Illustrator 16.0.0, SVG Export Plug-In . SVG Version: 6.00 Build 0)  -->
<!DOCTYPE svg PUBLIC "-//W3C//DTD SVG 1.1//EN" "http://www.w3.org/Graphics/SVG/1.1/DTD/svg11.dtd">
<svg version="1.1" id="Layer_1" xmlns="http://www.w3.org/2000/svg" xmlns:xlink="http://www.w3.org/1999/xlink" x="0px" y="0px"
	 width="1079.31px" height="1080px" viewBox="420.695 0 1079.31 1080" enable-background="new 420.695 0 1079.31 1080"
	 xml:space="preserve">
<linearGradient id="SVGID_1_" gradientUnits="userSpaceOnUse" x1="0.4771" y1="1080.7168" x2="0.4771" y2="1079.7168" gradientTransform="matrix(1078.8413 0 0 -1080 446.0793 1167174.5)">
	<stop  offset="0" style="stop-color:#111D2E"/>
	<stop  offset="0.2125" style="stop-color:#051839"/>
	<stop  offset="0.4069" style="stop-color:#0A1B48"/>
	<stop  offset="0.5811" style="stop-color:#132E62"/>
	<stop  offset="0.7376" style="stop-color:#144B7E"/>
	<stop  offset="0.8728" style="stop-color:#136497"/>
	<stop  offset="1" style="stop-color:#1387B8"/>
</linearGradient>
<path fill="url(#SVGID_1_)" d="M442.671,695.325C509.386,917.861,715.758,1080,960.005,1080c298.229,0,540-241.771,540-540
	c0-298.233-241.771-540-540-540C673.823,0,439.658,222.624,421.164,504.124c34.945,58.681,48.581,94.975,21.512,191.201H442.671z"/>
<path fill="#FFFFFF" d="M932.188,404.754c0,0.909,0,1.817,0.047,2.67L800.095,599.377c-21.405-0.974-42.885,2.781-63.251,11.171
	c-8.979,3.661-17.392,8.157-25.285,13.35L421.399,504.448c0.003,0-6.714,110.456,21.267,192.777l205.126,84.639
	c10.3,46.027,41.874,86.4,88.458,105.821c76.217,31.844,164.095-4.449,195.8-80.698c8.251-19.932,12.098-40.836,11.542-61.694
	l189.069-135.116c1.529,0.047,3.105,0.093,4.635,0.093c113.146,0,205.107-92.24,205.107-205.516
	c0-113.284-91.962-205.44-205.107-205.44C1024.197,199.313,932.188,291.47,932.188,404.754L932.188,404.754z M900.484,793.73
	c-24.539,58.913-92.24,86.863-151.089,62.344c-27.148-11.311-47.646-32.029-59.47-56.735l66.77,27.672
	c43.399,18.077,93.191-2.503,111.231-45.888c18.096-43.432-2.434-93.307-45.81-111.384l-69.023-28.6
	c26.635-10.104,56.911-10.476,85.2,1.298c28.521,11.866,50.648,34.208,62.376,62.761
	C912.396,733.751,912.351,765.271,900.484,793.73 M1137.296,541.669c-75.321,0-136.646-61.417-136.646-136.915
	c0-75.438,61.324-136.872,136.646-136.872c75.368,0,136.692,61.435,136.692,136.872
	C1273.988,480.252,1212.664,541.669,1137.296,541.669 M1034.904,404.546c0-56.795,45.981-102.86,102.624-102.86
	c56.688,0,102.669,46.065,102.669,102.86c0,56.8-45.98,102.822-102.669,102.822C1080.886,507.368,1034.904,461.346,1034.904,404.546
	z"/>
</svg>
