<?xml version="1.0" encoding="utf-8"?>
<!-- Generator: Adobe Illustrator 16.0.0, SVG Export Plug-In . SVG Version: 6.00 Build 0)  -->
<!DOCTYPE svg PUBLIC "-//W3C//DTD SVG 1.1//EN" "http://www.w3.org/Graphics/SVG/1.1/DTD/svg11.dtd">
<svg version="1.1"
	 id="svg2" xmlns:dc="http://purl.org/dc/elements/1.1/" xmlns:cc="http://creativecommons.org/ns#" xmlns:rdf="http://www.w3.org/1999/02/22-rdf-syntax-ns#" xmlns:svg="http://www.w3.org/2000/svg" xmlns:sodipodi="http://sodipodi.sourceforge.net/DTD/sodipodi-0.dtd" xmlns:inkscape="http://www.inkscape.org/namespaces/inkscape" sodipodi:docname="system.svg" inkscape:version="0.91 r13725"
	 xmlns="http://www.w3.org/2000/svg" xmlns:xlink="http://www.w3.org/1999/xlink" x="0px" y="0px" width="374.299px"
	 height="94.622px" viewBox="13.012 8.029 374.299 94.622" enable-background="new 13.012 8.029 374.299 94.622"
	 xml:space="preserve">
<sodipodi:namedview  showgrid="false" inkscape:cy="57.826649" inkscape:cx="199.97719" inkscape:zoom="3.6725" borderopacity="1" bordercolor="#666666" pagecolor="#5f563e" id="namedview24" inkscape:window-maximized="1" inkscape:window-y="-8" inkscape:window-x="-8" inkscape:current-layer="svg2" inkscape:pageshadow="2" inkscape:pageopacity="0" inkscape:window-height="1137" inkscape:window-width="1920" guidetolerance="10" gridtolerance="10" objecttolerance="10" inkscape:snap-others="true" inkscape:snap-bbox-midpoints="true" inkscape:snap-center="true" inkscape:snap-bbox="false" inkscape:snap-object-midpoints="false" inkscape:snap-bbox-edge-midpoints="false">
	</sodipodi:namedview>
<g id="g4215">
	<g id="g4199">
		<path id="path8078" inkscape:connector-curvature="0" fill="#171A21" d="M163.3,37.019l-23.008,34.023l18.847,17.378
			l39.897-29.861L163.3,37.019z"/>
		<g id="g4186">
			<circle id="path4144" fill="#171A21" cx="189.57" cy="36.779" r="28.75"/>
			<path id="path7107" inkscape:connector-curvature="0" fill="#FFFFFF" d="M211.58,36.779c0.014,12.156-9.83,22.021-21.986,22.035
				c-12.156,0.013-22.021-9.831-22.035-21.987c0-0.016,0-0.032,0-0.048c-0.014-12.156,9.83-22.021,21.986-22.035
				c12.156-0.013,22.022,9.831,22.035,21.987C211.58,36.747,211.58,36.763,211.58,36.779z"/>
			<path id="path10018" inkscape:connector-curvature="0" fill="#171A21" d="M207.125,36.791
				c-0.006,9.695-7.871,17.55-17.567,17.543c-9.687-0.006-17.537-7.857-17.543-17.543c-0.006-9.695,7.848-17.561,17.543-17.567
				c9.696-0.006,17.561,7.848,17.567,17.544C207.125,36.775,207.125,36.783,207.125,36.791z"/>
		</g>
	</g>
	<g id="g4206">
		<g id="g4191">
			<path id="path5167" inkscape:connector-curvature="0" fill="#171A21" d="M161.105,85.016c0.006,9.733-7.878,17.629-17.611,17.636
				c-9.733,0.007-17.629-7.878-17.636-17.611c0-0.008,0-0.017,0-0.024c-0.006-9.732,7.878-17.629,17.611-17.635
				c9.733-0.007,17.629,7.878,17.636,17.611C161.105,85,161.105,85.008,161.105,85.016z"/>
			<path id="path5167-9" inkscape:connector-curvature="0" fill="#FFFFFF" d="M156.639,85.016
				c-0.004,7.488-5.899,13.554-13.166,13.549c-7.26-0.005-13.145-6.068-13.149-13.549c-0.004-7.487,5.883-13.561,13.149-13.566
				c7.267-0.004,13.161,6.062,13.166,13.549C156.639,85.004,156.639,85.01,156.639,85.016z"/>
		</g>
		<g id="g4195">
			<path id="path2252" inkscape:connector-curvature="0" fill="#171A21" d="M48.259,38.977c0.002,9.733-7.887,17.625-17.62,17.627
				c-9.733,0.002-17.625-7.887-17.627-17.62c0-0.002,0-0.004,0-0.007c-0.002-9.733,7.887-17.625,17.62-17.626
				c9.733-0.002,17.625,7.887,17.627,17.62C48.259,38.973,48.259,38.975,48.259,38.977z"/>
			<path id="path4188" inkscape:connector-curvature="0" fill="#FFFFFF" d="M43.866,38.977c0.002,7.086-5.919,12.833-13.226,12.835
				c-7.307,0.002-13.232-5.74-13.235-12.826c0-0.003,0-0.006,0-0.009c-0.002-7.086,5.919-12.833,13.226-12.835
				c7.307-0.002,13.232,5.74,13.235,12.826C43.866,38.971,43.866,38.974,43.866,38.977z"/>
		</g>
		<path id="rect4196" fill="#171A21" d="M38.301,30.011l105.862,43.202c6.996,2.855,10.741,9.891,8.364,15.714l0,0
			c-2.377,5.823-9.975,8.229-16.97,5.374L29.695,51.099c-6.996-2.855-10.74-9.89-8.364-15.713l0,0
			C23.708,29.562,31.305,27.156,38.301,30.011z"/>
	</g>
</g>
<g id="text4156" transform="scale(0.95096987,1.051558)">
	<path id="path4150" fill="#171A21" d="M263.045,26.509v6.49c-1.684-0.753-3.327-1.321-4.929-1.705
		c-1.602-0.384-3.115-0.575-4.539-0.575c-1.89,0-3.286,0.26-4.19,0.781c-0.904,0.521-1.355,1.328-1.355,2.424
		c0,0.821,0.301,1.465,0.904,1.93c0.616,0.452,1.725,0.842,3.327,1.171l3.368,0.678c3.409,0.684,5.833,1.725,7.271,3.122
		c1.438,1.397,2.156,3.382,2.156,5.956c0,3.382-1.006,5.901-3.019,7.558c-1.999,1.643-5.06,2.465-9.181,2.465
		c-1.944,0-3.895-0.185-5.853-0.555c-1.958-0.37-3.916-0.917-5.874-1.643v-6.675c1.958,1.041,3.848,1.828,5.669,2.362
		c1.835,0.52,3.601,0.78,5.299,0.78c1.725,0,3.047-0.287,3.964-0.862c0.917-0.575,1.376-1.397,1.376-2.465
		c0-0.958-0.315-1.698-0.945-2.218c-0.616-0.52-1.856-0.986-3.718-1.397l-3.06-0.677c-3.067-0.657-5.312-1.705-6.737-3.143
		c-1.41-1.438-2.115-3.375-2.115-5.812c0-3.053,0.986-5.402,2.958-7.044c1.972-1.643,4.806-2.465,8.503-2.465
		c1.684,0,3.417,0.13,5.196,0.39C259.299,25.626,261.142,26.003,263.045,26.509z"/>
	<path id="path4152" fill="#171A21" d="M271.16,25.544h28.261v5.977h-10.167v24.687h-7.907V31.52H271.16V25.544L271.16,25.544z"/>
	<path id="path4154" fill="#171A21" d="M306.285,25.544h21.339v5.977h-13.432v5.71h12.631v5.977h-12.631v7.024h13.884v5.977h-21.791
		V25.544z"/>
	<path id="path4156" fill="#171A21" d="M356.443,50.621h-12.364l-1.951,5.586h-7.948l11.358-30.664h9.427l11.358,30.664h-7.948
		L356.443,50.621z M346.051,44.932h8.4l-4.19-12.2L346.051,44.932z"/>
	<path id="path4158" fill="#171A21" d="M373.166,25.544h10.064l6.983,16.41l7.024-16.41h10.043v30.664h-7.476V33.78l-7.065,16.533
		h-5.011l-7.065-16.533v22.428h-7.496V25.544z"/>
</g>
</svg>
