<?xml version="1.0" encoding="utf-8"?>
<!-- Generator: Adobe Illustrator 16.0.0, SVG Export Plug-In . SVG Version: 6.00 Build 0)  -->
<!DOCTYPE svg PUBLIC "-//W3C//DTD SVG 1.1//EN" "http://www.w3.org/Graphics/SVG/1.1/DTD/svg11.dtd">
<svg version="1.1" id="Layer_1" xmlns="http://www.w3.org/2000/svg" xmlns:xlink="http://www.w3.org/1999/xlink" x="0px" y="0px"
	 width="609.888px" height="69.99px" viewBox="5.964 14.765 609.888 69.99" enable-background="new 5.964 14.765 609.888 69.99"
	 xml:space="preserve">
<g>
	<path fill="#0363DA" d="M5.964,84.755v-69.99h19.995v60h40.005v9.99H5.964z"/>
	<path fill="#0363DA" d="M75.955,84.755V34.76h9.99V24.755h30V34.76H95.95v19.995h19.995V34.76h10.005v49.995h-10.005V64.76H95.95
		v19.995H75.955z"/>
	<path fill="#0363DA" d="M145.93,54.755v-9.99h-9.99V34.76h9.99V24.755h40.005V34.76h-30v10.005h19.995v9.99H145.93z M135.94,84.755
		v-9.99h39.99v9.99H135.94z M175.93,74.765v-20.01h10.005v20.01H175.93z"/>
	<path fill="#0363DA" d="M205.916,84.755V34.76h-9.99V24.755h39.99V34.76h-9.99v49.995H205.916z"/>
	<path fill="#0363DA" d="M275.92,84.755v-69.99h49.995v9.99h-30v30h30V64.76h-30v19.995H275.92z M325.916,54.755v-30h10.005v30
		H325.916z"/>
	<path fill="#0363DA" d="M345.911,84.755v-60h19.995v50.01h10.005v9.99H345.911z"/>
	<path fill="#0363DA" d="M385.901,84.755V34.76h9.99V24.755h30V34.76h-19.995v19.995h19.995V34.76h10.005v49.995h-10.005V64.76
		h-19.995v19.995H385.901z"/>
	<path fill="#0363DA" d="M465.881,84.755v-30h-10.005v-9.99h-9.99v-20.01h19.995v20.01h19.995v9.99h-9.99v30H465.881z
		 M485.876,44.765v-20.01h10.005v20.01H485.876z"/>
	<path fill="#0363DA" d="M505.872,84.755v-60h49.995V34.76h-30v10.005h19.995v9.99h-19.995v20.01h30v9.99H505.872z"/>
	<path fill="#0363DA" d="M565.857,84.755v-60h39.99V34.76h-19.995v40.005h19.995v9.99H565.857z M605.847,74.765V34.76h10.005v40.005
		H605.847z"/>
</g>
</svg>
