<?xml version="1.0" encoding="utf-8"?>
<!-- Generator: Adobe Illustrator 16.0.0, SVG Export Plug-In . SVG Version: 6.00 Build 0)  -->
<!DOCTYPE svg PUBLIC "-//W3C//DTD SVG 1.1//EN" "http://www.w3.org/Graphics/SVG/1.1/DTD/svg11.dtd">
<svg version="1.1" id="Layer_1" xmlns="http://www.w3.org/2000/svg" xmlns:xlink="http://www.w3.org/1999/xlink" x="0px" y="0px"
	 width="2426.46px" height="744.452px" viewBox="36.77 877.768 2426.46 744.452"
	 enable-background="new 36.77 877.768 2426.46 744.452" xml:space="preserve">
<g>
	<path d="M1430.876,1397.22h128.336l49.882-208.308c7.95-28.235,15.862-49.143,26.821-59.232
		c26.122-24.021,96.288-20.259,96.288-20.259l28.391-117.766c-44.539,0.232-113.486-0.598-156.299,11.103
		c-24.746,6.771-50.867,25.758-65.705,41.205c-27.105,28.209-43.293,86.586-43.293,86.586L1430.876,1397.22L1430.876,1397.22z
		 M320.937,1098.215h469.116c27.367,0.688,49.285,11.193,59.402,25.278c12.32,17.172,25.459,42.773,5.2,91.087
		c-21.634,51.58-60.271,67.015-100.606,68.221h-83.992l34.631-145.119h-129.18L459.999,1622.22H588.49l53.851-225.116
		c0,0,37.34,0.155,85.717,0.183c37.366-0.792,81.204-5.188,122.577-26.731c44.732-23.279,75.264-62.138,94.396-96.923
		c17.65-32.1,29.024-84.666,31.685-113.602c2.335-25.317,5.577-67.832-25.445-109.271c-14.111-18.857-45.045-41.958-76.38-49.351
		c-34.215-8.055-81.903-8.495-81.903-8.495H304.66c-75.16,0.7-115.159,26.679-137.505,49.532
		c-24.137,24.707-36.484,58.701-36.367,88.311c0.117,28.055,7.574,57.871,23.89,75.86c14.837,16.342,39.662,34.46,89.012,37.755
		h85.717c0,0,11.841,0.376,18.365,3.281c6.316,2.841,10.972,10.608,9.87,18.184c-1.349,9.223-4.371,20.896-35.667,22.165H78.156
		L36.77,1397.79h292.494c38.961-0.506,110.943-7.756,143.899-64.421c12.27-21.103,23.203-60.568,23.604-89.867
		c0.415-29.647-9.805-49.558-15.81-59.738c-7.912-13.438-22.905-28.91-52.981-38.962c-15.653-5.239-49.869-6.226-49.869-6.226
		h-80.529c-15.577,0-27.561-4.694-25.965-20.258c0.908-8.847,7.886-16.148,16.627-18.703
		C294.686,1097.709,320.937,1098.215,320.937,1098.215L320.937,1098.215z M1248.768,1076.672
		c-31.893,0.338-59.557,12.425-86.481,38.378c-25.603,24.683-39.285,63.071-41.982,96.948c-1.674,20.946,4.24,50.115,18.196,67.923
		c13.696,17.483,41.438,30.752,67.572,30.09c39.647-0.984,67.093-13.1,89.012-37.105c25.73-28.17,42.657-70.427,41.646-110.463
		c-0.558-21.063-5.07-42.528-23.786-61.271C1294.188,1082.431,1268.599,1076.465,1248.768,1076.672l16.642-95.496
		c53.176-0.688,111.708,13.864,149.101,49.907c37.417,36.043,45.16,83.759,44.512,122.901
		c-0.804,48.884-17.78,116.065-77.74,180.746c-52.838,56.977-144.781,79.115-208.501,76.225
		c-63.722-2.893-110.854-23.048-145.456-58.74c-30.312-31.258-41.219-67.768-41.219-113.888c0-40.727,13.01-93.577,52.125-145.6
		c45.889-61.021,133.692-110.334,227.191-111.54L1248.768,1076.672z M1823.367,877.768h129.373l-28.066,115.859h98.182
		l-27.002,114.64h-98.183l-29.104,127.454c-4.654,25.965-0.154,39.194,14.565,47.962c6.058,3.618,26.497,5.188,26.497,5.188h279.486
		c31.179-0.506,53.552-3.32,54.537-24.059c1.063-21.311-25.435-20.777-25.435-20.777h-79.505
		c-41.566-2.075-76.379-13.516-92.993-31.167c-14.356-15.252-27.535-37.924-26.497-82.086c1.167-49.855,27.535-85.198,38.961-96.105
		c11.428-10.907,53.684-42.087,114.979-41.049h290.068l-40.35,104.419h-237.943c-15.576,0.52-22.67,2.841-27.002,8.313
		c-4.515,5.707-6.693,14.682-3.646,21.827c2.84,6.642,9.883,9.353,29.608,10.39h74.306c37.923,2.075,69.452,8.016,88.311,23.891
		c17.198,14.476,33.773,33.242,33.773,81.567c0,54.576-26.927,89.932-45.188,108.583c-22.618,23.099-54.032,39.998-148.063,44.681
		h-344.943c-37.418-0.531-68.065,1.037-96.638-31.686c-28.573-32.724-18.871-73.616-16.108-96.469L1823.367,877.768
		L1823.367,877.768z"/>
</g>
</svg>
