<?xml version="1.0" encoding="utf-8"?>
<!-- Generator: Adobe Illustrator 16.0.0, SVG Export Plug-In . SVG Version: 6.00 Build 0)  -->
<!DOCTYPE svg PUBLIC "-//W3C//DTD SVG 1.1//EN" "http://www.w3.org/Graphics/SVG/1.1/DTD/svg11.dtd">
<svg version="1.1" id="Layer_1" xmlns="http://www.w3.org/2000/svg" xmlns:xlink="http://www.w3.org/1999/xlink" x="0px" y="0px"
	 width="2500px" height="2500px" viewBox="0 0 2500 2500" enable-background="new 0 0 2500 2500" xml:space="preserve">
<g>
	<path d="M1430.876,1397.22h128.336l49.882-208.308c7.95-28.235,15.862-49.143,26.821-59.232
		c26.122-24.021,96.288-20.259,96.288-20.259l28.391-117.766c-44.539,0.233-113.486-0.597-156.299,11.103
		c-24.746,6.77-50.867,25.758-65.705,41.205c-27.106,28.209-43.293,86.586-43.293,86.586L1430.876,1397.22L1430.876,1397.22z
		 M320.937,1098.215h469.116c27.367,0.688,49.285,11.193,59.402,25.278c12.321,17.172,25.459,42.774,5.2,91.087
		c-21.633,51.58-60.271,67.015-100.606,68.221h-83.992l34.63-145.119H575.508L459.999,1622.22H588.49l53.851-225.116
		c0,0,37.34,0.155,85.717,0.182c37.366-0.792,81.204-5.188,122.577-26.731c44.732-23.28,75.264-62.138,94.395-96.923
		c17.651-32.1,29.025-84.666,31.685-113.602c2.335-25.317,5.577-67.832-25.446-109.271c-14.111-18.858-45.044-41.958-76.379-49.351
		c-34.215-8.054-81.904-8.495-81.904-8.495H304.66c-75.16,0.7-115.159,26.679-137.505,49.532
		c-24.137,24.707-36.484,58.701-36.367,88.311c0.117,28.054,7.574,57.871,23.89,75.86c14.837,16.342,39.662,34.46,89.012,37.755
		h85.717c0,0,11.841,0.376,18.365,3.281c6.316,2.841,10.972,10.609,9.87,18.184c-1.349,9.222-4.371,20.895-35.667,22.165H78.156
		L36.77,1397.79h292.494c38.961-0.506,110.943-7.756,143.899-64.421c12.27-21.102,23.203-60.568,23.604-89.867
		c0.415-29.648-9.805-49.558-15.81-59.738c-7.912-13.438-22.905-28.91-52.981-38.962c-15.654-5.239-49.869-6.226-49.869-6.226
		h-80.529c-15.577,0-27.561-4.694-25.965-20.258c0.908-8.846,7.886-16.148,16.627-18.703
		C294.686,1097.709,320.937,1098.215,320.937,1098.215L320.937,1098.215z M1248.768,1076.672
		c-31.893,0.338-59.557,12.425-86.482,38.378c-25.602,24.682-39.285,63.071-41.982,96.948c-1.674,20.946,4.24,50.115,18.196,67.923
		c13.696,17.483,41.438,30.752,67.572,30.09c39.648-0.985,67.093-13.1,89.012-37.106c25.731-28.17,42.657-70.426,41.646-110.463
		c-0.558-21.063-5.071-42.528-23.786-61.27C1294.188,1082.431,1268.599,1076.465,1248.768,1076.672l16.641-95.496
		c53.176-0.688,111.708,13.864,149.101,49.907c37.417,36.043,45.16,83.759,44.512,122.901
		c-0.804,48.884-17.781,116.066-77.741,180.747c-52.838,56.976-144.781,79.115-208.501,76.224
		c-63.721-2.893-110.853-23.048-145.456-58.74c-30.311-31.258-41.218-67.768-41.218-113.888c0-40.726,13.009-93.577,52.125-145.599
		c45.888-61.022,133.692-110.334,227.191-111.54L1248.768,1076.672z M1823.367,877.768h129.373l-28.066,115.859h98.182
		l-27.003,114.64h-98.182l-29.104,127.454c-4.655,25.965-0.155,39.194,14.565,47.962c6.058,3.618,26.497,5.188,26.497,5.188h279.486
		c31.179-0.506,53.552-3.32,54.537-24.059c1.063-21.31-25.434-20.777-25.434-20.777h-79.505
		c-41.567-2.075-76.379-13.515-92.993-31.167c-14.357-15.252-27.535-37.924-26.497-82.086c1.167-49.855,27.535-85.198,38.961-96.105
		c11.427-10.907,53.683-42.087,114.978-41.049h290.068l-40.349,104.419h-237.943c-15.577,0.519-22.671,2.841-27.003,8.313
		c-4.514,5.707-6.693,14.682-3.645,21.828c2.84,6.641,9.883,9.352,29.609,10.389h74.305c37.923,2.075,69.452,8.016,88.311,23.891
		c17.198,14.475,33.773,33.242,33.773,81.567c0,54.576-26.926,89.932-45.187,108.583c-22.619,23.099-54.032,39.998-148.063,44.681
		h-344.943c-37.418-0.532-68.065,1.037-96.638-31.686s-18.871-73.616-16.108-96.469L1823.367,877.768L1823.367,877.768z"/>
</g>
</svg>
