<?xml version="1.0" encoding="utf-8"?>
<!-- Generator: Adobe Illustrator 16.0.0, SVG Export Plug-In . SVG Version: 6.00 Build 0)  -->
<!DOCTYPE svg PUBLIC "-//W3C//DTD SVG 1.1//EN" "http://www.w3.org/Graphics/SVG/1.1/DTD/svg11.dtd">
<svg version="1.1"
	 id="svg3737" xmlns:rdf="http://www.w3.org/1999/02/22-rdf-syntax-ns#" xmlns:svg="http://www.w3.org/2000/svg" xmlns:dc="http://purl.org/dc/elements/1.1/" xmlns:cc="http://creativecommons.org/ns#"
	 xmlns="http://www.w3.org/2000/svg" xmlns:xlink="http://www.w3.org/1999/xlink" x="0px" y="0px" width="300px" height="205.398px"
	 viewBox="0 0 300 205.398" enable-background="new 0 0 300 205.398" xml:space="preserve">
<g id="layer1" transform="translate(-371.00262,-585.66723)">
	<g id="g3512" transform="matrix(3.1341529,0,0,-3.1341529,229.85552,3103.7082)">
		<g>
			<g id="g3514">
				<g id="g3520" transform="translate(137.5713,765.9202)">
					<path id="path3522" fill="#FFFFFF" d="M0,0c1.54,4.852-0.535,9.568-4.383,13.736c-0.35,0.385-0.742,0.811-1.166,1.269
						c-0.097-0.359-0.203-0.722-0.327-1.091c-0.524-1.707-0.9-3.319-0.87-4.72c0.086-4.223,2.122-7.858,4.29-11.556
						c0.245-0.416,0.477-0.836,0.703-1.258c0.077,0.155,0.154,0.309,0.233,0.461C-1.07-2.231-0.292-0.914,0,0"/>
				</g>
				<g id="g3524" transform="translate(137.5713,765.9202)">
					<path id="path3526" fill="none" stroke="#FFFFFF" stroke-width="4.728" d="M0,0c1.54,4.852-0.535,9.568-4.383,13.736
						c-0.35,0.385-0.742,0.811-1.166,1.269c-0.097-0.359-0.203-0.722-0.327-1.091c-0.524-1.707-0.9-3.319-0.87-4.72
						c0.086-4.223,2.122-7.858,4.29-11.556c0.245-0.416,0.477-0.836,0.703-1.258c0.077,0.155,0.154,0.309,0.233,0.461
						C-1.07-2.231-0.292-0.914,0,0z"/>
				</g>
				<g id="g3528" transform="translate(89.6073,747.6923)">
					<path id="path3530" fill="#FFFFFF" d="M0,0c-5.79,0.942-14.559,1.716-21.693,3.307c-1.5,0.338-2.909,0.724-4.187,1.171
						c1.321-1.261,2.872-2.69,3.762-3.348c4.716-3.475,10.394-6.474,17.903-7.475C4.79-7.551,15.888-7.532,24.019-4.778
						c0.552,0.188,1.094,0.386,1.62,0.6C24.792-4.126,23.94-4.063,23.08-3.98C14.481-3.154,5.511-0.897,0,0"/>
				</g>
				<g id="g3532" transform="translate(89.6073,747.6923)">
					<path id="path3534" fill="none" stroke="#FFFFFF" stroke-width="4.728" d="M0,0c-5.79,0.942-14.559,1.716-21.693,3.307
						c-1.5,0.338-2.909,0.724-4.187,1.171c1.321-1.261,2.872-2.69,3.762-3.348c4.716-3.475,10.394-6.474,17.903-7.475
						C4.79-7.551,15.888-7.532,24.019-4.778c0.552,0.188,1.094,0.386,1.62,0.6C24.792-4.126,23.94-4.063,23.08-3.98
						C14.481-3.154,5.511-0.897,0,0z"/>
				</g>
				<g id="g3536" transform="translate(125.3316,787.787)">
					<path id="path3538" fill="#FFFFFF" d="M0,0c2.475-2.31,4.883-4.895,6.69-6.862C7.898-2.391,7.303,1.366,4.815,4.684
						c-3.302,4.392-10.3,5.391-16.483,4.274c-0.063-0.016-0.168-0.034-0.307-0.065c0.425-0.234,0.841-0.479,1.246-0.732
						C-7.266,6.102-3.261,3.037,0,0"/>
				</g>
				<g id="g3540" transform="translate(125.3316,787.787)">
					<path id="path3542" fill="none" stroke="#FFFFFF" stroke-width="4.728" d="M0,0c2.475-2.31,4.883-4.895,6.69-6.862
						C7.898-2.391,7.303,1.366,4.815,4.684c-3.302,4.392-10.3,5.391-16.483,4.274c-0.063-0.016-0.168-0.034-0.307-0.065
						c0.425-0.234,0.841-0.479,1.246-0.732C-7.266,6.102-3.261,3.037,0,0z"/>
				</g>
				<g id="g3544" transform="translate(117.0676,744.3702)">
					<path id="path3546" fill="#FFFFFF" d="M0,0c-0.574-0.327-1.185-0.602-1.822-0.856c1.108-0.07,2.202-0.112,3.275-0.117
						c9.568-0.054,17.716,2.543,18.96,11.881c0.189,1.442,0,2.816-0.423,4.151c-0.307,0.975-0.742,1.927-1.24,2.871
						c-0.595-1.157-1.307-2.322-2.109-3.47C12.551,8.644,6.227,3.533,0,0"/>
				</g>
				<g id="g3548" transform="translate(117.0676,744.3702)">
					<path id="path3550" fill="none" stroke="#FFFFFF" stroke-width="4.728" d="M0,0c-0.574-0.327-1.185-0.602-1.822-0.856
						c1.108-0.07,2.202-0.112,3.275-0.117c9.568-0.054,17.716,2.543,18.96,11.881c0.189,1.442,0,2.816-0.423,4.151
						c-0.307,0.975-0.742,1.927-1.24,2.871c-0.595-1.157-1.307-2.322-2.109-3.47C12.551,8.644,6.227,3.533,0,0z"/>
				</g>
				<g id="g3552" transform="translate(61.7658,754.0995)">
					<path id="path3554" fill="#FFFFFF" d="M0,0c-6.804,6.963-8.408,15.294-5.834,22.852c0.33,0.958,0.723,1.862,1.183,2.726
						c-0.963-0.574-1.893-1.189-2.779-1.851c-8.838-6.594-9.184-14.232,1.151-21.58C-4.26,0.705-0.952-0.92,1.749-1.855
						c0.068-0.022,0.143-0.049,0.212-0.074C1.149-1.15,0.425-0.434,0,0"/>
				</g>
				<g id="g3556" transform="translate(61.7658,754.0995)">
					<path id="path3558" fill="none" stroke="#FFFFFF" stroke-width="4.728" d="M0,0c-6.804,6.963-8.408,15.294-5.834,22.852
						c0.33,0.958,0.723,1.862,1.183,2.726c-0.963-0.574-1.893-1.189-2.779-1.851c-8.838-6.594-9.184-14.232,1.151-21.58
						C-4.26,0.705-0.952-0.92,1.749-1.855c0.068-0.022,0.143-0.049,0.212-0.074C1.149-1.15,0.425-0.434,0,0z"/>
				</g>
				<g id="g3560" transform="translate(88.3635,790.1873)">
					<path id="path3562" fill="#FFFFFF" d="M0,0c10.938,3.193,21.793,5.785,22.286,5.896c0.356,0.084,1.963,0.443,2.707,0.597
						c-3.178,1.782-6.907,3.093-11.492,3.729C2.428,11.743-5.837,7.804-14.657,3.133c-7.27-3.856-13.431-7.682-16.592-13.643
						c2.406,1.445,5.012,2.634,7.644,3.648C-19.687-5.354-5.351-1.564,0,0"/>
				</g>
				<g id="g3564" transform="translate(88.3635,790.1873)">
					<path id="path3566" fill="none" stroke="#FFFFFF" stroke-width="4.728" d="M0,0c10.938,3.193,21.793,5.785,22.286,5.896
						c0.356,0.084,1.963,0.443,2.707,0.597c-3.178,1.782-6.907,3.093-11.492,3.729C2.428,11.743-5.837,7.804-14.657,3.133
						c-7.27-3.856-13.431-7.682-16.592-13.643c2.406,1.445,5.012,2.634,7.644,3.648C-19.687-5.354-5.351-1.564,0,0z"/>
				</g>
				<g id="g3568" transform="translate(137.5713,765.9202)">
					<path id="path3570" fill="#FDB812" d="M0,0c1.54,4.852-0.535,9.568-4.383,13.736c-0.35,0.385-0.742,0.811-1.166,1.269
						c-0.097-0.359-0.203-0.722-0.327-1.091c-0.524-1.707-0.9-3.319-0.87-4.72c0.086-4.223,2.122-7.858,4.29-11.556
						c0.245-0.416,0.477-0.836,0.703-1.258c0.077,0.155,0.154,0.309,0.233,0.461C-1.07-2.231-0.292-0.914,0,0"/>
				</g>
				<g id="g3572" transform="translate(89.6073,747.6923)">
					<path id="path3574" fill="#FDB812" d="M0,0c-5.79,0.942-14.559,1.716-21.693,3.307c-1.5,0.338-2.909,0.724-4.187,1.171
						c1.321-1.261,2.872-2.69,3.762-3.348c4.716-3.475,10.394-6.474,17.903-7.475C4.79-7.551,15.888-7.532,24.019-4.778
						c0.552,0.188,1.094,0.386,1.62,0.6C24.792-4.126,23.94-4.063,23.08-3.98C14.481-3.154,5.511-0.897,0,0"/>
				</g>
				<g id="g3576" transform="translate(125.3316,787.787)">
					<path id="path3578" fill="#ED1B23" d="M0,0c2.475-2.31,4.883-4.895,6.69-6.862C7.898-2.391,7.303,1.366,4.815,4.684
						c-3.302,4.392-10.3,5.391-16.483,4.274c-0.063-0.016-0.168-0.034-0.307-0.065c0.425-0.234,0.841-0.479,1.246-0.732
						C-7.266,6.102-3.261,3.037,0,0"/>
				</g>
				<g id="g3580" transform="translate(117.0676,744.3702)">
					<path id="path3582" fill="#ED1B23" d="M0,0c-0.574-0.327-1.185-0.602-1.822-0.856c1.108-0.07,2.202-0.112,3.275-0.117
						c9.568-0.054,17.716,2.543,18.96,11.881c0.189,1.442,0,2.816-0.423,4.151c-0.307,0.975-0.742,1.927-1.24,2.871
						c-0.595-1.157-1.307-2.322-2.109-3.47C12.551,8.644,6.227,3.533,0,0"/>
				</g>
				<g id="g3584" transform="translate(61.7658,754.0995)">
					<path id="path3586" fill="#ED1B23" d="M0,0c-6.804,6.963-8.408,15.294-5.834,22.852c0.33,0.958,0.723,1.862,1.183,2.726
						c-0.963-0.574-1.893-1.189-2.779-1.851c-8.838-6.594-9.184-14.232,1.151-21.58C-4.26,0.705-0.952-0.92,1.749-1.855
						c0.068-0.022,0.143-0.049,0.212-0.074C1.149-1.15,0.425-0.434,0,0"/>
				</g>
				<g id="g3588" transform="translate(88.3635,790.1873)">
					<path id="path3590" fill="#FDB812" d="M0,0c10.938,3.193,21.793,5.785,22.286,5.896c0.356,0.084,1.963,0.443,2.707,0.597
						c-3.178,1.782-6.907,3.093-11.492,3.729C2.428,11.743-5.837,7.804-14.657,3.133c-7.27-3.856-13.431-7.682-16.592-13.643
						c2.406,1.445,5.012,2.634,7.644,3.648C-19.687-5.354-5.351-1.564,0,0"/>
				</g>
				<g id="g3592" transform="translate(135.1155,763.5579)">
					<path id="path3594" fill="#F36F20" d="M0,0c-2.168,3.698-4.204,7.333-4.29,11.557c-0.03,1.401,0.346,3.013,0.87,4.719
						c0.123,0.369,0.23,0.732,0.326,1.091c-1.806,1.967-4.215,4.552-6.69,6.862c-3.261,3.037-7.266,6.102-10.729,8.161
						c-0.405,0.253-0.821,0.498-1.246,0.733c-0.744-0.155-2.351-0.514-2.707-0.598c-0.493-0.111-11.348-2.703-22.286-5.896
						c-5.351-1.564-19.687-5.353-23.605-6.862c-2.632-1.014-5.238-2.202-7.644-3.648c-0.46-0.863-0.853-1.767-1.183-2.725
						c-2.574-7.558-0.97-15.889,5.834-22.852c0.426-0.434,1.15-1.15,1.962-1.93c1.278-0.446,2.686-0.832,4.187-1.17
						c7.134-1.592,15.903-2.365,21.693-3.308c5.511-0.897,14.48-3.154,23.079-3.98c0.861-0.082,1.713-0.146,2.559-0.198
						c0.637,0.254,1.248,0.529,1.822,0.856c6.227,3.533,12.551,8.644,16.641,14.46c0.802,1.149,1.514,2.314,2.11,3.471
						C0.477-0.836,0.245-0.416,0,0"/>
				</g>
				<g id="g3596" transform="translate(67.8135,773.9242)">
					<path id="path3598" fill="#FFFFFF" d="M0,0h0.95c1.065,0,2.276-0.114,2.276-1.39c0-1.197-1.177-1.363-2.309-1.363H0V0z
						 M-3.088-4.97h4.89c2.076,0,4.516,0.591,4.516,3.393c0,1.428-0.796,2.27-2.341,2.585v0.036C5.271,1.482,6.02,2.302,6.02,3.783
						c0,2.017-1.613,2.972-3.77,2.972h-5.338V-4.97z M0,4.54h0.898c1.036,0,2.03-0.102,2.03-1.181c0-0.986-1.048-1.24-2.06-1.24H0
						V4.54z"/>
				</g>
			</g>
		</g>
	</g>
	<g id="g3600" transform="matrix(3.1341529,0,0,-3.1341529,485.67009,678.90127)">
		<path id="path3602" fill="#FFFFFF" d="M0,0h-2.91l1.5,4.586h0.031L0,0z M-7.681-4.718h3.144l0.917,2.503h4.35l0.866-2.503h3.391
			L0.516,7.007h-3.792L-7.681-4.718z"/>
	</g>
	<g id="g3604" transform="matrix(3.1341529,0,0,-3.1341529,503.21133,656.93964)">
		<path id="path3606" fill="#FFFFFF" d="M0,0h3.944L7.87-7.963H7.9L7.854,0h2.826v-11.725H6.839L2.775-3.711H2.746l0.094-8.014H0V0z
			"/>
	</g>
	<g id="g3608" transform="matrix(3.1341529,0,0,-3.1341529,229.85552,3103.7082)">
		<g>
			<g id="g3610">
				<g id="g3616" transform="translate(102.7516,778.3622)">
					<path id="path3618" fill="#FFFFFF" d="M0,0h1.199c2.259,0,3.605-1.209,3.605-3.545c0-2.337-1.296-3.55-3.605-3.55H0V0z
						 M-3.094-9.408h4.226c3.956,0,6.864,1.53,6.864,5.911c0,4.54-2.824,5.814-6.864,5.814h-4.226V-9.408z"/>
				</g>
			</g>
		</g>
	</g>
	<g id="g3620" transform="matrix(3.1341529,0,0,-3.1341529,598.86098,678.90127)">
		<path id="path3622" fill="#FFFFFF" d="M0,0h-2.915l1.499,4.586h0.032L0,0z M-7.687-4.718h3.143l0.914,2.503h4.358L1.59-4.718
			h3.394L0.513,7.007h-3.794L-7.687-4.718z"/>
	</g>
	<path id="path3624" fill="#FFFFFF" d="M615.97,656.941h9.697v36.748h-9.697V656.941z"/>
	<g id="g3626" transform="matrix(3.1341529,0,0,-3.1341529,432.71452,701.68561)">
		<path id="path3628" fill="#FFFFFF" d="M0,0h3.978l3.963-7.965h0.04L7.927,0h2.855v-11.725H6.9L2.804-3.714H2.772l0.101-8.011H0V0z
			"/>
	</g>
	<g id="g3630" transform="matrix(3.1341529,0,0,-3.1341529,492.80781,723.64381)">
		<path id="path3632" fill="#FFFFFF" d="M0,0h-2.94l1.509,4.588h0.032L0,0z M-7.764-4.719h3.179l0.919,2.5h4.401l0.872-2.5H5.04
			L0.518,7.006h-3.829L-7.764-4.719z"/>
	</g>
	<g id="g3634" transform="matrix(3.1341529,0,0,-3.1341529,510.55747,701.68561)">
		<path id="path3636" fill="#FFFFFF" d="M0,0h4.926l2.033-7.795h0.032L9.142,0h4.735v-11.725H10.82l0.05,9.001h-0.035l-2.531-9.001
			H5.429L3.025-2.724H2.993l0.063-9.001H0V0z"/>
	</g>
	<g id="g3646" transform="matrix(3.1341529,0,0,-3.1341529,589.35321,737.60083)">
		<path id="path3648" fill="#FFFFFF" d="M0,0c-0.894-0.214-1.884-0.471-3.482-0.471c-3.127,0-6.738,1.58-6.738,6.017
			c0,4.078,2.855,6.118,6.719,6.118c1.195,0,2.352-0.272,3.477-0.608l-0.251-2.535C-1.281,9.07-2.257,9.344-3.328,9.344
			c-2.219,0-3.665-1.615-3.665-3.798c0-2.305,1.626-3.701,3.913-3.701c1.024,0,2.066,0.273,2.923,0.607L0,0z"/>
	</g>
	<g id="g3650" transform="matrix(3.1341529,0,0,-3.1341529,600.96808,720.06681)">
		<path id="path3652" fill="#FFFFFF" d="M0,0c0,2.036,0.752,3.75,2.656,3.75c1.897,0,2.653-1.714,2.653-3.75
			c0-1.93-0.756-3.75-2.653-3.75C0.752-3.75,0-1.93,0,0 M-3.23,0c0-3.729,2.047-6.065,5.886-6.065C6.48-6.065,8.532-3.729,8.532,0
			c0,3.761-2.015,6.07-5.876,6.07C-1.214,6.07-3.23,3.761-3.23,0"/>
	</g>
</g>
</svg>
