<?xml version="1.0" encoding="utf-8"?>
<!-- Generator: Adobe Illustrator 16.0.0, SVG Export Plug-In . SVG Version: 6.00 Build 0)  -->
<!DOCTYPE svg PUBLIC "-//W3C//DTD SVG 1.1//EN" "http://www.w3.org/Graphics/SVG/1.1/DTD/svg11.dtd">
<svg version="1.1"
	 id="svg2" xmlns:dc="http://purl.org/dc/elements/1.1/" xmlns:cc="http://web.resource.org/cc/" xmlns:rdf="http://www.w3.org/1999/02/22-rdf-syntax-ns#" xmlns:svg="http://www.w3.org/2000/svg" xmlns:sodipodi="http://sodipodi.sourceforge.net/DTD/sodipodi-0.dtd" xmlns:inkscape="http://www.inkscape.org/namespaces/inkscape" sodipodi:docname="Game_Boy_Advance.svg" inkscape:version="0.44.1" sodipodi:version="0.32" sodipodi:docbase="C:\Documents and Settings\Matias\Desktop"
	 xmlns="http://www.w3.org/2000/svg" xmlns:xlink="http://www.w3.org/1999/xlink" x="0px" y="0px" width="566.929px"
	 height="66.041px" viewBox="0 0 566.929 66.041" enable-background="new 0 0 566.929 66.041" xml:space="preserve">
<sodipodi:namedview  height="206.5px" width="1772.6px" inkscape:cy="283.81045" inkscape:cx="995.52531" inkscape:zoom="0.32" borderopacity="1.0" bordercolor="#666666" pagecolor="#ffffff" id="base" inkscape:window-y="-4" inkscape:window-x="-4" inkscape:current-layer="svg2" inkscape:pageshadow="2" inkscape:pageopacity="0.0" inkscape:window-height="844" inkscape:window-width="1440" guidetolerance="10.0" gridtolerance="10.0" objecttolerance="10.0">
	</sodipodi:namedview>
<path id="path10" fill="#1F00CC" d="M296.042,8.236l4.352-6.971h-66.25c-5.084,0.076-9.82,1.502-14.135,4.274l-5.084,3.736
	c-2.234-2.696-4.43-4.584-6.588-5.854c-2.695-1.502-5.699-2.156-9.127-2.156H87.009l-3.66,11.169L81.541,1.266H57.003l-0.885,2.079
	l-2.311-0.809c-12.943-4.43-25.383-3.081-37.131,4.198c-5.971,3.813-10.477,8.59-13.25,14.443c-2.85,5.855-3.814,12.364-3.158,19.76
	c0.461,4.432,2.002,8.551,4.699,12.287c2.695,3.736,6.123,6.74,10.398,8.897c6.201,3.235,12.941,4.198,19.99,3.081h21.84
	l5.469-12.133l2.004,12.133l131.266-0.153c2.852,0,5.701-0.694,8.59-1.964c2.85-1.271,5.314-3.082,7.549-5.316
	c3.66,3.893,8.012,6.51,13.096,7.551c6.895,1.656,13.559,0.463,19.836-3.506l0.811-0.615l-0.617,3.968h26.729l0.656-4.622
	c1.578-0.229,2.85-1.039,3.967-2.391h72.682c11.17,0,19.373-2.85,24.382-8.588l5.393,8.588h77.77V47.217l13.979,10.938h96.105V8.313
	H462.744v10.784L448.955,8.313h-55.387l-6.818,12.942l-7.549-13.02L296.042,8.236L296.042,8.236z"/>
<path id="path12" fill="#FFFFFF" d="M313.027,16.557h-8.318l-19.604,33.008h23.344v-7.317h-9.516l9.516-17.063l13.787,24.419h10.633
	v-0.076h16.6c14.367,0,21.57-5.547,21.57-16.522c0-1.888-0.23-3.66-0.732-5.316l13.25,21.84h6.355l19.063-32.932h-10.092
	L386.98,38.164l-12.557-21.568h-10.861l3.004,4.93c-3.504-3.313-8.551-4.93-15.137-4.93h-21.84v27.383L313.027,16.557
	L313.027,16.557z M338.988,24.028h12.52c6.51,0,9.82,2.851,9.82,8.551c0,3.429-1.039,5.932-3.004,7.24
	c-1.887,1.349-5.469,2.004-10.477,2.004h-8.82V24.028H338.988z"/>
<polygon id="polygon14" fill="#FFFFFF" points="423.033,16.557 414.675,16.557 395.146,49.565 405.007,49.565 405.007,49.487 
	418.488,49.487 418.488,42.131 409.052,42.131 418.412,25.146 432.201,49.565 442.947,49.565 442.947,49.487 448.416,49.487 
	448.416,29.575 473.337,49.487 479.808,49.487 479.808,16.557 471.179,16.557 471.179,36.237 446.027,16.557 439.595,16.557 
	439.595,43.94 "/>
<path id="path16" fill="#FFFFFF" d="M484.738,18.404c-1.348,1.195-2.041,3.352-2.041,6.434v16.33c0,3.159,0.693,5.315,2.002,6.51
	c1.271,1.195,3.582,1.813,6.973,1.813h19.373c3.352,0,5.777-0.616,7.049-1.813c1.271-1.192,2.004-3.351,2.004-6.51v-4.583
	l-9.514-0.154v5.086h-18.412V24.221h18.412v4.507h9.514v-3.89c0-3.236-0.729-5.393-2.004-6.434c-1.27-1.271-3.504-1.887-7.049-1.887
	h-19.373C488.32,16.557,486.009,17.135,484.738,18.404L484.738,18.404z"/>
<polygon id="polygon18" fill="#FFFFFF" points="532.769,28.766 532.769,24.028 558.458,24.028 558.458,16.557 523.255,16.557 
	523.255,49.487 558.882,49.487 558.882,41.862 532.769,41.862 532.769,36.008 547.83,36.008 547.83,28.766 "/>
<path id="path20" fill="#FFFFFF" d="M50.841,10.354C40.519,6.619,30.542,7.813,20.99,13.706C11.554,19.483,7.433,28.304,8.55,39.819
	c0.307,3.353,1.578,6.434,3.736,9.13c2.156,2.696,4.93,4.62,8.242,6.123c3.35,1.503,6.895,2.079,10.631,1.888
	c4.121-0.23,7.857-1.425,11.516-3.429l0.385-0.23l-1.424,3.158H51.65l6.434-13.981h11.092l2.465,13.981h16.41l8.396-26.191
	l5.393,26.191h6.508l12.557-29.041l1.271,29.041h9.592l-1.965-46.914H118.13l-10.938,25.652l-4.699-25.652h-9.592L80.539,47.483
	L74.183,9.545H62.359L44.255,50.489l2.619-17.141H29.001l-1.348,8.821h7.473l-0.732,4.698l-7.857,0.54
	c-3.158-0.809-5.393-2.465-6.895-5.085c-1.271-2.466-1.887-5.007-1.578-7.856c0.385-3.968,2.311-7.55,5.969-10.785
	c3.313-2.928,7.551-4.584,12.635-5.238c4.854-0.732,9.129-0.231,12.711,1.348L50.841,10.354L50.841,10.354z M67.751,33.311H61.82
	l4.121-9.051L67.751,33.311z"/>
<polygon id="polygon22" fill="#FFFFFF" points="166.779,9.508 140.085,9.508 132.576,56.46 159.46,56.46 161.193,46.483 
	144.246,46.483 145.593,38.087 160.269,38.087 161.847,27.996 147.019,27.996 148.291,19.6 165.199,19.6 "/>
<polygon id="polygon24" fill="#FFFFFF" points="284.949,9.508 273.74,9.508 264.15,24.875 258.179,9.508 247.087,9.508 
	258.564,34.272 254.945,56.46 264.689,56.46 267.617,36.894 "/>
<path id="path26" fill="#FFFFFF" d="M237.88,9.97c-5.469-1.271-10.477,0-15.33,3.736c-4.852,3.582-8.012,8.743-9.668,15.253
	c-1.424,6.433-0.73,12.519,1.889,17.871c2.773,5.547,6.74,8.897,12.209,10.092c5.393,1.271,10.4,0,15.254-3.659
	c4.854-3.736,8.088-8.896,9.59-15.406c1.502-6.433,0.811-12.439-1.887-17.872C247.24,14.515,243.197,11.164,237.88,9.97L237.88,9.97
	z M237.072,19.329c2.619,1.04,4.275,3.429,5.162,6.972c0.885,3.582,0.693,7.318-0.617,11.285c-1.271,3.892-3.35,6.817-6.047,8.667
	c-2.773,2.003-5.393,2.389-7.857,1.271c-2.619-1.041-4.352-3.431-5.238-6.974c-0.963-3.657-0.617-7.396,0.654-11.285
	c1.271-3.813,3.352-6.818,6.047-8.821C231.833,18.559,234.531,18.135,237.072,19.329L237.072,19.329z"/>
<path id="path28" fill="#FFFFFF" d="M205.025,11.626c-1.887-1.194-3.736-1.81-5.545-1.81h-17.949l-7.396,46.644h21.57
	c2.311,0,4.699-0.73,7.203-2.232c2.465-1.504,4.352-3.353,5.854-5.625c1.58-2.617,2.156-5.16,1.889-7.854
	c-0.309-2.929-1.889-5.701-4.623-8.32c5.469-5.623,6.74-10.938,3.891-16.022C208.685,14.515,207.144,12.896,205.025,11.626z
	 M188.347,28.381l1.502-8.666h6.279c1.58,0,2.773,0.461,3.582,1.348c0.693,0.809,0.963,1.811,0.809,3.004
	c-0.154,1.195-0.73,2.157-1.656,3.005c-1.039,0.886-2.313,1.349-3.813,1.349h-6.703l10.861,11.092
	c0.887,0.887,1.35,2.043,1.271,3.313c-0.076,1.271-0.693,2.312-1.811,3.235c-1.115,0.886-2.695,1.426-4.852,1.426h-8.475
	l1.502-9.438h8.088c1.811,0,3.236,0.539,4.275,1.502L188.347,28.381L188.347,28.381z"/>
<path id="path30" fill="#FFFFFF" d="M276.437,52.263c0-1.35-0.539-2.39-1.35-3.275c-0.885-0.885-2.002-1.424-3.311-1.424
	c-1.271,0-2.389,0.539-3.275,1.424c-0.885,0.888-1.348,1.966-1.348,3.275c0,1.271,0.463,2.312,1.348,3.233
	c0.887,0.887,2.004,1.426,3.275,1.426c1.27,0,2.387-0.539,3.311-1.426C275.898,54.572,276.437,53.533,276.437,52.263z
	 M274.548,49.487c0.693,0.693,1.117,1.656,1.117,2.772c0,1.04-0.461,1.966-1.117,2.773c-0.654,0.653-1.656,1.04-2.771,1.04
	c-1.117,0-2.08-0.387-2.773-1.04c-0.811-0.81-1.195-1.732-1.195-2.773c0-1.116,0.387-2.079,1.195-2.772
	c0.654-0.81,1.656-1.193,2.773-1.193C272.931,48.294,273.894,48.642,274.548,49.487z"/>
<path id="path32" fill="#FFFFFF" d="M273.433,49.873l-1.271-0.308h-2.234v5.236h0.732v-2.388h1.039l1.426,2.388h0.809l-1.58-2.388
	c1.041,0,1.656-0.462,1.656-1.502C274.048,50.451,273.894,50.026,273.433,49.873z M273.279,50.914c0,0.616-0.617,0.885-1.734,0.885
	h-0.885v-1.655h1.424C272.931,50.144,273.279,50.451,273.279,50.914L273.279,50.914z"/>
<rect x="380.464" y="20.021" width="186.465" height="46.021"/>
<g enable-background="new    ">
	<path fill="#FF0000" d="M398.242,42.19l-12.814-8.495c-0.684-0.468-1.26-0.972-1.26-1.907c0.037-1.008,0.864-1.944,1.908-1.944
		c0.54,0,1.044,0.252,1.477,0.54l14.83,9.863c0.791,0.504,1.367,0.936,1.331,1.943c0,1.044-0.54,1.439-1.331,1.943l-14.795,9.827
		c-0.432,0.288-0.936,0.612-1.548,0.612c-1.008,0-1.872-0.973-1.872-1.98c0.037-0.899,0.469-1.367,1.188-1.836L398.242,42.19z"/>
	<path fill="#FF0000" d="M414.55,44.818v10.402c0,1.152-0.504,1.8-1.799,1.8c-1.297,0-1.801-0.647-1.801-1.8V30.815
		c0-1.151,0.504-1.8,1.801-1.8c1.295,0,1.799,0.648,1.799,1.8v10.403h10.583V30.815c0-1.151,0.504-1.8,1.8-1.8s1.8,0.648,1.8,1.8
		v24.405c0,1.152-0.504,1.8-1.8,1.8s-1.8-0.647-1.8-1.8V44.818H414.55z"/>
	<path fill="#FF0000" d="M443.925,30.852c0.289-0.972,0.685-1.836,1.836-1.836c1.188,0,1.62,0.9,1.872,1.836l6.947,24.369
		c0.252,0.864-0.72,1.8-1.728,1.8c-1.116,0-1.691-0.936-1.943-1.8l-1.332-4.319h-7.668l-1.367,4.319
		c-0.252,0.864-0.828,1.8-1.943,1.8c-1.008,0-1.98-0.936-1.729-1.8L443.925,30.852z M445.797,37.547h-0.071l-2.809,9.755h5.652
		L445.797,37.547z"/>
	<path fill="#FF0000" d="M472.473,57.021c-2.7,0-4.247-1.08-5.399-3.42l-3.312-6.694c-0.612-1.225-0.972-2.376-0.972-3.78
		c0-1.584,0.287-2.556,1.008-3.995l3.311-6.659c1.225-2.483,2.772-3.456,5.544-3.456h6.119c0.792,0,1.8,0.433,1.8,1.8
		c0,1.296-0.972,1.8-1.8,1.8h-6.011c-1.549,0-1.801,0.145-2.484,1.512l-3.131,6.264c-0.469,0.972-0.756,1.62-0.756,2.735
		c0,1.008,0.324,1.62,0.756,2.484l3.059,6.227c0.721,1.476,1.08,1.584,2.7,1.584h5.867c0.792,0,1.8,0.432,1.8,1.8
		c0,1.296-0.972,1.8-1.8,1.8H472.473z"/>
	<path fill="#FF0000" d="M488.709,30.815c0-1.151,0.504-1.8,1.8-1.8s1.8,0.648,1.8,1.8v8.279l10.979-9.323
		c0.433-0.359,0.899-0.72,1.476-0.72c1.045,0,1.729,0.864,1.729,1.872c0,0.612-0.396,1.116-0.828,1.512l-12.418,10.583
		l12.346,10.582c0.469,0.396,0.9,0.9,0.9,1.548c0,1.008-0.684,1.872-1.729,1.872c-0.756,0-1.367-0.647-1.943-1.08l-10.511-9.034
		v8.314c0,1.152-0.504,1.8-1.8,1.8s-1.8-0.647-1.8-1.8V30.815z"/>
	<path fill="#FF0000" d="M531.152,49.966c0.72,0.936,1.26,1.764,1.26,2.987c0,2.699-2.053,4.067-4.535,4.067h-7.92
		c-1.367,0-2.555-0.252-3.635-1.152c-0.973-0.791-1.692-2.087-1.692-3.347c0-1.152,0.647-2.16,1.907-2.16
		c1.045,0,1.692,0.864,1.692,1.836c0,1.08,0.576,1.224,1.584,1.224h7.812c0.287,0,1.188,0.108,1.188-0.432
		c0-0.288-0.504-0.828-0.648-1.044l-12.346-15.874c-0.756-0.972-1.188-1.692-1.188-2.952c0-1.439,0.685-2.663,1.907-3.455
		c1.008-0.648,1.836-0.648,2.988-0.648h7.631c1.368,0,2.52,0.288,3.563,1.188c0.937,0.828,1.692,2.159,1.692,3.419
		c0,1.152-0.576,2.088-1.872,2.088c-1.08,0-1.728-0.684-1.728-1.691c0-1.224-0.612-1.404-1.729-1.404h-7.631
		c-0.396,0-1.224-0.107-1.224,0.504c0,0.324,0.396,0.756,0.54,0.973L531.152,49.966z"/>
	<path fill="#FF0000" d="M562.398,59.145v3.6h-25.916v-3.6H562.398z"/>
</g>
</svg>
