<?xml version="1.0" encoding="utf-8"?>
<!-- Generator: Adobe Illustrator 16.0.0, SVG Export Plug-In . SVG Version: 6.00 Build 0)  -->
<!DOCTYPE svg PUBLIC "-//W3C//DTD SVG 1.1//EN" "http://www.w3.org/Graphics/SVG/1.1/DTD/svg11.dtd">
<svg version="1.1" id="Layer_1" xmlns="http://www.w3.org/2000/svg" xmlns:xlink="http://www.w3.org/1999/xlink" x="0px" y="0px"
	 width="799.377px" height="1100px" viewBox="560.298 -10 799.377 1100" enable-background="new 560.298 -10 799.377 1100"
	 xml:space="preserve">
<g>
	<path d="M760.098,1085l45.89-307.066l-229.829-329.63c-17.071-24.779-11.955-43.008,1.827-64.396l138.631-214.577
		c7.798-12.415,16.334-18.222,26.827-18.222c6.185,0,13.029,1.941,22.191,6.293L997.1,268.312c7.279,3.417,9.87,13.433,6.895,26.776
		c-6.475,29.03-40.144,75.086-102.928,75.086c-25.821,0-54.015-7.766-83.863-23.089l-31.845,61.175
		c64.099,28.022,114.959,67.834,155.354,121.575c38.312,50.971,66.246,113.18,85.072,189.622l32.02-170.626l118.868,61.16
		l143.438-148.47v12.372c0,67.159-3.09,86.922-18.368,117.479L1187.51,822.235V1085H760.098z M1000.329,864.217l6.172,136.523
		l22.428-132.397l49.052-34.985c-16.003,2.535-29.357,3.703-41.699,3.703c-28.477,0-53.11-6.483-81.522-18.064L1000.329,864.217z
		 M1176.248,573.687c-16.471-0.002-58.937-44.488-67.574-64.076c-2.906-6.592-2.83-11.632,0.227-14.98l160.557-176.951
		c1.711-1.916,4.099-2.944,6.88-2.944c19.006,0,65.296,57.533,75.787,84.873c1.364,3.557,5.519,14.38-0.88,20.139l-169.338,151.969
		c-1.05,0.898-2.883,1.971-5.656,1.971C1176.249,573.687,1176.249,573.687,1176.248,573.687z M1094.703,488.767
		c-11.031,0-38.086-22.512-49.206-32.19c-17.589-15.309-38.624-36.149-44.913-48.726c-0.951-1.903-3.847-7.694-0.483-12.179
		l155.954-212.84c1.253-1.714,3.684-3.761,8.129-3.761c15.63,0,47.936,27.602,57.464,36.062
		c19.529,17.337,43.231,42.241,51.189,60.143c3.922,8.823,3.819,15.614-0.305,20.184l-172.138,190.943
		C1099.436,487.473,1097.658,488.767,1094.703,488.767z M1005.067,354.909c15.406-55.798,13.857-87.668-4.737-97.431l-80.381-41.983
		l86.608-145.341c1.491-2.505,4.739-5.495,11.735-5.495c16.043,0,46.745,15.862,70.13,30.707
		c23.397,14.854,51.388,36.275,59.776,51.85c4.129,7.665,2.755,12.673,0.876,15.524L997.153,383.57L1005.067,354.909z
		 M769.549,144.875L848.803,1.82C851.318-2.707,856.449-5,864.057-5c17.497,0,46.873,12.013,68.53,23.255
		c10.617,5.511,46.004,24.813,55.621,41.798c3.793,6.7,2.579,11.457,0.893,14.268l-81.902,135.511L769.549,144.875z"/>
	<path fill="#FFFFFF" d="M864.057,0c34.444,0,132.011,52.992,120.757,71.749l-79.561,131.637L776.509,142.63L853.177,4.243
		C854.811,1.302,858.655,0,864.057,0 M1018.292,69.66c31.201,0,139.141,71.313,126.607,90.33l-135.013,196.25
		c17.841-64.613,12.055-93.062-7.232-103.188l-75.703-39.54l83.9-140.798C1012.102,70.614,1014.683,69.66,1018.292,69.66
		 M743.444,156.108c5.779,0,12.29,2.125,20.046,5.81l231.449,110.903c18.329,8.604-10.626,92.353-93.874,92.353
		c-24.064,0-52.679-7.006-85.982-24.847l-36.646,70.398c128.744,54.487,210.716,160.086,247.844,333.19l35.199-187.57
		l116.207,59.791l137.423-142.244c0,66.06-2.893,85.347-17.841,115.242l-114.76,231.932V1080H765.9l45.326-303.295L580.26,445.443
		c-14.948-21.698-12.055-37.128,1.929-58.827l138.628-214.572C727.879,160.802,734.854,156.108,743.444,156.108 M1003.619,1047.693
		l29.895-176.479l65.578-46.772c-24.652,4.965-44.503,7.619-62.81,7.619c-33.257,0-61.422-8.761-104.027-28.354l63.167,62.685
		L1003.619,1047.693 M1164.184,184.07c23.646,0,121.186,89.701,104.637,108.038l-172.14,190.945
		c-0.433,0.483-1.101,0.713-1.978,0.713c-15.752,0-98.823-74.133-90.603-85.096l155.987-212.885
		C1160.943,184.616,1162.336,184.07,1164.184,184.07 M1276.337,319.735c18.631,0,85.076,84.132,71.563,96.295l-169.247,151.889
		c-0.608,0.521-1.419,0.768-2.403,0.768c-15.39,0-73.173-60.262-63.656-70.685l160.567-176.963
		C1273.953,320.151,1275.025,319.735,1276.337,319.735 M864.057-10c-11.907,0-17.242,5.104-19.622,9.387l-76.674,138.397
		l-5.171,9.335l9.651,4.555l128.744,60.755l8.159,3.851l4.667-7.721l79.561-131.637c1.957-3.263,4.43-10.072-0.813-19.332
		c-10.014-17.687-43.665-36.503-57.668-43.773C924.127,8.23,887.209-10,864.057-10L864.057-10z M1018.292,59.66
		c-9.839,0-14.269,4.975-16.033,7.939l-83.898,140.793l-5.415,9.086l9.375,4.896l75.704,39.54c2.268,1.191,4.967,3.056,7.284,6.679
		c-1.632-2.04-3.661-3.661-6.067-4.8L767.812,152.9c-9.897-4.702-17.403-6.792-24.368-6.792c-16.232,0-25.5,11.72-31.063,20.564
		L573.789,381.189c-8.595,13.337-12.724,23.88-13.394,34.193c-0.763,11.755,2.932,23.11,11.629,35.734l0.016,0.023l0.016,0.023
		l228.692,327.999l-44.738,299.36L754.295,1090H765.9h416.609h10v-10V823.405l113.723-229.836
		c15.699-31.396,18.878-51.536,18.878-119.677v-23.974l29.468-26.446c5.951-5.356,6.692-13.985,2.214-25.656
		c-6.473-16.866-22.693-39.046-35.716-54.178c-7.898-9.179-15.645-17.029-22.401-22.703c-9.098-7.642-16.196-11.201-22.338-11.201
		c-4.161,0-7.919,1.631-10.591,4.593l-160.56,176.954c-3.083,3.377-5.796,9.672-1.086,20.35
		c5.575,12.64,20.321,29.602,32.263,41.261c7.107,6.938,14.072,12.898,20.142,17.234c8.175,5.84,14.448,8.56,19.744,8.56
		c3.406,0,6.487-1.098,8.911-3.175l0.087-0.074l0.085-0.076l134.191-120.429l-11.604,12.012l-132.262,136.901l-109.602-56.393
		l-11.929-6.138l-2.475,13.186l-26.693,142.243c-7.397-26.421-16.015-51.244-25.759-74.167
		c-15.095-35.51-33.428-67.724-54.491-95.746c-20.923-27.836-45.268-52.508-72.359-73.329
		c-23.996-18.443-50.899-34.442-80.103-47.648l27.116-52.089c28.929,14.213,56.373,21.409,81.703,21.409
		c36.761,0,61.559-15.107,75.888-27.78c15.988-14.139,27.921-33.286,31.92-51.218c0.911-4.086,1.344-7.927,1.319-11.452
		c0.017,0.157,0.033,0.314,0.049,0.473c1.555,15.724-1.808,38.73-9.995,68.381l-15.827,57.323l9.581-13.928
		c-0.864,3.21-0.683,7.525,2.111,13.114c6.615,13.23,28.152,34.638,46.103,50.261c10.297,8.962,20.165,16.74,28.538,22.493
		c14.014,9.628,19.971,10.926,23.95,10.926c3.747,0,7.096-1.437,9.43-4.045l172.115-190.917c3.824-4.238,7.134-12.117,1.158-25.561
		c-10.424-23.447-42.772-53.269-52.438-61.851c-15.701-13.939-44.476-37.322-60.784-37.322c-5.105,0-9.427,2.064-12.168,5.813
		l-141.82,193.55l7.93-11.526l135.013-196.25l0.057-0.082l0.055-0.083c2.629-3.988,4.65-10.808-0.648-20.646
		c-11.132-20.668-49.887-46.328-61.499-53.7C1079.466,83.759,1039.83,59.66,1018.292,59.66L1018.292,59.66z M1009.384,953.788
		l-3.972-87.848l-0.177-3.898l-2.77-2.749l-27.798-27.585c20.437,6.709,39.898,10.353,61.614,10.353
		c7.091,0,14.497-0.375,22.516-1.163l-31.091,22.175l-3.363,2.398l-0.689,4.073L1009.384,953.788L1009.384,953.788z"/>
</g>
</svg>
