<?xml version="1.0" encoding="utf-8"?>
<!-- Generator: Adobe Illustrator 16.0.0, SVG Export Plug-In . SVG Version: 6.00 Build 0)  -->
<!DOCTYPE svg PUBLIC "-//W3C//DTD SVG 1.1//EN" "http://www.w3.org/Graphics/SVG/1.1/DTD/svg11.dtd">
<svg version="1.1" id="Слой_1" xmlns="http://www.w3.org/2000/svg" xmlns:xlink="http://www.w3.org/1999/xlink" x="0px" y="0px"
	 width="600px" height="129.33px" viewBox="0 0 600 129.33" enable-background="new 0 0 600 129.33" xml:space="preserve">
<path fill="#FF0000" d="M95.906,8.786v113.428c0,5.714,2.237,7.95,7.951,7.95h49.325c15.202,0,27.53-12.328,27.53-27.53V28.366
	c0-15.202-12.328-27.531-27.53-27.531h-49.325C98.143,0.835,95.906,3.072,95.906,8.786z M123.468,18.857
	c0-4.092,3.329-7.42,7.42-7.42h21.976c8.353,0,15.127,6.774,15.127,15.127v77.873c0,8.353-6.774,15.127-15.127,15.127h-21.976
	c-4.092,0-7.42-3.329-7.42-7.421V18.857z"/>
<path fill="#FF0000" d="M0.5,8.786v113.428c0,5.714,2.237,7.95,7.95,7.95h66.785c5.713,0,7.95-2.236,7.95-7.95V8.786
	c0-5.714-2.237-7.951-7.95-7.951H8.45C2.737,0.835,0.5,3.072,0.5,8.786z M13.221,20.977c0-5.82,3.721-9.541,9.541-9.541h38.163
	c5.82,0,9.541,3.721,9.541,9.541v32.936c-11.491,0.838-14.841,8.312-14.841,12.647v45.582c0,4.092-3.329,7.421-7.421,7.421H22.761
	c-5.819,0-9.541-3.72-9.541-9.541V20.977z"/>
<path fill="#FF0000" d="M447.85,8.786v113.428c0,5.714,2.236,7.95,7.95,7.95h57.244c1.463,0,2.65-1.188,2.65-2.65v-2.649
	c0-2.925-4.495-5.301-7.421-5.301h-24.275c-4.738,0-8.586-3.848-8.586-8.586V79.387c0-4.738,3.848-8.587,8.586-8.587h29.046
	c1.463,0,2.65-1.188,2.65-2.649v-5.3c0-1.463-1.188-2.65-2.65-2.65h-43.389c-5.279,0-9.085-3.806-9.085-9.085V22.642
	c0-5.279,3.806-9.085,9.085-9.085h43.389c1.463,0,2.65-1.188,2.65-2.65v-7.42c0-1.462-1.188-2.65-2.65-2.65H455.8
	C450.086,0.835,447.85,3.072,447.85,8.786z"/>
<path fill="#FF0000" d="M193.433,6.136v46.982c0,0,1.029,3.563,2.332,4.559c1.569,1.219,3.647,3.445,6.17,5.565
	c6.615,5.544,14.692,13.092,14.82,17.014v0.085v45.541c0,2.363,1.919,4.282,4.283,4.282h16.876c2.364,0,4.283-1.919,4.283-4.282
	V80.341v-0.085c0.127-3.922,8.205-11.47,14.82-17.014c2.522-2.12,4.6-4.347,6.169-5.565c1.304-0.996,2.332-4.559,2.332-4.559V6.136
	c0-2.925-2.375-5.3-5.3-5.3c-2.925,0-5.3,2.375-5.3,5.3v39.223c0,6.763-25.441,23.322-25.441,23.322s-25.442-16.559-25.442-23.322
	V6.136c0-2.925-2.375-5.3-5.3-5.3C195.808,0.835,193.433,3.21,193.433,6.136z"/>
<path fill="#FF0000" d="M528.415,6.136v46.982c0,0,1.028,3.563,2.333,4.559c1.567,1.219,3.646,3.445,6.169,5.565
	c6.614,5.544,14.692,13.092,14.819,17.014v0.085v45.541c0,2.363,1.919,4.282,4.283,4.282h16.877c2.363,0,4.281-1.919,4.281-4.282
	V80.341v-0.085c0.129-3.922,8.207-11.47,14.82-17.014c2.522-2.12,4.602-4.347,6.17-5.565c1.303-0.996,2.332-4.559,2.332-4.559V6.136
	c0-2.925-2.375-5.3-5.3-5.3c-2.926,0-5.301,2.375-5.301,5.3v39.223c0,6.763-25.441,23.322-25.441,23.322
	s-25.442-16.559-25.442-23.322V6.136c0-2.925-2.375-5.3-5.3-5.3S528.415,3.21,528.415,6.136z"/>
<path fill="#FF0000" d="M363.045,61.26c0,5.82,3.719,9.54,9.54,9.54h40.282c4.092,0,7.421,3.33,7.421,7.421v33.922
	c0,4.092-3.329,7.421-7.421,7.421h-16.961c-4.092,0-7.42-3.329-7.42-7.421v-15.9c0-3.51-2.852-6.361-6.36-6.361h-12.722
	c-3.509,0-6.359,2.852-6.359,6.361v25.972c0,5.714,2.235,7.95,7.949,7.95h56.184c5.715,0,7.951-2.236,7.951-7.95V66.561h-0.042
	c-0.425-5.206-4.039-8.481-9.499-8.481h-42.402c-4.091,0-7.421-3.329-7.421-7.42V18.857c0-4.092,3.33-7.42,7.421-7.42h31.802
	c4.092,0,7.421,3.329,7.421,7.42v15.901c0,3.509,2.852,6.36,6.36,6.36s6.36-2.852,6.36-6.36V8.786c0-5.714-2.236-7.951-7.951-7.951
	h-56.184c-5.714,0-7.949,2.237-7.949,7.951V61.26z M435.129,66.561c0,0-0.01,0.35-0.042,0H435.129z"/>
<path fill="#FF0000" d="M278.239,61.26c0,5.82,3.72,9.54,9.541,9.54h40.282c4.092,0,7.421,3.33,7.421,7.421v33.922
	c0,4.092-3.329,7.421-7.421,7.421h-16.961c-4.091,0-7.42-3.329-7.42-7.421v-15.9c0-3.51-2.852-6.361-6.361-6.361h-12.721
	c-3.509,0-6.36,2.852-6.36,6.361v25.972c0,5.714,2.236,7.95,7.95,7.95h56.184c5.715,0,7.95-2.236,7.95-7.95V66.561h-0.042
	c-0.424-5.206-4.039-8.481-9.498-8.481H298.38c-4.092,0-7.42-3.329-7.42-7.42V18.857c0-4.092,3.329-7.42,7.42-7.42h31.802
	c4.092,0,7.421,3.329,7.421,7.42v15.901c0,3.509,2.852,6.36,6.36,6.36s6.36-2.852,6.36-6.36V8.786c0-5.714-2.235-7.951-7.95-7.951
	h-56.184c-5.714,0-7.95,2.237-7.95,7.951V61.26z M350.323,66.561c0,0-0.01,0.35-0.042,0H350.323z"/>
</svg>
