<?xml version="1.0" encoding="utf-8"?>
<!-- Generator: Adobe Illustrator 16.0.0, SVG Export Plug-In . SVG Version: 6.00 Build 0)  -->
<!DOCTYPE svg PUBLIC "-//W3C//DTD SVG 1.1//EN" "http://www.w3.org/Graphics/SVG/1.1/DTD/svg11.dtd">
<svg version="1.1" id="Layer_1" xmlns="http://www.w3.org/2000/svg" xmlns:xlink="http://www.w3.org/1999/xlink" x="0px" y="0px"
	 width="2426.327px" height="448.618px" viewBox="36.925 1025.676 2426.327 448.618"
	 enable-background="new 36.925 1025.676 2426.327 448.618" xml:space="preserve">
<path fill="#E1AC3C" d="M36.925,1322.799c55.459,6.277,110.917,12.568,139.399,3.995c28.468-8.561,29.96-31.971,31.451-55.381
	c5.802-18.251,14.466-35.464,25.667-50.997c8.238-11.773,18.99-21.568,31.478-28.676c6.226-3.528,12.866-6.395,19.727-8.482
	l26.251-5.045l26.484-3.697c11.778-1.631,23.185-5.281,33.722-10.791c5.252-2.736,10.285-5.914,16.004-10.492
	s12.14-10.558,17.834-17.146c11.392-13.258,19.922-28.726,25.058-45.434c6.666-18.469,12.904-37.003,18.728-55.588
	c-48.222-12.088-104.977-12.166-134.769-2.18c-29.792,9.987-32.645,30.038-35.368,43.695c-2.737,13.657-5.37,20.907-8.366,28.028
	c-2.983,7.107-6.329,14.085-9.831,20.271s-7.185,11.607-11.4,16.563c-4.228,4.954-8.988,9.468-14.189,13.437
	c-5.435,3.684-10.882,7.354-16.484,10.077c-11.154,5.513-23.047,7.613-34.694,10.934c-16.458,3.062-33.229,5.11-49.739,9.922
	c-24.752,7.113-46.056,23.021-59.907,44.733c-2.672,4.124-5.344,8.262-8.664,14.812c-3.947,8.079-7.709,16.248-11.284,24.499
	C47.486,1287.221,41.777,1304.889,36.925,1322.799L36.925,1322.799z"/>
<path fill="#CA3432" d="M140.683,1466.128c55.458,6.277,110.917,12.555,139.399,3.995c28.481-8.561,29.96-31.971,31.438-55.381
	c5.804-18.253,14.472-35.467,25.681-50.997c8.237-11.773,18.989-21.568,31.478-28.677c6.226-3.554,12.866-6.381,19.727-8.481
	l26.238-5.046l26.484-3.696c11.78-1.628,23.192-5.273,33.734-10.778c5.675-2.954,11.036-6.474,16.005-10.505
	c5.719-4.578,12.14-10.545,17.833-17.146c11.399-13.241,19.932-28.702,25.058-45.407c6.641-18.397,12.885-36.936,18.729-55.601
	c-48.222-12.088-104.965-12.166-134.77-2.166c-29.804,9.999-32.645,30.038-35.381,43.695c-2.737,13.657-5.37,20.907-8.353,28.027
	c-2.983,7.107-6.33,14.085-9.844,20.271s-7.185,11.608-11.4,16.563c-4.236,4.965-8.988,9.465-14.176,13.424
	c-5.434,3.684-10.881,7.354-16.497,10.091c-11.154,5.512-23.035,7.613-34.681,10.934c-16.459,3.061-33.242,5.109-49.752,9.922
	c-8.171,2.373-16.056,5.706-23.436,9.947c-7.375,4.229-14.212,9.332-20.363,15.201c-13.852,13.034-22.943,29.985-30.323,45.354
	C153.77,1421.655,146.792,1443.781,140.683,1466.128L140.683,1466.128z"/>
<path fill="#8F99A4" d="M658.773,1318.363l76.236,0.039l59.104-151.992l39.155,151.953h89.413l-38.299-152.382l136.883-130.476
	h-91.477l-129.866,117.61l41.88-117.584l-77.378-0.026L658.773,1318.363z"/>
<path fill="#8F99A4" d="M1234.242,1083.442c-5.521-15.254-15.715-28.376-29.131-37.495c-6.953-4.631-14.541-8.227-22.528-10.675
	c-17.224-5.46-37.561-7.963-56.665-7.574c-9.701,0.208-19.39,1.142-30.829,3.333c-11.439,2.192-24.655,5.643-37.055,10.985
	c-12.398,5.37-23.994,12.646-34.188,21.452c-9.535,8.402-18.09,17.856-25.498,28.184c-6.485,9.001-10.661,16.666-14.656,24.396
	c-4.021,7.696-7.801,15.517-11.335,23.449c-6.745,15.706-12.996,30.92-17.872,45.653c-2.322,7.302-4.125,14.785-5.435,22.334
	c-1.188,6.931-2.023,13.917-2.503,20.933c-0.39,5.732-0.377,9.546-0.169,13.372c0.194,3.813,0.57,7.613,1.063,11.413
	c0.492,3.801,1.103,7.601,3.242,13.709c2.141,6.109,5.785,14.514,10.908,21.945c5.136,7.444,11.737,13.93,19.272,19.039
	c7.536,5.11,15.979,8.846,25.615,11.569c19.507,5.396,42.438,7.004,63.928,5.72c11.324-0.621,22.562-2.341,33.553-5.136
	c11.842-3.022,24.708-7.652,36.549-14.15c11.865-6.495,22.633-14.82,31.906-24.668c9.234-9.818,16.873-21.063,23.579-33.385
	c6.705-12.321,12.464-25.731,17.95-39.233c5.485-13.488,10.687-27.081,14.306-37.171c3.605-10.091,5.654-16.692,7.198-23.397
	c1.543-6.706,2.606-13.527,3.242-20.402C1239.936,1114.09,1239.521,1098.707,1234.242,1083.442z M1159.601,1125.451
	c-4.138,15.408-8.274,30.804-13.281,45.926c-5.006,15.123-10.895,29.947-16.757,44.785c-4.547,10.785-10.538,20.903-17.808,30.076
	c-5.058,6.304-10.284,10.714-16.043,13.969c-6.252,3.524-13.136,5.785-20.259,6.654c-10.272,1.297-20.804-0.26-29.065-4.034
	c-4.846-2.233-9.214-5.383-12.866-9.273c-4.806-5.204-7.585-11.96-7.833-19.039c-0.303-7.089,0.471-14.182,2.295-21.037
	c8.721-34.457,21.617-67.721,38.403-99.051c4.805-9.541,12.245-17.504,21.439-22.943c8.215-4.736,17.382-7.581,26.834-8.326
	c11.972-0.609,24.708,0.44,34.928,9.065c3.087,2.659,5.655,5.914,7.536,9.533c1.894,3.605,3.087,7.562,3.501,11.621
	C1161.027,1117.423,1160.678,1121.548,1159.601,1125.451L1159.601,1125.451z M1275.979,1318.402l75.315-211.29l6.86,211.29h109.881
	l105.586-282.896l-71.891,0.013l-74.576,205.714l-5.876-205.727h-113.939l-103.563,282.896H1275.979L1275.979,1318.402z
	 M1692.178,1262.191l-1.595,56.25h74.019l5.02-282.948h-99.53l-185.779,282.923h76.808l38.377-56.043L1692.178,1262.191z
	 M1699.363,1102.313l-3.8,102.928l-58.468,0.143L1699.363,1102.313z M2010.041,1035.571h-126.48l-105.665,282.818h72.047
	l78.221-209.786l-16.265,209.838h76.224l134.237-206.867l-78.26,206.842h74.278l106.196-282.819h-127.908l-111.487,182.55
	L2010.041,1035.571L2010.041,1035.571z M2274.248,1035.571l-105.988,282.87h73.279l107.025-282.87H2274.248z"/>
<path fill="none" stroke="#FFFFFF" stroke-width="0.216" stroke-miterlimit="2.613" d="M2461.246,1055.064
	c-1.371-3.645-3.438-6.987-6.082-9.844c-8.431-8.768-19.183-11.271-29.74-8.729c-7.061,1.81-13.237,6.095-17.405,12.074
	c-4.13,5.976-5.942,13.252-5.097,20.467c0.874,7.22,4.351,13.874,9.779,18.715c9.247,7.873,19.934,9.649,31.23,5.616
	c3.645-1.388,6.991-3.515,9.831-6.199C2462.842,1078.255,2465.319,1066.556,2461.246,1055.064 M2451.233,1083.793
	c-2.386,2.373-5.266,4.279-8.378,5.551c-9.831,3.709-19.001,2.257-27.029-4.307c-2.352-2.02-4.324-4.444-5.823-7.159
	c-4.941-9.402-3.878-18.702,1.037-26.433c3.437-5.245,8.657-9.069,14.695-10.765c12.771-3.702,26.275,2.844,31.282,15.162
	C2460.883,1065.868,2458.834,1076.023,2451.233,1083.793"/>
<path fill="#FFFFFF" d="M2443.945,1068.514c-1.008-1.257-2.428-2.116-4.008-2.425c1.75-0.402,4.409-1.31,5.719-4.514
	c1.115-3.021,1.362-6.446-2.049-10.116c-3.346-3.203-7.393-2.802-11.167-2.879l-12.71,0.013l0.052,33.669l7.068,0.026v-13.502
	c3.242,0.363,6.692-1.283,10.362,2.05c2.413,3.566,0.766,6.407,2.504,11.426h7.146
	C2444.774,1077.748,2446.655,1073.3,2443.945,1068.514L2443.945,1068.514z M2437.097,1062.651c-3.32,1.311-6.835,0.468-10.233,0.636
	l-0.025-8.936c3.502,0.22,6.692-0.714,10.519,0.726C2439.859,1056.686,2440.495,1060.356,2437.097,1062.651z"/>
</svg>
