<?xml version="1.0" encoding="utf-8"?>
<!-- Generator: Adobe Illustrator 16.0.0, SVG Export Plug-In . SVG Version: 6.00 Build 0)  -->
<!DOCTYPE svg PUBLIC "-//W3C//DTD SVG 1.1//EN" "http://www.w3.org/Graphics/SVG/1.1/DTD/svg11.dtd">
<svg version="1.1" id="Layer_1" xmlns="http://www.w3.org/2000/svg" xmlns:xlink="http://www.w3.org/1999/xlink" x="0px" y="0px"
	 width="589.922px" height="79.995px" viewBox="20.444 -13.5 589.922 79.995" enable-background="new 20.444 -13.5 589.922 79.995"
	 xml:space="preserve">
<g>
	<linearGradient id="SVGID_1_" gradientUnits="userSpaceOnUse" x1="50.4438" y1="-3.4951" x2="50.4438" y2="66.4956">
		<stop  offset="0" style="stop-color:#E10000"/>
		<stop  offset="1" style="stop-color:#2F429B"/>
	</linearGradient>
	<path fill="url(#SVGID_1_)" d="M20.444,66.495v-69.99h49.995v9.99h-30v20.01h30v9.99h-30v20.01h30v9.99H20.444z M70.439,26.505
		V6.495h10.005v20.01H70.439z M70.439,56.505v-20.01h10.005v20.01H70.439z"/>
	<linearGradient id="SVGID_2_" gradientUnits="userSpaceOnUse" x1="115.4316" y1="6.4951" x2="115.4316" y2="66.4956">
		<stop  offset="0" style="stop-color:#E10000"/>
		<stop  offset="1" style="stop-color:#2F429B"/>
	</linearGradient>
	<path fill="url(#SVGID_2_)" d="M90.434,66.495v-60h49.995V16.5h-30v10.005h19.995v9.99h-19.995v20.01h30v9.99H90.434z"/>
	<linearGradient id="SVGID_3_" gradientUnits="userSpaceOnUse" x1="175.417" y1="6.4951" x2="175.417" y2="66.4956">
		<stop  offset="0" style="stop-color:#E10000"/>
		<stop  offset="1" style="stop-color:#2F429B"/>
	</linearGradient>
	<path fill="url(#SVGID_3_)" d="M150.419,66.495V16.5h9.99V6.495h30V16.5h-19.995v19.995h19.995V16.5h10.005v49.995H190.41V46.5
		h-19.995v19.995H150.419z"/>
	<linearGradient id="SVGID_4_" gradientUnits="userSpaceOnUse" x1="230.3999" y1="6.4951" x2="230.3999" y2="66.4956">
		<stop  offset="0" style="stop-color:#E10000"/>
		<stop  offset="1" style="stop-color:#2F429B"/>
	</linearGradient>
	<path fill="url(#SVGID_4_)" d="M220.395,66.495V16.5h-9.99V6.495h39.99V16.5h-9.99v49.995H220.395z"/>
	<linearGradient id="SVGID_5_" gradientUnits="userSpaceOnUse" x1="300.3975" y1="-13.5" x2="300.3975" y2="16.5">
		<stop  offset="0" style="stop-color:#E10000"/>
		<stop  offset="1" style="stop-color:#2F429B"/>
	</linearGradient>
	<path fill="url(#SVGID_5_)" d="M290.4,16.5V6.495h9.99V16.5H290.4z M300.39,6.495V-13.5h10.005V6.495H300.39z"/>
	<linearGradient id="SVGID_6_" gradientUnits="userSpaceOnUse" x1="350.3999" y1="-3.4951" x2="350.3999" y2="66.4956">
		<stop  offset="0" style="stop-color:#E10000"/>
		<stop  offset="1" style="stop-color:#2F429B"/>
	</linearGradient>
	<path fill="url(#SVGID_6_)" d="M320.4,66.495v-69.99h60v9.99h-40.005v20.01h19.995v9.99h-19.995v20.01H380.4v9.99H320.4z"/>
	<linearGradient id="SVGID_7_" gradientUnits="userSpaceOnUse" x1="420.3901" y1="6.4951" x2="420.3901" y2="66.4956">
		<stop  offset="0" style="stop-color:#E10000"/>
		<stop  offset="1" style="stop-color:#2F429B"/>
	</linearGradient>
	<path fill="url(#SVGID_7_)" d="M390.39,66.495v-60h30V16.5h-10.005v49.995H390.39z M420.39,26.505V16.5h9.99v10.005H420.39z
		 M440.385,66.495V16.5H430.38V6.495h20.01v60H440.385z"/>
	<linearGradient id="SVGID_8_" gradientUnits="userSpaceOnUse" x1="520.3804" y1="-3.4951" x2="520.3804" y2="66.4956">
		<stop  offset="0" style="stop-color:#E10000"/>
		<stop  offset="1" style="stop-color:#2F429B"/>
	</linearGradient>
	<path fill="url(#SVGID_8_)" d="M500.371,66.495v-9.99h-9.99v-60h19.995v60h30v9.99H500.371z M540.375,56.505v-60h10.005v60H540.375
		z"/>
	<linearGradient id="SVGID_9_" gradientUnits="userSpaceOnUse" x1="585.3677" y1="6.4951" x2="585.3677" y2="66.4956">
		<stop  offset="0" style="stop-color:#E10000"/>
		<stop  offset="1" style="stop-color:#2F429B"/>
	</linearGradient>
	<path fill="url(#SVGID_9_)" d="M560.371,66.495v-60h39.99V16.5h-19.995v19.995h19.995V46.5h-19.995v19.995H560.371z
		 M600.361,36.495V16.5h10.005v19.995H600.361z"/>
</g>
</svg>
