<?xml version="1.0" encoding="utf-8"?>
<!-- Generator: Adobe Illustrator 16.0.0, SVG Export Plug-In . SVG Version: 6.00 Build 0)  -->
<!DOCTYPE svg PUBLIC "-//W3C//DTD SVG 1.1//EN" "http://www.w3.org/Graphics/SVG/1.1/DTD/svg11.dtd">
<svg version="1.1"
	 id="Layer_1" xmlns:cc="http://creativecommons.org/ns#" xmlns:dc="http://purl.org/dc/elements/1.1/" xmlns:rdf="http://www.w3.org/1999/02/22-rdf-syntax-ns#"
	 xmlns="http://www.w3.org/2000/svg" xmlns:xlink="http://www.w3.org/1999/xlink" x="0px" y="0px" width="567.93px"
	 height="69.41px" viewBox="0 0 567.93 69.41" enable-background="new 0 0 567.93 69.41" xml:space="preserve">
<g id="g3">
	<path id="path5" fill="#4D4D4D" stroke="#EDEDED" stroke-width="2" d="M213.302,56.3c-4.779,6.492-9.51,8.334-11.58,9.33
		c-2.068,0.998-5.201,1.779-7.941,1.779c-7.689,0-13.688-2.509-18-7.5c-4.314-5.017-6.469-12.048-6.469-21.165
		c0-10.782,2.719-19.924,8.182-27.472C182.954,3.75,190.194,0,199.214,0c6.846,0,12.445,1.922,16.828,5.789
		c4.383,3.844,6.564,9.891,6.564,18.117h-13.244c0-3.938-0.867-6.703-2.604-8.298c-1.732-1.569-4.219-2.366-7.477-2.366
		c-5.32,0-9.422,2.601-12.352,7.78c-2.906,5.204-4.385,11.109-4.385,17.742c0,4.524,0.963,8.229,2.838,11.086
		c1.898,2.885,4.732,4.313,8.508,4.313c3.938,0,6.984-1.125,9.188-3.354c2.18-2.201,3.797-5.063,4.828-8.556h-12.33l1.996-12h24.045
		l-2.039,11.625c0,0.007-1.52,7.931-6.28,14.422H213.302z"/>
	<polygon id="polygon9" fill="#4D4D4D" stroke="#EDEDED" stroke-width="2" points="327.632,1.666 316.872,65.84 305.292,65.84 
		314.412,16.104 294.302,65.84 284.813,65.84 280.432,16.127 273.512,65.84 261.792,65.84 272.502,1.666 288.932,1.666 
		292.622,46.855 311.082,1.547 	"/>
	<polygon id="polygon11" fill="#4D4D4D" stroke="#EDEDED" stroke-width="2" points="339.893,26.509 358.802,26.509 356.832,38.956 
		337.922,38.956 335.482,52.62 356.832,52.62 354.722,65.84 321.072,65.84 331.712,1.594 364.962,1.594 362.932,14.907 
		342.002,14.907 	"/>
	<path id="path13" fill="#4D4D4D" stroke="#EDEDED" stroke-width="2" d="M239.082,1.547l-25.87,64.293h12.609l4.617-12.541h16.5
		l1.078,12.541h12.211l-7.313-64.292l-13.84-0.001H239.082z M234.442,42.331l9.377-25.571l2.178,25.571h-11.56H234.442z"/>
</g>
<g id="g9">
	<path id="path5_1_" fill="#4D4D4D" stroke="#EDEDED" stroke-width="2" d="M430.282,56.3c-4.781,6.492-9.511,8.334-11.58,9.331
		c-2.068,0.997-5.201,1.779-7.941,1.779c-7.688,0-13.688-2.51-18-7.5c-4.313-5.018-6.471-12.046-6.471-21.164
		c0-10.782,2.721-19.923,8.182-27.472c5.461-7.522,12.703-11.272,21.728-11.272c6.844,0,12.444,1.922,16.828,5.789
		c4.385,3.845,6.563,9.893,6.563,18.118h-13.24c0-3.938-0.864-6.703-2.604-8.298c-1.732-1.568-4.219-2.366-7.478-2.366
		c-5.319,0-9.422,2.601-12.352,7.78c-2.908,5.204-4.383,11.109-4.383,17.743c0,4.523,0.961,8.229,2.834,11.086
		c1.897,2.885,4.733,4.313,8.51,4.313c3.938,0,6.984-1.125,9.188-3.354c2.18-2.203,3.797-5.063,4.83-8.556h-12.33l1.991-12h24.048
		l-2.039,11.625c0,0.003-1.53,7.927-6.29,14.418H430.282z"/>
	<polygon id="polygon15" fill="#4D4D4D" stroke="#EDEDED" stroke-width="2" points="454.992,26.532 473.882,26.532 471.941,38.956 
		453.021,38.956 450.562,52.62 471.941,52.62 469.832,65.861 436.172,65.861 446.812,1.594 480.072,1.594 478.032,14.906 
		457.102,14.906 	"/>
	<path id="path17" fill="#4D4D4D" stroke="#EDEDED" stroke-width="2" d="M496.802,1.573l-25.875,64.292h12.636l4.594-12.54h16.522
		l1.076,12.54h12.189L510.63,1.573H496.8H496.802z M492.182,42.33l9.355-25.572l2.203,25.572H492.182L492.182,42.33z"/>
	<path id="path19" fill="#4D4D4D" stroke="#EDEDED" stroke-width="2" d="M537.492,29.836l2.813-15.819h6.75
		c2.484,0,4.336,0.444,5.578,1.336c1.242,0.914,1.852,2.718,1.852,5.438c0,3.047-1.008,5.297-3,6.798
		c-2.018,1.5-4.569,2.249-7.663,2.249L537.492,29.836L537.492,29.836z M529.882,1.594l-10.641,64.268h12.303l4.127-24.491h5.695
		l9.516,24.491h14.109l-10.55-27.116c3.683-1.875,6.847-4.993,9.05-8.25c2.297-3.353,3.442-7.267,3.442-11.743
		c0-6.07-1.356-10.431-4.102-13.125c-2.719-2.694-6.588-4.031-11.555-4.031l-21.4-0.002H529.882z"/>
</g>
<path id="path21" fill="#D61808" d="M10.276,26.281C21.133,8.071,36.079-3.295,43.659,0.855c7.564,4.168,4.898,22.309-5.979,40.506
	C26.821,59.572,11.877,70.936,4.315,66.784C-3.267,62.619-0.585,44.477,10.276,26.281z"/>
<path id="path21_2_" fill="#008400" d="M58.848,26.281C69.706,8.071,84.651-3.295,92.229,0.855
	c7.564,4.168,4.898,22.309-5.979,40.506C75.393,59.572,60.448,70.936,52.885,66.784C45.305,62.619,47.987,44.477,58.848,26.281z"/>
<path id="path21_3_" fill="#0000FF" d="M107.422,26.281c10.85-18.211,25.8-29.576,33.38-25.427
	c7.564,4.168,4.898,22.309-5.979,40.505c-10.859,18.211-25.801,29.576-33.365,25.425c-7.586-4.165-4.903-22.308,5.96-40.503H107.422
	z"/>
<rect x="381.465" y="23.389" width="186.465" height="46.021"/>
<text transform="matrix(1 0 0 1 381.9648 60.3887)" fill="#FF0000" font-family="'OCRAStd'" font-size="36">&gt;HACKS_</text>
</svg>
