<?xml version="1.0" encoding="utf-8"?>
<!-- Generator: Adobe Illustrator 16.0.0, SVG Export Plug-In . SVG Version: 6.00 Build 0)  -->
<!DOCTYPE svg PUBLIC "-//W3C//DTD SVG 1.1//EN" "http://www.w3.org/Graphics/SVG/1.1/DTD/svg11.dtd">
<svg version="1.1" id="Ebene_1" xmlns="http://www.w3.org/2000/svg" xmlns:xlink="http://www.w3.org/1999/xlink" x="0px" y="0px"
	 width="290.5px" height="85.789px" viewBox="0 0 290.5 85.789" enable-background="new 0 0 290.5 85.789" xml:space="preserve">
<g>
	<path fill="#D61616" d="M252.825,70.452H37.677c-19.423,0-35.229-15.804-35.229-35.228S18.256,0,37.677,0h215.146
		c19.426,0,35.229,15.802,35.229,35.226C288.052,54.648,272.251,70.452,252.825,70.452z M37.677,8.333
		c-14.829,0-26.896,12.063-26.896,26.895c0,14.829,12.063,26.895,26.896,26.895h215.146c14.825,0,26.895-12.064,26.895-26.895
		c0-14.83-12.065-26.895-26.895-26.895H37.677z"/>
	<path fill="#D61616" d="M65.309,51.563V19.047H55.53v22.735L41.106,19.047H30.595v32.516h9.779v-23.47l15.153,23.47H65.309z"/>
	<path fill="#D61616" d="M81.2,51.563V29.56h-9.777v22.002H81.2L81.2,51.563z"/>
	<path fill="#D61616" d="M81.2,24.914v-5.867h-9.777v5.867H81.2z"/>
	<path id="_x33_162" fill="#D61616" d="M115.425,51.563v-15.16c0-3.178-6.112-7.577-9.289-7.577H103.2
		c-2.198,0-4.646,1.956-6.846,2.934v-2.2h-9.778v22.002h9.778V36.402c0-1.467,3.422-3.178,4.892-3.178
		c1.467,0,4.153,1.711,4.153,3.178v15.159L115.425,51.563L115.425,51.563z"/>
	<path id="_x33_162_1_" fill="#D61616" d="M197.245,52.318V37.162c0-3.18-6.109-7.578-9.293-7.578h-2.935
		c-2.199,0-4.645,1.956-6.848,2.933v-2.199h-9.777V52.32h9.777V37.162c0-1.467,3.424-3.18,4.893-3.18
		c1.467,0,4.152,1.713,4.152,3.18v15.156H197.245L197.245,52.318z"/>
	<path fill="#D61616" d="M131.315,51.563V29.56h5.135v-2.934h-5.135V21.98h-10.021v4.646h-5.136v2.934h5.136v22.002H131.315
		L131.315,51.563z"/>
	<path fill="#D61616" d="M150.141,28.826c-7.823,0-14.424,5.378-14.424,11.979c0,6.845,6.601,12.222,14.424,12.222
		c6.846,0,12.469-3.909,13.936-9.045h-10.021v2.936c0,2.443-1.709,3.18-3.908,3.18c-2.198,0-3.67-0.731-3.67-3.18v-6.111h18.097
		C164.564,34.205,158.21,28.826,150.141,28.826z M150.141,31.026c2.2,0,3.911,1.468,3.911,3.912v2.199h-7.577v-2.199
		C146.475,32.493,147.939,31.026,150.141,31.026z"/>
	<path fill="#D61616" d="M246.466,28.826c-8.069,0-14.428,5.378-14.428,11.979c0,6.845,6.354,12.222,14.428,12.222
		c7.816,0,14.423-5.377,14.423-12.222C260.884,34.205,254.284,28.826,246.466,28.826z M246.466,31.026
		c2.193,0,3.666,1.468,3.666,3.912v11.979c0,2.442-1.473,3.179-3.666,3.179c-2.444,0-3.914-0.734-3.914-3.179V34.938
		C242.55,32.493,244.02,31.026,246.466,31.026z"/>
	<path fill="#D61616" d="M218.35,19.047v11.979c0,0-2.938-2.199-6.851-2.199c-6.108,0-11.244,5.378-11.244,11.246
		c0,6.11,5.138,12.224,11.244,12.224c3.912,0,6.851-1.467,6.851-1.467v0.73h9.776V19.047H218.35z M214.682,32.493
		c2.196,0,3.668,1.712,3.668,3.912v9.045c0,2.2-1.472,2.934-3.668,2.934c-2.443,0-3.912-0.731-3.912-2.934v-9.045
		C210.77,34.205,212.236,32.493,214.682,32.493z"/>
	<g>
		<path fill="#D61616" d="M262.105,29.216c-2.771,0-5.035-2.258-5.035-5.035c0-2.959,2.214-5.28,5.035-5.28
			c2.729,0,5.037,2.417,5.037,5.28C267.145,26.862,264.794,29.216,262.105,29.216z M262.105,19.683c-2.426,0-4.252,1.935-4.252,4.5
			c0,2.344,1.908,4.254,4.252,4.254c2.229,0,4.254-2.027,4.254-4.254C266.359,21.784,264.378,19.683,262.105,19.683z M262.991,26.33
			l-0.863-1.516h-1.096v1.321h-0.779V21.59h2.104c0.979,0,1.486,0.813,1.486,1.613c0,0.614-0.303,1.237-0.885,1.491l0.711,1.248
			L262.991,26.33z M261.032,24.036h1.317c0.224,0,0.396-0.079,0.521-0.235c0.119-0.149,0.188-0.368,0.188-0.597
			c0-0.312-0.147-0.832-0.709-0.832h-1.317V24.036L261.032,24.036z"/>
	</g>
</g>
<g>
	<path fill="#999999" d="M24.313,85.789h-9.104c-2.601,0-3.9-1.301-3.9-3.9v-7.804h13.004v2.603H13.908v1.949h10.403v2.604H13.908
		v0.648c0,0.866,0.435,1.301,1.301,1.301h9.104V85.789z"/>
	<path fill="#999999" d="M25.613,85.789V74.085h9.104c2.601,0,3.9,1.301,3.9,3.901v7.803h-2.601v-7.803
		c0-0.866-0.435-1.301-1.3-1.301h-6.502v9.104H25.613z"/>
	<path fill="#999999" d="M39.917,74.085h13.005v2.603H47.72v9.104h-2.602v-9.104h-5.202L39.917,74.085L39.917,74.085z"/>
	<path fill="#999999" d="M67.226,85.789h-9.104c-2.601,0-3.9-1.301-3.9-3.9v-7.804h13.004v2.603H56.822v1.949h10.403v2.604H56.822
		v0.648c0,0.866,0.435,1.301,1.301,1.301h9.104L67.226,85.789L67.226,85.789z"/>
	<path fill="#999999" d="M71.127,81.238v4.552h-2.601V74.085h9.104c2.601,0,3.9,1.188,3.9,3.563c0,1.127-0.188,1.955-0.559,2.48
		c0.373,0.616,0.559,1.418,0.559,2.406v3.251h-2.6v-3.251c0-0.867-0.435-1.303-1.3-1.303h-6.503V81.238z M71.127,78.637h7.804
		v-1.949h-7.804V78.637z"/>
	<path fill="#999999" d="M82.83,74.085h13.004v2.603h-5.201v9.104h-2.602v-9.104h-5.202L82.83,74.085L82.83,74.085z"/>
	<path fill="#999999" d="M99.736,82.538v3.251h-2.601v-7.803c0-2.604,1.3-3.901,3.9-3.901h5.202c2.602,0,3.901,1.301,3.901,3.901
		v7.803h-2.602v-3.251H99.736z M107.538,79.938v-1.951c0-0.863-0.434-1.299-1.3-1.299h-5.202c-0.867,0-1.301,0.436-1.301,1.299
		v1.951H107.538z"/>
	<path fill="#999999" d="M111.44,85.789V74.085h2.601v11.704H111.44z"/>
	<path fill="#999999" d="M115.342,85.789V74.085h9.103c2.602,0,3.9,1.301,3.9,3.901v7.803h-2.602v-7.803
		c0-0.866-0.436-1.301-1.3-1.301h-6.502v9.104H115.342z"/>
	<path fill="#999999" d="M129.646,85.789V74.085h10.402c2.603,0,3.9,1.301,3.9,3.901v7.803h-2.602v-7.803
		c0-0.866-0.435-1.301-1.301-1.301h-1.951v9.104h-2.601v-9.104h-3.251v9.104H129.646z"/>
	<path fill="#999999" d="M158.256,85.789h-9.104c-2.603,0-3.902-1.301-3.902-3.9v-7.804h13.006v2.603h-10.404v1.949h10.404v2.604
		h-10.404v0.648c0,0.866,0.437,1.301,1.303,1.301h9.104v2.601L158.256,85.789L158.256,85.789z"/>
	<path fill="#999999" d="M159.557,85.789V74.085h9.103c2.604,0,3.901,1.301,3.901,3.901v7.803h-2.604v-7.803
		c0-0.866-0.434-1.301-1.301-1.301h-6.502v9.104H159.557z"/>
	<path fill="#999999" d="M173.861,74.085h13.004v2.603h-5.201v9.104h-2.602v-9.104h-5.201V74.085z"/>
	<path fill="#999999" d="M193.367,83.189h10.402v-1.951h-6.502c-2.603,0-3.9-1.176-3.9-3.523c0-2.419,1.301-3.629,3.9-3.629h9.104
		v2.602h-10.402v1.951h6.502c2.603,0,3.9,1.191,3.9,3.575s-1.301,3.576-3.9,3.576h-9.104V83.189z"/>
	<path fill="#999999" d="M212.871,81.238h-1.299c-2.603,0-3.9-1.301-3.9-3.901v-3.251h2.602v3.251c0,0.867,0.435,1.302,1.302,1.302
		h5.2c0.865,0,1.302-0.435,1.302-1.302v-3.251h2.603v3.251c0,2.603-1.302,3.901-3.9,3.901h-1.301v4.552h-2.604L212.871,81.238
		L212.871,81.238z"/>
	<path fill="#999999" d="M221.977,83.189h10.4v-1.951h-6.502c-2.6,0-3.898-1.176-3.898-3.523c0-2.419,1.301-3.629,3.898-3.629h9.105
		v2.602h-10.404v1.951h6.502c2.604,0,3.902,1.191,3.902,3.575s-1.302,3.576-3.902,3.576h-9.102V83.189L221.977,83.189z"/>
	<path fill="#999999" d="M236.281,74.085h13.004v2.603h-5.201v9.104h-2.602v-9.104h-5.201V74.085L236.281,74.085z"/>
	<path fill="#999999" d="M263.588,85.789h-9.104c-2.601,0-3.9-1.301-3.9-3.9v-7.804h13.004v2.603h-10.402v1.949h10.402v2.604
		h-10.402v0.648c0,0.866,0.435,1.301,1.301,1.301h9.105v2.602L263.588,85.789L263.588,85.789z"/>
	<path fill="#999999" d="M264.889,85.789V74.085h10.402c2.602,0,3.9,1.301,3.9,3.901v7.803h-2.603v-7.803
		c0-0.866-0.434-1.301-1.301-1.301h-1.947v9.104h-2.604v-9.104h-3.25v9.104H264.889z"/>
</g>
<rect x="104.035" y="39.768" width="186.465" height="46.021"/>
<g enable-background="new    ">
	<path fill="#FF0000" d="M121.813,61.938l-12.814-8.495c-0.684-0.468-1.26-0.972-1.26-1.907c0.036-1.008,0.864-1.944,1.908-1.944
		c0.54,0,1.044,0.252,1.476,0.54l14.83,9.863c0.792,0.504,1.368,0.936,1.332,1.943c0,1.044-0.54,1.439-1.332,1.943l-14.794,9.827
		c-0.432,0.288-0.936,0.612-1.548,0.612c-1.008,0-1.872-0.973-1.872-1.98c0.036-0.899,0.468-1.367,1.188-1.836L121.813,61.938z"/>
	<path fill="#FF0000" d="M138.121,64.565v10.402c0,1.152-0.504,1.8-1.8,1.8s-1.8-0.647-1.8-1.8V50.563c0-1.151,0.504-1.8,1.8-1.8
		s1.8,0.648,1.8,1.8v10.403h10.582V50.563c0-1.151,0.504-1.8,1.801-1.8c1.295,0,1.799,0.648,1.799,1.8v24.405
		c0,1.152-0.504,1.8-1.799,1.8c-1.297,0-1.801-0.647-1.801-1.8V64.565H138.121z"/>
	<path fill="#FF0000" d="M167.496,50.599c0.288-0.972,0.684-1.836,1.836-1.836c1.188,0,1.619,0.9,1.871,1.836l6.947,24.369
		c0.252,0.864-0.72,1.8-1.728,1.8c-1.116,0-1.691-0.936-1.943-1.8l-1.332-4.319h-7.667l-1.367,4.319
		c-0.252,0.864-0.828,1.8-1.944,1.8c-1.008,0-1.979-0.936-1.728-1.8L167.496,50.599z M169.367,57.294h-0.071l-2.808,9.755h5.651
		L169.367,57.294z"/>
	<path fill="#FF0000" d="M196.043,76.768c-2.699,0-4.247-1.08-5.398-3.42l-3.313-6.694c-0.611-1.225-0.972-2.376-0.972-3.78
		c0-1.584,0.288-2.556,1.008-3.995l3.312-6.659c1.225-2.483,2.771-3.456,5.543-3.456h6.119c0.793,0,1.801,0.433,1.801,1.8
		c0,1.296-0.973,1.8-1.801,1.8h-6.011c-1.548,0-1.8,0.145-2.483,1.512l-3.132,6.264c-0.468,0.972-0.756,1.62-0.756,2.735
		c0,1.008,0.324,1.62,0.756,2.484l3.06,6.227c0.721,1.476,1.08,1.584,2.699,1.584h5.867c0.793,0,1.801,0.432,1.801,1.8
		c0,1.296-0.973,1.8-1.801,1.8H196.043z"/>
	<path fill="#FF0000" d="M212.279,50.563c0-1.151,0.504-1.8,1.801-1.8c1.295,0,1.799,0.648,1.799,1.8v8.279l10.979-9.323
		c0.433-0.359,0.9-0.72,1.477-0.72c1.044,0,1.728,0.864,1.728,1.872c0,0.612-0.396,1.116-0.827,1.512l-12.419,10.583l12.347,10.582
		c0.468,0.396,0.899,0.9,0.899,1.548c0,1.008-0.684,1.872-1.728,1.872c-0.756,0-1.368-0.647-1.943-1.08l-10.512-9.034v8.314
		c0,1.152-0.504,1.8-1.799,1.8c-1.297,0-1.801-0.647-1.801-1.8V50.563z"/>
	<path fill="#FF0000" d="M254.722,69.713c0.72,0.936,1.26,1.764,1.26,2.987c0,2.699-2.052,4.067-4.535,4.067h-7.919
		c-1.368,0-2.556-0.252-3.636-1.152c-0.972-0.791-1.692-2.087-1.692-3.347c0-1.152,0.648-2.16,1.908-2.16
		c1.044,0,1.691,0.864,1.691,1.836c0,1.08,0.576,1.224,1.584,1.224h7.812c0.288,0,1.188,0.108,1.188-0.432
		c0-0.288-0.504-0.828-0.647-1.044l-12.347-15.874c-0.756-0.972-1.188-1.692-1.188-2.952c0-1.439,0.685-2.663,1.908-3.455
		c1.008-0.648,1.836-0.648,2.988-0.648h7.631c1.367,0,2.52,0.288,3.563,1.188c0.937,0.828,1.692,2.159,1.692,3.419
		c0,1.152-0.575,2.088-1.872,2.088c-1.08,0-1.728-0.684-1.728-1.691c0-1.224-0.612-1.404-1.728-1.404h-7.631
		c-0.396,0-1.225-0.107-1.225,0.504c0,0.324,0.396,0.756,0.541,0.973L254.722,69.713z"/>
	<path fill="#FF0000" d="M285.969,78.892v3.6h-25.917v-3.6H285.969z"/>
</g>
</svg>
