<?xml version="1.0" encoding="utf-8"?>
<!-- Generator: Adobe Illustrator 16.0.0, SVG Export Plug-In . SVG Version: 6.00 Build 0)  -->
<!DOCTYPE svg PUBLIC "-//W3C//DTD SVG 1.1//EN" "http://www.w3.org/Graphics/SVG/1.1/DTD/svg11.dtd">
<svg version="1.1" id="Ebene_1" xmlns="http://www.w3.org/2000/svg" xmlns:xlink="http://www.w3.org/1999/xlink" x="0px" y="0px"
	 width="290.5px" height="85.789px" viewBox="0 0 290.5 85.789" enable-background="new 0 0 290.5 85.789" xml:space="preserve">
<g>
	<path fill="#D61616" d="M252.825,70.452H37.677c-19.423,0-35.229-15.804-35.229-35.228S18.256,0,37.677,0h215.146
		c19.426,0,35.229,15.802,35.229,35.226C288.052,54.648,272.251,70.452,252.825,70.452z M37.677,8.333
		c-14.829,0-26.896,12.063-26.896,26.895c0,14.829,12.064,26.895,26.896,26.895h215.146c14.826,0,26.895-12.064,26.895-26.895
		c0-14.83-12.066-26.895-26.895-26.895H37.677z"/>
	<path fill="#D61616" d="M65.309,51.563V19.047H55.53v22.735L41.106,19.047H30.595v32.516h9.779v-23.47l15.153,23.47H65.309z"/>
	<path fill="#D61616" d="M81.2,51.563V29.56h-9.777v22.002H81.2L81.2,51.563z"/>
	<path fill="#D61616" d="M81.2,24.914v-5.867h-9.777v5.867H81.2z"/>
	<path id="_x33_162" fill="#D61616" d="M115.425,51.563v-15.16c0-3.178-6.112-7.577-9.289-7.577H103.2
		c-2.198,0-4.646,1.956-6.846,2.934v-2.2h-9.778v22.002h9.778V36.402c0-1.467,3.422-3.178,4.892-3.178
		c1.467,0,4.153,1.711,4.153,3.178v15.159L115.425,51.563L115.425,51.563z"/>
	<path id="_x33_162_1_" fill="#D61616" d="M197.245,52.318V37.162c0-3.18-6.109-7.578-9.293-7.578h-2.934
		c-2.199,0-4.645,1.956-6.848,2.933v-2.199h-9.777V52.32h9.777V37.162c0-1.467,3.424-3.18,4.893-3.18
		c1.467,0,4.152,1.713,4.152,3.18v15.156H197.245L197.245,52.318z"/>
	<path fill="#D61616" d="M131.315,51.563V29.56h5.135v-2.934h-5.135V21.98h-10.021v4.646h-5.136v2.934h5.136v22.002H131.315
		L131.315,51.563z"/>
	<path fill="#D61616" d="M150.14,28.826c-7.822,0-14.423,5.378-14.423,11.979c0,6.845,6.601,12.222,14.423,12.222
		c6.846,0,12.469-3.909,13.936-9.045h-10.021v2.936c0,2.443-1.709,3.18-3.908,3.18s-3.67-0.732-3.67-3.18v-6.111h18.096
		C164.565,34.205,158.21,28.826,150.14,28.826z M150.14,31.026c2.201,0,3.912,1.468,3.912,3.912v2.199h-7.578v-2.199
		C146.474,32.493,147.94,31.026,150.14,31.026z"/>
	<path fill="#D61616" d="M246.466,28.826c-8.07,0-14.428,5.378-14.428,11.979c0,6.845,6.354,12.222,14.428,12.222
		c7.816,0,14.422-5.377,14.422-12.222C260.884,34.205,254.284,28.826,246.466,28.826z M246.466,31.026
		c2.193,0,3.666,1.468,3.666,3.912v11.979c0,2.442-1.473,3.179-3.666,3.179c-2.445,0-3.914-0.734-3.914-3.179V34.938
		C242.55,32.493,244.019,31.026,246.466,31.026z"/>
	<path fill="#D61616" d="M218.349,19.047v11.979c0,0-2.938-2.199-6.85-2.199c-6.109,0-11.244,5.378-11.244,11.246
		c0,6.11,5.137,12.224,11.244,12.224c3.912,0,6.85-1.467,6.85-1.467v0.73h9.777V19.047H218.349z M214.681,32.493
		c2.197,0,3.668,1.712,3.668,3.912v9.045c0,2.2-1.471,2.934-3.668,2.934c-2.443,0-3.912-0.731-3.912-2.934v-9.045
		C210.769,34.205,212.237,32.493,214.681,32.493z"/>
	<g>
		<path fill="#D61616" d="M262.106,29.216c-2.771,0-5.035-2.258-5.035-5.035c0-2.959,2.213-5.28,5.035-5.28
			c2.729,0,5.037,2.417,5.037,5.28C267.144,26.862,264.794,29.216,262.106,29.216z M262.106,19.683c-2.426,0-4.252,1.935-4.252,4.5
			c0,2.344,1.908,4.254,4.252,4.254c2.229,0,4.254-2.027,4.254-4.254C266.36,21.784,264.378,19.683,262.106,19.683z M262.991,26.33
			l-0.863-1.516h-1.096v1.321h-0.779V21.59h2.105c0.979,0,1.486,0.813,1.486,1.613c0,0.614-0.303,1.237-0.885,1.491l0.711,1.248
			L262.991,26.33z M261.032,24.036h1.318c0.223,0,0.396-0.079,0.521-0.235c0.119-0.149,0.188-0.368,0.188-0.597
			c0-0.312-0.148-0.832-0.709-0.832h-1.318V24.036L261.032,24.036z"/>
	</g>
</g>
<g>
	<path fill="#8C8C8C" d="M24.313,85.789h-9.104c-2.601,0-3.9-1.301-3.9-3.9v-7.804h13.004v2.603H13.908v1.949h10.403v2.603H13.908
		v0.649c0,0.866,0.435,1.301,1.301,1.301h9.104V85.789z"/>
	<path fill="#8C8C8C" d="M25.613,85.789V74.085h9.104c2.601,0,3.9,1.301,3.9,3.901v7.803h-2.601v-7.803
		c0-0.866-0.435-1.301-1.3-1.301h-6.502v9.104H25.613z"/>
	<path fill="#8C8C8C" d="M39.917,74.085h13.005v2.603H47.72v9.104h-2.602v-9.104h-5.202L39.917,74.085L39.917,74.085z"/>
	<path fill="#8C8C8C" d="M67.226,85.789h-9.104c-2.601,0-3.9-1.301-3.9-3.9v-7.804h13.004v2.603H56.822v1.949h10.403v2.603H56.822
		v0.649c0,0.866,0.435,1.301,1.301,1.301h9.104L67.226,85.789L67.226,85.789z"/>
	<path fill="#8C8C8C" d="M71.127,81.238v4.552h-2.601V74.085h9.104c2.601,0,3.9,1.188,3.9,3.563c0,1.127-0.187,1.955-0.559,2.481
		c0.373,0.616,0.559,1.418,0.559,2.406v3.251H78.93v-3.251c0-0.867-0.435-1.302-1.3-1.302h-6.503V81.238z M71.127,78.637h7.804
		v-1.949h-7.804V78.637z"/>
	<path fill="#8C8C8C" d="M82.83,74.085h13.004v2.603h-5.201v9.104h-2.602v-9.104h-5.202L82.83,74.085L82.83,74.085z"/>
	<path fill="#8C8C8C" d="M99.736,82.538v3.251h-2.601v-7.803c0-2.603,1.3-3.901,3.9-3.901h5.202c2.602,0,3.901,1.301,3.901,3.901
		v7.803h-2.602v-3.251H99.736z M107.538,79.938v-1.951c0-0.864-0.434-1.299-1.3-1.299h-5.202c-0.867,0-1.301,0.435-1.301,1.299
		v1.951H107.538z"/>
	<path fill="#8C8C8C" d="M111.44,85.789V74.085h2.601v11.704H111.44z"/>
	<path fill="#8C8C8C" d="M115.342,85.789V74.085h9.103c2.602,0,3.9,1.301,3.9,3.901v7.803h-2.602v-7.803
		c0-0.866-0.436-1.301-1.3-1.301h-6.502v9.104H115.342z"/>
	<path fill="#8C8C8C" d="M129.646,85.789V74.085h10.402c2.603,0,3.9,1.301,3.9,3.901v7.803h-2.602v-7.803
		c0-0.866-0.435-1.301-1.301-1.301h-1.951v9.104h-2.601v-9.104h-3.251v9.104H129.646z"/>
	<path fill="#8C8C8C" d="M158.256,85.789h-9.104c-2.602,0-3.902-1.301-3.902-3.9v-7.804h13.006v2.603h-10.404v1.949h10.404v2.603
		h-10.404v0.649c0,0.866,0.436,1.301,1.303,1.301h9.104v2.6H158.256z"/>
	<path fill="#8C8C8C" d="M159.557,85.789V74.085h9.102c2.604,0,3.902,1.301,3.902,3.901v7.803h-2.604v-7.803
		c0-0.866-0.434-1.301-1.301-1.301h-6.502v9.104H159.557z"/>
	<path fill="#8C8C8C" d="M173.861,74.085h13.004v2.603h-5.201v9.104h-2.602v-9.104h-5.201V74.085z"/>
	<path fill="#8C8C8C" d="M193.367,83.189h10.402v-1.951h-6.502c-2.602,0-3.9-1.176-3.9-3.523c0-2.419,1.301-3.629,3.9-3.629h9.104
		v2.602h-10.402v1.951h6.502c2.602,0,3.9,1.191,3.9,3.575s-1.301,3.576-3.9,3.576h-9.104V83.189z"/>
	<path fill="#8C8C8C" d="M212.871,81.238h-1.299c-2.602,0-3.9-1.301-3.9-3.901v-3.251h2.602v3.251c0,0.867,0.434,1.302,1.301,1.302
		h5.201c0.865,0,1.301-0.435,1.301-1.302v-3.251h2.602v3.251c0,2.603-1.301,3.901-3.9,3.901h-1.301v4.552h-2.604L212.871,81.238
		L212.871,81.238z"/>
	<path fill="#8C8C8C" d="M221.977,83.189h10.4v-1.951h-6.502c-2.6,0-3.898-1.176-3.898-3.523c0-2.419,1.301-3.629,3.898-3.629h9.105
		v2.602h-10.404v1.951h6.502c2.604,0,3.902,1.191,3.902,3.575s-1.301,3.576-3.902,3.576h-9.102V83.189z"/>
	<path fill="#8C8C8C" d="M236.281,74.085h13.004v2.603h-5.201v9.104h-2.602v-9.104h-5.201V74.085L236.281,74.085z"/>
	<path fill="#8C8C8C" d="M263.588,85.789h-9.104c-2.6,0-3.9-1.301-3.9-3.9v-7.804h13.004v2.603h-10.402v1.949h10.402v2.603h-10.402
		v0.649c0,0.866,0.434,1.301,1.301,1.301h9.105v2.601L263.588,85.789L263.588,85.789z"/>
	<path fill="#8C8C8C" d="M264.889,85.789V74.085h10.402c2.602,0,3.9,1.301,3.9,3.901v7.803h-2.602v-7.803
		c0-0.866-0.434-1.301-1.301-1.301h-1.947v9.104h-2.604v-9.104h-3.25v9.104H264.889z"/>
</g>
<rect x="104.035" y="39.768" width="186.465" height="46.021"/>
<text transform="matrix(1 0 0 1 104.5347 76.7676)" fill="#FF0000" font-family="'OCRAStd'" font-size="36">&gt;HACKS_</text>
</svg>
