<?xml version="1.0" encoding="utf-8"?>
<!-- Generator: Adobe Illustrator 24.3.0, SVG Export Plug-In . SVG Version: 6.00 Build 0)  -->
<svg version="1.1" id="Layer_1" xmlns="http://www.w3.org/2000/svg" xmlns:xlink="http://www.w3.org/1999/xlink" x="0px" y="0px"
	 viewBox="0 0 1311.9 366.1" enable-background="new 0 0 1311.9 366.1" xml:space="preserve">
<g>
	<path fill="#C84B12" d="M125.7,363.7H0v-25l80.3-108.7H9.1v-27.6h111.7v24.5L40.6,336.1h85.2V363.7z"/>
	<path fill="#C84B12" d="M239.2,363.7l-36.2-59l-36.4,59h-37.3l54.9-85.1l-50-76.3h37.3l31.5,51.4l31.3-51.4h37.1l-51.2,76.3
		l56.1,85.1H239.2z"/>
	<path fill="#C84B12" d="M398,318c0,15-5.3,26.8-15.9,35.3c-10.6,8.5-25.4,12.8-44.5,12.8c-18.9,0-33.7-4.2-44.4-12.7
		c-10.7-8.5-16.1-20.2-16.1-35.2c0-10.2,3.2-18.9,9.5-26c6.3-7.1,14.6-11.5,24.8-13.2v-0.5c-9-2-16.3-6.3-22-12.9
		c-5.6-6.6-8.4-14.3-8.4-23.1c0-13.1,5-23.5,14.9-31.2c9.9-7.7,23.7-11.6,41.2-11.6c18.1,0,32.1,3.8,41.9,11.2
		c9.8,7.5,14.8,18.1,14.8,31.8c0,8.5-2.8,16-8.5,22.7c-5.7,6.7-13,11-22.1,12.8v0.5c10.8,1.8,19.3,6.1,25.5,13S398,307.5,398,318z
		 M363.2,315.2c0-8.1-2.2-14.2-6.6-18.4c-4.4-4.2-11-6.3-19.7-6.3c-8.1,0-14.3,2.2-18.7,6.6c-4.4,4.4-6.6,10.6-6.6,18.5
		c0,17.8,8.7,26.7,26.2,26.7c8.5,0,14.8-2.2,19-6.5C361.1,331.6,363.2,324.7,363.2,315.2z M359.3,244.7c0-14.2-7.4-21.3-22.1-21.3
		c-14.5,0-21.8,7.1-21.8,21.3c0,7.3,1.9,12.8,5.7,16.6c3.8,3.8,9.2,5.7,16.3,5.7C352,267,359.3,259.6,359.3,244.7z"/>
	<path fill="#C84B12" d="M415,363.7V202.6h30.9v161.1H415z"/>
</g>
<g>
	<path fill="#4C4C4C" d="M1.2,170.4v-25.2h197.2v-28.7H1.2L0,38.9h224.1v25.1H26.8l1.2,27.3h197.2v79L1.2,170.4L1.2,170.4z"/>
	<path fill="#4C4C4C" d="M241.5,170.4v-131h26.8v131H241.5L241.5,170.4z"/>
	<path fill="#4C4C4C" d="M282.8,170.4v-131h224.1v131H480V64.6H309.6v105.9L282.8,170.4L282.8,170.4L282.8,170.4z"/>
	<path fill="#4C4C4C" d="M521.2,170.4v-131h224.2v25.1H548.2v80.7h197.2v25.2L521.2,170.4L521.2,170.4z"/>
	<path fill="#4C4C4C" d="M763.2,170.4V0h26.9v170.4L763.2,170.4L763.2,170.4z"/>
	<path fill="#4C4C4C" d="M1044.6,170.4v-131h27v131H1044.6L1044.6,170.4z"/>
	<path fill="#4C4C4C" d="M1087.9,170.4v-131h224.1v25.1h-197.2v105.9L1087.9,170.4L1087.9,170.4L1087.9,170.4z"/>
	<path fill="#4C4C4C" d="M804.4,39.4v25.1h197.2v28.7H804.4v77.2h224.2v-131H804.4z M1001.6,145.3H831.4v-28.7h170.2L1001.6,145.3
		L1001.6,145.3z"/>
	<path fill="#4C4C4C" d="M241.5,25.2V0h26.8v25.2H241.5L241.5,25.2z"/>
	<path fill="#4C4C4C" d="M1044.6,25.2V0h27v25.2H1044.6L1044.6,25.2z"/>
</g>
</svg>
