<?xml version="1.0" encoding="utf-8"?>
<!-- Generator: Adobe Illustrator 16.0.0, SVG Export Plug-In . SVG Version: 6.00 Build 0)  -->
<!DOCTYPE svg PUBLIC "-//W3C//DTD SVG 1.1//EN" "http://www.w3.org/Graphics/SVG/1.1/DTD/svg11.dtd">
<svg version="1.1" id="Layer_1" xmlns="http://www.w3.org/2000/svg" xmlns:xlink="http://www.w3.org/1999/xlink" x="0px" y="0px"
	 width="582.645px" height="1080.128px" viewBox="668.716 -0.009 582.645 1080.128"
	 enable-background="new 668.716 -0.009 582.645 1080.128" xml:space="preserve">
<g id="Layer_2">
	<g id="Layer_1-2">
		<g id="_9Stzsu.tif">
			<path d="M779.901,969.408c1.318-13.65-1.188-27.302-0.726-41.019c0.271-13.945,1.372-27.863,3.297-41.678
				c0.574-4.339-0.308-8.745-2.506-12.53c-11.021-21.721-17.739-45.367-19.783-69.639c-1.717-25.024-1.363-50.146,1.055-75.112
				c2.053-17.096,5.024-34.068,8.902-50.845c3.693-18.729,7.848-37.392,11.738-56.055c0.462-2.176,2.902-4.682,0.66-6.595
				c-2.242-1.912-4.353,0.857-6.265,1.913c-14.574,7.649-28.555,16.156-42.403,24.993c-13.519,8.876-28.244,15.761-43.723,20.443
				c-8.154,3.045-17.234-1.098-20.278-9.252c-0.527-1.413-0.85-2.895-0.956-4.398c-1.387-28.383,4.516-56.647,17.146-82.104
				c12.323-25.942,30.359-48.759,52.757-66.737c19.092-16.58,40.973-29.642,64.627-38.578c5.55-1.723,10.181-5.594,12.86-10.749
				c20.484-39.384,33.878-82.063,39.567-126.09c1.78-11.804,4.089-23.608,6.067-35.413c0.18-2.195,0.18-4.4,0-6.595
				c-4.023,1.187-3.892,5.078-5.804,7.32s-3.495,4.221-6.595,3.231c-2.911-0.912-4.94-3.547-5.077-6.595
				c-0.767-9.077,3.289-17.891,10.683-23.213c6.406-5.83,9.307-14.579,7.649-23.081c-1.978-25.587-6.594-50.778-9.892-76.168
				c-4.749-27.439-7.065-55.245-6.924-83.092c0.726-18.069,13.188-27.764,30.532-23.147c21.436,6.192,40.714,18.252,55.659,34.82
				c20.971,21.828,35.677,48.075,51.701,73.398c14.838,23.279,23.938,49.13,36.139,73.53l4.419,8.837c1.121,0,1.846,0,2.044-0.396
				c2.968-4.353,6.595-9.958,12.266-6.595c5.672,3.363,3.825,9.035,2.177,14.31c-1.648,5.276-3.495,10.947-4.748,16.487
				c-0.726,3.034-0.924,7.122,1.912,8.771c2.836,1.648,5.342-1.319,7.386-3.034c8.705-7.254,15.036-16.882,23.016-24.664
				c12.068-11.738,15.167-23.213,5.342-37.523c-1.794-4.154-2.585-8.673-2.309-13.189c-0.461-3.957-1.253-5.474-5.803-4.418
				c-7.364,1.657-14.595,3.861-21.631,6.595c-3.026,1.717-6.733,1.717-9.76,0c-3.033-2.44-0.791-6.133,0-9.497
				c5.407-24.004,21.498-40.227,39.897-54.471c7.188-5.605,8.573-14.178,12.662-21.235c8.375-13.849,17.277-27.565,33.764-34.622
				c10.184-3.024,16.648-13.014,15.234-23.542c-0.528-9.892,5.275-14.904,15.167-15.827c11.343-1.121,11.343-1.121,10.617-12.266
				s4.353-14.508,15.563-11.804c5.144,1.253,7.716,1.583,8.045-5.012c0.33-6.595,13.586-14.112,22.62-12.134
				c3.09,0.701,6.13,1.604,9.101,2.704c4.205,2.068,9.293,0.684,11.87-3.231c4.616-6.265,11.276-4.484,17.41-4.089
				c3.627,0,3.495,3.297,3.692,6.001c0.764,7.643-1.098,15.317-5.275,21.762c-2.499,3.73-2.499,8.601,0,12.332
				c1.978,4.289,3.695,8.693,5.144,13.189c3.562,9.76,0.989,16.157-8.704,18.399c-5.408,1.253-6.596,3.495-5.605,8.177
				c0.183,2.194,0.183,4.4,0,6.595c0,10.485-2.045,13.651-12.267,15.893c-4.616,0.989-5.474,2.704-4.616,6.924
				c3.033,14.442-6.066,24.4-20.904,20.641c-7.32-1.847-12.53-2.308-15.036,7.32c-3.279,10.105-8.751,19.36-16.025,27.104
				c-2.503,2.711-3.151,6.653-1.648,10.024c9.632,32.574,10.88,67.053,3.627,100.238c-4.485,24.649-11.468,48.778-20.839,72.013
				c-13.189,32.313-27.896,64.562-51.174,90.939c-10.947,12.464-10.947,22.62-6.595,36.93
				c9.491,34.333,16.195,69.377,20.048,104.789c3.033,23.807,6.594,47.547,9.628,71.354c0.396,3.165,0,5.144,4.946,4.945
				c12.463-0.659,22.686,6.595,33.632,11.211c12.315,5.135,23.945,11.781,34.622,19.784c11.02,8.31,17.453,21.348,17.344,35.149
				c0.229,10.375-1.06,20.729-3.825,30.73c-4.115,12.867-11.8,24.302-22.157,32.974c-4.946,4.748-9.431,10.09-14.904,14.574
				c-7.304,5.199-15.236,9.454-23.608,12.661c-22.884,10.815-47.613,12.002-72.541,11.343c-8.705,0-17.146-3.627-25.983-3.1
				c-1.96-0.271-3.924,0.474-5.209,1.979c-15.036,16.948-28.489,35.216-42.008,53.417c-30.201,41.777-54.83,87.312-73.267,135.453
				c-6.216,17.766-14.494,34.742-24.663,50.58c-7.986,11.702-21.618,18.242-35.743,17.146
				c-32.974-0.462-55.329-17.674-69.178-46.162c-8.655-18.518-14.14-38.357-16.223-58.692
				C779.901,973.299,781.022,971.255,779.901,969.408L779.901,969.408z"/>
			<path fill="#896EA3" d="M1050.61,688.214c-2.045-13.849-1.386-27.961-8.112-40.293c-5.736-10.42-7.913-22.092-13.188-32.512
				c-15.497-29.412-41.414-36.534-69.837-30.797c-22.22,4.207-42.199,16.231-56.318,33.896
				c-13.459,15.106-21.103,34.509-21.564,54.735c0.209,21.578,13.965,40.692,34.358,47.745
				c26.305,11.54,54.475,18.241,83.157,19.784c1.451,0,3.363-0.989,4.155,0.923c0.791,1.912-0.792,2.901-1.715,4.154
				c-21.366,29.215-42.469,58.692-63.704,88.038c-12.648,19.173-30.054,34.737-50.515,45.174
				c-23.673,11.035-51.606,7.247-71.485-9.694c-20.773-18.004-28.885-42.338-34.424-67.727
				c-6.827-34.777-7.608-70.472-2.309-105.515c4.983-34.465,13.22-68.381,24.599-101.293c1.517-4.682,6.595-10.749,1.055-14.442
				c-5.539-3.692-9.364,2.902-13.189,5.605c-25.851,16.619-51.569,33.501-79.135,47.548c-6.735,3.134-14.319,3.945-21.564,2.308
				c-5.276-0.857-7.519-4.946-7.716-10.419c0.325-18.36,4.836-36.404,13.189-52.758c17.673-41.348,51.107-64.891,90.676-82.036
				c7.637-3.589,15.583-6.48,23.74-8.64c10.494-2.443,18.727-10.573,21.301-21.036c11.971-36.19,21.986-72.997,30.006-110.263
				c5.473-24.663,9.76-49.459,13.188-74.519c1.715-12.134,13.189-16.091,22.817-20.839c7.508-3.479,16.418-1.414,21.631,5.012
				c8.609,9.605,15.966,20.264,21.894,31.72c1.715,2.902,0.594,4.155-2.11,5.276c-36.072,15.102-42.601,59.879-27.434,87.972
				c6.182,10.355,16.092,17.953,27.698,21.234c14.306,5.349,29.382,8.355,44.646,8.903c9.433-0.224,18.247-4.74,23.938-12.267
				c12.2-15.102,18.794-33.368,10.946-51.569c-5.505-14.201-13.253-27.427-22.949-39.172c-3.165-3.627-4.154-5.54,0.726-8.31
				c5.208-3.095,10.249-6.463,15.102-10.09c5.144-3.693,8.046-3.693,10.749,3.297c10.42,26.774,18.466,54.274,26.906,81.708
				c11.211,36.139,22.554,72.541,30.468,109.404c10.468,45.872,17.958,92.373,22.421,139.213c0,2.11,0.857,4.154,0.989,6.594
				c1.314,6.107,1.648,12.385,0.989,18.598c-1.78,6.594-10.354,5.671-15.695,8.44c-11.412,6.506-22.092,14.223-31.852,23.016
				C1055.358,685.84,1054.105,687.687,1050.61,688.214z"/>
			<path fill="#96D63C" d="M792.102,931.885c-0.432-8.692,0.1-17.406,1.582-25.982c0.527-1.913-0.594-4.748,2.177-5.342
				c2.77-0.594,3.627,1.78,5.144,3.165c8.734,7.618,19.119,13.104,30.335,16.025c21.103,6.595,39.567-0.396,57.241-10.354
				c29.874-16.751,48.734-44.053,65.946-72.541c28.571-47.959,63.167-92.062,102.942-131.232c11.663-11.1,25.02-20.271,39.567-27.17
				c22.224-10.947,43.458-6.595,64.363,3.692c22.884,11.014,26.774,21.631,21.301,47.68c-9.496,45.371-55.395,81.773-101.887,81.971
				c-7.371,0.497-14.775,0.031-22.026-1.385c-1.648-0.462-4.154,0.527-4.682-1.912c-0.527-2.44,1.582-3.166,2.835-4.419
				c9.291-8.59,19.114-16.586,29.412-23.938c1.451-1.121,3.1-2.044,4.419-3.231c7.357-6.688,16.963-10.36,26.906-10.287
				c15.893-0.462,27.434-7.848,31.126-19.784c0.923-3.1,1.78-6.066-0.857-8.902s-5.539-2.11-8.705-1.253
				c-11.278,3.666-21.914,9.072-31.521,16.024c-40.268,26.132-76.165,58.446-106.371,95.754
				c-35.199,43.682-64.899,91.521-88.435,142.443c-6.594,14.179-9.957,30.27-20.575,42.338
				c-10.617,12.068-24.729,23.608-43.985,17.739c-9.139-3.056-17.321-8.443-23.741-15.629
				c-13.557-14.538-22.704-32.628-26.378-52.163C793.878,966.445,791.815,949.186,792.102,931.885z"/>
			<path fill="#896EA3" d="M862.268,107.492c-0.842-8.371,5.263-15.839,13.634-16.681c2.354-0.237,4.73,0.078,6.941,0.919
				c15.366,5.082,28.821,14.719,38.579,27.631c22.721,26.339,42.819,54.831,60.011,85.071c9.944,18.526,18.946,37.542,26.972,56.978
				c1.438,3.173,0.812,6.9-1.582,9.43c-9.301,11.128-20.794,20.221-33.765,26.708c-5.408,2.968-9.035,0-12.86-2.77
				c-11.127-8.526-20.151-19.49-26.378-32.05c-4.683-7.914-8.902-16.091-13.651-24.004c-3.695-8.082-13.243-11.637-21.325-7.94
				c-0.534,0.244-1.054,0.517-1.558,0.818c-5.463,2.602-10.691,5.668-15.629,9.167c-3.43,2.44-5.078,2.638-5.605-1.913
				c-3.759-32.973-8.771-65.946-11.211-99.447C864.18,128.793,863.191,118.308,862.268,107.492z M1098.025,222.964
				c5.447,10.991,15.542,18.956,27.499,21.696c6.258,1.189,12.731,0.334,18.466-2.44c2.321-0.891,3.792-3.19,3.627-5.671
				c0-3.231-3.562-2.902-5.672-2.902c-13.105,1.219-25.208-7.108-28.752-19.784c-4.393-13.42-1.048-28.168,8.704-38.381
				c9.628-10.354,23.279-7.32,30.204,6.595c6.541,13.609,9.558,28.644,8.771,43.723c-1.629,62.795-25.194,123.039-66.605,170.272
				c-3.978,4.624-8.204,9.027-12.662,13.189c-3.1,3.1-5.671,3.363-7.122-1.78c-8.793-31.127-17.586-62.231-26.379-93.314
				c-0.694-2.845,0.1-5.849,2.111-7.979c9.166-12.793,18.135-25.785,27.697-38.38c6.63-10.109,12.473-20.714,17.476-31.72
				c1.153-2.442,1.153-5.273,0-7.715c0.086-1.657,0.584-3.267,1.45-4.682L1098.025,222.964z"/>
			<path fill="#96D63C" d="M899.726,670.738c-0.726-19.784,8.111-34.819,18.662-48.932c12.769-18.293,33.615-29.257,55.923-29.412
				c26.378-0.462,48.47,12.464,56.911,45.635c6.524,31.439-8.105,63.477-36.139,79.135c-12.134,6.133-24.729,4.089-37.259,2.968
				c-14.563-0.979-28.563-6.004-40.426-14.508C905.265,696.721,897.944,685.181,899.726,670.738z M960.33,311.529
				c4.801,1.356,9.787,1.936,14.771,1.715c10.09-1.912,16.025,4.022,20.377,11.606c12.092,19.818,9.389,45.283-6.594,62.121
				c-11.211,13.189-28.951,16.025-46.888,9.893c-34.754-11.871-34.82-56.714-15.762-75.772c1.385-0.659,2.177,0,2.901,1.121
				c1.178,3.074,0.986,6.506-0.527,9.43c6.033-5.554,13.834-8.8,22.026-9.166c6.595,0,10.354-1.517,8.31-8.969
				C958.926,312.617,959.486,311.816,960.33,311.529L960.33,311.529z"/>
			<path fill="#E9415A" d="M1087.012,161.766c0.99-30.005,14.311-48.998,39.568-60.208c11.211-4.946,20.641-6.595,28.555,4.748
				c1.187,1.714,3.231,2.835,4.286,4.616c2.836,4.946,10.815,6.595,9.563,14.178c-1.851,11.993-6.681,23.33-14.047,32.973
				c-1.45,1.847-3.1,0.792-4.88,0c-13.333-6.487-29.407-2.187-37.721,10.09c-1.777,1.978-3.266,4.198-4.419,6.595
				c-3.165,8.243-9.694,3.891-14.771,3.957c-5.078,0.066-4.814-5.144-5.276-8.902
				C1087.408,166.052,1087.145,162.953,1087.012,161.766L1087.012,161.766z"/>
			<path fill="#E9415A" d="M1186.459,36.534c6.595,0.923,9.958,3.231,7.32,10.881c-2.12,7.228,0.296,15.023,6.133,19.784
				c4.828,4.547,12.283,4.801,17.41,0.593c0.981-0.889,2.329-1.256,3.627-0.989c3.363,1.187,7.649,13.519,6.594,18.597
				c-1.055,5.078-5.604,6.595-11.078,5.407c-18.069-3.627-28.818-15.959-37.655-30.73c-1.444-1.901-2.252-4.208-2.309-6.595
				c0.071-1.176,1.064-2.082,2.242-2.044c0.997,0.642,1.813,1.527,2.374,2.572c1.451-3.231-1.45-7.518,1.715-9.496
				C1185.424,42.729,1186.818,39.66,1186.459,36.534L1186.459,36.534z M1169.379,86.851c1.715,1.979,3.43,3.957,5.21,5.869
				c4.939,6.972,14.296,9.176,21.828,5.144c3.495-1.385,7.188-3.166,10.419,0c2.771,3.333,3.314,7.988,1.385,11.87
				c-2.371,7.768-10.59,12.143-18.358,9.771c-0.213-0.065-0.424-0.135-0.634-0.209c-16.542-5.875-29.756-18.584-36.27-34.885
				c-0.66-1.253,0-2.044,0.988-2.638c3.298-0.66,4.683,1.78,6.133,3.957c0.754,1.618,2.676,2.318,4.294,1.565
				c0.369-0.172,0.702-0.412,0.982-0.708c0.642-0.305,1.335-0.484,2.044-0.528C1168.105,86.191,1168.777,86.46,1169.379,86.851z
				 M1195.229,23.015c0.528-3.759,1.319-7.716,6.595-7.979c5.276-0.264,12.002,5.54,11.606,9.628
				c-0.743,5.62,1.417,11.233,5.737,14.904c1.583,1.517,3.43,3.099,5.474,2.77c11.211-1.648,12.728,8.045,16.948,14.376
				c1.364,1.979,0.866,4.689-1.112,6.054c-0.109,0.075-0.223,0.146-0.339,0.211c-2.221,2.297-5.62,3.003-8.572,1.781
				c-11.703-5.033-21.53-13.614-28.094-24.532C1199.486,35.17,1196.67,29.292,1195.229,23.015L1195.229,23.015z"/>
			<path fill="#ABEB8F" d="M960.33,311.529c0.218,1.536,0.616,3.042,1.187,4.484c3.165,5.869-0.527,8.441-5.144,8.178
				c-11.464-0.78-22.572,4.157-29.676,13.189c0-6.134,2.703-10.09,1.78-14.377c5.388-10.753,17.609-16.215,29.214-13.057
				C959.076,309.947,959.934,309.947,960.33,311.529z"/>
			<path fill="#E9415A" d="M1079.23,164.272c1.048,2.931,1.907,5.927,2.572,8.968c1.187,7.386-1.121,10.354-8.639,10.552
				c-5.493,0.642-10.828,2.25-15.762,4.748c-1.583,0.594-3.43,2.242-4.946,0s0-3.034,0.594-4.418
				c1.12-3.152,2.795-6.078,4.946-8.639l1.715-1.187c2.109-1.056,4.418-1.913,6.594-3.166
				C1070.416,168.489,1074.739,166.195,1079.23,164.272z"/>
			<path fill="#E44059" d="M1235.589,20.641c-0.462,4.88-4.154,7.65-7.056,10.881c-1.847,2.044-4.023,5.078-6.991,1.846
				c-2.465-1.99-2.85-5.603-0.859-8.068c0.085-0.105,0.174-0.208,0.267-0.307c2.89-3.989,6.717-7.205,11.145-9.364
				C1236.051,15.563,1236.775,17.344,1235.589,20.641z"/>
			<path fill="#F27074" d="M1186.459,36.534c2.176,3.429,6.001,7.32-1.78,8.639c-3.166,0.528-1.715,2.44-1.649,4.089v11.475
				c-2.467-2.26-4.113-5.275-4.682-8.573c-3.634-2.29-4.991-6.928-3.165-10.815c1.45-4.814,5.539-5.474,9.892-5.276
				C1185.582,36.002,1186.095,36.173,1186.459,36.534z"/>
			<path fill="#896EA3" d="M1089.782,213.534c-3.82-8.064-0.38-17.698,7.684-21.519c0.032-0.015,0.065-0.031,0.098-0.046
				c1.517,8.045-1.979,15.563-1.253,23.213C1093.409,217.622,1091.431,215.974,1089.782,213.534z"/>
			<path fill="#EE6E74" d="M1079.23,164.272c-2.77,5.144-8.375,5.869-13.189,8.243c-1.714,0.857-2.703,0-3.692-1.451
				c-0.989-1.451,1.318-3.363,1.912-5.078c2.77-4.022,7.188-6.595,9.496-11.145c5.276-0.594,3.1,4.352,4.748,6.594L1079.23,164.272z
				"/>
			<path fill="#67DC38" d="M957.691,309.947c-11.239-0.289-21.996,4.567-29.214,13.188l-1.912-1.714
				c4.735-7.357,12.257-12.476,20.839-14.179c2.442-1.153,5.273-1.153,7.716,0L957.691,309.947z"/>
			<path fill="#E63F62" d="M1146.892,60.604c8.902-7.584,14.244-7.386,22.421,0.792l-0.725,0.923
				c-1.261,0.712-2.721,0.991-4.154,0.791c-2.846-1.108-6.056-0.738-8.573,0.989c-0.835,0.549-1.746,0.972-2.704,1.253
				c-0.634,0.1-1.279,0.1-1.912,0c-1.319-0.33-2.639,0-3.957,0c-1.402-0.982-1.742-2.915-0.761-4.317
				C1146.635,60.881,1146.757,60.737,1146.892,60.604z"/>
			<path fill="#D94362" d="M1185.141,36.072c-10.09,4.484-10.42,5.276-6.596,16.091l-1.846,1.583c-0.66,0.857-1.319,0.923-2.045,0
				c-1.755-2.598-2.591-5.709-2.374-8.837C1172.215,35.545,1175.644,32.973,1185.141,36.072z"/>
			<path fill="#E44161" d="M1146.892,60.604c0,1.583,0,3.297,1.582,4.221c0.975-0.494,2.126-0.494,3.1,0
				c2.532,5.434,3.601,11.436,3.1,17.41l-1.78,2.044C1149.397,76.761,1142.869,70.035,1146.892,60.604z"/>
			<path fill="#D33D5E" d="M1208.023,56.12c-0.804,2.011-2.781,3.303-4.946,3.231c-4.154,0-3.627-4.155-3.956-7.056
				c0-1.583,0.461-3.495,2.506-2.77C1204.48,50.886,1206.75,53.227,1208.023,56.12z"/>
			<path fill="#C93F5F" d="M1184.547,78.542c0,3.165-1.979,3.891-3.957,4.022c-2.215,0.438-4.365-1.004-4.803-3.22
				c-0.048-0.243-0.074-0.489-0.077-0.737c0-1.913,0.594-4.353,2.836-3.825C1180.719,75.736,1182.74,77.002,1184.547,78.542z"/>
			<path fill="#DE4463" d="M1235.589,20.641c0.061-2.256-1.356-4.289-3.495-5.012c2.13-2.457,4.791-4.396,7.781-5.671
				C1241.129,14.97,1237.896,17.607,1235.589,20.641z"/>
			<path fill="#936EA6" d="M1089.782,213.534c1.973,1.223,4.278,1.799,6.595,1.648c1.383,2.348,2.005,5.066,1.78,7.782
				c-0.963,0.265-1.984-0.139-2.506-0.989c-0.792-0.989-0.462-2.572-1.78-3.231c0.731,0.812,0.667,2.063-0.145,2.794
				c-0.135,0.122-0.286,0.225-0.449,0.305C1091.143,219.589,1089.9,216.636,1089.782,213.534z"/>
			<path fill="#896EA3" d="M1092.815,222.041c1.056-0.461-1.648-6.133,2.638-1.978c0.857,0.949,1.609,1.988,2.242,3.099
				c0,1.979,0,3.891-1.979,4.946C1093.615,226.855,1092.471,224.463,1092.815,222.041z"/>
			<path fill="#D53D5C" d="M1169.379,86.851h-1.912c-2.617-4.877-3.188-10.595-1.583-15.893c0.36-1.336,1.207-2.488,2.374-3.231
				c0.771-0.461,1.734-0.461,2.506,0C1168.535,73.849,1168.056,80.471,1169.379,86.851z"/>
			<path fill="#CF4865" d="M1073.955,154.907c-0.924,5.672-5.474,8.178-9.496,11.145
				C1066.551,161.542,1069.834,157.688,1073.955,154.907z M1078.703,161.304c-2.11-1.781-1.583-5.474-4.748-6.595
				c1.648-2.638,3.363-4.946,4.55,0C1078.791,156.896,1078.857,159.105,1078.703,161.304z"/>
			<path fill="#D14560" d="M1064.591,165.986l-1.451,4.88c0,2.309-1.517,3.495-3.1,4.683h-2.044
				C1059.645,171.987,1060.568,167.965,1064.591,165.986z"/>
			<path fill="#E9415A" d="M1170.764,68.057h-1.648c-1.676-1.621-1.72-4.293-0.1-5.968c0.033-0.034,0.066-0.066,0.1-0.099
				l0.527-0.527C1171.291,63.308,1173.468,65.155,1170.764,68.057z"/>
			<path fill="#E1395E" d="M1174.918,53.878h2.045l1.517,6.595C1176.252,59.02,1174.911,56.538,1174.918,53.878z"/>
			<path fill="#67CD37" d="M955.12,306.979h-7.716c2.04-2.131,5.422-2.204,7.553-0.163
				C955.013,306.869,955.066,306.924,955.12,306.979z"/>
			<path d="M1040.981,517.149c-0.791,17.212-6.595,35.875-24.861,46.162c-22.884,12.464-47.086,14.509-70.232-0.593
				c-3.49-2.296-7.384-3.906-11.475-4.748c-39.567-7.848-45.569-34.358-38.513-65.946c4.877-25.485,21.362-47.238,44.579-58.824
				c36.864-18.465,76.432-3.825,87.511,40.096c1.222,8.285,4.46,16.143,9.431,22.883
				C1041.839,501.19,1040.586,507.785,1040.981,517.149L1040.981,517.149z"/>
			<path fill="#BF9EC9" d="M692.522,604.066c0.13-5.554,1.505-11.007,4.022-15.959c5.057-11.959,11.264-23.399,18.531-34.16
				c7.888-10.871,17.204-20.632,27.697-29.016c5.006-3.344,10.412-6.047,16.091-8.046c1.847-0.923,4.484-2.044,5.671,0
				c1.188,2.044-1.318,3.957-3.099,4.683c-9.425,4.676-17.658,11.442-24.071,19.783c-9.569,11.726-17.246,24.876-22.751,38.975
				c-3.957,9.101-8.507,18.003-13.189,26.84c-1.121,2.11-2.703,5.078-5.935,4.287C692.259,610.661,692.786,606.704,692.522,604.066z
				"/>
			<path fill="#ABEB8F" d="M1022.385,772.625c1.809-5.328,4.994-10.082,9.232-13.783c16.619-18.86,31.786-38.974,50.779-55.79
				c10.021-9.734,22.719-16.255,36.468-18.729c15.343-2.016,30.797,2.806,42.271,13.189c3.297,2.835,5.869,7.188,2.571,11.079
				c-3.052,3.531-8.139,4.488-12.266,2.308c-6.712-3.601-14.016-5.968-21.564-6.99c-19.783-1.979-34.16,7.452-48.009,19.784
				c-18.597,16.223-37.392,32.115-56.186,48.074C1025.419,772.163,1024.495,772.098,1022.385,772.625L1022.385,772.625z"/>
			<path fill="#C09FC9" d="M884.294,108.416c10.552,1.385,17.542,8.573,24.532,15.497c18.928,17.482,32.491,39.989,39.105,64.891
				c0.527,2.242,2.374,5.54,0,6.595c-3.693,1.253-3.363-3.034-4.286-5.21c-9.101-22.686-25.323-40.029-42.667-56.582l-19.389-18.201
				c-1.84-1.231-2.439-3.66-1.385-5.605C880.97,108.31,882.78,107.696,884.294,108.416z"/>
			<path fill="#BC97C5" d="M1123.547,219.139c-5.605-10.419-7.848-21.103-1.386-31.72c3.34-6.854,11.199-10.222,18.466-7.914
				c-5.54,5.935-13.189,8.375-15.695,16.882C1122.426,204.895,1125.327,211.687,1123.547,219.139z"/>
			<path d="M962.176,686.961c-9.298-1.451-21.234-3.165-29.412-13.65c-3.378-3.813-4.77-8.989-3.759-13.981
				c4.88-22.224,38.711-36.93,58.165-25.191c12.849,6.867,17.697,22.85,10.831,35.698c-2.709,5.068-6.998,9.112-12.216,11.52
				C978.696,685.65,970.438,687.611,962.176,686.961L962.176,686.961z"/>
			<path fill="#ABEB8F" d="M915.223,658.274c2.308-32.182,21.037-45.371,44.514-55.065c1.78-0.488,3.636-0.645,5.474-0.461
				c5.605,0,11.343,1.253,12.134,7.649s-3.891,9.563-9.299,11.145c-5.407,1.583-10.354,1.781-15.299,3.363
				c-12.332,4.023-20.18,13.585-27.896,23.214C922.226,652.014,918.973,655.445,915.223,658.274L915.223,658.274z"/>
			<path d="M934.347,356.109c-0.923-18.597,9.892-27.17,26.774-27.5c12.648,0,22.913,10.234,22.949,22.884
				c0.989,16.091-17.674,27.565-31.918,26.906C941.073,378.069,934.215,369.694,934.347,356.109L934.347,356.109z"/>
			<path fill="#F27275" d="M1102.575,137.234c-4.286-1.517-4.682-3.957-2.308-7.32c4.104-4.785,8.987-8.842,14.442-12.002
				c6.595-4.616,14.046-7.979,21.103-11.936c4.021-2.385,9.192-1.362,12.002,2.374c1.715,1.979,4.154,4.88,2.77,7.716
				c-1.385,2.835-4.353,2.638-6.858,2.638c-12.2,0.989-21.828,8.243-32.182,13.651
				C1108.313,133.937,1105.411,135.651,1102.575,137.234z"/>
			<path fill="#F07174" d="M1168.785,61.923v6.067l-1.648,1.715c-5.803,5.276-1.847,11.475-1.648,17.278
				c-1.451,3.891-3.43,5.342-6.595,1.253c-1.517-2.11-1.912-4.946-4.748-6.001c-2.95-5.293-4.042-11.423-3.1-17.41
				c1.056-0.528,2.044-1.121,3.033-1.715c3.237-0.307,6.453-0.813,9.628-1.517L1168.785,61.923z"/>
			<path fill="#E9415A" d="M1165.818,86.983c-5.672-8.837-5.145-14.046,1.648-17.278v17.278H1165.818z"/>
			<path fill="#F17074" d="M1203.671,31.522c-2.77-2.506-5.605-4.88-3.562-8.441c0.989-1.78,5.078-5.209,4.814,1.385
				C1204.686,26.847,1204.267,29.206,1203.671,31.522z"/>
			<path fill="#EF7182" d="M1059.908,175.549c1.056-1.517,2.045-3.1,3.1-4.683l3.231,1.649
				C1064.675,174.405,1062.361,175.513,1059.908,175.549L1059.908,175.549z"/>
			<path fill="#E37678" d="M1164.301,61.594c-2.571,4.55-6.198,2.374-9.628,1.517C1156.979,60.144,1161.194,59.48,1164.301,61.594z"
				/>
			<path fill="#F83054" d="M1151.573,64.759c-1.055,0-2.044,1.78-3.1,0c0-1.187,0-2.704,1.913-2.374
				C1150.914,62.517,1151.178,63.968,1151.573,64.759z"/>
			<path fill="#96D63C" d="M955.186,550.716c-5.777,0.111-11.556-0.241-17.277-1.055c-23.147-4.683-32.974-15.036-34.556-38.249
				c-3.039-38.342,23.679-72.669,61.594-79.135c15.544-2.725,31.299,3.521,40.755,16.156c20.245,22.949,18.068,48.471,8.507,74.058
				c-5.078,13.651-17.739,21.234-31.786,25.126C973.605,550.291,964.377,551.342,955.186,550.716L955.186,550.716z"/>
			<path fill="#82934E" d="M971.145,680.433c-7.758-0.016-14.033-6.317-14.019-14.074c0.004-1.969,0.422-3.914,1.226-5.71
				c3.126-6.73,8.233-12.345,14.64-16.091c4.607-3.323,10.824-3.323,15.432,0c5.237,3.464,7.307,10.14,4.946,15.959
				C988.621,674.365,982.026,680.433,971.145,680.433z M952.021,360.527c0-9.496,8.639-20.18,16.289-19.256
				c5.209,0.659,7.056,5.21,7.254,9.892c0.462,8.771-7.057,20.378-13.189,20.575c-5.755-0.02-10.403-4.701-10.384-10.455
				C951.991,361.031,952.001,360.779,952.021,360.527L952.021,360.527z"/>
			<path d="M964.88,522.623c-7.534,0.227-14.946-1.944-21.169-6.199c-10.287-5.869-13.189-22.817-4.748-33.566
				c9.55-14.193,27.085-20.72,43.591-16.223c13.307,3.078,21.598,16.36,18.52,29.667c-0.837,3.619-2.479,7.003-4.803,9.9
				C986.049,519.655,980.51,522.689,964.88,522.623L964.88,522.623z"/>
			<path fill="#ABEB8F" d="M961.188,459.249c-10.121,2.8-19.258,8.373-26.379,16.091c-2.725,2.858-5.279,5.876-7.649,9.034
				c-0.989,1.188-1.583,2.968-3.562,2.242c-1.979-0.725-1.715-2.571-1.451-4.022c1.056-7.583,3.636-14.873,7.584-21.433
				c7.193-11.612,19.381-19.218,32.974-20.575c1.777-0.371,3.591-0.548,5.407-0.527c5.936,0,11.738,5.671,11.343,10.155
				C978.86,455.886,972.266,459.446,961.188,459.249z"/>
			<path fill="#82934E" d="M994.754,489.979c0,10.552-14.641,25.521-23.411,25.323c-7.518-0.569-13.149-7.126-12.58-14.644
				c0.014-0.175,0.03-0.35,0.05-0.523c1.144-7.596,4.842-14.574,10.486-19.784c4.945-4.616,10.287-8.441,17.476-5.474
				C993.962,477.846,994.094,484.968,994.754,489.979L994.754,489.979z"/>
		</g>
	</g>
</g>
</svg>
