<?xml version="1.0" encoding="utf-8"?>
<!-- Generator: Adobe Illustrator 16.0.0, SVG Export Plug-In . SVG Version: 6.00 Build 0)  -->
<!DOCTYPE svg PUBLIC "-//W3C//DTD SVG 1.1//EN" "http://www.w3.org/Graphics/SVG/1.1/DTD/svg11.dtd">
<svg version="1.1" id="Layer_1" xmlns="http://www.w3.org/2000/svg" xmlns:xlink="http://www.w3.org/1999/xlink" x="0px" y="0px"
	 width="1807px" height="547.747px" viewBox="-278.749 0 1807 547.747" enable-background="new -278.749 0 1807 547.747"
	 xml:space="preserve">
<g>
	<g>
		<path fill="#DB1F26" d="M377.885,24.065h187.801c42.347,0,74.632,3.245,96.857,9.727c29.846,8.812,55.42,24.455,76.713,46.922
			c21.293,22.477,37.492,49.992,48.605,82.537c11.104,32.555,16.66,72.69,16.66,120.417c0,41.938-5.215,78.09-15.627,108.434
			C776.166,429.176,758,459.18,734.402,482.11c-17.824,17.383-41.893,30.938-72.209,40.664c-22.682,7.184-52.998,10.77-90.951,10.77
			H377.885V24.065z M480.846,110.458v336.695h76.75c28.708,0,49.428-1.619,62.168-4.855c16.669-4.16,30.501-11.205,41.503-21.145
			c10.994-9.939,19.963-26.295,26.914-49.066c6.943-22.771,10.42-53.811,10.42-93.104c0-39.293-3.477-69.464-10.42-90.507
			c-6.951-21.034-16.678-37.446-29.18-49.234c-12.5-11.789-28.355-19.768-47.571-23.928c-14.356-3.236-42.491-4.854-84.395-4.854
			L480.846,110.458L480.846,110.458z"/>
		<path d="M373.742,537.682V24.065V19.92h191.943c42.565,0.013,75.123,3.232,98.029,9.897l0,0
			c30.508,8.999,56.779,25.067,78.547,48.046l0,0c21.736,22.941,38.24,51.015,49.518,84.048l0,0
			c11.303,33.144,16.881,73.708,16.883,121.755l0,0c-0.002,42.277-5.25,78.875-15.852,109.777l0,0
			c-12.895,37.563-31.387,68.182-55.52,91.629l0,0c-18.396,17.938-43.066,31.77-73.852,41.645l0,0
			c-23.313,7.377-53.983,10.957-92.199,10.963l0,0H373.742V537.682z M382.026,529.401h189.215
			c37.688,0.008,67.651-3.584,89.684-10.57l0,0c29.867-9.584,53.328-22.859,70.586-39.691l0,0
			c23.059-22.406,40.9-51.799,53.465-88.383l0,0c10.225-29.787,15.402-65.492,15.4-107.086l0,0
			c0.004-47.411-5.529-87.115-16.439-119.082l0,0c-10.945-32.057-26.84-59.015-47.688-81.027l0,0
			c-20.82-21.954-45.697-37.173-74.867-45.795l0,0c-21.557-6.3-53.572-9.57-95.696-9.56l0,0h-183.66L382.026,529.401
			L382.026,529.401z M476.702,451.293V110.458v-4.144h50.333c42.054,0.019,70.2,1.579,85.272,4.948l0,0
			c19.817,4.284,36.438,12.605,49.534,24.963l0,0c13.125,12.377,23.164,29.44,30.271,50.949l0,0
			c7.166,21.763,10.617,52.259,10.629,91.807l0,0c-0.006,39.541-3.475,70.908-10.6,94.313l0,0
			c-7.092,23.176-16.264,40.197-28.1,50.932l0,0c-11.564,10.451-26.068,17.801-43.259,22.084l0,0
			c-13.426,3.395-34.305,4.973-63.189,4.984l0,0H476.702L476.702,451.293z M484.986,443.01h72.607
			c28.533,0.014,49.094-1.646,61.165-4.732l0,0c16.131-4.031,29.29-10.773,39.729-20.199l0,0
			c10.152-9.146,18.92-24.836,25.73-47.201l0,0c6.762-22.141,10.248-52.85,10.238-91.896l0,0
			c0.014-39.043-3.49-68.889-10.211-89.209l0,0c-6.795-20.56-16.209-36.322-28.088-47.52l0,0
			c-11.902-11.217-26.992-18.856-45.638-22.9l0,0c-13.608-3.094-41.731-4.771-83.484-4.751l0,0h-42.047L484.986,443.01
			L484.986,443.01z M480.846,114.601v-4.142V114.601L480.846,114.601z"/>
	</g>
</g>
<g>
	<g>
		<path fill="#8461A9" d="M769.093,436.428c20.459,12.277,43.885,18.416,70.275,18.416c41.145,0,74.918-14.813,101.307-44.443
			c26.387-29.625,39.59-74.078,39.59-133.344c0-58.563-12.852-102.249-38.535-131.068c-25.695-28.81-59.813-43.224-102.361-43.224
			c-42.547,0-76.852,14.59-102.887,43.751c-26.045,29.161-39.063,73.143-39.063,131.938c0,7.828,0.246,15.4,0.734,22.717
			c-1.523,32.752-4.482,119.342-66.848,137.545c-26.541-41.889-39.808-94.146-39.808-156.775c0-52.044,7.768-95.731,23.311-131.059
			c11.593-26.018,27.421-49.373,47.484-70.056c20.064-20.673,42.033-36.012,65.924-46.007c31.77-13.48,68.418-20.221,109.934-20.221
			c75.141,0,135.264,23.355,180.375,70.064c45.102,46.71,67.66,111.652,67.66,194.835c0,82.5-22.385,147.045-67.145,193.635
			c-44.766,46.59-104.596,69.879-179.506,69.879c-54.564,0-101.082-11.998-139.561-35.996
			C730.359,491.125,756.689,460.159,769.093,436.428z"/>
		<path d="M839.535,547.153c-55.158,0.006-102.52-12.15-141.75-36.625l0,0l-6.141-3.832l6.41-3.354
			c29.33-15.266,55.414-45.855,67.367-68.834l0,0l2.035-3.893l3.766,2.26c19.783,11.861,42.393,17.816,68.146,17.826l0,0
			c40.154-0.059,72.506-14.273,98.213-43.059l0,0c25.447-28.545,38.543-71.893,38.541-130.588l0,0
			c0.004-58.001-12.754-100.592-37.484-128.311l0,0c-24.955-27.908-57.637-41.785-99.27-41.839l0,0
			c-41.617,0.054-74.49,14.096-99.799,42.369l0,0c-25.096,28.068-38.014,70.948-38.01,129.178l0,0
			c0,7.739,0.242,15.221,0.727,22.439l0,0l0.014,0.227l-0.01,0.243c-0.574,12.271-1.346,32.356-5.447,53.7l0,0
			c-4.117,21.348-11.518,44.068-25.777,61.695l0,0c-9.496,11.736-22.152,21.145-38.598,25.932l0,0l-2.992,0.871l-1.666-2.631
			c-27.053-42.689-40.457-95.793-40.453-158.991l0,0c0.003-52.452,7.815-96.704,23.668-132.746l0,0
			c11.789-26.456,27.906-50.233,48.294-71.254l0,0c20.4-21.022,42.846-36.716,67.277-46.936l0,0
			C758.97,17.265,796.189,10.45,838.15,10.452l0,0c75.973-0.043,137.443,23.741,183.355,71.328l0,0
			c46.002,47.62,68.846,113.818,68.822,197.713l0,0c0.023,83.211-22.646,149.008-68.301,196.506l0,0
			c-45.525,47.434-106.645,71.152-182.295,71.15l0,0C839.667,547.153,839.597,547.153,839.535,547.153L839.535,547.153z
			 M839.535,538.868c74.078-0.043,132.553-22.9,176.518-68.607l0,0c43.869-45.682,65.965-108.975,65.99-190.766l0,0
			c-0.025-82.473-22.297-146.158-66.498-191.957l0,0C971.23,41.706,912.458,18.78,838.15,18.739l0,0
			c-41.072,0-77.148,6.666-108.336,19.899l0,0c-23.328,9.762-44.822,24.747-64.549,45.069l0,0
			c-19.732,20.347-35.273,43.279-46.667,68.84l0,0c-15.243,34.634-22.963,77.753-22.958,129.392l0,0
			c0.004,60.704,12.569,111.228,37.482,151.858l0,0c13.268-4.514,23.453-12.346,31.506-22.256l0,0
			c8.631-10.637,14.709-23.713,18.961-37.377l0,0c8.48-27.197,9.662-56.512,10.414-72.934l0,0
			c-0.482-7.348-0.729-14.939-0.729-22.779l0,0c0.002-59.359,13.121-104.446,40.115-134.696l0,0
			c26.764-30.052,62.498-45.188,105.979-45.134l0,0c43.463-0.054,79.016,14.898,105.453,44.611l0,0
			c26.635,29.917,39.58,74.7,39.584,133.824l0,0c0,59.834-13.313,105.395-40.639,136.098l0,0
			c-27.07,30.475-62.266,45.887-104.398,45.832l0,0c-25.451,0.008-48.434-5.6-68.676-16.852l0,0
			c-12.541,22.145-35.391,48.758-62.48,64.994l0,0C744.74,528.239,788.419,538.862,839.535,538.868L839.535,538.868z"/>
	</g>
</g>
<g>
	<g>
		<path fill="#FDC20F" d="M979.435,301.87c-37.617-11.826-65.129-25.586-82.539-41.27c-31.213-28.117-46.813-62.391-46.813-102.832
			c0-26.027,7.342-50.371,22.021-73.032c14.686-22.652,35.84-39.914,63.475-51.767c27.627-11.853,60.982-17.779,100.064-17.779
			c63.814,0,111.85,14.136,144.105,42.41c32.248,28.274,49.188,66.015,50.813,113.215l-102.959,3.551
			c-4.383-26.277-13.783-45.175-28.209-56.695c-14.426-11.511-36.059-17.271-64.895-17.271c-0.691,0-1.379,0.004-2.064,0.01
			c-28.785,0.28-51.406,6.443-67.854,18.482c-10.855,7.915-16.273,18.491-16.273,31.75c0,12.103,5.086,22.458,15.268,31.056
			c0.309,0.261,0.627,0.521,0.957,0.782C981.746,225.39,982.158,269.471,979.435,301.87z M1082.177,221.946
			c37.871,9.975,66.764,20.219,86.666,30.73c23.945,12.648,42.678,29.948,56.213,51.877c13.535,21.941,20.305,49.041,20.305,81.309
			c0,29.254-8.109,56.648-24.326,82.186c-16.217,25.539-39.154,44.51-68.807,56.926c-29.652,12.418-66.598,18.635-110.848,18.635
			c-64.406,0-113.863-14.914-148.377-44.74c-34.523-29.828-55.143-73.301-61.855-130.412l100.004-9.471
			c6.02,33.592,18.23,58.26,36.648,74.016c18.416,15.754,43.26,23.623,74.529,23.623c33.119,0,58.082-7.008,74.873-21.043
			c16.791-14.027,25.193-30.43,25.193-49.207c0-12.057-3.531-22.313-10.576-30.779c-7.055-8.461-19.361-15.818-36.928-22.088
			c-2.98-1.037-6.902-2.271-11.771-3.709C1087.466,295.559,1087.566,260.942,1082.177,221.946z"/>
		<path d="M890.294,502c-35.457-30.613-56.49-75.248-63.26-133.064l0,0l-0.494-4.205l108.016-10.23l0.672,3.752
			c5.922,33.014,17.813,56.676,35.268,71.598l0,0c17.508,14.969,41.229,22.613,71.836,22.629l0,0
			c32.574,0.008,56.508-6.922,72.217-20.078l0,0c16.084-13.514,23.656-28.539,23.707-46.027l0,0
			c-0.023-11.26-3.217-20.4-9.615-28.129l0,0c-6.262-7.559-17.945-14.725-35.105-20.828l0,0c-2.881-1-6.756-2.223-11.584-3.65l0,0
			l-3.381-0.996l0.443-3.494c2.057-16.211,3.148-32.492,3.148-49.296l0,0c0-18.334-1.303-37.296-4.088-57.466l0,0l4.104-0.566
			l-4.104,0.566l-0.852-6.155l6.01,1.582c38.049,10.03,67.166,20.32,87.545,31.074l0,0c24.537,12.952,43.887,30.801,57.805,53.364
			l0,0c14.021,22.727,20.926,50.652,20.922,83.484l0,0c0.01,30.021-8.363,58.271-24.973,84.404l0,0
			c-16.658,26.262-40.365,45.84-70.703,58.525l0,0c-30.336,12.699-67.814,18.951-112.447,18.955l0,0
			C976.375,547.75,925.816,532.69,890.294,502L890.294,502z M895.71,495.729c33.506,28.967,81.861,43.729,145.668,43.734l0,0
			c43.867,0.002,80.279-6.176,109.248-18.313l0,0c28.967-12.145,51.135-30.51,66.91-55.324l0,0
			c15.824-24.943,23.67-51.48,23.682-79.967l0,0c-0.008-31.701-6.641-57.977-19.688-79.133l0,0
			c-13.154-21.297-31.271-38.045-54.623-50.39l0,0c-18.391-9.72-45.057-19.375-79.818-28.794l0,0
			c2.279,18.247,3.355,35.592,3.355,52.434l0,0c0,15.957-0.965,31.463-2.787,46.852l0,0c3.396,1.031,6.26,1.949,8.627,2.771l0,0
			c17.939,6.426,30.869,13.977,38.721,23.342l0,0c7.688,9.207,11.559,20.572,11.533,33.43l0,0
			c0.049,20.063-9.182,37.842-26.68,52.383l0,0c-17.873,14.914-43.865,22.002-77.529,22.006l0,0
			c-31.934,0.02-57.9-8.078-77.223-24.617l0,0c-18.668-15.977-30.98-40.381-37.33-72.68l0,0l-91.99,8.711
			C842.933,426.481,862.96,467.415,895.71,495.729L895.71,495.729z M978.193,305.821c-37.939-11.943-65.93-25.83-84.07-42.143l0,0
			c-31.979-28.735-48.234-64.389-48.18-105.91l0,0c-0.016-26.81,7.604-52.025,22.688-75.286l0,0
			c15.146-23.385,37.049-41.209,65.314-53.319l0,0c28.283-12.134,62.205-18.115,101.699-18.117l0,0
			c64.383,0.002,113.508,14.247,146.838,43.439l0,0c33.131,28.99,50.611,68.088,52.221,116.186l0,0l0.143,4.14l-110.729,3.819
			l-0.6-3.582c-4.285-25.69-13.361-43.495-26.703-54.14l0,0c-13.322-10.663-33.992-16.378-62.314-16.367l0,0
			c-0.676,0-1.35,0.004-2.021,0.011l0,0c-28.24,0.272-49.949,6.326-65.453,17.685l0,0c-9.912,7.334-14.486,16.287-14.572,28.403l0,0
			c0.057,10.911,4.373,19.854,13.799,27.895l0,0c0.271,0.228,0.555,0.46,0.854,0.697l0,0l0.861,0.684l0.41,1.022
			c12.783,31.87,16.449,64.238,16.451,92.105l0,0c0,10.437-0.52,20.247-1.264,29.17l0,0l-0.432,5.16L978.193,305.821
			L978.193,305.821z M979.433,301.87l1.244-3.951L979.433,301.87L979.433,301.87z M937.212,36.774
			c-27.004,11.596-47.408,28.294-61.631,50.212l0,0c-14.279,22.064-21.346,45.537-21.357,70.781l0,0
			c0.053,39.362,14.996,72.254,45.443,99.754l0,0c15.928,14.377,41.301,27.457,76.037,38.804l0,0
			c0.51-7.291,0.836-15.098,0.836-23.282l0,0c0.004-26.853-3.514-57.78-15.457-88.029l0,0c-0.063-0.05-0.121-0.101-0.182-0.151l0,0
			c-10.938-9.158-16.791-20.924-16.734-34.222l0,0c-0.084-14.399,6.176-26.6,17.967-35.091l0,0
			c17.395-12.723,40.93-18.995,70.262-19.281l0,0c0.695-0.007,1.396-0.011,2.104-0.011l0,0c29.354,0.011,51.949,5.817,67.48,18.177
			l0,0c14.807,11.837,24.348,30.604,29.072,55.668l0,0l95.184-3.283c-2.451-44.339-18.789-79.374-49.217-106.105l0,0
			c-31.184-27.356-78.129-41.384-141.375-41.382l0,0c-0.01,0-0.012,0-0.021,0l0,0C996.966,19.333,964.175,25.205,937.212,36.774
			L937.212,36.774z"/>
	</g>
</g>
<g>
	<path fill="#8461A9" d="M698.208,301.772"/>
	<path d="M698.208,301.772"/>
</g>
<g>
	<g>
		<path fill="#C0BFBF" d="M302.11,537.997H9.138v-88.531l199.844-53.156L9.138,343.749v-88.729H302.11v54.956H71.489l230.621,58.154
			v56.955L71.489,483.04H302.11V537.997z"/>
		<path d="M4.996,542.137V446.28l187.788-49.949L4.996,346.942v-96.066h301.256v63.24H104.853l201.399,50.787v63.408
			l-201.285,50.586h201.285v59.1v4.143H4.996V542.137z M302.109,537.997v-4.143V537.997L302.109,537.997z M13.28,340.551
			l211.907,55.73L13.28,452.647v81.207h284.688V487.18H71.49l-1.011-8.158l227.488-57.17v-50.496l-227.49-57.365l1.013-8.158
			l226.478-0.002v-46.671H13.28V340.551L13.28,340.551z"/>
	</g>
	<g>
		<path fill="#C0BFBF" d="M206.784,242.356l-5.596-57.555c19.319-3.463,33.508-10.492,42.567-21.083
			c9.062-10.592,13.589-24.88,13.589-42.867c0-19.051-4.028-33.405-12.091-43.066c-8.059-9.658-17.486-14.489-28.278-14.489
			c-6.926,0-12.821,2.033-17.686,6.095c-4.862,4.066-9.093,11.16-12.69,21.284c-2.398,6.929-6.66,22.716-12.79,47.363
			c-7.859,31.71-17.518,53.958-28.977,66.748c-16.119,17.986-35.772,26.979-58.954,26.979c-14.92,0-28.877-4.228-41.868-12.69
			c-12.99-8.459-22.882-20.649-29.677-36.572c-6.795-15.918-10.192-35.138-10.192-57.655c0-36.771,8.063-64.45,24.181-83.036
			c16.122-18.585,37.639-28.343,64.55-29.277l2.598,59.154c-15.054,2.532-25.88,7.962-32.475,16.287
			c-6.595,8.328-9.892,20.818-9.892,37.471c0,17.187,3.531,30.645,10.591,40.368c4.531,6.264,10.592,9.393,18.186,9.393
			c6.929,0,12.859-2.929,17.786-8.793c6.264-7.459,12.79-25.58,19.585-54.357c6.794-28.778,13.823-50.061,21.083-63.851
			c7.263-13.789,17.187-24.581,29.777-32.375c12.59-7.794,28.146-11.691,46.664-11.691c16.787,0,32.509,4.665,47.163,13.989
			c14.658,9.327,25.549,22.517,32.675,39.569c7.125,17.056,10.691,38.305,10.691,63.75c0,37.04-8.559,65.483-25.68,85.333
			C264.508,226.638,239.559,238.494,206.784,242.356z"/>
		<path d="M196.695,181.397l3.762-0.674c18.741-3.362,31.924-10.073,40.149-19.699l0,0c8.276-9.686,12.579-22.849,12.595-40.174l0,0
			c0.004-18.507-3.942-31.833-11.13-40.411l0,0c-7.544-8.95-15.593-12.952-25.097-13.001l0,0
			c-6.126,0.024-10.905,1.717-15.029,5.131l0,0c-3.961,3.27-8.002,9.741-11.432,19.459l0,0c-2.289,6.596-6.574,22.423-12.686,47.005
			l0,0c-7.968,32.037-17.671,54.787-29.912,68.516l0,0c-16.734,18.753-37.77,28.41-62.039,28.357l0,0
			c-15.706,0.012-30.539-4.494-44.128-13.36l0,0c-13.725-8.926-24.175-21.865-31.226-38.417l0,0
			C3.452,167.556,0,147.777-0.002,124.848l0,0c0.004-37.333,8.167-66.088,25.195-85.75l0,0C42.023,19.627,64.909,9.311,92.727,8.395
			l0,0l4.102-0.141l2.938,66.912l-3.61,0.608c-14.462,2.438-24.191,7.532-29.916,14.773l0,0c-5.754,7.221-9.008,18.759-8.996,34.899
			l0,0c-0.004,16.646,3.432,29.185,9.805,37.94l0,0c3.955,5.321,8.389,7.594,14.829,7.68l0,0c5.727-0.058,10.243-2.209,14.614-7.315
			l0,0c2.563-3.01,5.71-9.098,8.868-17.925l0,0c3.184-8.835,6.485-20.433,9.858-34.721l0,0c6.848-28.963,13.905-50.47,21.45-64.83
			l0,0c7.563-14.378,18.038-25.789,31.26-33.965l0,0c13.378-8.284,29.761-12.317,48.845-12.313l0,0
			c17.558-0.01,34.137,4.92,49.388,14.637l0,0c15.378,9.77,26.875,23.73,34.272,41.468l0,0
			c7.405,17.736,11.007,39.518,11.011,65.346l0,0c0.004,37.639-8.704,67.18-26.685,88.037l0,0
			c-17.9,20.79-44.013,33.061-77.493,36.983l0,0l-4.199,0.494L196.695,181.397L196.695,181.397z M206.785,242.356l4.121-0.401
			L206.785,242.356L206.785,242.356z M210.491,237.695c29.96-4.279,52.383-15.527,67.996-33.619l0,0
			c16.259-18.843,24.668-46.186,24.674-82.627l0,0c0.004-25.062-3.526-45.78-10.372-62.154l0,0
			c-6.854-16.366-17.141-28.787-31.076-37.671l0,0c-14.057-8.93-28.922-13.329-44.94-13.341l0,0
			c-17.95,0.006-32.678,3.766-44.482,11.071l0,0c-11.957,7.411-21.331,17.585-28.293,30.783l0,0
			c-6.975,13.223-13.977,34.283-20.716,62.873l0,0c-3.422,14.491-6.782,26.34-10.126,35.625l0,0
			c-3.369,9.294-6.618,15.997-10.319,20.445l0,0c-5.481,6.621-12.827,10.327-20.958,10.272l0,0
			c-8.745,0.084-16.436-3.901-21.538-11.102l0,0c-7.753-10.696-11.378-25.074-11.382-42.802l0,0
			c0.012-17.165,3.352-30.608,10.788-40.042l0,0c6.88-8.672,17.548-14.248,31.426-17.125l0,0l-2.257-51.383
			c-24.035,1.731-42.873,10.87-57.467,27.629l0,0C16.242,62.035,8.28,88.639,8.284,124.848l0,0
			c-0.002,22.105,3.34,40.766,9.858,56.029l0,0c6.541,15.292,15.872,26.734,28.127,34.727l0,0
			c12.393,8.057,25.476,12.007,39.608,12.018l0,0c22.095-0.051,40.366-8.382,55.869-25.601l0,0
			c10.678-11.852,20.296-33.596,28.043-64.983l0,0c6.149-24.707,10.389-40.456,12.907-47.751l0,0
			c3.752-10.497,8.172-18.214,13.938-23.076l0,0c5.602-4.708,12.614-7.082,20.341-7.057l0,0c12.079-0.051,22.886,5.61,31.457,15.976
			l0,0c8.94,10.743,13.048,26.125,13.055,45.72l0,0c0.014,18.65-4.737,34.062-14.585,45.559l0,0
			c-9.26,10.82-23.167,17.95-41.227,21.739l0,0L210.491,237.695L210.491,237.695z"/>
	</g>
</g>
</svg>
