<?xml version="1.0" encoding="utf-8"?>
<!-- Generator: Adobe Illustrator 16.0.0, SVG Export Plug-In . SVG Version: 6.00 Build 0)  -->
<!DOCTYPE svg PUBLIC "-//W3C//DTD SVG 1.1//EN" "http://www.w3.org/Graphics/SVG/1.1/DTD/svg11.dtd">
<svg version="1.1" id="Layer_1" xmlns="http://www.w3.org/2000/svg" xmlns:xlink="http://www.w3.org/1999/xlink" x="0px" y="0px"
	 width="3676px" height="1114.025px" viewBox="-588.041 670.849 3676 1114.025"
	 enable-background="new -588.041 670.849 3676 1114.025" xml:space="preserve">
<g>
	<path fill="#FFF22D" d="M2375.438,1592.544c-2.359-6.615-59.246-163.289-207.218-278.215
		c-143.835-111.721-340.689-185.416-529.958-251.303c-172.86-60.191-280.419-129.063-375.799-194.455l-28.157-19.299l11.828,32.035
		c0.144,0.389,8.755,24.318,8.755,55.627c0,19.145-3.217,41.051-13.565,62.033c-16.913,34.293-49.507,59.352-96.689,74.643
		l-13.139-4.564c1.505-2.957,3.048-6.344,4.604-10.506c4.902-13.086,16.614-36.096,22.904-48.455l3.126-6.16l5.436-8.885
		c3.255-4.799,6.613-9.754,8.286-16.42c1.113-5.086,1.446-10.313,0.986-15.498c1.971-2.063,4.437-4.424,6.718-5.941
		c6.991-4.654,9.676-11.605,10.116-17.34c2.296-5.643,7.704-22.035,9.533-54.201c2.735-9.232,21.076-72.396,22.438-111.254
		c0.947-19.324-2.905-26.16-7.587-26.588c-4.631-0.416-9.391,8.301-13.048,16.121c0,0-11.53,25.797-24.889,48.561
		c-10.233-13.658-28.572-32.518-55.927-40.402c-30.959-8.922-50.686-7.949-64.03-5.615c-0.364-9.426-0.556-18.855-0.571-28.287
		c0-14.539,1.726-40.219,1.726-40.219c1.427-18.689,1.646-26.213-1.323-26.951c-3.463-0.869-5.707,1.895-9.856,7.949
		c-1.427,2.088-7.704,11.012-7.704,11.012c-0.804,1.129-19.973,28.027-37.896,72.164c-14.729,36.297-29.861,72.43-45.395,108.389
		c-16.057,37.172-34.578,66.314-51.775,81.865c-16.342-14.436-59.35-58.209-71.309-127.945l-4.475-26.121l-15.148,21.773
		c-0.428,0.623-44.875,63.033-203.171,163.873c-157.401,100.271-450.375,286.918-496.236,547.248l-6.771,38.416l25.654-29.402
		c4.799-5.498,119.556-133.926,302.649-78.195c89.815,27.328,164.393,132.41,177.699,213.406l3.734,22.762l15.161-17.393
		c1.024-1.168,103.914-117.014,257.022-114.512c144.262,2.361,251.574,69.791,318.991,200.383l9.39,18.197l9.806-17.988
		c0.816-1.518,83.85-150.67,253.571-177.076c188.893-29.391,309.498,98.727,322.623,113.42l11.906,13.334l6.354-16.719
		c0.558-1.439,56.847-144.926,223.548-183.77c109.582-25.551,216.36,4.695,308.771,87.469l32.527,29.117L2375.438,1592.544
		L2375.438,1592.544z"/>
	<path d="M825.396,826.277c0,0-43.346,63.072-206.259,166.855c-162.927,103.797-446.718,286.412-491.386,539.984
		c0,0,121.604-140.021,314.012-81.463c90.646,27.6,170.785,134.016,185.246,222.041c0,0,105.107-120.865,265.389-118.244
		c160.279,2.633,265.399,84.082,328.46,206.27c0,0,84.068-155.027,261.443-182.615c177.374-27.6,299.55,80.143,332.401,116.924
		c0,0,56.51-149.773,231.252-190.5c174.741-40.738,294.271,68.313,319.25,90.646c0,0-56.482-158.971-203.639-273.271
		c-147.154-114.305-349.496-187.867-526.844-249.631c-177.375-61.748-286.426-132.693-378.382-195.752
		c0,0,57.819,155.027-111.682,207.58l-30.22-10.518c0,0,5.408-3.58,11.517-19.871c6.109-16.303,21.726-46.158,26.484-55.666
		c4.759-9.506,10.854-14.928,12.905-23.072c2.035-8.145,0-16.291,0-16.291s6.107-7.471,12.218-11.543
		c6.107-4.072,5.421-10.854,5.421-10.854s7.471-14.93,9.507-53.631c0,0,23.073-76.703,22.397-115.393
		c0,0-16.964,38.689-34.615,64.486c0,0-19.001-38.689-59.051-50.232c-40.052-11.543-59.739-5.422-71.271-2.711
		c0,0-3.397-57.016,1.349-83.5c0,0-19,26.484-36.651,69.92c-14.761,36.371-29.922,72.576-45.484,108.609
		c-12.893,29.869-35.291,72.645-61.774,91.645C907.378,966.468,841.167,918.246,825.396,826.277L825.396,826.277z"/>
	<path fill="#FFFFFF" d="M1079.123,951.541c0,0-8.145-11.881-43.098-47.859c0,0,0,13.916,6.444,24.436
		C1042.458,928.117,1068.255,949.49,1079.123,951.541z M1123.921,966.804c0,0,33.255-15.602,37.677-15.264
		c0,0-5.771,11.879-9.507,14.252C1152.091,965.792,1134.776,969.515,1123.921,966.804z"/>
	<path fill="#2566AF" d="M1093.364,1011.279c0,0,6.459-26.146,13.241-41.75c0,0-8.832-1.699-12.555-5.422
		c0,0-9.507,13.566-31.219,22.398C1062.833,986.494,1081.834,999.048,1093.364,1011.279L1093.364,1011.279z M1127.993,955.613
		c0,0,16.29-3.736,26.809-12.557c10.531-8.818,15.953-12.217,18.326-10.182c2.374,2.037,2.711,5.771,1.362,6.783
		c0,0,4.747-3.734,3.734-7.119c-1.012-3.385-5.098-5.771-6.782-8.146c-1.688-2.387-3.063-5.098-8.146,0.338
		C1158.2,930.152,1140.211,953.562,1127.993,955.613L1127.993,955.613z M989.516,1011.941c0,0-9.845-22.063-9.845-28.846
		s1.688-20.363-1.024-22.736c0,0-1.349,8.482-3.047,15.953c-1.699,7.471-3.398,12.555-3.735,16.977
		c-0.337,4.424-0.675,14.93,2.036,20.363c0,0-28.857-14.592-50.906-32.58c0,0,26.472-23.424,41.75-57.703
		c15.265-34.277,23.423-48.545,32.93-77.391c9.494-28.846,32.917-84.174,39.363-98.09c0,0-2.71,69.582,11.206,123.887
		c0,0,5.422,0.676,12.892,0.338c7.472-0.338,10.183-1.699,10.856,7.471c0.688,9.17,2.386,41.4,10.854,59.727
		c0,0-6.782-5.084-12.218-21.725c-5.435-16.627-13.579-37.678-13.579-37.678s-11.543,0.688-19.351,4.072
		c-7.808,3.398-17.989,6.783-25.11,4.746c0,0,4.747,46.834,1.012,58.379c0,0-13.241-10.857-16.288-12.557c0,0,1.012,26.135,0,34.617
		C996.299,977.662,988.841,1009.228,989.516,1011.941L989.516,1011.941z"/>
	<path fill="#2566AF" d="M1060.447,803.218l8.91,31.348c0.096-0.025,0.19-0.057,0.285-0.092l0.984-32.955l8.146,28.846l2.035-28.17
		l7.457,26.807l1.362-25.797l7.472,24.771l1.023-24.084l7.12,24.084l1.025-22.396l6.782,23.072l1.361-20.699l6.446,21.725
		l1.012-19.002l6.108,20.363l1.361-16.979l6.108,21.051v-17.303l6.446,19.689l0.337-14.928l4.76,17.988l0.338-13.242l5.435,17.303
		l-0.338-12.906l5.098,18.664l-0.337-11.881l4.409,15.953l0.675-9.508l2.374,11.881l1.361-5.422l1.192,10.855
		c9.922,13.709,13.685,26.445,13.685,26.445c-0.649-25.137-6.344-57.273-45.252-80.879c-38.909-23.605-85.25-10.271-85.25-10.271
		c0.727,8.197,6.574,35.744,7.561,40.258L1060.447,803.218L1060.447,803.218z M1282.087,914.886c0,0,65.147,103.176,309.523,211.785
		c0,0,104.55,82.813,247.087,119.463c142.564,36.652,405.941,137.117,496.885,305.465c0,0-36.652-88.246-215.855-184.625
		c-179.189-96.402-286.449-99.113-377.42-134.404s-90.971-61.088-160.203-96.393
		C1512.872,1100.875,1324.161,997.699,1282.087,914.886L1282.087,914.886z"/>
	<path fill="#2566AF" d="M1168.044,1094.078c0,0,108.596,31.23,241.666,65.16c133.044,33.941,317.655,70.594,426.276,93.68
		c0,0-156.116-46.158-289.187-77.377c-133.045-31.23-293.233-63.811-358.395-90.957
		C1188.406,1084.583,1174.827,1091.367,1168.044,1094.078L1168.044,1094.078z M1812.9,1652.062c0,0-10.868-80.102-89.596-154.768
		c-78.753-74.666-253.869-160.203-449.376-249.813c-195.493-89.594-373.335-169.682-437.146-327.174
		c0,0,4.072,67.883,99.102,153.406c95.043,85.535,190.061,126.26,437.159,245.725
		C1620.131,1438.917,1742.307,1467.437,1812.9,1652.062L1812.9,1652.062z"/>
	<path fill="#2566AF" d="M819.132,870.076c0,0-21.725,108.623-77.378,238.941c-55.666,130.32-133.044,281.018-112.682,521.32
		c0,0-5.408-97.117,27.158-244.363c31.219-141.201,81.45-211.797,112.682-312.26c31.23-100.465,46.16-175.586,46.16-175.586
		s-9.961,76.029,21.725,155.678c31.672,79.646,146.623,230.33,236.218,325.359s146.623,225.361,150.695,333.982
		c0,0,2.724-84.174-27.146-161.563c-29.87-77.391-85.522-161.553-134.405-217.219
		C1013.263,1278.728,790.624,1091.367,819.132,870.076L819.132,870.076z"/>
	<path fill="#2566AF" d="M2191.514,1081.794l0.053-0.168l-0.155,0.014l0.025-0.17h-0.155l0.025-0.154h-0.155l0.052-0.168h-0.182
		l0.053-0.156h-0.183l0.052-0.168l-0.182,0.012l0.053-0.168h-0.183l0.052-0.168l-0.182,0.012l0.053-0.168l-0.155,0.014l0.024-0.168
		h-0.154l0.052-0.156h-0.183l0.053-0.168h-0.182l0.052-0.156h-0.183l0.053-0.168l-0.182,0.012l0.052-0.168l-0.183,0.014l0.054-0.168
		l-0.156,0.014l0.026-0.17h-0.155l0.051-0.168h-0.182l0.053-0.156h-0.182l0.052-0.168l-0.184,0.014l0.054-0.168l-0.183,0.012
		l0.053-0.168h-0.182l0.076-0.168l-0.182,0.012l0.053-0.168h-0.182l0.051-0.168h-0.182l0.053-0.17l-0.182,0.014l0.051-0.168h-0.182
		l0.053-0.17h-0.182l0.052-0.168l-0.155,0.014l0.025-0.168h-0.182l0.078-0.17h-0.183l0.052-0.168l-0.182,0.014l0.053-0.17h-0.183
		l0.052-0.168l-0.182,0.014l0.053-0.17l-0.183,0.014l0.052-0.168h-0.154l0.024-0.17l-0.155,0.014l0.053-0.168h-0.182l0.052-0.168
		l-0.183,0.012l0.053-0.168l-0.182,0.014l0.052-0.17h-0.183l0.053-0.168h-0.182l0.052-0.168l-0.155,0.012l0.025-0.168h-0.155
		l0.052-0.168h-0.182l0.053-0.17l-0.182,0.016l0.051-0.17h-0.182l0.053-0.168l-0.182,0.014l0.051-0.17h-0.182l0.053-0.168h-0.156
		l0.026-0.156h-0.155l0.025-0.168h-0.155l0.052-0.154h-0.182l0.052-0.17l-0.182,0.014l0.052-0.168h-0.182l0.052-0.17h-0.182
		l0.052-0.154h-0.182l0.078-0.17h-0.183l0.025-0.168h-0.155l0.052-0.168l-0.182,0.014l0.052-0.17h-0.182l0.052-0.168h-0.182
		l0.052-0.168l-0.154,0.012l0.024-0.168h-0.155l0.053-0.168h-0.183l0.054-0.17l-0.183,0.014l0.052-0.168h-0.183l0.054-0.156h-0.183
		l0.052-0.168h-0.183l0.053-0.17l-0.155,0.014l0.025-0.168h-0.155l0.052-0.168l-0.182,0.012l0.053-0.168h-0.183l0.052-0.168
		l-0.182,0.012l0.053-0.168h-0.183l0.052-0.168h-0.182l0.053-0.17l-0.155,0.016l0.024-0.17h-0.154l0.024-0.168h-0.155l0.053-0.168
		l-0.183,0.012l0.054-0.168l-110.088,5.098l-42.101,146.936l-42.1-129.92h-0.078l-0.054-0.154h-0.051l-0.053-0.156h-0.077
		l-0.052-0.168h-0.078l-0.052-0.156h-0.052l-0.053-0.168h-0.078l-0.052-0.154h-0.077l-0.053-0.17h-0.077l-0.053-0.154h-0.051
		l-0.054-0.156h-0.076l-0.053-0.156h-0.078l-0.052-0.168h-0.052l-0.078-0.154h-0.052l-0.052-0.156h-0.078l-0.053-0.156h-0.076
		l-0.053-0.154h-0.052l-0.053-0.156h-0.078l-0.051-0.168h-0.078l-0.052-0.156h-0.078l-0.053-0.154h-0.052l-0.052-0.156h-0.078
		l-0.052-0.154h-0.077l-0.053-0.156h-0.051l-0.054-0.168h-0.077l-0.052-0.156h-0.078l-0.052-0.156h0.225l-0.052-0.154h-0.052
		l-0.053-0.168h-0.077l-0.052-0.156h-0.078l-0.053-0.168h-0.052l-0.077-0.156h-0.053l-0.052-0.168h-0.077l-0.053-0.156h-0.077
		l-0.052-0.154h-0.053l-0.052-0.168h-0.078l-0.052-0.156h-0.078l-0.052-0.156h-0.052l-0.078-0.168h-0.053l-0.052-0.156h-0.077
		l-0.053-0.154h-0.077l-0.052-0.168h-0.053l-0.051-0.156h-0.078l-0.053-0.156h-0.078l-0.052-0.168h-0.078l-0.051-0.156h-0.053
		l-0.052-0.168h-0.078l-0.053-0.154h-0.076l-0.053-0.156h-0.053l-0.051-0.156h-0.078l-0.053-0.154h-0.077l-0.052-0.156h-0.078
		l-0.053-0.168h-0.052l-0.052-0.156h-0.077l-0.053-0.154h-0.052l-0.078-0.156h-0.077l-0.052-0.154h-0.053l-0.053-0.156h-0.077
		l-0.052-0.168h-0.053l-0.051-0.156h-0.078l-0.053-0.168h-0.076l-0.054-0.156h-0.078l-0.051-0.168h-0.078l-0.052-0.154h-0.053
		l-0.053-0.17h-0.076l-0.053-0.154h-0.052l-0.052-0.17h-0.104l-0.053-0.154h-0.052l-0.053-0.17h-0.078l-0.051-0.168h-0.053
		l-0.052-0.156h-0.077l-0.053-0.154h-0.077l-0.052-0.168h-0.078l-0.053-0.156h-0.076l-0.053-0.156h-0.053l-0.052-0.168h-0.078
		l-0.051-0.156h-0.054l-0.052-0.154h-0.077l-0.053-0.168h-0.077l-0.052-0.156h-0.078l-0.052-0.156h-0.052l-0.053-0.154h-0.078
		l-0.052-0.17l-129.27,5.98l-51.982,210.381l-17.886-194.039h-0.104l-0.026-0.17h-0.104l-0.025-0.154h-0.077l-0.025-0.17h-0.104
		l-0.024-0.168h-0.104v-0.168h-0.104l-0.025-0.156h-0.104v-0.168h-0.104l-0.026-0.156h-0.104v-0.168h-0.13v-0.156h-0.104
		l-0.025-0.168h-0.077l-0.026-0.156h-0.104l-0.025-0.168h-0.104v-0.154h-0.104l-0.024-0.168h-0.104l-0.025-0.156h-0.077
		l-0.026-0.168h-0.104l-0.025-0.17l-0.104,0.014v0.688h-0.104l-0.026-0.154h-0.104v-0.17h-0.104l-0.025-0.154h-0.104v-0.168h-0.13
		v-0.129l-0.104,0.012l-0.026-0.168h-0.104v-0.156h-0.104l-0.025-0.168h-0.104l-0.026-0.154h-0.076l-0.026-0.156h-0.104
		l-0.025-0.168h-0.077l-0.025-0.168h-0.104l-0.025-0.156h-0.104v-0.168h-0.104l-0.024-0.156h-0.104l-0.026-0.17l-0.104,0.016v-0.17
		h-0.104l-0.024-0.168h-0.104v-0.168l-0.104,0.012l-0.025-0.168h-0.104v-0.156h-0.131v-0.168h-0.104l-0.025-0.154h-0.104v-0.078
		l-0.104,0.014l-0.026-0.17h-0.104v-0.168h-0.104l-0.025-0.156h-0.104l-0.026-0.168h-0.078l-0.024-0.154h-0.104l-0.025-0.17
		l-0.104,0.014v-0.168h-0.104l-0.025-0.17h-0.104l-0.026-0.154h-0.078l-0.024-0.17h-0.104v-0.154h-0.129v-0.17h-0.104l-0.026-0.154
		h-0.104v-0.168h-0.104l-0.024-0.17l-0.104,0.014v-0.168h-0.104l-0.025-0.156h-0.104l-0.025-0.168h-0.078l-0.025-0.156h-0.104
		l-0.026-0.168h-0.104v-0.17h-0.104l-0.025-0.154h-0.104l-0.025-0.156h-0.078l-0.025-0.168h-0.104l-0.026-0.156h-0.104v-0.168
		l-0.104,0.014l-0.025-0.17h-0.104v-0.168h-0.104l-0.026-0.154h-0.104v-0.168h-0.129v-0.156h-0.104l-0.026-0.168h-0.104v-0.156
		h-0.104l-0.025-0.168h-0.104l-0.026-0.17l-0.077,0.014l-0.025-0.17h-0.104l-0.026-0.154h-0.078l-0.024-0.168l-136.078,6.291
		l-100.01,163.896l47.599-148.373l-0.154,0.012l0.051-0.168h-0.182l0.077-0.154h-0.182l0.053-0.168h-0.155l0.051-0.156h-0.182
		l0.053-0.168h-0.155l0.052-0.17h-0.182l0.052-0.168h-0.155l0.053-0.168l-0.183,0.012l0.077-0.168h-0.182l0.053-0.168h-0.182
		l0.051-0.17l-0.154,0.014l0.051-0.17h-0.154l0.051-0.168l-0.182,0.014l0.053-0.168l-0.155,0.014l0.052-0.17l-0.182,0.014
		l0.052-0.168h-0.155l0.053-0.17l-0.183,0.014l0.052-0.168h-0.154l0.052-0.17l-0.155,0.014l0.051-0.168h-0.182l0.053-0.168h-0.182
		l0.052-0.17l-0.155,0.014l0.051-0.168h-0.154l0.052-0.17h-0.183l0.054-0.168l-0.156,0.014l0.052-0.17h-0.182l0.052-0.168h-0.155
		l0.053-0.168h-0.182l0.051-0.154h-0.154l0.052-0.17h-0.155l0.051-0.168l-0.182,0.014l0.053-0.17h-0.182l0.053-0.168l-0.156,0.012
		l0.052-0.168h-0.181l0.076-0.168h-0.182l0.053-0.156h-0.156l0.053-0.168h-0.182l0.051-0.154h-0.154l0.052-0.17l-0.182,0.014
		l0.052-0.168h-0.155l0.052-0.17h-0.154l0.051-0.156h-0.182l0.053-0.168h-0.156l0.053-0.156h-0.182l0.051-0.168l-0.154,0.014
		l0.052-0.168h-0.183l0.053-0.168h-0.155l0.052-0.17l-0.181,0.014l0.051-0.168l-0.155,0.012l0.053-0.168h-0.183l0.078-0.168
		l-0.183,0.012l0.053-0.168h-0.182l0.078-0.168l-0.183,0.014l0.052-0.17h-0.156l0.054-0.168l-0.183,0.014l0.053-0.17h-0.183
		l0.077-0.168h-0.182l0.053-0.156h-0.156l0.053-0.168l-0.155,0.014l0.052-0.17h-0.182l0.052-0.168h-0.183l0.054-0.168h-0.156
		l0.052-0.154h-0.154l0.052-0.17h-0.183l0.053-0.168l-0.156,0.012l0.053-0.168h-0.182l0.052-0.156h-0.155l0.051-0.168h-0.182
		l0.053-0.156h-0.156l0.054-0.168h-0.156l0.052-0.168l-0.182,0.014l0.052-0.168h-0.182l0.053-0.17l-0.155,0.014l0.051-0.17h-0.154
		l0.052-0.168h-0.182l0.052-0.156h-0.156l0.053-0.168h-0.182l0.053-0.156h-0.156l0.052-0.168l-0.183,0.014l0.054-0.168h-0.156
		l0.053-0.168l-144.69,6.691l-71.917,96.678l-19.156-79.391h-0.078l-0.052-0.154h-0.078l-0.025-0.17h-0.078l-0.024-0.154h-0.078
		l-0.052-0.154h-0.053l-0.052-0.156h-0.078l-0.025-0.156h-0.077l-0.053-0.154h-0.052l-0.052-0.156h-0.078l-0.025-0.154h-0.077
		l-0.026-0.156h-0.077l-0.053-0.168h-0.052l-0.053-0.156h-0.052l-0.052-0.154h-0.078l-0.025-0.17h-0.078l-0.052-0.154h-0.052
		l-0.052-0.156h-0.078l-0.025-0.154h-0.078l-0.052-0.17h-0.052l-0.052-0.154h-0.078l-0.025-0.17h-0.078l-0.024-0.154h-0.078
		l-0.052-0.17h-0.078l-0.025-0.154h-0.078l-0.025-0.17h-0.077l-0.053-0.154h-0.077l-0.025-0.168h-0.078l-0.026-0.156h-0.077
		l-0.053-0.168h-0.051l-0.053-0.156h-0.077l-0.026-0.156h-0.078l-0.024-0.168h-0.078l-0.052-0.154h-0.053l-0.052-0.156h-0.078
		l-0.024-0.168h-0.078l-0.053-0.156h-0.052l-0.052-0.168h-0.052l-0.052-0.156h-0.078l-0.025-0.154h-0.078l-0.025-0.156h-0.077
		l-0.053-0.168h-0.077l-0.026-0.156h-0.077l-0.026-0.168h-0.077l-0.052-0.156h-0.078l-0.025-0.154h-0.077l-0.026-0.168h-0.077
		l-0.053-0.156h-0.077l-0.025-0.156h-0.078l-0.025-0.168h-0.078l-0.052-0.156h-0.052l-0.052-0.154h-0.077l-0.026-0.168h-0.078
		l-0.025-0.156h-0.077l-0.053-0.156h-0.052l-0.052-0.168h-0.078l-0.025-0.156h-0.077l-0.026-0.154h-0.077l-0.052-0.156h-0.052
		l-0.054-0.154h-0.077l-0.025-0.156h-0.077l-0.052-0.154h-0.054l-0.052-0.156h-0.077l-0.025-0.168h-0.077l-0.053-0.156h-0.053
		l-0.052-0.168h-0.077l-0.025-0.156h-0.078l-0.025-0.168h-0.078l-0.052-0.154h-0.077l-0.026-0.17h-0.077l-0.025-0.154h-0.078
		l-0.052-0.156h-0.052l-0.053-0.156h-0.078l-0.024-0.154h-0.078l-0.026-0.156h-0.077l-0.052-0.168h-0.052l-0.053-0.156h-0.077
		l-0.026-0.154h-0.077l-0.025-0.156h-0.078l-0.053-0.154h-0.052l-0.052-0.156h-0.077l-0.026-0.156h-0.077l-0.053-0.154
		l-413.294,19.117l-36.69,96.209l-11.154-80.943h-0.078l-0.013-0.154h-0.078l-0.013-0.17h-0.091l-0.014-0.156h-0.078l-0.013-0.154
		h-0.078l-0.013-0.154h-0.078l-0.013-0.156h-0.078l-0.025-0.156h-0.078l-0.013-0.154h-0.078l-0.013-0.156h-0.078l-0.025-0.154h0.688
		l-0.026-0.156h-0.077l-0.025-0.154h-0.078l-0.025-0.17h-0.078l-0.024-0.154h-0.078l-0.026-0.156h-0.077l-0.025-0.168h-0.077
		l-0.014-0.156h-0.078l-0.025-0.154h-0.077l-0.014,0.816h-0.078l-0.013-0.156h-0.077l-0.015-0.154h-0.076l-0.026-0.17h-0.078
		l-0.013-0.154h-0.092l-0.024-0.156h-0.078l-0.013-0.156h-0.078l-0.014-0.154h-0.077l-0.014-0.168h-0.077l-0.014-0.156h-0.13
		l-0.013-0.156h-0.078l-0.025-0.168h-0.078l-0.024-0.156h-0.078l-0.013-0.154h-0.078l-0.026-0.168h-0.077l-0.025-0.105h-0.077
		l-0.026-0.154h-0.078l-0.025-0.17h-0.077l-0.025-0.154h-0.078l-0.013-0.156h-0.078l-0.013-0.154h-0.078l-0.013-0.156h-0.078
		l-0.014-0.154h-0.078l-0.013-0.156h-0.077l-0.014-0.156h-0.078l-0.025-0.154h-0.078l-0.013-0.154h-0.077l-0.014-0.156h-0.078
		l-0.013-0.156h-0.077l-0.026-0.156h-0.077l-0.014-0.154h-0.078l-0.024-0.168h-0.078l-0.013-0.156h-0.078l-0.014-0.156h-0.078
		l-0.024-0.154h-0.078l-0.013-0.154h-0.078l-0.025-0.156h-0.078l-0.013-0.168h-0.078l-0.025-0.156h-0.077l-0.014-0.156h-0.078
		l-0.024-0.154h-0.078l-0.013-0.168h-0.078l-0.014-0.156h-0.078l-0.013-0.168h-0.078l-0.024-0.156h-0.078l-0.014-0.168h-0.078
		l-0.013-0.156h-0.078l-0.013-0.154h-0.078l-0.013-0.156h-0.078l-0.013-0.156h-0.077l-0.015-0.154h-0.077l-0.025-0.17h-0.078
		l-0.013-0.154h-0.077l-0.026-0.156h-0.078l-0.013-0.154h-0.078l-0.024-0.156h-0.094l-0.025-0.154H858.5l-0.025-0.168h-0.078
		l-0.024-0.156h-0.285l-0.014-0.168h-0.077l-0.026-0.156h-0.078l-0.013-0.156h-0.077l-0.014-0.154l-142.097,6.563l-105.225,193.08
		l-0.402-0.713l-0.129-0.207l-0.064-0.105l-0.13-0.221l-0.064-0.104l-0.117-0.193l-0.104-0.156
		c-0.029-0.059-0.064-0.115-0.104-0.168l-0.063-0.117l-0.117-0.193l-0.091-0.143c-0.042-0.061-0.081-0.119-0.116-0.184l-0.078-0.129
		l-0.117-0.195l-0.09-0.143l-0.104-0.168c-0.033-0.045-0.064-0.092-0.091-0.143l-0.116-0.195c-0.025-0.035-0.049-0.074-0.064-0.117
		l-0.116-0.193l-0.091-0.154l-0.091-0.143l-0.104-0.17l-0.104-0.168l-0.09-0.145l-0.104-0.168l-0.104-0.168l-0.077-0.143
		l-0.116-0.195l-0.052-0.104c-0.052-0.068-0.096-0.143-0.13-0.221l-0.078-0.115l-0.116-0.195l-0.078-0.129l-0.117-0.195
		l-0.063-0.104l-0.131-0.219l-0.078-0.117l-0.104-0.184l-0.091-0.143l-0.104-0.182l-0.091-0.143
		c-0.038-0.053-0.067-0.107-0.091-0.17l-0.104-0.168l-0.078-0.143l-0.116-0.195c-0.029-0.041-0.056-0.084-0.078-0.129l-0.104-0.168
		l-0.091-0.143l-0.104-0.184l-0.091-0.154c-0.029-0.061-0.063-0.115-0.104-0.168l-0.077-0.145c-0.026-0.064-0.078-0.115-0.117-0.182
		l-0.091-0.143l-0.104-0.168l-0.092-0.156l-0.091-0.143l-0.116-0.195l-0.077-0.129l-0.117-0.182l-0.091-0.156l-0.092-0.143
		l-0.115-0.182L603.84,1319l-0.104-0.168l-0.078-0.131l-0.104-0.193l-0.092-0.131l-0.104-0.182l-0.09-0.154
		c-0.042-0.059-0.081-0.119-0.117-0.182l-0.091-0.145l-0.078-0.143l-0.104-0.182l-0.078-0.143l-0.115-0.182l-0.092-0.145
		l-0.104-0.168l-0.091-0.154l-0.104-0.17c-5.467-8.879-12.238-16.887-20.091-23.748c15.759-6.523,56.237-28.768,64.33-87.52
		c3.476-25.24-1.089-46.68-12.14-64.33l-0.104-0.17l-0.078-0.115c-0.042-0.059-0.081-0.119-0.116-0.182l-0.091-0.145l-0.104-0.168
		l-0.104-0.168l-0.104-0.168c-0.029-0.043-0.055-0.086-0.078-0.131c-0.039-0.055-0.073-0.109-0.104-0.168l-0.104-0.17l-0.091-0.154
		c-0.03-0.061-0.064-0.115-0.104-0.17c-0.018-0.043-0.044-0.084-0.078-0.115l-0.116-0.195l-0.064-0.129l-0.13-0.193
		c-0.026-0.037-0.048-0.076-0.064-0.117c-0.042-0.051-0.077-0.109-0.104-0.17l-0.091-0.143c-0.029-0.059-0.064-0.115-0.104-0.168
		l-0.091-0.168l-0.091-0.156c-0.035-0.049-0.065-0.102-0.092-0.156l-0.091-0.143l-0.116-0.193l-0.077-0.117l-0.116-0.193
		c-0.029-0.041-0.057-0.086-0.078-0.131l-0.117-0.193l-0.077-0.131l-0.104-0.168l-0.093-0.145l-0.104-0.154
		c-0.029-0.059-0.064-0.115-0.104-0.168l-0.104-0.156l-0.104-0.168c-0.028-0.041-0.055-0.086-0.077-0.131l-0.117-0.182l-0.077-0.129
		c-0.042-0.059-0.081-0.119-0.117-0.182c-0.025-0.051-0.056-0.1-0.091-0.145l-0.116-0.168l-0.078-0.143l-0.104-0.17
		c-0.042-0.051-0.077-0.107-0.104-0.168l-0.077-0.143l-0.104-0.168l-0.104-0.156l-0.092-0.156l-0.091-0.143l-0.091-0.156
		l-0.104-0.168l-0.104-0.168l-0.091-0.143l-0.092-0.17l-0.091-0.143c-0.028-0.059-0.063-0.115-0.104-0.168l-0.091-0.143
		c-0.03-0.061-0.064-0.117-0.104-0.17l-0.104-0.154l-0.091-0.131l-0.104-0.182l-0.091-0.143l-0.078-0.145
		c-0.041-0.059-0.08-0.119-0.116-0.182l-0.091-0.143c-0.039-0.039-0.052-0.105-0.091-0.156l-0.104-0.168l-0.091-0.156l-0.091-0.143
		c-0.03-0.059-0.064-0.115-0.104-0.168l-0.09-0.156l-0.091-0.143l-0.091-0.156l-0.117-0.168l-0.078-0.129
		c-0.029-0.059-0.063-0.115-0.104-0.17l-0.091-0.154l-0.091-0.143c-0.029-0.061-0.063-0.115-0.104-0.17
		c-20.973-33.721-65.484-53.604-122.668-59.52c-26.575-2.748-151.188,5.5-151.188,5.5l-167.673,453.566h0.143l-0.052,0.168
		l0.143-0.014l-0.052,0.156h0.143l-0.052,0.168h0.143l-0.052,0.168l0.143-0.012l-0.052,0.168l0.143-0.014l-0.052,0.17h0.156
		l-0.052,0.168h0.143l-0.052,0.156h0.156l-0.065,0.154h0.143l-0.052,0.154h0.143l-0.052,0.17h0.143l-0.052,0.154h0.156l-0.064,0.17
		l0.156-0.014l-0.065,0.17h0.156l-0.052,0.154h0.143l-0.052,0.168l0.143-0.014l-0.052,0.17h0.143l-0.065,0.154h0.156l-0.052,0.17
		h0.143l-0.052,0.154h0.143l-0.052,0.156h0.156l-0.052,0.168h0.143l-0.052,0.156h0.143l-0.052,0.168l0.143-0.014l-0.052,0.17h0.143
		l-0.052,0.154h0.156l-0.065,0.156h0.143l-0.052,0.168h0.156l-0.065,0.156h0.156l-0.065,0.154h0.156l-0.064,0.17h0.156l-0.065,0.168
		l0.156-0.014l-0.065,0.168l0.156-0.014l-0.052,0.17h0.143l-0.052,0.168h0.143l-0.052,0.156l0.156-0.014l-0.052,0.168h0.143
		l-0.052,0.156h0.143l-0.052,0.168h0.155l-0.052,0.156h0.143l-0.052,0.168l0.143-0.012l-0.052,0.168h0.143l-0.052,0.154h0.156
		l-0.065,0.168l0.143-0.012l-0.052,0.168h0.143l-0.052,0.156h0.155l-0.064,0.168h0.155l-0.064,0.156h0.155l-0.052,0.154h0.144
		l-0.052,0.156h0.143l-0.052,0.168h0.143l-0.052,0.168l0.143-0.012l-0.052,0.168l0.143-0.014l-0.052,0.17h0.143l-0.052,0.154h0.143
		l-0.052,0.168l0.155-0.012l-0.052,0.168h0.143l-0.052,0.156h0.143l-0.052,0.168h0.143l-0.052,0.156h0.143l-0.052,0.154h0.156
		l-0.065,0.168h0.155l-0.064,0.156h0.155l-0.052,0.168h0.143l-0.052,0.156h0.143l-0.052,0.156h0.143l-0.052,0.154h0.143
		l-0.052,0.168h0.156l-0.052,0.156h0.143l-0.052,0.168h0.143l-0.052,0.156h0.156l-0.052,0.154h0.143l-0.052,0.156h0.143
		l-0.052,0.168h0.143l-0.052,0.168h0.143l-0.052,0.156h0.156l-0.064,0.156h0.156l-0.065,0.154h0.156l-0.052,0.17h0.143l-0.065,0.154
		l0.156-0.014l-0.065,0.184c0,0,252.327-2.764,306.463-19.248c4.708-1.428,9.299-2.996,13.824-4.656h0.026l-0.091,0.182l0.194-0.012
		l-0.092,0.168h0.183l-0.091,0.156h0.193l-0.091,0.168l0.182-0.014l-0.091,0.17l0.182-0.016l-0.091,0.184l0.183-0.014l-0.092,0.168
		l0.194-0.012l-0.09,0.168l0.182-0.014l-0.092,0.182l0.183-0.012l-0.091,0.168l0.183-0.014l-0.092,0.17l0.182-0.016l-0.09,0.184
		l0.181-0.014l-0.091,0.168l0.195-0.014l-0.092,0.17h0.182l-0.09,0.156h0.182l-0.092,0.168l0.182-0.014l-0.09,0.182l0.182-0.012
		l-0.092,0.168l0.182-0.014l-0.09,0.168l0.183-0.014l-0.093,0.17h0.183l-0.09,0.168l0.193-0.014l-0.091,0.17l0.182-0.014
		l-0.091,0.168h0.182l-0.091,0.168l0.183-0.012l-0.092,0.168l0.182-0.014l-0.09,0.17h0.182l-0.092,0.168l0.182-0.014l-0.09,0.17
		l0.194-0.014l-0.091,0.182l0.182-0.014l-0.091,0.17h0.182l-0.091,0.154h0.194l-0.092,0.156h0.183l-0.091,0.168l0.193-0.014
		l-0.091,0.17h0.183l-0.092,0.154h0.183l-0.091,0.17l0.193-0.014l-0.091,0.182l0.182-0.014l-0.091,0.168l0.195-0.012l-0.092,0.168
		l0.194-0.014l-0.091,0.182l0.194-0.012l-0.091,0.168l0.182-0.014l-0.091,0.17h0.193l-0.091,0.154h0.182l-0.091,0.168l0.183-0.014
		l-0.092,0.17l0.183-0.014l-0.091,0.182l0.182-0.014l-0.091,0.17l0.182-0.014l-0.091,0.168l0.194-0.014l-0.091,0.184l0.182-0.014
		l-0.091,0.168l0.182-0.014l-0.091,0.17l0.182-0.014l-0.091,0.182l0.194-0.014l-0.092,0.17l0.183-0.014l-0.091,0.182l0.193-0.014
		l-0.09,0.156h0.182l-0.092,0.168l0.183-0.014l-0.091,0.184l0.183-0.014l-0.092,0.168l0.194-0.014l-0.091,0.17l172.019-7.926
		l26.187-59.881l88.116-3.449l9.04,44.59h0.063l0.039,0.154h0.064l0.025,0.17l0.065-0.014l0.025,0.168h0.063l0.026,0.156h0.078
		l0.024,0.154h0.065l0.024,0.17h0.064l0.026,0.154h0.064l0.025,0.156h0.063l0.039,0.168h0.065l0.025,0.168l0.064-0.012l0.039,0.168
		l0.064-0.014l0.024,0.17h0.078l0.026,0.168h0.063l0.026,0.156h0.077l0.025,0.154h0.064l0.026,0.156h0.063l0.026,0.168h0.063
		l0.026,0.156h0.064l0.038,0.168l0.065-0.014l0.025,0.17h0.063l0.039,0.154h0.065l0.024,0.168l0.065-0.014l0.025,0.17h-0.104
		l0.026,0.156h0.063l0.026,0.168h0.063l0.039,0.154h0.065l0.025,0.156h0.063l0.039,0.154h0.065l0.024,0.17h0.065l0.024,0.168
		l0.065-0.012l0.025,0.168l0.064-0.014l0.025,0.168h0.065l0.024,0.156h0.065l0.024,0.168h0.064l0.026,0.156h0.064l0.025,0.154h0.063
		l0.026,0.17h0.064l0.038,0.154h0.065l0.025,0.156h0.064l0.025,0.168h0.064l0.025,0.156h0.064l0.025,0.168l0.065-0.014l0.024,0.17
		h0.064l0.025,0.154h0.065l0.025,0.156h0.063l0.039,0.168h0.065l0.024,0.168l0.065-0.012l0.039,0.154h0.063l0.025,0.17h0.078
		l0.025,0.168l0.064-0.014l0.026,0.168l0.077-0.012l0.025,0.168h0.064l0.025,0.168h0.064l0.025,0.156h0.064l0.026,0.156h0.063
		l0.039,0.154h0.065l0.024,0.168h0.064l0.026,0.156h0.064l0.025,0.168l0.063-0.014l0.026,0.17h0.063l0.026,0.154h0.064l0.025,0.17
		l0.064-0.014l0.026,0.168h0.063l0.026,0.156h0.063l0.039,0.168h0.065l0.038,0.156h0.064l0.039,0.154h0.064l0.024,0.156h0.065
		l0.026,0.168h0.076l0.026,0.168l0.064-0.012l0.025,0.168l0.077-0.014l0.026,0.17h0.063l0.026,0.154h0.063l0.039,0.17h0.064
		l0.026,0.154h0.064l0.025,0.156h0.063l0.026,0.168h0.065l0.024,0.156h0.064l0.026,0.154h0.063l0.026,0.17h0.063l0.026,0.154
		l194.806-8.975l84.396-253.742l39.104-1.359l-85.211,240.291h0.155l-0.052,0.154h0.168l-0.064,0.154h0.169l-0.052,0.17l0.154-0.014
		l-0.052,0.168h0.169l-0.052,0.156h0.155l-0.053,0.168l0.17-0.014l-0.065,0.17h0.169l-0.052,0.168l0.155-0.014l-0.053,0.17
		l0.169-0.014l-0.052,0.168l0.168-0.014l-0.052,0.184l0.155-0.014l-0.052,0.168h0.155l-0.052,0.156h0.169l-0.053,0.168l0.168-0.014
		l-0.063,0.17l0.168-0.014l-0.063,0.168h0.168l-0.052,0.17l0.155-0.014l-0.052,0.168l0.169-0.014l-0.053,0.184l0.168-0.014
		l0.183-0.352l0.169-0.012l-0.065,0.168h0.169l-0.052,0.168l0.155-0.025l-0.052,0.182l0.155-0.014l-0.053,0.17h0.156l-0.052,0.154
		h0.154l-0.052,0.17l0.155-0.014l-0.052,0.182l0.169-0.014l-0.053,0.17l0.155-0.014l-0.052,0.168l0.169-0.014l-0.064,0.17h0.168
		l-0.052,0.168l0.169-0.014l-0.052,0.17l0.155-0.014l-0.053,0.168h0.169l-0.064,0.17l0.169-0.014l-0.064,0.168l0.168-0.014
		l-0.052,0.17h0.169l-0.052,0.168l0.155-0.014l-0.053,0.17l0.169-0.014l-0.064,0.182l0.169-0.014l-0.052,0.17h0.154l-0.052,0.154
		h0.169l-0.052,0.168l0.168-0.014l-0.064,0.17l0.169-0.014l-0.053,0.168h0.156l-0.052,0.156h0.169l-0.054,0.17l0.156-0.016
		l-0.052,0.184l0.155-0.014l-0.053,0.168l0.169-0.014l-0.064,0.17l0.169-0.014l-0.052,0.182l0.154-0.014l-0.052,0.17l0.169-0.014
		l-0.052,0.168h0.155l-0.053,0.156h0.169l-0.053,0.168l0.156-0.014l-0.052,0.17l0.169-0.014l-0.054,0.182l0.156-0.014l-0.052,0.17
		l0.168-0.014l-0.052,0.168l0.155-0.014l-0.053,0.182l0.169-0.012l-0.052,0.168l0.169-0.014l-0.065,0.17h0.156l-0.052,0.168
		l0.168-0.014l-0.052,0.17l0.155-0.016l-0.053,0.17h0.169l-0.052,0.154h0.156l-0.054,0.17l0.169-0.014l-0.063,0.182l0.168-0.012
		l-0.064,0.168l0.169-0.014l-0.053,0.17l0.156-0.016l-0.052,0.17h0.169l-0.054,0.168l0.169-0.014l-0.063,0.17l0.168-0.014
		l-0.064,0.17l0.169-0.016l-0.053,0.184l0.169-0.014l-0.063,0.168h0.169l-0.065,0.168l0.169-0.012l-0.064,0.168l0.169-0.014
		l-0.053,0.17l0.169-0.014l-0.053,0.182l0.156-0.014l-0.052,0.17h0.169l-0.065,0.154l160.177-7.379l40.699-122.721l13.424,91.242
		l0.077-0.092l0.052,0.246l0.078-0.076l0.026,0.244l0.077-0.104l0.025,0.271l0.077-0.104l0.054,0.26l0.052-0.104l0.052,0.26
		l0.078-0.092l0.025,0.246l0.077-0.092l0.025,0.26l0.078-0.104l0.024,0.26l0.078-0.092l0.053,0.246l0.052-0.09l0.052,0.258
		l0.078-0.104l0.026,0.26l0.077-0.09l0.052,0.246l0.052-0.092l0.052,0.26l0.078-0.09l0.026,0.246l0.077-0.092l0.025,0.26
		l0.077-0.104l0.053,0.26l0.053-0.092l0.052,0.246l0.052-0.09l0.052,0.246l0.078-0.092l0.025,0.26l0.078-0.09l0.024,0.246
		l0.078-0.092l0.053,0.246l0.052-0.09l0.052,0.26l0.078-0.092l0.025,0.26l0.077-0.104l0.053,0.246l0.052-0.078l0.052,0.246
		l0.053-0.09l0.052,0.26l0.078-0.104l0.025,0.26l0.077-0.104l0.026,0.258l0.078-0.09l0.052,0.246l0.052-0.09l0.052,0.258
		l0.078-0.104l0.025,0.26l0.078-0.092l0.024,0.26l0.104-0.104l0.025,0.258l0.078-0.09l0.025,0.246l0.078-0.09l0.025,0.258
		l0.077-0.104l0.053,0.26l0.052-0.092l0.052,0.248l0.078-0.092l0.025,0.26l0.077-0.105l0.026,0.262l0.077-0.105l0.026,0.26
		l0.077-0.09l0.053,0.246l0.077-0.078l0.025,0.246l0.078-0.09l0.025,0.258l0.078-0.104l0.052,0.26l0.052-0.09l0.052,0.246
		l0.078-0.092l0.025,0.246l0.078-0.092l0.024,0.262l0.078-0.092l0.052,0.246l0.053-0.092l0.052,0.246l0.078-0.09l0.024,0.26
		l0.078-0.104l0.026,0.258l0.077-0.09l0.052,0.246l0.052-0.09l0.054,0.258l0.076-0.09l0.026,0.246l0.078-0.092l0.051,0.26
		l0.053-0.104l0.053,0.258l0.052-0.09l0.052,0.246l0.078-0.092l0.025,0.248l0.077-0.092l0.025,0.26l0.078-0.092l0.052,0.248
		l0.052-0.092l0.053,0.246l-0.363-0.531l0.026,0.246l0.077-0.104l0.025,0.271l0.078-0.104l0.052,0.246l0.052-0.078l0.053,0.246
		l0.078-0.09l0.024,0.26l0.078-0.104l0.025,0.26l0.078-0.105l0.052,0.262l0.052-0.092l0.052,0.246l0.078-0.092l0.026,0.26
		l0.077-0.09l0.025,0.246l0.077-0.092l0.052,0.26l0.054-0.104l0.052,0.26l0.077-0.092l0.026,0.246l0.076-0.09l0.026,0.26
		l0.078-0.092l0.052,0.246l0.052-0.09l0.053,0.246l0.077-0.092l0.025,0.26l0.078-0.092l0.025,0.246l0.078-0.09l0.052,0.246
		l0.052-0.09l0.052,0.258l76.548-98.621l-31.257,99.35l0.155-0.014l-0.052,0.168h0.155l-0.053,0.168l0.183-0.012l-0.077,0.168
		l0.181-0.014l-0.052,0.17h0.156l-0.053,0.168l0.182-0.014l-0.077,0.17l0.182-0.016l-0.052,0.184l0.155-0.014l-0.052,0.168
		l0.154-0.014l-0.052,0.17h0.182l-0.052,0.156h0.155l-0.051,0.168l0.154-0.014l-0.052,0.168l0.155-0.014l-0.052,0.182l0.182-0.012
		l-0.052,0.168l0.155-0.014l-0.053,0.17l0.155-0.014l-0.051,0.182l0.155-0.012l-0.026,0.168l0.156-0.014l-0.053,0.168l0.155-0.014
		l-0.052,0.182l0.155-0.012l-0.053,0.168l0.183-0.014l-0.077,0.17h0.181l-0.052,0.154h0.156l-0.053,0.17l0.182-0.014l-0.052,0.182
		l0.155-0.014l-0.052,0.168l0.155-0.012l-0.052,0.168h0.154l-0.052,0.156h0.182l-0.052,0.168l0.155-0.014l-0.052,0.17h0.155
		l-0.052,0.154h0.183l-0.054,0.168l0.156-0.012l-0.052,0.168h0.155l-0.053,0.168l0.155-0.012l-0.052,0.168l0.182-0.014l-0.052,0.17
		l0.156-0.014l-0.053,0.182l0.155-0.014l-0.052,0.168h0.182l-0.052,0.156h0.155l-0.052,0.168l0.154-0.012l-0.052,0.168l0.156-0.014
		l-0.052,0.17h0.181l-0.052,0.168l0.155-0.014l-0.052,0.168l0.155-0.014l-0.052,0.182l0.182-0.012l-0.052,0.168l0.155-0.014
		l-0.053,0.17l0.155-0.014l-0.052,0.182l0.156-0.014l-0.053,0.17l0.183-0.014l-0.053,0.168h0.155l-0.052,0.156h0.182l-0.078,0.168
		l0.183-0.014l-0.052,0.17l0.154-0.014l-0.052,0.182l0.156-0.014l-0.053,0.17l0.182-0.014l-0.052,0.168l0.156-0.014l-0.053,0.182
		l0.155-0.012l-0.052,0.168l0.154-0.014l-0.052,0.17h0.183l-0.053,0.168l0.155-0.014l-0.052,0.17h0.156l-0.053,0.154h0.155
		l-0.026,0.156h0.156l-0.052,0.168l0.155-0.014l-0.053,0.182l0.155-0.012l-0.052,0.168l0.182-0.014l-0.052,0.17h0.156l-0.053,0.154
		h0.155l-0.052,0.168l0.183-0.014l-0.078,0.17h0.182l-0.052,0.154h0.155l-0.053,0.17l0.183-0.014l-0.078,0.17h0.182l-0.052,0.168
		l0.156-0.014l-0.053,0.168l0.183-0.014l-0.078,0.17l0.182-0.014l-0.052,0.182l0.155-0.014l-0.052,0.17h0.154l-0.052,0.154h0.182
		l-0.052,0.168l0.156-0.012l-0.053,0.168l0.155-0.014l-0.052,0.17l238.553-11l32.166-60.127l91.578-3.41l6.083,44.447l0.104-0.014
		l0.025,0.168h0.104l0.026,0.156h0.076l0.026,0.168h0.104l0.024,0.168l0.078-0.012l0.024,0.168l0.104-0.014l0.026,0.17h0.076
		l0.026,0.154h0.104l0.025,0.168l0.077-0.014l0.025,0.17h0.104l0.025,0.154h0.104l0.025,0.17h0.078l0.025,0.156h0.104v0.154h0.104
		l0.026,0.154h0.104l0.025,0.17h0.078l0.025,0.168l0.104-0.014l0.026,0.17l0.077-0.014l0.025,0.168h0.104l0.026,0.168l0.076-0.012
		l0.026,0.168l0.104-0.014l0.024,0.17h0.078l0.026,0.168h0.104l0.026,0.156h0.077l0.025,0.154h0.104l0.024,0.168l0.078-0.012
		l0.025,0.168h0.104l0.026,0.156h0.104v0.168l0.104-0.014l0.025,0.17h0.104l0.026,0.154h0.077l0.025,0.168l0.104-0.012l0.024,0.168
		l0.078-0.014l0.025,0.182l0.104-0.012l0.026,0.168h0.104v0.156h0.104l0.026,0.168l0.104-0.014l0.025,0.168l0.078-0.012l0.026,0.168
		h0.104v0.168l0.104-0.012l0.026,0.168l0.104-0.014l0.024,0.17h0.078l0.024,0.154h0.104l0.026,0.168h0.076l0.026,0.168l0.104-0.012
		l0.025,0.168l0.077-0.014l0.025,0.17h0.104l0.025,0.154h0.104v0.17l0.104-0.014l0.024,0.168h0.078l0.025,0.156h0.104l0.026,0.168
		l0.104-0.014v0.17h0.104l0.025,0.168l0.104-0.014l0.026,0.17h0.077l0.025,0.154h0.104l0.026,0.168l0.076-0.012l0.026,0.168h0.104
		l0.024,0.156h0.078l0.026,0.168l0.104-0.014l0.026,0.17l0.104-0.014v0.168H1716l0.025,0.168h0.078l0.024,0.156h0.104l0.025,0.156
		h0.104v0.168l0.104-0.014l0.025,0.17h0.104l0.026,0.154h0.077l0.026,0.168l0.104-0.014l0.025,0.17h0.078l0.024,0.154h0.104
		l0.025,0.17l0.077-0.014l0.026,0.182l0.104-0.014l0.026,0.168l0.104-0.012v0.168h0.104l0.025,0.156h0.104l0.026,0.168h0.076
		l0.026,0.156h0.104v0.154h0.104l0.025,0.168h0.104l0.026,0.156h0.104v0.156l187.659-8.652l31.359-137.635l36.55,121.396
		l0.077-0.014l0.053,0.156h0.077l0.053,0.168h0.078l0.051,0.17h0.078l0.024,0.154h0.078l0.054,0.156h0.077l0.052,0.154h0.078
		l0.024,0.17h0.078l0.053,0.154h0.076l0.053,0.17l0.078-0.014l0.052,0.168h0.053l0.051,0.156h0.078l0.054,0.168l0.076-0.014
		l0.053,0.17l0.052-0.014l0.052,0.168h0.078l0.052,0.17h0.078l0.052,0.154h0.078l0.051,0.154H1976l0.026,0.17h0.077l0.053,0.154
		h0.077l0.052,0.17l0.053-0.014l0.077,0.168l0.052-0.012l0.053,0.168h0.078l0.052,0.154h0.078l0.051,0.17h0.053l0.052,0.154h0.078
		l0.053,0.156h0.076l0.053,0.168h0.053l0.077,0.156h0.052l0.053,0.154h0.077l0.052,0.17h0.078l0.051,0.154h0.054l0.052,0.17
		l0.077-0.014l0.053,0.168h0.077l0.053,0.156h0.077l0.052,0.154h0.053l0.052,0.17h0.078l0.052,0.154h0.078l0.025,0.156h0.078
		l0.078,0.168h0.051l0.053,0.17l0.078-0.014l0.051,0.168l0.078-0.014l0.025,0.17h0.078l0.053,0.168h0.076l0.053,0.156h0.078
		l0.052,0.154h0.052l0.053,0.156h0.076l0.053,0.168h0.078l0.051,0.156h0.078l0.025,0.168l0.078-0.014l0.053,0.17h0.077l0.052,0.154
		h0.078l0.053,0.17l0.076-0.016l0.026,0.17h0.078l0.052,0.154h0.078l0.051,0.17h0.078l0.053,0.154h0.051l0.054,0.156h0.077
		l0.052,0.168h0.078l0.052,0.156h0.077l0.026,0.168l0.078-0.014l0.052,0.17l0.077-0.014l0.052,0.168h0.053l0.052,0.156h0.104
		l0.026,0.168h0.076l0.053,0.156h0.078l0.052,0.154h0.052l0.052,0.17h0.078l0.052,0.168l0.078-0.014l0.051,0.17l0.078-0.014
		l0.053,0.168h0.052l0.053,0.17h0.077l0.052,0.154l0.078-0.014l0.052,0.17h0.053l0.052,0.154h0.078l0.052,0.17h0.078l0.052,0.154
		h0.077l0.053,0.17l0.051-0.016l0.054,0.17h0.077l0.052,0.154h0.078l0.024,0.17l0.104-0.014l0.052,0.168l104.873-4.836
		l103.681-372.025l-0.895-0.959L2191.514,1081.794z M1689.688,1301.853l-16.342,0.453l14.086-24.914L1689.688,1301.853
		L1689.688,1301.853z M882.189,1261.179l61.465-2.865l-44.644,124.859L882.189,1261.179z M455.434,1327.468
		c3.021,2.633,5.771,5.268,8.172,8.066c4.099,11.154,3.515,26.031-4.526,49.713c-10.532,31.063-27.418,44.268-39.144,49.908
		L455.434,1327.468z M505.483,1175.619c-0.813,8.563-3.539,16.832-7.978,24.201L505.483,1175.619z M778.887,1344.005h-13.41
		l9.83-20.531L778.887,1344.005z"/>
	<path d="M638.229,1192.427c10.077-73.305-47.639-114.691-134.703-123.705c-26.563-2.75-151.189,5.498-151.189,5.498
		L184.65,1527.787c0,0,251.977-2.75,306.048-19.248c54.058-16.484,97.13-45.809,119.127-118.193
		c21.982-72.383-42.151-108.113-42.151-108.113S628.151,1265.732,638.229,1192.427L638.229,1192.427z M458.637,1384.847
		c-17.418,51.309-52.229,54.059-52.229,54.059l40.983-124.523C464.11,1329.011,472.631,1343.615,458.637,1384.847z
		 M479.609,1216.525l23.008-69.906C511.281,1180.482,498.947,1205.501,479.609,1216.525z"/>
	<path d="M2071.181,1073.818l-44.733,156.184l-49.115-151.824l-129.296,5.965l-58.015,234.74l-21.229-231.057l-136.079,6.291
		l-127.648,209.188l66.095-206.348l-144.69,6.689l-76.274,102.541l-23.579-97.922l-413.309,19.117l-41.412,108.607l-14.591-106.016
		l-142.084,6.564l-205.26,376.59l171.798-7.924l26.146-59.869l93.461-3.67l11.646,57.48l194.533-8.975l84.291-253.74l52.229-1.842
		l-89.867,253.43l159.956-7.381l45.381-136.986l17.406,118.193l98.038-126.455l-44.032,139.865l238.241-11.012l32.127-60.141
		l98.944-3.656l7.873,57.391l187.4-8.65l33.813-148.621l43.669,145.041l104.743-4.838l103.551-372.012L2071.181,1073.818
		L2071.181,1073.818z M750.949,1343.628l20.154-42.152l7.328,42.152H750.949z M893.889,1395.845l-20.322-147.738l74.382-3.463
		L893.889,1395.845z M1656.252,1302.384l28.391-50.398l4.592,49.479L1656.252,1302.384z"/>
	<path fill="#FFFFFF" d="M623.857,1193.595c12.595-63.863-36.886-96.234-98.945-106.145c-62.062-9.896-67.455,0-162.796,0
		l-155.611,423.645c0,0,138.517-5.396,223.962-9.896c85.444-4.5,123.227-31.479,151.11-80.943
		c27.884-49.467,17.081-65.652,5.396-91.748c-11.686-26.082-49.467-47.678-49.467-47.678S611.265,1257.458,623.857,1193.595
		L623.857,1193.595z M475.445,1381.564c-18.885,78.246-89.945,75.563-89.945,75.563l53.591-162.926
		C460.491,1301.437,489.674,1322.603,475.445,1381.564L475.445,1381.564z M516.819,1189.99
		c-12.243,35.121-32.685,47.947-59.907,50.023l40.115-121.98C515.018,1127.929,530.308,1151.326,516.819,1189.99z"/>
	<path fill="#FFFFFF" d="M1080.771,1225.072l69.259-4.5l32.358-90.256l-259.188,11.826l-34.007,90.141l80.049-2.697l-81.853,217.672
		l-41.478-301.572l-124.017,5.666l-187.984,346.281l137.363-6.369l27.235-61.088l115.134-3.592l10.882,57.586l171.382-7.951
		L1080.771,1225.072L1080.771,1225.072z M726.385,1360.892l53.967-111.541l13.502,108.844L726.385,1360.892z M2080.559,1089.33
		l-53.553,186.998l-59.479-181.85l-109.504,5.008l-73.862,286.594l-28.379-281.924l-116.402,5.316l-184.442,301.807l94.796-297.721
		l-116.495,5.316l-90.71,122.396l-26.771-117.039l-118.389,5.408l-121.89,342.883l128.388-5.953l60.4-181.229l21.582,140.32
		l120.554-150.203l-56.535,184.326l209.293-9.701l32.528-60.4l121.408-5.395l8.08,58.285l163.316-7.563l42.709-183.846
		l55.355,179.281l84.043-3.893l94.434-340.896L2080.559,1089.33L2080.559,1089.33z M1629.432,1318.611l66.572-115.121l8.988,111.527
		L1629.432,1318.611L1629.432,1318.611z"/>
</g>
</svg>
