<?xml version="1.0" encoding="utf-8"?>
<!-- Generator: Adobe Illustrator 16.0.0, SVG Export Plug-In . SVG Version: 6.00 Build 0)  -->
<!DOCTYPE svg PUBLIC "-//W3C//DTD SVG 1.1//EN" "http://www.w3.org/Graphics/SVG/1.1/DTD/svg11.dtd">
<svg version="1.1" id="Layer_1" xmlns="http://www.w3.org/2000/svg" xmlns:xlink="http://www.w3.org/1999/xlink" x="0px" y="0px"
	 width="2279.41px" height="1114.026px" viewBox="110.256 670.847 2279.41 1114.026"
	 enable-background="new 110.256 670.847 2279.41 1114.026" xml:space="preserve">
<g>
	<path fill="#FFF22D" d="M2375.438,1592.545c-2.36-6.615-59.246-163.29-207.218-278.215
		c-143.835-111.722-340.69-185.416-529.958-251.303c-172.861-60.192-280.419-129.062-375.799-194.455l-28.157-19.299l11.828,32.035
		c0.143,0.389,8.755,24.318,8.755,55.627c0,19.144-3.217,41.05-13.566,62.034c-16.913,34.292-49.506,59.351-96.689,74.642
		l-13.139-4.565c1.505-2.957,3.048-6.343,4.604-10.506c4.902-13.086,16.614-36.095,22.904-48.455l3.126-6.16l5.435-8.885
		c3.255-4.799,6.614-9.753,8.287-16.419c1.113-5.087,1.446-10.313,0.986-15.499c1.971-2.063,4.436-4.423,6.718-5.94
		c6.991-4.656,9.676-11.607,10.116-17.341c2.296-5.642,7.704-22.035,9.533-54.2c2.736-9.234,21.076-72.397,22.438-111.255
		c0.947-19.325-2.905-26.16-7.587-26.588c-4.631-0.415-9.391,8.301-13.048,16.121c0,0-11.53,25.797-24.889,48.56
		c-10.233-13.658-28.572-32.516-55.926-40.401c-30.959-8.923-50.686-7.95-64.031-5.616c-0.364-9.425-0.555-18.855-0.571-28.287
		c0-14.539,1.726-40.219,1.726-40.219c1.426-18.689,1.646-26.212-1.323-26.951c-3.463-0.869-5.707,1.894-9.857,7.95
		c-1.427,2.088-7.704,11.012-7.704,11.012c-0.804,1.128-19.973,28.027-37.897,72.163c-14.729,36.297-29.861,72.429-45.394,108.389
		c-16.057,37.172-34.578,66.314-51.775,81.865c-16.342-14.436-59.35-58.208-71.309-127.946l-4.475-26.121l-15.148,21.775
		c-0.428,0.623-44.875,63.033-203.171,163.873c-157.401,100.27-450.375,286.917-496.236,547.247l-6.771,38.416l25.654-29.402
		c4.799-5.499,119.556-133.926,302.649-78.195c89.815,27.328,164.392,132.409,177.699,213.405l3.735,22.762l15.161-17.393
		c1.024-1.167,103.914-117.013,257.022-114.51c144.262,2.36,251.574,69.79,318.991,200.383l9.39,18.196l9.806-17.988
		c0.816-1.518,83.849-150.67,253.571-177.076c188.892-29.39,309.498,98.726,322.623,113.42l11.906,13.333l6.355-16.718
		c0.558-1.439,56.846-144.925,223.547-183.769c109.582-25.551,216.361,4.694,308.771,87.468l32.527,29.117L2375.438,1592.545
		L2375.438,1592.545z"/>
	<path d="M825.396,826.277c0,0-43.345,63.072-206.258,166.856c-162.927,103.797-446.718,286.411-491.386,539.983
		c0,0,121.604-140.021,314.012-81.463c90.646,27.6,170.785,134.017,185.246,222.042c0,0,105.107-120.865,265.388-118.245
		c160.28,2.633,265.4,84.083,328.46,206.271c0,0,84.069-155.028,261.444-182.615c177.374-27.6,299.55,80.141,332.401,116.923
		c0,0,56.51-149.774,231.252-190.5c174.741-40.738,294.271,68.312,319.25,90.646c0,0-56.483-158.971-203.639-273.272
		c-147.154-114.303-349.496-187.867-526.844-249.63c-177.375-61.748-286.425-132.693-378.381-195.752
		c0,0,57.819,155.027-111.682,207.581l-30.22-10.519c0,0,5.408-3.58,11.517-19.87c6.109-16.303,21.725-46.159,26.484-55.666
		s10.855-14.928,12.905-23.073c2.036-8.145,0-16.29,0-16.29s6.108-7.471,12.218-11.543c6.108-4.072,5.421-10.855,5.421-10.855
		s7.471-14.929,9.507-53.63c0,0,23.073-76.703,22.398-115.393c0,0-16.964,38.689-34.616,64.486c0,0-19.001-38.689-59.051-50.232
		c-40.051-11.543-59.739-5.421-71.27-2.711c0,0-3.397-57.015,1.349-83.499c0,0-19,26.484-36.652,69.92
		c-14.76,36.37-29.922,72.575-45.484,108.609c-12.893,29.869-35.291,72.644-61.775,91.644
		C907.378,966.468,841.167,918.246,825.396,826.277L825.396,826.277z"/>
	<path fill="#FFFFFF" d="M1079.123,951.54c0,0-8.145-11.881-43.098-47.858c0,0,0,13.916,6.445,24.435
		C1042.458,928.116,1068.255,949.49,1079.123,951.54z M1123.921,966.805c0,0,33.255-15.603,37.677-15.265
		c0,0-5.771,11.88-9.507,14.253C1152.091,965.793,1134.776,969.516,1123.921,966.805z"/>
	<path fill="#2566AF" d="M1093.364,1011.278c0,0,6.459-26.146,13.242-41.749c0,0-8.833-1.699-12.555-5.422
		c0,0-9.507,13.566-31.219,22.398C1062.833,986.493,1081.834,999.048,1093.364,1011.278L1093.364,1011.278z M1127.993,955.612
		c0,0,16.29-3.735,26.809-12.555c10.531-8.819,15.953-12.218,18.326-10.182c2.374,2.036,2.711,5.771,1.362,6.783
		c0,0,4.747-3.735,3.735-7.12s-5.098-5.771-6.783-8.146c-1.687-2.386-3.062-5.097-8.146,0.338
		C1158.2,930.152,1140.211,953.563,1127.993,955.612L1127.993,955.612z M989.516,1011.94c0,0-9.845-22.062-9.845-28.845
		s1.687-20.363-1.024-22.736c0,0-1.349,8.482-3.048,15.953s-3.398,12.555-3.735,16.977c-0.337,4.423-0.675,14.929,2.036,20.363
		c0,0-28.857-14.592-50.906-32.58c0,0,26.472-23.424,41.75-57.703c15.265-34.278,23.423-48.546,32.93-77.391
		c9.494-28.845,32.917-84.174,39.363-98.09c0,0-2.71,69.583,11.206,123.887c0,0,5.422,0.675,12.892,0.338
		c7.471-0.338,10.182-1.699,10.856,7.471c0.688,9.169,2.386,41.399,10.855,59.726c0,0-6.783-5.084-12.218-21.725
		c-5.435-16.627-13.579-37.677-13.579-37.677s-11.543,0.688-19.351,4.072c-7.808,3.398-17.989,6.783-25.11,4.747
		c0,0,4.747,46.833,1.012,58.377c0,0-13.242-10.856-16.289-12.555c0,0,1.012,26.134,0,34.616
		C996.299,977.661,988.841,1009.229,989.516,1011.94L989.516,1011.94z"/>
	<path fill="#2566AF" d="M1060.447,803.218l8.91,31.348c0.096-0.026,0.191-0.057,0.285-0.091l0.985-32.956l8.146,28.845l2.036-28.17
		l7.457,26.808l1.362-25.797l7.471,24.772l1.024-24.085l7.12,24.085l1.025-22.398l6.783,23.073l1.361-20.7l6.446,21.725
		l1.012-19.001l6.108,20.363l1.362-16.978l6.108,21.05v-17.302l6.446,19.688l0.337-14.928l4.76,17.989l0.338-13.242l5.434,17.302
		l-0.337-12.905l5.097,18.664l-0.337-11.881l4.409,15.953l0.675-9.507l2.374,11.88l1.361-5.421l1.193,10.855
		c9.922,13.709,13.684,26.445,13.684,26.445c-0.649-25.136-6.343-57.274-45.252-80.879c-38.909-23.605-85.25-10.272-85.25-10.272
		c0.727,8.197,6.575,35.745,7.561,40.258L1060.447,803.218L1060.447,803.218z M1282.087,914.887c0,0,65.147,103.175,309.523,211.784
		c0,0,104.55,82.812,247.087,119.464c142.564,36.652,405.941,137.116,496.885,305.464c0,0-36.652-88.246-215.855-184.624
		c-179.19-96.404-286.45-99.115-377.42-134.406c-90.971-35.29-90.971-61.087-160.203-96.391S1324.161,997.699,1282.087,914.887
		L1282.087,914.887z"/>
	<path fill="#2566AF" d="M1168.044,1094.077c0,0,108.596,31.231,241.666,65.16c133.044,33.942,317.655,70.595,426.276,93.681
		c0,0-156.116-46.159-289.186-77.377c-133.045-31.231-293.234-63.812-358.395-90.957
		C1188.406,1084.584,1174.827,1091.367,1168.044,1094.077L1168.044,1094.077z M1812.9,1652.063c0,0-10.868-80.102-89.595-154.768
		c-78.753-74.667-253.87-160.203-449.376-249.812c-195.494-89.595-373.335-169.683-437.146-327.175c0,0,4.072,67.884,99.102,153.406
		c95.043,85.536,190.06,126.261,437.159,245.726C1620.131,1438.918,1742.307,1467.438,1812.9,1652.063L1812.9,1652.063z"/>
	<path fill="#2566AF" d="M819.132,870.076c0,0-21.725,108.622-77.378,238.942c-55.666,130.32-133.044,281.016-112.682,521.319
		c0,0-5.408-97.117,27.159-244.363c31.218-141.201,81.45-211.796,112.681-312.26c31.231-100.464,46.16-175.585,46.16-175.585
		s-9.961,76.029,21.725,155.677c31.672,79.646,146.623,230.33,236.218,325.359s146.623,225.362,150.695,333.984
		c0,0,2.724-84.174-27.146-161.564s-85.522-161.552-134.405-217.218C1013.263,1278.728,790.624,1091.366,819.132,870.076
		L819.132,870.076z"/>
	<path fill="#2566AF" d="M2191.514,1081.795l0.053-0.168l-0.156,0.013l0.026-0.169h-0.155l0.025-0.155h-0.155l0.052-0.169h-0.182
		l0.052-0.155h-0.182l0.052-0.169l-0.182,0.013l0.052-0.168h-0.182l0.052-0.169l-0.182,0.013l0.052-0.168l-0.155,0.013l0.025-0.169
		h-0.155l0.052-0.155h-0.182l0.052-0.169h-0.182l0.052-0.155h-0.182l0.052-0.169l-0.182,0.013l0.052-0.168l-0.182,0.013l0.053-0.169
		l-0.156,0.014l0.026-0.169h-0.155l0.051-0.169h-0.182l0.053-0.155h-0.182l0.052-0.169l-0.183,0.014l0.053-0.169l-0.182,0.013
		l0.052-0.168h-0.182l0.077-0.169l-0.182,0.013l0.053-0.169h-0.182l0.051-0.168h-0.182l0.053-0.169l-0.182,0.013l0.051-0.168h-0.182
		l0.053-0.169h-0.182l0.052-0.169l-0.155,0.014l0.025-0.169h-0.182l0.078-0.169h-0.182l0.052-0.168l-0.182,0.013l0.052-0.169h-0.182
		l0.052-0.168l-0.182,0.013l0.052-0.169l-0.182,0.013l0.052-0.168h-0.155l0.025-0.169l-0.155,0.013l0.052-0.168h-0.182l0.052-0.169
		l-0.182,0.013l0.052-0.168l-0.182,0.013l0.052-0.169h-0.182l0.052-0.168h-0.182l0.052-0.169l-0.155,0.013l0.025-0.168h-0.155
		l0.052-0.169h-0.182l0.053-0.169l-0.182,0.014l0.051-0.169h-0.182l0.053-0.169l-0.182,0.014l0.051-0.169h-0.182l0.053-0.169h-0.156
		l0.026-0.155h-0.155l0.025-0.169h-0.155l0.052-0.155h-0.182l0.052-0.169l-0.182,0.014l0.052-0.169h-0.182l0.052-0.169h-0.182
		l0.052-0.155h-0.182l0.078-0.169h-0.182l0.025-0.169h-0.155l0.052-0.168l-0.182,0.013l0.052-0.169h-0.182l0.052-0.168h-0.182
		l0.052-0.169l-0.155,0.013l0.025-0.168h-0.155l0.052-0.169h-0.182l0.053-0.169l-0.182,0.014l0.051-0.169h-0.182l0.053-0.155h-0.182
		l0.052-0.169h-0.183l0.053-0.169l-0.156,0.013l0.026-0.168h-0.155l0.052-0.169l-0.182,0.013l0.052-0.168h-0.182l0.052-0.169
		l-0.182,0.013l0.052-0.168h-0.182l0.052-0.169h-0.182l0.052-0.169l-0.155,0.014l0.025-0.169h-0.155l0.025-0.169h-0.155l0.052-0.168
		l-0.182,0.013l0.053-0.169l-110.088,5.098l-42.1,146.935l-42.1-129.919h-0.078l-0.053-0.155h-0.051l-0.053-0.155h-0.077
		l-0.052-0.169h-0.078l-0.052-0.155h-0.052l-0.052-0.169h-0.078l-0.052-0.155h-0.078l-0.052-0.169h-0.077l-0.053-0.155h-0.051
		l-0.053-0.156h-0.077l-0.052-0.155h-0.078l-0.052-0.169h-0.052l-0.078-0.155h-0.052l-0.052-0.155h-0.078l-0.052-0.156h-0.077
		l-0.053-0.155h-0.051l-0.053-0.156h-0.078l-0.051-0.168h-0.078l-0.052-0.156h-0.078l-0.052-0.155h-0.052l-0.052-0.156h-0.078
		l-0.052-0.155h-0.077l-0.053-0.155h-0.051l-0.053-0.169h-0.078l-0.051-0.155h-0.078l-0.052-0.156h0.225l-0.052-0.155h-0.052
		l-0.052-0.169h-0.078l-0.052-0.155h-0.078l-0.052-0.169h-0.052l-0.077-0.155h-0.053l-0.052-0.169h-0.077l-0.053-0.155h-0.077
		l-0.052-0.156h-0.052l-0.052-0.168h-0.078l-0.052-0.156h-0.078l-0.052-0.155h-0.052l-0.077-0.169h-0.053l-0.052-0.155h-0.077
		l-0.053-0.156h-0.077l-0.052-0.168h-0.053l-0.051-0.156h-0.078l-0.052-0.155h-0.078l-0.052-0.169h-0.078l-0.051-0.155h-0.053
		l-0.052-0.169h-0.077l-0.053-0.155h-0.077l-0.052-0.155h-0.053l-0.051-0.156h-0.078l-0.052-0.155h-0.078l-0.052-0.156h-0.078
		l-0.052-0.168h-0.052l-0.052-0.156h-0.077l-0.053-0.155h-0.052l-0.077-0.155h-0.078l-0.052-0.156h-0.052l-0.053-0.155h-0.077
		l-0.052-0.169h-0.052l-0.052-0.155h-0.078l-0.052-0.169h-0.077l-0.053-0.155h-0.078l-0.051-0.169h-0.078l-0.052-0.155h-0.052
		l-0.053-0.169h-0.077l-0.052-0.155h-0.052l-0.052-0.169h-0.104l-0.053-0.155h-0.052l-0.052-0.169h-0.078l-0.051-0.169h-0.053
		l-0.052-0.155h-0.077l-0.053-0.155h-0.077l-0.052-0.169h-0.078l-0.052-0.155h-0.077l-0.053-0.156h-0.052l-0.052-0.169h-0.078
		l-0.051-0.155h-0.053l-0.052-0.155h-0.077l-0.053-0.169h-0.077l-0.052-0.155h-0.078l-0.052-0.156h-0.052l-0.052-0.155h-0.078
		l-0.052-0.169l-129.27,5.979l-51.982,210.382l-17.886-194.04h-0.104l-0.026-0.169h-0.104l-0.025-0.155h-0.078l-0.025-0.169h-0.104
		l-0.025-0.169h-0.104v-0.168h-0.104l-0.025-0.156h-0.104v-0.168h-0.104l-0.026-0.156h-0.104v-0.168h-0.13v-0.156h-0.104
		l-0.026-0.168h-0.077l-0.026-0.156h-0.104l-0.026-0.168h-0.104v-0.156h-0.104l-0.025-0.168h-0.104l-0.026-0.156h-0.077
		l-0.026-0.168h-0.104l-0.025-0.169l-0.104,0.013v0.688h-0.104l-0.026-0.155h-0.104v-0.169h-0.104l-0.025-0.155h-0.104v-0.167h-0.13
		v-0.13l-0.104,0.013l-0.026-0.168h-0.104v-0.156h-0.104l-0.026-0.168h-0.104l-0.026-0.156h-0.077l-0.026-0.155h-0.104l-0.025-0.169
		h-0.078l-0.025-0.168h-0.104l-0.026-0.156h-0.104v-0.168h-0.104l-0.025-0.156h-0.104l-0.026-0.169l-0.104,0.014v-0.169h-0.104
		l-0.025-0.169h-0.104v-0.168l-0.104,0.013l-0.026-0.169h-0.104v-0.155h-0.13v-0.169h-0.104l-0.025-0.155h-0.104v-0.078
		l-0.104,0.014l-0.026-0.169h-0.104v-0.169h-0.104l-0.025-0.155h-0.104l-0.026-0.169h-0.078l-0.025-0.155h-0.104l-0.025-0.169
		l-0.104,0.013v-0.168h-0.104l-0.026-0.169h-0.104l-0.026-0.155h-0.078l-0.025-0.169h-0.104v-0.155h-0.13v-0.169h-0.104
		l-0.026-0.155h-0.104v-0.169h-0.104l-0.025-0.169l-0.104,0.013v-0.168h-0.104l-0.026-0.156h-0.104l-0.025-0.168h-0.078
		l-0.025-0.156h-0.104l-0.026-0.168h-0.104v-0.169h-0.104l-0.025-0.155h-0.104l-0.026-0.156h-0.077l-0.026-0.168h-0.104
		l-0.026-0.156h-0.104v-0.168l-0.104,0.013l-0.025-0.169h-0.104v-0.168h-0.104l-0.026-0.156h-0.104v-0.168h-0.129v-0.156h-0.104
		l-0.026-0.168h-0.104v-0.156h-0.104l-0.025-0.168h-0.104l-0.026-0.169l-0.077,0.013l-0.026-0.169h-0.104l-0.026-0.155h-0.078
		l-0.025-0.169l-136.078,6.291l-100.01,163.898l47.599-148.374l-0.155,0.013l0.051-0.168h-0.182l0.078-0.156h-0.182l0.053-0.168
		h-0.156l0.052-0.156h-0.182l0.052-0.168h-0.155l0.052-0.169h-0.182l0.052-0.169h-0.155l0.052-0.168l-0.182,0.013l0.077-0.169
		h-0.182l0.053-0.168h-0.182l0.052-0.169l-0.155,0.013l0.051-0.169h-0.155l0.052-0.168l-0.182,0.013l0.053-0.169l-0.156,0.014
		l0.052-0.169l-0.182,0.013l0.052-0.168h-0.155l0.052-0.169l-0.182,0.013l0.052-0.168h-0.155l0.052-0.169l-0.155,0.013l0.051-0.168
		h-0.182l0.053-0.169h-0.182l0.052-0.169l-0.155,0.014l0.051-0.169h-0.155l0.052-0.169h-0.182l0.053-0.168l-0.156,0.013l0.052-0.169
		h-0.182l0.052-0.168h-0.155l0.052-0.169h-0.182l0.052-0.155h-0.155l0.052-0.169h-0.155l0.051-0.169l-0.182,0.014l0.053-0.169
		h-0.182l0.052-0.169l-0.155,0.013l0.051-0.168h-0.181l0.077-0.169h-0.182l0.053-0.155h-0.156l0.052-0.169h-0.182l0.052-0.155
		h-0.155l0.052-0.169l-0.182,0.013l0.052-0.168h-0.155l0.052-0.169h-0.155l0.051-0.156h-0.181l0.052-0.168h-0.156l0.053-0.156
		h-0.182l0.051-0.168l-0.155,0.013l0.052-0.169h-0.182l0.053-0.168h-0.156l0.052-0.169l-0.181,0.013l0.051-0.168l-0.155,0.013
		l0.052-0.169h-0.182l0.078-0.168l-0.182,0.013l0.052-0.169h-0.182l0.078-0.168l-0.182,0.013l0.052-0.169h-0.156l0.053-0.168
		l-0.182,0.013l0.052-0.169h-0.182l0.077-0.168h-0.182l0.053-0.156h-0.156l0.053-0.168l-0.156,0.013l0.052-0.169h-0.182l0.052-0.168
		h-0.182l0.053-0.169h-0.156l0.052-0.155h-0.155l0.052-0.169h-0.182l0.052-0.169l-0.156,0.013l0.053-0.168h-0.182l0.052-0.156
		h-0.155l0.051-0.168h-0.182l0.053-0.156h-0.156l0.053-0.168h-0.156l0.052-0.169l-0.182,0.013l0.052-0.168h-0.182l0.053-0.169
		l-0.156,0.013l0.052-0.169h-0.155l0.052-0.168h-0.182l0.052-0.156h-0.156l0.053-0.168h-0.182l0.052-0.156h-0.155l0.051-0.168
		l-0.182,0.013l0.053-0.169h-0.156l0.053-0.168l-144.691,6.692l-71.917,96.677l-19.156-79.389h-0.078l-0.052-0.155h-0.078
		l-0.025-0.169h-0.078l-0.025-0.155h-0.078l-0.052-0.155h-0.052l-0.052-0.156h-0.078l-0.026-0.155h-0.077l-0.052-0.156h-0.052
		l-0.052-0.155h-0.078l-0.025-0.155h-0.078l-0.026-0.156h-0.077l-0.053-0.168h-0.052l-0.052-0.156h-0.052l-0.052-0.155h-0.078
		l-0.025-0.169h-0.078l-0.052-0.155h-0.052l-0.052-0.156h-0.078l-0.025-0.155h-0.078l-0.052-0.169h-0.052l-0.052-0.155h-0.078
		l-0.025-0.169h-0.078l-0.025-0.155h-0.078l-0.052-0.169h-0.078l-0.025-0.155h-0.078l-0.026-0.169h-0.077l-0.052-0.155h-0.078
		l-0.025-0.169h-0.078l-0.026-0.155h-0.077l-0.053-0.169h-0.051l-0.053-0.155h-0.077l-0.026-0.156h-0.078l-0.025-0.168h-0.078
		l-0.052-0.156h-0.052l-0.052-0.155h-0.078l-0.025-0.169h-0.078l-0.052-0.155h-0.052l-0.052-0.169h-0.052l-0.052-0.155h-0.078
		l-0.025-0.156h-0.078l-0.026-0.155h-0.077l-0.052-0.169h-0.078l-0.026-0.155h-0.077l-0.026-0.169h-0.077l-0.052-0.155h-0.078
		l-0.026-0.155h-0.077l-0.026-0.169h-0.077l-0.053-0.155h-0.077l-0.026-0.156h-0.078l-0.025-0.168h-0.078l-0.052-0.156h-0.052
		l-0.052-0.155h-0.077l-0.026-0.169h-0.078l-0.025-0.155h-0.078l-0.052-0.156h-0.052l-0.052-0.168h-0.078l-0.025-0.156h-0.078
		l-0.026-0.155h-0.077l-0.052-0.156h-0.052l-0.053-0.155h-0.077l-0.026-0.155h-0.077l-0.052-0.156h-0.053l-0.052-0.155h-0.077
		l-0.026-0.169h-0.077l-0.053-0.155h-0.052l-0.052-0.169h-0.077l-0.026-0.155h-0.078l-0.025-0.169h-0.078l-0.052-0.155h-0.077
		l-0.026-0.169h-0.078l-0.025-0.155h-0.078l-0.052-0.156h-0.052l-0.052-0.155h-0.078l-0.025-0.156h-0.078l-0.026-0.155h-0.077
		l-0.052-0.169h-0.052l-0.053-0.155h-0.077l-0.026-0.155h-0.077l-0.026-0.156h-0.078l-0.052-0.155h-0.052l-0.052-0.155h-0.077
		l-0.026-0.156h-0.078l-0.052-0.155l-413.294,19.117l-36.691,96.21l-11.154-80.944h-0.078l-0.013-0.155h-0.078l-0.013-0.169h-0.091
		l-0.013-0.156h-0.078l-0.013-0.155h-0.078l-0.013-0.155h-0.078l-0.013-0.156h-0.078l-0.025-0.155h-0.078l-0.013-0.156h-0.078
		l-0.013-0.155h-0.078l-0.025-0.155h0.688l-0.026-0.156h-0.077l-0.026-0.155h-0.078l-0.025-0.169h-0.078l-0.025-0.155h-0.078
		l-0.026-0.155h-0.077l-0.026-0.169h-0.077l-0.014-0.155h-0.077l-0.026-0.156h-0.077l-0.014,0.817h-0.078l-0.013-0.156h-0.077
		l-0.014-0.155h-0.077l-0.026-0.169h-0.078l-0.013-0.155h-0.091l-0.025-0.155h-0.078l-0.013-0.156h-0.078l-0.013-0.155h-0.078
		l-0.013-0.169h-0.078l-0.013-0.155h-0.13l-0.013-0.156h-0.078l-0.025-0.168h-0.078l-0.025-0.156h-0.078l-0.013-0.155h-0.078
		l-0.026-0.169h-0.077l-0.026-0.104h-0.077l-0.026-0.155h-0.078l-0.025-0.169h-0.078l-0.025-0.155h-0.078l-0.013-0.156h-0.078
		l-0.013-0.155h-0.078l-0.013-0.156h-0.078l-0.013-0.155h-0.078l-0.013-0.155h-0.077l-0.014-0.156h-0.078l-0.025-0.155h-0.078
		l-0.013-0.155h-0.077l-0.014-0.156h-0.078l-0.013-0.155h-0.077l-0.026-0.156h-0.077l-0.014-0.155h-0.078l-0.025-0.169h-0.078
		l-0.013-0.155h-0.077l-0.014-0.156h-0.078l-0.025-0.155h-0.078l-0.013-0.155h-0.078l-0.025-0.156h-0.078l-0.013-0.168h-0.078
		l-0.025-0.156h-0.078l-0.013-0.155h-0.078l-0.025-0.155h-0.078l-0.013-0.169h-0.078l-0.013-0.155h-0.078l-0.013-0.169h-0.078
		l-0.025-0.155h-0.078l-0.013-0.169h-0.078l-0.013-0.156h-0.078l-0.013-0.155h-0.078l-0.013-0.155h-0.078l-0.013-0.156h-0.077
		l-0.014-0.155h-0.078l-0.025-0.169h-0.078l-0.013-0.155h-0.077l-0.026-0.156h-0.078l-0.013-0.155h-0.078l-0.025-0.155h-0.093
		l-0.026-0.156h-0.078l-0.025-0.168h-0.078l-0.025-0.156h-0.285l-0.014-0.168h-0.077l-0.026-0.156h-0.078l-0.013-0.155h-0.077
		l-0.014-0.156l-142.097,6.563l-105.224,193.08l-0.402-0.713l-0.129-0.207l-0.065-0.104l-0.13-0.221l-0.064-0.104l-0.117-0.194
		l-0.104-0.156c-0.029-0.059-0.064-0.115-0.104-0.168l-0.064-0.117l-0.117-0.194l-0.091-0.143c-0.042-0.059-0.081-0.119-0.116-0.182
		l-0.078-0.13l-0.117-0.194l-0.09-0.143l-0.104-0.169c-0.034-0.044-0.065-0.092-0.091-0.143l-0.116-0.194
		c-0.026-0.036-0.049-0.075-0.065-0.117l-0.116-0.194l-0.091-0.155l-0.091-0.143l-0.104-0.169l-0.104-0.169l-0.09-0.143
		l-0.104-0.169l-0.104-0.168l-0.078-0.143l-0.116-0.194l-0.052-0.104c-0.051-0.068-0.095-0.143-0.13-0.221l-0.078-0.116
		l-0.116-0.194l-0.078-0.13l-0.117-0.194l-0.064-0.104l-0.13-0.22l-0.078-0.117l-0.104-0.182l-0.091-0.143l-0.104-0.182
		l-0.091-0.143c-0.038-0.052-0.068-0.108-0.091-0.169l-0.104-0.168l-0.078-0.143l-0.116-0.195c-0.029-0.041-0.055-0.085-0.078-0.13
		l-0.104-0.168l-0.091-0.143l-0.104-0.182l-0.09-0.156c-0.03-0.059-0.064-0.115-0.104-0.168l-0.077-0.143
		c-0.026-0.065-0.078-0.117-0.117-0.182l-0.091-0.143l-0.104-0.169l-0.091-0.155l-0.091-0.143l-0.116-0.195l-0.078-0.13
		l-0.117-0.181l-0.091-0.156l-0.091-0.143l-0.116-0.182l-0.091-0.155l-0.104-0.169l-0.078-0.13l-0.104-0.194l-0.091-0.13
		l-0.104-0.182l-0.09-0.155c-0.042-0.059-0.081-0.119-0.117-0.182l-0.091-0.143l-0.078-0.143l-0.104-0.182l-0.078-0.143
		l-0.116-0.182l-0.091-0.143l-0.104-0.169l-0.091-0.155l-0.104-0.169c-5.467-8.88-12.239-16.886-20.091-23.748
		c15.759-6.523,56.237-28.767,64.33-87.52c3.476-25.239-1.089-46.679-12.14-64.33l-0.104-0.169l-0.078-0.116
		c-0.042-0.059-0.081-0.119-0.117-0.182l-0.09-0.144l-0.104-0.168l-0.104-0.169l-0.104-0.168c-0.029-0.042-0.055-0.085-0.078-0.13
		c-0.039-0.054-0.073-0.109-0.104-0.169l-0.104-0.169l-0.091-0.155c-0.03-0.059-0.064-0.115-0.104-0.169
		c-0.018-0.044-0.044-0.084-0.078-0.116l-0.117-0.194l-0.064-0.13l-0.13-0.194c-0.026-0.036-0.048-0.076-0.064-0.117
		c-0.042-0.051-0.077-0.108-0.104-0.169l-0.09-0.143c-0.03-0.059-0.065-0.115-0.104-0.169l-0.091-0.168l-0.091-0.156
		c-0.035-0.049-0.065-0.101-0.091-0.155l-0.091-0.143l-0.116-0.194l-0.078-0.117l-0.116-0.194c-0.029-0.041-0.056-0.085-0.078-0.13
		l-0.117-0.194l-0.077-0.13l-0.104-0.168l-0.092-0.144l-0.104-0.155c-0.029-0.059-0.064-0.115-0.104-0.169l-0.104-0.155
		l-0.104-0.169c-0.029-0.041-0.055-0.085-0.078-0.13l-0.117-0.182l-0.077-0.129c-0.042-0.059-0.081-0.119-0.117-0.182
		c-0.025-0.051-0.056-0.099-0.091-0.143l-0.116-0.169l-0.078-0.143l-0.104-0.169c-0.042-0.051-0.077-0.107-0.104-0.168l-0.077-0.144
		l-0.104-0.168l-0.104-0.156l-0.091-0.155l-0.091-0.143l-0.091-0.156l-0.104-0.168l-0.104-0.169l-0.091-0.143l-0.091-0.169
		l-0.091-0.143c-0.029-0.059-0.064-0.115-0.104-0.168l-0.091-0.143c-0.03-0.06-0.064-0.116-0.104-0.169l-0.104-0.155l-0.091-0.13
		l-0.104-0.182l-0.091-0.143l-0.078-0.144c-0.041-0.059-0.08-0.119-0.116-0.182l-0.091-0.143c-0.039-0.038-0.052-0.104-0.091-0.155
		l-0.104-0.169l-0.091-0.155l-0.091-0.143c-0.03-0.06-0.064-0.115-0.104-0.169l-0.09-0.155l-0.091-0.143l-0.091-0.156l-0.117-0.168
		l-0.078-0.13c-0.029-0.059-0.064-0.115-0.104-0.169l-0.091-0.155l-0.091-0.143c-0.029-0.06-0.064-0.115-0.104-0.169
		c-20.972-33.722-65.484-53.604-122.668-59.519c-26.575-2.749-151.188,5.5-151.188,5.5l-167.673,453.565h0.143l-0.052,0.169
		l0.143-0.014l-0.052,0.156h0.143l-0.052,0.168h0.143l-0.052,0.169l0.143-0.013l-0.052,0.168l0.143-0.013l-0.052,0.169h0.156
		l-0.052,0.168h0.143l-0.052,0.156h0.156l-0.065,0.155h0.143l-0.052,0.155h0.143l-0.052,0.169h0.143l-0.052,0.155h0.156
		l-0.065,0.169l0.156-0.013l-0.065,0.169h0.156l-0.052,0.155h0.143l-0.052,0.169l0.143-0.014l-0.052,0.169h0.143l-0.065,0.155h0.156
		l-0.052,0.169h0.143l-0.052,0.156h0.143l-0.052,0.155h0.156l-0.052,0.169h0.143l-0.052,0.155h0.143l-0.052,0.169l0.143-0.014
		l-0.052,0.169h0.143l-0.052,0.155h0.156l-0.065,0.156h0.143l-0.052,0.168h0.156l-0.065,0.156h0.156l-0.065,0.155h0.156
		l-0.065,0.169h0.156l-0.065,0.168l0.156-0.013l-0.065,0.169l0.156-0.014l-0.052,0.169h0.143l-0.052,0.169h0.143l-0.052,0.155
		l0.156-0.013l-0.052,0.169h0.143l-0.052,0.155h0.143l-0.052,0.169h0.155l-0.052,0.155h0.143l-0.052,0.169l0.143-0.013l-0.052,0.168
		h0.143l-0.052,0.156h0.156l-0.065,0.168l0.143-0.013l-0.052,0.169h0.143l-0.052,0.155h0.155l-0.064,0.169h0.155l-0.064,0.155h0.155
		l-0.052,0.155h0.143l-0.052,0.156h0.143l-0.052,0.168h0.143l-0.052,0.169l0.143-0.013l-0.052,0.168l0.143-0.013l-0.052,0.169h0.143
		l-0.052,0.155h0.143l-0.052,0.169l0.155-0.013l-0.052,0.168h0.143l-0.052,0.156h0.143l-0.052,0.168h0.143l-0.052,0.156h0.143
		l-0.052,0.155h0.156l-0.065,0.169h0.155l-0.064,0.155h0.155l-0.052,0.169h0.143l-0.052,0.155h0.143l-0.052,0.156h0.143
		l-0.052,0.155h0.143l-0.052,0.169h0.156l-0.052,0.155h0.143l-0.052,0.169h0.143l-0.052,0.155h0.156l-0.052,0.155h0.143
		l-0.052,0.156h0.143l-0.052,0.168h0.143l-0.052,0.169h0.143l-0.052,0.155h0.156l-0.065,0.156h0.156l-0.065,0.155h0.156
		l-0.052,0.169h0.143l-0.065,0.155l0.156-0.013l-0.065,0.182c0,0,252.327-2.763,306.463-19.247
		c4.708-1.427,9.299-2.996,13.825-4.656h0.026l-0.091,0.182l0.194-0.013l-0.091,0.168h0.182l-0.091,0.156h0.194l-0.091,0.168
		l0.182-0.013l-0.091,0.169l0.182-0.014l-0.091,0.182l0.182-0.013l-0.091,0.169l0.194-0.013l-0.09,0.168l0.182-0.013l-0.092,0.182
		l0.182-0.013l-0.09,0.168l0.182-0.013l-0.092,0.169l0.182-0.014l-0.09,0.182l0.181-0.013l-0.091,0.169l0.195-0.014l-0.091,0.169
		h0.181l-0.09,0.156h0.182l-0.092,0.168l0.182-0.013l-0.09,0.182l0.182-0.013l-0.092,0.168l0.182-0.013l-0.09,0.169l0.182-0.014
		l-0.092,0.169h0.182l-0.09,0.169l0.194-0.014l-0.091,0.169l0.182-0.013l-0.091,0.168h0.181l-0.09,0.169l0.182-0.013l-0.092,0.168
		l0.182-0.013l-0.09,0.169h0.182l-0.092,0.168l0.182-0.013l-0.09,0.169l0.194-0.013l-0.091,0.181l0.182-0.013l-0.091,0.169h0.182
		l-0.091,0.155h0.194l-0.091,0.156h0.182l-0.091,0.168l0.194-0.013l-0.091,0.169h0.182l-0.091,0.155h0.182l-0.091,0.169l0.194-0.013
		l-0.091,0.182l0.182-0.014l-0.091,0.169l0.195-0.013l-0.092,0.168l0.195-0.013l-0.091,0.182l0.194-0.013l-0.091,0.168l0.182-0.013
		l-0.091,0.169h0.194l-0.091,0.155h0.182l-0.091,0.169l0.182-0.014l-0.091,0.169l0.182-0.013l-0.091,0.182l0.182-0.014l-0.091,0.169
		l0.182-0.013l-0.091,0.168l0.194-0.013l-0.091,0.182l0.182-0.013l-0.091,0.168l0.182-0.013l-0.091,0.169l0.182-0.013l-0.091,0.182
		l0.194-0.014l-0.091,0.169l0.182-0.013l-0.091,0.182l0.194-0.014l-0.09,0.156h0.182l-0.092,0.168l0.182-0.013l-0.09,0.182
		l0.182-0.013l-0.092,0.169l0.195-0.014l-0.091,0.169l172.018-7.925l26.187-59.881l88.116-3.45l9.04,44.59h0.064l0.039,0.155h0.064
		l0.026,0.169l0.065-0.013l0.025,0.169h0.064l0.026,0.155h0.078l0.025,0.155h0.065l0.025,0.169h0.064l0.026,0.155h0.065l0.025,0.156
		h0.064l0.039,0.169h0.065l0.025,0.168l0.065-0.013l0.039,0.169l0.064-0.014l0.025,0.169h0.078l0.026,0.169h0.064l0.026,0.155h0.077
		l0.026,0.155h0.064l0.026,0.156h0.064l0.026,0.168h0.064l0.026,0.156h0.064l0.039,0.168l0.065-0.013l0.025,0.169h0.064l0.039,0.155
		h0.065l0.025,0.169l0.065-0.014l0.025,0.169h-0.104l0.026,0.156h0.064l0.026,0.168h0.064l0.039,0.156h0.065l0.025,0.155h0.064
		l0.039,0.155h0.065l0.025,0.169h0.065l0.025,0.169l0.065-0.013l0.025,0.168l0.065-0.013l0.025,0.169h0.065l0.025,0.155h0.065
		l0.025,0.169h0.064l0.026,0.155h0.065l0.025,0.155h0.064l0.026,0.169h0.065l0.038,0.155h0.065l0.025,0.156h0.065l0.025,0.168h0.065
		l0.025,0.156h0.065l0.025,0.168l0.065-0.013l0.025,0.169h0.064l0.026,0.155h0.065l0.025,0.156h0.064l0.039,0.168h0.065l0.025,0.169
		l0.065-0.013l0.039,0.155h0.064l0.025,0.169h0.078l0.026,0.168l0.064-0.013l0.026,0.169l0.077-0.013l0.026,0.168h0.064l0.026,0.169
		h0.064l0.026,0.155h0.064l0.026,0.156h0.064l0.039,0.155h0.065l0.025,0.169h0.064l0.026,0.155h0.065l0.025,0.169l0.064-0.014
		l0.026,0.169h0.064l0.026,0.155h0.064l0.026,0.169l0.064-0.013l0.026,0.168h0.064l0.026,0.156h0.064l0.039,0.168h0.065l0.038,0.156
		h0.065l0.039,0.155h0.064l0.025,0.156h0.065l0.026,0.168h0.077l0.026,0.169l0.064-0.013l0.026,0.168l0.077-0.013l0.026,0.169h0.064
		l0.026,0.155h0.064l0.039,0.169h0.064l0.026,0.155h0.065l0.025,0.156h0.064l0.026,0.168h0.065l0.025,0.156h0.064l0.026,0.155h0.064
		l0.026,0.169h0.064l0.026,0.155l194.806-8.975l84.395-253.741l39.104-1.361l-85.211,240.291h0.155l-0.052,0.155h0.169l-0.065,0.155
		h0.169l-0.052,0.169l0.155-0.013l-0.052,0.168h0.169l-0.052,0.156h0.155l-0.052,0.168l0.169-0.013l-0.065,0.169h0.169l-0.052,0.169
		l0.155-0.014l-0.052,0.169l0.169-0.013l-0.052,0.168l0.168-0.013l-0.052,0.182l0.156-0.013l-0.052,0.168h0.155l-0.052,0.156h0.169
		l-0.052,0.169l0.168-0.014l-0.064,0.169l0.168-0.013l-0.064,0.168h0.169l-0.052,0.169l0.155-0.013l-0.052,0.168l0.169-0.013
		l-0.052,0.182l0.168-0.013l0.182-0.351l0.169-0.013l-0.065,0.168h0.169l-0.052,0.169l0.155-0.026l-0.052,0.182l0.156-0.013
		l-0.053,0.169h0.156l-0.052,0.155h0.155l-0.052,0.169l0.155-0.013l-0.052,0.182l0.169-0.014l-0.052,0.169l0.155-0.013l-0.052,0.168
		l0.169-0.013l-0.064,0.169h0.168l-0.052,0.168l0.169-0.013l-0.052,0.169l0.155-0.013l-0.052,0.168h0.169l-0.065,0.169l0.169-0.013
		l-0.064,0.168l0.168-0.013l-0.052,0.169h0.169l-0.052,0.168l0.155-0.013l-0.052,0.169l0.169-0.014l-0.065,0.182l0.169-0.013
		l-0.052,0.169h0.155l-0.052,0.155h0.169l-0.052,0.169l0.168-0.014l-0.064,0.169l0.169-0.013l-0.053,0.168h0.156l-0.052,0.156h0.169
		l-0.053,0.169l0.156-0.014l-0.052,0.182l0.155-0.013l-0.052,0.169l0.169-0.014l-0.065,0.169l0.169-0.013l-0.052,0.182l0.155-0.014
		l-0.052,0.169l0.169-0.013l-0.052,0.168h0.155l-0.052,0.156h0.169l-0.053,0.169l0.156-0.014l-0.052,0.169l0.169-0.013l-0.053,0.182
		l0.156-0.014l-0.052,0.169l0.168-0.013l-0.052,0.168l0.156-0.013l-0.053,0.182l0.169-0.013l-0.052,0.168l0.169-0.013l-0.065,0.169
		h0.156l-0.052,0.168l0.168-0.013l-0.052,0.169l0.156-0.014l-0.053,0.169h0.169l-0.052,0.155h0.156l-0.053,0.169l0.169-0.013
		l-0.064,0.182l0.168-0.013l-0.064,0.168l0.169-0.013l-0.053,0.169l0.156-0.014l-0.052,0.169h0.169l-0.053,0.169l0.169-0.014
		l-0.064,0.169l0.168-0.013l-0.064,0.169l0.169-0.014l-0.053,0.182l0.169-0.013l-0.064,0.169h0.169l-0.065,0.168l0.169-0.013
		l-0.065,0.169l0.169-0.014l-0.052,0.169l0.169-0.013l-0.053,0.182l0.156-0.014l-0.052,0.169h0.169l-0.065,0.155l160.177-7.379
		l40.699-122.721l13.424,91.242l0.077-0.091l0.052,0.247l0.078-0.078l0.026,0.246l0.077-0.104l0.026,0.272l0.077-0.104l0.053,0.259
		l0.052-0.104l0.052,0.26l0.078-0.092l0.025,0.247l0.078-0.091l0.025,0.259l0.078-0.104l0.025,0.26l0.078-0.091l0.052,0.246
		l0.052-0.091l0.052,0.259l0.078-0.104l0.026,0.26l0.077-0.091l0.052,0.246l0.052-0.091l0.052,0.26l0.078-0.091l0.026,0.246
		l0.077-0.091l0.026,0.26l0.077-0.104l0.053,0.26l0.052-0.091l0.052,0.246l0.052-0.091l0.052,0.246l0.078-0.091l0.025,0.26
		l0.078-0.091l0.025,0.246l0.078-0.091l0.052,0.246l0.052-0.091l0.052,0.26l0.078-0.091l0.025,0.26l0.078-0.104l0.052,0.247
		l0.052-0.078l0.052,0.246l0.053-0.091l0.051,0.26l0.078-0.104l0.026,0.26l0.077-0.104l0.026,0.259l0.078-0.091l0.052,0.247
		l0.052-0.091l0.052,0.259l0.078-0.104l0.025,0.259l0.078-0.09l0.025,0.259l0.104-0.104l0.026,0.259l0.078-0.091l0.025,0.247
		l0.078-0.091l0.026,0.259l0.077-0.104l0.052,0.26l0.052-0.092l0.052,0.247l0.078-0.091l0.026,0.259l0.077-0.104l0.026,0.26
		l0.077-0.104l0.026,0.26l0.078-0.091l0.052,0.246l0.077-0.077l0.026,0.246l0.078-0.091l0.025,0.259l0.078-0.104l0.052,0.26
		l0.052-0.091l0.052,0.246l0.078-0.091l0.025,0.246l0.078-0.091l0.025,0.26l0.078-0.091l0.052,0.246l0.052-0.091l0.052,0.246
		l0.078-0.091l0.025,0.26l0.078-0.104l0.026,0.259l0.077-0.091l0.052,0.246l0.052-0.09l0.053,0.259l0.077-0.091l0.026,0.246
		l0.078-0.091l0.051,0.26l0.053-0.104l0.052,0.259l0.052-0.091l0.052,0.247l0.078-0.092l0.025,0.247l0.078-0.091l0.025,0.259
		l0.078-0.091l0.052,0.247l0.052-0.091l0.052,0.246l-0.363-0.532l0.026,0.247l0.077-0.104l0.026,0.272l0.078-0.104l0.052,0.246
		l0.052-0.077l0.052,0.246l0.078-0.091l0.025,0.26l0.078-0.104l0.025,0.26l0.078-0.104l0.052,0.26l0.052-0.091l0.052,0.246
		l0.078-0.091l0.026,0.26l0.077-0.091l0.026,0.246l0.077-0.091l0.052,0.26l0.053-0.104l0.052,0.259l0.077-0.091l0.026,0.246
		l0.077-0.091l0.026,0.26l0.078-0.091l0.052,0.246l0.052-0.091l0.052,0.247l0.078-0.092l0.025,0.26l0.078-0.091l0.025,0.246
		l0.078-0.091l0.052,0.247l0.052-0.091l0.052,0.259l76.548-98.622l-31.257,99.349l0.155-0.013l-0.052,0.168h0.155l-0.052,0.169
		l0.182-0.013l-0.077,0.168l0.181-0.013l-0.052,0.169h0.156l-0.052,0.168l0.181-0.013l-0.077,0.169l0.182-0.014l-0.052,0.182
		l0.155-0.013l-0.052,0.169l0.155-0.014l-0.052,0.169h0.182l-0.052,0.156h0.155l-0.051,0.168l0.155-0.013l-0.052,0.169l0.155-0.014
		l-0.052,0.182l0.182-0.013l-0.052,0.169l0.155-0.014l-0.052,0.169l0.155-0.013l-0.051,0.182l0.155-0.013l-0.026,0.168l0.156-0.013
		l-0.052,0.169l0.155-0.014l-0.052,0.182l0.155-0.013l-0.052,0.169l0.182-0.014l-0.077,0.169h0.181l-0.052,0.155h0.156l-0.052,0.169
		l0.181-0.013l-0.052,0.182l0.156-0.014l-0.052,0.169l0.155-0.013l-0.052,0.168h0.155l-0.052,0.156h0.182l-0.052,0.168l0.155-0.013
		l-0.052,0.169h0.156l-0.052,0.155h0.182l-0.053,0.169l0.156-0.013l-0.052,0.168h0.155l-0.052,0.169l0.155-0.013l-0.052,0.168
		l0.182-0.013l-0.052,0.169l0.156-0.013l-0.053,0.181l0.156-0.013l-0.052,0.169h0.182l-0.052,0.155h0.155l-0.052,0.169l0.155-0.013
		l-0.052,0.168l0.156-0.013l-0.052,0.169h0.181l-0.052,0.168l0.156-0.013l-0.052,0.169l0.155-0.014l-0.052,0.182l0.182-0.013
		l-0.052,0.169l0.155-0.014l-0.052,0.169l0.155-0.013l-0.052,0.182l0.156-0.014l-0.052,0.169l0.182-0.013l-0.053,0.168h0.156
		l-0.052,0.156h0.182l-0.078,0.168l0.182-0.013l-0.052,0.169l0.155-0.013l-0.052,0.182l0.156-0.014l-0.053,0.169l0.182-0.013
		l-0.052,0.168l0.156-0.013l-0.052,0.182l0.155-0.013l-0.052,0.168l0.155-0.013l-0.052,0.169h0.182l-0.052,0.169l0.155-0.014
		l-0.052,0.169h0.156l-0.052,0.155h0.155l-0.026,0.156h0.156l-0.052,0.168l0.155-0.013l-0.052,0.182l0.155-0.013l-0.052,0.168
		l0.182-0.013l-0.052,0.169h0.156l-0.053,0.155h0.156l-0.052,0.169l0.182-0.014l-0.078,0.169h0.182l-0.052,0.155h0.155l-0.052,0.169
		l0.182-0.013l-0.078,0.169h0.182l-0.052,0.168l0.156-0.013l-0.052,0.169l0.182-0.014l-0.078,0.169l0.182-0.013l-0.052,0.182
		l0.155-0.014l-0.052,0.169h0.155l-0.052,0.156h0.182l-0.052,0.168l0.156-0.013l-0.053,0.169l0.156-0.014l-0.052,0.169
		l238.553-10.999l32.165-60.127l91.579-3.411l6.083,44.447l0.104-0.013l0.026,0.168h0.104l0.026,0.156h0.077l0.026,0.168h0.104
		l0.025,0.169l0.078-0.013l0.025,0.168l0.104-0.013l0.026,0.169h0.077l0.026,0.155h0.104l0.025,0.169l0.078-0.014l0.025,0.169h0.104
		l0.026,0.155h0.104l0.025,0.169h0.078l0.025,0.156h0.104v0.155h0.104l0.026,0.155h0.104l0.026,0.169h0.078l0.025,0.169l0.104-0.014
		l0.026,0.169l0.077-0.013l0.026,0.169h0.104l0.026,0.168l0.077-0.013l0.026,0.169l0.104-0.014l0.025,0.169h0.078l0.026,0.169h0.104
		l0.026,0.155h0.077l0.026,0.155h0.104l0.025,0.169l0.078-0.013l0.025,0.168h0.104l0.026,0.156h0.104v0.168l0.104-0.013l0.025,0.169
		h0.104l0.026,0.155h0.077l0.026,0.169l0.104-0.013l0.025,0.168l0.078-0.013l0.025,0.182l0.104-0.013l0.026,0.168h0.104v0.156h0.104
		l0.026,0.168l0.104-0.013l0.025,0.169l0.078-0.013l0.026,0.168h0.104v0.169l0.104-0.013l0.026,0.168l0.104-0.013l0.025,0.169h0.078
		l0.025,0.155h0.104l0.026,0.169h0.077l0.026,0.168l0.104-0.013l0.025,0.169l0.078-0.014l0.025,0.169h0.104l0.026,0.155h0.104v0.169
		l0.104-0.013l0.025,0.168h0.078l0.025,0.156h0.104l0.026,0.168l0.104-0.013v0.169h0.104l0.025,0.168l0.104-0.013l0.026,0.169h0.077
		l0.026,0.155h0.104l0.026,0.169l0.077-0.013l0.026,0.168h0.104l0.025,0.156h0.078l0.026,0.168l0.104-0.013l0.026,0.169l0.104-0.013
		v0.168h0.104l0.025,0.169h0.078l0.025,0.155h0.104l0.026,0.156h0.104v0.168l0.104-0.013l0.025,0.169h0.104l0.026,0.155h0.077
		l0.026,0.169l0.104-0.014l0.025,0.169h0.078l0.025,0.155h0.104l0.026,0.169l0.077-0.013l0.026,0.182l0.104-0.014l0.026,0.169
		l0.104-0.013v0.169h0.104l0.026,0.155h0.104l0.026,0.169h0.077l0.026,0.155h0.104v0.155h0.104l0.025,0.169h0.104l0.026,0.155h0.104
		v0.156l187.659-8.651l31.36-137.635l36.549,121.396l0.078-0.013l0.052,0.156h0.077l0.053,0.168h0.078l0.051,0.169h0.078
		l0.025,0.155h0.078l0.053,0.156h0.077l0.052,0.155h0.078l0.025,0.169h0.078l0.052,0.155h0.077l0.053,0.169l0.078-0.013l0.051,0.168
		h0.053l0.051,0.156h0.078l0.053,0.168l0.077-0.013l0.052,0.169l0.052-0.014l0.052,0.169h0.078l0.052,0.169h0.078l0.052,0.155h0.078
		l0.051,0.155h0.078l0.026,0.169h0.077l0.053,0.155h0.077l0.052,0.169l0.053-0.013l0.077,0.168l0.052-0.013l0.052,0.169h0.078
		l0.052,0.155h0.078l0.051,0.169h0.053l0.052,0.155h0.077l0.053,0.156h0.077l0.052,0.168h0.053l0.077,0.156h0.052l0.052,0.155h0.078
		l0.052,0.169h0.078l0.051,0.155h0.053l0.052,0.169l0.077-0.013l0.053,0.168h0.077l0.052,0.156h0.078l0.052,0.155h0.052l0.052,0.169
		h0.078l0.052,0.155h0.078l0.025,0.155h0.078l0.078,0.169h0.051l0.053,0.169l0.078-0.014l0.051,0.169l0.078-0.013l0.025,0.169h0.078
		l0.053,0.168h0.077l0.052,0.156h0.078l0.052,0.155h0.052l0.052,0.155h0.077l0.053,0.169h0.078l0.051,0.156h0.078l0.025,0.168
		l0.078-0.013l0.053,0.169h0.077l0.052,0.155h0.078l0.052,0.169l0.077-0.014l0.026,0.169h0.078l0.052,0.155h0.078l0.051,0.169h0.078
		l0.052,0.155h0.052l0.053,0.156h0.077l0.052,0.168h0.078l0.052,0.156h0.077l0.026,0.168l0.078-0.013l0.052,0.169l0.078-0.014
		l0.051,0.169h0.053l0.052,0.156h0.104l0.026,0.168h0.077l0.052,0.156h0.078l0.052,0.155h0.052l0.052,0.169h0.078l0.052,0.168
		l0.078-0.013l0.051,0.169l0.078-0.013l0.053,0.168h0.051l0.053,0.169h0.077l0.052,0.155l0.078-0.013l0.052,0.169h0.052l0.052,0.155
		h0.078l0.052,0.169h0.078l0.052,0.155h0.077l0.053,0.169l0.051-0.014l0.053,0.169h0.078l0.051,0.155h0.078l0.025,0.169l0.104-0.013
		l0.052,0.168l104.873-4.837l103.681-372.025l-0.895-0.959L2191.514,1081.795z M1689.688,1301.854l-16.342,0.453l14.086-24.914
		L1689.688,1301.854L1689.688,1301.854z M882.19,1261.18l61.464-2.866l-44.643,124.86L882.19,1261.18z M455.434,1327.469
		c3.021,2.633,5.771,5.266,8.171,8.066c4.099,11.154,3.515,26.03-4.526,49.713c-10.532,31.063-27.418,44.267-39.143,49.908
		L455.434,1327.469z M505.483,1175.618c-0.813,8.563-3.539,16.833-7.977,24.202L505.483,1175.618z M778.887,1344.005h-13.411
		l9.831-20.531L778.887,1344.005z"/>
	<path d="M638.229,1192.428c10.077-73.306-47.639-114.692-134.704-123.706c-26.563-2.75-151.189,5.499-151.189,5.499
		L184.65,1527.786c0,0,251.977-2.749,306.048-19.247c54.058-16.484,97.13-45.809,119.127-118.193
		c21.983-72.384-42.151-108.115-42.151-108.115S628.151,1265.732,638.229,1192.428L638.229,1192.428z M458.637,1384.847
		c-17.418,51.309-52.229,54.058-52.229,54.058l40.984-124.522C464.11,1329.012,472.631,1343.615,458.637,1384.847z
		 M479.609,1216.525l23.008-69.907C511.281,1180.482,498.947,1205.501,479.609,1216.525z"/>
	<path d="M2071.181,1073.818l-44.733,156.183l-49.116-151.824l-129.296,5.966l-58.014,234.74l-21.23-231.057l-136.079,6.29
		l-127.648,209.189l66.094-206.349l-144.69,6.691l-76.275,102.54l-23.579-97.922l-413.308,19.117l-41.412,108.608l-14.591-106.015
		l-142.084,6.563l-205.26,376.591l171.798-7.925l26.146-59.868l93.461-3.671l11.646,57.482l194.533-8.976l84.291-253.74
		l52.229-1.842l-89.867,253.43l159.956-7.381l45.381-136.986l17.406,118.193l98.038-126.455l-44.032,139.866l238.241-11.012
		l32.127-60.141l98.945-3.657l7.873,57.391l187.4-8.65l33.813-148.62l43.669,145.04l104.743-4.837l103.551-372.012
		L2071.181,1073.818L2071.181,1073.818z M750.949,1343.629l20.155-42.152l7.328,42.152H750.949z M893.889,1395.845l-20.323-147.738
		l74.382-3.463L893.889,1395.845z M1656.252,1302.385l28.391-50.4l4.592,49.479L1656.252,1302.385z"/>
	<path fill="#FFFFFF" d="M623.858,1193.595c12.594-63.863-36.886-96.235-98.946-106.145c-62.061-9.896-67.455,0-162.796,0
		l-155.611,423.645c0,0,138.517-5.396,223.962-9.896c85.444-4.5,123.226-31.478,151.11-80.944s17.081-65.652,5.396-91.748
		c-11.686-26.082-49.467-47.677-49.467-47.677S611.265,1257.458,623.858,1193.595L623.858,1193.595z M475.445,1381.565
		c-18.884,78.246-89.945,75.562-89.945,75.562l53.591-162.926C460.491,1301.438,489.674,1322.604,475.445,1381.565L475.445,1381.565
		z M516.819,1189.989c-12.243,35.122-32.684,47.949-59.907,50.024l40.115-121.98
		C515.017,1127.929,530.308,1151.326,516.819,1189.989z"/>
	<path fill="#FFFFFF" d="M1080.771,1225.072l69.259-4.501l32.359-90.256l-259.188,11.828l-34.007,90.14l80.049-2.697
		l-81.852,217.671l-41.478-301.572l-124.017,5.667l-187.984,346.28l137.363-6.368l27.236-61.088l115.133-3.593l10.882,57.586
		l171.382-7.95L1080.771,1225.072L1080.771,1225.072z M726.385,1360.892l53.967-111.54l13.502,108.842L726.385,1360.892z
		 M2080.558,1089.33l-53.552,186.998l-59.479-181.849l-109.504,5.007l-73.862,286.593l-28.379-281.924l-116.402,5.317
		l-184.443,301.807l94.796-297.721l-116.495,5.317l-90.71,122.396l-26.77-117.039l-118.389,5.408l-121.89,342.882l128.388-5.953
		l60.4-181.227l21.582,140.319l120.554-150.202l-56.535,184.326l209.293-9.701l32.528-60.4l121.409-5.396l8.08,58.286l163.316-7.562
		l42.709-183.847l55.355,179.281l84.043-3.891l94.434-340.897L2080.558,1089.33L2080.558,1089.33z M1629.431,1318.61l66.573-115.12
		l8.988,111.527L1629.431,1318.61L1629.431,1318.61z"/>
</g>
</svg>
