<?xml version="1.0" encoding="utf-8"?>
<!-- Generator: Adobe Illustrator 16.0.0, SVG Export Plug-In . SVG Version: 6.00 Build 0)  -->
<!DOCTYPE svg PUBLIC "-//W3C//DTD SVG 1.1//EN" "http://www.w3.org/Graphics/SVG/1.1/DTD/svg11.dtd">
<svg version="1.1" id="svg2" xmlns="http://www.w3.org/2000/svg" xmlns:xlink="http://www.w3.org/1999/xlink" x="0px" y="0px"
	 width="2500px" height="743px" viewBox="0 0 2500 743" enable-background="new 0 0 2500 743" xml:space="preserve">
<g id="Capa_x0020_1" transform="translate(-5.825 -5.621)">
	<g id="_56610944">
		<path id="_56666168" fill="#009AC7" d="M2026.155,262.173c0,170.606,201.43,146.234,201.43,26.881V6.621h-201.43V262.173
			L2026.155,262.173z"/>
		<path id="_56603080" fill="#009AC7" d="M1748.381,441.382c0,84.229,58.063,134.406,143.367,134.406h483.864
			c72.041,0,130.105-49.461,130.105-121.145V100.885c0-43.01-31.899-89.604-71.684-89.604h-112.185v291.035
			c0,221.144-385.3,219.352-385.3,4.66V6.621h-85.303c-55.555,0-103.225,35.125-103.225,89.604L1748.381,441.382L1748.381,441.382z"
			/>
		<path id="_56604928" fill="#8C8C8C" d="M1078.498,90.491c0,45.877,38.709,84.586,87.096,84.586
			c50.896,0,90.68-37.634,90.68-84.586c0-47.311-39.784-84.586-90.68-84.586C1117.207,5.546,1078.498,43.18,1078.498,90.491z"/>
		<path id="_56605920" fill="#8C8C8C" d="M1243.011,743.887V258.589h-149.818v485.298H1243.011z"/>
		<path id="_56605848" fill="#8C8C8C" d="M1382.436,90.491c0,45.877,39.784,84.586,88.529,84.586
			c49.461,0,89.604-37.634,89.604-84.586c0-47.311-39.783-84.586-89.604-84.586C1422.22,5.546,1382.436,43.18,1382.436,90.491z"/>
		<path id="_56607936" fill="#8C8C8C" d="M1546.95,743.887V258.589h-150.177v485.298H1546.95z"/>
		<path id="_56607472" fill="#8C8C8C" d="M854.487,46.764l-130.822,514.33c0,0-100.357-386.017-117.562-441.93
			c-15.771-54.479-49.462-78.493-96.772-78.493c-48.387,0-81.003,24.372-98.207,78.493c-15.77,55.555-116.127,441.93-116.127,441.93
			l-131.54-514.33H6.112c0,0,151.252,548.379,172.041,612.536c15.77,49.462,54.479,89.604,110.034,89.604
			c65.232,0,95.698-47.312,108.959-89.604c14.695-43.727,112.543-405.371,112.543-405.371S607.895,615.932,621.157,659.3
			c14.695,42.293,44.802,89.604,108.959,89.604c56.988,0,94.264-39.784,111.468-89.604
			c20.43-64.157,172.041-612.536,172.041-612.536H854.487z"/>
	</g>
</g>
</svg>
