<?xml version="1.0" encoding="utf-8"?>
<!-- Generator: Adobe Illustrator 16.0.0, SVG Export Plug-In . SVG Version: 6.00 Build 0)  -->
<!DOCTYPE svg PUBLIC "-//W3C//DTD SVG 1.1//EN" "http://www.w3.org/Graphics/SVG/1.1/DTD/svg11.dtd">
<svg version="1.1" id="Layer_1" xmlns="http://www.w3.org/2000/svg" xmlns:xlink="http://www.w3.org/1999/xlink" x="0px" y="0px"
	 width="425px" height="128.921px" viewBox="-7.782 4.079 425 128.921" enable-background="new -7.782 4.079 425 128.921"
	 xml:space="preserve">
<g>
	<circle fill="#CCCCCC" cx="58.075" cy="13.716" r="4.039"/>
	<path fill="#CCCCCC" d="M58.075,107.3L30.25,91.462l7.535-4.062c0.019,0.043,0.031,0.08,0.051,0.125
		c5.45,7.979,16.47,8.569,25.22,7.76c5.19-1.655-1.06,2.033-0.73,3.49c0.94,2.699,4.047,1.088,5.482,0.668
		c3.77-2.16,7.5-4.563,9.838-8.748c1.287-3.877,0.724-1.813,3.75-5.09c2.77-2.859,3-7.33,6.24-9.84
		c3.47-3.119,5.021-7.55,6.87-11.669c6.24-5.78,11.96-13.38,11.74-22.31c0.34-6.76-3.84-12.78-8.83-16.93
		c-8.22-6.71-18.67-10.14-29.04-11.73c-2.41-0.89-4.8,1.96-3.14,4.12c4.75,1.95,10.08,1.89,14.83,3.92
		c7.63,2.8,15.48,7.04,19.62,14.34c3.53,7.16-0.16,15.82-5.54,21l-0.18,0.18c-2.04-3.3-4.2-6.63-7.38-8.95
		c-8.156-6.182-18.558-8.406-28.57-9.014V19.505l-50.09,27v56.99l0.07-0.038v1.038L58.075,133l50.08-28.505v-25.7L58.075,107.3z
		 M58.016,63.735c0.02,0,0.04,0,0.06,0c5.65,0.33,11.49,1.21,16.37,4.26c0.644,0.494,1.383,0.802-0.533,1.385
		c-1.422,0.513-6.265,1.407-9.925,1.917c0,0-3.304,0.208-4.452,0.158c-0.194-0.008-0.737-0.037-1.52-0.087V63.735z M54.468,78.408
		c3.073-0.293,6.175-0.152,9.058,0.537c1.72,0.49,3.84,0.49,4.94,2.111c-5.6,0.949-11.345,1.07-16.97,0.699
		c-0.789-0.161-1.673-0.244-2.56-0.365L54.468,78.408z M57.556,90.245c-5.02-0.24-10.81-0.67-14.48-4.57
		c10.02,2.511,20.59,2.431,30.52-0.5C69.266,89.025,63.166,90.115,57.556,90.245z M75.466,78.425
		c-1.345-1.67-3.157-2.545-5.06-3.069c3-0.801,6.01-1.61,8.99-2.49C81.076,75.965,78.121,77.686,75.466,78.425z M84.996,53.225
		c2.38,2.03,3.62,4.94,4.41,7.89c-1.8,1.3-3.65,2.53-5.521,3.72c-1.27,0.35-2.77,1.98-3.99,0.58
		c-6.223-4.809-14.171-6.574-21.88-7.073V44.185C67.566,44.335,77.776,46.595,84.996,53.225z"/>
</g>
<g>
	<path d="M401.51,129c-94.34,0-188.68,0.01-283.02-0.01c0.01-4,0.01-8,0-11.99c94.34,0.01,188.68-0.01,283.02,0V129z"/>
</g>
<g>
	<g>
		<path fill="#01015B" d="M69.24,11.49c-1.66-2.16,0.729-5.01,3.14-4.12c10.37,1.59,20.82,5.02,29.04,11.73
			c4.99,4.15,9.17,10.17,8.83,16.93c0.22,8.93-5.5,16.53-11.74,22.31c-1.85,4.12-3.4,8.55-6.87,11.67
			c-3.24,2.51-3.47,6.98-6.24,9.84c-3.026,3.276-2.463,1.213-3.75,5.09c-2.338,4.186-6.068,6.588-9.838,8.748
			c-1.435,0.42-4.543,2.032-5.482-0.668c-0.33-1.457,5.92-5.146,0.73-3.49c-8.75,0.81-19.77,0.22-25.22-7.76
			c-1.048-2.416-0.903-3.166-0.91-4.561c-3.95-2.85-6.74-7.22-6.4-12.26c-4.38-3.04-8.54-7.37-8.73-13.02
			c-0.75-5.54,3.55-10.02,7.92-12.68c8.43-5.05,18.55-6.31,28.21-6.29c10.04,0.6,20.48,2.82,28.66,9.02
			c3.18,2.32,5.34,5.65,7.38,8.95l0.18-0.18c5.38-5.18,9.07-13.84,5.54-21c-4.14-7.3-11.99-11.54-19.62-14.34
			C79.32,13.38,73.99,13.44,69.24,11.49z M33.48,46.04c-4.98,3.99-1.3,12.13,3.84,13.72c6.86-5.61,15.97-7.229,24.6-7.18
			c7.74,0.49,15.73,2.25,21.98,7.08c1.22,1.4,2.72-0.23,3.99-0.58c1.87-1.19,3.72-2.42,5.52-3.72c-0.79-2.95-2.03-5.86-4.41-7.89
			c-7.22-6.63-17.43-8.89-26.98-9.04C52.15,38.21,41.33,39.52,33.48,46.04z M67.992,65.542c3.66-0.51,8.503-1.403,9.925-1.917
			c1.917-0.583,1.177-0.891,0.533-1.385c-4.88-3.05-10.72-3.93-16.37-4.26c-6.18-0.02-12.67,0.63-18.14,3.72
			c-0.56,0.342-2.357,0.675,0.01,1.35c5.316,1.856,18.443,2.6,19.59,2.65C64.688,65.75,67.992,65.542,67.992,65.542z M39.75,67.53
			c0.5,1.298,1.516,3.22,3.547,4.399c0.859-0.57,2.173-1.225,3.273-1.805c0.714-0.289,1.477-0.797,2.21-1.055
			c-0.358-0.024-0.896-0.088-1.952-0.133C44.293,68.628,42.14,68.11,39.75,67.53z M74.41,69.6c1.902,0.525,3.715,1.4,5.06,3.07
			c2.655-0.74,5.61-2.46,3.93-5.56C80.42,67.99,77.41,68.8,74.41,69.6z M49.688,74.688c1.687,1,4.002,0.942,5.812,1.313
			c5.625,0.371,11.37,0.25,16.97-0.7c-1.1-1.62-3.22-1.62-4.939-2.11C61.8,71.82,55.208,72.607,49.688,74.688z M47.08,79.92
			c3.67,3.9,9.46,4.33,14.48,4.57c5.61-0.131,11.71-1.221,16.04-5.07C67.67,82.35,57.1,82.43,47.08,79.92z"/>
	</g>
</g>
<path d="M138.562,70.199c5.059-0.001,10.095-0.311,14.848-2.119c12.71-4.38,21.13-17.81,20.71-31.07c-0.37-6.5-2.57-12.93-6.5-18.14
	c-5.85-8.27-16.04-12.96-26.09-12.71l-22.61-0.009v19.105l-0.06,0.263l0.06-0.005V95.32h9.2V70.199 M128.03,14.39
	c5.18-0.01,10.36-0.12,15.53,0.12c7.7,0.51,15.18,4.81,18.95,11.63c4.72,8.07,4.18,18.99-1.64,26.36
	c-4.06,5.47-10.67,8.97-17.5,9.08c-5.08,0.07-10.057,0.033-15.25,0.033L128.03,14.39z"/>
<path d="M140.5,70.182"/>
<circle fill="#01015B" cx="62.08" cy="8.961" r="4.039"/>
<polygon fill="#01015B" points="62.08,127.245 12,98.74 12,73.04 62.08,101.545 "/>
<polygon fill="#F00020" points="62.08,127.245 112.16,98.74 112.16,73.04 62.08,101.545 "/>
<g>
	<path d="M274.111,57.437V40.11h-13.534c0.92,3.272,1.422,6.719,1.422,10.285c0,2.408-0.233,4.759-0.663,7.043L274.111,57.437
		L274.111,57.437z"/>
	<path d="M258.027,67.297c-6.217,12.473-19.092,21.045-33.976,21.045c-20.958,0-37.948-16.99-37.948-37.948
		c0-20.958,16.99-37.948,37.948-37.948c13.556,0,25.442,7.112,32.154,17.803h9.542c-7.493-15.484-23.341-26.17-41.697-26.17
		c-25.579,0-46.315,20.736-46.315,46.315c0,25.579,20.736,46.315,46.315,46.315c19.612,0,36.362-12.195,43.115-29.412H258.027z"/>
</g>
<polygon fill="#FEC101" points="11.93,97.74 62.02,70.74 62.02,13.75 11.93,40.75 "/>
<g>
	<path fill="#01015B" d="M69.24,11.49c-1.66-2.16,0.729-5.01,3.14-4.12c10.37,1.59,20.82,5.02,29.04,11.73
		c4.99,4.15,9.17,10.17,8.83,16.93c0.22,8.93-5.5,16.53-11.74,22.31c-1.85,4.12-3.4,8.55-6.87,11.67c-3.24,2.51-3.47,6.98-6.24,9.84
		c-3.026,3.276-2.463,1.213-3.75,5.09c-2.338,4.186-6.068,6.588-9.838,8.748c-1.435,0.42-4.543,2.032-5.482-0.668
		c-0.33-1.457,5.92-5.146,0.73-3.49c-8.75,0.81-19.77,0.22-25.22-7.76c-1.048-2.416-0.903-3.166-0.91-4.561
		c-3.95-2.85-6.74-7.22-6.4-12.26c-4.38-3.04-8.54-7.37-8.73-13.02c-0.75-5.54,3.55-10.02,7.92-12.68
		c8.43-5.05,18.55-6.31,28.21-6.29c10.04,0.6,20.48,2.82,28.66,9.02c3.18,2.32,5.34,5.65,7.38,8.95l0.18-0.18
		c5.38-5.18,9.07-13.84,5.54-21c-4.14-7.3-11.99-11.54-19.62-14.34C79.32,13.38,73.99,13.44,69.24,11.49z M33.48,46.04
		c-4.98,3.99-1.3,12.13,3.84,13.72c6.86-5.61,15.97-7.229,24.6-7.18c7.74,0.49,15.73,2.25,21.98,7.08c1.22,1.4,2.72-0.23,3.99-0.58
		c1.87-1.19,3.72-2.42,5.52-3.72c-0.79-2.95-2.03-5.86-4.41-7.89c-7.22-6.63-17.43-8.89-26.98-9.04
		C52.15,38.21,41.33,39.52,33.48,46.04z M67.992,65.542c3.66-0.51,8.503-1.403,9.925-1.917c1.917-0.583,1.177-0.891,0.533-1.385
		c-4.88-3.05-10.72-3.93-16.37-4.26c-6.18-0.02-12.67,0.63-18.14,3.72c-0.56,0.342-2.357,0.675,0.01,1.35
		c5.316,1.856,18.443,2.6,19.59,2.65C64.688,65.75,67.992,65.542,67.992,65.542z M39.75,67.53c0.5,1.298,1.516,3.22,3.547,4.399
		c0.859-0.57,2.173-1.225,3.273-1.805c0.714-0.289,1.477-0.797,2.21-1.055c-0.358-0.024-0.896-0.088-1.952-0.133
		C44.293,68.628,42.14,68.11,39.75,67.53z M74.41,69.6c1.902,0.525,3.715,1.4,5.06,3.07c2.655-0.74,5.61-2.46,3.93-5.56
		C80.42,67.99,77.41,68.8,74.41,69.6z M49.688,74.688c1.687,1,4.002,0.942,5.812,1.313c5.625,0.371,11.37,0.25,16.97-0.7
		c-1.1-1.62-3.22-1.62-4.939-2.11C61.8,71.82,55.208,72.607,49.688,74.688z M47.08,79.92c3.67,3.9,9.46,4.33,14.48,4.57
		c5.61-0.131,11.71-1.221,16.04-5.07C67.67,82.35,57.1,82.43,47.08,79.92z"/>
</g>
<circle fill="#01015B" cx="62.08" cy="8.961" r="4.039"/>
<polygon fill="#01015B" points="62.08,127.245 12,98.74 12,73.04 62.08,101.545 "/>
<polygon fill="#F00020" points="62.08,127.245 112.16,98.74 112.16,73.04 62.08,101.545 "/>
<polygon points="325.97,23.83 325.97,6.151 298.3,6.151 290.5,6.151 281.359,6.151 281.359,95.35 298.3,95.35 298.3,57.437 
	324.696,57.437 324.696,40.11 298.3,40.11 298.3,23.83 "/>
<polygon points="397,95.35 370.5,49.002 395,6.151 374.609,6.151 360.305,31.171 346,6.151 325.609,6.151 350.109,49.002 
	323.609,95.35 344,95.35 360.305,66.833 376.609,95.35 "/>
<g>
	<path d="M128.272,113v-9.217L124.378,113h-0.896l-3.88-9.217V113h-1.037v-10.352h1.611l3.768,8.811l3.754-8.811h1.611V113H128.272z
		"/>
	<path d="M134.862,113.182c-2.087,0-3.516-1.261-3.516-4.076v-6.457h1.037v6.457c0,2.115,0.869,3.125,2.493,3.125
		c1.597,0,2.479-1.008,2.479-3.125v-6.457h1.037v6.457C138.392,111.921,136.963,113.182,134.862,113.182z"/>
	<path d="M140.432,113v-10.352h1.037v9.412h4.286V113H140.432z"/>
	<path d="M148.624,103.587V113h-1.037v-9.413h-2.367v-0.938h5.771v0.938H148.624z"/>
	<path d="M152.066,113v-10.352h1.037V113H152.066z"/>
	<path d="M164.854,113v-9.217L160.959,113h-0.896l-3.88-9.217V113h-1.037v-10.352h1.611l3.768,8.811l3.754-8.811h1.611V113H164.854z
		"/>
	<path d="M167.928,113v-10.352h5.659v0.938h-4.623v3.712h4.468v0.938h-4.468v3.824h4.623V113H167.928z"/>
	<path d="M178.136,113h-2.788v-10.352h2.438c1.877,0,2.97,0.224,3.95,0.813c1.541,0.91,2.353,2.451,2.353,4.398
		C184.089,110.843,182.184,113,178.136,113z M181.162,104.259c-0.785-0.476-1.765-0.672-3.334-0.672h-1.443v8.476h1.443
		c1.835,0,2.899-0.267,3.726-0.924c0.953-0.771,1.485-1.962,1.485-3.32C183.039,106.275,182.352,104.975,181.162,104.259z"/>
	<path d="M185.68,113v-10.352h1.037V113H185.68z"/>
	<path d="M196.772,113l-1.499-3.488h-4.819L188.942,113h-1.092l4.44-10.352h1.163L197.907,113H196.772z M192.878,103.825
		l-2.031,4.749h4.02L192.878,103.825z"/>
	<path d="M202.83,113v-10.352h5.659v0.938h-4.623v3.712h4.468v0.938h-4.468v3.824h4.623V113H202.83z"/>
	<path d="M217.45,113l-6.164-9.105V113h-1.037v-10.352h1.401l5.799,8.586v-8.586h1.037V113H217.45z"/>
	<path d="M222.963,103.587V113h-1.037v-9.413h-2.367v-0.938h5.771v0.938H222.963z"/>
	<path d="M226.405,113v-10.352h5.659v0.938h-4.623v3.712h4.468v0.938h-4.468v3.824h4.623V113H226.405z"/>
	<path d="M237.79,109.134l2.899,3.866H239.4l-3.488-4.691c2.898,0,3.88-0.504,3.88-2.367c0-1.724-1.063-2.354-3.474-2.354h-1.457
		V113h-1.037v-10.352h2.563c3.25,0,4.455,1.177,4.455,3.334C240.843,107.816,239.777,108.924,237.79,109.134z"/>
	<path d="M244.677,103.587V113h-1.036v-9.413h-2.367v-0.938h5.771v0.938H244.677z"/>
	<path d="M255.432,113l-1.498-3.488h-4.819L247.602,113h-1.093l4.44-10.352h1.162L256.566,113H255.432z M251.537,103.825
		l-2.031,4.749h4.02L251.537,103.825z"/>
	<path d="M257.695,113v-10.352h1.037V113H257.695z"/>
	<path d="M267.975,113l-6.164-9.105V113h-1.037v-10.352h1.401l5.8,8.586v-8.586h1.036V113H267.975z"/>
	<path d="M280.758,113v-9.217L276.864,113h-0.896l-3.88-9.217V113h-1.037v-10.352h1.611l3.768,8.811l3.754-8.811h1.611V113H280.758z
		"/>
	<path d="M283.833,113v-10.352h5.659v0.938h-4.623v3.712h4.468v0.938h-4.468v3.824h4.623V113H283.833z"/>
	<path d="M298.453,113l-6.164-9.105V113h-1.037v-10.352h1.4l5.8,8.586v-8.586h1.036V113H298.453z"/>
	<path d="M303.966,103.587V113h-1.036v-9.413h-2.367v-0.938h5.771v0.938H303.966z"/>
	<path d="M314.229,108.813h-1.989V113h-1.037v-10.352h2.856c2.844,0,3.992,0.966,3.992,3.138
		C318.052,107.747,317.043,108.813,314.229,108.813z M313.709,103.587h-1.471v4.286h1.919c2.059,0,2.844-0.588,2.844-2.087
		C317.001,103.686,315.686,103.587,313.709,103.587z"/>
	<path d="M319.406,113v-10.352h1.037v9.412h4.287V113H319.406z"/>
	<path d="M334.292,113l-1.499-3.488h-4.818L326.462,113h-1.092l4.44-10.352h1.162L335.427,113H334.292z M330.398,103.825
		l-2.031,4.749h4.02L330.398,103.825z"/>
	<path d="M339.092,109.54V113h-1.037v-3.46l-3.586-6.892h1.149l2.94,5.799l3.013-5.799h1.135L339.092,109.54z"/>
	<path d="M343.71,113v-10.352h5.659v0.938h-4.623v3.712h4.468v0.938h-4.468v3.824h4.623V113H343.71z"/>
	<path d="M355.094,109.134l2.899,3.866h-1.289l-3.488-4.691c2.899,0,3.88-0.504,3.88-2.367c0-1.724-1.063-2.354-3.474-2.354h-1.457
		V113h-1.037v-10.352h2.563c3.25,0,4.455,1.177,4.455,3.334C358.148,107.816,357.083,108.924,355.094,109.134z"/>
	<path d="M366.363,108.813h-1.989V113h-1.037v-10.352h2.858c2.843,0,3.992,0.966,3.992,3.138
		C370.188,107.747,369.179,108.813,366.363,108.813z M365.845,103.587h-1.471v4.286h1.919c2.059,0,2.844-0.588,2.844-2.087
		C369.137,103.686,367.82,103.587,365.845,103.587z"/>
	<path d="M376.527,113.182c-3.096,0-5.435-2.297-5.435-5.322c0-3.096,2.283-5.394,5.365-5.394c2.144,0,3.964,1.093,4.762,2.872
		h-1.163c-0.882-1.387-2.101-1.919-3.558-1.919c-2.465,0-4.356,1.905-4.356,4.397c0,2.424,1.976,4.412,4.371,4.412
		c1.512,0,2.506-0.573,3.6-1.946h1.147C380.227,112.202,378.629,113.182,376.527,113.182z"/>
	<path d="M387.67,103.587v3.74h4.063v0.938h-4.063V113h-1.037v-10.352h5.253v0.938L387.67,103.587L387.67,103.587z"/>
	<path d="M399.474,113l-2.927-4.426L393.605,113h-1.219l3.516-5.295l-3.319-5.057h1.219l2.746,4.146l2.731-4.146h1.205l-3.32,5.057
		l3.53,5.295H399.474z"/>
</g>
<g>
	<path d="M383.604,108.757c-0.42,0-0.754-0.336-0.754-0.756c0-0.419,0.334-0.755,0.754-0.755c0.408,0,0.756,0.336,0.756,0.755
		C384.359,108.421,384.012,108.757,383.604,108.757z"/>
</g>
</svg>
