<?xml version="1.0" encoding="utf-8"?>
<!-- Generator: Adobe Illustrator 24.3.0, SVG Export Plug-In . SVG Version: 6.00 Build 0)  -->
<svg version="1.1" id="Layer_1" xmlns="http://www.w3.org/2000/svg" xmlns:xlink="http://www.w3.org/1999/xlink" x="0px" y="0px"
	 viewBox="0 0 337.5 42.4" style="enable-background:new 0 0 337.5 42.4;" xml:space="preserve">
<path d="M128.5,14.7c-1.6,0-2.9,0.6-4,1.7c-1.1,1.1-1.7,2.5-1.7,4c0,1.6,0.6,2.9,1.7,4s2.5,1.7,4,1.7c1.6,0,2.9-0.6,4-1.7
	c1.1-1.1,1.7-2.4,1.7-4s-0.6-2.9-1.7-4C131.4,15.2,130.1,14.7,128.5,14.7z M237.2,0.7c-5.9-0.2-10.8,1.6-14.9,5.6
	c-4,3.9-6,8.9-6,14.8c0,5.3,1.5,9.8,4.6,13.7c3.9,4.9,9.5,7.3,16.6,7.3c7.2,0,12.7-2.5,16.6-7.6c3-3.8,4.4-8.3,4.4-13.3
	c0-5.9-2-10.8-6-14.8C248.7,2.3,243.5,0.5,237.2,0.7z M246.6,32.4c-1,2.8-2.3,4.8-4,6c-1.4,1-3,1.5-5,1.5c-3,0-5.3-1.1-7-3.4
	c-2.4-3.2-3.6-8.3-3.6-15.1c0-5.7,0.8-10.1,2.3-13.2c1.9-3.7,4.7-5.6,8.3-5.6c2,0,3.7,0.5,5.2,1.6s2.8,2.9,3.7,5.5
	c1,2.6,1.5,6.6,1.5,11.8C248,26,247.5,29.6,246.6,32.4z M180,24.4h-19.4v1h1c1,0,1.8,0.2,2.4,0.6c0.7,0.4,1.1,0.8,1.3,1.3
	c0.2,0.5,0.3,1.5,0.3,3.1v8.3c-1.1,0.4-2.1,0.7-3.1,0.9c-1,0.2-2,0.3-2.9,0.3c-2.8,0-5.1-0.7-7.1-2c-2-1.4-3.4-3.5-4.3-6.3
	c-0.9-2.9-1.3-6.2-1.3-10c0-3.2,0.4-6.2,1.2-9.2c0.8-3,2.2-5.3,4.2-7s4.5-2.5,7.4-2.5c3.1,0,6,1,8.6,3s4.6,4.9,5.9,8.8h1V0.6h-1
	c-0.4,1.1-0.8,1.9-1.3,2.3c-0.5,0.4-1,0.6-1.5,0.6c-0.4,0-1.5-0.4-3.4-1.1c-1.9-0.7-3.3-1.2-4.2-1.3c-1.6-0.3-3.4-0.5-5.4-0.5
	c-6.4,0-11.7,2.1-15.9,6.2c-4.2,4.1-6.3,9.2-6.3,15.2c0,3.3,0.7,6.4,2.1,9.1c1.1,2.1,2.6,4,4.5,5.7c1.9,1.7,4.1,3,6.6,4.1
	c2.5,1,5.6,1.5,9.4,1.5c3,0,5.8-0.3,8.6-0.9c2.8-0.6,5.4-1.4,8-2.6v-8.3c0-1.5,0.1-2.4,0.3-2.8c0.3-0.7,0.8-1.2,1.3-1.5
	c0.6-0.3,1.6-0.5,3.1-0.6v-1.3H180z M99.1,0.7c-5.9-0.2-10.8,1.6-14.9,5.6c-4,3.9-6,8.9-6,14.8c0,5.3,1.5,9.8,4.6,13.7
	c3.9,4.9,9.5,7.3,16.6,7.3c7.2,0,12.7-2.5,16.6-7.6c3-3.8,4.4-8.3,4.4-13.3c0-5.9-2-10.8-6-14.8C110.6,2.3,105.5,0.5,99.1,0.7z
	 M108.5,32.4c-1,2.8-2.3,4.8-4,6c-1.4,1-3,1.5-5,1.5c-3,0-5.3-1.1-7-3.4c-2.4-3.2-3.6-8.3-3.6-15.1c0-5.7,0.8-10.1,2.3-13.2
	c1.9-3.7,4.7-5.6,8.3-5.6c2,0,3.7,0.5,5.2,1.6c1.5,1.1,2.8,2.9,3.7,5.5c1,2.6,1.5,6.6,1.5,11.8C109.9,26,109.4,29.6,108.5,32.4z
	 M208.7,36.4c-2.2,1.7-5.2,2.6-8.9,2.6h-2.4c-1.1,0-2-0.2-2.5-0.5s-0.9-0.7-1-1.2c-0.2-0.5-0.3-1.8-0.3-4V22.1
	c1.9,0,3.4,0.3,4.4,0.8s1.9,1.5,2.6,2.9c0.8,1.5,1.2,3.3,1.5,5.6h1.1V10.5h-1.1c-0.3,3.1-1,5.4-2.2,7c-1.1,1.6-3,2.4-5.5,2.4h-0.8
	V3.6h4.1c3,0,5.1,0.2,6.2,0.5c1.9,0.6,3.3,1.5,4.4,2.8c1,1.3,1.8,3.3,2.4,6.2h1.1V1.3h-33.4v1h1.3c1.3,0,2.3,0.3,3,0.8
	c0.5,0.4,0.9,0.9,1.1,1.6c0.1,0.4,0.1,1.5,0.1,3.4v26.3c0,2-0.1,3.3-0.3,3.7c-0.3,0.7-0.7,1.1-1.2,1.4c-0.7,0.4-1.6,0.6-2.8,0.6
	h-1.3v1h34.4l1.8-12.7h-1.1C212.6,32,211,34.7,208.7,36.4z M70.7,36.4c-2.2,1.7-5.2,2.6-8.9,2.6h-2.4c-1.1,0-2-0.2-2.5-0.5
	s-0.9-0.7-1-1.2c-0.2-0.5-0.3-1.8-0.3-4V22.1c1.9,0,3.4,0.3,4.4,0.8s1.9,1.5,2.6,2.9c0.8,1.5,1.2,3.3,1.5,5.6h1.1V10.5h-1.1
	c-0.3,3.1-1,5.4-2.2,7c-1.1,1.6-3,2.4-5.5,2.4h-0.9V3.6h4.1c3,0,5.1,0.2,6.2,0.5c1.9,0.6,3.3,1.5,4.4,2.8c1,1.3,1.8,3.3,2.4,6.2h1.1
	V1.3H27.9v1c2.2,0,3.8,0.5,4.8,1.7c0.7,0.8,1,2.5,1,4.9V26L14.1,1.3H0v1c1.2,0,2.1,0.2,2.8,0.6C3.4,3.2,4.2,3.9,5,5l0.9,1.1v28.1
	c0,2.1-0.4,3.7-1.3,4.6c-0.9,0.9-2.4,1.4-4.6,1.4v1h14.2v-1h-0.9c-1.4,0-2.6-0.4-3.6-1.2c-1-0.8-1.6-2.4-1.6-4.7V8.9L35,42.1h1V8.9
	c0-1.9,0.2-3.2,0.5-4s0.8-1.3,1.3-1.7c0.6-0.3,1.7-0.6,3.4-0.8h0.6c1.3,0,2.3,0.3,3,0.8c0.5,0.4,0.9,0.9,1.1,1.6
	C46,5.2,46,6.3,46,8.2v26.3c0,2-0.1,3.3-0.3,3.7c-0.3,0.7-0.7,1.1-1.2,1.4c-0.7,0.4-1.6,0.6-2.8,0.6h-1.3v1h34.4l1.8-12.7h-1.1
	C74.5,32,72.9,34.7,70.7,36.4z M319.5,4.5c-1.3-0.6-3.4-0.8-6.4-0.8v29.4c0,1.5,0.1,2.4,0.2,2.8c0.1,0.3,0.4,0.6,0.7,0.8
	c0.5,0.3,1.2,0.4,2.1,0.4c3,0,5.3-1,6.9-3.1c2.1-2.8,3.2-7.4,3.2-13.3c0-4.7-0.7-8.4-2.2-11.3C322.8,7.3,321.3,5.3,319.5,4.5z
	 M321.7,33c-1.3,1.7-3.1,2.5-5.6,2.5c-0.9,0-1.2-0.2-1.3-0.2l0,0c0-0.2-0.1-0.7-0.1-2.2V5.3c2.4,0.1,3.6,0.4,4.2,0.7
	c1.5,0.7,2.7,2.4,3.7,4.3c1.3,2.6,2,6.1,2,10.5C324.6,26.1,323.6,30.5,321.7,33z M334.8,9.7c-1.8-3.2-4.6-6.2-8.1-7.8
	c-2.9-1.3-6.6-1.9-11.2-1.9H299h-4l-0.2,1.4c-0.1,0.8-0.3,1-0.4,1.1s-0.2,0.2-0.4,0.2c-0.1,0-0.6-0.1-2.6-0.9c-3-1.2-6-1.8-8.7-1.8
	c-3.7,0-7.3,0.9-10.6,2.8c-3.3,1.9-6,4.5-8,7.9s-3,7-3,10.7c0,3.6,0.9,7,2.7,10.1c1.8,3.2,4.4,5.7,7.7,7.4c3.2,1.7,7,2.5,11.1,2.5
	c3.2,0,6-0.5,8.4-1.6c2.4-1,4.7-2.7,6.9-5l0.4-0.5v-8.1l-2.8,3.3c-2,2.3-3.9,3.9-5.6,4.8c-1.7,0.9-3.5,1.3-5.6,1.3
	c-2.4,0-4.4-0.6-5.8-1.7c-1.5-1.2-2.6-2.9-3.3-5.3c-0.8-2.5-1.2-5.4-1.2-8.5s0.5-5.9,1.6-8.4c0.8-1.9,1.9-3.3,3.6-4.4
	c1.6-1.1,3.4-1.7,5.4-1.7c2.4,0,4.4,0.7,6.3,2.3c1.9,1.5,3.2,3.8,3.9,6.8l0.3,1.2h3.9V4.1h1.3c0.9,0,1.4,0.2,1.6,0.3
	c0.4,0.2,0.5,0.4,0.5,0.5s0.2,1.6,0.2,3.8v24.1c0,2-0.1,2.6-0.1,2.8c-0.1,0.2-0.3,0.4-0.6,0.6c-0.2,0.1-0.6,0.3-1.6,0.3h-2.8v4.1h18
	c2.5,0,4.3-0.1,5.5-0.4c2.6-0.5,4.9-1.2,6.7-2.1c1.9-0.9,3.6-2.2,5-3.7c1.4-1.6,2.6-3.5,3.5-5.9c0.9-2.3,1.3-5.3,1.3-8
	C337.6,16.5,336.6,12.9,334.8,9.7z M297.5,14.4h-1c-0.8-3.3-2.3-5.9-4.4-7.6c-2.2-1.8-4.6-2.6-7.3-2.6c-2.3,0-4.4,0.7-6.3,2
	s-3.3,3-4.2,5.1c-1.1,2.7-1.7,5.7-1.7,9.1c0,3.3,0.4,6.2,1.2,8.9c0.8,2.7,2.1,4.7,3.9,6.1s4,2.1,6.8,2.1c2.3,0,4.4-0.5,6.3-1.5
	s3.9-2.7,6-5.2V34c-2,2.1-4.2,3.7-6.4,4.7c-2.2,1-4.8,1.4-7.8,1.4c-3.9,0-7.4-0.8-10.4-2.3c-3-1.6-5.4-3.8-7-6.7s-2.5-6-2.5-9.4
	c0-3.5,0.9-6.8,2.7-9.9c1.8-3.1,4.3-5.6,7.4-7.3s6.4-2.6,9.9-2.6c2.6,0,5.3,0.6,8.1,1.7c1.7,0.6,2.7,1,3.2,1c0.6,0,1.1-0.2,1.5-0.6
	c0.4-0.4,0.7-1.1,0.8-2h1v12.4H297.5z M334.7,28c-0.8,2.2-1.9,4-3.2,5.4c-1.3,1.4-2.8,2.5-4.5,3.4s-3.8,1.5-6.3,2
	c-1.1,0.2-2.8,0.3-5.2,0.3h-16.3v-0.9h1.2c1.1,0,1.9-0.2,2.4-0.5c0.6-0.3,1-0.8,1.2-1.4c0.2-0.4,0.2-1.5,0.2-3.4V8.8
	c0-1.9-0.1-3.9-0.3-4.4c-0.2-0.5-0.6-0.9-1.2-1.2c-0.6-0.4-1.4-0.5-2.4-0.5h-1.2V1.6h16.4c4.4,0,7.9,0.6,10.5,1.8
	c3.2,1.5,5.7,4.1,7.4,7.1c1.7,2.9,2.5,6.3,2.5,10C336,23.1,335.5,25.8,334.7,28z"/>
</svg>
