<?xml version="1.0" encoding="utf-8"?>
<!-- Generator: Adobe Illustrator 16.0.0, SVG Export Plug-In . SVG Version: 6.00 Build 0)  -->
<!DOCTYPE svg PUBLIC "-//W3C//DTD SVG 1.1//EN" "http://www.w3.org/Graphics/SVG/1.1/DTD/svg11.dtd">
<svg version="1.1" id="Layer_1" xmlns="http://www.w3.org/2000/svg" xmlns:xlink="http://www.w3.org/1999/xlink" x="0px" y="0px"
	 width="2426.589px" height="1003.512px" viewBox="36.767 748.133 2426.589 1003.512"
	 enable-background="new 36.767 748.133 2426.589 1003.512" xml:space="preserve">
<path d="M1257.471,857.639c16.506,0.771,32.271,7.076,44.759,17.898c17.016,16.108,21.478,42.969,13.424,64.46
	c-31.31,64.446-105.769,107.493-156.649,121.733c-30.439,7.16-68.921,7.16-96.677-3.579c-13.437,8.054-24.772,34.084-41.179,23.268
	c-23.748-18.547-3.19-47.573-16.899-68.169c-2.827-4.241-9.948-4.553-13.527-11.491c-18.807-41.179,4.475-80.568,30.427-111.891
	C1064.416,841.595,1188.549,787.81,1257.471,857.639L1257.471,857.639z M1113.351,889.855c-24.176,4.475-51.478,14.993-66.236,32.23
	c-14.772,17.224-24.163,34.02-15.214,51.917c31.335-23.268,46.549-55.497,81.463-75.186
	C1113.351,895.225,1118.72,892.54,1113.351,889.855z M1259.273,898.817c-61.775-5.382-108.323,41.18-152.188,85.925
	c-2.685,7.159-18.793,15.214-6.264,23.268c59.09,5.37,115.482-11.621,158.451-51.022c12.542-11.634,21.465-26.848,15.227-42.969
	C1271.815,907.767,1265.499,901.502,1259.273,898.817z M1794.549,1165.566c28.65,69.83,52.813,179.917,0,247.062
	c-14.318,16.108-39.377,30.959-55.484,18.793c-59.091-47.431-84.136-115.47-120.84-176.35c-5.369-2.685-5.369,4.487-8.055,7.172
	c-13.424,61.763,11.635,142.33-30.427,190.655c-16.108,2.686-31.179-5.603-36.704-21.478
	c-20.596-63.552,0.869-129.802,6.238-193.354c12.542-32.229,17.911-69.815,45.666-93.991
	c44.759,17.897,66.236,68.039,92.177,104.743c18.819,27.742,34.02,59.077,55.497,84.135c18.794-8.054,9.546-32.618,8.963-47.443
	c-7.186-58.182-23.294-111.89-38.521-167.388c-0.869-14.318-8.923-38.494,6.265-47.443
	C1759.66,1088.591,1776.637,1130.652,1794.549,1165.566z M1524.22,1144.076c0,13.437-10.739,30.22-19.714,32.229
	c-85.925,13.424-181.707,5.37-262.262,32.217c-2.685,9.845,8.949,11.634,15.214,14.319c68.908,10.738,141.435,13.423,208.579,30.439
	c35.498,9.014,48.352,51.036,51.036,85.938c1.647,27.522-8.937,60.867-35.81,79.674c-66.224,42.073-167.375,40.271-234.532,1.803
	c-25.667-14.396-50.128-37.587-51.918-66.237c0.155-22.749,9.857-40.66,25.966-49.232c64.46-25.966,144.12-11.621,199.631,21.478
	c3.554,17.911-15.823,16.938-25.097,23.28c-61.775,35.81-108.311-40.258-165.599-12.541c-8.054,5.369-13.877,20.349-4.475,25.07
	c70.712,31.335,149.49,8.949,219.307-10.739c8.054-2.685,17.911-10.739,18.793-18.793c-2.685-28.65-34.902-34.901-55.498-42.956
	c-60.867-15.214-127.998-15.214-193.353-21.478c-12.529-2.685-28.495-11.414-32.218-21.479c-7.159-21.478-7.159-51.022,8.949-68.921
	c83.24-73.409,209.449-67.132,315.075-47.443C1513.468,1133.337,1521.521,1136.021,1524.22,1144.076L1524.22,1144.076z
	 M1133.052,1178.096c8.054,85.925,12.528,165.611,10.739,256.01c-1.79,11.621-15.214,14.318-24.163,18.793
	c-14.318,2.686-32.826-0.362-38.494-8.054c-20.583-33.138-13.424-77.87-15.214-118.154c2.686-63.539,1.79-132.474,19.701-191.563
	c3.424-8.586,13.424-16.108,21.479-10.752C1128.577,1135.127,1132.156,1156.617,1133.052,1178.096L1133.052,1178.096z
	 M2127.573,1165.566c4.306,7.237,8.807,18.417,0,23.268c-40.284,17.898-94.874,9.845-141.436,15.214
	c-12.528,10.739-22.386,28.638-17.924,44.759c4.5,2.685,8.508,6.771,13.449,6.252c28.624,1.803,71.606-13.424,90.426,13.423
	c4.591,7.989-0.623,37.82-13.424,38.495c-34.928,4.5-92.358-4.384-109.231,4.5c-21.479,14.318-19.701,42.061-27.756,64.46
	c15.227,9.844,31.167-0.233,49.221-2.698c33.15-5.369,69.855-15.213,102.954-8.054c6.265,11.634,15.227,24.176,8.949,38.494
	c-56.432,44.759-129.218,90.633-206.765,58.183c-29.104-13.048-42.073-57.288-32.217-94.861
	c6.252-26.86,33.994-52.813,17.004-81.463c-2.685-12.542,4.487-23.268,15.227-25.952c29.532,0,23.255-36.705,38.48-53.721
	c-17.003-18.794-59.959-17.898-55.484-55.498c20.596-10.739,45.667-7.159,68.908-10.739
	c52.813-10.752,111.891-17.016,165.638-10.752C2104.293,1131.028,2118.624,1152.143,2127.573,1165.566z M849.286,961.475
	c82.604,67.521,189.773,182.614,176.35,315.088c-16.121,104.743-127.116,183.509-221.108,208.579
	c-91.307,26.848-205.882,24.163-298.992,2.685c-6.264,17.017-12.528,37.587-32.217,44.759c-12.528,4.475-28.65,1.79-38.494-6.265
	c-27.742-25.965-5.369-76.093-45.653-92.188c-78.778-33.125-163.821-98.479-204.092-179.035
	c-5.37-16.108,0.895-32.217,10.739-44.745c61.775-49.233,139.646-68.922,217.529-84.148c4.475,1.79,2.685-4.475,6.265-6.264
	c4.475-53.708,6.264-108.324,23.268-156.662c3.878-6.783,13.424-8.949,19.701-4.475c49.232,37.586,25.952,108.323,47.443,159.334
	c93.991,4.475,187.983,8.949,262.274,61.774c25.07,20.583,31.179,59.895,23.268,82.358c-7.898,22.425-34.007,38.494-58.183,40.258
	c-16.121,0-46.549,1.569-44.759-10.726c1.79-12.309,54.759-32.45,38.495-49.246c-23.385-24.138-140.385-38.495-212.899-47.443
	c-8.949-1.79-17.159,0.895-17.159,10.738c-1.789,68.026-7.159,143.212,4.475,208.58c0.896,4.487,6.265,9.857,10.752,10.726
	c127.999,20.597,263.17,8.949,363.426-64.446c46.549-37.573,61.775-90.425,53.708-148.595
	c-40.284-162.019-209.462-259.603-348.212-322.26c-135.158-59.077-284.661-89.518-444.889-81.45
	c-25.511,1.868-65.938,10.675-66.236,19.701c-0.298,9.027,45.796,6.187,40.271,23.268c-5.512,17.068-52.359,6.939-66.237,2.685
	c-13.877-4.254-12.529-24.175-8.949-36.704c34.915-61.762,132.343-66.755,176.35-68.921
	C458.987,742.156,694.428,834.877,849.286,961.475L849.286,961.475z M410.662,1201.376c-61.775,0.896-127.117,7.159-184.404,28.638
	c-11.634,4.475-25.966,17.003-17.017,32.229c23.268,31.322,56.548,57.041,87.728,75.186c31.179,18.119,72.514,41.18,110.113,46.562
	c8.949-58.195,8.949-115.482,8.055-175.455C411.544,1206.746,415.123,1203.166,410.662,1201.376L410.662,1201.376z
	 M2260.928,1119.913c-2.685,77.87-75.211,126.222-75.211,204.093c2.685,2.685,4.5,6.264,8.055,4.5
	c58.208-63.564,115.482-153.977,200.525-180.824c22.411-1.79,42.657,17.678,51.035,32.229
	c29.545,59.077,22.412,142.33-18.779,196.038c-42.502,52.723-116.391,105.626-200.5,96.664
	c-34.901,85.938-59.116,176.35-72.54,270.342c-7.159,18.793-24.149,1.789-34.889-1.79c-72.501-57.288-12.97-208.943-8.054-228.294
	c4.915-19.299,24.318-64.822,38.507-102.94c-34.021-60.854-12.542-134.276,15.2-190.669c21.479-37.6,51.049-75.198,85.951-103.836
	C2254.664,1115.438,2258.243,1116.334,2260.928,1119.913L2260.928,1119.913z M2405.074,1216.59
	c-10.739-1.79-15.227,12.542-24.163,15.227c-41.166,46.549-82.357,93.097-102.954,148.595c27.769,3.579,51.023-14.318,75.212-24.163
	c41.166-25.965,67.132-68.908,64.446-118.154C2415.813,1230.014,2408.653,1223.749,2405.074,1216.59L2405.074,1216.59z"/>
</svg>
