<?xml version="1.0" encoding="utf-8"?>
<!-- Generator: Adobe Illustrator 16.0.0, SVG Export Plug-In . SVG Version: 6.00 Build 0)  -->
<!DOCTYPE svg PUBLIC "-//W3C//DTD SVG 1.1//EN" "http://www.w3.org/Graphics/SVG/1.1/DTD/svg11.dtd">
<svg version="1.1" id="Layer_1" xmlns="http://www.w3.org/2000/svg" xmlns:xlink="http://www.w3.org/1999/xlink" x="0px" y="0px"
	 width="3311px" height="1003.51px" viewBox="-405.437 748.135 3311 1003.51"
	 enable-background="new -405.437 748.135 3311 1003.51" xml:space="preserve">
<path d="M1257.47,857.639c16.506,0.771,32.271,7.076,44.76,17.898c17.016,16.107,21.479,42.969,13.424,64.46
	c-31.311,64.446-105.769,107.493-156.649,121.733c-30.438,7.159-68.921,7.159-96.677-3.579
	c-13.438,8.054-24.772,34.084-41.18,23.268c-23.748-18.547-3.189-47.573-16.898-68.169c-2.827-4.241-9.948-4.553-13.527-11.491
	c-18.807-41.179,4.476-80.567,30.428-111.891C1064.416,841.595,1188.549,787.81,1257.47,857.639L1257.47,857.639z M1113.351,889.855
	c-24.176,4.475-51.478,14.992-66.235,32.229c-14.772,17.224-24.163,34.021-15.214,51.917c31.335-23.268,46.549-55.497,81.463-75.186
	C1113.351,895.225,1118.72,892.54,1113.351,889.855z M1259.273,898.817c-61.775-5.383-108.323,41.18-152.188,85.925
	c-2.685,7.159-18.793,15.214-6.264,23.268c59.09,5.37,115.481-11.621,158.45-51.021c12.543-11.634,21.467-26.849,15.229-42.969
	C1271.814,907.767,1265.5,901.502,1259.273,898.817z M1794.548,1165.566c28.65,69.83,52.813,179.917,0,247.062
	c-14.318,16.108-39.377,30.959-55.484,18.793c-59.09-47.431-84.135-115.47-120.84-176.35c-5.369-2.686-5.369,4.487-8.055,7.172
	c-13.424,61.763,11.635,142.33-30.426,190.655c-16.109,2.686-31.18-5.604-36.705-21.479c-20.596-63.552,0.869-129.802,6.238-193.354
	c12.541-32.229,17.91-69.815,45.666-93.991c44.76,17.896,66.236,68.039,92.178,104.743c18.818,27.742,34.02,59.077,55.496,84.135
	c18.795-8.054,9.547-32.618,8.963-47.443c-7.186-58.182-23.293-111.89-38.521-167.388c-0.869-14.318-8.922-38.494,6.266-47.443
	C1759.66,1088.591,1776.636,1130.652,1794.548,1165.566z M1524.22,1144.076c0,13.437-10.74,30.22-19.715,32.229
	c-85.924,13.424-181.707,5.37-262.262,32.218c-2.686,9.845,8.949,11.634,15.215,14.318c68.908,10.738,141.434,13.423,208.578,30.439
	c35.498,9.014,48.352,51.036,51.037,85.938c1.646,27.522-8.938,60.867-35.811,79.674c-66.225,42.073-167.375,40.271-234.533,1.804
	c-25.666-14.396-50.127-37.588-51.917-66.237c0.155-22.749,9.857-40.66,25.966-49.232c64.461-25.966,144.119-11.62,199.631,21.479
	c3.555,17.911-15.822,16.938-25.098,23.28c-61.773,35.81-108.311-40.259-165.598-12.541c-8.055,5.369-13.877,20.349-4.475,25.069
	c70.711,31.335,149.488,8.949,219.307-10.739c8.053-2.685,17.91-10.738,18.793-18.793c-2.686-28.649-34.902-34.9-55.498-42.955
	c-60.867-15.215-127.998-15.215-193.354-21.479c-12.529-2.686-28.495-11.414-32.218-21.479c-7.159-21.479-7.159-51.022,8.949-68.922
	c83.24-73.408,209.449-67.132,315.076-47.442C1513.468,1133.337,1521.521,1136.021,1524.22,1144.076L1524.22,1144.076z
	 M1133.052,1178.096c8.054,85.926,12.528,165.611,10.739,256.01c-1.79,11.621-15.214,14.318-24.163,18.793
	c-14.317,2.687-32.826-0.361-38.494-8.054c-20.583-33.138-13.424-77.87-15.214-118.153c2.687-63.539,1.79-132.475,19.701-191.563
	c3.424-8.586,13.424-16.108,21.479-10.752C1128.577,1135.127,1132.156,1156.617,1133.052,1178.096L1133.052,1178.096z
	 M2127.574,1165.566c4.305,7.236,8.807,18.417,0,23.268c-40.285,17.898-94.875,9.845-141.438,15.214
	c-12.527,10.739-22.385,28.638-17.924,44.759c4.5,2.686,8.508,6.771,13.449,6.252c28.625,1.804,71.605-13.424,90.426,13.424
	c4.592,7.988-0.623,37.819-13.424,38.494c-34.928,4.5-92.357-4.384-109.23,4.5c-21.479,14.318-19.701,42.062-27.756,64.46
	c15.227,9.845,31.166-0.232,49.221-2.697c33.15-5.369,69.855-15.214,102.953-8.055c6.266,11.635,15.229,24.177,8.949,38.494
	c-56.432,44.759-129.217,90.634-206.766,58.184c-29.104-13.048-42.072-57.288-32.217-94.861
	c6.252-26.86,33.994-52.813,17.004-81.463c-2.684-12.542,4.488-23.269,15.229-25.952c29.531,0,23.254-36.705,38.479-53.721
	c-17.002-18.794-59.959-17.898-55.482-55.498c20.596-10.739,45.666-7.159,68.906-10.739
	c52.814-10.752,111.893-17.016,165.639-10.752C2104.292,1131.028,2118.625,1152.143,2127.574,1165.566z M849.286,961.475
	c82.604,67.521,189.772,182.614,176.35,315.088c-16.121,104.743-127.116,183.51-221.107,208.579
	c-91.308,26.849-205.882,24.163-298.992,2.686c-6.265,17.017-12.528,37.587-32.217,44.759c-12.528,4.475-28.65,1.79-38.494-6.265
	c-27.742-25.965-5.369-76.093-45.653-92.188c-78.778-33.125-163.821-98.479-204.092-179.035
	c-5.37-16.107,0.895-32.217,10.739-44.744c61.775-49.233,139.646-68.923,217.529-84.148c4.476,1.79,2.686-4.475,6.266-6.264
	c4.475-53.708,6.264-108.324,23.268-156.662c3.878-6.783,13.424-8.949,19.701-4.476c49.232,37.586,25.952,108.323,47.443,159.334
	c93.99,4.476,187.982,8.949,262.273,61.774c25.07,20.583,31.18,59.895,23.268,82.358c-7.897,22.425-34.007,38.493-58.183,40.258
	c-16.121,0-46.549,1.569-44.759-10.726c1.79-12.31,54.759-32.45,38.495-49.246c-23.385-24.139-140.385-38.495-212.899-47.443
	c-8.949-1.79-17.158,0.895-17.158,10.738c-1.789,68.025-7.159,143.212,4.475,208.58c0.896,4.486,6.265,9.856,10.752,10.726
	c127.999,20.597,263.17,8.949,363.426-64.446c46.549-37.572,61.775-90.425,53.708-148.595
	c-40.284-162.019-209.462-259.603-348.212-322.26c-135.158-59.077-284.661-89.519-444.889-81.45
	c-25.511,1.868-65.938,10.675-66.236,19.701s45.796,6.187,40.271,23.268c-5.512,17.068-52.359,6.939-66.237,2.686
	c-13.877-4.254-12.529-24.176-8.949-36.704c34.915-61.763,132.343-66.755,176.35-68.921
	C458.987,742.156,694.428,834.877,849.286,961.475L849.286,961.475z M410.662,1201.376c-61.775,0.896-127.117,7.159-184.404,28.638
	c-11.634,4.476-25.966,17.003-17.017,32.229c23.268,31.321,56.548,57.041,87.728,75.186c31.179,18.119,72.514,41.181,110.113,46.563
	c8.949-58.195,8.949-115.482,8.055-175.455C411.544,1206.746,415.123,1203.166,410.662,1201.376L410.662,1201.376z
	 M2260.927,1119.913c-2.684,77.87-75.211,126.222-75.211,204.093c2.686,2.686,4.5,6.264,8.055,4.5
	c58.209-63.563,115.482-153.977,200.525-180.824c22.412-1.79,42.658,17.679,51.035,32.229
	c29.545,59.077,22.412,142.33-18.779,196.038c-42.502,52.723-116.391,105.626-200.5,96.664
	c-34.9,85.938-59.115,176.35-72.539,270.342c-7.16,18.793-24.15,1.789-34.889-1.79c-72.502-57.288-12.971-208.943-8.055-228.294
	c4.914-19.299,24.318-64.822,38.508-102.939c-34.021-60.854-12.543-134.276,15.199-190.67c21.479-37.6,51.049-75.197,85.951-103.836
	C2254.664,1115.438,2258.244,1116.334,2260.927,1119.913L2260.927,1119.913z M2405.074,1216.59
	c-10.738-1.79-15.227,12.542-24.162,15.228c-41.166,46.549-82.357,93.097-102.955,148.595c27.77,3.579,51.023-14.318,75.213-24.163
	c41.166-25.965,67.131-68.908,64.445-118.154C2415.812,1230.014,2408.654,1223.749,2405.074,1216.59L2405.074,1216.59z"/>
</svg>
