<?xml version="1.0" encoding="utf-8"?>
<!-- Generator: Adobe Illustrator 16.0.0, SVG Export Plug-In . SVG Version: 6.00 Build 0)  -->
<!DOCTYPE svg PUBLIC "-//W3C//DTD SVG 1.1//EN" "http://www.w3.org/Graphics/SVG/1.1/DTD/svg11.dtd">
<svg version="1.1"
	 id="svg2" xmlns:dc="http://purl.org/dc/elements/1.1/" xmlns:cc="http://creativecommons.org/ns#" xmlns:rdf="http://www.w3.org/1999/02/22-rdf-syntax-ns#" xmlns:svg="http://www.w3.org/2000/svg" xmlns:sodipodi="http://sodipodi.sourceforge.net/DTD/sodipodi-0.dtd" xmlns:inkscape="http://www.inkscape.org/namespaces/inkscape" sodipodi:docname="MSX-Logo.svg" inkscape:version="0.47 r22583"
	 xmlns="http://www.w3.org/2000/svg" xmlns:xlink="http://www.w3.org/1999/xlink" x="0px" y="0px" width="774px" height="234.744px"
	 viewBox="-102 -4 774 234.744" enable-background="new -102 -4 774 234.744" xml:space="preserve">
<defs>
	
	
		<inkscape:perspective  id="perspective10" sodipodi:type="inkscape:persp3d" inkscape:vp_z="744.09448 : 526.18109 : 1" inkscape:vp_y="0 : 1000 : 0" inkscape:vp_x="0 : 526.18109 : 1" inkscape:persp3d-origin="372.04724 : 350.78739 : 1">
		</inkscape:perspective>
	
		<inkscape:perspective  id="perspective2824" sodipodi:type="inkscape:persp3d" inkscape:vp_z="1 : 0.5 : 1" inkscape:vp_y="0 : 1000 : 0" inkscape:vp_x="0 : 0.5 : 1" inkscape:persp3d-origin="0.5 : 0.33333333 : 1">
		</inkscape:perspective>
</defs>
<sodipodi:namedview  showgrid="false" inkscape:cy="142.45913" inkscape:cx="125.21669" inkscape:zoom="2" borderopacity="1.0" bordercolor="#666666" pagecolor="#ffffff" id="base" inkscape:window-maximized="1" inkscape:window-y="-4" inkscape:window-x="-4" inkscape:current-layer="layer1" inkscape:pageshadow="2" inkscape:pageopacity="0.0" inkscape:window-height="968" inkscape:window-width="1280" inkscape:document-units="px">
	</sodipodi:namedview>
<rect id="rect3604" x="1.536" y="-4" fill="#003E99" width="566.928" height="234.744"/>
<path id="path2830" sodipodi:nodetypes="cccccccccccccccccccccccccccccccccccc" fill="#FFFFFF" d="M38.726,197.467L81.79,27.956
	h39.932l20.749,73.991l21.531-73.991h37.583l35.233,124.883l85.965-0.162c9.022-0.088,9.577-18.748-0.669-18.744l-50.063-0.668
	c-21.497,0.207-44.167-23.05-43.063-54.023c0.229-28.412,25.004-50.786,56.698-50.778l127.689-0.114l32.494,44.238l31.709-44.629
	l52.85,0.392l-57.938,81.428l62.637,88.292l-52.572-0.16l-36.457-50.662l-34.68,50.662l-53.633-0.049l61.072-87.299l-26.623-38.757
	l-110.999,0.162c-12.114,0.111-11.669,19.169,0.095,18.812l46.768,0.716c19.768,0.127,47.604,20.668,46.912,52.735
	c0.301,37.279-33.275,54.313-49.441,53.401l-122.419,0.163l-20.357-76.271l-20.357,76.108h-38.644l-21.255-75.718L83.86,197.746
	L38.726,197.467z"/>
</svg>
