<?xml version="1.0" encoding="utf-8"?>
<!-- Generator: Adobe Illustrator 16.0.0, SVG Export Plug-In . SVG Version: 6.00 Build 0)  -->
<!DOCTYPE svg PUBLIC "-//W3C//DTD SVG 1.1//EN" "http://www.w3.org/Graphics/SVG/1.1/DTD/svg11.dtd">
<svg version="1.1" id="Layer_1" xmlns="http://www.w3.org/2000/svg" xmlns:xlink="http://www.w3.org/1999/xlink" x="0px" y="0px"
	 width="2500px" height="366px" viewBox="0 0 2500 366" enable-background="new 0 0 2500 366" xml:space="preserve">
<path fill="#FFFFFF" d="M539.216,132.095c-72.713-0.189-132.353,22.247-132.039,49.02c-0.313,28.407,59.326,50.78,132.039,49.02
	c74.598,1.76,134.238-20.613,135.746-49.02C673.454,154.342,613.813,131.906,539.216,132.095z M539.216,207.51
	c-54.299,0.943-99.045-10.936-98.039-26.395c-1.006-13.826,43.74-25.704,98.039-26.396c56.121,0.628,100.867,12.506,101.81,26.396
	C640.083,196.574,595.399,208.453,539.216,207.51z"/>
<path fill="#FFFFFF" d="M539.216,64.222c177.853-1.697,327.803,32.617,380.845,79.186h150.829
	C1020.236,61.457,801.91-1.389,539.216,0.119C241.013-1.389-1.445,80.688,0,181.115c-1.445,102.061,241.013,184.137,539.216,184.766
	c263.763-0.691,482.843-64.039,531.674-147.059H920.061c-49.02,48.266-200.604,82.516-380.845,82.956
	c-218.452-0.44-396.242-53.922-395.928-120.664C142.974,115.944,320.764,62.462,539.216,64.222z"/>
<path fill="#FFFFFF" d="M1542.232,26.514h-441.177v324.284h441.177c249.748,1.257,449.912-60.897,448.718-162.142
	C1992.082,85.652,1789.97,25.446,1542.232,26.514z M1542.232,290.529v-0.063H1225.49V86.846h316.805
	c172.637-0.314,313.789,34.188,312.908,101.81C1856.021,254.581,1714.869,290.969,1542.232,290.529z"/>
<polygon fill="#FF0000" points="2051.282,245.217 2319.005,199.969 2051.282,154.72 "/>
<rect x="2390.648" y="26.514" fill="#FFFFFF" width="109.352" height="75.415"/>
<rect x="2390.648" y="135.866" fill="#FFFFFF" width="109.352" height="218.703"/>
</svg>
