<?xml version="1.0" encoding="utf-8"?>
<!-- Generator: Adobe Illustrator 16.0.0, SVG Export Plug-In . SVG Version: 6.00 Build 0)  -->
<!DOCTYPE svg PUBLIC "-//W3C//DTD SVG 1.1//EN" "http://www.w3.org/Graphics/SVG/1.1/DTD/svg11.dtd">
<svg version="1.1" id="Layer_1" xmlns="http://www.w3.org/2000/svg" xmlns:xlink="http://www.w3.org/1999/xlink" x="0px" y="0px"
	 width="1957px" height="2500px" viewBox="0 0 1957 2500" enable-background="new 0 0 1957 2500" xml:space="preserve">
<path d="M529.751,0.038c-12.637,0.39-26.244,5.061-41.686,17.238C450.263,2.699,413.584-2.37,380.797,27.314
	c-50.629-6.567-67.081,6.987-79.549,22.811c-11.115-0.229-83.165-11.428-116.212,37.863
	c-83.035-9.823-109.279,48.841-79.542,103.553c-16.963,26.251-34.538,52.189,5.122,102.246
	c-14.027,27.872-5.328,58.113,27.719,94.708c-8.715,39.193,8.424,66.836,39.178,88.386c-5.756,53.627,49.177,84.809,65.575,95.916
	c6.299,31.243,19.425,60.736,82.164,77.034c10.351,46.57,48.054,54.612,84.571,64.382
	c-120.684,70.154-224.176,162.446-223.473,388.916l-17.682,31.533c-138.381,84.151-262.88,354.63-68.189,574.472
	c12.713,68.815,34.042,118.245,53.03,172.95c28.399,220.438,213.756,323.661,262.65,335.869
	c71.638,54.567,147.938,106.344,251.2,142.617c97.322,100.38,202.771,138.641,308.793,138.58c1.56,0,216.164-38.192,313.502-138.58
	c103.247-36.273,179.547-88.05,251.199-142.617c48.88-12.208,234.236-115.432,262.636-335.869
	c18.988-54.705,40.317-104.135,53.037-172.95c194.676-219.864,70.186-490.351-68.188-574.502l-17.712-31.534
	c0.703-226.446-102.789-318.746-223.473-388.915c36.51-9.77,74.229-17.812,84.563-64.382c62.738-16.307,75.872-45.791,82.163-77.034
	c16.405-11.107,71.331-42.29,65.59-95.916c30.739-21.55,47.886-49.2,39.163-88.386c33.056-36.595,41.747-66.837,27.72-94.716
	c39.675-50.026,22.069-75.963,5.129-102.215c29.723-54.712,3.494-113.384-79.572-103.553
	c-33.023-49.292-105.066-38.101-116.211-37.871c-12.461-15.816-28.912-29.371-79.542-22.804
	c-32.787-29.684-69.45-24.623-107.268-10.037c-44.904-35.433-74.611-7.033-108.553,3.708c-54.368-17.766-66.806,6.566-93.516,16.481
	c-59.291-12.529-77.31,14.747-105.724,43.536l-33.07-0.657c-89.426,52.701-133.855,160.015-149.604,215.186
	c-15.748-55.179-60.078-162.492-149.489-215.186l-33.063,0.657c-28.46-28.789-46.471-56.065-105.762-43.536
	c-26.718-9.915-39.103-34.247-93.516-16.481c-22.276-7.048-42.764-21.695-66.882-20.946"/>
<path fill="#75A928" d="M351.709,231.889c237.255,122.32,375.186,221.271,450.752,305.544
	c-38.696,155.1-240.573,162.179-314.39,157.829c15.113-7.033,27.728-15.465,32.199-28.407
	c-18.522-13.164-84.197-1.392-130.049-27.146c17.613-3.654,25.854-7.209,34.087-20.205c-43.314-13.813-89.976-25.724-117.42-48.611
	c14.808,0.184,28.637,3.317,47.977-10.099c-38.796-20.907-80.199-37.48-112.367-69.442c20.059-0.489,41.686-0.199,47.977-7.576
	c-35.509-22.001-65.476-46.463-90.274-73.227c28.071,3.387,39.927,0.474,46.716-4.419c-26.848-27.497-60.82-50.714-77.019-84.594
	c20.839,7.186,39.912,9.938,53.657-0.627c-9.12-20.58-48.199-32.719-70.704-80.811c21.947,2.133,45.217,4.785,49.873,0
	c-10.182-41.495-27.658-64.826-44.797-88.998c46.96-0.695,118.116,0.184,114.897-3.784l-29.042-29.668
	c45.875-12.354,92.812,1.98,126.892,12.621c15.297-12.071-0.275-27.337-18.943-42.924c38.987,5.206,74.213,14.165,106.061,26.511
	c17.009-15.357-11.047-30.723-24.623-46.081c60.231,11.421,85.748,27.482,111.105,43.559c18.4-17.636,1.055-32.627-11.359-47.977
	c45.416,16.818,68.808,38.536,93.431,59.971c8.349-11.268,21.214-19.532,5.681-46.716c32.244,18.584,56.531,40.486,74.495,65.024
	c19.952-12.705,11.888-30.073,11.995-46.089c33.514,27.261,54.78,56.271,80.81,84.595c5.244-3.822,9.831-16.765,13.891-37.244
	c79.938,77.554,192.901,272.909,29.034,350.364c-139.46-115.02-306.019-198.628-490.596-261.344L351.709,231.889 M1610.596,231.889
	c-237.225,122.335-375.155,221.255-450.714,305.544c38.696,155.1,240.565,162.179,314.382,157.829
	c-15.113-7.033-27.728-15.465-32.191-28.407c18.522-13.164,84.197-1.392,130.041-27.146c-17.613-3.654-25.846-7.209-34.087-20.205
	c43.321-13.813,89.983-25.724,117.42-48.611c-14.808,0.184-28.637,3.317-47.978-10.099c38.805-20.907,80.207-37.48,112.375-69.442
	c-20.066-0.489-41.693-0.199-47.977-7.576c35.508-22.001,65.475-46.463,90.273-73.227c-28.078,3.387-39.928,0.474-46.715-4.419
	c26.84-27.497,60.819-50.714,77.018-84.594c-20.846,7.186-39.919,9.938-53.664-0.627c9.12-20.58,48.207-32.719,70.704-80.811
	c-21.939,2.133-45.218,4.785-49.873,0c10.206-41.51,27.681-64.841,44.82-89.013c-46.96-0.696-118.116,0.184-114.897-3.784
	l29.041-29.676c-45.875-12.346-92.812,1.988-126.891,12.629c-15.297-12.071,0.268-27.337,18.936-42.924
	c-38.98,5.198-74.213,14.166-106.053,26.511c-17.018-15.358,11.046-30.723,24.623-46.081
	c-60.231,11.421-85.749,27.482-111.113,43.559c-18.4-17.636-1.048-32.627,11.367-47.977c-45.416,16.818-68.809,38.536-93.432,59.971
	c-8.355-11.268-21.214-19.532-5.688-46.716c-32.237,18.584-56.523,40.485-74.488,65.024c-19.952-12.705-11.887-30.081-11.994-46.089
	c-33.514,27.26-54.781,56.264-80.811,84.594c-5.244-3.822-9.831-16.764-13.891-37.251
	c-79.938,77.561-192.901,272.917-29.033,350.372c139.383-115.05,305.934-198.643,490.519-261.359H1610.596"/>
<path fill="#BC1142" d="M1268.48,1811.242c0.825,144.733-125.745,262.681-282.695,263.438
	c-156.957,0.765-284.865-115.944-285.691-260.679c-0.008-0.92-0.008-1.84,0-2.76c-0.825-144.726,125.737-262.673,282.695-263.438
	c156.957-0.765,284.857,115.944,285.691,260.679V1811.242 M819.846,1062.62c117.756,77.156,138.984,252.033,47.411,390.598
	c-91.574,138.572-261.267,188.369-379.023,111.22c-117.756-77.156-138.978-252.032-47.411-390.597
	C532.396,1035.269,702.089,985.472,819.846,1062.62 M1137.675,1048.654c-117.749,77.148-138.978,252.032-47.411,390.597
	c91.573,138.572,261.267,188.369,379.023,111.213c117.756-77.148,138.984-252.024,47.411-390.598
	C1425.132,1021.302,1255.438,971.505,1137.675,1048.654 M231.308,1188.755c127.136-34.079,42.924,525.967-60.521,480.016
	C56.998,1577.25,20.35,1309.226,231.308,1188.755 M1700.549,1181.775c-127.151-34.071-42.924,525.998,60.521,480.047
	C1874.859,1570.294,1911.508,1302.238,1700.549,1181.775 M1268.579,764.713c219.406-37.045,401.973,93.31,394.604,331.223
	C1655.966,1187.15,1187.746,778.298,1268.579,764.713 M662.368,757.733c-219.421-37.053-401.973,93.332-394.603,331.23
	C274.981,1180.17,743.209,771.318,662.368,757.733 M977.537,702.25c-130.951-3.41-256.627,97.185-256.934,155.535
	c-0.358,70.896,103.538,143.488,257.828,145.33c157.554,1.124,258.094-58.105,258.599-131.271
	c0.581-82.897-143.297-170.879-259.493-169.602V702.25 M985.533,2156.086c114.171-4.983,267.367,36.771,267.673,92.171
	c1.896,53.787-138.939,175.319-275.241,172.973c-141.164,6.093-279.584-115.631-277.771-157.821
	C698.076,2201.549,872.072,2153.251,985.533,2156.086 M563.83,1827.792c81.284,97.927,118.345,269.975,50.508,320.696
	c-64.176,38.719-220.025,22.772-330.794-136.363c-74.71-133.535-65.085-269.416-12.629-309.336
	c78.44-47.778,199.637,16.764,292.923,125.003H563.83 M1390.969,1796.748c-87.951,103.01-136.922,290.896-72.769,351.411
	c61.347,47.014,226.025,40.439,347.665-128.344c88.325-113.361,58.733-302.678,8.279-352.948
	c-74.947-57.969-182.543,16.222-283.176,129.85V1796.748"/>
</svg>
