<?xml version="1.0" encoding="utf-8"?>
<!-- Generator: Adobe Illustrator 16.0.0, SVG Export Plug-In . SVG Version: 6.00 Build 0)  -->
<!DOCTYPE svg PUBLIC "-//W3C//DTD SVG 1.1//EN" "http://www.w3.org/Graphics/SVG/1.1/DTD/svg11.dtd">
<svg version="1.1" id="Ebene_1" xmlns="http://www.w3.org/2000/svg" xmlns:xlink="http://www.w3.org/1999/xlink" x="0px" y="0px"
	 width="407.953px" height="83.988px" viewBox="73.494 33.936 407.953 83.988"
	 enable-background="new 73.494 33.936 407.953 83.988" xml:space="preserve">
<g>
	<path d="M73.494,117.924V33.936h59.994v11.988h-36v36h36V93.93h-36v23.994H73.494z M133.488,81.924v-36h12.006v36H133.488z"/>
	<path d="M157.482,117.924v-11.988h23.994V45.924h-23.994V33.936h72v11.988H205.47v60.012h24.012v11.988H157.482z"/>
	<path d="M241.47,117.924V93.93h11.988V81.924h12.006V69.936h-12.006V57.93H241.47V33.936h23.994V57.93h12.006v12.006h11.988v11.988
		H277.47V93.93h-12.006v23.994H241.47z M289.458,69.936V57.93h12.006v12.006H289.458z M289.458,93.93V81.924h12.006V93.93H289.458z
		 M301.464,57.93V33.936h12.006V57.93H301.464z M301.464,117.924V93.93h12.006v23.994H301.464z"/>
	<path d="M325.458,117.924V33.936h72v11.988h-48.006v24.012h23.994v11.988h-23.994v24.012h48.006v11.988H325.458z"/>
	<path d="M409.447,117.924V33.936h23.994v72h48.006v11.988H409.447z"/>
</g>
</svg>
