<svg id="Layer_2" data-name="Layer 2" xmlns="http://www.w3.org/2000/svg" viewBox="0 0 755.51 127.6"><path d="M31.9,0l74.4,127.6h101L132.9,0ZM47.8,8h77.1l63.6,109H111.4Z" style="fill:red"/><path d="M58.5,68.4,0,127.6H93ZM55.4,85.1l21.7,34.6H21.3Z" style="fill:red"/><path d="M178.2,59.2,236.7,0h-93Zm3.1-16.7L159.6,8h55.8Z" style="fill:red"/><path d="M252.7,83.1c-.1-.2-.4,1.4-.9,4.9s-.7,6-.8,7.7c.5,3.6,1.7,3.6,3.7,5.4,1.6,1,3,.7,7,1.2s27.4.5,31.4,0,7.3-1,9.4-2.4c4.2-2.6,7.1-6.5,8.6-16.8,1.1-5.6,1.5-7,1.4-9.6a7.35,7.35,0,0,0-5.4-7.1c-3.4-1.2-8.4-.6-14-.6H282.2c-11.8,0-18.9.1-22.4,2.5C255.8,71,254.2,74.5,252.7,83.1Zm84.2-41H320.2a42.86,42.86,0,0,0,.3-9.2c-.1-2.5-.4-4.7-1.5-5.5-2.4-2-12-1.9-22.3-1.9H287c-10.2,0-16.2-.1-19.3,2.2-4,3.1-6.4,7.9-7.3,14.3l-2.7,11.1a8.19,8.19,0,0,1,5.9-3.1c7.1-.8,19-.1,23.4-.1,10.9.2,19.8-.5,25.7.5s12.2,2.2,15.2,5.5c2.7,2.8,4.2,7,4.4,12.7.2,3.8-.6,9.9-2.2,18.4a73.1,73.1,0,0,1-3.3,11.1,33.23,33.23,0,0,1-5.1,9.2c-2.2,2.8-4.8,7.7-7.8,9.3-4.7,2.4-10.8,2.3-16.3,2.9s-14.3,0-23,0c-7.8,0-15.7.2-21.4-.5s-10.4-2.3-14-4.9c-4.5-3.3-7-8.7-7.6-16.2a75.29,75.29,0,0,1,1.3-13.3l9.3-48.8c1.8-10.7,5-19,12.8-24a38.88,38.88,0,0,1,15.7-5.3c6.2-.9,16.4-1.3,25.2-1.3h13.7c9.3,0,11.9,1.2,18.4,3.7s9.9,7.4,10.3,14.8A112.07,112.07,0,0,1,336.9,42.1Z" style="fill:red"/><path d="M401,20.9c-11,0-20.9.5-24.6,1.5s-5.8.9-7.5,3.5a23,23,0,0,0-3.1,8.1q-.6,4.2-1.2,11.4c.3,2.9,1.3,4.8,2.7,5.9,2.8,1.8,12.8,2,25.7,2,11.6,0,20.2-.2,24.7-2.2a10.16,10.16,0,0,0,4.9-5.1c1.4-2.6,2.2-4.6,3.2-9.6a38.38,38.38,0,0,0,.7-7.7c-.1-2.7-.9-4.4-2.5-5.3s-4.4-1.6-8-1.9A140.18,140.18,0,0,0,401,20.9Zm27.9,39.6c6.9,2.8,6.9,9.4,7,17.1,0,1.1.3,6.9-.1,8.9s-.2,3.5-.4,4.2c-1.5,7-2,10.1-4.4,14.2s-3.8,7.1-7.9,9.3a38.15,38.15,0,0,1-13.7,4.2,195.91,195.91,0,0,1-23.7,1.2h-11a186.63,186.63,0,0,1-22.4-1c-5.4-.7-8.5-3.2-11.7-6.1-3-2.6-5.8-8.9-6.3-15,.2-2.8.7-4.3,1.5-9.7,1.1-5,1.4-8.9,2.3-11.6a26.83,26.83,0,0,1,4.6-8.2c1.9-2.4,4.8-4.2,8.1-6.1,2.1-1.2,2.7-1.6.6-3.4a10.31,10.31,0,0,1-3.6-6.1c-.3-.7-.5-8-.5-8.2,1-16.5,5.4-24.9,13.1-31.3C364.9,9,366.9,6.7,377,6c5.2-.4,19.4-.6,26.6-.6,10,0,19.7.2,23.8.6a45.62,45.62,0,0,1,9.5,2.3c2.7,1,2.4,2.8,4.5,5.2,1.8,2.3,2.8,5.9,2.9,10.8a56.55,56.55,0,0,1-.7,10.7,43.43,43.43,0,0,1-2.9,10.7,23.89,23.89,0,0,1-5.4,8.3c-2.8,3-2.4,5.2-6.1,6.4-.8.3-1.2.1-1.2,0S428.3,60.2,428.9,60.5Zm-39.1,7.4c-7,0-14.2,0-18,.4a27.34,27.34,0,0,0-9.3,2.4,11.53,11.53,0,0,0-5.4,5.5,42.37,42.37,0,0,0-3.6,11.1,53.47,53.47,0,0,0-.9,8.2c.3,2.9.9,4.6,3.1,5.6s5.4,2.7,9.7,2.8c3.3.4,12,.5,20.8.5,9.1,0,16.2.6,21.1-1.2,2.3-1,4.9-1.3,6.4-3.9s2.1-5.3,3.2-10.4a42.48,42.48,0,0,0,1.3-9.1c-.1-2.5-.8-7.1-2.1-8.4-1.1-1.3-3.6-2.2-7.5-2.8C404.5,67.9,397.7,67.9,389.8,67.9Z" style="fill:red"/><path d="M485.3,119.6c-9.9,0-20.5-.6-26.3-1.9s-10.1-3.5-12.7-6.6c-3.3-3.7-2.7-9-3.1-16.2a119.28,119.28,0,0,1,1.9-17.1l6-31.6a92.65,92.65,0,0,1,5.3-18.4,37.05,37.05,0,0,1,9.7-13.7,26,26,0,0,1,9.4-5.5A56,56,0,0,1,488.8,6c5-.4,11-.6,18.3-.6q8.25,0,14.7.6a58.17,58.17,0,0,1,11.5,2,24,24,0,0,1,8.4,4.4c4.1,3.8,6.3,9.7,6.5,17.8q.15,4.95-1.5,16.8l-6.1,31.8c-3.3,18-7.3,29.9-17.2,35.5a40.45,40.45,0,0,1-14.6,4.4C503,119.3,493.5,119.6,485.3,119.6Zm18.9-97.9c-7.6,0-13,.1-16.3.4a30.88,30.88,0,0,0-8.4,1.8,15.36,15.36,0,0,0-4.9,3.2,22.87,22.87,0,0,0-4.3,6.9c-1.4,3.2-2.7,5-3.7,10.4l-6.8,36.1c-.8,5.3-1.3,7-1.5,10.4a16,16,0,0,0,1.5,6.6,8.27,8.27,0,0,0,3.6,3.3,22.14,22.14,0,0,0,7.7,2c3.1.3,8.2.4,15.4.4a179.43,179.43,0,0,0,19.4-.8c4.3-.5,7.5-1.7,9.7-3.6,4.1-3.6,6.4-9.1,8.8-20.5L530.7,45c.9-6.4,1.3-8.5,1.3-11.8-.1-4.5-.3-6.9-2.2-8.3a16.76,16.76,0,0,0-8-2.7C518.2,21.9,512.4,21.7,504.2,21.7Z" style="fill:red"/><path d="M589,119.6c-9.9,0-20.5-.6-26.3-1.9s-10.1-3.5-12.7-6.6c-3.3-3.7-2.7-9-3.1-16.2a119.28,119.28,0,0,1,1.9-17.1l6-31.6a92.65,92.65,0,0,1,5.3-18.4,37.05,37.05,0,0,1,9.7-13.7,26,26,0,0,1,9.4-5.5A56,56,0,0,1,592.5,6c5-.4,11-.6,18.3-.6q8.25,0,14.7.6A58.17,58.17,0,0,1,637,8a24,24,0,0,1,8.4,4.4c4.1,3.8,6.3,9.7,6.5,17.8q.15,4.95-1.5,16.8l-6.1,31.8c-3.3,18-7.3,29.9-17.2,35.5a40.45,40.45,0,0,1-14.6,4.4C606.7,119.3,597.1,119.6,589,119.6Zm18.8-97.9c-7.6,0-13,.1-16.3.4a30.88,30.88,0,0,0-8.4,1.8,15.36,15.36,0,0,0-4.9,3.2,22.87,22.87,0,0,0-4.3,6.9c-1.4,3.2-2.7,5-3.7,10.4l-6.8,36.1c-.8,5.3-1.3,7-1.5,10.4a16,16,0,0,0,1.5,6.6,8.27,8.27,0,0,0,3.6,3.3,22.14,22.14,0,0,0,7.7,2c3.1.3,8.2.4,15.4.4a179.43,179.43,0,0,0,19.4-.8c4.3-.5,7.5-1.7,9.7-3.6,4.1-3.6,6.4-9.1,8.8-20.5L634.3,45c.9-6.4,1.3-8.5,1.3-11.8-.1-4.5-.3-6.9-2.2-8.3a16.76,16.76,0,0,0-8-2.7C621.9,21.9,616.1,21.7,607.8,21.7Z" style="fill:red"/><path d="M692.6,119.6c-9.9,0-20.5-.6-26.3-1.9s-10.1-3.5-12.7-6.6c-3.3-3.7-2.7-9-3.1-16.2a119.28,119.28,0,0,1,1.9-17.1l6-31.6a92.65,92.65,0,0,1,5.3-18.4,37.05,37.05,0,0,1,9.7-13.7,26,26,0,0,1,9.4-5.5A56,56,0,0,1,696.1,6c5-.4,11-.6,18.3-.6q8.25,0,14.7.6a58.17,58.17,0,0,1,11.5,2,24,24,0,0,1,8.4,4.4c4.1,3.8,6.3,9.7,6.5,17.8q.15,4.95-1.5,16.8l-6.1,31.8c-3.3,18-7.3,29.9-17.2,35.5a40.45,40.45,0,0,1-14.6,4.4C710.3,119.3,700.8,119.6,692.6,119.6Zm18.9-97.9c-7.6,0-13,.1-16.3.4a30.88,30.88,0,0,0-8.4,1.8,15.36,15.36,0,0,0-4.9,3.2,22.87,22.87,0,0,0-4.3,6.9c-1.4,3.2-2.7,5-3.7,10.4l-6.8,36.1c-.8,5.3-1.3,7-1.5,10.4a16,16,0,0,0,1.5,6.6,8.27,8.27,0,0,0,3.6,3.3,22.14,22.14,0,0,0,7.7,2c3.1.3,8.2.4,15.4.4a179.43,179.43,0,0,0,19.4-.8c4.3-.5,7.5-1.7,9.7-3.6,4.1-3.6,6.4-9.1,8.8-20.5L738,45c.9-6.4,1.3-8.5,1.3-11.8-.1-4.5-.3-6.9-2.2-8.3a16.76,16.76,0,0,0-8-2.7C725.5,21.9,719.7,21.7,711.5,21.7Z" style="fill:red"/></svg>