<?xml version="1.0" encoding="utf-8"?>
<!-- Generator: Adobe Illustrator 16.0.0, SVG Export Plug-In . SVG Version: 6.00 Build 0)  -->
<!DOCTYPE svg PUBLIC "-//W3C//DTD SVG 1.1//EN" "http://www.w3.org/Graphics/SVG/1.1/DTD/svg11.dtd">
<svg version="1.1"
	 id="svg2" xmlns:dc="http://purl.org/dc/elements/1.1/" xmlns:cc="http://creativecommons.org/ns#" xmlns:rdf="http://www.w3.org/1999/02/22-rdf-syntax-ns#" xmlns:svg="http://www.w3.org/2000/svg" xmlns:sodipodi="http://sodipodi.sourceforge.net/DTD/sodipodi-0.dtd" xmlns:inkscape="http://www.inkscape.org/namespaces/inkscape" sodipodi:docname="Capcom icon.svg" inkscape:version="0.48.1 "
	 xmlns="http://www.w3.org/2000/svg" xmlns:xlink="http://www.w3.org/1999/xlink" x="0px" y="0px" width="944.743px"
	 height="974.564px" viewBox="-8 -8 944.743 974.564" enable-background="new -8 -8 944.743 974.564" xml:space="preserve">
<sodipodi:namedview  showgrid="false" inkscape:cy="170.71783" inkscape:cx="1623.239" inkscape:zoom="0.32" borderopacity="1" bordercolor="#666666" pagecolor="#ffffff" id="namedview3013" inkscape:window-maximized="1" inkscape:window-y="-8" inkscape:window-x="-8" inkscape:current-layer="layer1" inkscape:pageshadow="2" inkscape:pageopacity="0" inkscape:window-height="1058" inkscape:window-width="1835" fit-margin-top="0" guidetolerance="10" gridtolerance="10" objecttolerance="10" fit-margin-left="0" fit-margin-right="0" fit-margin-bottom="0">
	</sodipodi:namedview>
<g id="layer1" transform="translate(2426,-55.799683)">
	<g id="path3840_2_" sodipodi:nodetypes="cccssccssscccssccc" inkscape:connector-curvature="0">
		<path fill="#0C4DA2" d="M-1927.74,1018.35c-138.9-10.536-265.925-64.527-357.675-152.027
			c-45.73-43.613-81.417-94.054-106.07-149.92C-2417.042,658.486-2430,596.282-2430,531.518c0-64.783,13.297-127.629,39.522-186.791
			c25.324-57.129,61.573-108.433,107.74-152.486c46.155-44.04,99.898-78.616,159.738-102.767
			c61.943-25,127.74-37.675,195.562-37.675c88.449,0,175.426,22.238,251.527,64.31c73.862,40.833,136.089,99.371,179.955,169.283
			l1.655,2.638l-254.132,265.903l-168.074-115.787l2.862-3.373c15.53-18.303,31.842-44.477,21.354-65.233
			c-7.551-14.944-21.024-23.867-36.041-23.867l-0.183,0c-7.215,0.034-33.841,5.686-42.855,12.369
			c-45.899,34.034-67.146,62.028-71.628,137.867c1.274,36.915,11.517,81.146,28.117,121.407
			c17.57,36.159,38.826,59.373,73.346,80.115c22.192,13.335,50.749,20.679,80.408,20.679c51.071,0,94.049-27.509,109.49-70.083
			l0.955-2.636h206.742l-2.938,371.264l-380.705,1.706L-1927.74,1018.35z"/>
		<path fill="#FFFFFF" d="M-1927.438,55.8c181.874,0,341.008,92.921,428.094,231.719l-249.625,261.188l-161.625-111.344
			c16.567-19.524,33.322-46.969,21.875-69.625c-7.84-15.516-22.278-26.063-39.611-26.063c-0.066,0-0.134,0-0.201,0
			c-7.919,0.037-35.388,5.867-45.219,13.156c-44.348,32.884-68.571,61.302-73.25,141.031c1.36,40.314,13.112,85.88,28.469,123.094
			c19.52,40.214,43.22,62.848,74.938,81.906c24.339,14.624,54.375,21.25,82.469,21.25c53.31,0,97.508-29.314,113.25-72.719h199.906
			l-2.875,363.281l-376.594,1.688C-2209.934,992.933-2426,794.248-2426,531.518S-2202.791,55.8-1927.438,55.8 M-1927.438,47.8
			c-68.337,0-134.638,12.773-197.059,37.966c-60.311,24.34-114.48,59.19-161.002,103.582
			c-46.548,44.416-83.099,96.148-108.636,153.759C-2420.587,402.783-2434,466.174-2434,531.518
			c0,65.323,13.073,128.071,38.855,186.5c24.866,56.351,60.855,107.222,106.969,151.199
			c45.631,43.518,99.633,78.831,160.504,104.958c62.008,26.614,129.173,42.819,199.628,48.164l0.32,0.024l0.321-0.002l376.594-1.688
			l7.901-0.035l0.063-7.901l2.875-363.281l0.063-8.063h-8.063h-199.906h-5.608l-1.912,5.272
			c-14.86,40.972-56.361,67.446-105.729,67.446c-28.943,0-56.769-7.141-78.349-20.107c-33.761-20.286-54.563-42.988-71.755-78.325
			c-16.368-39.739-26.478-83.335-27.763-119.719c4.412-74.102,25.184-101.467,70.007-134.704
			c7.943-5.89,33.675-11.551,40.491-11.583l0.164,0c13.477,0,25.615,8.101,32.471,21.671c9.499,18.799-6.087,43.461-20.834,60.841
			l-5.724,6.745l7.285,5.019l161.625,111.344l5.612,3.867l4.709-4.928l249.625-261.188l4.304-4.503l-3.311-5.276
			c-44.225-70.485-106.954-129.498-181.407-170.658c-37.722-20.854-78.122-36.958-120.079-47.864
			C-1837.309,53.501-1882.186,47.8-1927.438,47.8L-1927.438,47.8z"/>
	</g>
	<path id="path3950" inkscape:connector-curvature="0" fill="#FFCB08" d="M-1927.771,145.183
		c-226.982,1.428-412.366,166.766-412.366,383.051c0,216.285,204.646,402.071,452.366,396.479l240.712,0.679V735.884h-45.463
		c-14.283,35.731-80.997,70.681-129.367,70.681c-25.49,0-89.66-3.465-113.398-11.779c-41.911-14.679-101.712-35.75-153.708-123.142
		c-13.934-30.635-53.169-105.289-44.402-214.19c4.245-65.635,45.937-147.568,120.748-184.671
		c32.621-16.179,65.461-18.833,123.121-13.601c41.396,3.756,82.527,32.863,96.889,67.797c11.106,27.019,7.915,59.941-5.16,78.695
		c-0.933,1.338-0.953,2.523-0.76,3.801c0.147,0.972,1.408,2.592,1.408,2.592l22.784,17.799c0,0,6.487,4.507,14.064,4.306
		c4.4-0.117,12.267-4.892,12.267-4.892l130.121-136.553C-1698.36,184.179-1841.321,145.183-1927.771,145.183L-1927.771,145.183z"/>
</g>
</svg>
