<?xml version="1.0" encoding="utf-8"?>
<!-- Generator: Adobe Illustrator 16.0.0, SVG Export Plug-In . SVG Version: 6.00 Build 0)  -->
<!DOCTYPE svg PUBLIC "-//W3C//DTD SVG 1.1//EN" "http://www.w3.org/Graphics/SVG/1.1/DTD/svg11.dtd">
<svg version="1.1" id="Layer_1" xmlns="http://www.w3.org/2000/svg" xmlns:xlink="http://www.w3.org/1999/xlink" x="0px" y="0px"
	 width="3003px" height="910.18px" viewBox="-251.5 794.904 3003 910.18" enable-background="new -251.5 794.904 3003 910.18"
	 xml:space="preserve">
<g>
	<path fill="#0C0E0F" d="M163.004,1658.509c-1.842-9.818-10.415-16.551-24.513-16.551c-9.196,0-15.94,1.842-20.233,5.525
		c-3.855,2.613-6.155,6.977-6.135,11.635c0,6.744,3.684,11.037,7.354,13.488c3.061,2.438,7.963,4.279,13.488,6.135
		c4.903,1.842,7.964,3.061,10.415,4.279c2.451,1.232,3.684,2.451,3.684,4.916c0,1.219-0.61,2.438-2.452,3.67
		c-1.232,0.609-3.683,1.842-6.744,1.842c-5.512,0-7.963-2.438-9.196-6.135l-18.378,0.623c1.842,9.805,10.415,17.146,26.964,17.146
		c10.415,0,17.159-3.061,21.452-6.135c4.326-3.111,6.847-8.148,6.744-13.477c0-5.523-3.074-9.805-6.744-12.256
		c-3.061-2.451-6.744-4.293-12.256-6.135c-6.122-1.842-8.586-2.438-11.037-3.672c-3.684-1.232-4.903-3.061-4.903-5.525
		c0-1.219,0.623-2.438,1.855-3.061c1.219-0.609,3.67-1.219,5.512-1.219c4.293,0,6.744,2.438,7.963,5.512L163.004,1658.509
		L163.004,1658.509z M278.228,1667.082v-12.256h28.196v-11.646h-46.575v60.686h47.184v-11.646h-28.806v-13.477h20.232v-11.658
		h-20.231V1667.082z M463.941,1670.751h-28.196v11.646h11.037v8.588c-1.843,1.219-6.136,2.438-12.256,2.438
		c-9.807,0-15.317-6.746-15.317-20.234c0-14.098,7.963-19.609,15.317-19.609c4.901,0,7.976,2.438,10.428,9.195l18.391-3.072
		c-5.544-10.832-16.65-17.682-28.817-17.77c-20.83,0-33.709,11.037-33.709,31.256c0,18.393,9.195,31.867,33.099,31.867
		c14.099,0,25.745-5.512,30.025-10.414L463.941,1670.751L463.941,1670.751z M601.239,1690.375l3.671,13.49h19.609l-22.062-60.688
		h-24.514l-21.451,60.688h19l3.684-13.49H601.239L601.239,1690.375z M598.166,1678.742h-15.317l3.684-12.879
		c1.22-3.672,2.45-7.965,3.671-12.867h0.609c1.231,4.902,2.45,8.574,3.684,12.867L598.166,1678.742z M872.139,1681.179
		c-0.608,6.76-4.901,11.646-11.646,11.646s-12.257-5.523-12.257-19.014c0-14.098,4.89-20.221,12.865-20.221
		c6.136,0,9.184,4.281,11.037,11.635l17.781-1.23c-3.061-15.941-14.707-22.063-28.806-22.063c-8.586,0-15.939,2.451-21.452,6.744
		c-6.135,4.914-9.805,12.865-9.805,23.916c0,13.477,3.684,21.438,9.805,25.73c6.135,4.902,14.099,6.135,21.452,6.135
		c12.879,0,25.745-6.135,29.416-22.061L872.139,1681.179L872.139,1681.179z M982.46,1673.216c0,21.451,12.866,31.867,32.476,31.867
		c19.61,0,32.489-10.416,32.489-31.867c0-20.83-12.879-31.258-32.489-31.258C995.326,1641.958,982.46,1652.375,982.46,1673.216z
		 M1014.949,1653.605c6.744,0,14.098,4.902,14.098,20.221c0,14.721-7.354,19.623-14.098,19.623c-7.354,0-14.1-4.902-14.1-19.623
		C1000.852,1658.509,1007.595,1653.605,1014.949,1653.605z M1179.82,1680.57c7.964-1.842,14.099-7.354,14.099-17.77
		c0-16.549-16.55-19.623-28.196-19.623h-24.513v60.688h17.781v-20.844h4.293l12.257,20.844h22.061L1179.82,1680.57L1179.82,1680.57z
		 M1158.979,1671.375v-16.549h6.744c6.744,0,9.806,3.061,9.806,8.586c0,5.512-3.062,7.963-9.195,7.963H1158.979L1158.979,1671.375z
		 M1307.313,1703.865v-19.625h8.561c17.172,0,27.587-6.135,27.587-21.438c0-11.646-7.341-19.623-27.587-19.623h-26.951v60.686
		H1307.313L1307.313,1703.865z M1307.313,1671.998v-17.172h7.95c6.136,0,9.806,2.451,9.806,8.586c0,6.744-3.67,8.586-10.414,8.586
		H1307.313L1307.313,1671.998z M1435.416,1673.216c0,21.451,12.256,31.867,32.477,31.867c19.609,0,31.866-10.416,31.866-31.867
		c0-20.83-12.257-31.258-31.866-31.258C1447.672,1641.958,1435.416,1652.375,1435.416,1673.216z M1467.282,1653.605
		c7.341,0,14.085,4.902,14.085,20.221c0,14.721-6.744,19.623-14.085,19.623c-6.744,0-14.11-4.902-14.11-19.623
		C1453.172,1658.509,1460.538,1653.605,1467.282,1653.605z M1632.775,1680.57c7.342-1.842,14.086-7.354,14.086-17.77
		c0-16.549-16.536-19.623-28.195-19.623h-24.525v60.688h17.781v-20.844h3.67l12.865,20.844h22.063L1632.775,1680.57
		L1632.775,1680.57z M1611.922,1671.375v-16.549h6.744c6.744,0,9.805,3.061,9.805,8.586c0,5.512-3.67,7.963-9.805,7.963H1611.922z
		 M1783.551,1690.375l3.67,13.49h19.61l-22.062-60.688h-24.526l-22.062,60.688h19.609l3.696-13.49H1783.551L1783.551,1690.375z
		 M1779.867,1678.742h-14.721l3.67-12.879c1.22-3.672,2.451-7.965,3.061-12.867h1.221c1.244,4.902,2.45,8.574,3.695,12.867
		L1779.867,1678.742z M1949.641,1643.179h-53.317v11.646h17.756v49.039h17.78v-49.039h17.781V1643.179z M2060.571,1703.865v-60.688
		h-17.781v60.688H2060.571z M2154.952,1673.216c0,21.451,12.866,31.867,32.477,31.867c19.636,0,32.502-10.416,32.502-31.867
		c0-20.83-12.866-31.258-32.502-31.258C2167.831,1641.958,2154.952,1652.375,2154.952,1673.216z M2187.429,1653.605
		c7.366,0,14.11,4.902,14.11,20.221c0,14.721-6.744,19.623-14.11,19.623c-7.341,0-14.085-4.902-14.085-19.623
		C2173.344,1658.509,2180.088,1653.605,2187.429,1653.605z M2358.448,1685.472c-2.452-7.354-8.587-21.451-19.001-42.293h-24.525
		v60.686h16.536c0-20.842-0.61-34.939-1.22-42.309h0.608c2.451,7.355,9.196,21.453,19.001,42.309h25.137v-60.686h-16.536
		c0,20.828,0,34.928,0.608,42.293H2358.448z"/>
	<path fill="#365798" d="M112.746,1537.759h298.486c121.968,0,221.264-99.295,221.264-221.275
		c0-121.969-99.296-221.252-221.264-221.252l-77.833,0.609c-6.067,0.029-11.009-4.867-11.038-10.934c0-0.029,0-0.061,0-0.09
		c0-6.746,4.903-11.648,11.038-11.648h297.876l0.608-93.16H333.401c-57.498-0.051-104.149,46.52-104.199,104.018
		c0,0.057,0,0.111,0,0.168c0,58.234,46.575,104.809,104.199,104.809l77.833,0.609c69.868,0,126.87,57.004,126.87,126.871
		c0,69.881-57.002,126.26-126.87,126.26H112.746V1537.759L112.746,1537.759z"/>
	<path fill="#365798" d="M112.746,1421.304h298.486c58.221,0,104.809-47.195,104.809-104.809
		c0-57.598-46.588-104.809-104.809-104.809l-77.833-0.609c-69.881,0-126.261-57.002-126.261-126.871
		c-0.093-69.639,56.285-126.166,125.923-126.26c0.112,0,0.225,0,0.337,0h298.486l-0.608-94.381H333.401
		c-121.968,0-220.655,98.674-220.655,221.264c0,121.969,98.674,220.654,220.655,220.654h77.222c6.135,0,11.037,4.902,11.037,11.023
		c0.027,6.074-4.872,11.021-10.946,11.051c-0.03,0.002-0.061,0.002-0.091,0H112.746V1421.304z M863.566,1443.367
		c-51.574,0.215-93.558-41.42-93.771-92.992c-0.002-0.256-0.002-0.512,0-0.768V1049.89c0-50.258,42.294-92.553,93.771-92.553
		h318.705v-93.771H863.566c-103.577,0-187.543,83.967-187.543,187.543v298.5c0,103.576,83.966,187.543,187.543,187.543h317.485
		v-93.771H863.566V1443.367L863.566,1443.367z"/>
	<path fill="#365798" d="M792.466,1051.109c0-39.223,31.866-71.711,71.087-71.711h318.706v93.771H907.689
		c-22.063,0-22.063,22.074-22.063,22.074h228.618l0.609,93.771h-322.39v-137.906H792.466z M863.566,1420.695
		c-39.25-0.029-71.061-31.84-71.088-71.088v-137.92h322.377l-0.61,93.783H885.627c0,22.063,22.063,22.063,22.063,22.063h273.363
		v93.162H863.566z M1405.975,1443.367c-52.087,0-94.381-42.295-94.381-93.76v-298.5c0-51.477,42.308-93.77,93.771-93.77h308.914
		v-93.771h-309.524c-103.576,0-187.556,83.967-187.556,187.543v298.498c0,103.578,84.576,187.543,188.166,187.543h308.914v-441.904
		h-265.4v93.771h171.615v254.35H1405.975L1405.975,1443.367z"/>
	<path fill="#365798" d="M1333.655,1349.607c0,39.221,32.502,71.697,71.71,71.697h193.08v-210.227h-149.555v94.393h55.782v22.063
		l-55.173-0.623c-12.257,0-22.063-9.805-22.063-21.438v-210.227c0,0,0-22.076,22.063-22.076h264.791V979.4h-308.914
		c-39.208,0-71.71,32.477-71.71,71.709v298.5h-0.012V1349.607z M2004.179,978.179c4.28-12.256,15.33-20.842,28.806-20.842
		c13.502,0,24.526,8.586,28.807,20.842l149.555,443.748h-218.813v-104.199h73.563l-33.11-98.674L1925.13,1537.15h-110.321
		L2004.179,978.179z"/>
	<path fill="#365798" d="M2241.992,1443.367h-249.46v93.77h379.392l-197.361-585.324c-17.146-57.002-74.146-99.297-141.578-99.297
		c-67.402,0-124.404,41.672-141.576,99.297l-199.178,585.324h99.271l193.081-569.385c7.95-19,26.342-31.867,48.401-31.867
		c21.453,0,39.845,12.865,47.808,31.867L2241.992,1443.367L2241.992,1443.367z"/>
	<path fill="#0C0E0F" d="M2316.775,941.396c19.61,0,38.002-7.354,51.478-21.451c13.864-13.775,21.596-32.557,21.452-52.1
		c0-19.609-7.342-38.002-21.452-51.49c-13.476-14.098-31.866-21.451-51.478-21.451c-40.452,0-73.563,32.477-73.563,72.941
		c0,19.609,7.976,38.002,21.452,52.1C2278.45,933.802,2297.229,941.533,2316.775,941.396L2316.775,941.396z M2253.652,867.859
		c0-16.551,6.744-32.49,18.365-44.746c11.879-11.842,27.985-18.459,44.759-18.393c16.536,0,32.476,6.746,44.731,18.393
		c11.647,12.256,18.393,28.184,18.393,44.746c0.05,34.813-28.131,63.072-62.942,63.123c-0.061,0-0.121,0-0.182,0
		c-17.173,0-33.112-6.135-44.759-18.379C2260.196,900.72,2253.589,884.621,2253.652,867.859z"/>
	<path fill="#0C0E0F" d="M2297.775,873.98v34.939h-10.44v-81.514h30.038c11.05,0,17.781,0,24.525,4.9
		c5.524,4.293,8.561,11.037,8.561,19.002c0,19-15.305,21.451-19.61,22.074l22.697,35.549h-12.894l-22.062-34.939h-20.815V873.98
		L2297.775,873.98z M2297.775,865.408h21.451c3.671,0,6.744,0,9.807-1.232c7.949-1.842,10.414-7.354,10.414-12.879
		c0-1.842-0.609-7.963-4.916-11.646c-4.279-3.67-9.806-3.061-15.939-3.061h-20.816V865.408L2297.775,865.408z"/>
</g>
</svg>
