<?xml version="1.0" encoding="utf-8"?>
<!-- Generator: Adobe Illustrator 16.0.0, SVG Export Plug-In . SVG Version: 6.00 Build 0)  -->
<!DOCTYPE svg PUBLIC "-//W3C//DTD SVG 1.1//EN" "http://www.w3.org/Graphics/SVG/1.1/DTD/svg11.dtd">
<svg version="1.1" id="Layer_1" xmlns="http://www.w3.org/2000/svg" xmlns:xlink="http://www.w3.org/1999/xlink" x="0px" y="0px"
	 width="2279.412px" height="910.179px" viewBox="110.295 794.904 2279.412 910.179"
	 enable-background="new 110.295 794.904 2279.412 910.179" xml:space="preserve">
<g>
	<path fill="#0C0E0F" d="M163.004,1658.509c-1.842-9.818-10.415-16.55-24.513-16.55c-9.196,0-15.94,1.842-20.233,5.525
		c-3.855,2.614-6.155,6.977-6.135,11.634c0,6.744,3.684,11.037,7.354,13.488c3.061,2.438,7.963,4.28,13.488,6.136
		c4.903,1.841,7.964,3.061,10.415,4.279c2.451,1.232,3.684,2.451,3.684,4.916c0,1.219-0.61,2.438-2.452,3.67
		c-1.232,0.609-3.683,1.842-6.744,1.842c-5.512,0-7.963-2.438-9.196-6.135l-18.378,0.623c1.842,9.805,10.415,17.146,26.964,17.146
		c10.415,0,17.159-3.061,21.452-6.135c4.326-3.11,6.847-8.148,6.744-13.476c0-5.524-3.074-9.805-6.744-12.256
		c-3.061-2.451-6.744-4.293-12.256-6.135c-6.122-1.842-8.586-2.438-11.037-3.671c-3.684-1.232-4.903-3.061-4.903-5.525
		c0-1.219,0.623-2.438,1.855-3.061c1.219-0.609,3.67-1.22,5.512-1.22c4.293,0,6.744,2.438,7.963,5.513L163.004,1658.509
		L163.004,1658.509z M278.228,1667.082v-12.257h28.196v-11.646h-46.575v60.686h47.184v-11.647h-28.806v-13.476h20.232v-11.659
		H278.228z M463.941,1670.752h-28.196v11.646h11.037v8.587c-1.842,1.219-6.135,2.438-12.256,2.438
		c-9.806,0-15.317-6.745-15.317-20.233c0-14.098,7.963-19.61,15.317-19.61c4.902,0,7.976,2.438,10.428,9.195l18.391-3.073
		c-5.544-10.831-16.651-17.68-28.818-17.769c-20.83,0-33.709,11.037-33.709,31.257c0,18.392,9.196,31.867,33.099,31.867
		c14.099,0,25.745-5.513,30.025-10.415V1670.752L463.941,1670.752z M601.239,1690.375l3.671,13.489h19.61l-22.062-60.686h-24.514
		l-21.451,60.686h19l3.684-13.489H601.239L601.239,1690.375z M598.166,1678.741h-15.317l3.683-12.879
		c1.22-3.67,2.451-7.963,3.671-12.866h0.609c1.232,4.903,2.451,8.573,3.684,12.866L598.166,1678.741z M872.139,1681.18
		c-0.609,6.758-4.902,11.646-11.646,11.646s-12.257-5.524-12.257-19.014c0-14.098,4.89-20.22,12.866-20.22
		c6.135,0,9.183,4.28,11.037,11.634l17.781-1.231c-3.061-15.94-14.707-22.062-28.806-22.062c-8.586,0-15.939,2.451-21.452,6.744
		c-6.135,4.915-9.805,12.865-9.805,23.916c0,13.476,3.684,21.438,9.805,25.731c6.135,4.903,14.099,6.135,21.452,6.135
		c12.879,0,25.745-6.135,29.416-22.062L872.139,1681.18L872.139,1681.18z M982.46,1673.217c0,21.451,12.866,31.866,32.476,31.866
		c19.61,0,32.489-10.415,32.489-31.866c0-20.83-12.879-31.258-32.489-31.258C995.326,1641.959,982.46,1652.374,982.46,1673.217z
		 M1014.949,1653.606c6.744,0,14.098,4.902,14.098,20.22c0,14.721-7.354,19.623-14.098,19.623c-7.354,0-14.099-4.902-14.099-19.623
		C1000.851,1658.509,1007.595,1653.606,1014.949,1653.606z M1179.82,1680.57c7.964-1.842,14.099-7.354,14.099-17.769
		c0-16.55-16.55-19.623-28.196-19.623h-24.513v60.686h17.781v-20.843h4.293l12.257,20.843h22.061L1179.82,1680.57L1179.82,1680.57z
		 M1158.979,1671.375v-16.55h6.744c6.744,0,9.805,3.061,9.805,8.586c0,5.513-3.061,7.964-9.195,7.964H1158.979L1158.979,1671.375z
		 M1307.313,1703.864v-19.624h8.56c17.172,0,27.587-6.135,27.587-21.438c0-11.647-7.341-19.623-27.587-19.623h-26.951v60.686
		H1307.313z M1307.313,1671.997v-17.172h7.95c6.135,0,9.805,2.451,9.805,8.586c0,6.744-3.67,8.586-10.414,8.586H1307.313
		L1307.313,1671.997z M1435.416,1673.217c0,21.451,12.256,31.866,32.477,31.866c19.609,0,31.866-10.415,31.866-31.866
		c0-20.83-12.257-31.258-31.866-31.258C1447.672,1641.959,1435.416,1652.374,1435.416,1673.217z M1467.282,1653.606
		c7.341,0,14.085,4.902,14.085,20.22c0,14.721-6.744,19.623-14.085,19.623c-6.744,0-14.11-4.902-14.11-19.623
		C1453.172,1658.509,1460.538,1653.606,1467.282,1653.606z M1632.776,1680.57c7.341-1.842,14.085-7.354,14.085-17.769
		c0-16.55-16.536-19.623-28.195-19.623h-24.526v60.686h17.782v-20.843h3.67l12.865,20.843h22.063L1632.776,1680.57L1632.776,1680.57
		z M1611.922,1671.375v-16.55h6.744c6.744,0,9.805,3.061,9.805,8.586c0,5.513-3.67,7.964-9.805,7.964H1611.922z M1783.551,1690.375
		l3.67,13.489h19.61l-22.062-60.686h-24.526l-22.062,60.686h19.61l3.696-13.489H1783.551L1783.551,1690.375z M1779.867,1678.741
		h-14.721l3.67-12.879c1.22-3.67,2.451-7.963,3.061-12.866h1.22c1.245,4.903,2.451,8.573,3.696,12.866L1779.867,1678.741z
		 M1949.641,1643.179h-53.318v11.646h17.756v49.039h17.781v-49.039h17.781V1643.179z M2060.571,1703.864v-60.686h-17.781v60.686
		H2060.571z M2154.952,1673.217c0,21.451,12.866,31.866,32.477,31.866c19.636,0,32.502-10.415,32.502-31.866
		c0-20.83-12.866-31.258-32.502-31.258C2167.831,1641.959,2154.952,1652.374,2154.952,1673.217z M2187.429,1653.606
		c7.366,0,14.11,4.902,14.11,20.22c0,14.721-6.744,19.623-14.11,19.623c-7.341,0-14.085-4.902-14.085-19.623
		C2173.344,1658.509,2180.088,1653.606,2187.429,1653.606z M2358.448,1685.473c-2.452-7.354-8.587-21.452-19.001-42.294h-24.525
		v60.686h16.536c0-20.843-0.61-34.94-1.22-42.308h0.609c2.451,7.354,9.196,21.452,19.001,42.308h25.136v-60.686h-16.536
		c0,20.829,0,34.927,0.609,42.294H2358.448z"/>
	<path fill="#365798" d="M112.746,1537.76h298.486c121.968,0,221.264-99.296,221.264-221.277
		c0-121.967-99.296-221.251-221.264-221.251l-77.832,0.61c-6.067,0.028-11.009-4.867-11.038-10.934c0-0.03,0-0.061,0-0.091
		c0-6.745,4.903-11.647,11.038-11.647h297.876l0.609-93.161H333.401c-57.498-0.051-104.149,46.52-104.199,104.017
		c0,0.057,0,0.113,0,0.169c0,58.234,46.575,104.809,104.199,104.809l77.832,0.609c69.868,0,126.87,57.003,126.87,126.87
		c0,69.882-57.002,126.261-126.87,126.261H112.746V1537.76L112.746,1537.76z"/>
	<path fill="#365798" d="M112.746,1421.305h298.486c58.221,0,104.809-47.197,104.809-104.809
		c0-57.599-46.588-104.809-104.809-104.809l-77.832-0.609c-69.881,0-126.261-57.002-126.261-126.871
		c-0.093-69.639,56.285-126.167,125.923-126.26c0.112-0.001,0.225-0.001,0.337,0h298.486l-0.609-94.382H333.401
		c-121.968,0-220.655,98.675-220.655,221.265c0,121.968,98.674,220.654,220.655,220.654h77.222c6.135,0,11.037,4.902,11.037,11.024
		c0.028,6.074-4.872,11.021-10.946,11.05c-0.03,0.001-0.061,0.001-0.091,0H112.746V1421.305z M863.566,1443.366
		c-51.574,0.216-93.557-41.419-93.771-92.991c-0.002-0.256-0.002-0.512,0-0.768V1049.89c0-50.258,42.294-92.553,93.771-92.553
		h318.705v-93.771H863.566c-103.577,0-187.543,83.967-187.543,187.543v298.499c0,103.577,83.966,187.543,187.543,187.543h317.486
		v-93.771H863.566V1443.366L863.566,1443.366z"/>
	<path fill="#365798" d="M792.466,1051.108c0-39.221,31.866-71.71,71.087-71.71h318.706v93.771H907.689
		c-22.063,0-22.063,22.075-22.063,22.075h228.618l0.61,93.771h-322.39V1051.108z M863.566,1420.695
		c-39.249-0.029-71.06-31.839-71.088-71.088v-137.92h322.377l-0.61,93.784H885.627c0,22.062,22.063,22.062,22.063,22.062h273.363
		v93.162H863.566z M1405.975,1443.366c-52.087,0-94.381-42.294-94.381-93.759v-298.499c0-51.477,42.307-93.771,93.771-93.771
		h308.914v-93.771h-309.524c-103.576,0-187.556,83.967-187.556,187.543v298.499c0,103.577,84.576,187.543,188.166,187.543h308.914
		v-441.905h-265.4v93.771h171.615v254.35H1405.975L1405.975,1443.366z"/>
	<path fill="#365798" d="M1333.655,1349.607c0,39.221,32.502,71.697,71.71,71.697h193.08v-210.227h-149.554v94.394h55.782v22.062
		l-55.173-0.623c-12.257,0-22.062-9.805-22.062-21.438v-210.227c0,0,0-22.075,22.062-22.075h264.791v-93.771h-308.914
		c-39.208,0-71.71,32.477-71.71,71.71v298.499H1333.655L1333.655,1349.607z M2004.179,978.18
		c4.28-12.257,15.33-20.843,28.806-20.843c13.502,0,24.526,8.586,28.806,20.843l149.555,443.748h-218.813v-104.199h73.564
		l-33.111-98.675l-107.856,318.097h-110.321L2004.179,978.18z"/>
	<path fill="#365798" d="M2241.992,1443.366h-249.46v93.771h379.392l-197.361-585.325c-17.146-57.002-74.147-99.297-141.578-99.297
		c-67.403,0-124.405,41.672-141.577,99.297l-199.177,585.325h99.271l193.081-569.386c7.95-19,26.342-31.866,48.402-31.866
		c21.453,0,39.844,12.865,47.807,31.866L2241.992,1443.366L2241.992,1443.366z"/>
	<path fill="#0C0E0F" d="M2316.776,941.397c19.61,0,38.001-7.354,51.477-21.452c13.864-13.776,21.596-32.556,21.452-52.1
		c0-19.61-7.341-38.001-21.452-51.49c-13.476-14.098-31.866-21.451-51.477-21.451c-40.453,0-73.564,32.476-73.564,72.941
		c0,19.61,7.976,38.002,21.452,52.1C2278.45,933.803,2297.229,941.533,2316.776,941.397L2316.776,941.397z M2253.652,867.858
		c0-16.549,6.744-32.489,18.365-44.745c11.879-11.841,27.986-18.46,44.759-18.392c16.536,0,32.476,6.745,44.732,18.392
		c11.647,12.256,18.392,28.184,18.392,44.745c0.05,34.813-28.131,63.074-62.942,63.124c-0.061,0-0.121,0-0.182,0
		c-17.173,0-33.112-6.135-44.759-18.378C2260.196,900.72,2253.589,884.621,2253.652,867.858z"/>
	<path fill="#0C0E0F" d="M2297.775,873.98v34.94h-10.44v-81.515h30.038c11.05,0,17.781,0,24.525,4.902
		c5.525,4.293,8.561,11.037,8.561,19.001c0,19.001-15.305,21.452-19.61,22.074l22.697,35.55h-12.893l-22.062-34.94h-20.816V873.98
		L2297.775,873.98z M2297.775,865.407h21.452c3.671,0,6.744,0,9.806-1.231c7.95-1.842,10.414-7.354,10.414-12.879
		c0-1.842-0.609-7.964-4.916-11.647c-4.279-3.67-9.805-3.061-15.939-3.061h-20.816V865.407z"/>
</g>
</svg>
