<?xml version="1.0" encoding="utf-8"?>
<!-- Generator: Adobe Illustrator 24.3.0, SVG Export Plug-In . SVG Version: 6.00 Build 0)  -->
<svg version="1.1" id="Layer_1" xmlns="http://www.w3.org/2000/svg" xmlns:xlink="http://www.w3.org/1999/xlink" x="0px" y="0px"
	 viewBox="0 0 1502 720" style="enable-background:new 0 0 1502 720;" xml:space="preserve">
<style type="text/css">
	.st0{fill:#010199;}
	.st1{fill:#FD0202;}
	.st2{fill:#AC89BC;}
	.st3{fill:#980F8B;}
</style>
<g>
	<g>
		<path class="st0" d="M452.5,390.6c4-5.4,8.4-10.5,13.9-14.5c8.4-6.3,17.9-10.2,28.1-12.6c9.5-2.2,19.1-2.8,28.9-2.1
			c4.8,0.3,9.5,1.1,14.1,2.5c0.4,0.1,0.8,0.3,1.4,0.6c-1.2,7.4-2.3,14.7-3.5,22.3c-1.5-0.4-2.8-0.7-4.2-1c-3.4-1-6.9-1.5-10.4-1.9
			c-6-0.7-12-0.4-17.8,0.7c-8.9,1.8-17,5.4-23.9,11.4c-1.6,1.4-3.5,2.7-4.4,4.8c-0.3,0.3-0.6,0.6-0.8,0.9c-0.2,0.2-0.4,0.5-0.6,0.7
			c-3.7,4.3-5.6,9.3-6.6,14.7c-0.7,4-0.4,8,0.6,11.8c2.2,8.1,7.8,12.8,15.6,15.2c5.4,1.7,10.8,1.4,16.2,0.4c1.1-0.3,2.1-0.5,3.2-0.8
			c0.9-0.3,1.4-0.9,1.6-1.9c0.3-1.9,0.7-3.9,1-6c-6.2,0-12.1,0-18.4,0c0.3-2.3,0.5-4.3,0.8-6.3c0.3-2.7,0.7-5.4,1-8.1
			c0.3-2.1,0.7-4.2,1-6.3c14.1,0,28,0,42.1,0c-1,7.1-1.9,14.1-2.9,21.1c-0.5,3.9-1,7.8-1.5,11.6c0.4-0.3,0.6-0.6,0.7-0.9
			c4.4-11.2,8.8-22.5,13.2-33.7c5.2-13.1,10.4-26.2,15.6-39.4c0.8-2,1.4-4,2.1-6c0.6-1.3,1.2-2.5,1.7-3.8c0.4-0.8,0.7-1.6,1-2.4
			c10.4,0,20.6,0,31.1,0c0.2,1.5,0.4,2.9,0.6,4.4c1.4,11.4,2.8,22.7,4.2,34.1c1.4,11.4,2.8,22.7,4.3,34.1c0.2,2,0.5,4,0.7,5.9
			c0.3,2.4,0.6,4.9,1,7.8c0.3-0.9,0.6-1.3,0.7-1.8c1.6-5,3.3-9.9,4.9-14.9c6-18.3,12.1-36.6,18.1-54.9c0.9-2.8,1.7-5.6,2.5-8.5
			c0.5-1.3,1-2.6,1.5-3.9c0.3-0.8,0.5-1.5,0.8-2.3c8.3,0,16.6,0,25,0c0.6,4.2,1.3,8.4,1.9,12.5c1.1,7.4,2.2,14.8,3.4,22.1
			c0.7,4.8,1.4,9.6,2.1,14.5c0.3,1.9,0.6,3.8,1,6.2c0.5-1.1,0.8-1.7,1-2.3c4.5-11.6,9-23.1,13.5-34.7c1.5-3.9,3-7.8,4.5-11.7
			c1,1,2,2.1,3,3.1c0.2,0.3,0.3,0.6,0.5,0.8l0,0c0,0.1-0.1,0.3,0,0.4c1.6,2.4,3.8,4.1,6.4,5.2c0.8,0.4,1.5,0,2-0.6
			c2.3-2.5,4.4-5.1,6.7-7.6c2.6-2.8,5.3-5.4,8-8.2c1.2,0,2.5,0,4,0c1.8,28.7,3.6,57.2,5.3,85.7c0.2,2.9,0.3,5.9,0.5,8.8
			c0.1,1.2,0.3,2.5,0.3,3.7c0.1,2.4,0,4.8,0,7.5c-1.2,0-2.3,0-3.5,0c-0.6,0-1.2,0-1.8,0c-5.9,0-11.8-0.1-17.7-0.1
			c-0.3-4.3-0.6-8.3-0.9-12.3c-0.3-4.5-0.6-9-0.9-13.4c-0.5-7.2-0.9-14.4-1.3-21.6c-0.2-3.7-0.4-7.5-0.6-11.3c0-0.3-0.2-0.6-0.4-1.2
			c-1.8,4.7-3.5,9-5.2,13.2c-4.5,11.8-9,23.5-13.5,35.3c-1.4,3.7-2.9,7.4-4.3,11.2c-1.1,0.1-2.1,0.1-3.1,0.2c-6,0-11.9-0.1-18-0.1
			c-3-18.9-6-37.6-8.9-56.2c-0.2,0-0.3,0-0.5,0c-1.4,4.4-2.8,8.9-4.2,13.3c-2.8,8.6-5.6,17.3-8.4,25.9c-1.6,5.1-3.3,10.1-4.9,15.2
			c-0.2,0.6-0.4,1.2-0.7,1.9c-1.2,0.1-2.3,0.1-3.4,0.2c-0.7,0-1.5-0.1-2.2-0.1c-10.6,0-21.2,0-31.8,0c-0.8,0-1.6,0-2.4,0
			c-0.6-4.7-1.2-9.1-1.8-13.6c-0.7-5.4-1.2-10.8-1.9-16.2c-0.1-0.5-0.4-1.1-0.6-1.6c-2.7,0-5.3,0-7.9,0c-3.9,0-7.7,0-11.6,0
			c-2.1,0-2.1,0-2.9,1.9c-0.6,1.5-1.1,3.1-1.6,4.6c-1.9,4.8-3.8,9.5-5.6,14.3c-1.4,3.5-2.7,7-4,10.5c-1.1,0.1-2.1,0.1-3.1,0.2
			c-7.1,0-14.2,0-21.5,0c0.4-1.7,0.8-3,1.2-4.5c-0.5,0.1-0.7,0.2-0.9,0.2c-8,3.6-16.5,5.4-25.2,5.9c-5.2,0.3-10.4-0.1-15.4-1.4
			c-10.5-2.7-19.8-7.7-27-16c-6.2-7.2-9.4-15.5-9.9-25c-0.2-4.8,0.4-9.6,1.3-14.3c1.3-6.4,3.3-12.5,6.5-18.2c0.4-0.8,0.7-1.6,1-2.4
			l0,0c0.1-0.2,0.2-0.3,0.4-0.5c0.1-0.1,0.1-0.2,0.2-0.3C452.3,391,452.4,390.8,452.5,390.6z M568.4,406.8c-1,2.7-2.1,5.4-3.3,8.4
			c1.8-0.1,3.3-0.2,4.7-0.2c1.9,0.8,3.8,0.2,6,0.4c-0.9-7.3-1.7-14.1-2.5-21c-0.1,0-0.3-0.1-0.4-0.1
			C571.4,398.4,569.9,402.6,568.4,406.8z"/>
		<path class="st0" d="M894.5,444.8c-1.7,4.9-4.5,9.2-8.2,12.8c-0.7,0.7-1.4,1.5-2.1,2.2c-0.2,0.1-0.3,0.3-0.5,0.4c0,0,0,0,0,0
			c-0.4,0.2-0.8,0.3-1.2,0.5c-6.3,4.5-13.5,6.5-21.2,6.5c-14.9,0.1-29.8,0-44.7,0c-0.7,0-1.4,0-2.2,0c0.4-3.2,0.8-6.1,1.2-9
			c0.5-3.6,1-7.1,1.5-10.7c0.7-4.9,1.4-9.7,2.1-14.6c0.5-3.7,1-7.4,1.5-11.2c0.5-3.9,1.1-7.7,1.6-11.6c0.5-3.9,1.1-7.7,1.7-11.6
			c0.5-3.6,1-7.1,1.4-10.7c0.5-3.9,1.1-7.9,1.6-11.8c0.4-2.8,0.7-5.5,1.1-8.3c0.3-2,0.6-3.9,1-6.1c0.6,0,1.3-0.1,1.9-0.1
			c14.1,0,28.1,0,42.2,0c2.6,0,5.2,0.5,7.6,1.5c8.7,3.8,14.6,10.2,16.9,19.5c0.7,2.9,0.8,5.8,0.3,8.8c-0.5,3.4-1.1,6.7-2.2,9.9
			c-1.1,3.1-2.8,5.8-5.6,7.7c-0.7,0.5-1.4,1.1-2.2,1.8c0.6,0.7,1,1.4,1.6,2.1c1.8,1.9,3.3,4,4.4,6.4c1.4,2.9,2.3,6,2.6,9.2
			C896.9,434.1,896.4,439.6,894.5,444.8z M868.2,400.4c2.8-0.9,4-3.2,4.8-5.6c0.3-0.9,0.5-2.1,0.3-3c-0.9-3.9-4.3-6.6-7.8-6.5
			c-4.5,0.1-9,0-13.5,0c-0.6,0-1.3,0-2.1,0c-0.2,2.2-0.5,4.2-0.7,6.3c-0.5,3.5-1,6.9-1.6,10.5c5.6,0,11,0.1,16.3-0.1
			C865.4,401.9,867,401.6,868.2,400.4z M867.3,441.7L867.3,441.7c2-0.7,3.2-2.4,4.1-4.2c2.2-4.3,1.6-7.3-1.8-10.3
			c-1.4-1.2-3.1-1.7-4.9-1.6c-6.4,0-12.7,0-19.1,0c-0.4,0-0.8,0.1-1.3,0.1c-0.2,2.1-0.4,4.1-0.6,6c-0.4,2.6-0.9,5.2-1.3,7.8
			c-0.2,1.3-0.3,2.7-0.5,4.1c6.8,0,13.3,0.1,19.8,0c1.8,0,3.7-0.4,5.2-1.6C867,442,867.2,441.9,867.3,441.7z"/>
		<path class="st1" d="M687.2,371.5c-1-1-2-2.1-3-3.1c-0.1-0.2-0.1-0.3-0.2-0.5c0.8-1.7,1.5-3.4,2.3-5c0.4-0.8,1.2-1.3,1.7-2
			c7.3-10.6,15.8-20.2,24.2-29.9c2.3-2.7,4.6-5.3,7-8c0,0,0,0,0,0c0.2-0.2,0.3-0.3,0.5-0.5c2.7-2.9,5.4-5.9,8.1-8.8
			c0.3-0.4,0.6-0.8,0.8-1.3c0.1-0.2,0.3-0.3,0.4-0.5c0.1-0.1,0.1-0.2,0.2-0.4c-0.1,0.1-0.1,0.2-0.2,0.3c-0.2,0.1-0.4,0.2-0.6,0.3
			c-0.9,0.4-1.8,0.6-2.6,1.1c-6.1,3.3-12.1,6.8-18.2,9.9c-6.9,3.5-14,6.8-21.1,10.1c-3.3,1.5-6.6,2.9-10,4.1
			c-2.4,0.8-4.9,1.6-7.5,0.7c-1.1-0.4-2.2-0.8-3.2-1.3l0,0c-0.2-0.2-0.3-0.3-0.5-0.5l0,0c-0.2-0.2-0.3-0.3-0.5-0.5
			c-0.5-0.6-1-1.2-1.5-1.8c-1.9-2.2-2.6-4.7-1.6-7.5c1.2-2.6,2.3-5.2,3.5-7.9c-0.2,0-0.3,0-0.3,0c-7.3,4.1-14.6,8.3-21.9,12.4
			c-8.9,5-18.2,9.4-27.7,13.1c-2.1,0.8-4.3,1.4-6.5,1.9c-2.5,0.5-4.8-0.4-7-1.2l0,0c-0.2-0.2-0.3-0.3-0.5-0.5c-1.7-1.9-3-4-4.2-6.2
			c-1.2-2.2-1.2-4.3-0.1-6.3c1.2-2.3,2.5-4.7,4.1-6.8c4.3-5.9,9.4-11,14.7-16c10.3-9.7,21.3-18.5,32.5-27.2c0.3-0.2,0.6-0.4,1.1-0.7
			c0.6,0.8,1.2,1.6,1.8,2.4c1.6,2.3,3.1,4.6,4.7,7c-0.2,0.1-0.4,0.1-0.6,0.2c-9.5,7.3-18.9,14.6-27.9,22.4c-6.7,5.7-12.8,12-19,18.2
			c-0.5,0.5-1.1,1-0.6,1.9c0.5,0.9,1.3,1.2,2.3,0.8c1.4-0.5,2.8-1,4.1-1.4c0.2-0.2,0.3-0.5,0.5-0.7l0,0c0.8-0.2,1.7-0.2,2.5-0.6
			c13.1-5.2,25.5-11.7,37.6-18.9c14.4-8.6,28.2-18.3,41.2-28.9c0.4-0.3,0.8-0.6,1.5-1.1c2.1,3,4.4,5.9,6.2,9c-0.6,0.5-1.2,1-1.8,1.6
			c-3.3,3.4-6.7,6.9-10,10.3c-4.8,4.8-9.2,9.9-13.4,15.3c-1.8,2.4-3.4,4.9-5.1,7.5c-0.3,0.4-0.3,1-0.4,1.6c2.2,0.6,3.9-0.1,5.6-0.8
			c8.2-3.8,15.9-8.4,23.6-13.1c11.1-6.9,22.2-13.8,33.4-20.6c5.1-3,10.2-5.9,15.5-8.5c4.6-2.3,4.4-1.7,7.2,1.7
			c1.4,1.7,2.6,3.6,3.8,5.4c-4,4.3-8,8.7-12,13c-3.9,4.2-7.8,8.5-11.7,12.7c-0.2,0.2-0.3,0.5-0.5,0.9c0.4,0,0.6,0,0.7-0.1
			c4-2.6,8.1-5.2,12.1-7.8c0.8-0.5,1.6-1.2,2.4-1.8c0.3-0.1,0.6-0.3,0.9-0.4c0,0,0,0,0,0c0.7-0.3,1.4-0.5,2-0.8
			c12.4-6.7,25.3-12.2,38.9-15.8c2.4-0.6,4.9-1.1,7.3-1.8c4.9-1.3,8.8,1.4,10.7,4.7c0.4,0.6,0.7,1.3,1.1,1.9c0,1,0,2.1,0.1,3.1
			c0.2,2.5-0.5,4.7-1.8,6.7c-0.8,1.2-1.6,2.3-2.6,3.3c-2.8,2.8-5.6,5.5-8.5,8.1c-6.3,5.9-13.1,11.2-20.5,15.6
			c-7.7,4.7-15.7,8.5-24.9,9.6c-6.4,0.8-12.4,0-18.1-3.2c-2-1.1-3.8-2.4-5.8-3.7c-0.6,0.5-1.2,1.1-1.8,1.5
			c-7.2,5.5-13.9,11.7-20.4,18c-3.5,3.3-6.7,6.9-10,10.4c-0.2,0.2-0.4,0.4-0.6,0.7c-1.8,2.1-3.6,4.1-5.4,6.2
			c-1.3,1.4-1.4,1.4-3.2,0.5c-0.8-0.4-1.7-0.8-2.6-1.1l0,0C687.5,372.1,687.4,371.8,687.2,371.5z M797.6,307c1.9-1.8,4-3.5,5.1-6.1
			c-22.7,5-42.9,15.4-61.8,28.6c2,1.7,2.5,2,5,2.5c3.3,1.4,6.8,1.1,10.2,0.5c4.9-0.7,9.4-2.6,13.7-4.9
			C780.1,322.3,789.2,315.1,797.6,307z"/>
		<path class="st0" d="M909.9,383.5c0.1-0.2,0.2-0.3,0.4-0.5c0.2-0.3,0.4-0.5,0.5-0.8c3.1-4,6.1-8,10-11.2c9.1-7.6,19.6-11,31.5-10
			c7.2,0.6,13.8,3,19.7,7.2c1.2,1,2.4,1.9,3.5,3c7.8,7.6,11.4,17.2,12.6,27.8c0.3,3,0.4,6,0.5,9c-0.2,7.5-1,15-3.2,22.3
			c-2.7,9.2-7.1,17.3-13.9,24.1c-0.5,0.5-0.9,1-1.3,1.5c-0.1,0.2-0.3,0.3-0.4,0.5l0,0c-0.1,0.1-0.3,0.3-0.4,0.4l0,0
			c-0.3,0.2-0.7,0.2-1,0.5c-4.1,3.4-8.6,5.9-13.6,7.8c-5.2,2-10.7,2.9-16.2,2.8c-3.6,0-7.2-0.7-10.7-1.6c-9.4-2.6-17.1-7.7-22.6-16
			c-4.5-6.9-6.2-14.7-6.6-22.8c-0.2-4.9,0.4-9.8,1.2-14.7c1.6-9.6,4.5-18.7,9.1-27.3C909.5,384.7,909.7,384.1,909.9,383.5z
			 M955.2,438.1C955.2,438.1,955.2,438.1,955.2,438.1c0.7-0.6,1.5-1.2,2-1.9c2.2-2.9,3.9-6,5.1-9.5c2.4-7.1,3.4-14.4,3.1-21.9
			c-0.1-3.3-0.7-6.6-1.9-9.7c-1.6-4.1-4.1-7.5-8.1-9.6c-6.5-3.4-13.6-2.8-19.5,2.4c-1.6,1.4-3.4,2.8-4.3,5l0,0
			c-0.1,0.2-0.3,0.3-0.4,0.5c-2.2,2.4-3.4,5.4-4.5,8.3c-2.2,5.6-3.4,11.5-3.9,17.4c-0.4,4.4-0.3,8.7,0.8,13
			c1.7,6.3,5.4,10.8,11.9,12.6c4.6,1.3,8.9,0.5,13.1-1.5c2.3-1.1,4.6-2.4,6-4.6C954.9,438.3,955.1,438.2,955.2,438.1z"/>
		<path class="st1" d="M1048.5,341.4c-0.9,0-1.9,0-2.8,0c-0.1-0.6-0.1-1-0.1-1.4c0.1-0.8,0.4-1.6,0.3-2.4c-0.1-1.2-0.7-1.5-2-1.6
			c-4.6-0.4-9.2-1-13.8-1.3c-5.4-0.4-10.7-0.7-16.1-0.9c-3.6-0.1-7.2,0.2-10.8,0.3c-3.8,0.1-7.5,0.3-11.3,0.5
			c-3.2,0.2-6.5,0.3-9.7,0.5c-1.8,0.1-3.7,0.3-5.5,0.5c-3.6,0.4-7.1,0.8-10.7,1.3c-2.8,0.3-5.7,0.6-8.5,1c-2.8,0.4-5.5,0.8-8.3,1.2
			c-2.5,0.4-5.1,0.8-7.6,1.1c-3.2,0.4-6.4,1.6-9.8,0.7c0,0,0,0,0,0c-0.1-0.2-0.3-0.4-0.4-0.6c-1.1-1.5-2.3-3.1-3.4-4.6
			c-1.4-1.9-1.6-4-0.8-6.1c0.6-1.8,1.4-3.6,2.2-5.3c2.5-5.4,5.1-10.8,7.6-16.2c0.4-0.9,0.6-2,0.8-3c0.2-1.5-0.2-2.8-1.3-4
			c-2-2.3-3.9-4.8-5.8-7.3c-0.8-1.4-1.7-2.8-3-3.9c-0.7,0.5-1.3,0.9-1.9,1.4c-6.5,5.4-12.9,10.9-19.5,16.3
			c-7.6,6.2-15.4,12-23.6,17.4c-5.4,3.5-11,6.9-16.6,10.1c-7.6,4.4-15.6,7.9-23.9,10.6c-6.3,2-12.8,2.7-19.3,3
			c-1.6,0.1-3.2-0.2-4.8-0.4c-2.4-0.2-4.6-0.9-6.7-2.1c-0.4-0.3-0.9-0.4-1.4-0.6c-0.3-0.4-0.6-0.9-0.9-1.2c-3.9-4.1-4.2-8.9-2.7-14
			c1.2-4,3.4-7.4,5.9-10.6c5-6.5,11.1-11.9,17.7-16.8c9.4-7.1,19.5-13.2,30.5-17.5c4.2-1.7,8.5-2.9,13-3.4c6.5-0.7,11.5,1.7,14,7.3
			c0.1,0.1,0.2,0.3,0.4,0.4l0,0c0.1,0.6,0.3,1.3,0.3,1.9c0.4,3,0.4,5.8-2.5,7.9c-6.2,4.8-12.2,9.6-19,13.7
			c-5.3,3.2-10.7,6.1-16.6,8.1c-4.2,1.5-8.4,2.5-12.8,3c-2.9,0.3-5.9,0.6-8.8-0.1c-1.8-0.4-3.7-0.8-5.7-1.3c-1.4,1.6-2.9,3.2-4.2,5
			c-1.2,1.7-2.5,3.4-3,5.6c-0.6,2.8-0.2,3.7,2.6,4.9c3.2,1.4,6.5,1.1,9.8,0.7c9.5-1.2,18.3-4.5,27-8.5c14.8-6.8,28.4-15.5,41.5-25.1
			c8.7-6.4,17.1-13.2,25.2-20.3c0.5-0.4,1-0.9,1.6-1.5c-0.7-1.1-1.4-2.2-2.2-3.2c-2-2.4-3.1-5.2-3.7-8.2c-1-5.9,3.5-10.4,9.4-9.2
			c4.1,0.8,6.9,3.2,8.5,7c0.2,0.3,0.3,0.5,0.5,0.8l0,0c0,3.4,0.3,6.9-1.4,10.1c-0.4,0.7-0.6,1.5-1,2.3c1,1.1,1.9,2.2,2.9,3.3
			c2.1,2.6,4.1,5.4,6.4,7.9c1.9,2.1,3.8,4.1,5.1,6.6c0.1,0.2,0.3,0.4,0.4,0.5c0,0,0,0,0,0c0,0.6,0,1.2,0.1,1.8
			c0.8,2.8,0.3,5.4-0.8,7.9c-1.5,3.6-3.1,7.1-4.6,10.7c-0.9,2.2-1.7,4.4-2.7,6.9c1.9-0.3,3.4-0.6,4.9-0.9c5.6-0.7,11.1-1.4,16.7-2.1
			c5.4-0.6,10.9-1.2,16.3-1.6c9.7-0.8,19.5-1.3,29.2-1.5c12.3-0.3,24.5,0.1,36.8,1.6c5.4,0.6,10.6,1.8,15.8,3.2
			c2.8,0.7,4.8,2.1,5.1,5.2c-0.1,2.5-0.1,5.1-0.9,7.6c-2.4,0.1-4.6,0.2-6.8,0.4C1054.4,341,1051.4,341.2,1048.5,341.4z M877.3,295.1
			c0.9-0.7,1.9-1.4,2.8-2c-1-2-2.4-2.7-4.5-2.4c-5.9,1-11.5,3-16.9,5.5c-8.6,4-16.7,9.1-24.1,15c-1.8,1.4-3.3,3-5.2,4.6
			c2.4,0.9,4.6,0.6,6.8,0.5c3.1-0.1,5.9-1,8.8-2C857,310,867.4,302.9,877.3,295.1z"/>
		<path class="st0" d="M751.1,431.8c-0.4,2.8-0.8,5.5-1.2,8.3c-0.2,1.2-0.3,2.3-0.4,3.7c12.3,0,24.5,0,36.9,0
			c-1.1,8-2.2,15.7-3.2,23.4c-1.7,0.1-3.2,0.2-4.7,0.3c-0.8,0-1.6-0.1-2.4-0.1c-17.1,0-34.2,0-51.3,0c-0.8,0-1.5,0-2.5,0
			c0.2-1.6,0.4-2.9,0.6-4.2c0.5-3.8,1.1-7.6,1.6-11.4c0.5-3.7,1-7.4,1.5-11.1c0.5-3.8,1-7.6,1.6-11.4c0.5-3.6,1-7.3,1.5-10.9
			c0.5-3.7,1-7.4,1.5-11.1c0.5-3.9,1.1-7.7,1.6-11.6c0.5-3.6,1-7.3,1.5-10.9c0.7-5.5,1.5-11.1,2.2-16.6c0.3-2,0.7-4,1-6.2
			c20.3,0,40.7,0,61.2,0c-1.2,7.8-2.3,15.5-3.5,23.3c-1.6,0.1-3.1,0.1-4.5,0.2c-0.4,0-0.7-0.1-1.1-0.1c-10.1,0-20.1,0-30.2,0
			c-0.3,0-0.7,0.1-1.1,0.1c-0.2,2.1-0.4,4-0.6,6c-0.4,2.5-0.8,5.1-1.2,7.6c-0.1,0.9-0.2,1.9-0.4,3.1c10.5,0,20.9,0,31.7,0
			c-1.1,8-2.2,15.7-3.2,23.6c-1.6,0-3,0-4.5,0c-0.3,0-0.6-0.1-0.9-0.1c-8.5,0-17,0-25.5,0c-0.3,0-0.7,0.1-1.2,0.1
			C751.5,427.9,751.3,429.8,751.1,431.8z"/>
		<path class="st1" d="M445.6,354.7c-3.4-3-4.7-9.3-2.9-13.4c0.7-1.6,1.9-2.7,3.8-3.1c3.4-0.7,6.8-0.6,10.2-0.2
			c1.9,0.3,2.9,1.6,3.5,3.3c2.7-0.2,5.4-0.3,8-0.5c8.2-0.7,16.4-1.3,24.5-2.2c8.5-0.9,16.9-1.8,25.3-2.9c8.7-1.1,17.4-2.3,26.1-3.7
			c10.7-1.7,21.4-3.6,31.9-6.6c1.9-0.6,3.8-1.2,5.7-1.9c0.8-0.3,1.8-0.4,1.9-1.6c0.1-0.4,0.5-0.9,0.4-1.1c-0.5-0.8-1.1-1.6-1.8-2.1
			c-1.4-0.8-2.9-1.4-4.5-1.9c-7.7-2.5-15.4-5-23.2-7.4c-7.6-2.3-15.3-4.3-23-6.4c-3.4-1-7-1.6-10-3.9c-0.1-0.1-0.4-0.1-0.6-0.1l0,0
			c-0.2-0.3-0.4-0.6-0.5-0.8c-3.9-4.2-5.3-9.3-5.8-14.9c-0.4-4,1.4-6.3,4.3-8.2c4.5-2.9,9.3-5.1,14.3-7.1c9.5-3.9,19.3-6.9,29.4-8.9
			c6.7-1.3,13.4-2.9,20.2-4.1c5.3-0.9,10.7-1.3,16.1-1.7c8.5-0.7,16.8,0.2,25,2.3c0.4,0.1,0.7,0.2,1.1,0.3c3.6,0.7,6.2,2.6,7.7,6
			c0.2,0.4,0.5,0.7,0.7,1.1c0.1,0.2,0.3,0.4,0.4,0.6c0,0,0,0,0,0c0.1,0.6,0.2,1.3,0.3,1.9c0.6,2.4,1.1,4.8,1.1,7.4
			c0,4.5-1.8,8-5.4,10.7c-3.7,2.8-7.7,5.1-12,7c-2.5,1.1-5,2.5-8,2.3c-1.8-0.5-2.6-1.8-2.7-3.6c-0.1-1.6-0.3-3.2-0.4-4.8
			c0-3.3,1.8-5.5,5.1-6.2c4.8-1,9.3-2.6,13.6-4.9c0.7-0.4,1.7-0.6,1.8-1.7c0.7-1.2,0.7-2-0.6-2.6c-1.7-0.9-3.4-1.7-5.2-2.2
			c-3.6-1-7.3-1.7-11-1.9c-3.5-0.1-7.1-0.6-10.6-0.3c-5.3,0.4-10.6,1.2-15.9,2.1c-5.1,0.8-10.2,1.9-15.3,3c-9.3,2-18.4,4.8-27.4,8.1
			c-5.9,2.2-11.7,4.8-17.3,7.7c-0.6,0.3-1.2,0.9-1.6,1.5c-0.7,1.2-0.4,1.9,0.9,2.3c0.9,0.3,1.9,0.4,2.8,0.5c3,0.9,5.9,1.7,8.9,2.6
			c13.3,3.6,26.6,7.2,39.7,11.5c2.9,1,5.8,2.1,8.4,3.9c2.8,1.9,5.3,4,6.6,7.2c0.1,0.2,0.3,0.3,0.4,0.5c0,0,0,0,0,0
			c0,0.6-0.1,1.2,0.1,1.8c0.8,2.7,1,5.5,0.8,8.3c-0.3,4.4-2.1,7.8-6.2,9.7c-2.3,1.1-4.7,2.1-7.2,2.9c-4.1,1.3-8.3,2.4-12.5,3.3
			c-4.4,1-8.8,1.7-13.2,2.5c-3.2,0.5-6.4,1-9.6,1.4c-3.6,0.5-7.2,1.1-10.9,1.6c-3.1,0.4-6.1,0.6-9.2,1c-4.6,0.5-9.2,1.2-13.8,1.7
			c-3.7,0.4-7.5,0.7-11.2,1c-1.8,0.2-3.5,0.3-5.3,0.5c-3.7,0.4-7.4,0.8-11.2,1.2c-3.4,0.3-6.9,0.6-10.3,0.9c-4.8,0.4-9.6,0.6-14.3,1
			c-0.6,0-1.2,0.2-1.7,0.2C451.6,354.5,448.6,355.3,445.6,354.7z"/>
		<path class="st0" d="M978.8,367.9c-0.9-1.9-1.7-3.9-2.6-5.9c1.6-0.4,22.2-0.6,26.2-0.2c4.3,9.6,8.3,19.4,12.8,29.4
			c6.6-10.1,13-19.7,19.4-29.5c9,0,17.8,0,27,0c-0.4,0.7-0.7,1.3-1.1,1.9c-11.8,18.4-23.5,36.9-35.4,55.3c-1,1.5-1.5,3-1.7,4.7
			c-1.7,12.7-3.3,25.5-5,38.2c-0.2,1.8-0.5,3.5-0.8,5.5c-1.5,0-3,0-4.5,0c-6.5,0-13,0-19.7,0c0.1-1.2,0.1-2.2,0.2-3.1
			c0.2-2,0.6-3.9,0.8-5.9c0.5-3.6,1-7.3,1.5-10.9c0.5-3.8,1.1-7.6,1.6-11.4c0.6-4,1.1-8,1.6-12c0.4-2.8,0.8-5.5,1-8.3
			c0.1-0.8-0.1-1.8-0.4-2.5c-1.8-4-3.6-7.9-5.4-11.9c-1.9-4.1-3.8-8.3-5.7-12.4C985.3,382,982.1,374.9,978.8,367.9z"/>
		<path class="st2" d="M451.6,391.9c-0.3,0.8-0.6,1.6-1,2.4c-3.2,5.7-5.3,11.8-6.5,18.2c-0.9,4.7-1.5,9.4-1.3,14.3
			c0.5,9.4,3.7,17.8,9.9,25c7.2,8.3,16.4,13.3,27,16c5,1.3,10.2,1.7,15.4,1.4c8.7-0.5,17.2-2.4,25.2-5.9c0.2-0.1,0.4-0.1,0.9-0.2
			c-0.4,1.5-0.7,2.9-1.2,4.5c7.4,0,14.5,0,21.5,0c-0.8,2-1.5,4.1-2.3,6.1c-8.2,0-16.2,0-24.2,0c-0.6-1.5,0.9-2.7,0.7-4.3
			c-2.5,0.9-4.9,1.8-7.3,2.6c-4.7,1.6-9.5,2.5-14.3,3.1c-2.6,0.3-5.2,0.9-7.9,0.7c-9.7-0.7-18.9-3-27.4-8.1
			c-3.5-2.1-6.7-4.5-9.6-7.5c-5.6-5.9-9.5-12.6-11-20.7c-0.6-3.5-1.6-6.9-1.2-10.4c0.1-0.9,0.2-1.7,0.4-2.6c0.4-2.7,0.9-5.3,1.4-8
			c0.8-4.6,2.3-8.9,4.1-13.2c2-4.7,4.7-9,7.9-12.9C450.9,392.2,451.3,392.1,451.6,391.9z"/>
		<path class="st2" d="M828.1,367.9c-0.4,2.8-0.7,5.5-1.1,8.3c-0.5,3.9-1.1,7.9-1.6,11.8c-0.5,3.6-1,7.1-1.4,10.7
			c-0.5,3.9-1.1,7.7-1.7,11.6c-0.5,3.9-1.1,7.7-1.6,11.6c-0.5,3.7-1,7.4-1.5,11.2c-0.7,4.9-1.4,9.7-2.1,14.6
			c-0.5,3.6-1,7.1-1.5,10.7c-0.4,2.9-0.8,5.8-1.2,9c0.8,0,1.5,0,2.2,0c14.9,0,29.8,0,44.7,0c7.7,0,14.9-2,21.2-6.5
			c0.3-0.2,0.8-0.4,1.2-0.5c-0.3,1.6-1.5,2.6-2.6,3.7c-4,3.7-8.5,6.5-13.8,8.1c-3.3,1-6.7,1.6-10.2,1.6c-15.4,0-30.8,0-46.2,0
			c-0.6,0-1.1-0.1-1.8-0.1c4.9-35.2,9.7-70.3,14.6-105.6C825.3,367.9,826.7,367.9,828.1,367.9z"/>
		<path class="st2" d="M735.8,368.1c-0.8,5.5-1.5,11.1-2.2,16.6c-0.5,3.6-1,7.3-1.5,10.9c-0.5,3.9-1.1,7.7-1.6,11.6
			c-0.5,3.7-1,7.4-1.5,11.1c-0.5,3.6-1,7.3-1.5,10.9c-0.5,3.8-1,7.6-1.6,11.4c-0.5,3.7-1,7.4-1.5,11.1c-0.5,3.8-1.1,7.6-1.6,11.4
			c-0.2,1.3-0.3,2.6-0.6,4.2c0.9,0,1.7,0,2.5,0c17.1,0,34.2,0,51.3,0c0.8,0,1.6,0.1,2.4,0.1c-0.2,2-0.4,3.9-0.6,6
			c-20.3,0-40.4,0-60.8,0c0.2-2.1,0.3-4.1,0.5-6.1c1.2,0,2.3,0,3.5,0c0-2.7,0-5.1,0-7.5c0-1.2-0.2-2.5-0.3-3.7
			c-0.2-2.9-0.3-5.9-0.5-8.8c0.3-1,0.7-2,0.8-3.1c0.4-2.7,0.7-5.4,1-8.1c0.3-2.4,0.6-4.8,1-7.2c0.4-2.9,0.8-5.8,1.3-8.7
			c0.4-2.6,0.8-5.2,1.1-7.8c0.4-2.7,0.7-5.4,1.1-8c0.4-2.8,0.8-5.6,1.2-8.5c0.4-2.7,0.7-5.4,1-8.1c0.3-2.5,0.6-4.9,1-7.4
			c0.4-2.7,0.8-5.5,1.2-8.2c0.1-0.9,0.3-1.9,0.4-2.8c0.3-1.6,0.3-1.6,1.9-1.6C734,368,734.9,368,735.8,368.1z"/>
		<path class="st2" d="M909.9,383.5c-0.2,0.6-0.4,1.2-0.7,1.8c-4.7,8.5-7.6,17.7-9.1,27.3c-0.8,4.9-1.4,9.8-1.2,14.7
			c0.4,8.1,2,15.9,6.6,22.8c5.4,8.3,13.1,13.4,22.6,16c3.5,1,7.1,1.6,10.7,1.6c5.6,0.1,11-0.9,16.2-2.8c4.9-1.9,9.5-4.4,13.6-7.8
			c0.3-0.2,0.6-0.3,1-0.5c-0.2,0.4-0.3,1-0.6,1.3c-5.9,6.5-12.9,11.3-21.3,13.9c-5.3,1.7-10.8,2.5-16.3,2
			c-8.9-0.8-17.1-3.7-24.1-9.5c-6-5.1-9.8-11.4-11.8-18.9c-0.1-0.5-0.2-0.8-0.8-0.8c2-5.2,2.5-10.7,2.1-16.2
			c-0.2-3.2-1.1-6.3-2.6-9.2c0.3-0.4,0.7-0.7,0.8-1.2c1.2-7.3,3.4-14.4,6.3-21.2c2-4.5,4.5-8.7,7.5-12.6
			C908.9,384,909.5,383.8,909.9,383.5z"/>
		<path class="st3" d="M687.7,372.3c0.9,0.4,1.7,0.7,2.6,1.1c1.8,0.9,1.9,0.9,3.2-0.5c1.8-2,3.6-4.1,5.4-6.2
			c0.2-0.2,0.4-0.4,0.6-0.7c3.3-3.5,6.5-7.1,10-10.4c6.6-6.2,13.2-12.5,20.4-18c0.6-0.5,1.2-1,1.8-1.5c2,1.3,3.9,2.6,5.8,3.7
			c5.6,3.1,11.7,4,18.1,3.2c9.2-1.1,17.2-4.9,24.9-9.6c7.4-4.5,14.2-9.7,20.5-15.6c2.9-2.7,5.7-5.4,8.5-8.1c1-1,1.8-2.1,2.6-3.3
			c1.3-2,2-4.2,1.8-6.7c-0.1-1-0.1-2.1-0.1-3.1c2.7,2.2,4.2,7.3,1.9,12c-0.7,1.4-1.4,2.8-2.5,3.9c-10.8,11.6-22.8,21.7-37.1,28.9
			c-5.7,2.9-11.7,5.1-18,5.8c-7.8,0.8-15-0.6-21.4-5.5c-0.6-0.5-1.3-1-2.1-1.6c-1.2,0.9-2.4,1.8-3.6,2.8
			c-6.9,5.6-13.5,11.5-19.8,17.8c-0.3,0.3-0.4,0.6-0.6,0.9c-2.7,2.7-5.4,5.4-8,8.2c-2.3,2.5-4.5,5.1-6.7,7.6c-0.5,0.5-1.2,1-2,0.6
			c-2.6-1.2-4.8-2.8-6.4-5.2C687.6,372.7,687.7,372.5,687.7,372.3z"/>
		<path class="st3" d="M445.6,354.7c3,0.6,6-0.2,9-0.2c0.6,0,1.2-0.2,1.7-0.2c4.8-0.3,9.6-0.6,14.3-1c3.4-0.3,6.9-0.5,10.3-0.9
			c3.7-0.4,7.4-0.8,11.2-1.2c1.8-0.2,3.5-0.3,5.3-0.5c3.7-0.3,7.5-0.6,11.2-1c4.6-0.5,9.2-1.1,13.8-1.7c3.1-0.4,6.1-0.6,9.2-1
			c3.6-0.5,7.3-1.1,10.9-1.6c3.2-0.5,6.4-0.9,9.6-1.4c4.4-0.8,8.8-1.5,13.2-2.5c4.2-0.9,8.4-2.1,12.5-3.3c2.4-0.7,4.8-1.8,7.2-2.9
			c4.1-1.9,5.9-5.3,6.2-9.7c0.2-2.8,0-5.6-0.8-8.3c-0.2-0.6-0.1-1.2-0.1-1.8c0.8,1.1,1.7,2.2,2.2,3.4c1.5,3.9,1.9,8,1.3,12.2
			c-0.5,3.8-2.5,6.6-6,8.2c-4.5,2.1-9.2,3.7-14,4.8c-7.9,2-15.9,3.5-23.9,4.6c-9.3,1.3-18.6,2.5-27.9,3.6
			c-5.4,0.7-10.9,1.2-16.3,1.8c-7.1,0.7-14.1,1.4-21.2,2.1c-4.5,0.4-9,0.7-13.5,1.1c-6.4,0.5-12.8,1-19.2,1.6
			C448.6,359.2,446.7,358,445.6,354.7z"/>
		<path class="st3" d="M809.8,345.7c0.5,0.2,0.9,0.4,1.4,0.6c2.1,1.2,4.3,1.9,6.7,2.1c1.6,0.1,3.2,0.4,4.8,0.4c6.5-0.3,13-1,19.3-3
			c8.4-2.7,16.3-6.2,23.9-10.6c5.6-3.3,11.2-6.6,16.6-10.1c8.2-5.3,16.1-11.2,23.6-17.4c6.6-5.4,13-10.9,19.5-16.3
			c0.6-0.5,1.2-0.9,1.9-1.4c1.3,1.1,2.2,2.5,3,3.9c-2.4,2-4.9,4-7.3,6.1c-11.5,9.8-23.3,19.2-35.7,27.7
			c-8.6,5.8-17.4,11.3-26.7,15.8c-6.4,3.1-12.9,5.8-19.8,7.5c-3.9,1-7.8,1.6-11.8,1.8c-3,0.1-5.9,0.3-8.8-0.1
			c-4.1-0.5-7.7-2.2-10-5.7C810.1,346.4,810,346,809.8,345.7z"/>
		<path class="st2" d="M978.8,367.9c3.3,7,6.5,14,9.8,21c1.9,4.1,3.8,8.3,5.7,12.4c1.8,3.9,3.7,7.9,5.4,11.9
			c0.3,0.8,0.5,1.7,0.4,2.5c-0.3,2.8-0.7,5.5-1,8.3c-0.5,4-1.1,8-1.6,12c-0.5,3.8-1.1,7.6-1.6,11.4c-0.5,3.6-1,7.3-1.5,10.9
			c-0.3,2-0.6,3.9-0.8,5.9c-0.1,0.9-0.1,1.9-0.2,3.1c6.7,0,13.2,0,19.7,0c-0.3,2-0.6,4-0.9,6.1c-8.2,0-16.2,0-24.3,0
			c0.4-3.2,0.8-6.3,1.2-9.4c0.5-3.8,1.1-7.5,1.7-11.3c0.4-2.8,0.6-5.5,1-8.3c0.3-2.5,0.7-5.1,1-7.6c0.4-2.8,0.8-5.5,1.2-8.2
			c0.3-1.8,0.5-3.6,0.8-5.4c0.2-1.3,0.2-2.4-0.4-3.6c-1.7-3.4-3.2-6.9-4.8-10.4c-0.2-0.4-0.5-0.8-0.8-1.3c-0.2-3-0.2-6-0.5-9
			c-1.2-10.6-4.8-20.1-12.6-27.8c-1.1-1.1-2.3-2-3.5-3C974.3,368.1,976.6,368,978.8,367.9z"/>
		<path class="st2" d="M554.2,442.4c0.5-1.5,1-3.1,1.6-4.6c0.7-1.9,0.8-1.9,2.9-1.9c3.9,0,7.7,0,11.6,0c2.6,0,5.2,0,7.9,0
			c0.2,0.5,0.5,1.1,0.6,1.6c0.7,5.4,1.2,10.8,1.9,16.2c0.5,4.4,1.2,8.9,1.8,13.6c0.8,0,1.6,0,2.4,0c10.6,0,21.2,0,31.8,0
			c0.7,0,1.5,0,2.2,0.1c-0.6,2-1.2,4-1.9,6.1c-13.3,0-26.4,0-39.8,0c-0.2-0.5-0.5-1.1-0.5-1.7c-0.5-4.3-0.9-8.6-1.4-12.9
			c-0.6-4.7-1.2-9.4-1.8-14.2c-0.1-0.7-0.3-1.4-0.6-2.4C566.6,442.4,560.4,442.4,554.2,442.4z"/>
		<path class="st3" d="M526.3,289.9c-0.9-0.2-1.9-0.3-2.8-0.5c-1.3-0.4-1.6-1.1-0.9-2.3c0.4-0.6,0.9-1.1,1.6-1.5
			c5.6-3,11.4-5.5,17.3-7.7c8.9-3.3,18-6.1,27.4-8.1c5.1-1.1,10.2-2.1,15.3-3c5.3-0.9,10.6-1.7,15.9-2.1c3.5-0.3,7.1,0.1,10.6,0.3
			c3.8,0.1,7.4,0.9,11,1.9c1.8,0.5,3.6,1.3,5.2,2.2c1.2,0.7,1.3,1.5,0.6,2.6c-7.2-2.2-14.5-3.4-22-3.1c-4.6,0.2-9.1,0.7-13.6,1.4
			c-6.9,1.1-13.8,2.4-20.6,3.9c-14.1,3.2-27.8,7.7-40.9,14C528.9,288.5,527.6,289.2,526.3,289.9z"/>
		<path class="st3" d="M931.7,340.8c3.3,1,6.5-0.3,9.8-0.7c2.5-0.3,5.1-0.7,7.6-1.1c2.8-0.4,5.5-0.8,8.3-1.2c2.8-0.4,5.7-0.7,8.5-1
			c3.6-0.4,7.1-0.9,10.7-1.3c1.8-0.2,3.7-0.4,5.5-0.5c3.2-0.2,6.5-0.4,9.7-0.5c3.8-0.2,7.5-0.3,11.3-0.5c3.6-0.1,7.2-0.4,10.8-0.3
			c5.4,0.1,10.8,0.5,16.1,0.9c4.6,0.3,9.2,0.9,13.8,1.3c1.3,0.1,1.8,0.5,2,1.6c0.1,0.8-0.2,1.6-0.3,2.4c-4.3-0.4-8.5-1-12.8-1.3
			c-5-0.3-10-0.6-15.1-0.7c-5-0.1-10.1-0.1-15.1,0.1c-7.9,0.4-15.8,1-23.7,1.7c-6.9,0.6-13.8,1.5-20.7,2.3
			c-5.6,0.7-11.1,1.6-16.6,2.5c-1.2,0.2-2.5,0.4-3.7,0.6c-1.4,0.2-2.7-0.1-3.6-1.1C933.3,343.1,932.5,341.9,931.7,340.8z"/>
		<path class="st2" d="M636.1,424.3c1.4-4.4,2.8-8.9,4.2-13.3c0.2,0,0.3,0,0.5,0c3,18.7,5.9,37.4,8.9,56.2c6.1,0,12.1,0.1,18,0.1
			c-0.6,1.6-1.3,3.1-1.7,4.7c-0.3,1.2-0.9,1.5-2,1.5c-4.7,0-9.3,0-14,0c-1.8,0-3.7,0-5.7,0c-0.4-2.2-0.7-4.3-1.1-6.5
			c-0.7-4.3-1.5-8.6-2.1-13c-0.5-3.4-0.9-6.8-1.5-10.2c-0.6-4.1-1.4-8.2-2-12.3c-0.4-2.2-0.7-4.5-1-6.7
			C636.5,424.8,636.2,424.5,636.1,424.3z"/>
		<path class="st2" d="M688.6,420.8c1.7-4.3,3.3-8.6,5.2-13.2c0.2,0.6,0.4,0.9,0.4,1.2c0.2,3.8,0.4,7.5,0.6,11.3
			c0.4,7.2,0.9,14.4,1.3,21.6c0.3,4.5,0.6,9,0.9,13.4c0.3,4,0.6,8,0.9,12.3c5.9,0,11.8,0.1,17.7,0.1c0,2,0,4,0,6.1
			c-7.7,0-15.3,0-23,0c-0.2-1.6-0.4-3.3-0.5-4.9c-0.3-4.2-0.6-8.5-0.9-12.7c-0.1-2.1-0.3-4.2-0.4-6.4c-0.2-3.9-0.3-7.8-0.5-11.7
			c-0.2-3.1-0.6-6.1-0.8-9.2c-0.1-1.4,0-2.8-0.1-4.2C689.3,423.2,688.9,422,688.6,420.8z"/>
		<path class="st3" d="M818.2,338.6c-2.8-1.2-3.2-2-2.6-4.9c0.4-2.2,1.8-3.9,3-5.6c1.3-1.8,2.8-3.4,4.2-5c2,0.5,3.8,0.9,5.7,1.3
			c2.9,0.6,5.8,0.4,8.8,0.1c4.4-0.5,8.6-1.6,12.8-3c5.8-2.1,11.3-5,16.6-8.1c6.7-4,12.8-8.9,19-13.7c2.8-2.2,2.8-4.9,2.5-7.9
			c-0.1-0.7-0.2-1.3-0.3-1.9c3.1,3,3.7,6.8,3,10.8c-0.1,0.8-0.9,1.7-1.6,2.3c-7,6.1-14.4,11.5-22.5,16.1c-6.8,3.8-13.8,7-21.5,8.7
			c-4.9,1.1-9.9,1.6-14.9,0.7c-1.4-0.3-2.8-0.8-4.5-1.2c-2.6,2.9-5.4,5.8-7,9.6C818.4,337.3,818.3,338,818.2,338.6z"/>
		<path class="st3" d="M601.8,344.9c2.3,0.9,4.6,1.8,7,1.2c2.2-0.5,4.4-1,6.5-1.9c9.5-3.7,18.8-8.1,27.7-13.1
			c7.3-4.1,14.6-8.3,21.9-12.4c0.1,0,0.1,0,0.3,0c-1.2,2.6-2.4,5.3-3.5,7.9c-0.9,0.4-1.9,0.8-2.8,1.3c-12.6,7.2-25.4,14.2-38.9,19.5
			c-2.5,1-5.1,1.8-7.8,2.5c-4.2,1-8.1-0.7-10.3-4.3C601.9,345.5,601.9,345.1,601.8,344.9z"/>
		<path class="st3" d="M614.3,332.6c-1.4,0.5-2.8,0.9-4.1,1.4c-1,0.4-1.7,0.1-2.3-0.8c-0.5-0.9,0-1.4,0.6-1.9
			c6.2-6.2,12.3-12.5,19-18.2c9.1-7.7,18.5-15.1,27.9-22.4c0.2-0.1,0.4-0.2,0.6-0.2c0.4,0.4,0.7,0.7,1,1.1c0.6,0.8,1.2,1.7,1.8,2.6
			c-3,2.3-5.8,4.5-8.7,6.7c-11.8,9.2-23.4,18.6-34,29.2c-0.6,0.6-1,1.2-1.5,1.8l0,0C614.6,332.2,614.4,332.4,614.3,332.6z"/>
		<path class="st3" d="M665.8,336.9c1.1,0.4,2.1,0.9,3.2,1.3c2.6,0.9,5.1,0.1,7.5-0.7c3.4-1.2,6.7-2.6,10-4.1
			c7.1-3.3,14.1-6.6,21.1-10.1c6.2-3.1,12.1-6.6,18.2-9.9c0.8-0.4,1.8-0.7,2.6-1.1c0.1,0.1,0.1,0.1,0.2,0.2
			c-0.3,0.4-0.5,0.9-0.8,1.3c-2.7,3-5.4,5.9-8.1,8.8c-0.2,0.2-0.3,0.3-0.5,0.5c0,0,0,0,0,0c-0.6,0.2-1.3,0.2-1.8,0.5
			c-10.9,6.1-22.2,11.2-33.6,16.3c-2.6,1.2-5.3,2.1-8.2,2.6c-4,0.7-8.3-2.3-9.8-5.1C665.7,337.2,665.8,337,665.8,336.9z"/>
		<path class="st2" d="M474.7,400.8c0.9-2.1,2.7-3.4,4.4-4.8c6.9-6,15-9.6,23.9-11.4c5.9-1.2,11.8-1.5,17.8-0.7
			c3.5,0.4,7,0.9,10.4,1.9c-0.4,2.4-0.8,4.9-1.2,7.5c-1.5-0.4-2.8-0.8-4.2-1.2c-4.1-1.1-8.3-1.9-12.6-2c-1.3,0-2.6-0.4-3.9-0.3
			c-7.7,0.3-15.3,1.3-22.5,4.5c-3.7,1.6-7.2,3.6-10.5,6C475.9,400.6,475.3,400.6,474.7,400.8z"/>
		<path class="st2" d="M629.5,368c-0.8,2.8-1.6,5.7-2.5,8.5c-6,18.3-12.1,36.6-18.1,54.9c-1.6,5-3.3,9.9-4.9,14.9
			c-0.2,0.5-0.4,0.9-0.7,1.8c-0.4-2.9-0.7-5.4-1-7.8c0.6-1.4,1.2-2.8,1.7-4.2c4-12,8-24,11.9-36c3.2-9.7,6.3-19.5,9.5-29.2
			C626.6,367.7,626.2,367.9,629.5,368z"/>
		<path class="st2" d="M488.4,421.6c-0.3,2.7-0.7,5.4-1,8.1c-0.3,2-0.5,4-0.8,6.3c6.3,0,12.2,0,18.4,0c-0.4,2.2-0.7,4.1-1,6
			c-0.2,1-0.7,1.6-1.6,1.9c-1.1,0.3-2.1,0.5-3.2,0.8c0-0.6,0-1.3,0-2.1c-6.1,0-12,0-18.1,0c0.6-3.8,1.1-7.3,1.6-10.8
			c0.4-2.8,0.7-5.5,1-8.3c0.2-1.6,0.2-1.7,1.9-1.8C486.4,421.6,487.4,421.6,488.4,421.6z"/>
		<path class="st2" d="M558.8,368c-0.7,2-1.3,4-2.1,6c-5.2,13.1-10.4,26.2-15.6,39.4c-4.4,11.2-8.8,22.5-13.2,33.7
			c-0.1,0.3-0.3,0.6-0.7,0.9c0.5-3.9,1-7.8,1.5-11.6c0.3-0.3,0.6-0.5,0.8-0.9c3.1-7.7,6.2-15.5,9.3-23.2c3.3-8.2,6.5-16.5,9.8-24.7
			c2.4-6.1,4.8-12.1,7.2-18.2c0.2-0.5,0.4-0.9,0.6-1.3C557.2,368,558,368,558.8,368z"/>
		<path class="st3" d="M678.6,327c-1.7,0.7-3.4,1.3-5.6,0.8c0.2-0.6,0.2-1.2,0.4-1.6c1.6-2.5,3.2-5.1,5.1-7.5
			c4.1-5.4,8.6-10.4,13.4-15.3c3.4-3.4,6.7-6.9,10-10.3c0.6-0.6,1.2-1.1,1.8-1.6c0.9,1.2,1.9,2.5,2.9,3.8c-0.5,0.5-0.8,1-1.2,1.4
			c-6.6,6.4-13,12.9-19,19.9c-2.3,2.7-4.5,5.5-6.7,8.3C679.2,325.5,678.9,326.3,678.6,327z"/>
		<path class="st2" d="M756.9,391.4c0.2-2,0.4-3.9,0.6-6c0.4-0.1,0.8-0.1,1.1-0.1c10.1,0,20.1,0,30.2,0c0.4,0,0.7,0.1,1.1,0.1
			c-0.3,2-0.6,4-0.9,6.1c-0.7,0-1.1,0-1.5,0c-9.6,0-19.2,0-28.8,0C758.1,391.5,757.5,391.4,756.9,391.4z"/>
		<path class="st3" d="M521,299.1c0.2,0,0.5,0,0.6,0.1c2.9,2.3,6.5,2.9,10,3.9c7.7,2.1,15.4,4.2,23,6.4c7.8,2.3,15.5,4.9,23.2,7.4
			c1.5,0.5,3.1,1.1,4.5,1.9c0.8,0.4,1.3,1.3,1.8,2.1c0.1,0.2-0.2,0.7-0.4,1.1c-3.8-1.3-7.5-2.6-11.3-3.8
			c-13.2-4.2-26.6-8.2-40.1-11.5c-4.1-1-7.8-2.6-10.5-6C521.5,300.1,521.2,299.6,521,299.1z"/>
		<path class="st3" d="M609.9,292.9c2.9,0.2,5.4-1.1,8-2.3c4.2-1.9,8.3-4.2,12-7c3.6-2.8,5.4-6.2,5.4-10.7c0-2.5-0.5-4.9-1.1-7.4
			c-0.1-0.6-0.2-1.3-0.3-1.9c0.8,1.2,1.7,2.4,2.2,3.7c1.9,4.4,2.7,9,1.4,13.8c-0.5,1.9-1.5,3.5-3,4.8c-3.7,3.5-8,6-12.6,8.2
			c-1.5,0.7-3.1,1.3-4.7,1.9c-0.5,0.2-1.1,0.4-1.7,0.6C612.1,297.6,610.4,296.4,609.9,292.9z"/>
		<path class="st2" d="M751.1,431.8c0.2-2,0.3-3.9,0.5-6c0.5-0.1,0.8-0.1,1.2-0.1c8.5,0,17,0,25.5,0c0.3,0,0.6,0,0.9,0.1
			c-0.3,2-0.6,4-1,6.2c-0.8,0-1.5,0-2.1,0c-7.6,0-15.2,0-22.8,0C752.6,431.9,751.9,431.8,751.1,431.8z"/>
		<path class="st2" d="M684,368c0.1,0.2,0.1,0.3,0.2,0.5c-1.5,3.9-3,7.8-4.5,11.7c-4.5,11.6-9,23.2-13.5,34.7
			c-0.2,0.6-0.5,1.2-1,2.3c-0.4-2.4-0.7-4.3-1-6.2c0.3-0.2,0.7-0.3,0.8-0.5c3.1-8,6.3-16.1,9.4-24.1c2.1-5.5,4.3-11,6.5-16.6
			c0.2-0.5,0.5-1,0.9-1.7C682.4,368,683.2,368,684,368z"/>
		<path class="st3" d="M753,308.9c-0.8,0.6-1.6,1.3-2.4,1.8c-4,2.6-8,5.2-12.1,7.8c-0.1,0.1-0.3,0-0.7,0.1c0.2-0.4,0.3-0.7,0.5-0.9
			c3.9-4.2,7.8-8.5,11.7-12.7c4-4.3,8-8.7,12-13c0.9,1.3,1.9,2.6,2.9,3.9c-1.1,1.2-2,2.2-2.9,3.2c-2.5,2.6-4.9,5.2-7.4,7.9
			c-0.4,0.4-1.2,0.7-0.8,1.6l0,0C753.4,308.1,753.2,308.4,753,308.9z"/>
		<path class="st3" d="M1048.5,341.4c2.9-0.2,5.9-0.4,8.8-0.6c2.2-0.1,4.4-0.2,6.8-0.4c0.8-2.6,0.8-5.1,0.9-7.6c1.4-0.1,1.8,1,2.3,2
			c0.7,1.8,0.6,3.8,0.4,5.7c-0.1,1.2-0.4,2.5-0.6,4c-6.2,0.3-12.4,0.7-18.6,1C1048.5,344,1048.5,342.7,1048.5,341.4z"/>
		<path class="st3" d="M945,328.1c-1.5,0.3-3,0.5-4.9,0.9c1-2.5,1.8-4.7,2.7-6.9c1.5-3.6,3.2-7.1,4.6-10.7c1-2.5,1.6-5.2,0.8-7.9
			c-0.2-0.5-0.1-1.2-0.1-1.8c3.1,3.4,4,7.5,2.7,11.9c-1,3.2-2.5,6.3-3.8,9.4C946.3,324.7,945.7,326.4,945,328.1z"/>
		<path class="st3" d="M936.2,286.8c-1-1.1-1.9-2.2-2.9-3.3c0.4-0.9,0.7-1.6,1-2.3c1.6-3.2,1.4-6.7,1.4-10.1c2.3,1.7,2.9,4.2,3,6.8
			C938.8,281.1,938.1,284.1,936.2,286.8z"/>
		<path class="st0" d="M1029.3,467.5c-3.6,0-6.4-2.9-6.4-6.5c0-3.6,3-6.6,6.6-6.6c3.5,0,6.5,3.2,6.4,6.6
			C1035.8,464.7,1033,467.5,1029.3,467.5z M1029.5,466.6c3.1,0,5.6-2.6,5.5-5.7c0-3.2-2.6-5.6-5.7-5.5c-3.1,0-5.6,2.6-5.5,5.7
			C1023.8,464.2,1026.3,466.6,1029.5,466.6z"/>
		<path class="st2" d="M910.8,382.2c-0.2,0.3-0.4,0.5-0.5,0.8C910.5,382.7,910.7,382.4,910.8,382.2z"/>
		<path class="st2" d="M473.3,402.5c0.2-0.2,0.4-0.5,0.6-0.7C473.7,402,473.5,402.2,473.3,402.5z"/>
		<path class="st3" d="M520.4,298.3c0.2,0.3,0.4,0.6,0.5,0.8C520.8,298.8,520.6,298.5,520.4,298.3z"/>
		<path class="st3" d="M935.8,271.1c-0.2-0.3-0.3-0.5-0.5-0.8C935.4,270.6,935.6,270.9,935.8,271.1z"/>
		<path class="st3" d="M948.1,301.8c-0.1-0.2-0.3-0.4-0.4-0.5C947.9,301.4,948,301.6,948.1,301.8z"/>
		<path class="st3" d="M590.3,315.6c-0.1-0.2-0.3-0.3-0.4-0.5C590,315.2,590.2,315.4,590.3,315.6z"/>
		<path class="st3" d="M601.4,344.4c0.2,0.2,0.3,0.3,0.5,0.5C601.7,344.7,601.5,344.5,601.4,344.4z"/>
		<path class="st3" d="M665.4,336.4c0.2,0.2,0.3,0.3,0.5,0.5C665.7,336.7,665.5,336.6,665.4,336.4z"/>
		<path class="st2" d="M452.5,390.6c-0.1,0.2-0.3,0.4-0.4,0.5C452.3,391,452.4,390.8,452.5,390.6z"/>
		<path class="st2" d="M452,391.4c-0.1,0.2-0.2,0.3-0.4,0.5C451.7,391.8,451.9,391.6,452,391.4z"/>
		<path class="st2" d="M969.4,456.7c0.1-0.1,0.3-0.3,0.4-0.4C969.7,456.4,969.6,456.5,969.4,456.7z"/>
		<path class="st3" d="M931.3,340.3c0.1,0.2,0.3,0.4,0.4,0.6C931.6,340.7,931.4,340.5,931.3,340.3z"/>
		<path class="st3" d="M633.9,263.6c-0.1-0.2-0.3-0.4-0.4-0.6C633.6,263.2,633.7,263.4,633.9,263.6z"/>
		<path class="st2" d="M883.7,460.3c0.2-0.1,0.3-0.3,0.5-0.4C884,460,883.8,460.1,883.7,460.3z"/>
		<path class="st3" d="M887.6,289.8c-0.1-0.1-0.2-0.3-0.4-0.4C887.4,289.5,887.5,289.7,887.6,289.8z"/>
		<path class="st3" d="M664.9,335.9c0.2,0.2,0.3,0.3,0.5,0.5C665.2,336.3,665.1,336.1,664.9,335.9z"/>
		<path class="st2" d="M969.9,456.2c0.1-0.2,0.3-0.3,0.4-0.5C970.2,455.9,970,456.1,969.9,456.2z"/>
		<path class="st2" d="M568.4,406.8c1.5-4.2,3-8.4,4.5-12.6c0.1,0,0.3,0.1,0.4,0.1c0.8,6.9,1.6,13.8,2.5,21c-2.2-0.2-4.1,0.4-6-0.4
			c-0.3-2.1-0.6-4.3-0.9-6.4C568.8,408,568.6,407.4,568.4,406.8z"/>
		<path class="st3" d="M687.2,371.5c0.2,0.3,0.3,0.6,0.5,0.8C687.5,372.1,687.4,371.8,687.2,371.5z"/>
		<path class="st2" d="M867.3,441.7c0-0.6-0.1-1.2,0-1.8c0.6-3.9-3.7-8.1-7.9-8.1c-5.3,0-10.5,0-15.8-0.1c0.2-2,0.4-3.9,0.6-6
			c0.5-0.1,0.9-0.1,1.3-0.1c6.4,0,12.7,0,19.1,0c1.8,0,3.5,0.4,4.9,1.6c3.5,3,4,6,1.8,10.3C870.5,439.3,869.4,441,867.3,441.7z"/>
		<path class="st2" d="M868.2,400.4c-0.2-4.6-2.4-7.5-6.7-8.7c-0.6-0.1-1.2-0.2-1.7-0.2c-3.6,0-7.1,0-10.7,0c0.2-2,0.4-4.1,0.7-6.3
			c0.8,0,1.5,0,2.1,0c4.5,0,9,0.1,13.5,0c3.5-0.1,7,2.6,7.8,6.5c0.2,0.9,0,2.1-0.3,3C872.1,397.3,871,399.5,868.2,400.4z"/>
		<path class="st2" d="M866.9,442.1c0.2-0.1,0.3-0.3,0.5-0.4C867.2,441.9,867,442,866.9,442.1z"/>
		<path class="st3" d="M797.6,307c-1.1,0.2-2.2,0.4-3.2,0.7c-14.6,4.6-28.3,11.4-41.3,19.6c-2.4,1.5-4.8,3.2-7.2,4.7
			c-2.4-0.5-3-0.8-5-2.5c18.9-13.2,39.1-23.6,61.8-28.6C801.6,303.5,799.5,305.2,797.6,307z"/>
		<path class="st3" d="M729,312c0.1-0.1,0.1-0.2,0.2-0.3C729.1,311.8,729.1,311.9,729,312L729,312z"/>
		<path class="st3" d="M729,312c-0.1,0.2-0.3,0.3-0.4,0.5c-0.1-0.1-0.1-0.1-0.2-0.2C728.6,312.2,728.8,312.1,729,312
			C729,312,729,312,729,312z"/>
		<path class="st2" d="M955.2,438.1c0.5-1.6,1.1-3.2,1.6-4.8c0.9-2.9,1.8-5.9,2.4-8.9c0.8-4.3,1.2-8.7,0.9-13.2
			c-0.2-4.4-1.1-8.7-3.3-12.7c-3.6-6.4-9.8-9.4-16.8-8.9c-2.4,0.2-4.7,1.2-6.8,2.5c-0.5,0.3-1.1,0.4-1.6,0.6c0.9-2.1,2.6-3.5,4.3-5
			c5.9-5.2,13-5.8,19.5-2.4c4,2.1,6.5,5.5,8.1,9.6c1.2,3.1,1.8,6.4,1.9,9.7c0.3,7.5-0.7,14.8-3.1,21.9c-1.2,3.4-2.9,6.6-5.1,9.5
			C956.7,436.9,955.9,437.4,955.2,438.1z"/>
		<path class="st2" d="M954.8,438.5c0.2-0.1,0.3-0.3,0.5-0.4C955.1,438.2,954.9,438.3,954.8,438.5z"/>
		<path class="st2" d="M931.7,392.8c-0.1,0.2-0.3,0.3-0.4,0.5C931.5,393.1,931.6,393,931.7,392.8z"/>
		<path class="st3" d="M836.3,316.3c-2.2,0.2-4.4,0.4-6.8-0.5c1.8-1.6,3.4-3.2,5.2-4.6c7.5-5.9,15.5-11,24.1-15
			c5.4-2.5,11-4.5,16.9-5.5c2.1-0.4,3.5,0.4,4.5,2.4c-0.9,0.7-1.9,1.3-2.8,2c-2.3,0.5-4.6,0.8-6.8,1.6c-7.8,2.5-14.9,6.2-21.8,10.5
			C844.4,310,840,312.8,836.3,316.3z"/>
		<path class="st0" d="M1030.7,461.5c0.6,1,1.1,1.9,1.7,2.8c-0.1,0.1-0.2,0.2-0.2,0.3c-0.3-0.2-0.7-0.2-0.9-0.5
			c-0.5-0.6-0.9-1.4-1.3-2.1c-0.4-0.8-1.1-1-2-0.6c-0.1,1-0.2,2.1-0.3,3.3c-0.9-1.2-1-3.8-0.5-7.5c1.1,0,2.1,0,3.2,0
			c1.4,0.1,2.1,0.6,2.3,1.6c0.2,1.1-0.1,1.6-1.5,2.3C1031,461.3,1030.9,461.4,1030.7,461.5z M1027.9,460.5c1.1-0.1,2.1,0,3-0.2
			c0.3-0.1,0.8-0.7,0.8-1.1c0-0.4-0.5-1-0.9-1c-0.9-0.1-1.9,0-2.9,0C1027.9,458.9,1027.9,459.5,1027.9,460.5z"/>
	</g>
</g>
</svg>
