<?xml version="1.0" encoding="utf-8"?>
<!-- Generator: Adobe Illustrator 16.0.0, SVG Export Plug-In . SVG Version: 6.00 Build 0)  -->
<!DOCTYPE svg PUBLIC "-//W3C//DTD SVG 1.1//EN" "http://www.w3.org/Graphics/SVG/1.1/DTD/svg11.dtd">
<svg version="1.1" id="Layer_1" xmlns="http://www.w3.org/2000/svg" xmlns:xlink="http://www.w3.org/1999/xlink" x="0px" y="0px"
	 width="3914px" height="1186.009px" viewBox="-1080.398 683.428 3914 1186.009"
	 enable-background="new -1080.398 683.428 3914 1186.009" xml:space="preserve">
<g>
	<path d="M1196.539,996.313v58.104l64.316-16.264l4.631-62.748L1196.539,996.313L1196.539,996.313z M1196.539,894.045v53.461
		l55.782-16.275l7.743-51.905L1196.539,894.045L1196.539,894.045z M1196.539,808.056v46.483l76.703-20.143l5.421-48.04
		L1196.539,808.056z"/>
	<path d="M1196.539,742.973v44.94c39.506-10.843,75.146-20.142,105.379-26.342c15.473-3.101,13.178,13.165,17.017,27.106
		c3.878,13.178-9.272,28.663-10.843,48.04c-2.309,18.6-7.756,195.233-7.756,195.233l13.177-5.421l17.834,1.543l7.756-19.363
		l13.178,9.299l7.729-10.843l7.756,6.965l13.955-3.865c0,0-4.656-237.839,32.528-262.638c21.712-14.721,83.668-17.82,123.978-16.276
		c69.713,3.101,139.451,8.521,135.573,44.939c-3.878,37.186-47.274,51.905-47.274,51.905l10.077,12.398l-11.62,1.543v17.043
		l-20.921,6.199l5.421,7.756l-42.604,16.265l15.499,3.101l-34.862,17.82c0,0,149.502-14.722,168.101-116.209
		c11.621-64.306-100.696-103.032-200.629-96.833C1409.605,704.232,1301.127,721.288,1196.539,742.973L1196.539,742.973z
		 M1196.539,787.913v-44.94c-120.088,24.8-235.52,57.327-334.687,88.324v67.404C960.256,862.282,1090.407,818.133,1196.539,787.913z
		 M1196.539,854.539v-46.483l-60.427,15.498l-3.864,44.162l-6.2,18.586l-13.942,188.271l84.435-20.155v-58.104l-16.265,4.656
		l6.199-50.361l10.064-3.101v-53.461l-6.188,0.778l1.543-39.506L1196.539,854.539L1196.539,854.539z M861.867,1019.553v79.025
		c9.299-4.645,18.599-12.399,26.328-24.021l60.438,63.525l20.92-6.199l1.543-14.721l15.499,7.742l27.898-1.543l-4.656-6.199
		l75.146-23.242l10.063-72.047l-79.79,25.563l3.865-48.04l65.86-24.021l2.321-50.36l-65.848,20.143l3.864-41.063l77.48-27.119
		l2.322-46.472l-127.817,42.605l-2.334,44.928l-7.742,20.92l-5.422,130.151l-38.74-37.185c0,0,11.634-19.363,11.634-56.549
		c0-36.419-30.998-67.402-61.996-67.402c-3.086,0-6.199,0.777-10.842,1.557v50.348c13.164,0,27.885,4.656,24.798,23.242
		C883.553,998.646,872.71,1010.267,861.867,1019.553z"/>
	<path d="M861.867,898.701v-67.404c-44.162,14.721-86.003,28.663-123.965,41.841v76.703
		C763.465,937.441,807.627,919.621,861.867,898.701z M861.867,959.905v-50.35c-31.764,6.966-99.167,38.729-123.965,51.127v17.042
		l1.556,1.545l9.286,6.198l1.557,19.364l23.242-7.743c0,0-9.3,51.904-5.435,77.481l-30.206,12.397v6.2l3.1,0.777v15.499l5.421,7.743
		v11.62l12.399-3.878l-3.878,86.769l7.743-9.3l10.854-6.199l17.82,2.322V1186.9l17.042,2.32l3.878-10.063h20.143l1.543-69.726
		c0,0,13.179-1.558,27.898-10.844v-79.038c-7.815,6.257-16.413,11.468-25.576,15.499c-0.778-37.962,9.299-74.368,9.299-74.368
		S853.346,959.127,861.867,959.905L861.867,959.905z M737.902,810.377v1.557l6.978-2.321L737.902,810.377L737.902,810.377z
		 M737.902,811.934v-1.557l-61.971,3.1v-9.299l-20.154-0.777l6.198-17.043c-21.686,5.422-41.84,10.843-61.981,16.265v56.561
		C662.755,834.396,720.081,817.354,737.902,811.934z M737.902,949.828v-76.703c-46.367,16.501-92.35,34.066-137.908,52.683v80.568
		c5.422-0.778,9.3-1.557,11.621-1.557c6.978,10.077-0.778,51.127-11.621,100.724v167.336l1.557-0.766
		c34.862,7.756,43.384-20.92,43.384-20.92l13.164,4.63l3.878-6.966h21.687c0,0-0.778-245.582,34.085-286.645
		C720.081,959.905,727.059,955.249,737.902,949.828L737.902,949.828z"/>
	<path d="M737.902,977.726v-17.042c-5.422,2.321-8.521,3.879-8.521,3.879l6.199,5.421L737.902,977.726z M737.902,1093.156v-6.199
		l-8.521,3.1L737.902,1093.156z M599.994,859.195v-56.563c-255.66,68.947-351.727,151.852-351.727,237.074
		c0,92.189,94.524,123.965,98.389,139.451c29.441,120.074-286.658,177.4-286.658,177.4l17.042,15.498l2.322,15.5l24.798,29.44
		l29.441,5.421l9.299,17.809l50.362-6.188l-3.1,19.352c44.162,8.533,254.882-75.135,303.701-166.559
		c34.084-65.859,14.72-113.888,14.72-113.888c-22.463-79.024-120.074-82.902-121.63-152.628
		C385.396,958.361,500.827,899.479,599.994,859.195z"/>
	<path d="M599.994,1006.389V925.82c-33.307,13.942-53.461,24.021-56.548,26.342c0,0-9.3,41.063-55.783,74.369l24.785-4.645
		l-57.326,54.228C455.122,1076.114,562.031,1017.231,599.994,1006.389z M599.994,1272.892v-167.336
		c-13.177,65.86-30.22,146.429-20.92,187.479L599.994,1272.892z"/>
	<path d="M1613.348,1520.809v51.141l23.256,18.599l13.177-14.721l17.809,3.087
		C1667.574,1578.913,1646.654,1556.449,1613.348,1520.809L1613.348,1520.809z"/>
	<path d="M1613.348,1571.948v-51.141c-31.763-34.098-75.134-80.581-123.187-128.607c20.92-17.809,45.718-39.52,48.053-99.167
		c1.544-62.734-36.432-127.816-114.679-134.794h-16.264v67.402c27.133,7.743,44.939,28.65,43.396,55.783
		c-2.334,37.949-20.92,65.834-43.396,84.435v94.535c9.222-5.174,17.802-11.417,25.563-18.599
		c70.503,77.469,118.557,154.924,118.557,154.924l25.563-2.309l5.421-17.042l23.255,1.543l6.187-9.299L1613.348,1571.948
		L1613.348,1571.948z M1407.271,1084.636v20.143c3.087-1.558,5.421-2.321,8.508-3.101c0,0-9.273-13.164,29.455-25.563
		C1432.835,1079.201,1420.448,1081.536,1407.271,1084.636z M1407.271,1104.777v-20.143c-27.935,6.794-55.824,13.769-83.668,20.92
		v43.385c31.011-7.756,51.903-12.399,51.903-12.399S1382.473,1114.077,1407.271,1104.777L1407.271,1104.777z"/>
	<path d="M1407.271,1225.643v-67.402c-21.687,0.777-51.905,6.199-83.668,13.941v464.85l13.177-7.756
		c0,0,33.307-73.616,33.307-152.629c0,0,17.808-4.655,37.186-16.264v-94.537c-10.078,9.301-21.687,16.29-31.765,20.168
		c0,0-3.878-96.845-7.756-161.928C1381.708,1221.765,1395.638,1222.543,1407.271,1225.643L1407.271,1225.643z M1323.604,1148.939
		v-43.385c-30.983,8.521-64.316,17.82-97.609,27.12v41.84C1260.855,1164.438,1296.496,1155.139,1323.604,1148.939z
		 M1323.604,1637.031v-464.851c-34.862,7.742-71.281,17.82-97.609,27.106v39.519l20.142,12.399c0,0,17.029-4.63,34.863-6.199
		c6.965,98.375-6.213,206.854-6.213,206.854l-48.806,12.386v7.757l30.22,35.642l-3.878,17.041l8.533-1.543
		c0,0-3.1,42.605-34.861,99.168v39.491c16.264-5.421,31.774-14.721,31.774-14.721l57.327-19.351v13.93L1323.604,1637.031
		L1323.604,1637.031z"/>
	<path d="M1225.98,1272.892v62.762l6.198-2.321l11.621-15.513l-11.621-5.421l17.82-46.483L1225.98,1272.892z M1225.98,1174.503
		v-41.841l-46.484,13.943v42.604C1194.217,1183.803,1210.494,1179.159,1225.98,1174.503z M1225.98,1238.807v-39.519
		c-10.078,3.1-18.601,6.213-24.8,8.521c30.998,12.399,24.033,29.441,24.033,29.441L1225.98,1238.807L1225.98,1238.807z"/>
	<path d="M1225.98,1335.652v-62.762l-46.484,13.956v61.982L1225.98,1335.652z M1225.98,1471.99v-7.756l-4.645,0.791L1225.98,1471.99
		z M1225.98,1661.803v-39.492c-7.312,13.988-15.599,27.445-24.8,40.271C1207.395,1665.681,1216.693,1664.138,1225.98,1661.803z
		 M1179.496,1492.133v86.002l41.841-12.386v-79.038L1179.496,1492.133L1179.496,1492.133z M1179.496,1389.866v58.116l37.197-12.386
		l-1.558-14.721l11.621-42.606L1179.496,1389.866L1179.496,1389.866z M1179.496,1189.224v-42.604
		c-113.109,34.084-220.797,71.281-271.158,93.745v38.739c40.283-17.041,86.768-33.306,99.944-20.92
		c17.043,17.834-27.119,208.398-11.62,369.562c5.421-17.833,11.62-13.955,11.62-13.955l19.364,42.604l11.62-18.599l24.798,53.476
		l2.321-31.012l7.743,6.212c-10.063-92.967-2.321-406.743,32.542-442.372C1116.749,1213.23,1145.412,1200.845,1179.496,1189.224
		L1179.496,1189.224z"/>
	<path d="M1179.496,1348.83v-61.982l-63.525,17.808l-6.979,294.4l70.504-20.921v-86.002l-14.721,1.569l1.557-41.854l13.164-3.865
		v-58.116l-13.164,3.112l3.878-41.841L1179.496,1348.83L1179.496,1348.83z M908.352,1358.881v306.787l16.264,6.965l3.865-16.264
		l34.861,37.184c0,0-14.721-214.584,6.2-357.913c-7.743,7.729-12.399-5.446-12.399-5.446s-10.843,28.676-24.784,6.989
		C927.714,1352.682,916.857,1357.338,908.352,1358.881L908.352,1358.881z M908.352,1279.091v-38.74
		c-9.301,4.645-17.043,8.521-21.687,11.621c-12.412,7.743-25.576,29.454-25.576,29.454l-13.942,27.106
		C847.133,1308.532,875.031,1293.813,908.352,1279.091L908.352,1279.091z"/>
	<path d="M908.352,1665.681v-306.786c-3.879,0.791-6.979,0-6.979,0l-4.656,94.511l-28.663,13.178l8.521-103.81l-13.177,13.177
		l-11.621-13.177l-22.465,30.219l-4.643-10.844l-10.855,8.51v274.259l2.334-2.335l23.242,51.905l7.742-32.528l16.266,7.73v-147.207
		l32.541-11.608l1.556,129.374L908.352,1665.681L908.352,1665.681z M813.827,1247.328v3.087c6.99-3.087,13.177-6.187,20.142-9.286
		C826.991,1243.463,820.805,1245.007,813.827,1247.328z M813.827,1250.415v-3.087c-41.164,12.873-81.981,26.829-122.409,41.854
		v19.352C731.848,1288.384,772.658,1269.008,813.827,1250.415L813.827,1250.415z"/>
	<path d="M813.827,1664.916v-274.259l-6.2,5.421c0,0-21.698,189.048-13.177,272.716c8.521-10.078,12.412,6.965,12.412,6.965
		L813.827,1664.916z M691.418,1607.59v63.5c1.557,0,3.1-0.766,3.1-0.766v58.092l6.2-13.93l9.3,6.212l15.498-10.077l19.364,15.499
		l1.556-11.621l12.399,2.335l5.421-153.406l23.242-9.3l-6.199-48.027l-89.867,37.977v40.271l1.557,0.791l9.286-2.334v24.021
		C702.261,1606.813,697.617,1607.59,691.418,1607.59L691.418,1607.59z M691.418,1420.877v74.368
		c27.12-21.711,62.748-31.763,78.247-45.718l-10.843-5.422l17.042-8.509l1.557-48.026
		C777.408,1387.558,735.58,1396.078,691.418,1420.877z M691.418,1308.532v-19.352c-54.239,20.896-89.867,36.406-89.867,36.406
		l6.199-24.799c0,0-34.862,21.712-66.625,26.342v61.205C586.052,1363.55,637.179,1335.652,691.418,1308.532z"/>
	<path d="M691.418,1495.245v-74.368c-44.939,26.342-92.967,71.256-97.609,144.872c-6.979,116.987,82.125,107.688,97.609,105.354
		v-63.5c-13.177-1.568-35.641-10.077-33.319-49.597C659.655,1528.552,673.598,1509.175,691.418,1495.245z"/>
	<path d="M691.418,1584.335v-40.271l-20.142,8.508L691.418,1584.335L691.418,1584.335z M541.125,1485.168v306.034
		c7.742,7.756,16.264,13.178,25.563,6.965c6.2-3.878-9.299-191.355,21.699-311.456c0,0-17.82,13.178-29.455-37.184
		C553.511,1465.025,547.324,1476.66,541.125,1485.168L541.125,1485.168z M541.125,1388.322v-61.204
		c-11.621,2.335-24.021,2.335-32.542-3.087C459,1341.839,251.38,1469.681,208.761,1534.763c-7.756,24.772-32.541,68.17-32.541,68.17
		l-17.82,57.326l11.621-1.544l-13.177,28.678l11.621-3.879v16.265c0,0,63.526-86.003,121.63-134.029
		c-7.743,44.147-7.743,90.633-7.743,90.633l-19.376,19.376l-18.599,41.063h14.721l-1.557,15.473l13.177-6.187l-5.421,17.808h11.621
		c0,0,1.556,63.526,10.064,100.724l40.284,13.955l7.743-8.534l23.242,19.377l17.042-15.499c0,0-5.421-123.187-3.1-175.855
		c20.92-21.712,94.511-64.317,94.511-64.317l5.421-23.229l-9.299-24.799l27.105-41.063
		c-51.903,27.886-116.987,65.861-116.987,65.861s6.2-84.46,16.265-100.725C398.561,1475.104,458.222,1435.597,541.125,1388.322
		L541.125,1388.322z"/>
	<path d="M541.125,1791.189v-306.021c-13.178,20.142-26.342,26.342-26.342,26.342s-28.663,122.408-19.364,257.217l9.3-5.422
		l12.398,9.299l9.3-3.878C526.391,1768.726,532.591,1781.903,541.125,1791.189z"/>
	<path fill="#CC2229" d="M1173.297,983.146v58.104l65.082-16.277l3.878-61.97L1173.297,983.146L1173.297,983.146z M1173.297,880.104
		v55.005l55.018-17.043l7.743-51.904L1173.297,880.104L1173.297,880.104z M1173.297,794.891v47.249l75.925-20.92l6.199-48.026
		L1173.297,794.891L1173.297,794.891z"/>
	<path fill="#CC2229" d="M1173.297,729.809v44.929c39.506-10.844,75.146-20.144,105.366-26.343
		c15.499-3.1,13.178,13.178,17.833,27.119c3.853,13.165-9.299,28.664-11.62,48.807c-1.544,18.599-8.534,194.456-8.534,194.456
		l13.955-5.422l17.808,1.557l6.991-19.364l13.929,9.287l6.966-10.843l8.533,7.742l13.179-3.864c0,0-3.88-237.854,33.306-263.416
		c20.921-14.721,82.89-17.82,123.979-16.277c68.922,3.878,138.659,9.3,134.795,45.706c-3.877,36.419-45.719,51.904-45.719,51.904
		l9.301,11.621l-11.608,1.543v17.821l-21.687,6.198l6.188,6.979l-42.605,16.264l15.474,3.865l-34.863,17.043
		c0,0,150.294-14.721,168.128-116.21c12.387-63.525-100.724-103.044-201.434-96.846
		C1385.586,691.068,1277.896,708.11,1173.297,729.809L1173.297,729.809z"/>
	<path fill="#CC2229" d="M1173.297,774.736v-44.929c-120.087,24.785-235.518,57.326-334.672,88.324v67.404
		C937.014,849.117,1067.165,804.955,1173.297,774.736z M1173.297,842.14v-47.249l-61.191,15.486l-3.878,44.162l-5.422,19.363
		l-13.177,188.27l83.668-20.92v-58.104l-16.265,4.643l5.422-49.583l10.843-3.1v-55.006l-6.965,1.558l2.321-38.741L1173.297,842.14
		L1173.297,842.14z M838.625,1006.389v79.804c10.382-6.048,19.357-14.234,26.328-24.021l59.661,63.526l21.686-6.2l1.544-15.485
		l15.498,7.743l27.107-1.557l-3.865-6.199l75.925-23.242l9.3-71.281l-79.024,25.563l3.879-48.818l65.847-23.24l1.558-50.35
		l-65.86,19.363l3.878-41.063l77.481-27.106l1.543-45.705l-127.83,41.841l-1.543,44.927l-7.756,20.921l-5.422,130.15l-38.74-37.184
		c0,0,11.621-18.6,11.621-55.783c0-37.185-30.984-68.169-61.982-68.169c-3.1,0-6.199,0.778-10.83,1.557v50.361
		c13.164,0.778,27.107,5.421,24.007,24.02C859.532,985.469,849.468,997.868,838.625,1006.389L838.625,1006.389z M838.625,885.523
		v-67.392c-41.405,13.698-82.729,27.646-123.965,41.841v76.703C740.236,924.265,784.386,906.444,838.625,885.523z"/>
	<path fill="#CC2229" d="M838.625,946.741v-50.362c-31.763,6.965-99.167,38.729-123.965,51.127l0.777,19.364l10.078,6.199
		l2.321,18.599l22.463-7.743c0,0-9.299,51.905-5.421,78.247l-30.22,11.621v6.199l3.1,0.777v15.485l6.214,7.756v11.621l10.828-3.864
		l-3.878,86.769l7.756-9.301l11.621-5.421l17.809,1.558v-11.621l17.819,2.321l3.893-10.064h18.585l2.335-69.726
		c0,0,13.164-1.543,27.896-10.064v-79.803c-13.177,10.843-26.354,16.264-26.354,16.264c0-38.728,9.313-75.146,9.313-75.146
		S829.326,945.963,838.625,946.741z M714.66,797.199v1.557l6.978-2.335L714.66,797.199z M714.66,798.756v-1.557l-62.762,3.1V791
		l-19.363-0.778l6.2-17.042c-21.698,5.421-41.841,10.844-61.983,16.277v56.548C639.514,821.22,696.84,804.178,714.66,798.756
		L714.66,798.756z M714.66,936.663V859.96c-56.563,20.921-103.812,38.741-137.908,53.462v79.79
		c4.645-0.778,8.521-1.544,10.844-1.544c6.979,9.3-0.777,50.349-10.844,99.945v168.893l2.322-1.544
		c34.084,7.756,41.84-20.92,41.84-20.92l13.943,5.421l3.878-7.756h20.92c0,0-0.778-245.596,34.861-286.657
		C696.84,946.741,703.817,942.085,714.66,936.663L714.66,936.663z"/>
	<path fill="#CC2229" d="M714.66,966.87v-19.364c-5.408,2.322-8.521,3.865-8.521,3.865l5.422,5.421l3.879,10.065h-0.778
		L714.66,966.87L714.66,966.87z M714.66,1079.992v-6.199l-8.521,3.1L714.66,1079.992z M576.752,846.018V789.47
		c-255.66,68.947-352.505,151.851-352.505,237.063c0,92.967,94.511,123.965,99.167,139.45
		c29.441,120.073-286.658,177.4-286.658,177.4l17.82,16.289l1.557,14.721l25.563,29.441l28.663,5.422l9.299,17.808l50.361-5.422
		l-3.865,18.6c44.927,8.534,255.661-74.368,303.7-165.792c34.863-65.835,15.5-113.875,15.5-113.875
		c-23.241-79.79-120.865-83.668-121.63-153.395C362.155,945.172,477.586,886.302,576.752,846.018z"/>
	<path fill="#CC2229" d="M576.752,993.212v-79.79c-33.306,13.942-53.461,24.021-56.548,26.342c0,0-9.299,40.283-55.782,73.604
		l24.785-3.864l-58.105,54.228C431.102,1063.715,540.347,1004.067,576.752,993.212L576.752,993.212z M576.752,1260.506v-168.893
		c-13.177,66.626-30.997,147.972-21.698,189.033L576.752,1260.506z M1108.229,854.539l-5.422,19.363l-13.178,188.27l148.75-37.197
		l3.878-61.97l-85.224,24.785l5.421-49.583l65.86-20.143l7.742-51.904l-69.726,15.499l2.322-38.741l80.567-21.698l6.199-48.026
		l-143.315,37.185L1108.229,854.539L1108.229,854.539z"/>
	<path fill="#CC2229" d="M1590.119,1508.423v51.113l23.229,18.599l13.178-15.473l17.834,3.852
		C1644.346,1566.501,1623.426,1544.063,1590.119,1508.423L1590.119,1508.423z"/>
	<path fill="#CC2229" d="M1590.119,1559.536v-51.113c-40.75-43.683-82.079-86.819-123.979-129.399
		c21.712-17.808,46.484-39.52,48.845-98.389c1.519-63.525-37.209-128.607-114.679-135.573h-16.264v67.404
		c27.106,7.756,44.147,28.663,44.147,56.548c-3.111,37.977-22.464,65.86-44.147,83.668v94.537
		c9.272-4.656,17.807-10.869,26.315-18.6c69.737,77.469,117.765,154.924,117.765,154.924l24.799-2.309l6.187-17.043l23.256,2.31
		l5.422-10.052L1590.119,1559.536z M1384.043,1072.236v19.363c3.086-0.777,6.186-2.321,9.271-3.101c0,0-10.052-13.177,28.678-24.798
		C1409.605,1066.814,1397.193,1069.137,1384.043,1072.236L1384.043,1072.236z M1384.043,1091.613v-19.364
		c-25.59,5.422-53.475,12.399-83.694,20.143v43.385c31.012-7.743,51.932-12.399,51.932-12.399S1359.996,1101.678,1384.043,1091.613
		L1384.043,1091.613z"/>
	<path fill="#CC2229" d="M1384.043,1212.466v-67.404c-21.712,0.778-51.932,6.199-83.694,13.942v464.85l13.178-7.756
		c0,0,32.555-72.824,32.555-152.628c0,0,17.808-4.656,37.976-16.265v-94.536c-10.078,9.299-21.712,16.29-31.763,20.168
		c0,0-3.879-96.08-7.756-161.928C1358.453,1208.601,1372.408,1209.365,1384.043,1212.466L1384.043,1212.466z M1300.349,1135.763
		v-43.384c-30.983,8.521-64.291,17.82-97.598,27.119v41.841C1235.051,1151.946,1267.595,1143.418,1300.349,1135.763z"/>
	<path fill="#CC2229" d="M1300.349,1623.854v-464.85c-34.861,7.756-71.269,17.82-97.598,27.12v39.519l19.364,12.399
		c0,0,17.819-4.644,34.875-6.199c8.509,98.375-5.435,206.843-5.435,206.843l-48.806,12.41v9.301l29.441,34.07l-3.879,17.834
		l10.064-1.543c0,0-4.643,42.605-35.641,98.389v38.728c16.264-4.655,31.763-13.954,31.763-13.954l57.326-19.352v13.93
		L1300.349,1623.854L1300.349,1623.854z"/>
	<path fill="#CC2229" d="M1202.738,1259.715v62.773l6.213-1.544l12.386-16.29l-12.386-5.422l17.029-46.482L1202.738,1259.715z
		 M1202.738,1161.339v-41.841l-46.483,13.942v42.605C1170.976,1170.625,1187.252,1165.98,1202.738,1161.339z M1202.738,1225.643
		v-39.506c-10.064,3.101-18.6,6.199-24.799,8.521c30.998,12.397,23.241,29.44,23.241,29.44L1202.738,1225.643z M1202.738,1322.488
		v-62.773l-46.483,13.955v61.982L1202.738,1322.488L1202.738,1322.488z M1202.738,1460.396v-9.301l-5.422,1.544L1202.738,1460.396z
		 M1202.738,1647.873v-38.729c-7.306,13.993-15.592,27.45-24.799,40.271C1184.152,1652.504,1193.452,1650.96,1202.738,1647.873z
		 M1156.255,1479.746v85.212l41.063-12.387v-79.037L1156.255,1479.746L1156.255,1479.746z M1156.255,1377.479v57.327l37.197-11.607
		l-1.558-15.499l11.621-42.605L1156.255,1377.479L1156.255,1377.479z"/>
	<path fill="#CC2229" d="M1156.255,1176.047v-42.605c-111.565,33.318-217.698,70.504-269.603,93.746v38.739
		c39.492-17.042,85.211-32.541,97.609-20.142c17.82,17.042-27.12,207.619-10.843,368.782c5.421-17.043,10.843-13.179,10.843-13.179
		l20.143,41.827l10.843-18.599l25.563,53.475l1.557-31.011l7.743,6.213c-9.3-92.968-1.544-405.967,33.318-442.373
		C1093.507,1200.066,1122.17,1187.68,1156.255,1176.047L1156.255,1176.047z"/>
	<path fill="#CC2229" d="M1156.255,1335.652v-61.982l-62.748,17.808l-8.521,294.4l71.27-20.92v-85.212l-14.721,1.544l1.556-42.605
		l13.165-3.878v-57.327l-13.165,3.087l3.879-42.604L1156.255,1335.652L1156.255,1335.652z M886.665,1345.717v307.578l14.708,6.213
		l3.1-16.29l34.862,37.185c0,0-14.721-214.585,6.978-357.913c-7.741,7.729-11.606-5.422-11.606-5.422s-12.412,28.649-25.576,7.729
		C905.238,1339.504,895.174,1344.174,886.665,1345.717z M886.665,1265.914v-38.741c-10.854,4.656-19.377,9.3-24.033,12.399
		c-10.843,7.743-24.785,29.429-24.785,29.429l-13.177,26.341C824.67,1295.355,853.346,1279.883,886.665,1265.914z M886.665,1653.295
		v-307.578c-4.656,0.791-8.534,0-8.534,0l-4.643,94.512l-28.664,13.177l8.533-103.811l-13.954,13.179l-11.621-13.179l-20.907,30.985
		l-6.213-11.608l-10.064,8.509v275.814l3.087-3.878l22.464,51.905l8.521-31.765l14.721,6.965v-147.207l33.307-10.843l1.557,128.608
		L886.665,1653.295L886.665,1653.295z M790.598,1234.164v3.1c6.965-3.1,13.164-6.199,20.144-9.3
		C803.749,1230.286,797.563,1231.842,790.598,1234.164z M790.598,1237.264v-3.1c-41.203,12.744-82.023,26.697-122.408,41.84v19.353
		C708.474,1276.004,749.521,1255.836,790.598,1237.264z M790.598,1653.295V1377.48l-6.212,5.422c0,0-22.464,189.813-13.941,272.715
		c9.299-10.077,13.177,7.729,13.177,7.729L790.598,1653.295z M668.176,1594.425v63.5c1.544,0,3.102-0.765,3.102-0.765v58.104
		l5.435-13.956l10.064,6.214l15.498-9.3l19.363,14.722l2.335-11.621l10.829,2.334l6.214-153.406l23.24-8.508l-5.421-48.818
		l-90.646,37.977v41.062l1.543,0.766l9.3-2.334v23.255C679.02,1593.634,674.376,1594.425,668.176,1594.425z M668.176,1407.699
		v74.369c27.12-21.687,62.748-31.765,78.247-45.72l-11.621-5.422l17.821-7.729l2.321-48.818
		C754.944,1374.393,712.338,1382.901,668.176,1407.699L668.176,1407.699z M668.176,1295.355v-19.353
		c-53.461,20.896-89.102,36.406-89.102,36.406l4.643-24.798c0,0-34.084,21.712-65.859,27.133v61.204
		C562.811,1350.373,613.938,1323.24,668.176,1295.355L668.176,1295.355z M668.176,1482.068v-74.369
		c-45.705,26.342-93.745,71.281-97.608,144.872c-7.757,116.986,82.124,107.688,97.608,105.354v-63.5
		c-13.177-1.569-35.641-9.299-33.317-49.596C636.413,1515.388,650.355,1496.011,668.176,1482.068L668.176,1482.068z"/>
	<path fill="#CC2229" d="M668.176,1571.948v-41.063l-20.142,8.51L668.176,1571.948z M517.87,1471.99v306.813
		c7.756,7.729,16.276,12.387,25.576,6.188c6.198-3.878-9.3-191.356,21.686-311.456c0,0-17.042,13.955-29.44-37.186
		C530.27,1451.849,524.069,1463.482,517.87,1471.99L517.87,1471.99z M517.87,1375.938v-61.204
		c-11.621,1.543-23.242,1.543-32.528-3.88c-50.361,18.601-257.995,146.416-299.822,210.733
		c-6.978,25.563-32.541,68.169-32.541,68.169l-17.82,57.326l12.399-1.543l-13.942,28.676l11.621-3.878v16.265
		c0,0,63.526-85.211,121.63-134.029c-7.743,44.939-7.743,90.633-7.743,90.633l-19.377,20.142l-19.364,40.298h15.486l-1.543,15.5
		l13.177-6.214l-5.421,17.809h10.83c0,0,2.321,63.524,10.064,100.723l41.062,13.956l6.978-8.534l23.242,19.377l17.82-15.499
		c0,0-6.199-123.188-3.865-175.856c20.907-21.711,94.51-63.525,94.51-63.525l6.2-23.255l-10.063-25.563l27.119-40.271
		c-51.905,27.105-116.209,65.835-116.209,65.835s6.2-85.212,15.499-100.724C375.319,1461.938,434.98,1423.198,517.87,1375.938
		L517.87,1375.938z"/>
	<path fill="#CC2229" d="M517.87,1778.803V1471.99c-13.165,20.143-27.107,26.342-27.107,26.342S462.1,1620.74,472.164,1756.34
		l10.078-6.213l10.842,9.299l10.065-3.086C503.148,1756.34,509.349,1769.491,517.87,1778.803L517.87,1778.803z M1084.985,1585.878
		l112.331-33.307v-79.037l-55.782,7.756l1.556-42.606l50.362-15.484l-1.557-15.499l11.62-42.605l-60.427,15.474l3.879-42.605
		l61.982-17.017l12.386-16.29l-12.386-5.421l17.029-46.483l-132.475,38.729L1084.985,1585.878L1084.985,1585.878z"/>
</g>
</svg>
